<?xml version="1.0" encoding="UTF-8" standalone="no"?>
<!DOCTYPE svg PUBLIC "-//W3C//DTD SVG 1.1//EN"
 "http://www.w3.org/Graphics/SVG/1.1/DTD/svg11.dtd">
<!-- Generated by graphviz version 12.2.1 (20241206.2353)
 -->
<!-- Title: Entity Relationship Diagram created by erdantic Pages: 1 -->
<svg width="294pt" height="229pt"
 viewBox="0.00 0.00 293.75 229.00" xmlns="http://www.w3.org/2000/svg" xmlns:xlink="http://www.w3.org/1999/xlink">
<g id="graph0" class="graph" transform="scale(1 1) rotate(0) translate(4 225)">
<title>Entity Relationship Diagram created by erdantic</title>
<polygon fill="white" stroke="none" points="-4,4 -4,-225 289.75,-225 289.75,4 -4,4"/>
<text text-anchor="middle" x="142.88" y="-5.95" font-family="Times New Roman,Times,Liberation Serif,serif" font-size="9.00" fill="#a8a8a8">Created by erdantic v1.0.5 &lt;https://github.com/drivendataorg/erdantic&gt;</text>
<!-- gdm.distribution.equipment.bare_conductor_equipment.BareConductorEquipment -->
<g id="node1" class="node">
<title>gdm.distribution.equipment.bare_conductor_equipment.BareConductorEquipment</title>
<g id="a_node1"><a xlink:title="gdm.distribution.equipment.bare_conductor_equipment.BareConductorEquipment&#10;&#10;Data model for conductor catalaog.&#10;">
<polygon fill="none" stroke="black" points="0,-198.5 0,-221 285.75,-221 285.75,-198.5 0,-198.5"/>
<text text-anchor="start" x="65.25" y="-205.7" font-family="Times New Roman,Times,Liberation Serif,serif" font-weight="bold" font-size="14.00">BareConductorEquipment</text>
<polygon fill="none" stroke="black" points="0,-176 0,-198.5 123,-198.5 123,-176 0,-176"/>
<text text-anchor="start" x="49.5" y="-182.2" font-family="Times New Roman,Times,Liberation Serif,serif" font-size="14.00">uuid</text>
<polygon fill="none" stroke="black" points="123,-176 123,-198.5 285.75,-198.5 285.75,-176 123,-176"/>
<text text-anchor="start" x="187.5" y="-182.2" font-family="Times New Roman,Times,Liberation Serif,serif" font-size="14.00">UUID</text>
<polygon fill="none" stroke="black" points="0,-153.5 0,-176 123,-176 123,-153.5 0,-153.5"/>
<text text-anchor="start" x="46.5" y="-159.7" font-family="Times New Roman,Times,Liberation Serif,serif" font-size="14.00">name</text>
<polygon fill="none" stroke="black" points="123,-153.5 123,-176 285.75,-176 285.75,-153.5 123,-153.5"/>
<text text-anchor="start" x="197.62" y="-159.7" font-family="Times New Roman,Times,Liberation Serif,serif" font-size="14.00">str</text>
<polygon fill="none" stroke="black" points="0,-131 0,-153.5 123,-153.5 123,-131 0,-131"/>
<text text-anchor="start" x="7.12" y="-137.2" font-family="Times New Roman,Times,Liberation Serif,serif" font-size="14.00">conductor_diameter</text>
<polygon fill="none" stroke="black" points="123,-131 123,-153.5 285.75,-153.5 285.75,-131 123,-131"/>
<text text-anchor="start" x="159" y="-137.2" font-family="Times New Roman,Times,Liberation Serif,serif" font-size="14.00">PositiveDistance</text>
<polygon fill="none" stroke="black" points="0,-108.5 0,-131 123,-131 123,-108.5 0,-108.5"/>
<text text-anchor="start" x="19.88" y="-114.7" font-family="Times New Roman,Times,Liberation Serif,serif" font-size="14.00">conductor_gmr</text>
<polygon fill="none" stroke="black" points="123,-108.5 123,-131 285.75,-131 285.75,-108.5 123,-108.5"/>
<text text-anchor="start" x="159" y="-114.7" font-family="Times New Roman,Times,Liberation Serif,serif" font-size="14.00">PositiveDistance</text>
<polygon fill="none" stroke="black" points="0,-86 0,-108.5 123,-108.5 123,-86 0,-86"/>
<text text-anchor="start" x="36.38" y="-92.2" font-family="Times New Roman,Times,Liberation Serif,serif" font-size="14.00">ampacity</text>
<polygon fill="none" stroke="black" points="123,-86 123,-108.5 285.75,-108.5 285.75,-86 123,-86"/>
<text text-anchor="start" x="162" y="-92.2" font-family="Times New Roman,Times,Liberation Serif,serif" font-size="14.00">PositiveCurrent</text>
<polygon fill="none" stroke="black" points="0,-63.5 0,-86 123,-86 123,-63.5 0,-63.5"/>
<text text-anchor="start" x="25.5" y="-69.7" font-family="Times New Roman,Times,Liberation Serif,serif" font-size="14.00">ac_resistance</text>
<polygon fill="none" stroke="black" points="123,-63.5 123,-86 285.75,-86 285.75,-63.5 123,-63.5"/>
<text text-anchor="start" x="126" y="-69.7" font-family="Times New Roman,Times,Liberation Serif,serif" font-size="14.00">PositiveResistancePULength</text>
<polygon fill="none" stroke="black" points="0,-41 0,-63.5 123,-63.5 123,-41 0,-41"/>
<text text-anchor="start" x="3" y="-47.2" font-family="Times New Roman,Times,Liberation Serif,serif" font-size="14.00">emergency_ampacity</text>
<polygon fill="none" stroke="black" points="123,-41 123,-63.5 285.75,-63.5 285.75,-41 123,-41"/>
<text text-anchor="start" x="162" y="-47.2" font-family="Times New Roman,Times,Liberation Serif,serif" font-size="14.00">PositiveCurrent</text>
<polygon fill="none" stroke="black" points="0,-18.5 0,-41 123,-41 123,-18.5 0,-18.5"/>
<text text-anchor="start" x="25.12" y="-24.7" font-family="Times New Roman,Times,Liberation Serif,serif" font-size="14.00">dc_resistance</text>
<polygon fill="none" stroke="black" points="123,-18.5 123,-41 285.75,-41 285.75,-18.5 123,-18.5"/>
<text text-anchor="start" x="126" y="-24.7" font-family="Times New Roman,Times,Liberation Serif,serif" font-size="14.00">PositiveResistancePULength</text>
</a>
</g>
</g>
</g>
</svg>
