<?xml version="1.0" encoding="UTF-8" standalone="no"?>
<!DOCTYPE svg PUBLIC "-//W3C//DTD SVG 1.1//EN"
 "http://www.w3.org/Graphics/SVG/1.1/DTD/svg11.dtd">
<!-- Generated by graphviz version 12.2.1 (20241206.2353)
 -->
<!-- Title: Entity Relationship Diagram created by erdantic Pages: 1 -->
<svg width="359pt" height="162pt"
 viewBox="0.00 0.00 359.00 161.50" xmlns="http://www.w3.org/2000/svg" xmlns:xlink="http://www.w3.org/1999/xlink">
<g id="graph0" class="graph" transform="scale(1 1) rotate(0) translate(4 157.5)">
<title>Entity Relationship Diagram created by erdantic</title>
<polygon fill="white" stroke="none" points="-4,4 -4,-157.5 355,-157.5 355,4 -4,4"/>
<text text-anchor="middle" x="175.5" y="-5.95" font-family="Times New Roman,Times,Liberation Serif,serif" font-size="9.00" fill="#a8a8a8">Created by erdantic v1.0.5 &lt;https://github.com/drivendataorg/erdantic&gt;</text>
<!-- gdm.distribution.controllers.distribution_inverter_controller.TimeOfUseControlSetting -->
<g id="node1" class="node">
<title>gdm.distribution.controllers.distribution_inverter_controller.TimeOfUseControlSetting</title>
<g id="a_node1"><a xlink:title="gdm.distribution.controllers.distribution_inverter_controller.TimeOfUseControlSetting&#10;&#10;Control settings for the Inverter Controller to represent time of use&#10;control settings. Works with battery systems only. Controls active power output of the&#10;connected inverter&#10;">
<polygon fill="none" stroke="black" points="0,-131 0,-153.5 351,-153.5 351,-131 0,-131"/>
<text text-anchor="start" x="99" y="-138.2" font-family="Times New Roman,Times,Liberation Serif,serif" font-weight="bold" font-size="14.00">TimeOfUseControlSetting</text>
<polygon fill="none" stroke="black" points="0,-108.5 0,-131 93.75,-131 93.75,-108.5 0,-108.5"/>
<text text-anchor="start" x="34.88" y="-114.7" font-family="Times New Roman,Times,Liberation Serif,serif" font-size="14.00">uuid</text>
<polygon fill="none" stroke="black" points="93.75,-108.5 93.75,-131 351,-131 351,-108.5 93.75,-108.5"/>
<text text-anchor="start" x="205.5" y="-114.7" font-family="Times New Roman,Times,Liberation Serif,serif" font-size="14.00">UUID</text>
<polygon fill="none" stroke="black" points="0,-86 0,-108.5 93.75,-108.5 93.75,-86 0,-86"/>
<text text-anchor="start" x="31.88" y="-92.2" font-family="Times New Roman,Times,Liberation Serif,serif" font-size="14.00">name</text>
<polygon fill="none" stroke="black" points="93.75,-86 93.75,-108.5 351,-108.5 351,-86 93.75,-86"/>
<text text-anchor="start" x="215.62" y="-92.2" font-family="Times New Roman,Times,Liberation Serif,serif" font-size="14.00">str</text>
<polygon fill="none" stroke="black" points="0,-63.5 0,-86 93.75,-86 93.75,-63.5 0,-63.5"/>
<text text-anchor="start" x="10.12" y="-69.7" font-family="Times New Roman,Times,Liberation Serif,serif" font-size="14.00">supported_by</text>
<polygon fill="none" stroke="black" points="93.75,-63.5 93.75,-86 351,-86 351,-63.5 93.75,-63.5"/>
<text text-anchor="start" x="96.75" y="-69.7" font-family="Times New Roman,Times,Liberation Serif,serif" font-size="14.00">Literal[ControllerSupport.BATTERY_ONLY]</text>
<polygon fill="none" stroke="black" points="0,-41 0,-63.5 93.75,-63.5 93.75,-41 0,-41"/>
<text text-anchor="start" x="31.12" y="-47.2" font-family="Times New Roman,Times,Liberation Serif,serif" font-size="14.00">tarriff</text>
<polygon fill="none" stroke="black" points="93.75,-41 93.75,-63.5 351,-63.5 351,-41 93.75,-41"/>
<text text-anchor="start" x="216.75" y="-47.2" font-family="Times New Roman,Times,Liberation Serif,serif" font-size="14.00">...</text>
<polygon fill="none" stroke="black" points="0,-18.5 0,-41 93.75,-41 93.75,-18.5 0,-18.5"/>
<text text-anchor="start" x="3" y="-24.7" font-family="Times New Roman,Times,Liberation Serif,serif" font-size="14.00">charging_power</text>
<polygon fill="none" stroke="black" points="93.75,-18.5 93.75,-41 351,-41 351,-18.5 93.75,-18.5"/>
<text text-anchor="start" x="187.12" y="-24.7" font-family="Times New Roman,Times,Liberation Serif,serif" font-size="14.00">ActivePower</text>
</a>
</g>
</g>
</g>
</svg>
