<?xml version="1.0" encoding="UTF-8" standalone="no"?>
<!DOCTYPE svg PUBLIC "-//W3C//DTD SVG 1.1//EN"
 "http://www.w3.org/Graphics/SVG/1.1/DTD/svg11.dtd">
<!-- Generated by graphviz version 12.2.1 (20241206.2353)
 -->
<!-- Title: Entity Relationship Diagram created by erdantic Pages: 1 -->
<svg width="275pt" height="207pt"
 viewBox="0.00 0.00 274.50 206.50" xmlns="http://www.w3.org/2000/svg" xmlns:xlink="http://www.w3.org/1999/xlink">
<g id="graph0" class="graph" transform="scale(1 1) rotate(0) translate(4 202.5)">
<title>Entity Relationship Diagram created by erdantic</title>
<polygon fill="white" stroke="none" points="-4,4 -4,-202.5 270.5,-202.5 270.5,4 -4,4"/>
<text text-anchor="middle" x="133.25" y="-5.95" font-family="Times New Roman,Times,Liberation Serif,serif" font-size="9.00" fill="#a8a8a8">Created by erdantic v1.0.5 &lt;https://github.com/drivendataorg/erdantic&gt;</text>
<!-- gdm.distribution.controllers.distribution_capacitor_controller.DailyTimedCapacitorController -->
<g id="node1" class="node">
<title>gdm.distribution.controllers.distribution_capacitor_controller.DailyTimedCapacitorController</title>
<g id="a_node1"><a xlink:title="gdm.distribution.controllers.distribution_capacitor_controller.DailyTimedCapacitorController&#10;&#10;Data model for a Capacitor Controller which uses a timed controller.&#10;">
<polygon fill="none" stroke="black" points="36.5,-176 36.5,-198.5 230,-198.5 230,-176 36.5,-176"/>
<text text-anchor="start" x="39.5" y="-183.2" font-family="Times New Roman,Times,Liberation Serif,serif" font-weight="bold" font-size="14.00">DailyTimedCapacitorController</text>
<polygon fill="none" stroke="black" points="36.5,-153.5 36.5,-176 119,-176 119,-153.5 36.5,-153.5"/>
<text text-anchor="start" x="65.75" y="-159.7" font-family="Times New Roman,Times,Liberation Serif,serif" font-size="14.00">uuid</text>
<polygon fill="none" stroke="black" points="119,-153.5 119,-176 230,-176 230,-153.5 119,-153.5"/>
<text text-anchor="start" x="157.62" y="-159.7" font-family="Times New Roman,Times,Liberation Serif,serif" font-size="14.00">UUID</text>
<polygon fill="none" stroke="black" points="36.5,-131 36.5,-153.5 119,-153.5 119,-131 36.5,-131"/>
<text text-anchor="start" x="62.75" y="-137.2" font-family="Times New Roman,Times,Liberation Serif,serif" font-size="14.00">name</text>
<polygon fill="none" stroke="black" points="119,-131 119,-153.5 230,-153.5 230,-131 119,-131"/>
<text text-anchor="start" x="167.75" y="-137.2" font-family="Times New Roman,Times,Liberation Serif,serif" font-size="14.00">str</text>
<polygon fill="none" stroke="black" points="36.5,-108.5 36.5,-131 119,-131 119,-108.5 36.5,-108.5"/>
<text text-anchor="start" x="53" y="-114.7" font-family="Times New Roman,Times,Liberation Serif,serif" font-size="14.00">delay_on</text>
<polygon fill="none" stroke="black" points="119,-108.5 119,-131 230,-131 230,-108.5 119,-108.5"/>
<text text-anchor="start" x="131.75" y="-114.7" font-family="Times New Roman,Times,Liberation Serif,serif" font-size="14.00">Optional[Time]</text>
<polygon fill="none" stroke="black" points="36.5,-86 36.5,-108.5 119,-108.5 119,-86 36.5,-86"/>
<text text-anchor="start" x="51.88" y="-92.2" font-family="Times New Roman,Times,Liberation Serif,serif" font-size="14.00">delay_off</text>
<polygon fill="none" stroke="black" points="119,-86 119,-108.5 230,-108.5 230,-86 119,-86"/>
<text text-anchor="start" x="131.75" y="-92.2" font-family="Times New Roman,Times,Liberation Serif,serif" font-size="14.00">Optional[Time]</text>
<polygon fill="none" stroke="black" points="36.5,-63.5 36.5,-86 119,-86 119,-63.5 36.5,-63.5"/>
<text text-anchor="start" x="49.25" y="-69.7" font-family="Times New Roman,Times,Liberation Serif,serif" font-size="14.00">dead_time</text>
<polygon fill="none" stroke="black" points="119,-63.5 119,-86 230,-86 230,-63.5 119,-63.5"/>
<text text-anchor="start" x="131.75" y="-69.7" font-family="Times New Roman,Times,Liberation Serif,serif" font-size="14.00">Optional[Time]</text>
<polygon fill="none" stroke="black" points="36.5,-41 36.5,-63.5 119,-63.5 119,-41 36.5,-41"/>
<text text-anchor="start" x="55.25" y="-47.2" font-family="Times New Roman,Times,Liberation Serif,serif" font-size="14.00">on_time</text>
<polygon fill="none" stroke="black" points="119,-41 119,-63.5 230,-63.5 230,-41 119,-41"/>
<text text-anchor="start" x="162.12" y="-47.2" font-family="Times New Roman,Times,Liberation Serif,serif" font-size="14.00">time</text>
<polygon fill="none" stroke="black" points="36.5,-18.5 36.5,-41 119,-41 119,-18.5 36.5,-18.5"/>
<text text-anchor="start" x="54.12" y="-24.7" font-family="Times New Roman,Times,Liberation Serif,serif" font-size="14.00">off_time</text>
<polygon fill="none" stroke="black" points="119,-18.5 119,-41 230,-41 230,-18.5 119,-18.5"/>
<text text-anchor="start" x="162.12" y="-24.7" font-family="Times New Roman,Times,Liberation Serif,serif" font-size="14.00">time</text>
</a>
</g>
</g>
</g>
</svg>
