<?xml version="1.0" encoding="UTF-8" standalone="no"?>
<!DOCTYPE svg PUBLIC "-//W3C//DTD SVG 1.1//EN"
 "http://www.w3.org/Graphics/SVG/1.1/DTD/svg11.dtd">
<!-- Generated by graphviz version 12.2.1 (20241206.2353)
 -->
<!-- Title: Entity Relationship Diagram created by erdantic Pages: 1 -->
<svg width="275pt" height="207pt"
 viewBox="0.00 0.00 274.50 206.50" xmlns="http://www.w3.org/2000/svg" xmlns:xlink="http://www.w3.org/1999/xlink">
<g id="graph0" class="graph" transform="scale(1 1) rotate(0) translate(4 202.5)">
<title>Entity Relationship Diagram created by erdantic</title>
<polygon fill="white" stroke="none" points="-4,4 -4,-202.5 270.5,-202.5 270.5,4 -4,4"/>
<text text-anchor="middle" x="133.25" y="-5.95" font-family="Times New Roman,Times,Liberation Serif,serif" font-size="9.00" fill="#a8a8a8">Created by erdantic v1.0.5 &lt;https://github.com/drivendataorg/erdantic&gt;</text>
<!-- gdm.distribution.controllers.distribution_capacitor_controller.ActivePowerCapacitorController -->
<g id="node1" class="node">
<title>gdm.distribution.controllers.distribution_capacitor_controller.ActivePowerCapacitorController</title>
<g id="a_node1"><a xlink:title="gdm.distribution.controllers.distribution_capacitor_controller.ActivePowerCapacitorController&#10;&#10;Data model for a Capacitor Controller which uses active power.&#10;">
<polygon fill="none" stroke="black" points="34.25,-176 34.25,-198.5 232.25,-198.5 232.25,-176 34.25,-176"/>
<text text-anchor="start" x="37.25" y="-183.2" font-family="Times New Roman,Times,Liberation Serif,serif" font-weight="bold" font-size="14.00">ActivePowerCapacitorController</text>
<polygon fill="none" stroke="black" points="34.25,-153.5 34.25,-176 104.75,-176 104.75,-153.5 34.25,-153.5"/>
<text text-anchor="start" x="57.5" y="-159.7" font-family="Times New Roman,Times,Liberation Serif,serif" font-size="14.00">uuid</text>
<polygon fill="none" stroke="black" points="104.75,-153.5 104.75,-176 232.25,-176 232.25,-153.5 104.75,-153.5"/>
<text text-anchor="start" x="151.62" y="-159.7" font-family="Times New Roman,Times,Liberation Serif,serif" font-size="14.00">UUID</text>
<polygon fill="none" stroke="black" points="34.25,-131 34.25,-153.5 104.75,-153.5 104.75,-131 34.25,-131"/>
<text text-anchor="start" x="54.5" y="-137.2" font-family="Times New Roman,Times,Liberation Serif,serif" font-size="14.00">name</text>
<polygon fill="none" stroke="black" points="104.75,-131 104.75,-153.5 232.25,-153.5 232.25,-131 104.75,-131"/>
<text text-anchor="start" x="161.75" y="-137.2" font-family="Times New Roman,Times,Liberation Serif,serif" font-size="14.00">str</text>
<polygon fill="none" stroke="black" points="34.25,-108.5 34.25,-131 104.75,-131 104.75,-108.5 34.25,-108.5"/>
<text text-anchor="start" x="44.75" y="-114.7" font-family="Times New Roman,Times,Liberation Serif,serif" font-size="14.00">delay_on</text>
<polygon fill="none" stroke="black" points="104.75,-108.5 104.75,-131 232.25,-131 232.25,-108.5 104.75,-108.5"/>
<text text-anchor="start" x="125.75" y="-114.7" font-family="Times New Roman,Times,Liberation Serif,serif" font-size="14.00">Optional[Time]</text>
<polygon fill="none" stroke="black" points="34.25,-86 34.25,-108.5 104.75,-108.5 104.75,-86 34.25,-86"/>
<text text-anchor="start" x="43.62" y="-92.2" font-family="Times New Roman,Times,Liberation Serif,serif" font-size="14.00">delay_off</text>
<polygon fill="none" stroke="black" points="104.75,-86 104.75,-108.5 232.25,-108.5 232.25,-86 104.75,-86"/>
<text text-anchor="start" x="125.75" y="-92.2" font-family="Times New Roman,Times,Liberation Serif,serif" font-size="14.00">Optional[Time]</text>
<polygon fill="none" stroke="black" points="34.25,-63.5 34.25,-86 104.75,-86 104.75,-63.5 34.25,-63.5"/>
<text text-anchor="start" x="41" y="-69.7" font-family="Times New Roman,Times,Liberation Serif,serif" font-size="14.00">dead_time</text>
<polygon fill="none" stroke="black" points="104.75,-63.5 104.75,-86 232.25,-86 232.25,-63.5 104.75,-63.5"/>
<text text-anchor="start" x="125.75" y="-69.7" font-family="Times New Roman,Times,Liberation Serif,serif" font-size="14.00">Optional[Time]</text>
<polygon fill="none" stroke="black" points="34.25,-41 34.25,-63.5 104.75,-63.5 104.75,-41 34.25,-41"/>
<text text-anchor="start" x="42.5" y="-47.2" font-family="Times New Roman,Times,Liberation Serif,serif" font-size="14.00">on_power</text>
<polygon fill="none" stroke="black" points="104.75,-41 104.75,-63.5 232.25,-63.5 232.25,-41 104.75,-41"/>
<text text-anchor="start" x="111.5" y="-47.2" font-family="Times New Roman,Times,Liberation Serif,serif" font-size="14.00">PositiveActivePower</text>
<polygon fill="none" stroke="black" points="34.25,-18.5 34.25,-41 104.75,-41 104.75,-18.5 34.25,-18.5"/>
<text text-anchor="start" x="41.38" y="-24.7" font-family="Times New Roman,Times,Liberation Serif,serif" font-size="14.00">off_power</text>
<polygon fill="none" stroke="black" points="104.75,-18.5 104.75,-41 232.25,-41 232.25,-18.5 104.75,-18.5"/>
<text text-anchor="start" x="111.5" y="-24.7" font-family="Times New Roman,Times,Liberation Serif,serif" font-size="14.00">PositiveActivePower</text>
</a>
</g>
</g>
</g>
</svg>
