<?xml version="1.0" encoding="UTF-8" standalone="no"?>
<!DOCTYPE svg PUBLIC "-//W3C//DTD SVG 1.1//EN"
 "http://www.w3.org/Graphics/SVG/1.1/DTD/svg11.dtd">
<!-- Generated by graphviz version 9.0.0 (0)
 -->
<!-- Title: Entity Relationship Diagram created by erdantic Pages: 1 -->
<svg width="275pt" height="203pt"
 viewBox="0.00 0.00 274.50 202.50" xmlns="http://www.w3.org/2000/svg" xmlns:xlink="http://www.w3.org/1999/xlink">
<g id="graph0" class="graph" transform="scale(1 1) rotate(0) translate(4 198.5)">
<title>Entity Relationship Diagram created by erdantic</title>
<polygon fill="white" stroke="none" points="-4,4 -4,-198.5 270.5,-198.5 270.5,4 -4,4"/>
<text text-anchor="middle" x="133.25" y="-5.95" font-family="Times New Roman,Times,Liberation Serif,serif" font-size="9.00" fill="#a8a8a8">Created by erdantic v0.6.0 &lt;https://github.com/drivendataorg/erdantic&gt;</text>
<!-- gdm.distribution.controllers.distribution_capacitor_controller.ActivePowerCapacitorController -->
<g id="node1" class="node">
<title>gdm.distribution.controllers.distribution_capacitor_controller.ActivePowerCapacitorController</title>
<g id="a_node1"><a xlink:title="gdm.distribution.controllers.distribution_capacitor_controller.ActivePowerCapacitorController&#10;&#10;Interface for a Capacitor Controller which uses active power.&#10;">
<polygon fill="none" stroke="black" points="34.25,-172.5 34.25,-194.5 232.25,-194.5 232.25,-172.5 34.25,-172.5"/>
<text text-anchor="start" x="37.25" y="-179.2" font-family="Times New Roman,Times,Liberation Serif,serif" font-weight="bold" font-size="14.00">ActivePowerCapacitorController</text>
<polygon fill="none" stroke="black" points="34.25,-150.5 34.25,-172.5 104.25,-172.5 104.25,-150.5 34.25,-150.5"/>
<text text-anchor="start" x="57.25" y="-156.2" font-family="Times New Roman,Times,Liberation Serif,serif" font-size="14.00">uuid</text>
<polygon fill="none" stroke="black" points="104.25,-150.5 104.25,-172.5 232.25,-172.5 232.25,-150.5 104.25,-150.5"/>
<text text-anchor="start" x="151.38" y="-156.2" font-family="Times New Roman,Times,Liberation Serif,serif" font-size="14.00">UUID</text>
<polygon fill="none" stroke="black" points="34.25,-128.5 34.25,-150.5 104.25,-150.5 104.25,-128.5 34.25,-128.5"/>
<text text-anchor="start" x="54.25" y="-134.2" font-family="Times New Roman,Times,Liberation Serif,serif" font-size="14.00">name</text>
<polygon fill="none" stroke="black" points="104.25,-128.5 104.25,-150.5 232.25,-150.5 232.25,-128.5 104.25,-128.5"/>
<text text-anchor="start" x="161.5" y="-134.2" font-family="Times New Roman,Times,Liberation Serif,serif" font-size="14.00">str</text>
<polygon fill="none" stroke="black" points="34.25,-106.5 34.25,-128.5 104.25,-128.5 104.25,-106.5 34.25,-106.5"/>
<text text-anchor="start" x="44.5" y="-112.2" font-family="Times New Roman,Times,Liberation Serif,serif" font-size="14.00">delay_on</text>
<polygon fill="none" stroke="black" points="104.25,-106.5 104.25,-128.5 232.25,-128.5 232.25,-106.5 104.25,-106.5"/>
<text text-anchor="start" x="125.5" y="-112.2" font-family="Times New Roman,Times,Liberation Serif,serif" font-size="14.00">Optional[Time]</text>
<polygon fill="none" stroke="black" points="34.25,-84.5 34.25,-106.5 104.25,-106.5 104.25,-84.5 34.25,-84.5"/>
<text text-anchor="start" x="43.38" y="-90.2" font-family="Times New Roman,Times,Liberation Serif,serif" font-size="14.00">delay_off</text>
<polygon fill="none" stroke="black" points="104.25,-84.5 104.25,-106.5 232.25,-106.5 232.25,-84.5 104.25,-84.5"/>
<text text-anchor="start" x="125.5" y="-90.2" font-family="Times New Roman,Times,Liberation Serif,serif" font-size="14.00">Optional[Time]</text>
<polygon fill="none" stroke="black" points="34.25,-62.5 34.25,-84.5 104.25,-84.5 104.25,-62.5 34.25,-62.5"/>
<text text-anchor="start" x="40.75" y="-68.2" font-family="Times New Roman,Times,Liberation Serif,serif" font-size="14.00">dead_time</text>
<polygon fill="none" stroke="black" points="104.25,-62.5 104.25,-84.5 232.25,-84.5 232.25,-62.5 104.25,-62.5"/>
<text text-anchor="start" x="125.5" y="-68.2" font-family="Times New Roman,Times,Liberation Serif,serif" font-size="14.00">Optional[Time]</text>
<polygon fill="none" stroke="black" points="34.25,-40.5 34.25,-62.5 104.25,-62.5 104.25,-40.5 34.25,-40.5"/>
<text text-anchor="start" x="42.25" y="-46.2" font-family="Times New Roman,Times,Liberation Serif,serif" font-size="14.00">on_power</text>
<polygon fill="none" stroke="black" points="104.25,-40.5 104.25,-62.5 232.25,-62.5 232.25,-40.5 104.25,-40.5"/>
<text text-anchor="start" x="111.25" y="-46.2" font-family="Times New Roman,Times,Liberation Serif,serif" font-size="14.00">PositiveActivePower</text>
<polygon fill="none" stroke="black" points="34.25,-18.5 34.25,-40.5 104.25,-40.5 104.25,-18.5 34.25,-18.5"/>
<text text-anchor="start" x="41.12" y="-24.2" font-family="Times New Roman,Times,Liberation Serif,serif" font-size="14.00">off_power</text>
<polygon fill="none" stroke="black" points="104.25,-18.5 104.25,-40.5 232.25,-40.5 232.25,-18.5 104.25,-18.5"/>
<text text-anchor="start" x="111.25" y="-24.2" font-family="Times New Roman,Times,Liberation Serif,serif" font-size="14.00">PositiveActivePower</text>
</a>
</g>
</g>
</g>
</svg>
