<?xml version="1.0" encoding="UTF-8" standalone="no"?>
<!DOCTYPE svg PUBLIC "-//W3C//DTD SVG 1.1//EN"
 "http://www.w3.org/Graphics/SVG/1.1/DTD/svg11.dtd">
<!-- Generated by graphviz version 9.0.0 (0)
 -->
<!-- Title: Entity Relationship Diagram created by erdantic Pages: 1 -->
<svg width="553pt" height="335pt"
 viewBox="0.00 0.00 553.00 334.50" xmlns="http://www.w3.org/2000/svg" xmlns:xlink="http://www.w3.org/1999/xlink">
<g id="graph0" class="graph" transform="scale(1 1) rotate(0) translate(4 330.5)">
<title>Entity Relationship Diagram created by erdantic</title>
<polygon fill="white" stroke="none" points="-4,4 -4,-330.5 549,-330.5 549,4 -4,4"/>
<text text-anchor="middle" x="272.5" y="-5.95" font-family="Times New Roman,Times,Liberation Serif,serif" font-size="9.00" fill="#a8a8a8">Created by erdantic v0.6.0 &lt;https://github.com/drivendataorg/erdantic&gt;</text>
<!-- gdm.distribution.equipment.bare_conductor_equipment.BareConductorEquipment -->
<g id="node1" class="node">
<title>gdm.distribution.equipment.bare_conductor_equipment.BareConductorEquipment</title>
<g id="a_node1"><a xlink:title="gdm.distribution.equipment.bare_conductor_equipment.BareConductorEquipment&#10;&#10;Interface for conductor catalaog.&#10;">
<polygon fill="none" stroke="black" points="0,-304.5 0,-326.5 285,-326.5 285,-304.5 0,-304.5"/>
<text text-anchor="start" x="64.88" y="-311.2" font-family="Times New Roman,Times,Liberation Serif,serif" font-weight="bold" font-size="14.00">BareConductorEquipment</text>
<polygon fill="none" stroke="black" points="0,-282.5 0,-304.5 123,-304.5 123,-282.5 0,-282.5"/>
<text text-anchor="start" x="49.5" y="-288.2" font-family="Times New Roman,Times,Liberation Serif,serif" font-size="14.00">uuid</text>
<polygon fill="none" stroke="black" points="123,-282.5 123,-304.5 285,-304.5 285,-282.5 123,-282.5"/>
<text text-anchor="start" x="187.12" y="-288.2" font-family="Times New Roman,Times,Liberation Serif,serif" font-size="14.00">UUID</text>
<polygon fill="none" stroke="black" points="0,-260.5 0,-282.5 123,-282.5 123,-260.5 0,-260.5"/>
<text text-anchor="start" x="46.5" y="-266.2" font-family="Times New Roman,Times,Liberation Serif,serif" font-size="14.00">name</text>
<polygon fill="none" stroke="black" points="123,-260.5 123,-282.5 285,-282.5 285,-260.5 123,-260.5"/>
<text text-anchor="start" x="197.25" y="-266.2" font-family="Times New Roman,Times,Liberation Serif,serif" font-size="14.00">str</text>
<polygon fill="none" stroke="black" points="0,-238.5 0,-260.5 123,-260.5 123,-238.5 0,-238.5"/>
<text text-anchor="start" x="7.12" y="-244.2" font-family="Times New Roman,Times,Liberation Serif,serif" font-size="14.00">conductor_diameter</text>
<polygon fill="none" stroke="black" points="123,-238.5 123,-260.5 285,-260.5 285,-238.5 123,-238.5"/>
<text text-anchor="start" x="158.62" y="-244.2" font-family="Times New Roman,Times,Liberation Serif,serif" font-size="14.00">PositiveDistance</text>
<polygon fill="none" stroke="black" points="0,-216.5 0,-238.5 123,-238.5 123,-216.5 0,-216.5"/>
<text text-anchor="start" x="19.88" y="-222.2" font-family="Times New Roman,Times,Liberation Serif,serif" font-size="14.00">conductor_gmr</text>
<polygon fill="none" stroke="black" points="123,-216.5 123,-238.5 285,-238.5 285,-216.5 123,-216.5"/>
<text text-anchor="start" x="158.62" y="-222.2" font-family="Times New Roman,Times,Liberation Serif,serif" font-size="14.00">PositiveDistance</text>
<polygon fill="none" stroke="black" points="0,-194.5 0,-216.5 123,-216.5 123,-194.5 0,-194.5"/>
<text text-anchor="start" x="36.38" y="-200.2" font-family="Times New Roman,Times,Liberation Serif,serif" font-size="14.00">ampacity</text>
<polygon fill="none" stroke="black" points="123,-194.5 123,-216.5 285,-216.5 285,-194.5 123,-194.5"/>
<text text-anchor="start" x="161.62" y="-200.2" font-family="Times New Roman,Times,Liberation Serif,serif" font-size="14.00">PositiveCurrent</text>
<polygon fill="none" stroke="black" points="0,-172.5 0,-194.5 123,-194.5 123,-172.5 0,-172.5"/>
<text text-anchor="start" x="25.5" y="-178.2" font-family="Times New Roman,Times,Liberation Serif,serif" font-size="14.00">ac_resistance</text>
<polygon fill="none" stroke="black" points="123,-172.5 123,-194.5 285,-194.5 285,-172.5 123,-172.5"/>
<text text-anchor="start" x="125.62" y="-178.2" font-family="Times New Roman,Times,Liberation Serif,serif" font-size="14.00">PositiveResistancePULength</text>
<polygon fill="none" stroke="black" points="0,-150.5 0,-172.5 123,-172.5 123,-150.5 0,-150.5"/>
<text text-anchor="start" x="3" y="-156.2" font-family="Times New Roman,Times,Liberation Serif,serif" font-size="14.00">emergency_ampacity</text>
<polygon fill="none" stroke="black" points="123,-150.5 123,-172.5 285,-172.5 285,-150.5 123,-150.5"/>
<text text-anchor="start" x="161.62" y="-156.2" font-family="Times New Roman,Times,Liberation Serif,serif" font-size="14.00">PositiveCurrent</text>
<polygon fill="none" stroke="black" points="0,-128.5 0,-150.5 123,-150.5 123,-128.5 0,-128.5"/>
<text text-anchor="start" x="25.12" y="-134.2" font-family="Times New Roman,Times,Liberation Serif,serif" font-size="14.00">dc_resistance</text>
<polygon fill="none" stroke="black" points="123,-128.5 123,-150.5 285,-150.5 285,-128.5 123,-128.5"/>
<text text-anchor="start" x="125.62" y="-134.2" font-family="Times New Roman,Times,Liberation Serif,serif" font-size="14.00">PositiveResistancePULength</text>
<polygon fill="none" stroke="black" points="0,-106.5 0,-128.5 123,-128.5 123,-106.5 0,-106.5"/>
<text text-anchor="start" x="24.75" y="-112.2" font-family="Times New Roman,Times,Liberation Serif,serif" font-size="14.00">loading_limit</text>
<polygon fill="none" stroke="black" points="123,-106.5 123,-128.5 285,-128.5 285,-106.5 123,-106.5"/>
<text text-anchor="start" x="128.62" y="-112.2" font-family="Times New Roman,Times,Liberation Serif,serif" font-size="14.00">Optional[ThermalLimitSet]</text>
</a>
</g>
</g>
<!-- gdm.distribution.limitset.ThermalLimitSet -->
<g id="node2" class="node">
<title>gdm.distribution.limitset.ThermalLimitSet</title>
<g id="a_node2"><a xlink:title="gdm.distribution.limitset.ThermalLimitSet&#10;&#10;Interface for voltage limit set.&#10;">
<polygon fill="none" stroke="black" points="393,-106.5 393,-128.5 545,-128.5 545,-106.5 393,-106.5"/>
<text text-anchor="start" x="418" y="-113.2" font-family="Times New Roman,Times,Liberation Serif,serif" font-weight="bold" font-size="14.00">ThermalLimitSet</text>
<polygon fill="none" stroke="black" points="393,-84.5 393,-106.5 455,-106.5 455,-84.5 393,-84.5"/>
<text text-anchor="start" x="412" y="-90.2" font-family="Times New Roman,Times,Liberation Serif,serif" font-size="14.00">uuid</text>
<polygon fill="none" stroke="black" points="455,-84.5 455,-106.5 545,-106.5 545,-84.5 455,-84.5"/>
<text text-anchor="start" x="483.12" y="-90.2" font-family="Times New Roman,Times,Liberation Serif,serif" font-size="14.00">UUID</text>
<polygon fill="none" stroke="black" points="393,-62.5 393,-84.5 455,-84.5 455,-62.5 393,-62.5"/>
<text text-anchor="start" x="409" y="-68.2" font-family="Times New Roman,Times,Liberation Serif,serif" font-size="14.00">name</text>
<polygon fill="none" stroke="black" points="455,-62.5 455,-84.5 545,-84.5 545,-62.5 455,-62.5"/>
<text text-anchor="start" x="493.25" y="-68.2" font-family="Times New Roman,Times,Liberation Serif,serif" font-size="14.00">str</text>
<polygon fill="none" stroke="black" points="393,-40.5 393,-62.5 455,-62.5 455,-40.5 393,-40.5"/>
<text text-anchor="start" x="395.88" y="-46.2" font-family="Times New Roman,Times,Liberation Serif,serif" font-size="14.00">limit_type</text>
<polygon fill="none" stroke="black" points="455,-40.5 455,-62.5 545,-62.5 545,-40.5 455,-40.5"/>
<text text-anchor="start" x="471.12" y="-46.2" font-family="Times New Roman,Times,Liberation Serif,serif" font-size="14.00">LimitType</text>
<polygon fill="none" stroke="black" points="393,-18.5 393,-40.5 455,-40.5 455,-18.5 393,-18.5"/>
<text text-anchor="start" x="409.38" y="-24.2" font-family="Times New Roman,Times,Liberation Serif,serif" font-size="14.00">value</text>
<polygon fill="none" stroke="black" points="455,-18.5 455,-40.5 545,-40.5 545,-18.5 455,-18.5"/>
<text text-anchor="start" x="457.62" y="-24.2" font-family="Times New Roman,Times,Liberation Serif,serif" font-size="14.00">PositiveCurrent</text>
</a>
</g>
</g>
<!-- gdm.distribution.equipment.bare_conductor_equipment.BareConductorEquipment&#45;&gt;gdm.distribution.limitset.ThermalLimitSet -->
<g id="edge1" class="edge">
<title>gdm.distribution.equipment.bare_conductor_equipment.BareConductorEquipment:e&#45;&gt;gdm.distribution.limitset.ThermalLimitSet:w</title>
<path fill="none" stroke="black" d="M294.87,-117.5C328.66,-117.5 343.59,-117.5 374.18,-117.5"/>
<polyline fill="none" stroke="black" points="285,-117.5 290,-117.5"/>
<polyline fill="none" stroke="black" points="290,-117.5 295,-117.5"/>
<polyline fill="none" stroke="black" points="393,-117.5 388,-117.5"/>
<polygon fill="black" stroke="black" points="387,-112.5 387,-122.5 385,-122.5 385,-112.5 387,-112.5"/>
<polyline fill="none" stroke="black" points="388,-117.5 383,-117.5"/>
<ellipse fill="none" stroke="black" cx="378.5" cy="-117.5" rx="4" ry="4"/>
</g>
</g>
</svg>
