<?xml version="1.0" encoding="UTF-8" standalone="no"?>
<!DOCTYPE svg PUBLIC "-//W3C//DTD SVG 1.1//EN"
 "http://www.w3.org/Graphics/SVG/1.1/DTD/svg11.dtd">
<!-- Generated by graphviz version 12.2.1 (20241206.2353)
 -->
<!-- Title: Entity Relationship Diagram created by erdantic Pages: 1 -->
<svg width="555pt" height="341pt"
 viewBox="0.00 0.00 554.75 341.25" xmlns="http://www.w3.org/2000/svg" xmlns:xlink="http://www.w3.org/1999/xlink">
<g id="graph0" class="graph" transform="scale(1 1) rotate(0) translate(4 337.25)">
<title>Entity Relationship Diagram created by erdantic</title>
<polygon fill="white" stroke="none" points="-4,4 -4,-337.25 550.75,-337.25 550.75,4 -4,4"/>
<text text-anchor="middle" x="273.38" y="-5.95" font-family="Times New Roman,Times,Liberation Serif,serif" font-size="9.00" fill="#a8a8a8">Created by erdantic v1.0.5 &lt;https://github.com/drivendataorg/erdantic&gt;</text>
<!-- gdm.distribution.common.limitset.ThermalLimitSet -->
<g id="node1" class="node">
<title>gdm.distribution.common.limitset.ThermalLimitSet</title>
<g id="a_node1"><a xlink:title="gdm.distribution.common.limitset.ThermalLimitSet&#10;&#10;Interface for voltage limit set.&#10;">
<polygon fill="none" stroke="black" points="393.75,-108.5 393.75,-131 546.75,-131 546.75,-108.5 393.75,-108.5"/>
<text text-anchor="start" x="419.25" y="-115.7" font-family="Times New Roman,Times,Liberation Serif,serif" font-weight="bold" font-size="14.00">ThermalLimitSet</text>
<polygon fill="none" stroke="black" points="393.75,-86 393.75,-108.5 456,-108.5 456,-86 393.75,-86"/>
<text text-anchor="start" x="412.88" y="-92.2" font-family="Times New Roman,Times,Liberation Serif,serif" font-size="14.00">uuid</text>
<polygon fill="none" stroke="black" points="456,-86 456,-108.5 546.75,-108.5 546.75,-86 456,-86"/>
<text text-anchor="start" x="484.5" y="-92.2" font-family="Times New Roman,Times,Liberation Serif,serif" font-size="14.00">UUID</text>
<polygon fill="none" stroke="black" points="393.75,-63.5 393.75,-86 456,-86 456,-63.5 393.75,-63.5"/>
<text text-anchor="start" x="409.88" y="-69.7" font-family="Times New Roman,Times,Liberation Serif,serif" font-size="14.00">name</text>
<polygon fill="none" stroke="black" points="456,-63.5 456,-86 546.75,-86 546.75,-63.5 456,-63.5"/>
<text text-anchor="start" x="494.62" y="-69.7" font-family="Times New Roman,Times,Liberation Serif,serif" font-size="14.00">str</text>
<polygon fill="none" stroke="black" points="393.75,-41 393.75,-63.5 456,-63.5 456,-41 393.75,-41"/>
<text text-anchor="start" x="396.75" y="-47.2" font-family="Times New Roman,Times,Liberation Serif,serif" font-size="14.00">limit_type</text>
<polygon fill="none" stroke="black" points="456,-41 456,-63.5 546.75,-63.5 546.75,-41 456,-41"/>
<text text-anchor="start" x="472.12" y="-47.2" font-family="Times New Roman,Times,Liberation Serif,serif" font-size="14.00">LimitType</text>
<polygon fill="none" stroke="black" points="393.75,-18.5 393.75,-41 456,-41 456,-18.5 393.75,-18.5"/>
<text text-anchor="start" x="410.25" y="-24.7" font-family="Times New Roman,Times,Liberation Serif,serif" font-size="14.00">value</text>
<polygon fill="none" stroke="black" points="456,-18.5 456,-41 546.75,-41 546.75,-18.5 456,-18.5"/>
<text text-anchor="start" x="459" y="-24.7" font-family="Times New Roman,Times,Liberation Serif,serif" font-size="14.00">PositiveCurrent</text>
</a>
</g>
</g>
<!-- gdm.distribution.equipment.bare_conductor_equipment.BareConductorEquipment -->
<g id="node2" class="node">
<title>gdm.distribution.equipment.bare_conductor_equipment.BareConductorEquipment</title>
<g id="a_node2"><a xlink:title="gdm.distribution.equipment.bare_conductor_equipment.BareConductorEquipment&#10;&#10;Interface for conductor catalaog.&#10;">
<polygon fill="none" stroke="black" points="0,-310.75 0,-333.25 285.75,-333.25 285.75,-310.75 0,-310.75"/>
<text text-anchor="start" x="65.25" y="-317.95" font-family="Times New Roman,Times,Liberation Serif,serif" font-weight="bold" font-size="14.00">BareConductorEquipment</text>
<polygon fill="none" stroke="black" points="0,-288.25 0,-310.75 123,-310.75 123,-288.25 0,-288.25"/>
<text text-anchor="start" x="49.5" y="-294.45" font-family="Times New Roman,Times,Liberation Serif,serif" font-size="14.00">uuid</text>
<polygon fill="none" stroke="black" points="123,-288.25 123,-310.75 285.75,-310.75 285.75,-288.25 123,-288.25"/>
<text text-anchor="start" x="187.5" y="-294.45" font-family="Times New Roman,Times,Liberation Serif,serif" font-size="14.00">UUID</text>
<polygon fill="none" stroke="black" points="0,-265.75 0,-288.25 123,-288.25 123,-265.75 0,-265.75"/>
<text text-anchor="start" x="46.5" y="-271.95" font-family="Times New Roman,Times,Liberation Serif,serif" font-size="14.00">name</text>
<polygon fill="none" stroke="black" points="123,-265.75 123,-288.25 285.75,-288.25 285.75,-265.75 123,-265.75"/>
<text text-anchor="start" x="197.62" y="-271.95" font-family="Times New Roman,Times,Liberation Serif,serif" font-size="14.00">str</text>
<polygon fill="none" stroke="black" points="0,-243.25 0,-265.75 123,-265.75 123,-243.25 0,-243.25"/>
<text text-anchor="start" x="7.12" y="-249.45" font-family="Times New Roman,Times,Liberation Serif,serif" font-size="14.00">conductor_diameter</text>
<polygon fill="none" stroke="black" points="123,-243.25 123,-265.75 285.75,-265.75 285.75,-243.25 123,-243.25"/>
<text text-anchor="start" x="159" y="-249.45" font-family="Times New Roman,Times,Liberation Serif,serif" font-size="14.00">PositiveDistance</text>
<polygon fill="none" stroke="black" points="0,-220.75 0,-243.25 123,-243.25 123,-220.75 0,-220.75"/>
<text text-anchor="start" x="19.88" y="-226.95" font-family="Times New Roman,Times,Liberation Serif,serif" font-size="14.00">conductor_gmr</text>
<polygon fill="none" stroke="black" points="123,-220.75 123,-243.25 285.75,-243.25 285.75,-220.75 123,-220.75"/>
<text text-anchor="start" x="159" y="-226.95" font-family="Times New Roman,Times,Liberation Serif,serif" font-size="14.00">PositiveDistance</text>
<polygon fill="none" stroke="black" points="0,-198.25 0,-220.75 123,-220.75 123,-198.25 0,-198.25"/>
<text text-anchor="start" x="36.38" y="-204.45" font-family="Times New Roman,Times,Liberation Serif,serif" font-size="14.00">ampacity</text>
<polygon fill="none" stroke="black" points="123,-198.25 123,-220.75 285.75,-220.75 285.75,-198.25 123,-198.25"/>
<text text-anchor="start" x="162" y="-204.45" font-family="Times New Roman,Times,Liberation Serif,serif" font-size="14.00">PositiveCurrent</text>
<polygon fill="none" stroke="black" points="0,-175.75 0,-198.25 123,-198.25 123,-175.75 0,-175.75"/>
<text text-anchor="start" x="25.5" y="-181.95" font-family="Times New Roman,Times,Liberation Serif,serif" font-size="14.00">ac_resistance</text>
<polygon fill="none" stroke="black" points="123,-175.75 123,-198.25 285.75,-198.25 285.75,-175.75 123,-175.75"/>
<text text-anchor="start" x="126" y="-181.95" font-family="Times New Roman,Times,Liberation Serif,serif" font-size="14.00">PositiveResistancePULength</text>
<polygon fill="none" stroke="black" points="0,-153.25 0,-175.75 123,-175.75 123,-153.25 0,-153.25"/>
<text text-anchor="start" x="3" y="-159.45" font-family="Times New Roman,Times,Liberation Serif,serif" font-size="14.00">emergency_ampacity</text>
<polygon fill="none" stroke="black" points="123,-153.25 123,-175.75 285.75,-175.75 285.75,-153.25 123,-153.25"/>
<text text-anchor="start" x="162" y="-159.45" font-family="Times New Roman,Times,Liberation Serif,serif" font-size="14.00">PositiveCurrent</text>
<polygon fill="none" stroke="black" points="0,-130.75 0,-153.25 123,-153.25 123,-130.75 0,-130.75"/>
<text text-anchor="start" x="25.12" y="-136.95" font-family="Times New Roman,Times,Liberation Serif,serif" font-size="14.00">dc_resistance</text>
<polygon fill="none" stroke="black" points="123,-130.75 123,-153.25 285.75,-153.25 285.75,-130.75 123,-130.75"/>
<text text-anchor="start" x="126" y="-136.95" font-family="Times New Roman,Times,Liberation Serif,serif" font-size="14.00">PositiveResistancePULength</text>
<polygon fill="none" stroke="black" points="0,-108.25 0,-130.75 123,-130.75 123,-108.25 0,-108.25"/>
<text text-anchor="start" x="24.75" y="-114.45" font-family="Times New Roman,Times,Liberation Serif,serif" font-size="14.00">loading_limit</text>
<polygon fill="none" stroke="black" points="123,-108.25 123,-130.75 285.75,-130.75 285.75,-108.25 123,-108.25"/>
<text text-anchor="start" x="129" y="-114.45" font-family="Times New Roman,Times,Liberation Serif,serif" font-size="14.00">Optional[ThermalLimitSet]</text>
</a>
</g>
</g>
<!-- gdm.distribution.equipment.bare_conductor_equipment.BareConductorEquipment&#45;&gt;gdm.distribution.common.limitset.ThermalLimitSet -->
<g id="edge1" class="edge">
<title>gdm.distribution.equipment.bare_conductor_equipment.BareConductorEquipment:e&#45;&gt;gdm.distribution.common.limitset.ThermalLimitSet:w</title>
<path fill="none" stroke="black" d="M295.62,-119.5C329.41,-119.53 344.34,-119.69 374.93,-119.74"/>
<polyline fill="none" stroke="black" points="285.75,-119.5 290.75,-119.5"/>
<polyline fill="none" stroke="black" points="290.75,-119.5 295.75,-119.5"/>
<polyline fill="none" stroke="black" points="393.75,-119.75 388.75,-119.75"/>
<polygon fill="black" stroke="black" points="387.75,-114.75 387.75,-124.75 385.75,-124.74 385.75,-114.74 387.75,-114.75"/>
<polyline fill="none" stroke="black" points="388.75,-119.75 383.75,-119.74"/>
<ellipse fill="none" stroke="black" cx="379.25" cy="-119.74" rx="4" ry="4"/>
</g>
</g>
</svg>
