<?xml version="1.0" encoding="UTF-8" standalone="no"?>
<!DOCTYPE svg PUBLIC "-//W3C//DTD SVG 1.1//EN"
 "http://www.w3.org/Graphics/SVG/1.1/DTD/svg11.dtd">
<!-- Generated by graphviz version 9.0.0 (0)
 -->
<!-- Title: Entity Relationship Diagram created by erdantic Pages: 1 -->
<svg width="357pt" height="159pt"
 viewBox="0.00 0.00 357.00 158.50" xmlns="http://www.w3.org/2000/svg" xmlns:xlink="http://www.w3.org/1999/xlink">
<g id="graph0" class="graph" transform="scale(1 1) rotate(0) translate(4 154.5)">
<title>Entity Relationship Diagram created by erdantic</title>
<polygon fill="white" stroke="none" points="-4,4 -4,-154.5 353,-154.5 353,4 -4,4"/>
<text text-anchor="middle" x="174.5" y="-5.95" font-family="Times New Roman,Times,Liberation Serif,serif" font-size="9.00" fill="#a8a8a8">Created by erdantic v0.6.0 &lt;https://github.com/drivendataorg/erdantic&gt;</text>
<!-- gdm.distribution.controllers.distribution_inverter_controller.BatteryDemandChargeController -->
<g id="node1" class="node">
<title>gdm.distribution.controllers.distribution_inverter_controller.BatteryDemandChargeController</title>
<g id="a_node1"><a xlink:title="gdm.distribution.controllers.distribution_inverter_controller.BatteryDemandChargeController&#10;&#10;Interface for battery demand charge controller.&#10;">
<polygon fill="none" stroke="black" points="0,-128.5 0,-150.5 349,-150.5 349,-128.5 0,-128.5"/>
<text text-anchor="start" x="76.25" y="-135.2" font-family="Times New Roman,Times,Liberation Serif,serif" font-weight="bold" font-size="14.00">BatteryDemandChargeController</text>
<polygon fill="none" stroke="black" points="0,-106.5 0,-128.5 93,-128.5 93,-106.5 0,-106.5"/>
<text text-anchor="start" x="34.5" y="-112.2" font-family="Times New Roman,Times,Liberation Serif,serif" font-size="14.00">uuid</text>
<polygon fill="none" stroke="black" points="93,-106.5 93,-128.5 349,-128.5 349,-106.5 93,-106.5"/>
<text text-anchor="start" x="204.12" y="-112.2" font-family="Times New Roman,Times,Liberation Serif,serif" font-size="14.00">UUID</text>
<polygon fill="none" stroke="black" points="0,-84.5 0,-106.5 93,-106.5 93,-84.5 0,-84.5"/>
<text text-anchor="start" x="31.5" y="-90.2" font-family="Times New Roman,Times,Liberation Serif,serif" font-size="14.00">name</text>
<polygon fill="none" stroke="black" points="93,-84.5 93,-106.5 349,-106.5 349,-84.5 93,-84.5"/>
<text text-anchor="start" x="214.25" y="-90.2" font-family="Times New Roman,Times,Liberation Serif,serif" font-size="14.00">str</text>
<polygon fill="none" stroke="black" points="0,-62.5 0,-84.5 93,-84.5 93,-62.5 0,-62.5"/>
<text text-anchor="start" x="9.75" y="-68.2" font-family="Times New Roman,Times,Liberation Serif,serif" font-size="14.00">supported_by</text>
<polygon fill="none" stroke="black" points="93,-62.5 93,-84.5 349,-84.5 349,-62.5 93,-62.5"/>
<text text-anchor="start" x="95.75" y="-68.2" font-family="Times New Roman,Times,Liberation Serif,serif" font-size="14.00">Literal[ControllerSupport.BATTERY_ONLY]</text>
<polygon fill="none" stroke="black" points="0,-40.5 0,-62.5 93,-62.5 93,-40.5 0,-40.5"/>
<text text-anchor="start" x="30.75" y="-46.2" font-family="Times New Roman,Times,Liberation Serif,serif" font-size="14.00">tarriff</text>
<polygon fill="none" stroke="black" points="93,-40.5 93,-62.5 349,-62.5 349,-40.5 93,-40.5"/>
<text text-anchor="start" x="215.38" y="-46.2" font-family="Times New Roman,Times,Liberation Serif,serif" font-size="14.00">...</text>
<polygon fill="none" stroke="black" points="0,-18.5 0,-40.5 93,-40.5 93,-18.5 0,-18.5"/>
<text text-anchor="start" x="2.62" y="-24.2" font-family="Times New Roman,Times,Liberation Serif,serif" font-size="14.00">charging_power</text>
<polygon fill="none" stroke="black" points="93,-18.5 93,-40.5 349,-40.5 349,-18.5 93,-18.5"/>
<text text-anchor="start" x="185.75" y="-24.2" font-family="Times New Roman,Times,Liberation Serif,serif" font-size="14.00">ActivePower</text>
</a>
</g>
</g>
</g>
</svg>
