<?xml version="1.0" encoding="UTF-8" standalone="no"?>
<!DOCTYPE svg PUBLIC "-//W3C//DTD SVG 1.1//EN"
 "http://www.w3.org/Graphics/SVG/1.1/DTD/svg11.dtd">
<!-- Generated by graphviz version 12.2.1 (20241206.2353)
 -->
<!-- Title: Entity Relationship Diagram created by erdantic Pages: 1 -->
<svg width="275pt" height="252pt"
 viewBox="0.00 0.00 274.50 251.50" xmlns="http://www.w3.org/2000/svg" xmlns:xlink="http://www.w3.org/1999/xlink">
<g id="graph0" class="graph" transform="scale(1 1) rotate(0) translate(4 247.5)">
<title>Entity Relationship Diagram created by erdantic</title>
<polygon fill="white" stroke="none" points="-4,4 -4,-247.5 270.5,-247.5 270.5,4 -4,4"/>
<text text-anchor="middle" x="133.25" y="-5.95" font-family="Times New Roman,Times,Liberation Serif,serif" font-size="9.00" fill="#a8a8a8">Created by erdantic v1.0.5 &lt;https://github.com/drivendataorg/erdantic&gt;</text>
<!-- gdm.distribution.equipment.battery_equipment.BatteryEquipment -->
<g id="node1" class="node">
<title>gdm.distribution.equipment.battery_equipment.BatteryEquipment</title>
<g id="a_node1"><a xlink:title="gdm.distribution.equipment.battery_equipment.BatteryEquipment&#10;&#10;Interface for Solar Model.&#10;">
<polygon fill="none" stroke="black" points="8.38,-221 8.38,-243.5 258.12,-243.5 258.12,-221 8.38,-221"/>
<text text-anchor="start" x="78.88" y="-228.2" font-family="Times New Roman,Times,Liberation Serif,serif" font-weight="bold" font-size="14.00">BatteryEquipment</text>
<polygon fill="none" stroke="black" points="8.38,-198.5 8.38,-221 138.12,-221 138.12,-198.5 8.38,-198.5"/>
<text text-anchor="start" x="61.25" y="-204.7" font-family="Times New Roman,Times,Liberation Serif,serif" font-size="14.00">uuid</text>
<polygon fill="none" stroke="black" points="138.12,-198.5 138.12,-221 258.12,-221 258.12,-198.5 138.12,-198.5"/>
<text text-anchor="start" x="181.25" y="-204.7" font-family="Times New Roman,Times,Liberation Serif,serif" font-size="14.00">UUID</text>
<polygon fill="none" stroke="black" points="8.38,-176 8.38,-198.5 138.12,-198.5 138.12,-176 8.38,-176"/>
<text text-anchor="start" x="58.25" y="-182.2" font-family="Times New Roman,Times,Liberation Serif,serif" font-size="14.00">name</text>
<polygon fill="none" stroke="black" points="138.12,-176 138.12,-198.5 258.12,-198.5 258.12,-176 138.12,-176"/>
<text text-anchor="start" x="191.38" y="-182.2" font-family="Times New Roman,Times,Liberation Serif,serif" font-size="14.00">str</text>
<polygon fill="none" stroke="black" points="8.38,-153.5 8.38,-176 138.12,-176 138.12,-153.5 8.38,-153.5"/>
<text text-anchor="start" x="38" y="-159.7" font-family="Times New Roman,Times,Liberation Serif,serif" font-size="14.00">rated_energy</text>
<polygon fill="none" stroke="black" points="138.12,-153.5 138.12,-176 258.12,-176 258.12,-153.5 138.12,-153.5"/>
<text text-anchor="start" x="147.5" y="-159.7" font-family="Times New Roman,Times,Liberation Serif,serif" font-size="14.00">EnergyDC</text>
<polygon fill="none" stroke="black" points="8.38,-131 8.38,-153.5 138.12,-153.5 138.12,-131 8.38,-131"/>
<text text-anchor="start" x="39.5" y="-137.2" font-family="Times New Roman,Times,Liberation Serif,serif" font-size="14.00">rated_power</text>
<polygon fill="none" stroke="black" points="138.12,-131 138.12,-153.5 258.12,-153.5 258.12,-131 138.12,-131"/>
<text text-anchor="start" x="141.12" y="-137.2" font-family="Times New Roman,Times,Liberation Serif,serif" font-size="14.00">PositiveActivePower</text>
<polygon fill="none" stroke="black" points="8.38,-108.5 8.38,-131 138.12,-131 138.12,-108.5 8.38,-108.5"/>
<text text-anchor="start" x="19.25" y="-114.7" font-family="Times New Roman,Times,Liberation Serif,serif" font-size="14.00">charging_efficiency</text>
<polygon fill="none" stroke="black" points="138.12,-108.5 138.12,-131 258.12,-131 258.12,-108.5 138.12,-108.5"/>
<text text-anchor="start" x="185.75" y="-114.7" font-family="Times New Roman,Times,Liberation Serif,serif" font-size="14.00">float</text>
<polygon fill="none" stroke="black" points="8.38,-86 8.38,-108.5 138.12,-108.5 138.12,-86 8.38,-86"/>
<text text-anchor="start" x="11.38" y="-92.2" font-family="Times New Roman,Times,Liberation Serif,serif" font-size="14.00">discharging_efficiency</text>
<polygon fill="none" stroke="black" points="138.12,-86 138.12,-108.5 258.12,-108.5 258.12,-86 138.12,-86"/>
<text text-anchor="start" x="185.75" y="-92.2" font-family="Times New Roman,Times,Liberation Serif,serif" font-size="14.00">float</text>
<polygon fill="none" stroke="black" points="8.38,-63.5 8.38,-86 138.12,-86 138.12,-63.5 8.38,-63.5"/>
<text text-anchor="start" x="27.12" y="-69.7" font-family="Times New Roman,Times,Liberation Serif,serif" font-size="14.00">idling_efficiency</text>
<polygon fill="none" stroke="black" points="138.12,-63.5 138.12,-86 258.12,-86 258.12,-63.5 138.12,-63.5"/>
<text text-anchor="start" x="185.75" y="-69.7" font-family="Times New Roman,Times,Liberation Serif,serif" font-size="14.00">float</text>
<polygon fill="none" stroke="black" points="8.38,-41 8.38,-63.5 138.12,-63.5 138.12,-41 8.38,-41"/>
<text text-anchor="start" x="36.5" y="-47.2" font-family="Times New Roman,Times,Liberation Serif,serif" font-size="14.00">rated_voltage</text>
<polygon fill="none" stroke="black" points="138.12,-41 138.12,-63.5 258.12,-63.5 258.12,-41 138.12,-41"/>
<text text-anchor="start" x="155.75" y="-47.2" font-family="Times New Roman,Times,Liberation Serif,serif" font-size="14.00">PositiveVoltage</text>
<polygon fill="none" stroke="black" points="8.38,-18.5 8.38,-41 138.12,-41 138.12,-18.5 8.38,-18.5"/>
<text text-anchor="start" x="38.38" y="-24.7" font-family="Times New Roman,Times,Liberation Serif,serif" font-size="14.00">voltage_type</text>
<polygon fill="none" stroke="black" points="138.12,-18.5 138.12,-41 258.12,-41 258.12,-18.5 138.12,-18.5"/>
<text text-anchor="start" x="161" y="-24.7" font-family="Times New Roman,Times,Liberation Serif,serif" font-size="14.00">VoltageTypes</text>
</a>
</g>
</g>
</g>
</svg>
