<?xml version="1.0" encoding="UTF-8" standalone="no"?>
<!DOCTYPE svg PUBLIC "-//W3C//DTD SVG 1.1//EN"
 "http://www.w3.org/Graphics/SVG/1.1/DTD/svg11.dtd">
<!-- Generated by graphviz version 9.0.0 (0)
 -->
<!-- Title: Entity Relationship Diagram created by erdantic Pages: 1 -->
<svg width="343pt" height="115pt"
 viewBox="0.00 0.00 343.00 114.50" xmlns="http://www.w3.org/2000/svg" xmlns:xlink="http://www.w3.org/1999/xlink">
<g id="graph0" class="graph" transform="scale(1 1) rotate(0) translate(4 110.5)">
<title>Entity Relationship Diagram created by erdantic</title>
<polygon fill="white" stroke="none" points="-4,4 -4,-110.5 339,-110.5 339,4 -4,4"/>
<text text-anchor="middle" x="167.5" y="-5.95" font-family="Times New Roman,Times,Liberation Serif,serif" font-size="9.00" fill="#a8a8a8">Created by erdantic v0.6.0 &lt;https://github.com/drivendataorg/erdantic&gt;</text>
<!-- gdm.distribution.controllers.distribution_inverter_controller.BatterySelfConsumptionController -->
<g id="node1" class="node">
<title>gdm.distribution.controllers.distribution_inverter_controller.BatterySelfConsumptionController</title>
<g id="a_node1"><a xlink:title="gdm.distribution.controllers.distribution_inverter_controller.BatterySelfConsumptionController&#10;&#10;Interface for battery self consumption controller.&#10;">
<polygon fill="none" stroke="black" points="0,-84.5 0,-106.5 335,-106.5 335,-84.5 0,-84.5"/>
<text text-anchor="start" x="65.12" y="-91.2" font-family="Times New Roman,Times,Liberation Serif,serif" font-weight="bold" font-size="14.00">BatterySelfConsumptionController</text>
<polygon fill="none" stroke="black" points="0,-62.5 0,-84.5 79,-84.5 79,-62.5 0,-62.5"/>
<text text-anchor="start" x="27.5" y="-68.2" font-family="Times New Roman,Times,Liberation Serif,serif" font-size="14.00">uuid</text>
<polygon fill="none" stroke="black" points="79,-62.5 79,-84.5 335,-84.5 335,-62.5 79,-62.5"/>
<text text-anchor="start" x="190.12" y="-68.2" font-family="Times New Roman,Times,Liberation Serif,serif" font-size="14.00">UUID</text>
<polygon fill="none" stroke="black" points="0,-40.5 0,-62.5 79,-62.5 79,-40.5 0,-40.5"/>
<text text-anchor="start" x="24.5" y="-46.2" font-family="Times New Roman,Times,Liberation Serif,serif" font-size="14.00">name</text>
<polygon fill="none" stroke="black" points="79,-40.5 79,-62.5 335,-62.5 335,-40.5 79,-40.5"/>
<text text-anchor="start" x="200.25" y="-46.2" font-family="Times New Roman,Times,Liberation Serif,serif" font-size="14.00">str</text>
<polygon fill="none" stroke="black" points="0,-18.5 0,-40.5 79,-40.5 79,-18.5 0,-18.5"/>
<text text-anchor="start" x="2.75" y="-24.2" font-family="Times New Roman,Times,Liberation Serif,serif" font-size="14.00">supported_by</text>
<polygon fill="none" stroke="black" points="79,-18.5 79,-40.5 335,-40.5 335,-18.5 79,-18.5"/>
<text text-anchor="start" x="81.75" y="-24.2" font-family="Times New Roman,Times,Liberation Serif,serif" font-size="14.00">Literal[ControllerSupport.BATTERY_ONLY]</text>
</a>
</g>
</g>
</g>
</svg>
