<?xml version="1.0" encoding="UTF-8" standalone="no"?>
<!DOCTYPE svg PUBLIC "-//W3C//DTD SVG 1.1//EN"
 "http://www.w3.org/Graphics/SVG/1.1/DTD/svg11.dtd">
<!-- Generated by graphviz version 9.0.0 (0)
 -->
<!-- Title: Entity Relationship Diagram created by erdantic Pages: 1 -->
<svg width="394pt" height="247pt"
 viewBox="0.00 0.00 394.00 246.50" xmlns="http://www.w3.org/2000/svg" xmlns:xlink="http://www.w3.org/1999/xlink">
<g id="graph0" class="graph" transform="scale(1 1) rotate(0) translate(4 242.5)">
<title>Entity Relationship Diagram created by erdantic</title>
<polygon fill="white" stroke="none" points="-4,4 -4,-242.5 390,-242.5 390,4 -4,4"/>
<text text-anchor="middle" x="193" y="-5.95" font-family="Times New Roman,Times,Liberation Serif,serif" font-size="9.00" fill="#a8a8a8">Created by erdantic v0.6.0 &lt;https://github.com/drivendataorg/erdantic&gt;</text>
<!-- gdm.distribution.controllers.distribution_inverter_controller.BatteryTimeBaseController -->
<g id="node1" class="node">
<title>gdm.distribution.controllers.distribution_inverter_controller.BatteryTimeBaseController</title>
<g id="a_node1"><a xlink:title="gdm.distribution.controllers.distribution_inverter_controller.BatteryTimeBaseController&#10;&#10;Interface for battery capacity firming controller.&#10;">
<polygon fill="none" stroke="black" points="0,-216.5 0,-238.5 386,-238.5 386,-216.5 0,-216.5"/>
<text text-anchor="start" x="112" y="-223.2" font-family="Times New Roman,Times,Liberation Serif,serif" font-weight="bold" font-size="14.00">BatteryTimeBaseController</text>
<polygon fill="none" stroke="black" points="0,-194.5 0,-216.5 130,-216.5 130,-194.5 0,-194.5"/>
<text text-anchor="start" x="53" y="-200.2" font-family="Times New Roman,Times,Liberation Serif,serif" font-size="14.00">uuid</text>
<polygon fill="none" stroke="black" points="130,-194.5 130,-216.5 386,-216.5 386,-194.5 130,-194.5"/>
<text text-anchor="start" x="241.12" y="-200.2" font-family="Times New Roman,Times,Liberation Serif,serif" font-size="14.00">UUID</text>
<polygon fill="none" stroke="black" points="0,-172.5 0,-194.5 130,-194.5 130,-172.5 0,-172.5"/>
<text text-anchor="start" x="50" y="-178.2" font-family="Times New Roman,Times,Liberation Serif,serif" font-size="14.00">name</text>
<polygon fill="none" stroke="black" points="130,-172.5 130,-194.5 386,-194.5 386,-172.5 130,-172.5"/>
<text text-anchor="start" x="251.25" y="-178.2" font-family="Times New Roman,Times,Liberation Serif,serif" font-size="14.00">str</text>
<polygon fill="none" stroke="black" points="0,-150.5 0,-172.5 130,-172.5 130,-150.5 0,-150.5"/>
<text text-anchor="start" x="28.25" y="-156.2" font-family="Times New Roman,Times,Liberation Serif,serif" font-size="14.00">supported_by</text>
<polygon fill="none" stroke="black" points="130,-150.5 130,-172.5 386,-172.5 386,-150.5 130,-150.5"/>
<text text-anchor="start" x="132.75" y="-156.2" font-family="Times New Roman,Times,Liberation Serif,serif" font-size="14.00">Literal[ControllerSupport.BATTERY_ONLY]</text>
<polygon fill="none" stroke="black" points="0,-128.5 0,-150.5 130,-150.5 130,-128.5 0,-128.5"/>
<text text-anchor="start" x="10.62" y="-134.2" font-family="Times New Roman,Times,Liberation Serif,serif" font-size="14.00">charging_start_time</text>
<polygon fill="none" stroke="black" points="130,-128.5 130,-150.5 386,-150.5 386,-128.5 130,-128.5"/>
<text text-anchor="start" x="245.62" y="-134.2" font-family="Times New Roman,Times,Liberation Serif,serif" font-size="14.00">time</text>
<polygon fill="none" stroke="black" points="0,-106.5 0,-128.5 130,-128.5 130,-106.5 0,-106.5"/>
<text text-anchor="start" x="12.5" y="-112.2" font-family="Times New Roman,Times,Liberation Serif,serif" font-size="14.00">charging_end_time</text>
<polygon fill="none" stroke="black" points="130,-106.5 130,-128.5 386,-128.5 386,-106.5 130,-106.5"/>
<text text-anchor="start" x="245.62" y="-112.2" font-family="Times New Roman,Times,Liberation Serif,serif" font-size="14.00">time</text>
<polygon fill="none" stroke="black" points="0,-84.5 0,-106.5 130,-106.5 130,-84.5 0,-84.5"/>
<text text-anchor="start" x="2.75" y="-90.2" font-family="Times New Roman,Times,Liberation Serif,serif" font-size="14.00">discharging_start_time</text>
<polygon fill="none" stroke="black" points="130,-84.5 130,-106.5 386,-106.5 386,-84.5 130,-84.5"/>
<text text-anchor="start" x="245.62" y="-90.2" font-family="Times New Roman,Times,Liberation Serif,serif" font-size="14.00">time</text>
<polygon fill="none" stroke="black" points="0,-62.5 0,-84.5 130,-84.5 130,-62.5 0,-62.5"/>
<text text-anchor="start" x="4.62" y="-68.2" font-family="Times New Roman,Times,Liberation Serif,serif" font-size="14.00">discharging_end_time</text>
<polygon fill="none" stroke="black" points="130,-62.5 130,-84.5 386,-84.5 386,-62.5 130,-62.5"/>
<text text-anchor="start" x="245.62" y="-68.2" font-family="Times New Roman,Times,Liberation Serif,serif" font-size="14.00">time</text>
<polygon fill="none" stroke="black" points="0,-40.5 0,-62.5 130,-62.5 130,-40.5 0,-40.5"/>
<text text-anchor="start" x="21.12" y="-46.2" font-family="Times New Roman,Times,Liberation Serif,serif" font-size="14.00">charging_power</text>
<polygon fill="none" stroke="black" points="130,-40.5 130,-62.5 386,-62.5 386,-40.5 130,-40.5"/>
<text text-anchor="start" x="222.75" y="-46.2" font-family="Times New Roman,Times,Liberation Serif,serif" font-size="14.00">ActivePower</text>
<polygon fill="none" stroke="black" points="0,-18.5 0,-40.5 130,-40.5 130,-18.5 0,-18.5"/>
<text text-anchor="start" x="13.25" y="-24.2" font-family="Times New Roman,Times,Liberation Serif,serif" font-size="14.00">discharging_power</text>
<polygon fill="none" stroke="black" points="130,-18.5 130,-40.5 386,-40.5 386,-18.5 130,-18.5"/>
<text text-anchor="start" x="222.75" y="-24.2" font-family="Times New Roman,Times,Liberation Serif,serif" font-size="14.00">ActivePower</text>
</a>
</g>
</g>
</g>
</svg>
