<?xml version="1.0" encoding="UTF-8" standalone="no"?>
<!DOCTYPE svg PUBLIC "-//W3C//DTD SVG 1.1//EN"
 "http://www.w3.org/Graphics/SVG/1.1/DTD/svg11.dtd">
<!-- Generated by graphviz version 9.0.0 (0)
 -->
<!-- Title: Entity Relationship Diagram created by erdantic Pages: 1 -->
<svg width="397pt" height="159pt"
 viewBox="0.00 0.00 397.00 158.50" xmlns="http://www.w3.org/2000/svg" xmlns:xlink="http://www.w3.org/1999/xlink">
<g id="graph0" class="graph" transform="scale(1 1) rotate(0) translate(4 154.5)">
<title>Entity Relationship Diagram created by erdantic</title>
<polygon fill="white" stroke="none" points="-4,4 -4,-154.5 393,-154.5 393,4 -4,4"/>
<text text-anchor="middle" x="194.5" y="-5.95" font-family="Times New Roman,Times,Liberation Serif,serif" font-size="9.00" fill="#a8a8a8">Created by erdantic v0.6.0 &lt;https://github.com/drivendataorg/erdantic&gt;</text>
<!-- gdm.distribution.controllers.distribution_inverter_controller.BatteryCapacityFirmingController -->
<g id="node1" class="node">
<title>gdm.distribution.controllers.distribution_inverter_controller.BatteryCapacityFirmingController</title>
<g id="a_node1"><a xlink:title="gdm.distribution.controllers.distribution_inverter_controller.BatteryCapacityFirmingController&#10;&#10;Interface for battery capacity firming controller.&#10;">
<polygon fill="none" stroke="black" points="0,-128.5 0,-150.5 389,-150.5 389,-128.5 0,-128.5"/>
<text text-anchor="start" x="92.5" y="-135.2" font-family="Times New Roman,Times,Liberation Serif,serif" font-weight="bold" font-size="14.00">BatteryCapacityFirmingController</text>
<polygon fill="none" stroke="black" points="0,-106.5 0,-128.5 133,-128.5 133,-106.5 0,-106.5"/>
<text text-anchor="start" x="54.5" y="-112.2" font-family="Times New Roman,Times,Liberation Serif,serif" font-size="14.00">uuid</text>
<polygon fill="none" stroke="black" points="133,-106.5 133,-128.5 389,-128.5 389,-106.5 133,-106.5"/>
<text text-anchor="start" x="244.12" y="-112.2" font-family="Times New Roman,Times,Liberation Serif,serif" font-size="14.00">UUID</text>
<polygon fill="none" stroke="black" points="0,-84.5 0,-106.5 133,-106.5 133,-84.5 0,-84.5"/>
<text text-anchor="start" x="51.5" y="-90.2" font-family="Times New Roman,Times,Liberation Serif,serif" font-size="14.00">name</text>
<polygon fill="none" stroke="black" points="133,-84.5 133,-106.5 389,-106.5 389,-84.5 133,-84.5"/>
<text text-anchor="start" x="254.25" y="-90.2" font-family="Times New Roman,Times,Liberation Serif,serif" font-size="14.00">str</text>
<polygon fill="none" stroke="black" points="0,-62.5 0,-84.5 133,-84.5 133,-62.5 0,-62.5"/>
<text text-anchor="start" x="29.75" y="-68.2" font-family="Times New Roman,Times,Liberation Serif,serif" font-size="14.00">supported_by</text>
<polygon fill="none" stroke="black" points="133,-62.5 133,-84.5 389,-84.5 389,-62.5 133,-62.5"/>
<text text-anchor="start" x="135.75" y="-68.2" font-family="Times New Roman,Times,Liberation Serif,serif" font-size="14.00">Literal[ControllerSupport.BATTERY_ONLY]</text>
<polygon fill="none" stroke="black" points="0,-40.5 0,-62.5 133,-62.5 133,-40.5 0,-40.5"/>
<text text-anchor="start" x="2.75" y="-46.2" font-family="Times New Roman,Times,Liberation Serif,serif" font-size="14.00">max_active_power_roc</text>
<polygon fill="none" stroke="black" points="133,-40.5 133,-62.5 389,-62.5 389,-40.5 133,-40.5"/>
<text text-anchor="start" x="202.5" y="-46.2" font-family="Times New Roman,Times,Liberation Serif,serif" font-size="14.00">ActivePowerPUTime</text>
<polygon fill="none" stroke="black" points="0,-18.5 0,-40.5 133,-40.5 133,-18.5 0,-18.5"/>
<text text-anchor="start" x="3.88" y="-24.2" font-family="Times New Roman,Times,Liberation Serif,serif" font-size="14.00">min_active_power_roc</text>
<polygon fill="none" stroke="black" points="133,-18.5 133,-40.5 389,-40.5 389,-18.5 133,-18.5"/>
<text text-anchor="start" x="202.5" y="-24.2" font-family="Times New Roman,Times,Liberation Serif,serif" font-size="14.00">ActivePowerPUTime</text>
</a>
</g>
</g>
</g>
</svg>
