<?xml version="1.0" encoding="UTF-8" standalone="no"?>
<!DOCTYPE svg PUBLIC "-//W3C//DTD SVG 1.1//EN"
 "http://www.w3.org/Graphics/SVG/1.1/DTD/svg11.dtd">
<!-- Generated by graphviz version 9.0.0 (0)
 -->
<!-- Title: Entity Relationship Diagram created by erdantic Pages: 1 -->
<svg width="275pt" height="203pt"
 viewBox="0.00 0.00 274.50 202.50" xmlns="http://www.w3.org/2000/svg" xmlns:xlink="http://www.w3.org/1999/xlink">
<g id="graph0" class="graph" transform="scale(1 1) rotate(0) translate(4 198.5)">
<title>Entity Relationship Diagram created by erdantic</title>
<polygon fill="white" stroke="none" points="-4,4 -4,-198.5 270.5,-198.5 270.5,4 -4,4"/>
<text text-anchor="middle" x="133.25" y="-5.95" font-family="Times New Roman,Times,Liberation Serif,serif" font-size="9.00" fill="#a8a8a8">Created by erdantic v0.6.0 &lt;https://github.com/drivendataorg/erdantic&gt;</text>
<!-- gdm.distribution.equipment.battery_equipment.BatteryEquipment -->
<g id="node1" class="node">
<title>gdm.distribution.equipment.battery_equipment.BatteryEquipment</title>
<g id="a_node1"><a xlink:title="gdm.distribution.equipment.battery_equipment.BatteryEquipment&#10;&#10;Interface for Solar Model.&#10;">
<polygon fill="none" stroke="black" points="8.75,-172.5 8.75,-194.5 257.75,-194.5 257.75,-172.5 8.75,-172.5"/>
<text text-anchor="start" x="78.88" y="-179.2" font-family="Times New Roman,Times,Liberation Serif,serif" font-weight="bold" font-size="14.00">BatteryEquipment</text>
<polygon fill="none" stroke="black" points="8.75,-150.5 8.75,-172.5 137.75,-172.5 137.75,-150.5 8.75,-150.5"/>
<text text-anchor="start" x="61.25" y="-156.2" font-family="Times New Roman,Times,Liberation Serif,serif" font-size="14.00">uuid</text>
<polygon fill="none" stroke="black" points="137.75,-150.5 137.75,-172.5 257.75,-172.5 257.75,-150.5 137.75,-150.5"/>
<text text-anchor="start" x="180.88" y="-156.2" font-family="Times New Roman,Times,Liberation Serif,serif" font-size="14.00">UUID</text>
<polygon fill="none" stroke="black" points="8.75,-128.5 8.75,-150.5 137.75,-150.5 137.75,-128.5 8.75,-128.5"/>
<text text-anchor="start" x="58.25" y="-134.2" font-family="Times New Roman,Times,Liberation Serif,serif" font-size="14.00">name</text>
<polygon fill="none" stroke="black" points="137.75,-128.5 137.75,-150.5 257.75,-150.5 257.75,-128.5 137.75,-128.5"/>
<text text-anchor="start" x="191" y="-134.2" font-family="Times New Roman,Times,Liberation Serif,serif" font-size="14.00">str</text>
<polygon fill="none" stroke="black" points="8.75,-106.5 8.75,-128.5 137.75,-128.5 137.75,-106.5 8.75,-106.5"/>
<text text-anchor="start" x="38" y="-112.2" font-family="Times New Roman,Times,Liberation Serif,serif" font-size="14.00">rated_energy</text>
<polygon fill="none" stroke="black" points="137.75,-106.5 137.75,-128.5 257.75,-128.5 257.75,-106.5 137.75,-106.5"/>
<text text-anchor="start" x="147.12" y="-112.2" font-family="Times New Roman,Times,Liberation Serif,serif" font-size="14.00">PositiveEnergyDC</text>
<polygon fill="none" stroke="black" points="8.75,-84.5 8.75,-106.5 137.75,-106.5 137.75,-84.5 8.75,-84.5"/>
<text text-anchor="start" x="39.5" y="-90.2" font-family="Times New Roman,Times,Liberation Serif,serif" font-size="14.00">rated_power</text>
<polygon fill="none" stroke="black" points="137.75,-84.5 137.75,-106.5 257.75,-106.5 257.75,-84.5 137.75,-84.5"/>
<text text-anchor="start" x="140.75" y="-90.2" font-family="Times New Roman,Times,Liberation Serif,serif" font-size="14.00">PositiveActivePower</text>
<polygon fill="none" stroke="black" points="8.75,-62.5 8.75,-84.5 137.75,-84.5 137.75,-62.5 8.75,-62.5"/>
<text text-anchor="start" x="19.25" y="-68.2" font-family="Times New Roman,Times,Liberation Serif,serif" font-size="14.00">charging_efficiency</text>
<polygon fill="none" stroke="black" points="137.75,-62.5 137.75,-84.5 257.75,-84.5 257.75,-62.5 137.75,-62.5"/>
<text text-anchor="start" x="185.38" y="-68.2" font-family="Times New Roman,Times,Liberation Serif,serif" font-size="14.00">float</text>
<polygon fill="none" stroke="black" points="8.75,-40.5 8.75,-62.5 137.75,-62.5 137.75,-40.5 8.75,-40.5"/>
<text text-anchor="start" x="11.38" y="-46.2" font-family="Times New Roman,Times,Liberation Serif,serif" font-size="14.00">discharging_efficiency</text>
<polygon fill="none" stroke="black" points="137.75,-40.5 137.75,-62.5 257.75,-62.5 257.75,-40.5 137.75,-40.5"/>
<text text-anchor="start" x="185.38" y="-46.2" font-family="Times New Roman,Times,Liberation Serif,serif" font-size="14.00">float</text>
<polygon fill="none" stroke="black" points="8.75,-18.5 8.75,-40.5 137.75,-40.5 137.75,-18.5 8.75,-18.5"/>
<text text-anchor="start" x="27.12" y="-24.2" font-family="Times New Roman,Times,Liberation Serif,serif" font-size="14.00">idling_efficiency</text>
<polygon fill="none" stroke="black" points="137.75,-18.5 137.75,-40.5 257.75,-40.5 257.75,-18.5 137.75,-18.5"/>
<text text-anchor="start" x="185.38" y="-24.2" font-family="Times New Roman,Times,Liberation Serif,serif" font-size="14.00">float</text>
</a>
</g>
</g>
</g>
</svg>
