<?xml version="1.0" encoding="UTF-8" standalone="no"?>
<!DOCTYPE svg PUBLIC "-//W3C//DTD SVG 1.1//EN"
 "http://www.w3.org/Graphics/SVG/1.1/DTD/svg11.dtd">
<!-- Generated by graphviz version 12.2.1 (20241206.2353)
 -->
<!-- Title: Entity Relationship Diagram created by erdantic Pages: 1 -->
<svg width="644pt" height="273pt"
 viewBox="0.00 0.00 644.00 273.25" xmlns="http://www.w3.org/2000/svg" xmlns:xlink="http://www.w3.org/1999/xlink">
<g id="graph0" class="graph" transform="scale(1 1) rotate(0) translate(4 269.25)">
<title>Entity Relationship Diagram created by erdantic</title>
<polygon fill="white" stroke="none" points="-4,4 -4,-269.25 640,-269.25 640,4 -4,4"/>
<text text-anchor="middle" x="318" y="-5.95" font-family="Times New Roman,Times,Liberation Serif,serif" font-size="9.00" fill="#a8a8a8">Created by erdantic v1.0.5 &lt;https://github.com/drivendataorg/erdantic&gt;</text>
<!-- gdm.distribution.equipment.capacitor_equipment.CapacitorEquipment -->
<g id="node1" class="node">
<title>gdm.distribution.equipment.capacitor_equipment.CapacitorEquipment</title>
<g id="a_node1"><a xlink:title="gdm.distribution.equipment.capacitor_equipment.CapacitorEquipment&#10;&#10;Interface for capacitor model.&#10;">
<polygon fill="none" stroke="black" points="0,-242.75 0,-265.25 273.75,-265.25 273.75,-242.75 0,-242.75"/>
<text text-anchor="start" x="75.38" y="-249.95" font-family="Times New Roman,Times,Liberation Serif,serif" font-weight="bold" font-size="14.00">CapacitorEquipment</text>
<polygon fill="none" stroke="black" points="0,-220.25 0,-242.75 98.25,-242.75 98.25,-220.25 0,-220.25"/>
<text text-anchor="start" x="37.12" y="-226.45" font-family="Times New Roman,Times,Liberation Serif,serif" font-size="14.00">uuid</text>
<polygon fill="none" stroke="black" points="98.25,-220.25 98.25,-242.75 273.75,-242.75 273.75,-220.25 98.25,-220.25"/>
<text text-anchor="start" x="169.12" y="-226.45" font-family="Times New Roman,Times,Liberation Serif,serif" font-size="14.00">UUID</text>
<polygon fill="none" stroke="black" points="0,-197.75 0,-220.25 98.25,-220.25 98.25,-197.75 0,-197.75"/>
<text text-anchor="start" x="34.12" y="-203.95" font-family="Times New Roman,Times,Liberation Serif,serif" font-size="14.00">name</text>
<polygon fill="none" stroke="black" points="98.25,-197.75 98.25,-220.25 273.75,-220.25 273.75,-197.75 98.25,-197.75"/>
<text text-anchor="start" x="179.25" y="-203.95" font-family="Times New Roman,Times,Liberation Serif,serif" font-size="14.00">str</text>
<polygon fill="none" stroke="black" points="0,-175.25 0,-197.75 98.25,-197.75 98.25,-175.25 0,-175.25"/>
<text text-anchor="start" x="3" y="-181.45" font-family="Times New Roman,Times,Liberation Serif,serif" font-size="14.00">phase_capacitors</text>
<polygon fill="none" stroke="black" points="98.25,-175.25 98.25,-197.75 273.75,-197.75 273.75,-175.25 98.25,-175.25"/>
<text text-anchor="start" x="101.25" y="-181.45" font-family="Times New Roman,Times,Liberation Serif,serif" font-size="14.00">list[PhaseCapacitorEquipment]</text>
<polygon fill="none" stroke="black" points="0,-152.75 0,-175.25 98.25,-175.25 98.25,-152.75 0,-152.75"/>
<text text-anchor="start" x="4.5" y="-158.95" font-family="Times New Roman,Times,Liberation Serif,serif" font-size="14.00">connection_type</text>
<polygon fill="none" stroke="black" points="98.25,-152.75 98.25,-175.25 273.75,-175.25 273.75,-152.75 98.25,-152.75"/>
<text text-anchor="start" x="141" y="-158.95" font-family="Times New Roman,Times,Liberation Serif,serif" font-size="14.00">ConnectionType</text>
<polygon fill="none" stroke="black" points="0,-130.25 0,-152.75 98.25,-152.75 98.25,-130.25 0,-130.25"/>
<text text-anchor="start" x="12.38" y="-136.45" font-family="Times New Roman,Times,Liberation Serif,serif" font-size="14.00">rated_voltage</text>
<polygon fill="none" stroke="black" points="98.25,-130.25 98.25,-152.75 273.75,-152.75 273.75,-130.25 98.25,-130.25"/>
<text text-anchor="start" x="143.62" y="-136.45" font-family="Times New Roman,Times,Liberation Serif,serif" font-size="14.00">PositiveVoltage</text>
<polygon fill="none" stroke="black" points="0,-107.75 0,-130.25 98.25,-130.25 98.25,-107.75 0,-107.75"/>
<text text-anchor="start" x="14.25" y="-113.95" font-family="Times New Roman,Times,Liberation Serif,serif" font-size="14.00">voltage_type</text>
<polygon fill="none" stroke="black" points="98.25,-107.75 98.25,-130.25 273.75,-130.25 273.75,-107.75 98.25,-107.75"/>
<text text-anchor="start" x="148.88" y="-113.95" font-family="Times New Roman,Times,Liberation Serif,serif" font-size="14.00">VoltageTypes</text>
</a>
</g>
</g>
<!-- gdm.distribution.equipment.phase_capacitor_equipment.PhaseCapacitorEquipment -->
<g id="node2" class="node">
<title>gdm.distribution.equipment.phase_capacitor_equipment.PhaseCapacitorEquipment</title>
<g id="a_node2"><a xlink:title="gdm.distribution.equipment.phase_capacitor_equipment.PhaseCapacitorEquipment&#10;&#10;Interface for phase capacitor.&#10;">
<polygon fill="none" stroke="black" points="381.75,-176 381.75,-198.5 636,-198.5 636,-176 381.75,-176"/>
<text text-anchor="start" x="430.5" y="-183.2" font-family="Times New Roman,Times,Liberation Serif,serif" font-weight="bold" font-size="14.00">PhaseCapacitorEquipment</text>
<polygon fill="none" stroke="black" points="381.75,-153.5 381.75,-176 504.75,-176 504.75,-153.5 381.75,-153.5"/>
<text text-anchor="start" x="431.25" y="-159.7" font-family="Times New Roman,Times,Liberation Serif,serif" font-size="14.00">uuid</text>
<polygon fill="none" stroke="black" points="504.75,-153.5 504.75,-176 636,-176 636,-153.5 504.75,-153.5"/>
<text text-anchor="start" x="553.5" y="-159.7" font-family="Times New Roman,Times,Liberation Serif,serif" font-size="14.00">UUID</text>
<polygon fill="none" stroke="black" points="381.75,-131 381.75,-153.5 504.75,-153.5 504.75,-131 381.75,-131"/>
<text text-anchor="start" x="428.25" y="-137.2" font-family="Times New Roman,Times,Liberation Serif,serif" font-size="14.00">name</text>
<polygon fill="none" stroke="black" points="504.75,-131 504.75,-153.5 636,-153.5 636,-131 504.75,-131"/>
<text text-anchor="start" x="563.62" y="-137.2" font-family="Times New Roman,Times,Liberation Serif,serif" font-size="14.00">str</text>
<polygon fill="none" stroke="black" points="381.75,-108.5 381.75,-131 504.75,-131 504.75,-108.5 381.75,-108.5"/>
<text text-anchor="start" x="416.62" y="-114.7" font-family="Times New Roman,Times,Liberation Serif,serif" font-size="14.00">resistance</text>
<polygon fill="none" stroke="black" points="504.75,-108.5 504.75,-131 636,-131 636,-108.5 504.75,-108.5"/>
<text text-anchor="start" x="519.75" y="-114.7" font-family="Times New Roman,Times,Liberation Serif,serif" font-size="14.00">PositiveResistance</text>
<polygon fill="none" stroke="black" points="381.75,-86 381.75,-108.5 504.75,-108.5 504.75,-86 381.75,-86"/>
<text text-anchor="start" x="417.75" y="-92.2" font-family="Times New Roman,Times,Liberation Serif,serif" font-size="14.00">reactance</text>
<polygon fill="none" stroke="black" points="504.75,-86 504.75,-108.5 636,-108.5 636,-86 504.75,-86"/>
<text text-anchor="start" x="520.88" y="-92.2" font-family="Times New Roman,Times,Liberation Serif,serif" font-size="14.00">PositiveReactance</text>
<polygon fill="none" stroke="black" points="381.75,-63.5 381.75,-86 504.75,-86 504.75,-63.5 381.75,-63.5"/>
<text text-anchor="start" x="384.75" y="-69.7" font-family="Times New Roman,Times,Liberation Serif,serif" font-size="14.00">rated_reactive_power</text>
<polygon fill="none" stroke="black" points="504.75,-63.5 504.75,-86 636,-86 636,-63.5 504.75,-63.5"/>
<text text-anchor="start" x="507.75" y="-69.7" font-family="Times New Roman,Times,Liberation Serif,serif" font-size="14.00">PositiveReactivePower</text>
<polygon fill="none" stroke="black" points="381.75,-41 381.75,-63.5 504.75,-63.5 504.75,-41 381.75,-41"/>
<text text-anchor="start" x="401.62" y="-47.2" font-family="Times New Roman,Times,Liberation Serif,serif" font-size="14.00">num_banks_on</text>
<polygon fill="none" stroke="black" points="504.75,-41 504.75,-63.5 636,-63.5 636,-41 504.75,-41"/>
<text text-anchor="start" x="563.25" y="-47.2" font-family="Times New Roman,Times,Liberation Serif,serif" font-size="14.00">int</text>
<polygon fill="none" stroke="black" points="381.75,-18.5 381.75,-41 504.75,-41 504.75,-18.5 381.75,-18.5"/>
<text text-anchor="start" x="411.75" y="-24.7" font-family="Times New Roman,Times,Liberation Serif,serif" font-size="14.00">num_banks</text>
<polygon fill="none" stroke="black" points="504.75,-18.5 504.75,-41 636,-41 636,-18.5 504.75,-18.5"/>
<text text-anchor="start" x="563.25" y="-24.7" font-family="Times New Roman,Times,Liberation Serif,serif" font-size="14.00">int</text>
</a>
</g>
</g>
<!-- gdm.distribution.equipment.capacitor_equipment.CapacitorEquipment&#45;&gt;gdm.distribution.equipment.phase_capacitor_equipment.PhaseCapacitorEquipment -->
<g id="edge1" class="edge">
<title>gdm.distribution.equipment.capacitor_equipment.CapacitorEquipment:e&#45;&gt;gdm.distribution.equipment.phase_capacitor_equipment.PhaseCapacitorEquipment:w</title>
<path fill="none" stroke="black" d="M283.62,-186.51C318.67,-186.59 333.42,-187.1 366.39,-187.22"/>
<polyline fill="none" stroke="black" points="273.75,-186.5 278.75,-186.51"/>
<polyline fill="none" stroke="black" points="278.75,-186.51 283.75,-186.51"/>
<polygon fill="black" stroke="black" points="371.42,-187.23 381.41,-191.75 376.75,-187.24 381.08,-187.25 381.08,-187.25 381.08,-187.25 376.75,-187.24 381.42,-182.75 371.42,-187.23"/>
<polyline fill="none" stroke="black" points="370.2,-187.23 365.2,-187.22"/>
</g>
</g>
</svg>
