<?xml version="1.0" encoding="UTF-8" standalone="no"?>
<!DOCTYPE svg PUBLIC "-//W3C//DTD SVG 1.1//EN"
 "http://www.w3.org/Graphics/SVG/1.1/DTD/svg11.dtd">
<!-- Generated by graphviz version 12.2.1 (20241206.2353)
 -->
<!-- Title: Entity Relationship Diagram created by erdantic Pages: 1 -->
<svg width="399pt" height="162pt"
 viewBox="0.00 0.00 398.75 161.50" xmlns="http://www.w3.org/2000/svg" xmlns:xlink="http://www.w3.org/1999/xlink">
<g id="graph0" class="graph" transform="scale(1 1) rotate(0) translate(4 157.5)">
<title>Entity Relationship Diagram created by erdantic</title>
<polygon fill="white" stroke="none" points="-4,4 -4,-157.5 394.75,-157.5 394.75,4 -4,4"/>
<text text-anchor="middle" x="195.38" y="-5.95" font-family="Times New Roman,Times,Liberation Serif,serif" font-size="9.00" fill="#a8a8a8">Created by erdantic v1.0.5 &lt;https://github.com/drivendataorg/erdantic&gt;</text>
<!-- gdm.distribution.controllers.distribution_inverter_controller.CapacityFirmingControlSetting -->
<g id="node1" class="node">
<title>gdm.distribution.controllers.distribution_inverter_controller.CapacityFirmingControlSetting</title>
<g id="a_node1"><a xlink:title="gdm.distribution.controllers.distribution_inverter_controller.CapacityFirmingControlSetting&#10;&#10;Control settings for the Inverter Controller to represent capacity firming&#10;control settings. Works with battery systems only. Controls active power output of the &#10;connected inverter&#10;">
<polygon fill="none" stroke="black" points="0,-131 0,-153.5 390.75,-153.5 390.75,-131 0,-131"/>
<text text-anchor="start" x="102.75" y="-138.2" font-family="Times New Roman,Times,Liberation Serif,serif" font-weight="bold" font-size="14.00">CapacityFirmingControlSetting</text>
<polygon fill="none" stroke="black" points="0,-108.5 0,-131 133.5,-131 133.5,-108.5 0,-108.5"/>
<text text-anchor="start" x="54.75" y="-114.7" font-family="Times New Roman,Times,Liberation Serif,serif" font-size="14.00">uuid</text>
<polygon fill="none" stroke="black" points="133.5,-108.5 133.5,-131 390.75,-131 390.75,-108.5 133.5,-108.5"/>
<text text-anchor="start" x="245.25" y="-114.7" font-family="Times New Roman,Times,Liberation Serif,serif" font-size="14.00">UUID</text>
<polygon fill="none" stroke="black" points="0,-86 0,-108.5 133.5,-108.5 133.5,-86 0,-86"/>
<text text-anchor="start" x="51.75" y="-92.2" font-family="Times New Roman,Times,Liberation Serif,serif" font-size="14.00">name</text>
<polygon fill="none" stroke="black" points="133.5,-86 133.5,-108.5 390.75,-108.5 390.75,-86 133.5,-86"/>
<text text-anchor="start" x="255.38" y="-92.2" font-family="Times New Roman,Times,Liberation Serif,serif" font-size="14.00">str</text>
<polygon fill="none" stroke="black" points="0,-63.5 0,-86 133.5,-86 133.5,-63.5 0,-63.5"/>
<text text-anchor="start" x="30" y="-69.7" font-family="Times New Roman,Times,Liberation Serif,serif" font-size="14.00">supported_by</text>
<polygon fill="none" stroke="black" points="133.5,-63.5 133.5,-86 390.75,-86 390.75,-63.5 133.5,-63.5"/>
<text text-anchor="start" x="136.5" y="-69.7" font-family="Times New Roman,Times,Liberation Serif,serif" font-size="14.00">Literal[ControllerSupport.BATTERY_ONLY]</text>
<polygon fill="none" stroke="black" points="0,-41 0,-63.5 133.5,-63.5 133.5,-41 0,-41"/>
<text text-anchor="start" x="3" y="-47.2" font-family="Times New Roman,Times,Liberation Serif,serif" font-size="14.00">max_active_power_roc</text>
<polygon fill="none" stroke="black" points="133.5,-41 133.5,-63.5 390.75,-63.5 390.75,-41 133.5,-41"/>
<text text-anchor="start" x="203.62" y="-47.2" font-family="Times New Roman,Times,Liberation Serif,serif" font-size="14.00">ActivePowerPUTime</text>
<polygon fill="none" stroke="black" points="0,-18.5 0,-41 133.5,-41 133.5,-18.5 0,-18.5"/>
<text text-anchor="start" x="4.12" y="-24.7" font-family="Times New Roman,Times,Liberation Serif,serif" font-size="14.00">min_active_power_roc</text>
<polygon fill="none" stroke="black" points="133.5,-18.5 133.5,-41 390.75,-41 390.75,-18.5 133.5,-18.5"/>
<text text-anchor="start" x="203.62" y="-24.7" font-family="Times New Roman,Times,Liberation Serif,serif" font-size="14.00">ActivePowerPUTime</text>
</a>
</g>
</g>
</g>
</svg>
