<?xml version="1.0" encoding="UTF-8" standalone="no"?>
<!DOCTYPE svg PUBLIC "-//W3C//DTD SVG 1.1//EN"
 "http://www.w3.org/Graphics/SVG/1.1/DTD/svg11.dtd">
<!-- Generated by graphviz version 9.0.0 (0)
 -->
<!-- Title: Entity Relationship Diagram created by erdantic Pages: 1 -->
<svg width="643pt" height="269pt"
 viewBox="0.00 0.00 643.00 268.50" xmlns="http://www.w3.org/2000/svg" xmlns:xlink="http://www.w3.org/1999/xlink">
<g id="graph0" class="graph" transform="scale(1 1) rotate(0) translate(4 264.5)">
<title>Entity Relationship Diagram created by erdantic</title>
<polygon fill="white" stroke="none" points="-4,4 -4,-264.5 639,-264.5 639,4 -4,4"/>
<text text-anchor="middle" x="317.5" y="-5.95" font-family="Times New Roman,Times,Liberation Serif,serif" font-size="9.00" fill="#a8a8a8">Created by erdantic v0.6.0 &lt;https://github.com/drivendataorg/erdantic&gt;</text>
<!-- gdm.distribution.equipment.capacitor_equipment.CapacitorEquipment -->
<g id="node1" class="node">
<title>gdm.distribution.equipment.capacitor_equipment.CapacitorEquipment</title>
<g id="a_node1"><a xlink:title="gdm.distribution.equipment.capacitor_equipment.CapacitorEquipment&#10;&#10;Interface for capacitor model.&#10;">
<polygon fill="none" stroke="black" points="0,-238.5 0,-260.5 273,-260.5 273,-238.5 0,-238.5"/>
<text text-anchor="start" x="75" y="-245.2" font-family="Times New Roman,Times,Liberation Serif,serif" font-weight="bold" font-size="14.00">CapacitorEquipment</text>
<polygon fill="none" stroke="black" points="0,-216.5 0,-238.5 98,-238.5 98,-216.5 0,-216.5"/>
<text text-anchor="start" x="37" y="-222.2" font-family="Times New Roman,Times,Liberation Serif,serif" font-size="14.00">uuid</text>
<polygon fill="none" stroke="black" points="98,-216.5 98,-238.5 273,-238.5 273,-216.5 98,-216.5"/>
<text text-anchor="start" x="168.62" y="-222.2" font-family="Times New Roman,Times,Liberation Serif,serif" font-size="14.00">UUID</text>
<polygon fill="none" stroke="black" points="0,-194.5 0,-216.5 98,-216.5 98,-194.5 0,-194.5"/>
<text text-anchor="start" x="34" y="-200.2" font-family="Times New Roman,Times,Liberation Serif,serif" font-size="14.00">name</text>
<polygon fill="none" stroke="black" points="98,-194.5 98,-216.5 273,-216.5 273,-194.5 98,-194.5"/>
<text text-anchor="start" x="178.75" y="-200.2" font-family="Times New Roman,Times,Liberation Serif,serif" font-size="14.00">str</text>
<polygon fill="none" stroke="black" points="0,-172.5 0,-194.5 98,-194.5 98,-172.5 0,-172.5"/>
<text text-anchor="start" x="2.88" y="-178.2" font-family="Times New Roman,Times,Liberation Serif,serif" font-size="14.00">phase_capacitors</text>
<polygon fill="none" stroke="black" points="98,-172.5 98,-194.5 273,-194.5 273,-172.5 98,-172.5"/>
<text text-anchor="start" x="100.75" y="-178.2" font-family="Times New Roman,Times,Liberation Serif,serif" font-size="14.00">list[PhaseCapacitorEquipment]</text>
<polygon fill="none" stroke="black" points="0,-150.5 0,-172.5 98,-172.5 98,-150.5 0,-150.5"/>
<text text-anchor="start" x="4.38" y="-156.2" font-family="Times New Roman,Times,Liberation Serif,serif" font-size="14.00">connection_type</text>
<polygon fill="none" stroke="black" points="98,-150.5 98,-172.5 273,-172.5 273,-150.5 98,-150.5"/>
<text text-anchor="start" x="140.88" y="-156.2" font-family="Times New Roman,Times,Liberation Serif,serif" font-size="14.00">ConnectionType</text>
<polygon fill="none" stroke="black" points="0,-128.5 0,-150.5 98,-150.5 98,-128.5 0,-128.5"/>
<text text-anchor="start" x="3.25" y="-134.2" font-family="Times New Roman,Times,Liberation Serif,serif" font-size="14.00">rated_voltage</text>
<polygon fill="none" stroke="black" points="98,-128.5 98,-150.5 273,-150.5 273,-128.5 98,-128.5"/>
<text text-anchor="start" x="143.12" y="-134.2" font-family="Times New Roman,Times,Liberation Serif,serif" font-size="14.00">PositiveVoltage</text>
<polygon fill="none" stroke="black" points="0,-106.5 0,-128.5 98,-128.5 98,-106.5 0,-106.5"/>
<text text-anchor="start" x="14.12" y="-112.2" font-family="Times New Roman,Times,Liberation Serif,serif" font-size="14.00">voltage_type</text>
<polygon fill="none" stroke="black" points="98,-106.5 98,-128.5 273,-128.5 273,-106.5 98,-106.5"/>
<text text-anchor="start" x="148.75" y="-112.2" font-family="Times New Roman,Times,Liberation Serif,serif" font-size="14.00">VoltageTypes</text>
</a>
</g>
</g>
<!-- gdm.distribution.equipment.phase_capacitor_equipment.PhaseCapacitorEquipment -->
<g id="node2" class="node">
<title>gdm.distribution.equipment.phase_capacitor_equipment.PhaseCapacitorEquipment</title>
<g id="a_node2"><a xlink:title="gdm.distribution.equipment.phase_capacitor_equipment.PhaseCapacitorEquipment&#10;&#10;Interface for phase capacitor.&#10;">
<polygon fill="none" stroke="black" points="381,-172.5 381,-194.5 635,-194.5 635,-172.5 381,-172.5"/>
<text text-anchor="start" x="429.62" y="-179.2" font-family="Times New Roman,Times,Liberation Serif,serif" font-weight="bold" font-size="14.00">PhaseCapacitorEquipment</text>
<polygon fill="none" stroke="black" points="381,-150.5 381,-172.5 504,-172.5 504,-150.5 381,-150.5"/>
<text text-anchor="start" x="430.5" y="-156.2" font-family="Times New Roman,Times,Liberation Serif,serif" font-size="14.00">uuid</text>
<polygon fill="none" stroke="black" points="504,-150.5 504,-172.5 635,-172.5 635,-150.5 504,-150.5"/>
<text text-anchor="start" x="552.62" y="-156.2" font-family="Times New Roman,Times,Liberation Serif,serif" font-size="14.00">UUID</text>
<polygon fill="none" stroke="black" points="381,-128.5 381,-150.5 504,-150.5 504,-128.5 381,-128.5"/>
<text text-anchor="start" x="427.5" y="-134.2" font-family="Times New Roman,Times,Liberation Serif,serif" font-size="14.00">name</text>
<polygon fill="none" stroke="black" points="504,-128.5 504,-150.5 635,-150.5 635,-128.5 504,-128.5"/>
<text text-anchor="start" x="562.75" y="-134.2" font-family="Times New Roman,Times,Liberation Serif,serif" font-size="14.00">str</text>
<polygon fill="none" stroke="black" points="381,-106.5 381,-128.5 504,-128.5 504,-106.5 381,-106.5"/>
<text text-anchor="start" x="415.88" y="-112.2" font-family="Times New Roman,Times,Liberation Serif,serif" font-size="14.00">resistance</text>
<polygon fill="none" stroke="black" points="504,-106.5 504,-128.5 635,-128.5 635,-106.5 504,-106.5"/>
<text text-anchor="start" x="518.88" y="-112.2" font-family="Times New Roman,Times,Liberation Serif,serif" font-size="14.00">PositiveResistance</text>
<polygon fill="none" stroke="black" points="381,-84.5 381,-106.5 504,-106.5 504,-84.5 381,-84.5"/>
<text text-anchor="start" x="417" y="-90.2" font-family="Times New Roman,Times,Liberation Serif,serif" font-size="14.00">reactance</text>
<polygon fill="none" stroke="black" points="504,-84.5 504,-106.5 635,-106.5 635,-84.5 504,-84.5"/>
<text text-anchor="start" x="520" y="-90.2" font-family="Times New Roman,Times,Liberation Serif,serif" font-size="14.00">PositiveReactance</text>
<polygon fill="none" stroke="black" points="381,-62.5 381,-84.5 504,-84.5 504,-62.5 381,-62.5"/>
<text text-anchor="start" x="384" y="-68.2" font-family="Times New Roman,Times,Liberation Serif,serif" font-size="14.00">rated_reactive_power</text>
<polygon fill="none" stroke="black" points="504,-62.5 504,-84.5 635,-84.5 635,-62.5 504,-62.5"/>
<text text-anchor="start" x="506.88" y="-68.2" font-family="Times New Roman,Times,Liberation Serif,serif" font-size="14.00">PositiveReactivePower</text>
<polygon fill="none" stroke="black" points="381,-40.5 381,-62.5 504,-62.5 504,-40.5 381,-40.5"/>
<text text-anchor="start" x="400.88" y="-46.2" font-family="Times New Roman,Times,Liberation Serif,serif" font-size="14.00">num_banks_on</text>
<polygon fill="none" stroke="black" points="504,-40.5 504,-62.5 635,-62.5 635,-40.5 504,-40.5"/>
<text text-anchor="start" x="562.38" y="-46.2" font-family="Times New Roman,Times,Liberation Serif,serif" font-size="14.00">int</text>
<polygon fill="none" stroke="black" points="381,-18.5 381,-40.5 504,-40.5 504,-18.5 381,-18.5"/>
<text text-anchor="start" x="411" y="-24.2" font-family="Times New Roman,Times,Liberation Serif,serif" font-size="14.00">num_banks</text>
<polygon fill="none" stroke="black" points="504,-18.5 504,-40.5 635,-40.5 635,-18.5 504,-18.5"/>
<text text-anchor="start" x="562.38" y="-24.2" font-family="Times New Roman,Times,Liberation Serif,serif" font-size="14.00">int</text>
</a>
</g>
</g>
<!-- gdm.distribution.equipment.capacitor_equipment.CapacitorEquipment&#45;&gt;gdm.distribution.equipment.phase_capacitor_equipment.PhaseCapacitorEquipment -->
<g id="edge1" class="edge">
<title>gdm.distribution.equipment.capacitor_equipment.CapacitorEquipment:e&#45;&gt;gdm.distribution.equipment.phase_capacitor_equipment.PhaseCapacitorEquipment:w</title>
<path fill="none" stroke="black" d="M282.87,-183.5C317.6,-183.5 332.4,-183.5 364.76,-183.5"/>
<polyline fill="none" stroke="black" points="273,-183.5 278,-183.5"/>
<polyline fill="none" stroke="black" points="278,-183.5 283,-183.5"/>
<polygon fill="black" stroke="black" points="370.67,-183.5 380.67,-188 376,-183.5 380.33,-183.5 380.33,-183.5 380.33,-183.5 376,-183.5 380.67,-179 370.67,-183.5"/>
<polyline fill="none" stroke="black" points="369.45,-183.5 364.45,-183.5"/>
</g>
</g>
</svg>
