<?xml version="1.0" encoding="UTF-8" standalone="no"?>
<!DOCTYPE svg PUBLIC "-//W3C//DTD SVG 1.1//EN"
 "http://www.w3.org/Graphics/SVG/1.1/DTD/svg11.dtd">
<!-- Generated by graphviz version 9.0.0 (0)
 -->
<!-- Title: Entity Relationship Diagram created by erdantic Pages: 1 -->
<svg width="275pt" height="159pt"
 viewBox="0.00 0.00 274.50 158.50" xmlns="http://www.w3.org/2000/svg" xmlns:xlink="http://www.w3.org/1999/xlink">
<g id="graph0" class="graph" transform="scale(1 1) rotate(0) translate(4 154.5)">
<title>Entity Relationship Diagram created by erdantic</title>
<polygon fill="white" stroke="none" points="-4,4 -4,-154.5 270.5,-154.5 270.5,4 -4,4"/>
<text text-anchor="middle" x="133.25" y="-5.95" font-family="Times New Roman,Times,Liberation Serif,serif" font-size="9.00" fill="#a8a8a8">Created by erdantic v0.6.0 &lt;https://github.com/drivendataorg/erdantic&gt;</text>
<!-- gdm.distribution.controllers.base.capacitor_controller_base.CapacitorControllerBase -->
<g id="node1" class="node">
<title>gdm.distribution.controllers.base.capacitor_controller_base.CapacitorControllerBase</title>
<g id="a_node1"><a xlink:title="gdm.distribution.controllers.base.capacitor_controller_base.CapacitorControllerBase&#10;&#10;Interface for capacitor controllers. Phase connection specified in the capacitor.&#10;">
<polygon fill="none" stroke="black" points="56.25,-128.5 56.25,-150.5 210.25,-150.5 210.25,-128.5 56.25,-128.5"/>
<text text-anchor="start" x="60.5" y="-135.2" font-family="Times New Roman,Times,Liberation Serif,serif" font-weight="bold" font-size="14.00">CapacitorControllerBase</text>
<polygon fill="none" stroke="black" points="56.25,-106.5 56.25,-128.5 119.25,-128.5 119.25,-106.5 56.25,-106.5"/>
<text text-anchor="start" x="75.75" y="-112.2" font-family="Times New Roman,Times,Liberation Serif,serif" font-size="14.00">uuid</text>
<polygon fill="none" stroke="black" points="119.25,-106.5 119.25,-128.5 210.25,-128.5 210.25,-106.5 119.25,-106.5"/>
<text text-anchor="start" x="147.88" y="-112.2" font-family="Times New Roman,Times,Liberation Serif,serif" font-size="14.00">UUID</text>
<polygon fill="none" stroke="black" points="56.25,-84.5 56.25,-106.5 119.25,-106.5 119.25,-84.5 56.25,-84.5"/>
<text text-anchor="start" x="72.75" y="-90.2" font-family="Times New Roman,Times,Liberation Serif,serif" font-size="14.00">name</text>
<polygon fill="none" stroke="black" points="119.25,-84.5 119.25,-106.5 210.25,-106.5 210.25,-84.5 119.25,-84.5"/>
<text text-anchor="start" x="158" y="-90.2" font-family="Times New Roman,Times,Liberation Serif,serif" font-size="14.00">str</text>
<polygon fill="none" stroke="black" points="56.25,-62.5 56.25,-84.5 119.25,-84.5 119.25,-62.5 56.25,-62.5"/>
<text text-anchor="start" x="63" y="-68.2" font-family="Times New Roman,Times,Liberation Serif,serif" font-size="14.00">delay_on</text>
<polygon fill="none" stroke="black" points="119.25,-62.5 119.25,-84.5 210.25,-84.5 210.25,-62.5 119.25,-62.5"/>
<text text-anchor="start" x="122" y="-68.2" font-family="Times New Roman,Times,Liberation Serif,serif" font-size="14.00">Optional[Time]</text>
<polygon fill="none" stroke="black" points="56.25,-40.5 56.25,-62.5 119.25,-62.5 119.25,-40.5 56.25,-40.5"/>
<text text-anchor="start" x="61.88" y="-46.2" font-family="Times New Roman,Times,Liberation Serif,serif" font-size="14.00">delay_off</text>
<polygon fill="none" stroke="black" points="119.25,-40.5 119.25,-62.5 210.25,-62.5 210.25,-40.5 119.25,-40.5"/>
<text text-anchor="start" x="122" y="-46.2" font-family="Times New Roman,Times,Liberation Serif,serif" font-size="14.00">Optional[Time]</text>
<polygon fill="none" stroke="black" points="56.25,-18.5 56.25,-40.5 119.25,-40.5 119.25,-18.5 56.25,-18.5"/>
<text text-anchor="start" x="59.25" y="-24.2" font-family="Times New Roman,Times,Liberation Serif,serif" font-size="14.00">dead_time</text>
<polygon fill="none" stroke="black" points="119.25,-18.5 119.25,-40.5 210.25,-40.5 210.25,-18.5 119.25,-18.5"/>
<text text-anchor="start" x="122" y="-24.2" font-family="Times New Roman,Times,Liberation Serif,serif" font-size="14.00">Optional[Time]</text>
</a>
</g>
</g>
</g>
</svg>
