<?xml version="1.0" encoding="UTF-8" standalone="no"?>
<!DOCTYPE svg PUBLIC "-//W3C//DTD SVG 1.1//EN"
 "http://www.w3.org/Graphics/SVG/1.1/DTD/svg11.dtd">
<!-- Generated by graphviz version 12.2.1 (20241206.2353)
 -->
<!-- Title: Entity Relationship Diagram created by erdantic Pages: 1 -->
<svg width="294pt" height="387pt"
 viewBox="0.00 0.00 293.75 386.50" xmlns="http://www.w3.org/2000/svg" xmlns:xlink="http://www.w3.org/1999/xlink">
<g id="graph0" class="graph" transform="scale(1 1) rotate(0) translate(4 382.5)">
<title>Entity Relationship Diagram created by erdantic</title>
<polygon fill="white" stroke="none" points="-4,4 -4,-382.5 289.75,-382.5 289.75,4 -4,4"/>
<text text-anchor="middle" x="142.88" y="-5.95" font-family="Times New Roman,Times,Liberation Serif,serif" font-size="9.00" fill="#a8a8a8">Created by erdantic v1.0.5 &lt;https://github.com/drivendataorg/erdantic&gt;</text>
<!-- gdm.distribution.equipment.concentric_cable_equipment.ConcentricCableEquipment -->
<g id="node1" class="node">
<title>gdm.distribution.equipment.concentric_cable_equipment.ConcentricCableEquipment</title>
<g id="a_node1"><a xlink:title="gdm.distribution.equipment.concentric_cable_equipment.ConcentricCableEquipment&#10;&#10;Interface for cable catalog.&#10;">
<polygon fill="none" stroke="black" points="0,-356 0,-378.5 285.75,-378.5 285.75,-356 0,-356"/>
<text text-anchor="start" x="61.5" y="-363.2" font-family="Times New Roman,Times,Liberation Serif,serif" font-weight="bold" font-size="14.00">ConcentricCableEquipment</text>
<polygon fill="none" stroke="black" points="0,-333.5 0,-356 123,-356 123,-333.5 0,-333.5"/>
<text text-anchor="start" x="49.5" y="-339.7" font-family="Times New Roman,Times,Liberation Serif,serif" font-size="14.00">uuid</text>
<polygon fill="none" stroke="black" points="123,-333.5 123,-356 285.75,-356 285.75,-333.5 123,-333.5"/>
<text text-anchor="start" x="187.5" y="-339.7" font-family="Times New Roman,Times,Liberation Serif,serif" font-size="14.00">UUID</text>
<polygon fill="none" stroke="black" points="0,-311 0,-333.5 123,-333.5 123,-311 0,-311"/>
<text text-anchor="start" x="46.5" y="-317.2" font-family="Times New Roman,Times,Liberation Serif,serif" font-size="14.00">name</text>
<polygon fill="none" stroke="black" points="123,-311 123,-333.5 285.75,-333.5 285.75,-311 123,-311"/>
<text text-anchor="start" x="197.62" y="-317.2" font-family="Times New Roman,Times,Liberation Serif,serif" font-size="14.00">str</text>
<polygon fill="none" stroke="black" points="0,-288.5 0,-311 123,-311 123,-288.5 0,-288.5"/>
<text text-anchor="start" x="17.62" y="-294.7" font-family="Times New Roman,Times,Liberation Serif,serif" font-size="14.00">strand_diameter</text>
<polygon fill="none" stroke="black" points="123,-288.5 123,-311 285.75,-311 285.75,-288.5 123,-288.5"/>
<text text-anchor="start" x="159" y="-294.7" font-family="Times New Roman,Times,Liberation Serif,serif" font-size="14.00">PositiveDistance</text>
<polygon fill="none" stroke="black" points="0,-266 0,-288.5 123,-288.5 123,-266 0,-266"/>
<text text-anchor="start" x="7.12" y="-272.2" font-family="Times New Roman,Times,Liberation Serif,serif" font-size="14.00">conductor_diameter</text>
<polygon fill="none" stroke="black" points="123,-266 123,-288.5 285.75,-288.5 285.75,-266 123,-266"/>
<text text-anchor="start" x="159" y="-272.2" font-family="Times New Roman,Times,Liberation Serif,serif" font-size="14.00">PositiveDistance</text>
<polygon fill="none" stroke="black" points="0,-243.5 0,-266 123,-266 123,-243.5 0,-243.5"/>
<text text-anchor="start" x="19.88" y="-249.7" font-family="Times New Roman,Times,Liberation Serif,serif" font-size="14.00">cable_diameter</text>
<polygon fill="none" stroke="black" points="123,-243.5 123,-266 285.75,-266 285.75,-243.5 123,-243.5"/>
<text text-anchor="start" x="159" y="-249.7" font-family="Times New Roman,Times,Liberation Serif,serif" font-size="14.00">PositiveDistance</text>
<polygon fill="none" stroke="black" points="0,-221 0,-243.5 123,-243.5 123,-221 0,-221"/>
<text text-anchor="start" x="6.38" y="-227.2" font-family="Times New Roman,Times,Liberation Serif,serif" font-size="14.00">insulation_thickness</text>
<polygon fill="none" stroke="black" points="123,-221 123,-243.5 285.75,-243.5 285.75,-221 123,-221"/>
<text text-anchor="start" x="159" y="-227.2" font-family="Times New Roman,Times,Liberation Serif,serif" font-size="14.00">PositiveDistance</text>
<polygon fill="none" stroke="black" points="0,-198.5 0,-221 123,-221 123,-198.5 0,-198.5"/>
<text text-anchor="start" x="7.5" y="-204.7" font-family="Times New Roman,Times,Liberation Serif,serif" font-size="14.00">insulation_diameter</text>
<polygon fill="none" stroke="black" points="123,-198.5 123,-221 285.75,-221 285.75,-198.5 123,-198.5"/>
<text text-anchor="start" x="159" y="-204.7" font-family="Times New Roman,Times,Liberation Serif,serif" font-size="14.00">PositiveDistance</text>
<polygon fill="none" stroke="black" points="0,-176 0,-198.5 123,-198.5 123,-176 0,-176"/>
<text text-anchor="start" x="36.38" y="-182.2" font-family="Times New Roman,Times,Liberation Serif,serif" font-size="14.00">ampacity</text>
<polygon fill="none" stroke="black" points="123,-176 123,-198.5 285.75,-198.5 285.75,-176 123,-176"/>
<text text-anchor="start" x="162" y="-182.2" font-family="Times New Roman,Times,Liberation Serif,serif" font-size="14.00">PositiveCurrent</text>
<polygon fill="none" stroke="black" points="0,-153.5 0,-176 123,-176 123,-153.5 0,-153.5"/>
<text text-anchor="start" x="3" y="-159.7" font-family="Times New Roman,Times,Liberation Serif,serif" font-size="14.00">emergency_ampacity</text>
<polygon fill="none" stroke="black" points="123,-153.5 123,-176 285.75,-176 285.75,-153.5 123,-153.5"/>
<text text-anchor="start" x="162" y="-159.7" font-family="Times New Roman,Times,Liberation Serif,serif" font-size="14.00">PositiveCurrent</text>
<polygon fill="none" stroke="black" points="0,-131 0,-153.5 123,-153.5 123,-131 0,-131"/>
<text text-anchor="start" x="19.88" y="-137.2" font-family="Times New Roman,Times,Liberation Serif,serif" font-size="14.00">conductor_gmr</text>
<polygon fill="none" stroke="black" points="123,-131 123,-153.5 285.75,-153.5 285.75,-131 123,-131"/>
<text text-anchor="start" x="159" y="-137.2" font-family="Times New Roman,Times,Liberation Serif,serif" font-size="14.00">PositiveDistance</text>
<polygon fill="none" stroke="black" points="0,-108.5 0,-131 123,-131 123,-108.5 0,-108.5"/>
<text text-anchor="start" x="30.38" y="-114.7" font-family="Times New Roman,Times,Liberation Serif,serif" font-size="14.00">strand_gmr</text>
<polygon fill="none" stroke="black" points="123,-108.5 123,-131 285.75,-131 285.75,-108.5 123,-108.5"/>
<text text-anchor="start" x="159" y="-114.7" font-family="Times New Roman,Times,Liberation Serif,serif" font-size="14.00">PositiveDistance</text>
<polygon fill="none" stroke="black" points="0,-86 0,-108.5 123,-108.5 123,-86 0,-86"/>
<text text-anchor="start" x="6.75" y="-92.2" font-family="Times New Roman,Times,Liberation Serif,serif" font-size="14.00">phase_ac_resistance</text>
<polygon fill="none" stroke="black" points="123,-86 123,-108.5 285.75,-108.5 285.75,-86 123,-86"/>
<text text-anchor="start" x="126" y="-92.2" font-family="Times New Roman,Times,Liberation Serif,serif" font-size="14.00">PositiveResistancePULength</text>
<polygon fill="none" stroke="black" points="0,-63.5 0,-86 123,-86 123,-63.5 0,-63.5"/>
<text text-anchor="start" x="5.62" y="-69.7" font-family="Times New Roman,Times,Liberation Serif,serif" font-size="14.00">strand_ac_resistance</text>
<polygon fill="none" stroke="black" points="123,-63.5 123,-86 285.75,-86 285.75,-63.5 123,-63.5"/>
<text text-anchor="start" x="126" y="-69.7" font-family="Times New Roman,Times,Liberation Serif,serif" font-size="14.00">PositiveResistancePULength</text>
<polygon fill="none" stroke="black" points="0,-41 0,-63.5 123,-63.5 123,-41 0,-41"/>
<text text-anchor="start" x="4.5" y="-47.2" font-family="Times New Roman,Times,Liberation Serif,serif" font-size="14.00">num_neutral_strands</text>
<polygon fill="none" stroke="black" points="123,-41 123,-63.5 285.75,-63.5 285.75,-41 123,-41"/>
<text text-anchor="start" x="197.25" y="-47.2" font-family="Times New Roman,Times,Liberation Serif,serif" font-size="14.00">int</text>
<polygon fill="none" stroke="black" points="0,-18.5 0,-41 123,-41 123,-18.5 0,-18.5"/>
<text text-anchor="start" x="24.75" y="-24.7" font-family="Times New Roman,Times,Liberation Serif,serif" font-size="14.00">rated_voltage</text>
<polygon fill="none" stroke="black" points="123,-18.5 123,-41 285.75,-41 285.75,-18.5 123,-18.5"/>
<text text-anchor="start" x="162" y="-24.7" font-family="Times New Roman,Times,Liberation Serif,serif" font-size="14.00">PositiveVoltage</text>
</a>
</g>
</g>
</g>
</svg>
