<?xml version="1.0" encoding="UTF-8" standalone="no"?>
<!DOCTYPE svg PUBLIC "-//W3C//DTD SVG 1.1//EN"
 "http://www.w3.org/Graphics/SVG/1.1/DTD/svg11.dtd">
<!-- Generated by graphviz version 9.0.0 (0)
 -->
<!-- Title: Entity Relationship Diagram created by erdantic Pages: 1 -->
<svg width="293pt" height="379pt"
 viewBox="0.00 0.00 293.00 378.50" xmlns="http://www.w3.org/2000/svg" xmlns:xlink="http://www.w3.org/1999/xlink">
<g id="graph0" class="graph" transform="scale(1 1) rotate(0) translate(4 374.5)">
<title>Entity Relationship Diagram created by erdantic</title>
<polygon fill="white" stroke="none" points="-4,4 -4,-374.5 289,-374.5 289,4 -4,4"/>
<text text-anchor="middle" x="142.5" y="-5.95" font-family="Times New Roman,Times,Liberation Serif,serif" font-size="9.00" fill="#a8a8a8">Created by erdantic v0.6.0 &lt;https://github.com/drivendataorg/erdantic&gt;</text>
<!-- gdm.distribution.equipment.concentric_cable_equipment.ConcentricCableEquipment -->
<g id="node1" class="node">
<title>gdm.distribution.equipment.concentric_cable_equipment.ConcentricCableEquipment</title>
<g id="a_node1"><a xlink:title="gdm.distribution.equipment.concentric_cable_equipment.ConcentricCableEquipment&#10;&#10;Interface for cable catalog.&#10;">
<polygon fill="none" stroke="black" points="0,-348.5 0,-370.5 285,-370.5 285,-348.5 0,-348.5"/>
<text text-anchor="start" x="61.12" y="-355.2" font-family="Times New Roman,Times,Liberation Serif,serif" font-weight="bold" font-size="14.00">ConcentricCableEquipment</text>
<polygon fill="none" stroke="black" points="0,-326.5 0,-348.5 123,-348.5 123,-326.5 0,-326.5"/>
<text text-anchor="start" x="49.5" y="-332.2" font-family="Times New Roman,Times,Liberation Serif,serif" font-size="14.00">uuid</text>
<polygon fill="none" stroke="black" points="123,-326.5 123,-348.5 285,-348.5 285,-326.5 123,-326.5"/>
<text text-anchor="start" x="187.12" y="-332.2" font-family="Times New Roman,Times,Liberation Serif,serif" font-size="14.00">UUID</text>
<polygon fill="none" stroke="black" points="0,-304.5 0,-326.5 123,-326.5 123,-304.5 0,-304.5"/>
<text text-anchor="start" x="46.5" y="-310.2" font-family="Times New Roman,Times,Liberation Serif,serif" font-size="14.00">name</text>
<polygon fill="none" stroke="black" points="123,-304.5 123,-326.5 285,-326.5 285,-304.5 123,-304.5"/>
<text text-anchor="start" x="197.25" y="-310.2" font-family="Times New Roman,Times,Liberation Serif,serif" font-size="14.00">str</text>
<polygon fill="none" stroke="black" points="0,-282.5 0,-304.5 123,-304.5 123,-282.5 0,-282.5"/>
<text text-anchor="start" x="17.62" y="-288.2" font-family="Times New Roman,Times,Liberation Serif,serif" font-size="14.00">strand_diameter</text>
<polygon fill="none" stroke="black" points="123,-282.5 123,-304.5 285,-304.5 285,-282.5 123,-282.5"/>
<text text-anchor="start" x="158.62" y="-288.2" font-family="Times New Roman,Times,Liberation Serif,serif" font-size="14.00">PositiveDistance</text>
<polygon fill="none" stroke="black" points="0,-260.5 0,-282.5 123,-282.5 123,-260.5 0,-260.5"/>
<text text-anchor="start" x="7.12" y="-266.2" font-family="Times New Roman,Times,Liberation Serif,serif" font-size="14.00">conductor_diameter</text>
<polygon fill="none" stroke="black" points="123,-260.5 123,-282.5 285,-282.5 285,-260.5 123,-260.5"/>
<text text-anchor="start" x="158.62" y="-266.2" font-family="Times New Roman,Times,Liberation Serif,serif" font-size="14.00">PositiveDistance</text>
<polygon fill="none" stroke="black" points="0,-238.5 0,-260.5 123,-260.5 123,-238.5 0,-238.5"/>
<text text-anchor="start" x="19.88" y="-244.2" font-family="Times New Roman,Times,Liberation Serif,serif" font-size="14.00">cable_diameter</text>
<polygon fill="none" stroke="black" points="123,-238.5 123,-260.5 285,-260.5 285,-238.5 123,-238.5"/>
<text text-anchor="start" x="158.62" y="-244.2" font-family="Times New Roman,Times,Liberation Serif,serif" font-size="14.00">PositiveDistance</text>
<polygon fill="none" stroke="black" points="0,-216.5 0,-238.5 123,-238.5 123,-216.5 0,-216.5"/>
<text text-anchor="start" x="6.38" y="-222.2" font-family="Times New Roman,Times,Liberation Serif,serif" font-size="14.00">insulation_thickness</text>
<polygon fill="none" stroke="black" points="123,-216.5 123,-238.5 285,-238.5 285,-216.5 123,-216.5"/>
<text text-anchor="start" x="158.62" y="-222.2" font-family="Times New Roman,Times,Liberation Serif,serif" font-size="14.00">PositiveDistance</text>
<polygon fill="none" stroke="black" points="0,-194.5 0,-216.5 123,-216.5 123,-194.5 0,-194.5"/>
<text text-anchor="start" x="7.5" y="-200.2" font-family="Times New Roman,Times,Liberation Serif,serif" font-size="14.00">insulation_diameter</text>
<polygon fill="none" stroke="black" points="123,-194.5 123,-216.5 285,-216.5 285,-194.5 123,-194.5"/>
<text text-anchor="start" x="158.62" y="-200.2" font-family="Times New Roman,Times,Liberation Serif,serif" font-size="14.00">PositiveDistance</text>
<polygon fill="none" stroke="black" points="0,-172.5 0,-194.5 123,-194.5 123,-172.5 0,-172.5"/>
<text text-anchor="start" x="36.38" y="-178.2" font-family="Times New Roman,Times,Liberation Serif,serif" font-size="14.00">ampacity</text>
<polygon fill="none" stroke="black" points="123,-172.5 123,-194.5 285,-194.5 285,-172.5 123,-172.5"/>
<text text-anchor="start" x="161.62" y="-178.2" font-family="Times New Roman,Times,Liberation Serif,serif" font-size="14.00">PositiveCurrent</text>
<polygon fill="none" stroke="black" points="0,-150.5 0,-172.5 123,-172.5 123,-150.5 0,-150.5"/>
<text text-anchor="start" x="3" y="-156.2" font-family="Times New Roman,Times,Liberation Serif,serif" font-size="14.00">emergency_ampacity</text>
<polygon fill="none" stroke="black" points="123,-150.5 123,-172.5 285,-172.5 285,-150.5 123,-150.5"/>
<text text-anchor="start" x="161.62" y="-156.2" font-family="Times New Roman,Times,Liberation Serif,serif" font-size="14.00">PositiveCurrent</text>
<polygon fill="none" stroke="black" points="0,-128.5 0,-150.5 123,-150.5 123,-128.5 0,-128.5"/>
<text text-anchor="start" x="19.88" y="-134.2" font-family="Times New Roman,Times,Liberation Serif,serif" font-size="14.00">conductor_gmr</text>
<polygon fill="none" stroke="black" points="123,-128.5 123,-150.5 285,-150.5 285,-128.5 123,-128.5"/>
<text text-anchor="start" x="158.62" y="-134.2" font-family="Times New Roman,Times,Liberation Serif,serif" font-size="14.00">PositiveDistance</text>
<polygon fill="none" stroke="black" points="0,-106.5 0,-128.5 123,-128.5 123,-106.5 0,-106.5"/>
<text text-anchor="start" x="30.38" y="-112.2" font-family="Times New Roman,Times,Liberation Serif,serif" font-size="14.00">strand_gmr</text>
<polygon fill="none" stroke="black" points="123,-106.5 123,-128.5 285,-128.5 285,-106.5 123,-106.5"/>
<text text-anchor="start" x="158.62" y="-112.2" font-family="Times New Roman,Times,Liberation Serif,serif" font-size="14.00">PositiveDistance</text>
<polygon fill="none" stroke="black" points="0,-84.5 0,-106.5 123,-106.5 123,-84.5 0,-84.5"/>
<text text-anchor="start" x="6.75" y="-90.2" font-family="Times New Roman,Times,Liberation Serif,serif" font-size="14.00">phase_ac_resistance</text>
<polygon fill="none" stroke="black" points="123,-84.5 123,-106.5 285,-106.5 285,-84.5 123,-84.5"/>
<text text-anchor="start" x="125.62" y="-90.2" font-family="Times New Roman,Times,Liberation Serif,serif" font-size="14.00">PositiveResistancePULength</text>
<polygon fill="none" stroke="black" points="0,-62.5 0,-84.5 123,-84.5 123,-62.5 0,-62.5"/>
<text text-anchor="start" x="5.62" y="-68.2" font-family="Times New Roman,Times,Liberation Serif,serif" font-size="14.00">strand_ac_resistance</text>
<polygon fill="none" stroke="black" points="123,-62.5 123,-84.5 285,-84.5 285,-62.5 123,-62.5"/>
<text text-anchor="start" x="125.62" y="-68.2" font-family="Times New Roman,Times,Liberation Serif,serif" font-size="14.00">PositiveResistancePULength</text>
<polygon fill="none" stroke="black" points="0,-40.5 0,-62.5 123,-62.5 123,-40.5 0,-40.5"/>
<text text-anchor="start" x="4.5" y="-46.2" font-family="Times New Roman,Times,Liberation Serif,serif" font-size="14.00">num_neutral_strands</text>
<polygon fill="none" stroke="black" points="123,-40.5 123,-62.5 285,-62.5 285,-40.5 123,-40.5"/>
<text text-anchor="start" x="196.88" y="-46.2" font-family="Times New Roman,Times,Liberation Serif,serif" font-size="14.00">int</text>
<polygon fill="none" stroke="black" points="0,-18.5 0,-40.5 123,-40.5 123,-18.5 0,-18.5"/>
<text text-anchor="start" x="24.75" y="-24.2" font-family="Times New Roman,Times,Liberation Serif,serif" font-size="14.00">rated_voltage</text>
<polygon fill="none" stroke="black" points="123,-18.5 123,-40.5 285,-40.5 285,-18.5 123,-18.5"/>
<text text-anchor="start" x="161.62" y="-24.2" font-family="Times New Roman,Times,Liberation Serif,serif" font-size="14.00">PositiveVoltage</text>
</a>
</g>
</g>
</g>
</svg>
