<?xml version="1.0" encoding="UTF-8" standalone="no"?>
<!DOCTYPE svg PUBLIC "-//W3C//DTD SVG 1.1//EN"
 "http://www.w3.org/Graphics/SVG/1.1/DTD/svg11.dtd">
<!-- Generated by graphviz version 12.2.1 (20241206.2353)
 -->
<!-- Title: Entity Relationship Diagram created by erdantic Pages: 1 -->
<svg width="291pt" height="364pt"
 viewBox="0.00 0.00 290.75 364.00" xmlns="http://www.w3.org/2000/svg" xmlns:xlink="http://www.w3.org/1999/xlink">
<g id="graph0" class="graph" transform="scale(1 1) rotate(0) translate(4 360)">
<title>Entity Relationship Diagram created by erdantic</title>
<polygon fill="white" stroke="none" points="-4,4 -4,-360 286.75,-360 286.75,4 -4,4"/>
<text text-anchor="middle" x="141.38" y="-5.95" font-family="Times New Roman,Times,Liberation Serif,serif" font-size="9.00" fill="#a8a8a8">Created by erdantic v1.0.5 &lt;https://github.com/drivendataorg/erdantic&gt;</text>
<!-- gdm.distribution.equipment.concentric_cable_equipment.ConcentricCableEquipment -->
<g id="node1" class="node">
<title>gdm.distribution.equipment.concentric_cable_equipment.ConcentricCableEquipment</title>
<g id="a_node1"><a xlink:title="gdm.distribution.equipment.concentric_cable_equipment.ConcentricCableEquipment&#10;&#10;Data model for cable catalog.&#10;">
<polygon fill="none" stroke="black" points="0,-333.5 0,-356 282.75,-356 282.75,-333.5 0,-333.5"/>
<text text-anchor="start" x="60" y="-340.7" font-family="Times New Roman,Times,Liberation Serif,serif" font-weight="bold" font-size="14.00">ConcentricCableEquipment</text>
<polygon fill="none" stroke="black" points="0,-311 0,-333.5 120,-333.5 120,-311 0,-311"/>
<text text-anchor="start" x="48" y="-317.2" font-family="Times New Roman,Times,Liberation Serif,serif" font-size="14.00">uuid</text>
<polygon fill="none" stroke="black" points="120,-311 120,-333.5 282.75,-333.5 282.75,-311 120,-311"/>
<text text-anchor="start" x="184.5" y="-317.2" font-family="Times New Roman,Times,Liberation Serif,serif" font-size="14.00">UUID</text>
<polygon fill="none" stroke="black" points="0,-288.5 0,-311 120,-311 120,-288.5 0,-288.5"/>
<text text-anchor="start" x="45" y="-294.7" font-family="Times New Roman,Times,Liberation Serif,serif" font-size="14.00">name</text>
<polygon fill="none" stroke="black" points="120,-288.5 120,-311 282.75,-311 282.75,-288.5 120,-288.5"/>
<text text-anchor="start" x="194.62" y="-294.7" font-family="Times New Roman,Times,Liberation Serif,serif" font-size="14.00">str</text>
<polygon fill="none" stroke="black" points="0,-266 0,-288.5 120,-288.5 120,-266 0,-266"/>
<text text-anchor="start" x="16.12" y="-272.2" font-family="Times New Roman,Times,Liberation Serif,serif" font-size="14.00">strand_diameter</text>
<polygon fill="none" stroke="black" points="120,-266 120,-288.5 282.75,-288.5 282.75,-266 120,-266"/>
<text text-anchor="start" x="156" y="-272.2" font-family="Times New Roman,Times,Liberation Serif,serif" font-size="14.00">PositiveDistance</text>
<polygon fill="none" stroke="black" points="0,-243.5 0,-266 120,-266 120,-243.5 0,-243.5"/>
<text text-anchor="start" x="5.62" y="-249.7" font-family="Times New Roman,Times,Liberation Serif,serif" font-size="14.00">conductor_diameter</text>
<polygon fill="none" stroke="black" points="120,-243.5 120,-266 282.75,-266 282.75,-243.5 120,-243.5"/>
<text text-anchor="start" x="156" y="-249.7" font-family="Times New Roman,Times,Liberation Serif,serif" font-size="14.00">PositiveDistance</text>
<polygon fill="none" stroke="black" points="0,-221 0,-243.5 120,-243.5 120,-221 0,-221"/>
<text text-anchor="start" x="18.38" y="-227.2" font-family="Times New Roman,Times,Liberation Serif,serif" font-size="14.00">cable_diameter</text>
<polygon fill="none" stroke="black" points="120,-221 120,-243.5 282.75,-243.5 282.75,-221 120,-221"/>
<text text-anchor="start" x="156" y="-227.2" font-family="Times New Roman,Times,Liberation Serif,serif" font-size="14.00">PositiveDistance</text>
<polygon fill="none" stroke="black" points="0,-198.5 0,-221 120,-221 120,-198.5 0,-198.5"/>
<text text-anchor="start" x="4.88" y="-204.7" font-family="Times New Roman,Times,Liberation Serif,serif" font-size="14.00">insulation_thickness</text>
<polygon fill="none" stroke="black" points="120,-198.5 120,-221 282.75,-221 282.75,-198.5 120,-198.5"/>
<text text-anchor="start" x="156" y="-204.7" font-family="Times New Roman,Times,Liberation Serif,serif" font-size="14.00">PositiveDistance</text>
<polygon fill="none" stroke="black" points="0,-176 0,-198.5 120,-198.5 120,-176 0,-176"/>
<text text-anchor="start" x="6" y="-182.2" font-family="Times New Roman,Times,Liberation Serif,serif" font-size="14.00">insulation_diameter</text>
<polygon fill="none" stroke="black" points="120,-176 120,-198.5 282.75,-198.5 282.75,-176 120,-176"/>
<text text-anchor="start" x="156" y="-182.2" font-family="Times New Roman,Times,Liberation Serif,serif" font-size="14.00">PositiveDistance</text>
<polygon fill="none" stroke="black" points="0,-153.5 0,-176 120,-176 120,-153.5 0,-153.5"/>
<text text-anchor="start" x="34.88" y="-159.7" font-family="Times New Roman,Times,Liberation Serif,serif" font-size="14.00">ampacity</text>
<polygon fill="none" stroke="black" points="120,-153.5 120,-176 282.75,-176 282.75,-153.5 120,-153.5"/>
<text text-anchor="start" x="159" y="-159.7" font-family="Times New Roman,Times,Liberation Serif,serif" font-size="14.00">PositiveCurrent</text>
<polygon fill="none" stroke="black" points="0,-131 0,-153.5 120,-153.5 120,-131 0,-131"/>
<text text-anchor="start" x="18.38" y="-137.2" font-family="Times New Roman,Times,Liberation Serif,serif" font-size="14.00">conductor_gmr</text>
<polygon fill="none" stroke="black" points="120,-131 120,-153.5 282.75,-153.5 282.75,-131 120,-131"/>
<text text-anchor="start" x="156" y="-137.2" font-family="Times New Roman,Times,Liberation Serif,serif" font-size="14.00">PositiveDistance</text>
<polygon fill="none" stroke="black" points="0,-108.5 0,-131 120,-131 120,-108.5 0,-108.5"/>
<text text-anchor="start" x="28.88" y="-114.7" font-family="Times New Roman,Times,Liberation Serif,serif" font-size="14.00">strand_gmr</text>
<polygon fill="none" stroke="black" points="120,-108.5 120,-131 282.75,-131 282.75,-108.5 120,-108.5"/>
<text text-anchor="start" x="156" y="-114.7" font-family="Times New Roman,Times,Liberation Serif,serif" font-size="14.00">PositiveDistance</text>
<polygon fill="none" stroke="black" points="0,-86 0,-108.5 120,-108.5 120,-86 0,-86"/>
<text text-anchor="start" x="5.25" y="-92.2" font-family="Times New Roman,Times,Liberation Serif,serif" font-size="14.00">phase_ac_resistance</text>
<polygon fill="none" stroke="black" points="120,-86 120,-108.5 282.75,-108.5 282.75,-86 120,-86"/>
<text text-anchor="start" x="123" y="-92.2" font-family="Times New Roman,Times,Liberation Serif,serif" font-size="14.00">PositiveResistancePULength</text>
<polygon fill="none" stroke="black" points="0,-63.5 0,-86 120,-86 120,-63.5 0,-63.5"/>
<text text-anchor="start" x="4.12" y="-69.7" font-family="Times New Roman,Times,Liberation Serif,serif" font-size="14.00">strand_ac_resistance</text>
<polygon fill="none" stroke="black" points="120,-63.5 120,-86 282.75,-86 282.75,-63.5 120,-63.5"/>
<text text-anchor="start" x="123" y="-69.7" font-family="Times New Roman,Times,Liberation Serif,serif" font-size="14.00">PositiveResistancePULength</text>
<polygon fill="none" stroke="black" points="0,-41 0,-63.5 120,-63.5 120,-41 0,-41"/>
<text text-anchor="start" x="3" y="-47.2" font-family="Times New Roman,Times,Liberation Serif,serif" font-size="14.00">num_neutral_strands</text>
<polygon fill="none" stroke="black" points="120,-41 120,-63.5 282.75,-63.5 282.75,-41 120,-41"/>
<text text-anchor="start" x="194.25" y="-47.2" font-family="Times New Roman,Times,Liberation Serif,serif" font-size="14.00">int</text>
<polygon fill="none" stroke="black" points="0,-18.5 0,-41 120,-41 120,-18.5 0,-18.5"/>
<text text-anchor="start" x="23.25" y="-24.7" font-family="Times New Roman,Times,Liberation Serif,serif" font-size="14.00">rated_voltage</text>
<polygon fill="none" stroke="black" points="120,-18.5 120,-41 282.75,-41 282.75,-18.5 120,-18.5"/>
<text text-anchor="start" x="159" y="-24.7" font-family="Times New Roman,Times,Liberation Serif,serif" font-size="14.00">PositiveVoltage</text>
</a>
</g>
</g>
</g>
</svg>
