<?xml version="1.0" encoding="UTF-8" standalone="no"?>
<!DOCTYPE svg PUBLIC "-//W3C//DTD SVG 1.1//EN"
 "http://www.w3.org/Graphics/SVG/1.1/DTD/svg11.dtd">
<!-- Generated by graphviz version 12.2.1 (20241206.2353)
 -->
<!-- Title: Entity Relationship Diagram created by erdantic Pages: 1 -->
<svg width="275pt" height="229pt"
 viewBox="0.00 0.00 274.50 229.00" xmlns="http://www.w3.org/2000/svg" xmlns:xlink="http://www.w3.org/1999/xlink">
<g id="graph0" class="graph" transform="scale(1 1) rotate(0) translate(4 225)">
<title>Entity Relationship Diagram created by erdantic</title>
<polygon fill="white" stroke="none" points="-4,4 -4,-225 270.5,-225 270.5,4 -4,4"/>
<text text-anchor="middle" x="133.25" y="-5.95" font-family="Times New Roman,Times,Liberation Serif,serif" font-size="9.00" fill="#a8a8a8">Created by erdantic v1.0.5 &lt;https://github.com/drivendataorg/erdantic&gt;</text>
<!-- gdm.distribution.controllers.distribution_capacitor_controller.CurrentCapacitorController -->
<g id="node1" class="node">
<title>gdm.distribution.controllers.distribution_capacitor_controller.CurrentCapacitorController</title>
<g id="a_node1"><a xlink:title="gdm.distribution.controllers.distribution_capacitor_controller.CurrentCapacitorController&#10;&#10;Interface for a Capacitor Controller which uses current.&#10;">
<polygon fill="none" stroke="black" points="47.38,-198.5 47.38,-221 219.12,-221 219.12,-198.5 47.38,-198.5"/>
<text text-anchor="start" x="50.38" y="-205.7" font-family="Times New Roman,Times,Liberation Serif,serif" font-weight="bold" font-size="14.00">CurrentCapacitorController</text>
<polygon fill="none" stroke="black" points="47.38,-176 47.38,-198.5 120.88,-198.5 120.88,-176 47.38,-176"/>
<text text-anchor="start" x="72.12" y="-182.2" font-family="Times New Roman,Times,Liberation Serif,serif" font-size="14.00">uuid</text>
<polygon fill="none" stroke="black" points="120.88,-176 120.88,-198.5 219.12,-198.5 219.12,-176 120.88,-176"/>
<text text-anchor="start" x="153.12" y="-182.2" font-family="Times New Roman,Times,Liberation Serif,serif" font-size="14.00">UUID</text>
<polygon fill="none" stroke="black" points="47.38,-153.5 47.38,-176 120.88,-176 120.88,-153.5 47.38,-153.5"/>
<text text-anchor="start" x="69.12" y="-159.7" font-family="Times New Roman,Times,Liberation Serif,serif" font-size="14.00">name</text>
<polygon fill="none" stroke="black" points="120.88,-153.5 120.88,-176 219.12,-176 219.12,-153.5 120.88,-153.5"/>
<text text-anchor="start" x="163.25" y="-159.7" font-family="Times New Roman,Times,Liberation Serif,serif" font-size="14.00">str</text>
<polygon fill="none" stroke="black" points="47.38,-131 47.38,-153.5 120.88,-153.5 120.88,-131 47.38,-131"/>
<text text-anchor="start" x="59.38" y="-137.2" font-family="Times New Roman,Times,Liberation Serif,serif" font-size="14.00">delay_on</text>
<polygon fill="none" stroke="black" points="120.88,-131 120.88,-153.5 219.12,-153.5 219.12,-131 120.88,-131"/>
<text text-anchor="start" x="127.25" y="-137.2" font-family="Times New Roman,Times,Liberation Serif,serif" font-size="14.00">Optional[Time]</text>
<polygon fill="none" stroke="black" points="47.38,-108.5 47.38,-131 120.88,-131 120.88,-108.5 47.38,-108.5"/>
<text text-anchor="start" x="58.25" y="-114.7" font-family="Times New Roman,Times,Liberation Serif,serif" font-size="14.00">delay_off</text>
<polygon fill="none" stroke="black" points="120.88,-108.5 120.88,-131 219.12,-131 219.12,-108.5 120.88,-108.5"/>
<text text-anchor="start" x="127.25" y="-114.7" font-family="Times New Roman,Times,Liberation Serif,serif" font-size="14.00">Optional[Time]</text>
<polygon fill="none" stroke="black" points="47.38,-86 47.38,-108.5 120.88,-108.5 120.88,-86 47.38,-86"/>
<text text-anchor="start" x="55.62" y="-92.2" font-family="Times New Roman,Times,Liberation Serif,serif" font-size="14.00">dead_time</text>
<polygon fill="none" stroke="black" points="120.88,-86 120.88,-108.5 219.12,-108.5 219.12,-86 120.88,-86"/>
<text text-anchor="start" x="127.25" y="-92.2" font-family="Times New Roman,Times,Liberation Serif,serif" font-size="14.00">Optional[Time]</text>
<polygon fill="none" stroke="black" points="47.38,-63.5 47.38,-86 120.88,-86 120.88,-63.5 47.38,-63.5"/>
<text text-anchor="start" x="54.88" y="-69.7" font-family="Times New Roman,Times,Liberation Serif,serif" font-size="14.00">on_current</text>
<polygon fill="none" stroke="black" points="120.88,-63.5 120.88,-86 219.12,-86 219.12,-63.5 120.88,-63.5"/>
<text text-anchor="start" x="127.62" y="-69.7" font-family="Times New Roman,Times,Liberation Serif,serif" font-size="14.00">PositiveCurrent</text>
<polygon fill="none" stroke="black" points="47.38,-41 47.38,-63.5 120.88,-63.5 120.88,-41 47.38,-41"/>
<text text-anchor="start" x="53.75" y="-47.2" font-family="Times New Roman,Times,Liberation Serif,serif" font-size="14.00">off_current</text>
<polygon fill="none" stroke="black" points="120.88,-41 120.88,-63.5 219.12,-63.5 219.12,-41 120.88,-41"/>
<text text-anchor="start" x="127.62" y="-47.2" font-family="Times New Roman,Times,Liberation Serif,serif" font-size="14.00">PositiveCurrent</text>
<polygon fill="none" stroke="black" points="47.38,-18.5 47.38,-41 120.88,-41 120.88,-18.5 47.38,-18.5"/>
<text text-anchor="start" x="63.5" y="-24.7" font-family="Times New Roman,Times,Liberation Serif,serif" font-size="14.00">ct_ratio</text>
<polygon fill="none" stroke="black" points="120.88,-18.5 120.88,-41 219.12,-41 219.12,-18.5 120.88,-18.5"/>
<text text-anchor="start" x="157.62" y="-24.7" font-family="Times New Roman,Times,Liberation Serif,serif" font-size="14.00">float</text>
</a>
</g>
</g>
</g>
</svg>
