<?xml version="1.0" encoding="UTF-8" standalone="no"?>
<!DOCTYPE svg PUBLIC "-//W3C//DTD SVG 1.1//EN"
 "http://www.w3.org/Graphics/SVG/1.1/DTD/svg11.dtd">
<!-- Generated by graphviz version 9.0.0 (0)
 -->
<!-- Title: Entity Relationship Diagram created by erdantic Pages: 1 -->
<svg width="275pt" height="225pt"
 viewBox="0.00 0.00 274.50 224.50" xmlns="http://www.w3.org/2000/svg" xmlns:xlink="http://www.w3.org/1999/xlink">
<g id="graph0" class="graph" transform="scale(1 1) rotate(0) translate(4 220.5)">
<title>Entity Relationship Diagram created by erdantic</title>
<polygon fill="white" stroke="none" points="-4,4 -4,-220.5 270.5,-220.5 270.5,4 -4,4"/>
<text text-anchor="middle" x="133.25" y="-5.95" font-family="Times New Roman,Times,Liberation Serif,serif" font-size="9.00" fill="#a8a8a8">Created by erdantic v0.6.0 &lt;https://github.com/drivendataorg/erdantic&gt;</text>
<!-- gdm.distribution.controllers.distribution_capacitor_controller.CurrentCapacitorController -->
<g id="node1" class="node">
<title>gdm.distribution.controllers.distribution_capacitor_controller.CurrentCapacitorController</title>
<g id="a_node1"><a xlink:title="gdm.distribution.controllers.distribution_capacitor_controller.CurrentCapacitorController&#10;&#10;Interface for a Capacitor Controller which uses current.&#10;">
<polygon fill="none" stroke="black" points="47.75,-194.5 47.75,-216.5 218.75,-216.5 218.75,-194.5 47.75,-194.5"/>
<text text-anchor="start" x="50.38" y="-201.2" font-family="Times New Roman,Times,Liberation Serif,serif" font-weight="bold" font-size="14.00">CurrentCapacitorController</text>
<polygon fill="none" stroke="black" points="47.75,-172.5 47.75,-194.5 120.75,-194.5 120.75,-172.5 47.75,-172.5"/>
<text text-anchor="start" x="72.25" y="-178.2" font-family="Times New Roman,Times,Liberation Serif,serif" font-size="14.00">uuid</text>
<polygon fill="none" stroke="black" points="120.75,-172.5 120.75,-194.5 218.75,-194.5 218.75,-172.5 120.75,-172.5"/>
<text text-anchor="start" x="152.88" y="-178.2" font-family="Times New Roman,Times,Liberation Serif,serif" font-size="14.00">UUID</text>
<polygon fill="none" stroke="black" points="47.75,-150.5 47.75,-172.5 120.75,-172.5 120.75,-150.5 47.75,-150.5"/>
<text text-anchor="start" x="69.25" y="-156.2" font-family="Times New Roman,Times,Liberation Serif,serif" font-size="14.00">name</text>
<polygon fill="none" stroke="black" points="120.75,-150.5 120.75,-172.5 218.75,-172.5 218.75,-150.5 120.75,-150.5"/>
<text text-anchor="start" x="163" y="-156.2" font-family="Times New Roman,Times,Liberation Serif,serif" font-size="14.00">str</text>
<polygon fill="none" stroke="black" points="47.75,-128.5 47.75,-150.5 120.75,-150.5 120.75,-128.5 47.75,-128.5"/>
<text text-anchor="start" x="59.5" y="-134.2" font-family="Times New Roman,Times,Liberation Serif,serif" font-size="14.00">delay_on</text>
<polygon fill="none" stroke="black" points="120.75,-128.5 120.75,-150.5 218.75,-150.5 218.75,-128.5 120.75,-128.5"/>
<text text-anchor="start" x="127" y="-134.2" font-family="Times New Roman,Times,Liberation Serif,serif" font-size="14.00">Optional[Time]</text>
<polygon fill="none" stroke="black" points="47.75,-106.5 47.75,-128.5 120.75,-128.5 120.75,-106.5 47.75,-106.5"/>
<text text-anchor="start" x="58.38" y="-112.2" font-family="Times New Roman,Times,Liberation Serif,serif" font-size="14.00">delay_off</text>
<polygon fill="none" stroke="black" points="120.75,-106.5 120.75,-128.5 218.75,-128.5 218.75,-106.5 120.75,-106.5"/>
<text text-anchor="start" x="127" y="-112.2" font-family="Times New Roman,Times,Liberation Serif,serif" font-size="14.00">Optional[Time]</text>
<polygon fill="none" stroke="black" points="47.75,-84.5 47.75,-106.5 120.75,-106.5 120.75,-84.5 47.75,-84.5"/>
<text text-anchor="start" x="55.75" y="-90.2" font-family="Times New Roman,Times,Liberation Serif,serif" font-size="14.00">dead_time</text>
<polygon fill="none" stroke="black" points="120.75,-84.5 120.75,-106.5 218.75,-106.5 218.75,-84.5 120.75,-84.5"/>
<text text-anchor="start" x="127" y="-90.2" font-family="Times New Roman,Times,Liberation Serif,serif" font-size="14.00">Optional[Time]</text>
<polygon fill="none" stroke="black" points="47.75,-62.5 47.75,-84.5 120.75,-84.5 120.75,-62.5 47.75,-62.5"/>
<text text-anchor="start" x="55" y="-68.2" font-family="Times New Roman,Times,Liberation Serif,serif" font-size="14.00">on_current</text>
<polygon fill="none" stroke="black" points="120.75,-62.5 120.75,-84.5 218.75,-84.5 218.75,-62.5 120.75,-62.5"/>
<text text-anchor="start" x="127.38" y="-68.2" font-family="Times New Roman,Times,Liberation Serif,serif" font-size="14.00">PositiveCurrent</text>
<polygon fill="none" stroke="black" points="47.75,-40.5 47.75,-62.5 120.75,-62.5 120.75,-40.5 47.75,-40.5"/>
<text text-anchor="start" x="53.88" y="-46.2" font-family="Times New Roman,Times,Liberation Serif,serif" font-size="14.00">off_current</text>
<polygon fill="none" stroke="black" points="120.75,-40.5 120.75,-62.5 218.75,-62.5 218.75,-40.5 120.75,-40.5"/>
<text text-anchor="start" x="127.38" y="-46.2" font-family="Times New Roman,Times,Liberation Serif,serif" font-size="14.00">PositiveCurrent</text>
<polygon fill="none" stroke="black" points="47.75,-18.5 47.75,-40.5 120.75,-40.5 120.75,-18.5 47.75,-18.5"/>
<text text-anchor="start" x="63.62" y="-24.2" font-family="Times New Roman,Times,Liberation Serif,serif" font-size="14.00">ct_ratio</text>
<polygon fill="none" stroke="black" points="120.75,-18.5 120.75,-40.5 218.75,-40.5 218.75,-18.5 120.75,-18.5"/>
<text text-anchor="start" x="157.38" y="-24.2" font-family="Times New Roman,Times,Liberation Serif,serif" font-size="14.00">float</text>
</a>
</g>
</g>
</g>
</svg>
