<?xml version="1.0" encoding="UTF-8" standalone="no"?>
<!DOCTYPE svg PUBLIC "-//W3C//DTD SVG 1.1//EN"
 "http://www.w3.org/Graphics/SVG/1.1/DTD/svg11.dtd">
<!-- Generated by graphviz version 9.0.0 (0)
 -->
<!-- Title: Entity Relationship Diagram created by erdantic Pages: 1 -->
<svg width="275pt" height="137pt"
 viewBox="0.00 0.00 274.50 136.50" xmlns="http://www.w3.org/2000/svg" xmlns:xlink="http://www.w3.org/1999/xlink">
<g id="graph0" class="graph" transform="scale(1 1) rotate(0) translate(4 132.5)">
<title>Entity Relationship Diagram created by erdantic</title>
<polygon fill="white" stroke="none" points="-4,4 -4,-132.5 270.5,-132.5 270.5,4 -4,4"/>
<text text-anchor="middle" x="133.25" y="-5.95" font-family="Times New Roman,Times,Liberation Serif,serif" font-size="9.00" fill="#a8a8a8">Created by erdantic v0.6.0 &lt;https://github.com/drivendataorg/erdantic&gt;</text>
<!-- gdm.distribution.curve.Curve -->
<g id="node1" class="node">
<title>gdm.distribution.curve.Curve</title>
<g id="a_node1"><a xlink:title="gdm.distribution.curve.Curve&#10;&#10;An interface for representing a curve using x and y points. e.g for volt&#45;var and volt&#45;watt curves.&#10;&#10;Examples&#10;&#45;&#45;&#45;&#45;&#45;&#45;&#45;&#45;&#10;&#10;Example of a Curve (Volt&#45;Var IEEE&#45;1547 standard).&#10;&#10;&gt;&gt;&gt; Curve(&#10; &#160;&#160;&#160;&#160;&#160;&#160;&#160;curve_x=[0.5, 0.92, 0.98, 1.02, 1.08, 1.5], curve_y=[1.0, 1.0, 0.0, 0.0, &#45;1.0, &#45;1.0]&#10; &#160;&#160;&#160;)&#10;&#10;Example of a Curve (Volt&#45;Var Volt&#45;Watt IEEE&#45;1547 standard)&#10;&#10;&gt;&gt;&gt; Curve(curve_x=[0.5, 1.06, 1.1, 1.5], curve_y=[1.0, 1.0, 0.0, 0.0])&#10;">
<polygon fill="none" stroke="black" points="38.75,-106.5 38.75,-128.5 227.75,-128.5 227.75,-106.5 38.75,-106.5"/>
<text text-anchor="start" x="115.25" y="-113.2" font-family="Times New Roman,Times,Liberation Serif,serif" font-weight="bold" font-size="14.00">Curve</text>
<polygon fill="none" stroke="black" points="38.75,-84.5 38.75,-106.5 87.75,-106.5 87.75,-84.5 38.75,-84.5"/>
<text text-anchor="start" x="51.25" y="-90.2" font-family="Times New Roman,Times,Liberation Serif,serif" font-size="14.00">uuid</text>
<polygon fill="none" stroke="black" points="87.75,-84.5 87.75,-106.5 227.75,-106.5 227.75,-84.5 87.75,-84.5"/>
<text text-anchor="start" x="140.88" y="-90.2" font-family="Times New Roman,Times,Liberation Serif,serif" font-size="14.00">UUID</text>
<polygon fill="none" stroke="black" points="38.75,-62.5 38.75,-84.5 87.75,-84.5 87.75,-62.5 38.75,-62.5"/>
<text text-anchor="start" x="48.25" y="-68.2" font-family="Times New Roman,Times,Liberation Serif,serif" font-size="14.00">name</text>
<polygon fill="none" stroke="black" points="87.75,-62.5 87.75,-84.5 227.75,-84.5 227.75,-62.5 87.75,-62.5"/>
<text text-anchor="start" x="151" y="-68.2" font-family="Times New Roman,Times,Liberation Serif,serif" font-size="14.00">str</text>
<polygon fill="none" stroke="black" points="38.75,-40.5 38.75,-62.5 87.75,-62.5 87.75,-40.5 38.75,-40.5"/>
<text text-anchor="start" x="41.5" y="-46.2" font-family="Times New Roman,Times,Liberation Serif,serif" font-size="14.00">curve_x</text>
<polygon fill="none" stroke="black" points="87.75,-40.5 87.75,-62.5 227.75,-62.5 227.75,-40.5 87.75,-40.5"/>
<text text-anchor="start" x="90.62" y="-46.2" font-family="Times New Roman,Times,Liberation Serif,serif" font-size="14.00">list[float] | BaseQuantity</text>
<polygon fill="none" stroke="black" points="38.75,-18.5 38.75,-40.5 87.75,-40.5 87.75,-18.5 38.75,-18.5"/>
<text text-anchor="start" x="41.5" y="-24.2" font-family="Times New Roman,Times,Liberation Serif,serif" font-size="14.00">curve_y</text>
<polygon fill="none" stroke="black" points="87.75,-18.5 87.75,-40.5 227.75,-40.5 227.75,-18.5 87.75,-18.5"/>
<text text-anchor="start" x="90.62" y="-24.2" font-family="Times New Roman,Times,Liberation Serif,serif" font-size="14.00">list[float] | BaseQuantity</text>
</a>
</g>
</g>
</g>
</svg>
