<?xml version="1.0" encoding="UTF-8" standalone="no"?>
<!DOCTYPE svg PUBLIC "-//W3C//DTD SVG 1.1//EN"
 "http://www.w3.org/Graphics/SVG/1.1/DTD/svg11.dtd">
<!-- Generated by graphviz version 9.0.0 (0)
 -->
<!-- Title: Entity Relationship Diagram created by erdantic Pages: 1 -->
<svg width="275pt" height="203pt"
 viewBox="0.00 0.00 274.50 202.50" xmlns="http://www.w3.org/2000/svg" xmlns:xlink="http://www.w3.org/1999/xlink">
<g id="graph0" class="graph" transform="scale(1 1) rotate(0) translate(4 198.5)">
<title>Entity Relationship Diagram created by erdantic</title>
<polygon fill="white" stroke="none" points="-4,4 -4,-198.5 270.5,-198.5 270.5,4 -4,4"/>
<text text-anchor="middle" x="133.25" y="-5.95" font-family="Times New Roman,Times,Liberation Serif,serif" font-size="9.00" fill="#a8a8a8">Created by erdantic v0.6.0 &lt;https://github.com/drivendataorg/erdantic&gt;</text>
<!-- gdm.distribution.controllers.distribution_capacitor_controller.DailyTimedCapacitorController -->
<g id="node1" class="node">
<title>gdm.distribution.controllers.distribution_capacitor_controller.DailyTimedCapacitorController</title>
<g id="a_node1"><a xlink:title="gdm.distribution.controllers.distribution_capacitor_controller.DailyTimedCapacitorController&#10;&#10;Interface for a Capacitor Controller which uses a timed controller.&#10;">
<polygon fill="none" stroke="black" points="36.75,-172.5 36.75,-194.5 229.75,-194.5 229.75,-172.5 36.75,-172.5"/>
<text text-anchor="start" x="39.5" y="-179.2" font-family="Times New Roman,Times,Liberation Serif,serif" font-weight="bold" font-size="14.00">DailyTimedCapacitorController</text>
<polygon fill="none" stroke="black" points="36.75,-150.5 36.75,-172.5 118.75,-172.5 118.75,-150.5 36.75,-150.5"/>
<text text-anchor="start" x="65.75" y="-156.2" font-family="Times New Roman,Times,Liberation Serif,serif" font-size="14.00">uuid</text>
<polygon fill="none" stroke="black" points="118.75,-150.5 118.75,-172.5 229.75,-172.5 229.75,-150.5 118.75,-150.5"/>
<text text-anchor="start" x="157.38" y="-156.2" font-family="Times New Roman,Times,Liberation Serif,serif" font-size="14.00">UUID</text>
<polygon fill="none" stroke="black" points="36.75,-128.5 36.75,-150.5 118.75,-150.5 118.75,-128.5 36.75,-128.5"/>
<text text-anchor="start" x="62.75" y="-134.2" font-family="Times New Roman,Times,Liberation Serif,serif" font-size="14.00">name</text>
<polygon fill="none" stroke="black" points="118.75,-128.5 118.75,-150.5 229.75,-150.5 229.75,-128.5 118.75,-128.5"/>
<text text-anchor="start" x="167.5" y="-134.2" font-family="Times New Roman,Times,Liberation Serif,serif" font-size="14.00">str</text>
<polygon fill="none" stroke="black" points="36.75,-106.5 36.75,-128.5 118.75,-128.5 118.75,-106.5 36.75,-106.5"/>
<text text-anchor="start" x="53" y="-112.2" font-family="Times New Roman,Times,Liberation Serif,serif" font-size="14.00">delay_on</text>
<polygon fill="none" stroke="black" points="118.75,-106.5 118.75,-128.5 229.75,-128.5 229.75,-106.5 118.75,-106.5"/>
<text text-anchor="start" x="131.5" y="-112.2" font-family="Times New Roman,Times,Liberation Serif,serif" font-size="14.00">Optional[Time]</text>
<polygon fill="none" stroke="black" points="36.75,-84.5 36.75,-106.5 118.75,-106.5 118.75,-84.5 36.75,-84.5"/>
<text text-anchor="start" x="51.88" y="-90.2" font-family="Times New Roman,Times,Liberation Serif,serif" font-size="14.00">delay_off</text>
<polygon fill="none" stroke="black" points="118.75,-84.5 118.75,-106.5 229.75,-106.5 229.75,-84.5 118.75,-84.5"/>
<text text-anchor="start" x="131.5" y="-90.2" font-family="Times New Roman,Times,Liberation Serif,serif" font-size="14.00">Optional[Time]</text>
<polygon fill="none" stroke="black" points="36.75,-62.5 36.75,-84.5 118.75,-84.5 118.75,-62.5 36.75,-62.5"/>
<text text-anchor="start" x="49.25" y="-68.2" font-family="Times New Roman,Times,Liberation Serif,serif" font-size="14.00">dead_time</text>
<polygon fill="none" stroke="black" points="118.75,-62.5 118.75,-84.5 229.75,-84.5 229.75,-62.5 118.75,-62.5"/>
<text text-anchor="start" x="131.5" y="-68.2" font-family="Times New Roman,Times,Liberation Serif,serif" font-size="14.00">Optional[Time]</text>
<polygon fill="none" stroke="black" points="36.75,-40.5 36.75,-62.5 118.75,-62.5 118.75,-40.5 36.75,-40.5"/>
<text text-anchor="start" x="55.25" y="-46.2" font-family="Times New Roman,Times,Liberation Serif,serif" font-size="14.00">on_time</text>
<polygon fill="none" stroke="black" points="118.75,-40.5 118.75,-62.5 229.75,-62.5 229.75,-40.5 118.75,-40.5"/>
<text text-anchor="start" x="161.88" y="-46.2" font-family="Times New Roman,Times,Liberation Serif,serif" font-size="14.00">time</text>
<polygon fill="none" stroke="black" points="36.75,-18.5 36.75,-40.5 118.75,-40.5 118.75,-18.5 36.75,-18.5"/>
<text text-anchor="start" x="54.12" y="-24.2" font-family="Times New Roman,Times,Liberation Serif,serif" font-size="14.00">off_time</text>
<polygon fill="none" stroke="black" points="118.75,-18.5 118.75,-40.5 229.75,-40.5 229.75,-18.5 118.75,-18.5"/>
<text text-anchor="start" x="161.88" y="-24.2" font-family="Times New Roman,Times,Liberation Serif,serif" font-size="14.00">time</text>
</a>
</g>
</g>
</g>
</svg>
