<?xml version="1.0" encoding="UTF-8" standalone="no"?>
<!DOCTYPE svg PUBLIC "-//W3C//DTD SVG 1.1//EN"
 "http://www.w3.org/Graphics/SVG/1.1/DTD/svg11.dtd">
<!-- Generated by graphviz version 12.2.1 (20241206.2353)
 -->
<!-- Title: Entity Relationship Diagram created by erdantic Pages: 1 -->
<svg width="599pt" height="453pt"
 viewBox="0.00 0.00 599.00 453.25" xmlns="http://www.w3.org/2000/svg" xmlns:xlink="http://www.w3.org/1999/xlink">
<g id="graph0" class="graph" transform="scale(1 1) rotate(0) translate(4 449.25)">
<title>Entity Relationship Diagram created by erdantic</title>
<polygon fill="white" stroke="none" points="-4,4 -4,-449.25 595,-449.25 595,4 -4,4"/>
<text text-anchor="middle" x="295.5" y="-5.95" font-family="Times New Roman,Times,Liberation Serif,serif" font-size="9.00" fill="#a8a8a8">Created by erdantic v1.0.5 &lt;https://github.com/drivendataorg/erdantic&gt;</text>
<!-- gdm.distribution.equipment.distribution_transformer_equipment.DistributionTransformerEquipment -->
<g id="node1" class="node">
<title>gdm.distribution.equipment.distribution_transformer_equipment.DistributionTransformerEquipment</title>
<g id="a_node1"><a xlink:title="gdm.distribution.equipment.distribution_transformer_equipment.DistributionTransformerEquipment&#10;&#10;Data model for distribution transformer info.&#10;">
<polygon fill="none" stroke="black" points="0,-422.75 0,-445.25 253.5,-445.25 253.5,-422.75 0,-422.75"/>
<text text-anchor="start" x="21" y="-429.95" font-family="Times New Roman,Times,Liberation Serif,serif" font-weight="bold" font-size="14.00">DistributionTransformerEquipment</text>
<polygon fill="none" stroke="black" points="0,-400.25 0,-422.75 114.75,-422.75 114.75,-400.25 0,-400.25"/>
<text text-anchor="start" x="45.38" y="-406.45" font-family="Times New Roman,Times,Liberation Serif,serif" font-size="14.00">uuid</text>
<polygon fill="none" stroke="black" points="114.75,-400.25 114.75,-422.75 253.5,-422.75 253.5,-400.25 114.75,-400.25"/>
<text text-anchor="start" x="167.25" y="-406.45" font-family="Times New Roman,Times,Liberation Serif,serif" font-size="14.00">UUID</text>
<polygon fill="none" stroke="black" points="0,-377.75 0,-400.25 114.75,-400.25 114.75,-377.75 0,-377.75"/>
<text text-anchor="start" x="42.38" y="-383.95" font-family="Times New Roman,Times,Liberation Serif,serif" font-size="14.00">name</text>
<polygon fill="none" stroke="black" points="114.75,-377.75 114.75,-400.25 253.5,-400.25 253.5,-377.75 114.75,-377.75"/>
<text text-anchor="start" x="177.38" y="-383.95" font-family="Times New Roman,Times,Liberation Serif,serif" font-size="14.00">str</text>
<polygon fill="none" stroke="black" points="0,-355.25 0,-377.75 114.75,-377.75 114.75,-355.25 0,-355.25"/>
<text text-anchor="start" x="10.12" y="-361.45" font-family="Times New Roman,Times,Liberation Serif,serif" font-size="14.00">pct_no_load_loss</text>
<polygon fill="none" stroke="black" points="114.75,-355.25 114.75,-377.75 253.5,-377.75 253.5,-355.25 114.75,-355.25"/>
<text text-anchor="start" x="171.75" y="-361.45" font-family="Times New Roman,Times,Liberation Serif,serif" font-size="14.00">float</text>
<polygon fill="none" stroke="black" points="0,-332.75 0,-355.25 114.75,-355.25 114.75,-332.75 0,-332.75"/>
<text text-anchor="start" x="7.5" y="-338.95" font-family="Times New Roman,Times,Liberation Serif,serif" font-size="14.00">pct_full_load_loss</text>
<polygon fill="none" stroke="black" points="114.75,-332.75 114.75,-355.25 253.5,-355.25 253.5,-332.75 114.75,-332.75"/>
<text text-anchor="start" x="171.75" y="-338.95" font-family="Times New Roman,Times,Liberation Serif,serif" font-size="14.00">float</text>
<polygon fill="none" stroke="black" points="0,-310.25 0,-332.75 114.75,-332.75 114.75,-310.25 0,-310.25"/>
<text text-anchor="start" x="32.62" y="-316.45" font-family="Times New Roman,Times,Liberation Serif,serif" font-size="14.00">windings</text>
<polygon fill="none" stroke="black" points="114.75,-310.25 114.75,-332.75 253.5,-332.75 253.5,-310.25 114.75,-310.25"/>
<text text-anchor="start" x="117.75" y="-316.45" font-family="Times New Roman,Times,Liberation Serif,serif" font-size="14.00">list[WindingEquipment]</text>
<polygon fill="none" stroke="black" points="0,-287.75 0,-310.25 114.75,-310.25 114.75,-287.75 0,-287.75"/>
<text text-anchor="start" x="3" y="-293.95" font-family="Times New Roman,Times,Liberation Serif,serif" font-size="14.00">coupling_sequences</text>
<polygon fill="none" stroke="black" points="114.75,-287.75 114.75,-310.25 253.5,-310.25 253.5,-287.75 114.75,-287.75"/>
<text text-anchor="start" x="134.62" y="-293.95" font-family="Times New Roman,Times,Liberation Serif,serif" font-size="14.00">list[SequencePair]</text>
<polygon fill="none" stroke="black" points="0,-265.25 0,-287.75 114.75,-287.75 114.75,-265.25 0,-265.25"/>
<text text-anchor="start" x="3.75" y="-271.45" font-family="Times New Roman,Times,Liberation Serif,serif" font-size="14.00">winding_reactances</text>
<polygon fill="none" stroke="black" points="114.75,-265.25 114.75,-287.75 253.5,-287.75 253.5,-265.25 114.75,-265.25"/>
<text text-anchor="start" x="159" y="-271.45" font-family="Times New Roman,Times,Liberation Serif,serif" font-size="14.00">list[float]</text>
<polygon fill="none" stroke="black" points="0,-242.75 0,-265.25 114.75,-265.25 114.75,-242.75 0,-242.75"/>
<text text-anchor="start" x="11.62" y="-248.95" font-family="Times New Roman,Times,Liberation Serif,serif" font-size="14.00">is_center_tapped</text>
<polygon fill="none" stroke="black" points="114.75,-242.75 114.75,-265.25 253.5,-265.25 253.5,-242.75 114.75,-242.75"/>
<text text-anchor="start" x="172.12" y="-248.95" font-family="Times New Roman,Times,Liberation Serif,serif" font-size="14.00">bool</text>
</a>
</g>
</g>
<!-- gdm.distribution.equipment.distribution_transformer_equipment.WindingEquipment -->
<g id="node2" class="node">
<title>gdm.distribution.equipment.distribution_transformer_equipment.WindingEquipment</title>
<g id="a_node2"><a xlink:title="gdm.distribution.equipment.distribution_transformer_equipment.WindingEquipment&#10;&#10;Data model for winding.&#10;">
<polygon fill="none" stroke="black" points="361.5,-311 361.5,-333.5 591,-333.5 591,-311 361.5,-311"/>
<text text-anchor="start" x="418.5" y="-318.2" font-family="Times New Roman,Times,Liberation Serif,serif" font-weight="bold" font-size="14.00">WindingEquipment</text>
<polygon fill="none" stroke="black" points="361.5,-288.5 361.5,-311 456.75,-311 456.75,-288.5 361.5,-288.5"/>
<text text-anchor="start" x="397.12" y="-294.7" font-family="Times New Roman,Times,Liberation Serif,serif" font-size="14.00">uuid</text>
<polygon fill="none" stroke="black" points="456.75,-288.5 456.75,-311 591,-311 591,-288.5 456.75,-288.5"/>
<text text-anchor="start" x="507" y="-294.7" font-family="Times New Roman,Times,Liberation Serif,serif" font-size="14.00">UUID</text>
<polygon fill="none" stroke="black" points="361.5,-266 361.5,-288.5 456.75,-288.5 456.75,-266 361.5,-266"/>
<text text-anchor="start" x="394.12" y="-272.2" font-family="Times New Roman,Times,Liberation Serif,serif" font-size="14.00">name</text>
<polygon fill="none" stroke="black" points="456.75,-266 456.75,-288.5 591,-288.5 591,-266 456.75,-266"/>
<text text-anchor="start" x="517.12" y="-272.2" font-family="Times New Roman,Times,Liberation Serif,serif" font-size="14.00">str</text>
<polygon fill="none" stroke="black" points="361.5,-243.5 361.5,-266 456.75,-266 456.75,-243.5 361.5,-243.5"/>
<text text-anchor="start" x="382.5" y="-249.7" font-family="Times New Roman,Times,Liberation Serif,serif" font-size="14.00">resistance</text>
<polygon fill="none" stroke="black" points="456.75,-243.5 456.75,-266 591,-266 591,-243.5 456.75,-243.5"/>
<text text-anchor="start" x="511.5" y="-249.7" font-family="Times New Roman,Times,Liberation Serif,serif" font-size="14.00">float</text>
<polygon fill="none" stroke="black" points="361.5,-221 361.5,-243.5 456.75,-243.5 456.75,-221 361.5,-221"/>
<text text-anchor="start" x="375.75" y="-227.2" font-family="Times New Roman,Times,Liberation Serif,serif" font-size="14.00">is_grounded</text>
<polygon fill="none" stroke="black" points="456.75,-221 456.75,-243.5 591,-243.5 591,-221 456.75,-221"/>
<text text-anchor="start" x="511.88" y="-227.2" font-family="Times New Roman,Times,Liberation Serif,serif" font-size="14.00">bool</text>
<polygon fill="none" stroke="black" points="361.5,-198.5 361.5,-221 456.75,-221 456.75,-198.5 361.5,-198.5"/>
<text text-anchor="start" x="372.38" y="-204.7" font-family="Times New Roman,Times,Liberation Serif,serif" font-size="14.00">rated_voltage</text>
<polygon fill="none" stroke="black" points="456.75,-198.5 456.75,-221 591,-221 591,-198.5 456.75,-198.5"/>
<text text-anchor="start" x="481.5" y="-204.7" font-family="Times New Roman,Times,Liberation Serif,serif" font-size="14.00">PositiveVoltage</text>
<polygon fill="none" stroke="black" points="361.5,-176 361.5,-198.5 456.75,-198.5 456.75,-176 361.5,-176"/>
<text text-anchor="start" x="374.25" y="-182.2" font-family="Times New Roman,Times,Liberation Serif,serif" font-size="14.00">voltage_type</text>
<polygon fill="none" stroke="black" points="456.75,-176 456.75,-198.5 591,-198.5 591,-176 456.75,-176"/>
<text text-anchor="start" x="486.75" y="-182.2" font-family="Times New Roman,Times,Liberation Serif,serif" font-size="14.00">VoltageTypes</text>
<polygon fill="none" stroke="black" points="361.5,-153.5 361.5,-176 456.75,-176 456.75,-153.5 361.5,-153.5"/>
<text text-anchor="start" x="375.38" y="-159.7" font-family="Times New Roman,Times,Liberation Serif,serif" font-size="14.00">rated_power</text>
<polygon fill="none" stroke="black" points="456.75,-153.5 456.75,-176 591,-176 591,-153.5 456.75,-153.5"/>
<text text-anchor="start" x="459.75" y="-159.7" font-family="Times New Roman,Times,Liberation Serif,serif" font-size="14.00">PositiveApparentPower</text>
<polygon fill="none" stroke="black" points="361.5,-131 361.5,-153.5 456.75,-153.5 456.75,-131 361.5,-131"/>
<text text-anchor="start" x="375.38" y="-137.2" font-family="Times New Roman,Times,Liberation Serif,serif" font-size="14.00">num_phases</text>
<polygon fill="none" stroke="black" points="456.75,-131 456.75,-153.5 591,-153.5 591,-131 456.75,-131"/>
<text text-anchor="start" x="516.75" y="-137.2" font-family="Times New Roman,Times,Liberation Serif,serif" font-size="14.00">int</text>
<polygon fill="none" stroke="black" points="361.5,-108.5 361.5,-131 456.75,-131 456.75,-108.5 361.5,-108.5"/>
<text text-anchor="start" x="364.5" y="-114.7" font-family="Times New Roman,Times,Liberation Serif,serif" font-size="14.00">connection_type</text>
<polygon fill="none" stroke="black" points="456.75,-108.5 456.75,-131 591,-131 591,-108.5 456.75,-108.5"/>
<text text-anchor="start" x="478.88" y="-114.7" font-family="Times New Roman,Times,Liberation Serif,serif" font-size="14.00">ConnectionType</text>
<polygon fill="none" stroke="black" points="361.5,-86 361.5,-108.5 456.75,-108.5 456.75,-86 361.5,-86"/>
<text text-anchor="start" x="373.12" y="-92.2" font-family="Times New Roman,Times,Liberation Serif,serif" font-size="14.00">tap_positions</text>
<polygon fill="none" stroke="black" points="456.75,-86 456.75,-108.5 591,-108.5 591,-86 456.75,-86"/>
<text text-anchor="start" x="498.75" y="-92.2" font-family="Times New Roman,Times,Liberation Serif,serif" font-size="14.00">list[float]</text>
<polygon fill="none" stroke="black" points="361.5,-63.5 361.5,-86 456.75,-86 456.75,-63.5 361.5,-63.5"/>
<text text-anchor="start" x="382.88" y="-69.7" font-family="Times New Roman,Times,Liberation Serif,serif" font-size="14.00">total_taps</text>
<polygon fill="none" stroke="black" points="456.75,-63.5 456.75,-86 591,-86 591,-63.5 456.75,-63.5"/>
<text text-anchor="start" x="516.75" y="-69.7" font-family="Times New Roman,Times,Liberation Serif,serif" font-size="14.00">int</text>
<polygon fill="none" stroke="black" points="361.5,-41 361.5,-63.5 456.75,-63.5 456.75,-41 361.5,-41"/>
<text text-anchor="start" x="376.5" y="-47.2" font-family="Times New Roman,Times,Liberation Serif,serif" font-size="14.00">min_tap_pu</text>
<polygon fill="none" stroke="black" points="456.75,-41 456.75,-63.5 591,-63.5 591,-41 456.75,-41"/>
<text text-anchor="start" x="511.5" y="-47.2" font-family="Times New Roman,Times,Liberation Serif,serif" font-size="14.00">float</text>
<polygon fill="none" stroke="black" points="361.5,-18.5 361.5,-41 456.75,-41 456.75,-18.5 361.5,-18.5"/>
<text text-anchor="start" x="375.38" y="-24.7" font-family="Times New Roman,Times,Liberation Serif,serif" font-size="14.00">max_tap_pu</text>
<polygon fill="none" stroke="black" points="456.75,-18.5 456.75,-41 591,-41 591,-18.5 456.75,-18.5"/>
<text text-anchor="start" x="511.5" y="-24.7" font-family="Times New Roman,Times,Liberation Serif,serif" font-size="14.00">float</text>
</a>
</g>
</g>
<!-- gdm.distribution.equipment.distribution_transformer_equipment.DistributionTransformerEquipment&#45;&gt;gdm.distribution.equipment.distribution_transformer_equipment.WindingEquipment -->
<g id="edge1" class="edge">
<title>gdm.distribution.equipment.distribution_transformer_equipment.DistributionTransformerEquipment:e&#45;&gt;gdm.distribution.equipment.distribution_transformer_equipment.WindingEquipment:w</title>
<path fill="none" stroke="black" d="M263.37,-321.51C298.42,-321.59 313.17,-322.1 346.14,-322.22"/>
<polyline fill="none" stroke="black" points="253.5,-321.5 258.5,-321.51"/>
<polyline fill="none" stroke="black" points="258.5,-321.51 263.5,-321.51"/>
<polygon fill="black" stroke="black" points="351.17,-322.23 361.16,-326.75 356.5,-322.24 360.83,-322.25 360.83,-322.25 360.83,-322.25 356.5,-322.24 361.17,-317.75 351.17,-322.23"/>
<polyline fill="none" stroke="black" points="349.95,-322.23 344.95,-322.22"/>
</g>
</g>
</svg>
