<?xml version="1.0" encoding="UTF-8" standalone="no"?>
<!DOCTYPE svg PUBLIC "-//W3C//DTD SVG 1.1//EN"
 "http://www.w3.org/Graphics/SVG/1.1/DTD/svg11.dtd">
<!-- Generated by graphviz version 9.0.0 (0)
 -->
<!-- Title: Entity Relationship Diagram created by erdantic Pages: 1 -->
<svg width="1252pt" height="921pt"
 viewBox="0.00 0.00 1252.00 920.50" xmlns="http://www.w3.org/2000/svg" xmlns:xlink="http://www.w3.org/1999/xlink">
<g id="graph0" class="graph" transform="scale(1 1) rotate(0) translate(4 916.5)">
<title>Entity Relationship Diagram created by erdantic</title>
<polygon fill="white" stroke="none" points="-4,4 -4,-916.5 1248,-916.5 1248,4 -4,4"/>
<text text-anchor="middle" x="622" y="-5.95" font-family="Times New Roman,Times,Liberation Serif,serif" font-size="9.00" fill="#a8a8a8">Created by erdantic v0.6.0 &lt;https://github.com/drivendataorg/erdantic&gt;</text>
<!-- gdm.distribution.components.base.distribution_transformer_base.DistributionTransformerBase -->
<g id="node1" class="node">
<title>gdm.distribution.components.base.distribution_transformer_base.DistributionTransformerBase</title>
<g id="a_node1"><a xlink:title="gdm.distribution.components.base.distribution_transformer_base.DistributionTransformerBase&#10;&#10;Interface for distribution transformer.&#10;">
<polygon fill="none" stroke="black" points="0,-835.5 0,-857.5 292,-857.5 292,-835.5 0,-835.5"/>
<text text-anchor="start" x="59.75" y="-842.2" font-family="Times New Roman,Times,Liberation Serif,serif" font-weight="bold" font-size="14.00">DistributionTransformerBase</text>
<polygon fill="none" stroke="black" points="0,-813.5 0,-835.5 93,-835.5 93,-813.5 0,-813.5"/>
<text text-anchor="start" x="34.5" y="-819.2" font-family="Times New Roman,Times,Liberation Serif,serif" font-size="14.00">uuid</text>
<polygon fill="none" stroke="black" points="93,-813.5 93,-835.5 292,-835.5 292,-813.5 93,-813.5"/>
<text text-anchor="start" x="175.62" y="-819.2" font-family="Times New Roman,Times,Liberation Serif,serif" font-size="14.00">UUID</text>
<polygon fill="none" stroke="black" points="0,-791.5 0,-813.5 93,-813.5 93,-791.5 0,-791.5"/>
<text text-anchor="start" x="31.5" y="-797.2" font-family="Times New Roman,Times,Liberation Serif,serif" font-size="14.00">name</text>
<polygon fill="none" stroke="black" points="93,-791.5 93,-813.5 292,-813.5 292,-791.5 93,-791.5"/>
<text text-anchor="start" x="185.75" y="-797.2" font-family="Times New Roman,Times,Liberation Serif,serif" font-size="14.00">str</text>
<polygon fill="none" stroke="black" points="0,-769.5 0,-791.5 93,-791.5 93,-769.5 0,-769.5"/>
<text text-anchor="start" x="19.12" y="-775.2" font-family="Times New Roman,Times,Liberation Serif,serif" font-size="14.00">substation</text>
<polygon fill="none" stroke="black" points="93,-769.5 93,-791.5 292,-791.5 292,-769.5 93,-769.5"/>
<text text-anchor="start" x="103.25" y="-775.2" font-family="Times New Roman,Times,Liberation Serif,serif" font-size="14.00">Optional[DistributionSubstation]</text>
<polygon fill="none" stroke="black" points="0,-747.5 0,-769.5 93,-769.5 93,-747.5 0,-747.5"/>
<text text-anchor="start" x="29.62" y="-753.2" font-family="Times New Roman,Times,Liberation Serif,serif" font-size="14.00">feeder</text>
<polygon fill="none" stroke="black" points="93,-747.5 93,-769.5 292,-769.5 292,-747.5 93,-747.5"/>
<text text-anchor="start" x="113.38" y="-753.2" font-family="Times New Roman,Times,Liberation Serif,serif" font-size="14.00">Optional[DistributionFeeder]</text>
<polygon fill="none" stroke="black" points="0,-725.5 0,-747.5 93,-747.5 93,-725.5 0,-725.5"/>
<text text-anchor="start" x="18.75" y="-731.2" font-family="Times New Roman,Times,Liberation Serif,serif" font-size="14.00">in_service</text>
<polygon fill="none" stroke="black" points="93,-725.5 93,-747.5 292,-747.5 292,-725.5 93,-725.5"/>
<text text-anchor="start" x="180.5" y="-731.2" font-family="Times New Roman,Times,Liberation Serif,serif" font-size="14.00">bool</text>
<polygon fill="none" stroke="black" points="0,-703.5 0,-725.5 93,-725.5 93,-703.5 0,-703.5"/>
<text text-anchor="start" x="31.5" y="-709.2" font-family="Times New Roman,Times,Liberation Serif,serif" font-size="14.00">buses</text>
<polygon fill="none" stroke="black" points="93,-703.5 93,-725.5 292,-725.5 292,-703.5 93,-703.5"/>
<text text-anchor="start" x="136.62" y="-709.2" font-family="Times New Roman,Times,Liberation Serif,serif" font-size="14.00">list[DistributionBus]</text>
<polygon fill="none" stroke="black" points="0,-681.5 0,-703.5 93,-703.5 93,-681.5 0,-681.5"/>
<text text-anchor="start" x="3" y="-687.2" font-family="Times New Roman,Times,Liberation Serif,serif" font-size="14.00">winding_phases</text>
<polygon fill="none" stroke="black" points="93,-681.5 93,-703.5 292,-703.5 292,-681.5 93,-681.5"/>
<text text-anchor="start" x="151.25" y="-687.2" font-family="Times New Roman,Times,Liberation Serif,serif" font-size="14.00">list[list[Phase]]</text>
<polygon fill="none" stroke="black" points="0,-659.5 0,-681.5 93,-681.5 93,-659.5 0,-659.5"/>
<text text-anchor="start" x="17.62" y="-665.2" font-family="Times New Roman,Times,Liberation Serif,serif" font-size="14.00">equipment</text>
<polygon fill="none" stroke="black" points="93,-659.5 93,-681.5 292,-681.5 292,-659.5 93,-659.5"/>
<text text-anchor="start" x="95.75" y="-665.2" font-family="Times New Roman,Times,Liberation Serif,serif" font-size="14.00">DistributionTransformerEquipment</text>
</a>
</g>
</g>
<!-- gdm.distribution.components.distribution_bus.DistributionBus -->
<g id="node2" class="node">
<title>gdm.distribution.components.distribution_bus.DistributionBus</title>
<g id="a_node2"><a xlink:title="gdm.distribution.components.distribution_bus.DistributionBus&#10;&#10;Interface for distribution bus.&#10;&#10;Examples:&#10; &#160;&#160;&#160;&gt;&gt;&gt; from gdm import DistributionBus&#10; &#160;&#160;&#160;&gt;&gt;&gt; DistributionBus.example()&#10;">
<polygon fill="none" stroke="black" points="400,-692.5 400,-714.5 681,-714.5 681,-692.5 400,-692.5"/>
<text text-anchor="start" x="494.38" y="-699.2" font-family="Times New Roman,Times,Liberation Serif,serif" font-weight="bold" font-size="14.00">DistributionBus</text>
<polygon fill="none" stroke="black" points="400,-670.5 400,-692.5 497,-692.5 497,-670.5 400,-670.5"/>
<text text-anchor="start" x="436.5" y="-676.2" font-family="Times New Roman,Times,Liberation Serif,serif" font-size="14.00">uuid</text>
<polygon fill="none" stroke="black" points="497,-670.5 497,-692.5 681,-692.5 681,-670.5 497,-670.5"/>
<text text-anchor="start" x="572.12" y="-676.2" font-family="Times New Roman,Times,Liberation Serif,serif" font-size="14.00">UUID</text>
<polygon fill="none" stroke="black" points="400,-648.5 400,-670.5 497,-670.5 497,-648.5 400,-648.5"/>
<text text-anchor="start" x="433.5" y="-654.2" font-family="Times New Roman,Times,Liberation Serif,serif" font-size="14.00">name</text>
<polygon fill="none" stroke="black" points="497,-648.5 497,-670.5 681,-670.5 681,-648.5 497,-648.5"/>
<text text-anchor="start" x="582.25" y="-654.2" font-family="Times New Roman,Times,Liberation Serif,serif" font-size="14.00">str</text>
<polygon fill="none" stroke="black" points="400,-626.5 400,-648.5 497,-648.5 497,-626.5 400,-626.5"/>
<text text-anchor="start" x="421.12" y="-632.2" font-family="Times New Roman,Times,Liberation Serif,serif" font-size="14.00">substation</text>
<polygon fill="none" stroke="black" points="497,-626.5 497,-648.5 681,-648.5 681,-626.5 497,-626.5"/>
<text text-anchor="start" x="499.75" y="-632.2" font-family="Times New Roman,Times,Liberation Serif,serif" font-size="14.00">Optional[DistributionSubstation]</text>
<polygon fill="none" stroke="black" points="400,-604.5 400,-626.5 497,-626.5 497,-604.5 400,-604.5"/>
<text text-anchor="start" x="431.62" y="-610.2" font-family="Times New Roman,Times,Liberation Serif,serif" font-size="14.00">feeder</text>
<polygon fill="none" stroke="black" points="497,-604.5 497,-626.5 681,-626.5 681,-604.5 497,-604.5"/>
<text text-anchor="start" x="509.88" y="-610.2" font-family="Times New Roman,Times,Liberation Serif,serif" font-size="14.00">Optional[DistributionFeeder]</text>
<polygon fill="none" stroke="black" points="400,-582.5 400,-604.5 497,-604.5 497,-582.5 400,-582.5"/>
<text text-anchor="start" x="413.62" y="-588.2" font-family="Times New Roman,Times,Liberation Serif,serif" font-size="14.00">voltage_type</text>
<polygon fill="none" stroke="black" points="497,-582.5 497,-604.5 681,-604.5 681,-582.5 497,-582.5"/>
<text text-anchor="start" x="552.25" y="-588.2" font-family="Times New Roman,Times,Liberation Serif,serif" font-size="14.00">VoltageTypes</text>
<polygon fill="none" stroke="black" points="400,-560.5 400,-582.5 497,-582.5 497,-560.5 400,-560.5"/>
<text text-anchor="start" x="430.5" y="-566.2" font-family="Times New Roman,Times,Liberation Serif,serif" font-size="14.00">phases</text>
<polygon fill="none" stroke="black" points="497,-560.5 497,-582.5 681,-582.5 681,-560.5 497,-560.5"/>
<text text-anchor="start" x="560.5" y="-566.2" font-family="Times New Roman,Times,Liberation Serif,serif" font-size="14.00">list[Phase]</text>
<polygon fill="none" stroke="black" points="400,-538.5 400,-560.5 497,-560.5 497,-538.5 400,-538.5"/>
<text text-anchor="start" x="412.88" y="-544.2" font-family="Times New Roman,Times,Liberation Serif,serif" font-size="14.00">voltagelimits</text>
<polygon fill="none" stroke="black" points="497,-538.5 497,-560.5 681,-560.5 681,-538.5 497,-538.5"/>
<text text-anchor="start" x="531.62" y="-544.2" font-family="Times New Roman,Times,Liberation Serif,serif" font-size="14.00">list[VoltageLimitSet]</text>
<polygon fill="none" stroke="black" points="400,-516.5 400,-538.5 497,-538.5 497,-516.5 400,-516.5"/>
<text text-anchor="start" x="402.75" y="-522.2" font-family="Times New Roman,Times,Liberation Serif,serif" font-size="14.00">rated_voltage</text>
<polygon fill="none" stroke="black" points="497,-516.5 497,-538.5 681,-538.5 681,-516.5 497,-516.5"/>
<text text-anchor="start" x="546.62" y="-522.2" font-family="Times New Roman,Times,Liberation Serif,serif" font-size="14.00">PositiveVoltage</text>
<polygon fill="none" stroke="black" points="400,-494.5 400,-516.5 497,-516.5 497,-494.5 400,-494.5"/>
<text text-anchor="start" x="420" y="-500.2" font-family="Times New Roman,Times,Liberation Serif,serif" font-size="14.00">coordinate</text>
<polygon fill="none" stroke="black" points="497,-494.5 497,-516.5 681,-516.5 681,-494.5 497,-494.5"/>
<text text-anchor="start" x="536.88" y="-500.2" font-family="Times New Roman,Times,Liberation Serif,serif" font-size="14.00">Optional[Location]</text>
</a>
</g>
</g>
<!-- gdm.distribution.components.base.distribution_transformer_base.DistributionTransformerBase&#45;&gt;gdm.distribution.components.distribution_bus.DistributionBus -->
<g id="edge1" class="edge">
<title>gdm.distribution.components.base.distribution_transformer_base.DistributionTransformerBase:e&#45;&gt;gdm.distribution.components.distribution_bus.DistributionBus:w</title>
<path fill="none" stroke="black" d="M301.91,-714.34C336.76,-713.15 351.27,-705.87 383.7,-703.96"/>
<polyline fill="none" stroke="black" points="292,-714.5 297,-714.42"/>
<polyline fill="none" stroke="black" points="297,-714.42 302,-714.33"/>
<polygon fill="black" stroke="black" points="389.67,-703.79 399.79,-708.01 395,-703.64 399.33,-703.52 399.33,-703.52 399.33,-703.52 395,-703.64 399.54,-699.01 389.67,-703.79"/>
<polyline fill="none" stroke="black" points="388.45,-703.83 383.45,-703.97"/>
</g>
<!-- gdm.distribution.components.distribution_feeder.DistributionFeeder -->
<g id="node3" class="node">
<title>gdm.distribution.components.distribution_feeder.DistributionFeeder</title>
<g id="a_node3"><a xlink:title="gdm.distribution.components.distribution_feeder.DistributionFeeder&#10;&#10;Class interface for distribution feeder.&#10;">
<polygon fill="none" stroke="black" points="1128,-758.5 1128,-780.5 1244,-780.5 1244,-758.5 1128,-758.5"/>
<text text-anchor="start" x="1130.88" y="-765.2" font-family="Times New Roman,Times,Liberation Serif,serif" font-weight="bold" font-size="14.00">DistributionFeeder</text>
<polygon fill="none" stroke="black" points="1128,-736.5 1128,-758.5 1184,-758.5 1184,-736.5 1128,-736.5"/>
<text text-anchor="start" x="1144" y="-742.2" font-family="Times New Roman,Times,Liberation Serif,serif" font-size="14.00">uuid</text>
<polygon fill="none" stroke="black" points="1184,-736.5 1184,-758.5 1244,-758.5 1244,-736.5 1184,-736.5"/>
<text text-anchor="start" x="1197.12" y="-742.2" font-family="Times New Roman,Times,Liberation Serif,serif" font-size="14.00">UUID</text>
<polygon fill="none" stroke="black" points="1128,-714.5 1128,-736.5 1184,-736.5 1184,-714.5 1128,-714.5"/>
<text text-anchor="start" x="1141" y="-720.2" font-family="Times New Roman,Times,Liberation Serif,serif" font-size="14.00">name</text>
<polygon fill="none" stroke="black" points="1184,-714.5 1184,-736.5 1244,-736.5 1244,-714.5 1184,-714.5"/>
<text text-anchor="start" x="1207.25" y="-720.2" font-family="Times New Roman,Times,Liberation Serif,serif" font-size="14.00">str</text>
</a>
</g>
</g>
<!-- gdm.distribution.components.base.distribution_transformer_base.DistributionTransformerBase&#45;&gt;gdm.distribution.components.distribution_feeder.DistributionFeeder -->
<g id="edge2" class="edge">
<title>gdm.distribution.components.base.distribution_transformer_base.DistributionTransformerBase:e&#45;&gt;gdm.distribution.components.distribution_feeder.DistributionFeeder:w</title>
<path fill="none" stroke="black" d="M301.73,-758.5C658.94,-758.69 756.32,-769.13 1109.09,-769.49"/>
<polyline fill="none" stroke="black" points="292,-758.5 297,-758.5"/>
<polyline fill="none" stroke="black" points="297,-758.5 302,-758.5"/>
<polyline fill="none" stroke="black" points="1128,-769.5 1123,-769.5"/>
<polygon fill="black" stroke="black" points="1122,-764.5 1122,-774.5 1120,-774.5 1120,-764.5 1122,-764.5"/>
<polyline fill="none" stroke="black" points="1123,-769.5 1118,-769.49"/>
<ellipse fill="none" stroke="black" cx="1113.5" cy="-769.49" rx="4" ry="4"/>
</g>
<!-- gdm.distribution.components.distribution_substation.DistributionSubstation -->
<g id="node4" class="node">
<title>gdm.distribution.components.distribution_substation.DistributionSubstation</title>
<g id="a_node4"><a xlink:title="gdm.distribution.components.distribution_substation.DistributionSubstation&#10;&#10;Class interface for distribution feeder.&#10;">
<polygon fill="none" stroke="black" points="815.5,-890.5 815.5,-912.5 993.5,-912.5 993.5,-890.5 815.5,-890.5"/>
<text text-anchor="start" x="838.5" y="-897.2" font-family="Times New Roman,Times,Liberation Serif,serif" font-weight="bold" font-size="14.00">DistributionSubstation</text>
<polygon fill="none" stroke="black" points="815.5,-868.5 815.5,-890.5 860.5,-890.5 860.5,-868.5 815.5,-868.5"/>
<text text-anchor="start" x="826" y="-874.2" font-family="Times New Roman,Times,Liberation Serif,serif" font-size="14.00">uuid</text>
<polygon fill="none" stroke="black" points="860.5,-868.5 860.5,-890.5 993.5,-890.5 993.5,-868.5 860.5,-868.5"/>
<text text-anchor="start" x="910.12" y="-874.2" font-family="Times New Roman,Times,Liberation Serif,serif" font-size="14.00">UUID</text>
<polygon fill="none" stroke="black" points="815.5,-846.5 815.5,-868.5 860.5,-868.5 860.5,-846.5 815.5,-846.5"/>
<text text-anchor="start" x="823" y="-852.2" font-family="Times New Roman,Times,Liberation Serif,serif" font-size="14.00">name</text>
<polygon fill="none" stroke="black" points="860.5,-846.5 860.5,-868.5 993.5,-868.5 993.5,-846.5 860.5,-846.5"/>
<text text-anchor="start" x="920.25" y="-852.2" font-family="Times New Roman,Times,Liberation Serif,serif" font-size="14.00">str</text>
<polygon fill="none" stroke="black" points="815.5,-824.5 815.5,-846.5 860.5,-846.5 860.5,-824.5 815.5,-824.5"/>
<text text-anchor="start" x="818.5" y="-830.2" font-family="Times New Roman,Times,Liberation Serif,serif" font-size="14.00">feeders</text>
<polygon fill="none" stroke="black" points="860.5,-824.5 860.5,-846.5 993.5,-846.5 993.5,-824.5 860.5,-824.5"/>
<text text-anchor="start" x="863.25" y="-830.2" font-family="Times New Roman,Times,Liberation Serif,serif" font-size="14.00">list[DistributionFeeder]</text>
</a>
</g>
</g>
<!-- gdm.distribution.components.base.distribution_transformer_base.DistributionTransformerBase&#45;&gt;gdm.distribution.components.distribution_substation.DistributionSubstation -->
<g id="edge3" class="edge">
<title>gdm.distribution.components.base.distribution_transformer_base.DistributionTransformerBase:e&#45;&gt;gdm.distribution.components.distribution_substation.DistributionSubstation:w</title>
<path fill="none" stroke="black" d="M301.77,-780.75C419.74,-786.49 671.17,-890.13 795.65,-900.64"/>
<polyline fill="none" stroke="black" points="292,-780.5 297,-780.63"/>
<polyline fill="none" stroke="black" points="297,-780.63 302,-780.75"/>
<polyline fill="none" stroke="black" points="814.5,-901.5 809.51,-901.27"/>
<polygon fill="black" stroke="black" points="808.73,-896.23 808.28,-906.22 806.28,-906.13 806.74,-896.14 808.73,-896.23"/>
<polyline fill="none" stroke="black" points="809.51,-901.27 804.51,-901.05"/>
<ellipse fill="none" stroke="black" cx="800.02" cy="-900.84" rx="4" ry="4"/>
</g>
<!-- gdm.distribution.equipment.distribution_transformer_equipment.DistributionTransformerEquipment -->
<g id="node5" class="node">
<title>gdm.distribution.equipment.distribution_transformer_equipment.DistributionTransformerEquipment</title>
<g id="a_node5"><a xlink:title="gdm.distribution.equipment.distribution_transformer_equipment.DistributionTransformerEquipment&#10;&#10;Interface for distribution transformer info.&#10;">
<polygon fill="none" stroke="black" points="414.5,-425.5 414.5,-447.5 666.5,-447.5 666.5,-425.5 414.5,-425.5"/>
<text text-anchor="start" x="435.12" y="-432.2" font-family="Times New Roman,Times,Liberation Serif,serif" font-weight="bold" font-size="14.00">DistributionTransformerEquipment</text>
<polygon fill="none" stroke="black" points="414.5,-403.5 414.5,-425.5 528.5,-425.5 528.5,-403.5 414.5,-403.5"/>
<text text-anchor="start" x="459.5" y="-409.2" font-family="Times New Roman,Times,Liberation Serif,serif" font-size="14.00">uuid</text>
<polygon fill="none" stroke="black" points="528.5,-403.5 528.5,-425.5 666.5,-425.5 666.5,-403.5 528.5,-403.5"/>
<text text-anchor="start" x="580.62" y="-409.2" font-family="Times New Roman,Times,Liberation Serif,serif" font-size="14.00">UUID</text>
<polygon fill="none" stroke="black" points="414.5,-381.5 414.5,-403.5 528.5,-403.5 528.5,-381.5 414.5,-381.5"/>
<text text-anchor="start" x="456.5" y="-387.2" font-family="Times New Roman,Times,Liberation Serif,serif" font-size="14.00">name</text>
<polygon fill="none" stroke="black" points="528.5,-381.5 528.5,-403.5 666.5,-403.5 666.5,-381.5 528.5,-381.5"/>
<text text-anchor="start" x="590.75" y="-387.2" font-family="Times New Roman,Times,Liberation Serif,serif" font-size="14.00">str</text>
<polygon fill="none" stroke="black" points="414.5,-359.5 414.5,-381.5 528.5,-381.5 528.5,-359.5 414.5,-359.5"/>
<text text-anchor="start" x="424.25" y="-365.2" font-family="Times New Roman,Times,Liberation Serif,serif" font-size="14.00">pct_no_load_loss</text>
<polygon fill="none" stroke="black" points="528.5,-359.5 528.5,-381.5 666.5,-381.5 666.5,-359.5 528.5,-359.5"/>
<text text-anchor="start" x="585.12" y="-365.2" font-family="Times New Roman,Times,Liberation Serif,serif" font-size="14.00">float</text>
<polygon fill="none" stroke="black" points="414.5,-337.5 414.5,-359.5 528.5,-359.5 528.5,-337.5 414.5,-337.5"/>
<text text-anchor="start" x="421.62" y="-343.2" font-family="Times New Roman,Times,Liberation Serif,serif" font-size="14.00">pct_full_load_loss</text>
<polygon fill="none" stroke="black" points="528.5,-337.5 528.5,-359.5 666.5,-359.5 666.5,-337.5 528.5,-337.5"/>
<text text-anchor="start" x="585.12" y="-343.2" font-family="Times New Roman,Times,Liberation Serif,serif" font-size="14.00">float</text>
<polygon fill="none" stroke="black" points="414.5,-315.5 414.5,-337.5 528.5,-337.5 528.5,-315.5 414.5,-315.5"/>
<text text-anchor="start" x="446.75" y="-321.2" font-family="Times New Roman,Times,Liberation Serif,serif" font-size="14.00">windings</text>
<polygon fill="none" stroke="black" points="528.5,-315.5 528.5,-337.5 666.5,-337.5 666.5,-315.5 528.5,-315.5"/>
<text text-anchor="start" x="531.12" y="-321.2" font-family="Times New Roman,Times,Liberation Serif,serif" font-size="14.00">list[WindingEquipment]</text>
<polygon fill="none" stroke="black" points="414.5,-293.5 414.5,-315.5 528.5,-315.5 528.5,-293.5 414.5,-293.5"/>
<text text-anchor="start" x="417.12" y="-299.2" font-family="Times New Roman,Times,Liberation Serif,serif" font-size="14.00">coupling_sequences</text>
<polygon fill="none" stroke="black" points="528.5,-293.5 528.5,-315.5 666.5,-315.5 666.5,-293.5 528.5,-293.5"/>
<text text-anchor="start" x="548" y="-299.2" font-family="Times New Roman,Times,Liberation Serif,serif" font-size="14.00">list[SequencePair]</text>
<polygon fill="none" stroke="black" points="414.5,-271.5 414.5,-293.5 528.5,-293.5 528.5,-271.5 414.5,-271.5"/>
<text text-anchor="start" x="417.88" y="-277.2" font-family="Times New Roman,Times,Liberation Serif,serif" font-size="14.00">winding_reactances</text>
<polygon fill="none" stroke="black" points="528.5,-271.5 528.5,-293.5 666.5,-293.5 666.5,-271.5 528.5,-271.5"/>
<text text-anchor="start" x="572.38" y="-277.2" font-family="Times New Roman,Times,Liberation Serif,serif" font-size="14.00">list[float]</text>
<polygon fill="none" stroke="black" points="414.5,-249.5 414.5,-271.5 528.5,-271.5 528.5,-249.5 414.5,-249.5"/>
<text text-anchor="start" x="425.75" y="-255.2" font-family="Times New Roman,Times,Liberation Serif,serif" font-size="14.00">is_center_tapped</text>
<polygon fill="none" stroke="black" points="528.5,-249.5 528.5,-271.5 666.5,-271.5 666.5,-249.5 528.5,-249.5"/>
<text text-anchor="start" x="585.5" y="-255.2" font-family="Times New Roman,Times,Liberation Serif,serif" font-size="14.00">bool</text>
</a>
</g>
</g>
<!-- gdm.distribution.components.base.distribution_transformer_base.DistributionTransformerBase&#45;&gt;gdm.distribution.equipment.distribution_transformer_equipment.DistributionTransformerEquipment -->
<g id="edge4" class="edge">
<title>gdm.distribution.components.base.distribution_transformer_base.DistributionTransformerBase:e&#45;&gt;gdm.distribution.equipment.distribution_transformer_equipment.DistributionTransformerEquipment:w</title>
<path fill="none" stroke="black" d="M301.72,-669.91C397.93,-657.61 309.14,-457.13 398.61,-437.97"/>
<polyline fill="none" stroke="black" points="292,-670.5 296.99,-670.2"/>
<polyline fill="none" stroke="black" points="296.99,-670.2 301.98,-669.89"/>
<polyline fill="none" stroke="black" points="413.5,-436.5 408.52,-436.99"/>
<polygon fill="black" stroke="black" points="407.04,-432.11 408.02,-442.06 406.03,-442.26 405.05,-432.31 407.04,-432.11"/>
<polyline fill="none" stroke="black" points="408.52,-436.99 403.55,-437.48"/>
<polygon fill="black" stroke="black" points="402.06,-432.6 403.04,-442.56 401.05,-442.75 400.07,-432.8 402.06,-432.6"/>
<polyline fill="none" stroke="black" points="403.55,-437.48 398.57,-437.97"/>
</g>
<!-- gdm.distribution.components.distribution_bus.DistributionBus&#45;&gt;gdm.distribution.components.distribution_feeder.DistributionFeeder -->
<g id="edge5" class="edge">
<title>gdm.distribution.components.distribution_bus.DistributionBus:e&#45;&gt;gdm.distribution.components.distribution_feeder.DistributionFeeder:w</title>
<path fill="none" stroke="black" d="M690.74,-615.83C733.88,-618.84 743.65,-642.07 789,-658.5 822.48,-670.63 1037.45,-750.56 1109.51,-766.67"/>
<polyline fill="none" stroke="black" points="681,-615.5 686,-615.67"/>
<polyline fill="none" stroke="black" points="686,-615.67 690.99,-615.84"/>
<polyline fill="none" stroke="black" points="1128,-769.5 1123.06,-768.74"/>
<polygon fill="black" stroke="black" points="1122.82,-763.65 1121.31,-773.54 1119.34,-773.23 1120.85,-763.35 1122.82,-763.65"/>
<polyline fill="none" stroke="black" points="1123.06,-768.74 1118.11,-767.99"/>
<ellipse fill="none" stroke="black" cx="1113.67" cy="-767.31" rx="4" ry="4"/>
</g>
<!-- gdm.distribution.components.distribution_bus.DistributionBus&#45;&gt;gdm.distribution.components.distribution_substation.DistributionSubstation -->
<g id="edge6" class="edge">
<title>gdm.distribution.components.distribution_bus.DistributionBus:e&#45;&gt;gdm.distribution.components.distribution_substation.DistributionSubstation:w</title>
<path fill="none" stroke="black" d="M690.87,-638.04C799.55,-650.52 698.84,-874.84 795.64,-899.33"/>
<polyline fill="none" stroke="black" points="681,-637.5 685.99,-637.77"/>
<polyline fill="none" stroke="black" points="685.99,-637.77 690.99,-638.05"/>
<polyline fill="none" stroke="black" points="814.5,-901.5 809.53,-900.93"/>
<polygon fill="black" stroke="black" points="809.11,-895.85 807.97,-905.78 805.98,-905.55 807.12,-895.62 809.11,-895.85"/>
<polyline fill="none" stroke="black" points="809.53,-900.93 804.57,-900.36"/>
<ellipse fill="none" stroke="black" cx="800.09" cy="-899.85" rx="4" ry="4"/>
</g>
<!-- gdm.distribution.limitset.VoltageLimitSet -->
<g id="node6" class="node">
<title>gdm.distribution.limitset.VoltageLimitSet</title>
<g id="a_node6"><a xlink:title="gdm.distribution.limitset.VoltageLimitSet&#10;&#10;Interface for voltage limit set.&#10;">
<polygon fill="none" stroke="black" points="828.5,-618.5 828.5,-640.5 980.5,-640.5 980.5,-618.5 828.5,-618.5"/>
<text text-anchor="start" x="857.25" y="-625.2" font-family="Times New Roman,Times,Liberation Serif,serif" font-weight="bold" font-size="14.00">VoltageLimitSet</text>
<polygon fill="none" stroke="black" points="828.5,-596.5 828.5,-618.5 890.5,-618.5 890.5,-596.5 828.5,-596.5"/>
<text text-anchor="start" x="847.5" y="-602.2" font-family="Times New Roman,Times,Liberation Serif,serif" font-size="14.00">uuid</text>
<polygon fill="none" stroke="black" points="890.5,-596.5 890.5,-618.5 980.5,-618.5 980.5,-596.5 890.5,-596.5"/>
<text text-anchor="start" x="918.62" y="-602.2" font-family="Times New Roman,Times,Liberation Serif,serif" font-size="14.00">UUID</text>
<polygon fill="none" stroke="black" points="828.5,-574.5 828.5,-596.5 890.5,-596.5 890.5,-574.5 828.5,-574.5"/>
<text text-anchor="start" x="844.5" y="-580.2" font-family="Times New Roman,Times,Liberation Serif,serif" font-size="14.00">name</text>
<polygon fill="none" stroke="black" points="890.5,-574.5 890.5,-596.5 980.5,-596.5 980.5,-574.5 890.5,-574.5"/>
<text text-anchor="start" x="928.75" y="-580.2" font-family="Times New Roman,Times,Liberation Serif,serif" font-size="14.00">str</text>
<polygon fill="none" stroke="black" points="828.5,-552.5 828.5,-574.5 890.5,-574.5 890.5,-552.5 828.5,-552.5"/>
<text text-anchor="start" x="831.38" y="-558.2" font-family="Times New Roman,Times,Liberation Serif,serif" font-size="14.00">limit_type</text>
<polygon fill="none" stroke="black" points="890.5,-552.5 890.5,-574.5 980.5,-574.5 980.5,-552.5 890.5,-552.5"/>
<text text-anchor="start" x="906.62" y="-558.2" font-family="Times New Roman,Times,Liberation Serif,serif" font-size="14.00">LimitType</text>
<polygon fill="none" stroke="black" points="828.5,-530.5 828.5,-552.5 890.5,-552.5 890.5,-530.5 828.5,-530.5"/>
<text text-anchor="start" x="844.88" y="-536.2" font-family="Times New Roman,Times,Liberation Serif,serif" font-size="14.00">value</text>
<polygon fill="none" stroke="black" points="890.5,-530.5 890.5,-552.5 980.5,-552.5 980.5,-530.5 890.5,-530.5"/>
<text text-anchor="start" x="893.12" y="-536.2" font-family="Times New Roman,Times,Liberation Serif,serif" font-size="14.00">PositiveVoltage</text>
</a>
</g>
</g>
<!-- gdm.distribution.components.distribution_bus.DistributionBus&#45;&gt;gdm.distribution.limitset.VoltageLimitSet -->
<g id="edge7" class="edge">
<title>gdm.distribution.components.distribution_bus.DistributionBus:e&#45;&gt;gdm.distribution.limitset.VoltageLimitSet:w</title>
<path fill="none" stroke="black" d="M690.95,-550.01C749.91,-556.27 756.1,-618.02 811.42,-628.11"/>
<polyline fill="none" stroke="black" points="681,-549.5 685.99,-549.76"/>
<polyline fill="none" stroke="black" points="685.99,-549.76 690.99,-550.01"/>
<polygon fill="black" stroke="black" points="817.2,-628.61 826.78,-633.95 822.52,-629.07 826.83,-629.44 826.83,-629.44 826.83,-629.44 822.52,-629.07 827.55,-624.99 817.2,-628.61"/>
<polyline fill="none" stroke="black" points="815.99,-628.5 811.01,-628.07"/>
</g>
<!-- infrasys.location.Location -->
<g id="node7" class="node">
<title>infrasys.location.Location</title>
<g id="a_node7"><a xlink:title="infrasys.location.Location&#10;&#10;Specifies geographic location.&#10;">
<polygon fill="none" stroke="black" points="857,-472.5 857,-494.5 952,-494.5 952,-472.5 857,-472.5"/>
<text text-anchor="start" x="879" y="-479.2" font-family="Times New Roman,Times,Liberation Serif,serif" font-weight="bold" font-size="14.00">Location</text>
<polygon fill="none" stroke="black" points="857,-450.5 857,-472.5 893,-472.5 893,-450.5 857,-450.5"/>
<text text-anchor="start" x="863" y="-456.2" font-family="Times New Roman,Times,Liberation Serif,serif" font-size="14.00">uuid</text>
<polygon fill="none" stroke="black" points="893,-450.5 893,-472.5 952,-472.5 952,-450.5 893,-450.5"/>
<text text-anchor="start" x="905.62" y="-456.2" font-family="Times New Roman,Times,Liberation Serif,serif" font-size="14.00">UUID</text>
<polygon fill="none" stroke="black" points="857,-428.5 857,-450.5 893,-450.5 893,-428.5 857,-428.5"/>
<text text-anchor="start" x="860" y="-434.2" font-family="Times New Roman,Times,Liberation Serif,serif" font-size="14.00">name</text>
<polygon fill="none" stroke="black" points="893,-428.5 893,-450.5 952,-450.5 952,-428.5 893,-428.5"/>
<text text-anchor="start" x="915.75" y="-434.2" font-family="Times New Roman,Times,Liberation Serif,serif" font-size="14.00">str</text>
<polygon fill="none" stroke="black" points="857,-406.5 857,-428.5 893,-428.5 893,-406.5 857,-406.5"/>
<text text-anchor="start" x="871.62" y="-412.2" font-family="Times New Roman,Times,Liberation Serif,serif" font-size="14.00">x</text>
<polygon fill="none" stroke="black" points="893,-406.5 893,-428.5 952,-428.5 952,-406.5 893,-406.5"/>
<text text-anchor="start" x="910.12" y="-412.2" font-family="Times New Roman,Times,Liberation Serif,serif" font-size="14.00">float</text>
<polygon fill="none" stroke="black" points="857,-384.5 857,-406.5 893,-406.5 893,-384.5 857,-384.5"/>
<text text-anchor="start" x="871.62" y="-390.2" font-family="Times New Roman,Times,Liberation Serif,serif" font-size="14.00">y</text>
<polygon fill="none" stroke="black" points="893,-384.5 893,-406.5 952,-406.5 952,-384.5 893,-384.5"/>
<text text-anchor="start" x="910.12" y="-390.2" font-family="Times New Roman,Times,Liberation Serif,serif" font-size="14.00">float</text>
<polygon fill="none" stroke="black" points="857,-362.5 857,-384.5 893,-384.5 893,-362.5 857,-362.5"/>
<text text-anchor="start" x="867.12" y="-368.2" font-family="Times New Roman,Times,Liberation Serif,serif" font-size="14.00">crs</text>
<polygon fill="none" stroke="black" points="893,-362.5 893,-384.5 952,-384.5 952,-362.5 893,-362.5"/>
<text text-anchor="start" x="895.88" y="-368.2" font-family="Times New Roman,Times,Liberation Serif,serif" font-size="14.00">str | None</text>
</a>
</g>
</g>
<!-- gdm.distribution.components.distribution_bus.DistributionBus&#45;&gt;infrasys.location.Location -->
<g id="edge8" class="edge">
<title>gdm.distribution.components.distribution_bus.DistributionBus:e&#45;&gt;infrasys.location.Location:w</title>
<path fill="none" stroke="black" d="M690.75,-505.38C754.54,-503.81 776.72,-486.97 836.59,-483.96"/>
<polyline fill="none" stroke="black" points="681,-505.5 686,-505.44"/>
<polyline fill="none" stroke="black" points="686,-505.44 691,-505.38"/>
<polyline fill="none" stroke="black" points="855.5,-483.5 850.5,-483.62"/>
<polygon fill="black" stroke="black" points="849.38,-478.65 849.62,-488.64 847.62,-488.69 847.38,-478.7 849.38,-478.65"/>
<polyline fill="none" stroke="black" points="850.5,-483.62 845.5,-483.74"/>
<ellipse fill="none" stroke="black" cx="841" cy="-483.85" rx="4" ry="4"/>
</g>
<!-- gdm.distribution.components.distribution_substation.DistributionSubstation&#45;&gt;gdm.distribution.components.distribution_feeder.DistributionFeeder -->
<g id="edge9" class="edge">
<title>gdm.distribution.components.distribution_substation.DistributionSubstation:e&#45;&gt;gdm.distribution.components.distribution_feeder.DistributionFeeder:w</title>
<path fill="none" stroke="black" d="M1004.45,-834.97C1055.91,-829.28 1064.11,-779.71 1112.43,-770.85"/>
<polyline fill="none" stroke="black" points="994.5,-835.5 999.49,-835.23"/>
<polyline fill="none" stroke="black" points="999.49,-835.23 1004.49,-834.97"/>
<polygon fill="black" stroke="black" points="1117.7,-770.39 1128.06,-774.01 1123.02,-769.93 1127.33,-769.56 1127.33,-769.56 1127.33,-769.56 1123.02,-769.93 1127.28,-765.05 1117.7,-770.39"/>
<polyline fill="none" stroke="black" points="1116.49,-770.5 1111.51,-770.93"/>
</g>
<!-- gdm.distribution.equipment.distribution_transformer_equipment.WindingEquipment -->
<g id="node8" class="node">
<title>gdm.distribution.equipment.distribution_transformer_equipment.WindingEquipment</title>
<g id="a_node8"><a xlink:title="gdm.distribution.equipment.distribution_transformer_equipment.WindingEquipment&#10;&#10;Interface for winding.&#10;">
<polygon fill="none" stroke="black" points="789,-304.5 789,-326.5 1020,-326.5 1020,-304.5 789,-304.5"/>
<text text-anchor="start" x="846.75" y="-311.2" font-family="Times New Roman,Times,Liberation Serif,serif" font-weight="bold" font-size="14.00">WindingEquipment</text>
<polygon fill="none" stroke="black" points="789,-282.5 789,-304.5 886,-304.5 886,-282.5 789,-282.5"/>
<text text-anchor="start" x="825.5" y="-288.2" font-family="Times New Roman,Times,Liberation Serif,serif" font-size="14.00">uuid</text>
<polygon fill="none" stroke="black" points="886,-282.5 886,-304.5 1020,-304.5 1020,-282.5 886,-282.5"/>
<text text-anchor="start" x="936.12" y="-288.2" font-family="Times New Roman,Times,Liberation Serif,serif" font-size="14.00">UUID</text>
<polygon fill="none" stroke="black" points="789,-260.5 789,-282.5 886,-282.5 886,-260.5 789,-260.5"/>
<text text-anchor="start" x="822.5" y="-266.2" font-family="Times New Roman,Times,Liberation Serif,serif" font-size="14.00">name</text>
<polygon fill="none" stroke="black" points="886,-260.5 886,-282.5 1020,-282.5 1020,-260.5 886,-260.5"/>
<text text-anchor="start" x="946.25" y="-266.2" font-family="Times New Roman,Times,Liberation Serif,serif" font-size="14.00">str</text>
<polygon fill="none" stroke="black" points="789,-238.5 789,-260.5 886,-260.5 886,-238.5 789,-238.5"/>
<text text-anchor="start" x="810.88" y="-244.2" font-family="Times New Roman,Times,Liberation Serif,serif" font-size="14.00">resistance</text>
<polygon fill="none" stroke="black" points="886,-238.5 886,-260.5 1020,-260.5 1020,-238.5 886,-238.5"/>
<text text-anchor="start" x="940.62" y="-244.2" font-family="Times New Roman,Times,Liberation Serif,serif" font-size="14.00">float</text>
<polygon fill="none" stroke="black" points="789,-216.5 789,-238.5 886,-238.5 886,-216.5 789,-216.5"/>
<text text-anchor="start" x="804.12" y="-222.2" font-family="Times New Roman,Times,Liberation Serif,serif" font-size="14.00">is_grounded</text>
<polygon fill="none" stroke="black" points="886,-216.5 886,-238.5 1020,-238.5 1020,-216.5 886,-216.5"/>
<text text-anchor="start" x="941" y="-222.2" font-family="Times New Roman,Times,Liberation Serif,serif" font-size="14.00">bool</text>
<polygon fill="none" stroke="black" points="789,-194.5 789,-216.5 886,-216.5 886,-194.5 789,-194.5"/>
<text text-anchor="start" x="791.75" y="-200.2" font-family="Times New Roman,Times,Liberation Serif,serif" font-size="14.00">rated_voltage</text>
<polygon fill="none" stroke="black" points="886,-194.5 886,-216.5 1020,-216.5 1020,-194.5 886,-194.5"/>
<text text-anchor="start" x="910.62" y="-200.2" font-family="Times New Roman,Times,Liberation Serif,serif" font-size="14.00">PositiveVoltage</text>
<polygon fill="none" stroke="black" points="789,-172.5 789,-194.5 886,-194.5 886,-172.5 789,-172.5"/>
<text text-anchor="start" x="802.62" y="-178.2" font-family="Times New Roman,Times,Liberation Serif,serif" font-size="14.00">voltage_type</text>
<polygon fill="none" stroke="black" points="886,-172.5 886,-194.5 1020,-194.5 1020,-172.5 886,-172.5"/>
<text text-anchor="start" x="916.25" y="-178.2" font-family="Times New Roman,Times,Liberation Serif,serif" font-size="14.00">VoltageTypes</text>
<polygon fill="none" stroke="black" points="789,-150.5 789,-172.5 886,-172.5 886,-150.5 789,-150.5"/>
<text text-anchor="start" x="803.75" y="-156.2" font-family="Times New Roman,Times,Liberation Serif,serif" font-size="14.00">rated_power</text>
<polygon fill="none" stroke="black" points="886,-150.5 886,-172.5 1020,-172.5 1020,-150.5 886,-150.5"/>
<text text-anchor="start" x="888.88" y="-156.2" font-family="Times New Roman,Times,Liberation Serif,serif" font-size="14.00">PositiveApparentPower</text>
<polygon fill="none" stroke="black" points="789,-128.5 789,-150.5 886,-150.5 886,-128.5 789,-128.5"/>
<text text-anchor="start" x="803.75" y="-134.2" font-family="Times New Roman,Times,Liberation Serif,serif" font-size="14.00">num_phases</text>
<polygon fill="none" stroke="black" points="886,-128.5 886,-150.5 1020,-150.5 1020,-128.5 886,-128.5"/>
<text text-anchor="start" x="945.88" y="-134.2" font-family="Times New Roman,Times,Liberation Serif,serif" font-size="14.00">int</text>
<polygon fill="none" stroke="black" points="789,-106.5 789,-128.5 886,-128.5 886,-106.5 789,-106.5"/>
<text text-anchor="start" x="792.88" y="-112.2" font-family="Times New Roman,Times,Liberation Serif,serif" font-size="14.00">connection_type</text>
<polygon fill="none" stroke="black" points="886,-106.5 886,-128.5 1020,-128.5 1020,-106.5 886,-106.5"/>
<text text-anchor="start" x="908.38" y="-112.2" font-family="Times New Roman,Times,Liberation Serif,serif" font-size="14.00">ConnectionType</text>
<polygon fill="none" stroke="black" points="789,-84.5 789,-106.5 886,-106.5 886,-84.5 789,-84.5"/>
<text text-anchor="start" x="801.5" y="-90.2" font-family="Times New Roman,Times,Liberation Serif,serif" font-size="14.00">tap_positions</text>
<polygon fill="none" stroke="black" points="886,-84.5 886,-106.5 1020,-106.5 1020,-84.5 886,-84.5"/>
<text text-anchor="start" x="927.88" y="-90.2" font-family="Times New Roman,Times,Liberation Serif,serif" font-size="14.00">list[float]</text>
<polygon fill="none" stroke="black" points="789,-62.5 789,-84.5 886,-84.5 886,-62.5 789,-62.5"/>
<text text-anchor="start" x="811.25" y="-68.2" font-family="Times New Roman,Times,Liberation Serif,serif" font-size="14.00">total_taps</text>
<polygon fill="none" stroke="black" points="886,-62.5 886,-84.5 1020,-84.5 1020,-62.5 886,-62.5"/>
<text text-anchor="start" x="945.88" y="-68.2" font-family="Times New Roman,Times,Liberation Serif,serif" font-size="14.00">int</text>
<polygon fill="none" stroke="black" points="789,-40.5 789,-62.5 886,-62.5 886,-40.5 789,-40.5"/>
<text text-anchor="start" x="804.88" y="-46.2" font-family="Times New Roman,Times,Liberation Serif,serif" font-size="14.00">min_tap_pu</text>
<polygon fill="none" stroke="black" points="886,-40.5 886,-62.5 1020,-62.5 1020,-40.5 886,-40.5"/>
<text text-anchor="start" x="940.62" y="-46.2" font-family="Times New Roman,Times,Liberation Serif,serif" font-size="14.00">float</text>
<polygon fill="none" stroke="black" points="789,-18.5 789,-40.5 886,-40.5 886,-18.5 789,-18.5"/>
<text text-anchor="start" x="803.75" y="-24.2" font-family="Times New Roman,Times,Liberation Serif,serif" font-size="14.00">max_tap_pu</text>
<polygon fill="none" stroke="black" points="886,-18.5 886,-40.5 1020,-40.5 1020,-18.5 886,-18.5"/>
<text text-anchor="start" x="940.62" y="-24.2" font-family="Times New Roman,Times,Liberation Serif,serif" font-size="14.00">float</text>
</a>
</g>
</g>
<!-- gdm.distribution.equipment.distribution_transformer_equipment.DistributionTransformerEquipment&#45;&gt;gdm.distribution.equipment.distribution_transformer_equipment.WindingEquipment -->
<g id="edge10" class="edge">
<title>gdm.distribution.equipment.distribution_transformer_equipment.DistributionTransformerEquipment:e&#45;&gt;gdm.distribution.equipment.distribution_transformer_equipment.WindingEquipment:w</title>
<path fill="none" stroke="black" d="M677.49,-326.37C718.44,-325.27 734.61,-317.54 773.3,-315.83"/>
<polyline fill="none" stroke="black" points="667.5,-326.5 672.5,-326.43"/>
<polyline fill="none" stroke="black" points="672.5,-326.43 677.5,-326.37"/>
<polygon fill="black" stroke="black" points="778.67,-315.72 788.76,-320.01 784,-315.61 788.33,-315.51 788.33,-315.51 788.33,-315.51 784,-315.61 788.57,-311.01 778.67,-315.72"/>
<polyline fill="none" stroke="black" points="777.45,-315.75 772.45,-315.85"/>
</g>
</g>
</svg>
