<?xml version="1.0" encoding="UTF-8" standalone="no"?>
<!DOCTYPE svg PUBLIC "-//W3C//DTD SVG 1.1//EN"
 "http://www.w3.org/Graphics/SVG/1.1/DTD/svg11.dtd">
<!-- Generated by graphviz version 9.0.0 (0)
 -->
<!-- Title: Entity Relationship Diagram created by erdantic Pages: 1 -->
<svg width="762pt" height="203pt"
 viewBox="0.00 0.00 762.00 202.50" xmlns="http://www.w3.org/2000/svg" xmlns:xlink="http://www.w3.org/1999/xlink">
<g id="graph0" class="graph" transform="scale(1 1) rotate(0) translate(4 198.5)">
<title>Entity Relationship Diagram created by erdantic</title>
<polygon fill="white" stroke="none" points="-4,4 -4,-198.5 758,-198.5 758,4 -4,4"/>
<text text-anchor="middle" x="377" y="-5.95" font-family="Times New Roman,Times,Liberation Serif,serif" font-size="9.00" fill="#a8a8a8">Created by erdantic v0.6.0 &lt;https://github.com/drivendataorg/erdantic&gt;</text>
<!-- gdm.distribution.components.base.distribution_component_base.DistributionComponentBase -->
<g id="node1" class="node">
<title>gdm.distribution.components.base.distribution_component_base.DistributionComponentBase</title>
<g id="a_node1"><a xlink:title="gdm.distribution.components.base.distribution_component_base.DistributionComponentBase&#10;&#10;Interface for simple distribution component.&#10;">
<polygon fill="none" stroke="black" points="0,-172.5 0,-194.5 244,-194.5 244,-172.5 0,-172.5"/>
<text text-anchor="start" x="39.12" y="-179.2" font-family="Times New Roman,Times,Liberation Serif,serif" font-weight="bold" font-size="14.00">DistributionComponentBase</text>
<polygon fill="none" stroke="black" points="0,-150.5 0,-172.5 60,-172.5 60,-150.5 0,-150.5"/>
<text text-anchor="start" x="18" y="-156.2" font-family="Times New Roman,Times,Liberation Serif,serif" font-size="14.00">uuid</text>
<polygon fill="none" stroke="black" points="60,-150.5 60,-172.5 244,-172.5 244,-150.5 60,-150.5"/>
<text text-anchor="start" x="135.12" y="-156.2" font-family="Times New Roman,Times,Liberation Serif,serif" font-size="14.00">UUID</text>
<polygon fill="none" stroke="black" points="0,-128.5 0,-150.5 60,-150.5 60,-128.5 0,-128.5"/>
<text text-anchor="start" x="15" y="-134.2" font-family="Times New Roman,Times,Liberation Serif,serif" font-size="14.00">name</text>
<polygon fill="none" stroke="black" points="60,-128.5 60,-150.5 244,-150.5 244,-128.5 60,-128.5"/>
<text text-anchor="start" x="145.25" y="-134.2" font-family="Times New Roman,Times,Liberation Serif,serif" font-size="14.00">str</text>
<polygon fill="none" stroke="black" points="0,-106.5 0,-128.5 60,-128.5 60,-106.5 0,-106.5"/>
<text text-anchor="start" x="2.62" y="-112.2" font-family="Times New Roman,Times,Liberation Serif,serif" font-size="14.00">substation</text>
<polygon fill="none" stroke="black" points="60,-106.5 60,-128.5 244,-128.5 244,-106.5 60,-106.5"/>
<text text-anchor="start" x="62.75" y="-112.2" font-family="Times New Roman,Times,Liberation Serif,serif" font-size="14.00">Optional[DistributionSubstation]</text>
<polygon fill="none" stroke="black" points="0,-84.5 0,-106.5 60,-106.5 60,-84.5 0,-84.5"/>
<text text-anchor="start" x="13.12" y="-90.2" font-family="Times New Roman,Times,Liberation Serif,serif" font-size="14.00">feeder</text>
<polygon fill="none" stroke="black" points="60,-84.5 60,-106.5 244,-106.5 244,-84.5 60,-84.5"/>
<text text-anchor="start" x="72.88" y="-90.2" font-family="Times New Roman,Times,Liberation Serif,serif" font-size="14.00">Optional[DistributionFeeder]</text>
</a>
</g>
</g>
<!-- gdm.distribution.components.distribution_feeder.DistributionFeeder -->
<g id="node2" class="node">
<title>gdm.distribution.components.distribution_feeder.DistributionFeeder</title>
<g id="a_node2"><a xlink:title="gdm.distribution.components.distribution_feeder.DistributionFeeder&#10;&#10;Class interface for distribution feeder.&#10;">
<polygon fill="none" stroke="black" points="638,-62.5 638,-84.5 754,-84.5 754,-62.5 638,-62.5"/>
<text text-anchor="start" x="640.88" y="-69.2" font-family="Times New Roman,Times,Liberation Serif,serif" font-weight="bold" font-size="14.00">DistributionFeeder</text>
<polygon fill="none" stroke="black" points="638,-40.5 638,-62.5 694,-62.5 694,-40.5 638,-40.5"/>
<text text-anchor="start" x="654" y="-46.2" font-family="Times New Roman,Times,Liberation Serif,serif" font-size="14.00">uuid</text>
<polygon fill="none" stroke="black" points="694,-40.5 694,-62.5 754,-62.5 754,-40.5 694,-40.5"/>
<text text-anchor="start" x="707.12" y="-46.2" font-family="Times New Roman,Times,Liberation Serif,serif" font-size="14.00">UUID</text>
<polygon fill="none" stroke="black" points="638,-18.5 638,-40.5 694,-40.5 694,-18.5 638,-18.5"/>
<text text-anchor="start" x="651" y="-24.2" font-family="Times New Roman,Times,Liberation Serif,serif" font-size="14.00">name</text>
<polygon fill="none" stroke="black" points="694,-18.5 694,-40.5 754,-40.5 754,-18.5 694,-18.5"/>
<text text-anchor="start" x="717.25" y="-24.2" font-family="Times New Roman,Times,Liberation Serif,serif" font-size="14.00">str</text>
</a>
</g>
</g>
<!-- gdm.distribution.components.base.distribution_component_base.DistributionComponentBase&#45;&gt;gdm.distribution.components.distribution_feeder.DistributionFeeder -->
<g id="edge1" class="edge">
<title>gdm.distribution.components.base.distribution_component_base.DistributionComponentBase:e&#45;&gt;gdm.distribution.components.distribution_feeder.DistributionFeeder:w</title>
<path fill="none" stroke="black" d="M253.99,-95.29C294.43,-93.58 307.04,-81.54 352,-77.5 472.18,-66.71 507.36,-72.8 619.34,-73.45"/>
<polyline fill="none" stroke="black" points="244,-95.5 249,-95.4"/>
<polyline fill="none" stroke="black" points="249,-95.4 254,-95.29"/>
<polyline fill="none" stroke="black" points="638,-73.5 633,-73.49"/>
<polygon fill="black" stroke="black" points="632.01,-68.48 631.99,-78.48 629.99,-78.48 630.01,-68.48 632.01,-68.48"/>
<polyline fill="none" stroke="black" points="633,-73.49 628,-73.47"/>
<ellipse fill="none" stroke="black" cx="623.5" cy="-73.46" rx="4" ry="4"/>
</g>
<!-- gdm.distribution.components.distribution_substation.DistributionSubstation -->
<g id="node3" class="node">
<title>gdm.distribution.components.distribution_substation.DistributionSubstation</title>
<g id="a_node3"><a xlink:title="gdm.distribution.components.distribution_substation.DistributionSubstation&#10;&#10;Class interface for distribution feeder.&#10;">
<polygon fill="none" stroke="black" points="352,-161.5 352,-183.5 530,-183.5 530,-161.5 352,-161.5"/>
<text text-anchor="start" x="375" y="-168.2" font-family="Times New Roman,Times,Liberation Serif,serif" font-weight="bold" font-size="14.00">DistributionSubstation</text>
<polygon fill="none" stroke="black" points="352,-139.5 352,-161.5 397,-161.5 397,-139.5 352,-139.5"/>
<text text-anchor="start" x="362.5" y="-145.2" font-family="Times New Roman,Times,Liberation Serif,serif" font-size="14.00">uuid</text>
<polygon fill="none" stroke="black" points="397,-139.5 397,-161.5 530,-161.5 530,-139.5 397,-139.5"/>
<text text-anchor="start" x="446.62" y="-145.2" font-family="Times New Roman,Times,Liberation Serif,serif" font-size="14.00">UUID</text>
<polygon fill="none" stroke="black" points="352,-117.5 352,-139.5 397,-139.5 397,-117.5 352,-117.5"/>
<text text-anchor="start" x="359.5" y="-123.2" font-family="Times New Roman,Times,Liberation Serif,serif" font-size="14.00">name</text>
<polygon fill="none" stroke="black" points="397,-117.5 397,-139.5 530,-139.5 530,-117.5 397,-117.5"/>
<text text-anchor="start" x="456.75" y="-123.2" font-family="Times New Roman,Times,Liberation Serif,serif" font-size="14.00">str</text>
<polygon fill="none" stroke="black" points="352,-95.5 352,-117.5 397,-117.5 397,-95.5 352,-95.5"/>
<text text-anchor="start" x="355" y="-101.2" font-family="Times New Roman,Times,Liberation Serif,serif" font-size="14.00">feeders</text>
<polygon fill="none" stroke="black" points="397,-95.5 397,-117.5 530,-117.5 530,-95.5 397,-95.5"/>
<text text-anchor="start" x="399.75" y="-101.2" font-family="Times New Roman,Times,Liberation Serif,serif" font-size="14.00">list[DistributionFeeder]</text>
</a>
</g>
</g>
<!-- gdm.distribution.components.base.distribution_component_base.DistributionComponentBase&#45;&gt;gdm.distribution.components.distribution_substation.DistributionSubstation -->
<g id="edge2" class="edge">
<title>gdm.distribution.components.base.distribution_component_base.DistributionComponentBase:e&#45;&gt;gdm.distribution.components.distribution_substation.DistributionSubstation:w</title>
<path fill="none" stroke="black" d="M253.78,-118.16C291.89,-123.49 299.82,-159.79 333.28,-169.89"/>
<polyline fill="none" stroke="black" points="244,-117.5 248.99,-117.83"/>
<polyline fill="none" stroke="black" points="248.99,-117.83 253.98,-118.17"/>
<polyline fill="none" stroke="black" points="352,-172.5 347.05,-171.81"/>
<polygon fill="black" stroke="black" points="346.75,-166.72 345.37,-176.63 343.39,-176.35 344.77,-166.44 346.75,-166.72"/>
<polyline fill="none" stroke="black" points="347.05,-171.81 342.1,-171.12"/>
<ellipse fill="none" stroke="black" cx="337.64" cy="-170.5" rx="4" ry="4"/>
</g>
<!-- gdm.distribution.components.distribution_substation.DistributionSubstation&#45;&gt;gdm.distribution.components.distribution_feeder.DistributionFeeder -->
<g id="edge3" class="edge">
<title>gdm.distribution.components.distribution_substation.DistributionSubstation:e&#45;&gt;gdm.distribution.components.distribution_feeder.DistributionFeeder:w</title>
<path fill="none" stroke="black" d="M539.99,-106.03C576.29,-102.52 588.38,-80.25 622.09,-74.73"/>
<polyline fill="none" stroke="black" points="530,-106.5 534.99,-106.27"/>
<polyline fill="none" stroke="black" points="534.99,-106.27 539.99,-106.03"/>
<polygon fill="black" stroke="black" points="627.7,-74.3 638.01,-78.01 633.01,-73.89 637.33,-73.55 637.33,-73.55 637.33,-73.55 633.01,-73.89 637.32,-69.04 627.7,-74.3"/>
<polyline fill="none" stroke="black" points="626.48,-74.39 621.5,-74.78"/>
</g>
</g>
</svg>
