<?xml version="1.0" encoding="UTF-8" standalone="no"?>
<!DOCTYPE svg PUBLIC "-//W3C//DTD SVG 1.1//EN"
 "http://www.w3.org/Graphics/SVG/1.1/DTD/svg11.dtd">
<!-- Generated by graphviz version 9.0.0 (0)
 -->
<!-- Title: Entity Relationship Diagram created by erdantic Pages: 1 -->
<svg width="1230pt" height="891pt"
 viewBox="0.00 0.00 1230.00 890.50" xmlns="http://www.w3.org/2000/svg" xmlns:xlink="http://www.w3.org/1999/xlink">
<g id="graph0" class="graph" transform="scale(1 1) rotate(0) translate(4 886.5)">
<title>Entity Relationship Diagram created by erdantic</title>
<polygon fill="white" stroke="none" points="-4,4 -4,-886.5 1226,-886.5 1226,4 -4,4"/>
<text text-anchor="middle" x="611" y="-5.95" font-family="Times New Roman,Times,Liberation Serif,serif" font-size="9.00" fill="#a8a8a8">Created by erdantic v0.6.0 &lt;https://github.com/drivendataorg/erdantic&gt;</text>
<!-- gdm.distribution.components.distribution_bus.DistributionBus -->
<g id="node1" class="node">
<title>gdm.distribution.components.distribution_bus.DistributionBus</title>
<g id="a_node1"><a xlink:title="gdm.distribution.components.distribution_bus.DistributionBus&#10;&#10;Interface for distribution bus.&#10;&#10;Examples:&#10; &#160;&#160;&#160;&gt;&gt;&gt; from gdm import DistributionBus&#10; &#160;&#160;&#160;&gt;&gt;&gt; DistributionBus.example()&#10;">
<polygon fill="none" stroke="black" points="355,-662.5 355,-684.5 636,-684.5 636,-662.5 355,-662.5"/>
<text text-anchor="start" x="449.38" y="-669.2" font-family="Times New Roman,Times,Liberation Serif,serif" font-weight="bold" font-size="14.00">DistributionBus</text>
<polygon fill="none" stroke="black" points="355,-640.5 355,-662.5 452,-662.5 452,-640.5 355,-640.5"/>
<text text-anchor="start" x="391.5" y="-646.2" font-family="Times New Roman,Times,Liberation Serif,serif" font-size="14.00">uuid</text>
<polygon fill="none" stroke="black" points="452,-640.5 452,-662.5 636,-662.5 636,-640.5 452,-640.5"/>
<text text-anchor="start" x="527.12" y="-646.2" font-family="Times New Roman,Times,Liberation Serif,serif" font-size="14.00">UUID</text>
<polygon fill="none" stroke="black" points="355,-618.5 355,-640.5 452,-640.5 452,-618.5 355,-618.5"/>
<text text-anchor="start" x="388.5" y="-624.2" font-family="Times New Roman,Times,Liberation Serif,serif" font-size="14.00">name</text>
<polygon fill="none" stroke="black" points="452,-618.5 452,-640.5 636,-640.5 636,-618.5 452,-618.5"/>
<text text-anchor="start" x="537.25" y="-624.2" font-family="Times New Roman,Times,Liberation Serif,serif" font-size="14.00">str</text>
<polygon fill="none" stroke="black" points="355,-596.5 355,-618.5 452,-618.5 452,-596.5 355,-596.5"/>
<text text-anchor="start" x="376.12" y="-602.2" font-family="Times New Roman,Times,Liberation Serif,serif" font-size="14.00">substation</text>
<polygon fill="none" stroke="black" points="452,-596.5 452,-618.5 636,-618.5 636,-596.5 452,-596.5"/>
<text text-anchor="start" x="454.75" y="-602.2" font-family="Times New Roman,Times,Liberation Serif,serif" font-size="14.00">Optional[DistributionSubstation]</text>
<polygon fill="none" stroke="black" points="355,-574.5 355,-596.5 452,-596.5 452,-574.5 355,-574.5"/>
<text text-anchor="start" x="386.62" y="-580.2" font-family="Times New Roman,Times,Liberation Serif,serif" font-size="14.00">feeder</text>
<polygon fill="none" stroke="black" points="452,-574.5 452,-596.5 636,-596.5 636,-574.5 452,-574.5"/>
<text text-anchor="start" x="464.88" y="-580.2" font-family="Times New Roman,Times,Liberation Serif,serif" font-size="14.00">Optional[DistributionFeeder]</text>
<polygon fill="none" stroke="black" points="355,-552.5 355,-574.5 452,-574.5 452,-552.5 355,-552.5"/>
<text text-anchor="start" x="368.62" y="-558.2" font-family="Times New Roman,Times,Liberation Serif,serif" font-size="14.00">voltage_type</text>
<polygon fill="none" stroke="black" points="452,-552.5 452,-574.5 636,-574.5 636,-552.5 452,-552.5"/>
<text text-anchor="start" x="507.25" y="-558.2" font-family="Times New Roman,Times,Liberation Serif,serif" font-size="14.00">VoltageTypes</text>
<polygon fill="none" stroke="black" points="355,-530.5 355,-552.5 452,-552.5 452,-530.5 355,-530.5"/>
<text text-anchor="start" x="385.5" y="-536.2" font-family="Times New Roman,Times,Liberation Serif,serif" font-size="14.00">phases</text>
<polygon fill="none" stroke="black" points="452,-530.5 452,-552.5 636,-552.5 636,-530.5 452,-530.5"/>
<text text-anchor="start" x="515.5" y="-536.2" font-family="Times New Roman,Times,Liberation Serif,serif" font-size="14.00">list[Phase]</text>
<polygon fill="none" stroke="black" points="355,-508.5 355,-530.5 452,-530.5 452,-508.5 355,-508.5"/>
<text text-anchor="start" x="367.88" y="-514.2" font-family="Times New Roman,Times,Liberation Serif,serif" font-size="14.00">voltagelimits</text>
<polygon fill="none" stroke="black" points="452,-508.5 452,-530.5 636,-530.5 636,-508.5 452,-508.5"/>
<text text-anchor="start" x="486.62" y="-514.2" font-family="Times New Roman,Times,Liberation Serif,serif" font-size="14.00">list[VoltageLimitSet]</text>
<polygon fill="none" stroke="black" points="355,-486.5 355,-508.5 452,-508.5 452,-486.5 355,-486.5"/>
<text text-anchor="start" x="357.75" y="-492.2" font-family="Times New Roman,Times,Liberation Serif,serif" font-size="14.00">rated_voltage</text>
<polygon fill="none" stroke="black" points="452,-486.5 452,-508.5 636,-508.5 636,-486.5 452,-486.5"/>
<text text-anchor="start" x="501.62" y="-492.2" font-family="Times New Roman,Times,Liberation Serif,serif" font-size="14.00">PositiveVoltage</text>
<polygon fill="none" stroke="black" points="355,-464.5 355,-486.5 452,-486.5 452,-464.5 355,-464.5"/>
<text text-anchor="start" x="375" y="-470.2" font-family="Times New Roman,Times,Liberation Serif,serif" font-size="14.00">coordinate</text>
<polygon fill="none" stroke="black" points="452,-464.5 452,-486.5 636,-486.5 636,-464.5 452,-464.5"/>
<text text-anchor="start" x="491.88" y="-470.2" font-family="Times New Roman,Times,Liberation Serif,serif" font-size="14.00">Optional[Location]</text>
</a>
</g>
</g>
<!-- gdm.distribution.components.distribution_feeder.DistributionFeeder -->
<g id="node2" class="node">
<title>gdm.distribution.components.distribution_feeder.DistributionFeeder</title>
<g id="a_node2"><a xlink:title="gdm.distribution.components.distribution_feeder.DistributionFeeder&#10;&#10;Class interface for distribution feeder.&#10;">
<polygon fill="none" stroke="black" points="1106,-728.5 1106,-750.5 1222,-750.5 1222,-728.5 1106,-728.5"/>
<text text-anchor="start" x="1108.88" y="-735.2" font-family="Times New Roman,Times,Liberation Serif,serif" font-weight="bold" font-size="14.00">DistributionFeeder</text>
<polygon fill="none" stroke="black" points="1106,-706.5 1106,-728.5 1162,-728.5 1162,-706.5 1106,-706.5"/>
<text text-anchor="start" x="1122" y="-712.2" font-family="Times New Roman,Times,Liberation Serif,serif" font-size="14.00">uuid</text>
<polygon fill="none" stroke="black" points="1162,-706.5 1162,-728.5 1222,-728.5 1222,-706.5 1162,-706.5"/>
<text text-anchor="start" x="1175.12" y="-712.2" font-family="Times New Roman,Times,Liberation Serif,serif" font-size="14.00">UUID</text>
<polygon fill="none" stroke="black" points="1106,-684.5 1106,-706.5 1162,-706.5 1162,-684.5 1106,-684.5"/>
<text text-anchor="start" x="1119" y="-690.2" font-family="Times New Roman,Times,Liberation Serif,serif" font-size="14.00">name</text>
<polygon fill="none" stroke="black" points="1162,-684.5 1162,-706.5 1222,-706.5 1222,-684.5 1162,-684.5"/>
<text text-anchor="start" x="1185.25" y="-690.2" font-family="Times New Roman,Times,Liberation Serif,serif" font-size="14.00">str</text>
</a>
</g>
</g>
<!-- gdm.distribution.components.distribution_bus.DistributionBus&#45;&gt;gdm.distribution.components.distribution_feeder.DistributionFeeder -->
<g id="edge1" class="edge">
<title>gdm.distribution.components.distribution_bus.DistributionBus:e&#45;&gt;gdm.distribution.components.distribution_feeder.DistributionFeeder:w</title>
<path fill="none" stroke="black" d="M645.68,-586.48C717.46,-598.5 1000.03,-716.9 1087.25,-736.7"/>
<polyline fill="none" stroke="black" points="636,-585.5 640.97,-586.01"/>
<polyline fill="none" stroke="black" points="640.97,-586.01 645.95,-586.51"/>
<polyline fill="none" stroke="black" points="1106,-739.5 1101.05,-738.76"/>
<polygon fill="black" stroke="black" points="1100.81,-733.67 1099.33,-743.56 1097.35,-743.26 1098.83,-733.37 1100.81,-733.67"/>
<polyline fill="none" stroke="black" points="1101.05,-738.76 1096.11,-738.02"/>
<ellipse fill="none" stroke="black" cx="1091.66" cy="-737.36" rx="4" ry="4"/>
</g>
<!-- gdm.distribution.components.distribution_substation.DistributionSubstation -->
<g id="node3" class="node">
<title>gdm.distribution.components.distribution_substation.DistributionSubstation</title>
<g id="a_node3"><a xlink:title="gdm.distribution.components.distribution_substation.DistributionSubstation&#10;&#10;Class interface for distribution feeder.&#10;">
<polygon fill="none" stroke="black" points="782,-860.5 782,-882.5 960,-882.5 960,-860.5 782,-860.5"/>
<text text-anchor="start" x="805" y="-867.2" font-family="Times New Roman,Times,Liberation Serif,serif" font-weight="bold" font-size="14.00">DistributionSubstation</text>
<polygon fill="none" stroke="black" points="782,-838.5 782,-860.5 827,-860.5 827,-838.5 782,-838.5"/>
<text text-anchor="start" x="792.5" y="-844.2" font-family="Times New Roman,Times,Liberation Serif,serif" font-size="14.00">uuid</text>
<polygon fill="none" stroke="black" points="827,-838.5 827,-860.5 960,-860.5 960,-838.5 827,-838.5"/>
<text text-anchor="start" x="876.62" y="-844.2" font-family="Times New Roman,Times,Liberation Serif,serif" font-size="14.00">UUID</text>
<polygon fill="none" stroke="black" points="782,-816.5 782,-838.5 827,-838.5 827,-816.5 782,-816.5"/>
<text text-anchor="start" x="789.5" y="-822.2" font-family="Times New Roman,Times,Liberation Serif,serif" font-size="14.00">name</text>
<polygon fill="none" stroke="black" points="827,-816.5 827,-838.5 960,-838.5 960,-816.5 827,-816.5"/>
<text text-anchor="start" x="886.75" y="-822.2" font-family="Times New Roman,Times,Liberation Serif,serif" font-size="14.00">str</text>
<polygon fill="none" stroke="black" points="782,-794.5 782,-816.5 827,-816.5 827,-794.5 782,-794.5"/>
<text text-anchor="start" x="785" y="-800.2" font-family="Times New Roman,Times,Liberation Serif,serif" font-size="14.00">feeders</text>
<polygon fill="none" stroke="black" points="827,-794.5 827,-816.5 960,-816.5 960,-794.5 827,-794.5"/>
<text text-anchor="start" x="829.75" y="-800.2" font-family="Times New Roman,Times,Liberation Serif,serif" font-size="14.00">list[DistributionFeeder]</text>
</a>
</g>
</g>
<!-- gdm.distribution.components.distribution_bus.DistributionBus&#45;&gt;gdm.distribution.components.distribution_substation.DistributionSubstation -->
<g id="edge2" class="edge">
<title>gdm.distribution.components.distribution_bus.DistributionBus:e&#45;&gt;gdm.distribution.components.distribution_substation.DistributionSubstation:w</title>
<path fill="none" stroke="black" d="M645.71,-608C757.57,-620.06 661.84,-845.71 762.32,-869.48"/>
<polyline fill="none" stroke="black" points="636,-607.5 640.99,-607.76"/>
<polyline fill="none" stroke="black" points="640.99,-607.76 645.99,-608.02"/>
<polyline fill="none" stroke="black" points="781,-871.5 776.03,-870.96"/>
<polygon fill="black" stroke="black" points="775.57,-865.88 774.5,-875.83 772.51,-875.61 773.58,-865.67 775.57,-865.88"/>
<polyline fill="none" stroke="black" points="776.03,-870.96 771.06,-870.42"/>
<ellipse fill="none" stroke="black" cx="766.58" cy="-869.94" rx="4" ry="4"/>
</g>
<!-- gdm.distribution.limitset.VoltageLimitSet -->
<g id="node4" class="node">
<title>gdm.distribution.limitset.VoltageLimitSet</title>
<g id="a_node4"><a xlink:title="gdm.distribution.limitset.VoltageLimitSet&#10;&#10;Interface for voltage limit set.&#10;">
<polygon fill="none" stroke="black" points="795,-548.5 795,-570.5 947,-570.5 947,-548.5 795,-548.5"/>
<text text-anchor="start" x="823.75" y="-555.2" font-family="Times New Roman,Times,Liberation Serif,serif" font-weight="bold" font-size="14.00">VoltageLimitSet</text>
<polygon fill="none" stroke="black" points="795,-526.5 795,-548.5 857,-548.5 857,-526.5 795,-526.5"/>
<text text-anchor="start" x="814" y="-532.2" font-family="Times New Roman,Times,Liberation Serif,serif" font-size="14.00">uuid</text>
<polygon fill="none" stroke="black" points="857,-526.5 857,-548.5 947,-548.5 947,-526.5 857,-526.5"/>
<text text-anchor="start" x="885.12" y="-532.2" font-family="Times New Roman,Times,Liberation Serif,serif" font-size="14.00">UUID</text>
<polygon fill="none" stroke="black" points="795,-504.5 795,-526.5 857,-526.5 857,-504.5 795,-504.5"/>
<text text-anchor="start" x="811" y="-510.2" font-family="Times New Roman,Times,Liberation Serif,serif" font-size="14.00">name</text>
<polygon fill="none" stroke="black" points="857,-504.5 857,-526.5 947,-526.5 947,-504.5 857,-504.5"/>
<text text-anchor="start" x="895.25" y="-510.2" font-family="Times New Roman,Times,Liberation Serif,serif" font-size="14.00">str</text>
<polygon fill="none" stroke="black" points="795,-482.5 795,-504.5 857,-504.5 857,-482.5 795,-482.5"/>
<text text-anchor="start" x="797.88" y="-488.2" font-family="Times New Roman,Times,Liberation Serif,serif" font-size="14.00">limit_type</text>
<polygon fill="none" stroke="black" points="857,-482.5 857,-504.5 947,-504.5 947,-482.5 857,-482.5"/>
<text text-anchor="start" x="873.12" y="-488.2" font-family="Times New Roman,Times,Liberation Serif,serif" font-size="14.00">LimitType</text>
<polygon fill="none" stroke="black" points="795,-460.5 795,-482.5 857,-482.5 857,-460.5 795,-460.5"/>
<text text-anchor="start" x="811.38" y="-466.2" font-family="Times New Roman,Times,Liberation Serif,serif" font-size="14.00">value</text>
<polygon fill="none" stroke="black" points="857,-460.5 857,-482.5 947,-482.5 947,-460.5 857,-460.5"/>
<text text-anchor="start" x="859.62" y="-466.2" font-family="Times New Roman,Times,Liberation Serif,serif" font-size="14.00">PositiveVoltage</text>
</a>
</g>
</g>
<!-- gdm.distribution.components.distribution_bus.DistributionBus&#45;&gt;gdm.distribution.limitset.VoltageLimitSet -->
<g id="edge3" class="edge">
<title>gdm.distribution.components.distribution_bus.DistributionBus:e&#45;&gt;gdm.distribution.limitset.VoltageLimitSet:w</title>
<path fill="none" stroke="black" d="M645.81,-519.76C704.42,-522.88 722.07,-553.63 777.68,-558.77"/>
<polyline fill="none" stroke="black" points="636,-519.5 641,-519.63"/>
<polyline fill="none" stroke="black" points="641,-519.63 646,-519.76"/>
<polygon fill="black" stroke="black" points="783.68,-559.04 793.47,-563.98 789,-559.28 793.33,-559.47 793.33,-559.47 793.33,-559.47 789,-559.28 793.87,-554.99 783.68,-559.04"/>
<polyline fill="none" stroke="black" points="782.46,-558.99 777.46,-558.76"/>
</g>
<!-- infrasys.location.Location -->
<g id="node5" class="node">
<title>infrasys.location.Location</title>
<g id="a_node5"><a xlink:title="infrasys.location.Location&#10;&#10;Specifies geographic location.&#10;">
<polygon fill="none" stroke="black" points="823.5,-402.5 823.5,-424.5 918.5,-424.5 918.5,-402.5 823.5,-402.5"/>
<text text-anchor="start" x="845.5" y="-409.2" font-family="Times New Roman,Times,Liberation Serif,serif" font-weight="bold" font-size="14.00">Location</text>
<polygon fill="none" stroke="black" points="823.5,-380.5 823.5,-402.5 859.5,-402.5 859.5,-380.5 823.5,-380.5"/>
<text text-anchor="start" x="829.5" y="-386.2" font-family="Times New Roman,Times,Liberation Serif,serif" font-size="14.00">uuid</text>
<polygon fill="none" stroke="black" points="859.5,-380.5 859.5,-402.5 918.5,-402.5 918.5,-380.5 859.5,-380.5"/>
<text text-anchor="start" x="872.12" y="-386.2" font-family="Times New Roman,Times,Liberation Serif,serif" font-size="14.00">UUID</text>
<polygon fill="none" stroke="black" points="823.5,-358.5 823.5,-380.5 859.5,-380.5 859.5,-358.5 823.5,-358.5"/>
<text text-anchor="start" x="826.5" y="-364.2" font-family="Times New Roman,Times,Liberation Serif,serif" font-size="14.00">name</text>
<polygon fill="none" stroke="black" points="859.5,-358.5 859.5,-380.5 918.5,-380.5 918.5,-358.5 859.5,-358.5"/>
<text text-anchor="start" x="882.25" y="-364.2" font-family="Times New Roman,Times,Liberation Serif,serif" font-size="14.00">str</text>
<polygon fill="none" stroke="black" points="823.5,-336.5 823.5,-358.5 859.5,-358.5 859.5,-336.5 823.5,-336.5"/>
<text text-anchor="start" x="838.12" y="-342.2" font-family="Times New Roman,Times,Liberation Serif,serif" font-size="14.00">x</text>
<polygon fill="none" stroke="black" points="859.5,-336.5 859.5,-358.5 918.5,-358.5 918.5,-336.5 859.5,-336.5"/>
<text text-anchor="start" x="876.62" y="-342.2" font-family="Times New Roman,Times,Liberation Serif,serif" font-size="14.00">float</text>
<polygon fill="none" stroke="black" points="823.5,-314.5 823.5,-336.5 859.5,-336.5 859.5,-314.5 823.5,-314.5"/>
<text text-anchor="start" x="838.12" y="-320.2" font-family="Times New Roman,Times,Liberation Serif,serif" font-size="14.00">y</text>
<polygon fill="none" stroke="black" points="859.5,-314.5 859.5,-336.5 918.5,-336.5 918.5,-314.5 859.5,-314.5"/>
<text text-anchor="start" x="876.62" y="-320.2" font-family="Times New Roman,Times,Liberation Serif,serif" font-size="14.00">float</text>
<polygon fill="none" stroke="black" points="823.5,-292.5 823.5,-314.5 859.5,-314.5 859.5,-292.5 823.5,-292.5"/>
<text text-anchor="start" x="833.62" y="-298.2" font-family="Times New Roman,Times,Liberation Serif,serif" font-size="14.00">crs</text>
<polygon fill="none" stroke="black" points="859.5,-292.5 859.5,-314.5 918.5,-314.5 918.5,-292.5 859.5,-292.5"/>
<text text-anchor="start" x="862.38" y="-298.2" font-family="Times New Roman,Times,Liberation Serif,serif" font-size="14.00">str | None</text>
</a>
</g>
</g>
<!-- gdm.distribution.components.distribution_bus.DistributionBus&#45;&gt;infrasys.location.Location -->
<g id="edge4" class="edge">
<title>gdm.distribution.components.distribution_bus.DistributionBus:e&#45;&gt;infrasys.location.Location:w</title>
<path fill="none" stroke="black" d="M645.88,-475.22C717.9,-471.11 735.6,-422.33 803.16,-414.54"/>
<polyline fill="none" stroke="black" points="636,-475.5 641,-475.36"/>
<polyline fill="none" stroke="black" points="641,-475.36 646,-475.22"/>
<polyline fill="none" stroke="black" points="822,-413.5 817.01,-413.78"/>
<polygon fill="black" stroke="black" points="815.73,-408.84 816.29,-418.82 814.29,-418.94 813.74,-408.95 815.73,-408.84"/>
<polyline fill="none" stroke="black" points="817.01,-413.78 812.02,-414.05"/>
<ellipse fill="none" stroke="black" cx="807.52" cy="-414.3" rx="4" ry="4"/>
</g>
<!-- gdm.distribution.components.distribution_substation.DistributionSubstation&#45;&gt;gdm.distribution.components.distribution_feeder.DistributionFeeder -->
<g id="edge10" class="edge">
<title>gdm.distribution.components.distribution_substation.DistributionSubstation:e&#45;&gt;gdm.distribution.components.distribution_feeder.DistributionFeeder:w</title>
<path fill="none" stroke="black" d="M970.91,-805.04C1027.14,-799.7 1037.2,-749.15 1090.25,-740.7"/>
<polyline fill="none" stroke="black" points="961,-805.5 965.99,-805.27"/>
<polyline fill="none" stroke="black" points="965.99,-805.27 970.99,-805.04"/>
<polygon fill="black" stroke="black" points="1095.7,-740.28 1106.01,-744.01 1101.01,-739.88 1105.33,-739.55 1105.33,-739.55 1105.33,-739.55 1101.01,-739.88 1105.33,-735.04 1095.7,-740.28"/>
<polyline fill="none" stroke="black" points="1094.48,-740.38 1089.49,-740.75"/>
</g>
<!-- gdm.distribution.components.distribution_capacitor.DistributionCapacitor -->
<g id="node6" class="node">
<title>gdm.distribution.components.distribution_capacitor.DistributionCapacitor</title>
<g id="a_node6"><a xlink:title="gdm.distribution.components.distribution_capacitor.DistributionCapacitor&#10;&#10;Interface for capacitor present in distribution system models.&#10;">
<polygon fill="none" stroke="black" points="0,-794.5 0,-816.5 247,-816.5 247,-794.5 0,-794.5"/>
<text text-anchor="start" x="59.38" y="-801.2" font-family="Times New Roman,Times,Liberation Serif,serif" font-weight="bold" font-size="14.00">DistributionCapacitor</text>
<polygon fill="none" stroke="black" points="0,-772.5 0,-794.5 63,-794.5 63,-772.5 0,-772.5"/>
<text text-anchor="start" x="19.5" y="-778.2" font-family="Times New Roman,Times,Liberation Serif,serif" font-size="14.00">uuid</text>
<polygon fill="none" stroke="black" points="63,-772.5 63,-794.5 247,-794.5 247,-772.5 63,-772.5"/>
<text text-anchor="start" x="138.12" y="-778.2" font-family="Times New Roman,Times,Liberation Serif,serif" font-size="14.00">UUID</text>
<polygon fill="none" stroke="black" points="0,-750.5 0,-772.5 63,-772.5 63,-750.5 0,-750.5"/>
<text text-anchor="start" x="16.5" y="-756.2" font-family="Times New Roman,Times,Liberation Serif,serif" font-size="14.00">name</text>
<polygon fill="none" stroke="black" points="63,-750.5 63,-772.5 247,-772.5 247,-750.5 63,-750.5"/>
<text text-anchor="start" x="148.25" y="-756.2" font-family="Times New Roman,Times,Liberation Serif,serif" font-size="14.00">str</text>
<polygon fill="none" stroke="black" points="0,-728.5 0,-750.5 63,-750.5 63,-728.5 0,-728.5"/>
<text text-anchor="start" x="4.12" y="-734.2" font-family="Times New Roman,Times,Liberation Serif,serif" font-size="14.00">substation</text>
<polygon fill="none" stroke="black" points="63,-728.5 63,-750.5 247,-750.5 247,-728.5 63,-728.5"/>
<text text-anchor="start" x="65.75" y="-734.2" font-family="Times New Roman,Times,Liberation Serif,serif" font-size="14.00">Optional[DistributionSubstation]</text>
<polygon fill="none" stroke="black" points="0,-706.5 0,-728.5 63,-728.5 63,-706.5 0,-706.5"/>
<text text-anchor="start" x="14.62" y="-712.2" font-family="Times New Roman,Times,Liberation Serif,serif" font-size="14.00">feeder</text>
<polygon fill="none" stroke="black" points="63,-706.5 63,-728.5 247,-728.5 247,-706.5 63,-706.5"/>
<text text-anchor="start" x="75.88" y="-712.2" font-family="Times New Roman,Times,Liberation Serif,serif" font-size="14.00">Optional[DistributionFeeder]</text>
<polygon fill="none" stroke="black" points="0,-684.5 0,-706.5 63,-706.5 63,-684.5 0,-684.5"/>
<text text-anchor="start" x="3.75" y="-690.2" font-family="Times New Roman,Times,Liberation Serif,serif" font-size="14.00">in_service</text>
<polygon fill="none" stroke="black" points="63,-684.5 63,-706.5 247,-706.5 247,-684.5 63,-684.5"/>
<text text-anchor="start" x="143" y="-690.2" font-family="Times New Roman,Times,Liberation Serif,serif" font-size="14.00">bool</text>
<polygon fill="none" stroke="black" points="0,-662.5 0,-684.5 63,-684.5 63,-662.5 0,-662.5"/>
<text text-anchor="start" x="22.12" y="-668.2" font-family="Times New Roman,Times,Liberation Serif,serif" font-size="14.00">bus</text>
<polygon fill="none" stroke="black" points="63,-662.5 63,-684.5 247,-684.5 247,-662.5 63,-662.5"/>
<text text-anchor="start" x="111.88" y="-668.2" font-family="Times New Roman,Times,Liberation Serif,serif" font-size="14.00">DistributionBus</text>
<polygon fill="none" stroke="black" points="0,-640.5 0,-662.5 63,-662.5 63,-640.5 0,-640.5"/>
<text text-anchor="start" x="13.5" y="-646.2" font-family="Times New Roman,Times,Liberation Serif,serif" font-size="14.00">phases</text>
<polygon fill="none" stroke="black" points="63,-640.5 63,-662.5 247,-662.5 247,-640.5 63,-640.5"/>
<text text-anchor="start" x="126.5" y="-646.2" font-family="Times New Roman,Times,Liberation Serif,serif" font-size="14.00">list[Phase]</text>
<polygon fill="none" stroke="black" points="0,-618.5 0,-640.5 63,-640.5 63,-618.5 0,-618.5"/>
<text text-anchor="start" x="2.62" y="-624.2" font-family="Times New Roman,Times,Liberation Serif,serif" font-size="14.00">controllers</text>
<polygon fill="none" stroke="black" points="63,-618.5 63,-640.5 247,-640.5 247,-618.5 63,-618.5"/>
<text text-anchor="start" x="75.12" y="-624.2" font-family="Times New Roman,Times,Liberation Serif,serif" font-size="14.00">list[CapacitorControllerBase]</text>
<polygon fill="none" stroke="black" points="0,-596.5 0,-618.5 63,-618.5 63,-596.5 0,-596.5"/>
<text text-anchor="start" x="2.62" y="-602.2" font-family="Times New Roman,Times,Liberation Serif,serif" font-size="14.00">equipment</text>
<polygon fill="none" stroke="black" points="63,-596.5 63,-618.5 247,-618.5 247,-596.5 63,-596.5"/>
<text text-anchor="start" x="98.75" y="-602.2" font-family="Times New Roman,Times,Liberation Serif,serif" font-size="14.00">CapacitorEquipment</text>
</a>
</g>
</g>
<!-- gdm.distribution.components.distribution_capacitor.DistributionCapacitor&#45;&gt;gdm.distribution.components.distribution_bus.DistributionBus -->
<g id="edge5" class="edge">
<title>gdm.distribution.components.distribution_capacitor.DistributionCapacitor:e&#45;&gt;gdm.distribution.components.distribution_bus.DistributionBus:w</title>
<path fill="none" stroke="black" d="M256.87,-673.5C292.07,-673.5 306.8,-673.5 340.08,-673.5"/>
<polyline fill="none" stroke="black" points="247,-673.5 252,-673.5"/>
<polyline fill="none" stroke="black" points="252,-673.5 257,-673.5"/>
<polyline fill="none" stroke="black" points="355,-673.5 350,-673.5"/>
<polygon fill="black" stroke="black" points="349,-668.5 349,-678.5 347,-678.5 347,-668.5 349,-668.5"/>
<polyline fill="none" stroke="black" points="350,-673.5 345,-673.5"/>
<polygon fill="black" stroke="black" points="344,-668.5 344,-678.5 342,-678.5 342,-668.5 344,-668.5"/>
<polyline fill="none" stroke="black" points="345,-673.5 340,-673.5"/>
</g>
<!-- gdm.distribution.components.distribution_capacitor.DistributionCapacitor&#45;&gt;gdm.distribution.components.distribution_feeder.DistributionFeeder -->
<g id="edge6" class="edge">
<title>gdm.distribution.components.distribution_capacitor.DistributionCapacitor:e&#45;&gt;gdm.distribution.components.distribution_feeder.DistributionFeeder:w</title>
<path fill="none" stroke="black" d="M256.73,-717.5C624.25,-717.87 724.02,-738.78 1087.1,-739.48"/>
<polyline fill="none" stroke="black" points="247,-717.5 252,-717.5"/>
<polyline fill="none" stroke="black" points="252,-717.5 257,-717.51"/>
<polyline fill="none" stroke="black" points="1106,-739.5 1101,-739.5"/>
<polygon fill="black" stroke="black" points="1100,-734.49 1100,-744.49 1098,-744.49 1098,-734.49 1100,-734.49"/>
<polyline fill="none" stroke="black" points="1101,-739.5 1096,-739.49"/>
<ellipse fill="none" stroke="black" cx="1091.5" cy="-739.49" rx="4" ry="4"/>
</g>
<!-- gdm.distribution.components.distribution_capacitor.DistributionCapacitor&#45;&gt;gdm.distribution.components.distribution_substation.DistributionSubstation -->
<g id="edge7" class="edge">
<title>gdm.distribution.components.distribution_capacitor.DistributionCapacitor:e&#45;&gt;gdm.distribution.components.distribution_substation.DistributionSubstation:w</title>
<path fill="none" stroke="black" d="M256.9,-739.73C298.23,-741.72 310.29,-756.25 355,-767.5 537.72,-813.49 583.15,-867.76 762.08,-871.32"/>
<polyline fill="none" stroke="black" points="247,-739.5 252,-739.62"/>
<polyline fill="none" stroke="black" points="252,-739.62 257,-739.73"/>
<polyline fill="none" stroke="black" points="781,-871.5 776,-871.45"/>
<polygon fill="black" stroke="black" points="775.05,-866.44 774.95,-876.44 772.95,-876.42 773.05,-866.42 775.05,-866.44"/>
<polyline fill="none" stroke="black" points="776,-871.45 771,-871.4"/>
<ellipse fill="none" stroke="black" cx="766.5" cy="-871.36" rx="4" ry="4"/>
</g>
<!-- gdm.distribution.controllers.base.capacitor_controller_base.CapacitorControllerBase -->
<g id="node7" class="node">
<title>gdm.distribution.controllers.base.capacitor_controller_base.CapacitorControllerBase</title>
<g id="a_node7"><a xlink:title="gdm.distribution.controllers.base.capacitor_controller_base.CapacitorControllerBase&#10;&#10;Interface for capacitor controllers. Phase connection specified in the capacitor.&#10;">
<polygon fill="none" stroke="black" points="418.5,-406.5 418.5,-428.5 572.5,-428.5 572.5,-406.5 418.5,-406.5"/>
<text text-anchor="start" x="422.75" y="-413.2" font-family="Times New Roman,Times,Liberation Serif,serif" font-weight="bold" font-size="14.00">CapacitorControllerBase</text>
<polygon fill="none" stroke="black" points="418.5,-384.5 418.5,-406.5 481.5,-406.5 481.5,-384.5 418.5,-384.5"/>
<text text-anchor="start" x="438" y="-390.2" font-family="Times New Roman,Times,Liberation Serif,serif" font-size="14.00">uuid</text>
<polygon fill="none" stroke="black" points="481.5,-384.5 481.5,-406.5 572.5,-406.5 572.5,-384.5 481.5,-384.5"/>
<text text-anchor="start" x="510.12" y="-390.2" font-family="Times New Roman,Times,Liberation Serif,serif" font-size="14.00">UUID</text>
<polygon fill="none" stroke="black" points="418.5,-362.5 418.5,-384.5 481.5,-384.5 481.5,-362.5 418.5,-362.5"/>
<text text-anchor="start" x="435" y="-368.2" font-family="Times New Roman,Times,Liberation Serif,serif" font-size="14.00">name</text>
<polygon fill="none" stroke="black" points="481.5,-362.5 481.5,-384.5 572.5,-384.5 572.5,-362.5 481.5,-362.5"/>
<text text-anchor="start" x="520.25" y="-368.2" font-family="Times New Roman,Times,Liberation Serif,serif" font-size="14.00">str</text>
<polygon fill="none" stroke="black" points="418.5,-340.5 418.5,-362.5 481.5,-362.5 481.5,-340.5 418.5,-340.5"/>
<text text-anchor="start" x="425.25" y="-346.2" font-family="Times New Roman,Times,Liberation Serif,serif" font-size="14.00">delay_on</text>
<polygon fill="none" stroke="black" points="481.5,-340.5 481.5,-362.5 572.5,-362.5 572.5,-340.5 481.5,-340.5"/>
<text text-anchor="start" x="484.25" y="-346.2" font-family="Times New Roman,Times,Liberation Serif,serif" font-size="14.00">Optional[Time]</text>
<polygon fill="none" stroke="black" points="418.5,-318.5 418.5,-340.5 481.5,-340.5 481.5,-318.5 418.5,-318.5"/>
<text text-anchor="start" x="424.12" y="-324.2" font-family="Times New Roman,Times,Liberation Serif,serif" font-size="14.00">delay_off</text>
<polygon fill="none" stroke="black" points="481.5,-318.5 481.5,-340.5 572.5,-340.5 572.5,-318.5 481.5,-318.5"/>
<text text-anchor="start" x="484.25" y="-324.2" font-family="Times New Roman,Times,Liberation Serif,serif" font-size="14.00">Optional[Time]</text>
<polygon fill="none" stroke="black" points="418.5,-296.5 418.5,-318.5 481.5,-318.5 481.5,-296.5 418.5,-296.5"/>
<text text-anchor="start" x="421.5" y="-302.2" font-family="Times New Roman,Times,Liberation Serif,serif" font-size="14.00">dead_time</text>
<polygon fill="none" stroke="black" points="481.5,-296.5 481.5,-318.5 572.5,-318.5 572.5,-296.5 481.5,-296.5"/>
<text text-anchor="start" x="484.25" y="-302.2" font-family="Times New Roman,Times,Liberation Serif,serif" font-size="14.00">Optional[Time]</text>
</a>
</g>
</g>
<!-- gdm.distribution.components.distribution_capacitor.DistributionCapacitor&#45;&gt;gdm.distribution.controllers.base.capacitor_controller_base.CapacitorControllerBase -->
<g id="edge8" class="edge">
<title>gdm.distribution.components.distribution_capacitor.DistributionCapacitor:e&#45;&gt;gdm.distribution.controllers.base.capacitor_controller_base.CapacitorControllerBase:w</title>
<path fill="none" stroke="black" d="M256.9,-629.01C337.43,-620.7 287.6,-507.55 355,-446.5 373.09,-430.12 382.59,-421.43 401.2,-418.58"/>
<polyline fill="none" stroke="black" points="247,-629.5 251.99,-629.26"/>
<polyline fill="none" stroke="black" points="251.99,-629.26 256.99,-629.01"/>
<polygon fill="black" stroke="black" points="407.19,-418.18 417.46,-422.01 412.51,-417.83 416.83,-417.54 416.83,-417.54 416.83,-417.54 412.51,-417.83 416.87,-413.03 407.19,-418.18"/>
<polyline fill="none" stroke="black" points="405.97,-418.26 400.98,-418.59"/>
</g>
<!-- gdm.distribution.equipment.capacitor_equipment.CapacitorEquipment -->
<g id="node8" class="node">
<title>gdm.distribution.equipment.capacitor_equipment.CapacitorEquipment</title>
<g id="a_node8"><a xlink:title="gdm.distribution.equipment.capacitor_equipment.CapacitorEquipment&#10;&#10;Interface for capacitor model.&#10;">
<polygon fill="none" stroke="black" points="359,-238.5 359,-260.5 632,-260.5 632,-238.5 359,-238.5"/>
<text text-anchor="start" x="434" y="-245.2" font-family="Times New Roman,Times,Liberation Serif,serif" font-weight="bold" font-size="14.00">CapacitorEquipment</text>
<polygon fill="none" stroke="black" points="359,-216.5 359,-238.5 457,-238.5 457,-216.5 359,-216.5"/>
<text text-anchor="start" x="396" y="-222.2" font-family="Times New Roman,Times,Liberation Serif,serif" font-size="14.00">uuid</text>
<polygon fill="none" stroke="black" points="457,-216.5 457,-238.5 632,-238.5 632,-216.5 457,-216.5"/>
<text text-anchor="start" x="527.62" y="-222.2" font-family="Times New Roman,Times,Liberation Serif,serif" font-size="14.00">UUID</text>
<polygon fill="none" stroke="black" points="359,-194.5 359,-216.5 457,-216.5 457,-194.5 359,-194.5"/>
<text text-anchor="start" x="393" y="-200.2" font-family="Times New Roman,Times,Liberation Serif,serif" font-size="14.00">name</text>
<polygon fill="none" stroke="black" points="457,-194.5 457,-216.5 632,-216.5 632,-194.5 457,-194.5"/>
<text text-anchor="start" x="537.75" y="-200.2" font-family="Times New Roman,Times,Liberation Serif,serif" font-size="14.00">str</text>
<polygon fill="none" stroke="black" points="359,-172.5 359,-194.5 457,-194.5 457,-172.5 359,-172.5"/>
<text text-anchor="start" x="361.88" y="-178.2" font-family="Times New Roman,Times,Liberation Serif,serif" font-size="14.00">phase_capacitors</text>
<polygon fill="none" stroke="black" points="457,-172.5 457,-194.5 632,-194.5 632,-172.5 457,-172.5"/>
<text text-anchor="start" x="459.75" y="-178.2" font-family="Times New Roman,Times,Liberation Serif,serif" font-size="14.00">list[PhaseCapacitorEquipment]</text>
<polygon fill="none" stroke="black" points="359,-150.5 359,-172.5 457,-172.5 457,-150.5 359,-150.5"/>
<text text-anchor="start" x="363.38" y="-156.2" font-family="Times New Roman,Times,Liberation Serif,serif" font-size="14.00">connection_type</text>
<polygon fill="none" stroke="black" points="457,-150.5 457,-172.5 632,-172.5 632,-150.5 457,-150.5"/>
<text text-anchor="start" x="499.88" y="-156.2" font-family="Times New Roman,Times,Liberation Serif,serif" font-size="14.00">ConnectionType</text>
<polygon fill="none" stroke="black" points="359,-128.5 359,-150.5 457,-150.5 457,-128.5 359,-128.5"/>
<text text-anchor="start" x="362.25" y="-134.2" font-family="Times New Roman,Times,Liberation Serif,serif" font-size="14.00">rated_voltage</text>
<polygon fill="none" stroke="black" points="457,-128.5 457,-150.5 632,-150.5 632,-128.5 457,-128.5"/>
<text text-anchor="start" x="502.12" y="-134.2" font-family="Times New Roman,Times,Liberation Serif,serif" font-size="14.00">PositiveVoltage</text>
<polygon fill="none" stroke="black" points="359,-106.5 359,-128.5 457,-128.5 457,-106.5 359,-106.5"/>
<text text-anchor="start" x="373.12" y="-112.2" font-family="Times New Roman,Times,Liberation Serif,serif" font-size="14.00">voltage_type</text>
<polygon fill="none" stroke="black" points="457,-106.5 457,-128.5 632,-128.5 632,-106.5 457,-106.5"/>
<text text-anchor="start" x="507.75" y="-112.2" font-family="Times New Roman,Times,Liberation Serif,serif" font-size="14.00">VoltageTypes</text>
</a>
</g>
</g>
<!-- gdm.distribution.components.distribution_capacitor.DistributionCapacitor&#45;&gt;gdm.distribution.equipment.capacitor_equipment.CapacitorEquipment -->
<g id="edge9" class="edge">
<title>gdm.distribution.components.distribution_capacitor.DistributionCapacitor:e&#45;&gt;gdm.distribution.equipment.capacitor_equipment.CapacitorEquipment:w</title>
<path fill="none" stroke="black" d="M256.76,-607.05C399.79,-593.42 207.57,-271.3 342.87,-250.55"/>
<polyline fill="none" stroke="black" points="247,-607.5 251.99,-607.27"/>
<polyline fill="none" stroke="black" points="251.99,-607.27 256.99,-607.04"/>
<polyline fill="none" stroke="black" points="357.5,-249.5 352.51,-249.86"/>
<polygon fill="black" stroke="black" points="351.16,-244.94 351.87,-254.92 349.88,-255.06 349.16,-245.08 351.16,-244.94"/>
<polyline fill="none" stroke="black" points="352.51,-249.86 347.53,-250.21"/>
<polygon fill="black" stroke="black" points="346.17,-245.3 346.89,-255.27 344.89,-255.42 344.18,-245.44 346.17,-245.3"/>
<polyline fill="none" stroke="black" points="347.53,-250.21 342.54,-250.57"/>
</g>
<!-- gdm.distribution.equipment.phase_capacitor_equipment.PhaseCapacitorEquipment -->
<g id="node9" class="node">
<title>gdm.distribution.equipment.phase_capacitor_equipment.PhaseCapacitorEquipment</title>
<g id="a_node9"><a xlink:title="gdm.distribution.equipment.phase_capacitor_equipment.PhaseCapacitorEquipment&#10;&#10;Interface for phase capacitor.&#10;">
<polygon fill="none" stroke="black" points="744,-172.5 744,-194.5 998,-194.5 998,-172.5 744,-172.5"/>
<text text-anchor="start" x="792.62" y="-179.2" font-family="Times New Roman,Times,Liberation Serif,serif" font-weight="bold" font-size="14.00">PhaseCapacitorEquipment</text>
<polygon fill="none" stroke="black" points="744,-150.5 744,-172.5 867,-172.5 867,-150.5 744,-150.5"/>
<text text-anchor="start" x="793.5" y="-156.2" font-family="Times New Roman,Times,Liberation Serif,serif" font-size="14.00">uuid</text>
<polygon fill="none" stroke="black" points="867,-150.5 867,-172.5 998,-172.5 998,-150.5 867,-150.5"/>
<text text-anchor="start" x="915.62" y="-156.2" font-family="Times New Roman,Times,Liberation Serif,serif" font-size="14.00">UUID</text>
<polygon fill="none" stroke="black" points="744,-128.5 744,-150.5 867,-150.5 867,-128.5 744,-128.5"/>
<text text-anchor="start" x="790.5" y="-134.2" font-family="Times New Roman,Times,Liberation Serif,serif" font-size="14.00">name</text>
<polygon fill="none" stroke="black" points="867,-128.5 867,-150.5 998,-150.5 998,-128.5 867,-128.5"/>
<text text-anchor="start" x="925.75" y="-134.2" font-family="Times New Roman,Times,Liberation Serif,serif" font-size="14.00">str</text>
<polygon fill="none" stroke="black" points="744,-106.5 744,-128.5 867,-128.5 867,-106.5 744,-106.5"/>
<text text-anchor="start" x="778.88" y="-112.2" font-family="Times New Roman,Times,Liberation Serif,serif" font-size="14.00">resistance</text>
<polygon fill="none" stroke="black" points="867,-106.5 867,-128.5 998,-128.5 998,-106.5 867,-106.5"/>
<text text-anchor="start" x="881.88" y="-112.2" font-family="Times New Roman,Times,Liberation Serif,serif" font-size="14.00">PositiveResistance</text>
<polygon fill="none" stroke="black" points="744,-84.5 744,-106.5 867,-106.5 867,-84.5 744,-84.5"/>
<text text-anchor="start" x="780" y="-90.2" font-family="Times New Roman,Times,Liberation Serif,serif" font-size="14.00">reactance</text>
<polygon fill="none" stroke="black" points="867,-84.5 867,-106.5 998,-106.5 998,-84.5 867,-84.5"/>
<text text-anchor="start" x="883" y="-90.2" font-family="Times New Roman,Times,Liberation Serif,serif" font-size="14.00">PositiveReactance</text>
<polygon fill="none" stroke="black" points="744,-62.5 744,-84.5 867,-84.5 867,-62.5 744,-62.5"/>
<text text-anchor="start" x="747" y="-68.2" font-family="Times New Roman,Times,Liberation Serif,serif" font-size="14.00">rated_reactive_power</text>
<polygon fill="none" stroke="black" points="867,-62.5 867,-84.5 998,-84.5 998,-62.5 867,-62.5"/>
<text text-anchor="start" x="869.88" y="-68.2" font-family="Times New Roman,Times,Liberation Serif,serif" font-size="14.00">PositiveReactivePower</text>
<polygon fill="none" stroke="black" points="744,-40.5 744,-62.5 867,-62.5 867,-40.5 744,-40.5"/>
<text text-anchor="start" x="763.88" y="-46.2" font-family="Times New Roman,Times,Liberation Serif,serif" font-size="14.00">num_banks_on</text>
<polygon fill="none" stroke="black" points="867,-40.5 867,-62.5 998,-62.5 998,-40.5 867,-40.5"/>
<text text-anchor="start" x="925.38" y="-46.2" font-family="Times New Roman,Times,Liberation Serif,serif" font-size="14.00">int</text>
<polygon fill="none" stroke="black" points="744,-18.5 744,-40.5 867,-40.5 867,-18.5 744,-18.5"/>
<text text-anchor="start" x="774" y="-24.2" font-family="Times New Roman,Times,Liberation Serif,serif" font-size="14.00">num_banks</text>
<polygon fill="none" stroke="black" points="867,-18.5 867,-40.5 998,-40.5 998,-18.5 867,-18.5"/>
<text text-anchor="start" x="925.38" y="-24.2" font-family="Times New Roman,Times,Liberation Serif,serif" font-size="14.00">int</text>
</a>
</g>
</g>
<!-- gdm.distribution.equipment.capacitor_equipment.CapacitorEquipment&#45;&gt;gdm.distribution.equipment.phase_capacitor_equipment.PhaseCapacitorEquipment -->
<g id="edge11" class="edge">
<title>gdm.distribution.equipment.capacitor_equipment.CapacitorEquipment:e&#45;&gt;gdm.distribution.equipment.phase_capacitor_equipment.PhaseCapacitorEquipment:w</title>
<path fill="none" stroke="black" d="M643.34,-183.5C679.37,-183.5 694.46,-183.5 728.25,-183.5"/>
<polyline fill="none" stroke="black" points="633.5,-183.5 638.5,-183.5"/>
<polyline fill="none" stroke="black" points="638.5,-183.5 643.5,-183.5"/>
<polygon fill="black" stroke="black" points="733.67,-183.5 743.67,-188 739,-183.5 743.33,-183.5 743.33,-183.5 743.33,-183.5 739,-183.5 743.67,-179 733.67,-183.5"/>
<polyline fill="none" stroke="black" points="732.45,-183.5 727.45,-183.5"/>
</g>
</g>
</svg>
