<?xml version="1.0" encoding="UTF-8" standalone="no"?>
<!DOCTYPE svg PUBLIC "-//W3C//DTD SVG 1.1//EN"
 "http://www.w3.org/Graphics/SVG/1.1/DTD/svg11.dtd">
<!-- Generated by graphviz version 12.2.1 (20241206.2353)
 -->
<!-- Title: Entity Relationship Diagram created by erdantic Pages: 1 -->
<svg width="1149pt" height="823pt"
 viewBox="0.00 0.00 1148.75 822.75" xmlns="http://www.w3.org/2000/svg" xmlns:xlink="http://www.w3.org/1999/xlink">
<g id="graph0" class="graph" transform="scale(1 1) rotate(0) translate(4 818.75)">
<title>Entity Relationship Diagram created by erdantic</title>
<polygon fill="white" stroke="none" points="-4,4 -4,-818.75 1144.75,-818.75 1144.75,4 -4,4"/>
<text text-anchor="middle" x="570.38" y="-5.95" font-family="Times New Roman,Times,Liberation Serif,serif" font-size="9.00" fill="#a8a8a8">Created by erdantic v1.0.5 &lt;https://github.com/drivendataorg/erdantic&gt;</text>
<!-- gdm.distribution.common.limitset.VoltageLimitSet -->
<g id="node1" class="node">
<title>gdm.distribution.common.limitset.VoltageLimitSet</title>
<g id="a_node1"><a xlink:title="gdm.distribution.common.limitset.VoltageLimitSet&#10;&#10;Data model for voltage limit set.&#10;">
<polygon fill="none" stroke="black" points="745.88,-518.5 745.88,-541 898.88,-541 898.88,-518.5 745.88,-518.5"/>
<text text-anchor="start" x="775.12" y="-525.7" font-family="Times New Roman,Times,Liberation Serif,serif" font-weight="bold" font-size="14.00">VoltageLimitSet</text>
<polygon fill="none" stroke="black" points="745.88,-496 745.88,-518.5 808.12,-518.5 808.12,-496 745.88,-496"/>
<text text-anchor="start" x="765" y="-502.2" font-family="Times New Roman,Times,Liberation Serif,serif" font-size="14.00">uuid</text>
<polygon fill="none" stroke="black" points="808.12,-496 808.12,-518.5 898.88,-518.5 898.88,-496 808.12,-496"/>
<text text-anchor="start" x="836.62" y="-502.2" font-family="Times New Roman,Times,Liberation Serif,serif" font-size="14.00">UUID</text>
<polygon fill="none" stroke="black" points="745.88,-473.5 745.88,-496 808.12,-496 808.12,-473.5 745.88,-473.5"/>
<text text-anchor="start" x="762" y="-479.7" font-family="Times New Roman,Times,Liberation Serif,serif" font-size="14.00">name</text>
<polygon fill="none" stroke="black" points="808.12,-473.5 808.12,-496 898.88,-496 898.88,-473.5 808.12,-473.5"/>
<text text-anchor="start" x="846.75" y="-479.7" font-family="Times New Roman,Times,Liberation Serif,serif" font-size="14.00">str</text>
<polygon fill="none" stroke="black" points="745.88,-451 745.88,-473.5 808.12,-473.5 808.12,-451 745.88,-451"/>
<text text-anchor="start" x="748.88" y="-457.2" font-family="Times New Roman,Times,Liberation Serif,serif" font-size="14.00">limit_type</text>
<polygon fill="none" stroke="black" points="808.12,-451 808.12,-473.5 898.88,-473.5 898.88,-451 808.12,-451"/>
<text text-anchor="start" x="824.25" y="-457.2" font-family="Times New Roman,Times,Liberation Serif,serif" font-size="14.00">LimitType</text>
<polygon fill="none" stroke="black" points="745.88,-428.5 745.88,-451 808.12,-451 808.12,-428.5 745.88,-428.5"/>
<text text-anchor="start" x="762.38" y="-434.7" font-family="Times New Roman,Times,Liberation Serif,serif" font-size="14.00">value</text>
<polygon fill="none" stroke="black" points="808.12,-428.5 808.12,-451 898.88,-451 898.88,-428.5 808.12,-428.5"/>
<text text-anchor="start" x="811.12" y="-434.7" font-family="Times New Roman,Times,Liberation Serif,serif" font-size="14.00">PositiveVoltage</text>
</a>
</g>
</g>
<!-- gdm.distribution.components.distribution_bus.DistributionBus -->
<g id="node2" class="node">
<title>gdm.distribution.components.distribution_bus.DistributionBus</title>
<g id="a_node2"><a xlink:title="gdm.distribution.components.distribution_bus.DistributionBus&#10;&#10;Data model for distribution bus.&#10;&#10;Examples:&#10; &#160;&#160;&#160;&gt;&gt;&gt; from gdm import DistributionBus&#10; &#160;&#160;&#160;&gt;&gt;&gt; DistributionBus.example()&#10;">
<polygon fill="none" stroke="black" points="356.25,-591.75 356.25,-614.25 620.25,-614.25 620.25,-591.75 356.25,-591.75"/>
<text text-anchor="start" x="442.12" y="-598.95" font-family="Times New Roman,Times,Liberation Serif,serif" font-weight="bold" font-size="14.00">DistributionBus</text>
<polygon fill="none" stroke="black" points="356.25,-569.25 356.25,-591.75 435.75,-591.75 435.75,-569.25 356.25,-569.25"/>
<text text-anchor="start" x="384" y="-575.45" font-family="Times New Roman,Times,Liberation Serif,serif" font-size="14.00">uuid</text>
<polygon fill="none" stroke="black" points="435.75,-569.25 435.75,-591.75 620.25,-591.75 620.25,-569.25 435.75,-569.25"/>
<text text-anchor="start" x="511.12" y="-575.45" font-family="Times New Roman,Times,Liberation Serif,serif" font-size="14.00">UUID</text>
<polygon fill="none" stroke="black" points="356.25,-546.75 356.25,-569.25 435.75,-569.25 435.75,-546.75 356.25,-546.75"/>
<text text-anchor="start" x="381" y="-552.95" font-family="Times New Roman,Times,Liberation Serif,serif" font-size="14.00">name</text>
<polygon fill="none" stroke="black" points="435.75,-546.75 435.75,-569.25 620.25,-569.25 620.25,-546.75 435.75,-546.75"/>
<text text-anchor="start" x="521.25" y="-552.95" font-family="Times New Roman,Times,Liberation Serif,serif" font-size="14.00">str</text>
<polygon fill="none" stroke="black" points="356.25,-524.25 356.25,-546.75 435.75,-546.75 435.75,-524.25 356.25,-524.25"/>
<text text-anchor="start" x="368.62" y="-530.45" font-family="Times New Roman,Times,Liberation Serif,serif" font-size="14.00">substation</text>
<polygon fill="none" stroke="black" points="435.75,-524.25 435.75,-546.75 620.25,-546.75 620.25,-524.25 435.75,-524.25"/>
<text text-anchor="start" x="438.75" y="-530.45" font-family="Times New Roman,Times,Liberation Serif,serif" font-size="14.00">Optional[DistributionSubstation]</text>
<polygon fill="none" stroke="black" points="356.25,-501.75 356.25,-524.25 435.75,-524.25 435.75,-501.75 356.25,-501.75"/>
<text text-anchor="start" x="379.12" y="-507.95" font-family="Times New Roman,Times,Liberation Serif,serif" font-size="14.00">feeder</text>
<polygon fill="none" stroke="black" points="435.75,-501.75 435.75,-524.25 620.25,-524.25 620.25,-501.75 435.75,-501.75"/>
<text text-anchor="start" x="448.88" y="-507.95" font-family="Times New Roman,Times,Liberation Serif,serif" font-size="14.00">Optional[DistributionFeeder]</text>
<polygon fill="none" stroke="black" points="356.25,-479.25 356.25,-501.75 435.75,-501.75 435.75,-479.25 356.25,-479.25"/>
<text text-anchor="start" x="361.12" y="-485.45" font-family="Times New Roman,Times,Liberation Serif,serif" font-size="14.00">voltage_type</text>
<polygon fill="none" stroke="black" points="435.75,-479.25 435.75,-501.75 620.25,-501.75 620.25,-479.25 435.75,-479.25"/>
<text text-anchor="start" x="490.88" y="-485.45" font-family="Times New Roman,Times,Liberation Serif,serif" font-size="14.00">VoltageTypes</text>
<polygon fill="none" stroke="black" points="356.25,-456.75 356.25,-479.25 435.75,-479.25 435.75,-456.75 356.25,-456.75"/>
<text text-anchor="start" x="378" y="-462.95" font-family="Times New Roman,Times,Liberation Serif,serif" font-size="14.00">phases</text>
<polygon fill="none" stroke="black" points="435.75,-456.75 435.75,-479.25 620.25,-479.25 620.25,-456.75 435.75,-456.75"/>
<text text-anchor="start" x="499.5" y="-462.95" font-family="Times New Roman,Times,Liberation Serif,serif" font-size="14.00">list[Phase]</text>
<polygon fill="none" stroke="black" points="356.25,-434.25 356.25,-456.75 435.75,-456.75 435.75,-434.25 356.25,-434.25"/>
<text text-anchor="start" x="360.38" y="-440.45" font-family="Times New Roman,Times,Liberation Serif,serif" font-size="14.00">voltagelimits</text>
<polygon fill="none" stroke="black" points="435.75,-434.25 435.75,-456.75 620.25,-456.75 620.25,-434.25 435.75,-434.25"/>
<text text-anchor="start" x="470.62" y="-440.45" font-family="Times New Roman,Times,Liberation Serif,serif" font-size="14.00">list[VoltageLimitSet]</text>
<polygon fill="none" stroke="black" points="356.25,-411.75 356.25,-434.25 435.75,-434.25 435.75,-411.75 356.25,-411.75"/>
<text text-anchor="start" x="359.25" y="-417.95" font-family="Times New Roman,Times,Liberation Serif,serif" font-size="14.00">rated_voltage</text>
<polygon fill="none" stroke="black" points="435.75,-411.75 435.75,-434.25 620.25,-434.25 620.25,-411.75 435.75,-411.75"/>
<text text-anchor="start" x="485.62" y="-417.95" font-family="Times New Roman,Times,Liberation Serif,serif" font-size="14.00">PositiveVoltage</text>
<polygon fill="none" stroke="black" points="356.25,-389.25 356.25,-411.75 435.75,-411.75 435.75,-389.25 356.25,-389.25"/>
<text text-anchor="start" x="367.5" y="-395.45" font-family="Times New Roman,Times,Liberation Serif,serif" font-size="14.00">coordinate</text>
<polygon fill="none" stroke="black" points="435.75,-389.25 435.75,-411.75 620.25,-411.75 620.25,-389.25 435.75,-389.25"/>
<text text-anchor="start" x="475.88" y="-395.45" font-family="Times New Roman,Times,Liberation Serif,serif" font-size="14.00">Optional[Location]</text>
</a>
</g>
</g>
<!-- gdm.distribution.components.distribution_bus.DistributionBus&#45;&gt;gdm.distribution.common.limitset.VoltageLimitSet -->
<g id="edge1" class="edge">
<title>gdm.distribution.components.distribution_bus.DistributionBus:e&#45;&gt;gdm.distribution.common.limitset.VoltageLimitSet:w</title>
<path fill="none" stroke="black" d="M630.22,-446.18C681.43,-453.45 681.92,-516.98 729.67,-528.1"/>
<polyline fill="none" stroke="black" points="620.25,-445.5 625.24,-445.84"/>
<polyline fill="none" stroke="black" points="625.24,-445.84 630.23,-446.18"/>
<polygon fill="black" stroke="black" points="734.6,-528.63 744.06,-534.19 739.9,-529.21 744.21,-529.68 744.21,-529.68 744.21,-529.68 739.9,-529.21 745.03,-525.24 734.6,-528.63"/>
<polyline fill="none" stroke="black" points="733.39,-528.5 728.42,-527.96"/>
</g>
<!-- gdm.distribution.components.distribution_feeder.DistributionFeeder -->
<g id="node3" class="node">
<title>gdm.distribution.components.distribution_feeder.DistributionFeeder</title>
<g id="a_node3"><a xlink:title="gdm.distribution.components.distribution_feeder.DistributionFeeder&#10;&#10;Class interface for distribution feeder.&#10;">
<polygon fill="none" stroke="black" points="1024.5,-659 1024.5,-681.5 1140.75,-681.5 1140.75,-659 1024.5,-659"/>
<text text-anchor="start" x="1027.5" y="-666.2" font-family="Times New Roman,Times,Liberation Serif,serif" font-weight="bold" font-size="14.00">DistributionFeeder</text>
<polygon fill="none" stroke="black" points="1024.5,-636.5 1024.5,-659 1080.75,-659 1080.75,-636.5 1024.5,-636.5"/>
<text text-anchor="start" x="1040.62" y="-642.7" font-family="Times New Roman,Times,Liberation Serif,serif" font-size="14.00">uuid</text>
<polygon fill="none" stroke="black" points="1080.75,-636.5 1080.75,-659 1140.75,-659 1140.75,-636.5 1080.75,-636.5"/>
<text text-anchor="start" x="1093.88" y="-642.7" font-family="Times New Roman,Times,Liberation Serif,serif" font-size="14.00">UUID</text>
<polygon fill="none" stroke="black" points="1024.5,-614 1024.5,-636.5 1080.75,-636.5 1080.75,-614 1024.5,-614"/>
<text text-anchor="start" x="1037.62" y="-620.2" font-family="Times New Roman,Times,Liberation Serif,serif" font-size="14.00">name</text>
<polygon fill="none" stroke="black" points="1080.75,-614 1080.75,-636.5 1140.75,-636.5 1140.75,-614 1080.75,-614"/>
<text text-anchor="start" x="1104" y="-620.2" font-family="Times New Roman,Times,Liberation Serif,serif" font-size="14.00">str</text>
</a>
</g>
</g>
<!-- gdm.distribution.components.distribution_bus.DistributionBus&#45;&gt;gdm.distribution.components.distribution_feeder.DistributionFeeder -->
<g id="edge2" class="edge">
<title>gdm.distribution.components.distribution_bus.DistributionBus:e&#45;&gt;gdm.distribution.components.distribution_feeder.DistributionFeeder:w</title>
<path fill="none" stroke="black" d="M630.07,-513.34C673.55,-516.47 683.06,-540.68 728.25,-558.75 788.33,-582.77 929.05,-656.95 1005.96,-668.68"/>
<polyline fill="none" stroke="black" points="620.25,-513 625.25,-513.17"/>
<polyline fill="none" stroke="black" points="625.25,-513.17 630.24,-513.35"/>
<polyline fill="none" stroke="black" points="1024.5,-670.25 1019.52,-669.83"/>
<polygon fill="black" stroke="black" points="1018.94,-664.76 1018.1,-674.73 1016.11,-674.56 1016.95,-664.59 1018.94,-664.76"/>
<polyline fill="none" stroke="black" points="1019.52,-669.83 1014.54,-669.41"/>
<ellipse fill="none" stroke="black" cx="1010.05" cy="-669.03" rx="4" ry="4"/>
</g>
<!-- gdm.distribution.components.distribution_substation.DistributionSubstation -->
<g id="node4" class="node">
<title>gdm.distribution.components.distribution_substation.DistributionSubstation</title>
<g id="a_node4"><a xlink:title="gdm.distribution.components.distribution_substation.DistributionSubstation&#10;&#10;Class interface for distribution feeder.&#10;">
<polygon fill="none" stroke="black" points="733.12,-792.25 733.12,-814.75 911.62,-814.75 911.62,-792.25 733.12,-792.25"/>
<text text-anchor="start" x="756.38" y="-799.45" font-family="Times New Roman,Times,Liberation Serif,serif" font-weight="bold" font-size="14.00">DistributionSubstation</text>
<polygon fill="none" stroke="black" points="733.12,-769.75 733.12,-792.25 778.12,-792.25 778.12,-769.75 733.12,-769.75"/>
<text text-anchor="start" x="743.62" y="-775.95" font-family="Times New Roman,Times,Liberation Serif,serif" font-size="14.00">uuid</text>
<polygon fill="none" stroke="black" points="778.12,-769.75 778.12,-792.25 911.62,-792.25 911.62,-769.75 778.12,-769.75"/>
<text text-anchor="start" x="828" y="-775.95" font-family="Times New Roman,Times,Liberation Serif,serif" font-size="14.00">UUID</text>
<polygon fill="none" stroke="black" points="733.12,-747.25 733.12,-769.75 778.12,-769.75 778.12,-747.25 733.12,-747.25"/>
<text text-anchor="start" x="740.62" y="-753.45" font-family="Times New Roman,Times,Liberation Serif,serif" font-size="14.00">name</text>
<polygon fill="none" stroke="black" points="778.12,-747.25 778.12,-769.75 911.62,-769.75 911.62,-747.25 778.12,-747.25"/>
<text text-anchor="start" x="838.12" y="-753.45" font-family="Times New Roman,Times,Liberation Serif,serif" font-size="14.00">str</text>
<polygon fill="none" stroke="black" points="733.12,-724.75 733.12,-747.25 778.12,-747.25 778.12,-724.75 733.12,-724.75"/>
<text text-anchor="start" x="736.12" y="-730.95" font-family="Times New Roman,Times,Liberation Serif,serif" font-size="14.00">feeders</text>
<polygon fill="none" stroke="black" points="778.12,-724.75 778.12,-747.25 911.62,-747.25 911.62,-724.75 778.12,-724.75"/>
<text text-anchor="start" x="781.12" y="-730.95" font-family="Times New Roman,Times,Liberation Serif,serif" font-size="14.00">list[DistributionFeeder]</text>
</a>
</g>
</g>
<!-- gdm.distribution.components.distribution_bus.DistributionBus&#45;&gt;gdm.distribution.components.distribution_substation.DistributionSubstation -->
<g id="edge3" class="edge">
<title>gdm.distribution.components.distribution_bus.DistributionBus:e&#45;&gt;gdm.distribution.components.distribution_substation.DistributionSubstation:w</title>
<path fill="none" stroke="black" d="M630.23,-536.09C735.33,-549.18 620.84,-776.02 713.49,-801.23"/>
<polyline fill="none" stroke="black" points="620.25,-535.5 625.24,-535.8"/>
<polyline fill="none" stroke="black" points="625.24,-535.8 630.23,-536.09"/>
<polyline fill="none" stroke="black" points="732.12,-803.5 727.16,-802.89"/>
<polygon fill="black" stroke="black" points="726.77,-797.81 725.56,-807.74 723.58,-807.49 724.79,-797.57 726.77,-797.81"/>
<polyline fill="none" stroke="black" points="727.16,-802.89 722.2,-802.29"/>
<ellipse fill="none" stroke="black" cx="717.73" cy="-801.74" rx="4" ry="4"/>
</g>
<!-- infrasys.location.Location -->
<g id="node5" class="node">
<title>infrasys.location.Location</title>
<g id="a_node5"><a xlink:title="infrasys.location.Location&#10;&#10;Specifies geographic location.&#10;">
<polygon fill="none" stroke="black" points="774.75,-369.75 774.75,-392.25 870,-392.25 870,-369.75 774.75,-369.75"/>
<text text-anchor="start" x="796.88" y="-376.95" font-family="Times New Roman,Times,Liberation Serif,serif" font-weight="bold" font-size="14.00">Location</text>
<polygon fill="none" stroke="black" points="774.75,-347.25 774.75,-369.75 810.75,-369.75 810.75,-347.25 774.75,-347.25"/>
<text text-anchor="start" x="780.75" y="-353.45" font-family="Times New Roman,Times,Liberation Serif,serif" font-size="14.00">uuid</text>
<polygon fill="none" stroke="black" points="810.75,-347.25 810.75,-369.75 870,-369.75 870,-347.25 810.75,-347.25"/>
<text text-anchor="start" x="823.5" y="-353.45" font-family="Times New Roman,Times,Liberation Serif,serif" font-size="14.00">UUID</text>
<polygon fill="none" stroke="black" points="774.75,-324.75 774.75,-347.25 810.75,-347.25 810.75,-324.75 774.75,-324.75"/>
<text text-anchor="start" x="777.75" y="-330.95" font-family="Times New Roman,Times,Liberation Serif,serif" font-size="14.00">name</text>
<polygon fill="none" stroke="black" points="810.75,-324.75 810.75,-347.25 870,-347.25 870,-324.75 810.75,-324.75"/>
<text text-anchor="start" x="833.62" y="-330.95" font-family="Times New Roman,Times,Liberation Serif,serif" font-size="14.00">str</text>
<polygon fill="none" stroke="black" points="774.75,-302.25 774.75,-324.75 810.75,-324.75 810.75,-302.25 774.75,-302.25"/>
<text text-anchor="start" x="789.38" y="-308.45" font-family="Times New Roman,Times,Liberation Serif,serif" font-size="14.00">x</text>
<polygon fill="none" stroke="black" points="810.75,-302.25 810.75,-324.75 870,-324.75 870,-302.25 810.75,-302.25"/>
<text text-anchor="start" x="828" y="-308.45" font-family="Times New Roman,Times,Liberation Serif,serif" font-size="14.00">float</text>
<polygon fill="none" stroke="black" points="774.75,-279.75 774.75,-302.25 810.75,-302.25 810.75,-279.75 774.75,-279.75"/>
<text text-anchor="start" x="789.38" y="-285.95" font-family="Times New Roman,Times,Liberation Serif,serif" font-size="14.00">y</text>
<polygon fill="none" stroke="black" points="810.75,-279.75 810.75,-302.25 870,-302.25 870,-279.75 810.75,-279.75"/>
<text text-anchor="start" x="828" y="-285.95" font-family="Times New Roman,Times,Liberation Serif,serif" font-size="14.00">float</text>
<polygon fill="none" stroke="black" points="774.75,-257.25 774.75,-279.75 810.75,-279.75 810.75,-257.25 774.75,-257.25"/>
<text text-anchor="start" x="784.88" y="-263.45" font-family="Times New Roman,Times,Liberation Serif,serif" font-size="14.00">crs</text>
<polygon fill="none" stroke="black" points="810.75,-257.25 810.75,-279.75 870,-279.75 870,-257.25 810.75,-257.25"/>
<text text-anchor="start" x="813.75" y="-263.45" font-family="Times New Roman,Times,Liberation Serif,serif" font-size="14.00">str | None</text>
</a>
</g>
</g>
<!-- gdm.distribution.components.distribution_bus.DistributionBus&#45;&gt;infrasys.location.Location -->
<g id="edge4" class="edge">
<title>gdm.distribution.components.distribution_bus.DistributionBus:e&#45;&gt;infrasys.location.Location:w</title>
<path fill="none" stroke="black" d="M629.96,-400.37C684.42,-398.82 704.22,-384.48 754.87,-381.53"/>
<polyline fill="none" stroke="black" points="620.25,-400.5 625.25,-400.43"/>
<polyline fill="none" stroke="black" points="625.25,-400.43 630.25,-400.36"/>
<polyline fill="none" stroke="black" points="773.75,-381 768.75,-381.14"/>
<polygon fill="black" stroke="black" points="767.61,-376.17 767.89,-386.17 765.89,-386.22 765.61,-376.23 767.61,-376.17"/>
<polyline fill="none" stroke="black" points="768.75,-381.14 763.75,-381.28"/>
<ellipse fill="none" stroke="black" cx="759.26" cy="-381.41" rx="4" ry="4"/>
</g>
<!-- gdm.distribution.components.distribution_substation.DistributionSubstation&#45;&gt;gdm.distribution.components.distribution_feeder.DistributionFeeder -->
<g id="edge5" class="edge">
<title>gdm.distribution.components.distribution_substation.DistributionSubstation:e&#45;&gt;gdm.distribution.components.distribution_feeder.DistributionFeeder:w</title>
<path fill="none" stroke="black" d="M922.46,-735.31C965.17,-729.01 969.77,-681.72 1009.3,-671.99"/>
<polyline fill="none" stroke="black" points="912.62,-736 917.61,-735.65"/>
<polyline fill="none" stroke="black" points="917.61,-735.65 922.6,-735.3"/>
<polygon fill="black" stroke="black" points="1014.23,-671.43 1024.68,-674.76 1019.53,-670.82 1023.84,-670.33 1023.84,-670.33 1023.84,-670.33 1019.53,-670.82 1023.65,-665.82 1014.23,-671.43"/>
<polyline fill="none" stroke="black" points="1013.02,-671.57 1008.05,-672.14"/>
</g>
<!-- gdm.distribution.components.distribution_vsource.DistributionVoltageSource -->
<g id="node6" class="node">
<title>gdm.distribution.components.distribution_vsource.DistributionVoltageSource</title>
<g id="a_node6"><a xlink:title="gdm.distribution.components.distribution_vsource.DistributionVoltageSource&#10;&#10;Data model for distribution substation.&#10;">
<polygon fill="none" stroke="black" points="0,-737.5 0,-760 248.25,-760 248.25,-737.5 0,-737.5"/>
<text text-anchor="start" x="47.25" y="-744.7" font-family="Times New Roman,Times,Liberation Serif,serif" font-weight="bold" font-size="14.00">DistributionVoltageSource</text>
<polygon fill="none" stroke="black" points="0,-715 0,-737.5 63.75,-737.5 63.75,-715 0,-715"/>
<text text-anchor="start" x="19.88" y="-721.2" font-family="Times New Roman,Times,Liberation Serif,serif" font-size="14.00">uuid</text>
<polygon fill="none" stroke="black" points="63.75,-715 63.75,-737.5 248.25,-737.5 248.25,-715 63.75,-715"/>
<text text-anchor="start" x="139.12" y="-721.2" font-family="Times New Roman,Times,Liberation Serif,serif" font-size="14.00">UUID</text>
<polygon fill="none" stroke="black" points="0,-692.5 0,-715 63.75,-715 63.75,-692.5 0,-692.5"/>
<text text-anchor="start" x="16.88" y="-698.7" font-family="Times New Roman,Times,Liberation Serif,serif" font-size="14.00">name</text>
<polygon fill="none" stroke="black" points="63.75,-692.5 63.75,-715 248.25,-715 248.25,-692.5 63.75,-692.5"/>
<text text-anchor="start" x="149.25" y="-698.7" font-family="Times New Roman,Times,Liberation Serif,serif" font-size="14.00">str</text>
<polygon fill="none" stroke="black" points="0,-670 0,-692.5 63.75,-692.5 63.75,-670 0,-670"/>
<text text-anchor="start" x="4.5" y="-676.2" font-family="Times New Roman,Times,Liberation Serif,serif" font-size="14.00">substation</text>
<polygon fill="none" stroke="black" points="63.75,-670 63.75,-692.5 248.25,-692.5 248.25,-670 63.75,-670"/>
<text text-anchor="start" x="66.75" y="-676.2" font-family="Times New Roman,Times,Liberation Serif,serif" font-size="14.00">Optional[DistributionSubstation]</text>
<polygon fill="none" stroke="black" points="0,-647.5 0,-670 63.75,-670 63.75,-647.5 0,-647.5"/>
<text text-anchor="start" x="15" y="-653.7" font-family="Times New Roman,Times,Liberation Serif,serif" font-size="14.00">feeder</text>
<polygon fill="none" stroke="black" points="63.75,-647.5 63.75,-670 248.25,-670 248.25,-647.5 63.75,-647.5"/>
<text text-anchor="start" x="76.88" y="-653.7" font-family="Times New Roman,Times,Liberation Serif,serif" font-size="14.00">Optional[DistributionFeeder]</text>
<polygon fill="none" stroke="black" points="0,-625 0,-647.5 63.75,-647.5 63.75,-625 0,-625"/>
<text text-anchor="start" x="4.12" y="-631.2" font-family="Times New Roman,Times,Liberation Serif,serif" font-size="14.00">in_service</text>
<polygon fill="none" stroke="black" points="63.75,-625 63.75,-647.5 248.25,-647.5 248.25,-625 63.75,-625"/>
<text text-anchor="start" x="144" y="-631.2" font-family="Times New Roman,Times,Liberation Serif,serif" font-size="14.00">bool</text>
<polygon fill="none" stroke="black" points="0,-602.5 0,-625 63.75,-625 63.75,-602.5 0,-602.5"/>
<text text-anchor="start" x="22.5" y="-608.7" font-family="Times New Roman,Times,Liberation Serif,serif" font-size="14.00">bus</text>
<polygon fill="none" stroke="black" points="63.75,-602.5 63.75,-625 248.25,-625 248.25,-602.5 63.75,-602.5"/>
<text text-anchor="start" x="112.88" y="-608.7" font-family="Times New Roman,Times,Liberation Serif,serif" font-size="14.00">DistributionBus</text>
<polygon fill="none" stroke="black" points="0,-580 0,-602.5 63.75,-602.5 63.75,-580 0,-580"/>
<text text-anchor="start" x="13.88" y="-586.2" font-family="Times New Roman,Times,Liberation Serif,serif" font-size="14.00">phases</text>
<polygon fill="none" stroke="black" points="63.75,-580 63.75,-602.5 248.25,-602.5 248.25,-580 63.75,-580"/>
<text text-anchor="start" x="127.5" y="-586.2" font-family="Times New Roman,Times,Liberation Serif,serif" font-size="14.00">list[Phase]</text>
<polygon fill="none" stroke="black" points="0,-557.5 0,-580 63.75,-580 63.75,-557.5 0,-557.5"/>
<text text-anchor="start" x="3" y="-563.7" font-family="Times New Roman,Times,Liberation Serif,serif" font-size="14.00">equipment</text>
<polygon fill="none" stroke="black" points="63.75,-557.5 63.75,-580 248.25,-580 248.25,-557.5 63.75,-557.5"/>
<text text-anchor="start" x="86.62" y="-563.7" font-family="Times New Roman,Times,Liberation Serif,serif" font-size="14.00">VoltageSourceEquipment</text>
</a>
</g>
</g>
<!-- gdm.distribution.components.distribution_vsource.DistributionVoltageSource&#45;&gt;gdm.distribution.components.distribution_bus.DistributionBus -->
<g id="edge6" class="edge">
<title>gdm.distribution.components.distribution_vsource.DistributionVoltageSource:e&#45;&gt;gdm.distribution.components.distribution_bus.DistributionBus:w</title>
<path fill="none" stroke="black" d="M258.16,-613.59C293.48,-612.41 307.92,-605.12 341.28,-603.38"/>
<polyline fill="none" stroke="black" points="248.25,-613.75 253.25,-613.67"/>
<polyline fill="none" stroke="black" points="253.25,-613.67 258.25,-613.59"/>
<polyline fill="none" stroke="black" points="356.25,-603 351.25,-603.13"/>
<polygon fill="black" stroke="black" points="350.13,-598.15 350.38,-608.15 348.38,-608.2 348.13,-598.2 350.13,-598.15"/>
<polyline fill="none" stroke="black" points="351.25,-603.13 346.25,-603.25"/>
<polygon fill="black" stroke="black" points="345.13,-598.28 345.38,-608.28 343.38,-608.33 343.13,-598.33 345.13,-598.28"/>
<polyline fill="none" stroke="black" points="346.25,-603.25 341.25,-603.38"/>
</g>
<!-- gdm.distribution.components.distribution_vsource.DistributionVoltageSource&#45;&gt;gdm.distribution.components.distribution_feeder.DistributionFeeder -->
<g id="edge7" class="edge">
<title>gdm.distribution.components.distribution_vsource.DistributionVoltageSource:e&#45;&gt;gdm.distribution.components.distribution_feeder.DistributionFeeder:w</title>
<path fill="none" stroke="black" d="M257.79,-658.75C588.65,-658.96 679.32,-669.83 1005.73,-670.24"/>
<polyline fill="none" stroke="black" points="248.25,-658.75 253.25,-658.75"/>
<polyline fill="none" stroke="black" points="253.25,-658.75 258.25,-658.75"/>
<polyline fill="none" stroke="black" points="1024.5,-670.25 1019.5,-670.25"/>
<polygon fill="black" stroke="black" points="1018.5,-665.25 1018.5,-675.25 1016.5,-675.25 1016.5,-665.25 1018.5,-665.25"/>
<polyline fill="none" stroke="black" points="1019.5,-670.25 1014.5,-670.24"/>
<ellipse fill="none" stroke="black" cx="1010" cy="-670.24" rx="4" ry="4"/>
</g>
<!-- gdm.distribution.components.distribution_vsource.DistributionVoltageSource&#45;&gt;gdm.distribution.components.distribution_substation.DistributionSubstation -->
<g id="edge8" class="edge">
<title>gdm.distribution.components.distribution_vsource.DistributionVoltageSource:e&#45;&gt;gdm.distribution.components.distribution_substation.DistributionSubstation:w</title>
<path fill="none" stroke="black" d="M258.03,-681.54C367.54,-687.72 597.37,-791.2 713.21,-802.5"/>
<polyline fill="none" stroke="black" points="248.25,-681.25 253.25,-681.4"/>
<polyline fill="none" stroke="black" points="253.25,-681.4 258.25,-681.55"/>
<polyline fill="none" stroke="black" points="732.12,-803.5 727.13,-803.24"/>
<polygon fill="black" stroke="black" points="726.4,-798.19 725.87,-808.18 723.87,-808.07 724.4,-798.09 726.4,-798.19"/>
<polyline fill="none" stroke="black" points="727.13,-803.24 722.14,-802.97"/>
<ellipse fill="none" stroke="black" cx="717.65" cy="-802.74" rx="4" ry="4"/>
</g>
<!-- gdm.distribution.equipment.voltagesource_equipment.VoltageSourceEquipment -->
<g id="node7" class="node">
<title>gdm.distribution.equipment.voltagesource_equipment.VoltageSourceEquipment</title>
<g id="a_node7"><a xlink:title="gdm.distribution.equipment.voltagesource_equipment.VoltageSourceEquipment&#10;&#10;Data model for voltage source model.&#10;">
<polygon fill="none" stroke="black" points="364.12,-298.25 364.12,-320.75 612.38,-320.75 612.38,-298.25 364.12,-298.25"/>
<text text-anchor="start" x="414" y="-305.45" font-family="Times New Roman,Times,Liberation Serif,serif" font-weight="bold" font-size="14.00">VoltageSourceEquipment</text>
<polygon fill="none" stroke="black" points="364.12,-275.75 364.12,-298.25 410.62,-298.25 410.62,-275.75 364.12,-275.75"/>
<text text-anchor="start" x="375.38" y="-281.95" font-family="Times New Roman,Times,Liberation Serif,serif" font-size="14.00">uuid</text>
<polygon fill="none" stroke="black" points="410.62,-275.75 410.62,-298.25 612.38,-298.25 612.38,-275.75 410.62,-275.75"/>
<text text-anchor="start" x="494.62" y="-281.95" font-family="Times New Roman,Times,Liberation Serif,serif" font-size="14.00">UUID</text>
<polygon fill="none" stroke="black" points="364.12,-253.25 364.12,-275.75 410.62,-275.75 410.62,-253.25 364.12,-253.25"/>
<text text-anchor="start" x="372.38" y="-259.45" font-family="Times New Roman,Times,Liberation Serif,serif" font-size="14.00">name</text>
<polygon fill="none" stroke="black" points="410.62,-253.25 410.62,-275.75 612.38,-275.75 612.38,-253.25 410.62,-253.25"/>
<text text-anchor="start" x="504.75" y="-259.45" font-family="Times New Roman,Times,Liberation Serif,serif" font-size="14.00">str</text>
<polygon fill="none" stroke="black" points="364.12,-230.75 364.12,-253.25 410.62,-253.25 410.62,-230.75 364.12,-230.75"/>
<text text-anchor="start" x="367.12" y="-236.95" font-family="Times New Roman,Times,Liberation Serif,serif" font-size="14.00">sources</text>
<polygon fill="none" stroke="black" points="410.62,-230.75 410.62,-253.25 612.38,-253.25 612.38,-230.75 410.62,-230.75"/>
<text text-anchor="start" x="413.62" y="-236.95" font-family="Times New Roman,Times,Liberation Serif,serif" font-size="14.00">list[PhaseVoltageSourceEquipment]</text>
</a>
</g>
</g>
<!-- gdm.distribution.components.distribution_vsource.DistributionVoltageSource&#45;&gt;gdm.distribution.equipment.voltagesource_equipment.VoltageSourceEquipment -->
<g id="edge9" class="edge">
<title>gdm.distribution.components.distribution_vsource.DistributionVoltageSource:e&#45;&gt;gdm.distribution.equipment.voltagesource_equipment.VoltageSourceEquipment:w</title>
<path fill="none" stroke="black" d="M258.01,-568.18C362.18,-555.36 251.2,-330.61 348.37,-310.88"/>
<polyline fill="none" stroke="black" points="248.25,-568.75 253.24,-568.46"/>
<polyline fill="none" stroke="black" points="253.24,-568.46 258.23,-568.17"/>
<polyline fill="none" stroke="black" points="363.12,-309.5 358.15,-309.97"/>
<polygon fill="black" stroke="black" points="356.69,-305.08 357.62,-315.04 355.63,-315.22 354.69,-305.27 356.69,-305.08"/>
<polyline fill="none" stroke="black" points="358.15,-309.97 353.17,-310.43"/>
<polygon fill="black" stroke="black" points="351.71,-305.55 352.64,-315.5 350.65,-315.69 349.72,-305.73 351.71,-305.55"/>
<polyline fill="none" stroke="black" points="353.17,-310.43 348.19,-310.9"/>
</g>
<!-- gdm.distribution.equipment.phase_voltagesource_equipment.PhaseVoltageSourceEquipment -->
<g id="node8" class="node">
<title>gdm.distribution.equipment.phase_voltagesource_equipment.PhaseVoltageSourceEquipment</title>
<g id="a_node8"><a xlink:title="gdm.distribution.equipment.phase_voltagesource_equipment.PhaseVoltageSourceEquipment&#10;&#10;Data model for phase voltage source.&#10;">
<polygon fill="none" stroke="black" points="728.25,-198.5 728.25,-221 916.5,-221 916.5,-198.5 728.25,-198.5"/>
<text text-anchor="start" x="731.25" y="-205.7" font-family="Times New Roman,Times,Liberation Serif,serif" font-weight="bold" font-size="14.00">PhaseVoltageSourceEquipment</text>
<polygon fill="none" stroke="black" points="728.25,-176 728.25,-198.5 813.38,-198.5 813.38,-176 728.25,-176"/>
<text text-anchor="start" x="758.81" y="-182.2" font-family="Times New Roman,Times,Liberation Serif,serif" font-size="14.00">uuid</text>
<polygon fill="none" stroke="black" points="813.38,-176 813.38,-198.5 916.5,-198.5 916.5,-176 813.38,-176"/>
<text text-anchor="start" x="848.06" y="-182.2" font-family="Times New Roman,Times,Liberation Serif,serif" font-size="14.00">UUID</text>
<polygon fill="none" stroke="black" points="728.25,-153.5 728.25,-176 813.38,-176 813.38,-153.5 728.25,-153.5"/>
<text text-anchor="start" x="755.81" y="-159.7" font-family="Times New Roman,Times,Liberation Serif,serif" font-size="14.00">name</text>
<polygon fill="none" stroke="black" points="813.38,-153.5 813.38,-176 916.5,-176 916.5,-153.5 813.38,-153.5"/>
<text text-anchor="start" x="858.19" y="-159.7" font-family="Times New Roman,Times,Liberation Serif,serif" font-size="14.00">str</text>
<polygon fill="none" stroke="black" points="728.25,-131 728.25,-153.5 813.38,-153.5 813.38,-131 728.25,-131"/>
<text text-anchor="start" x="765.19" y="-137.2" font-family="Times New Roman,Times,Liberation Serif,serif" font-size="14.00">r0</text>
<polygon fill="none" stroke="black" points="813.38,-131 813.38,-153.5 916.5,-153.5 916.5,-131 813.38,-131"/>
<text text-anchor="start" x="836.06" y="-137.2" font-family="Times New Roman,Times,Liberation Serif,serif" font-size="14.00">Resistance</text>
<polygon fill="none" stroke="black" points="728.25,-108.5 728.25,-131 813.38,-131 813.38,-108.5 728.25,-108.5"/>
<text text-anchor="start" x="765.19" y="-114.7" font-family="Times New Roman,Times,Liberation Serif,serif" font-size="14.00">r1</text>
<polygon fill="none" stroke="black" points="813.38,-108.5 813.38,-131 916.5,-131 916.5,-108.5 813.38,-108.5"/>
<text text-anchor="start" x="836.06" y="-114.7" font-family="Times New Roman,Times,Liberation Serif,serif" font-size="14.00">Resistance</text>
<polygon fill="none" stroke="black" points="728.25,-86 728.25,-108.5 813.38,-108.5 813.38,-86 728.25,-86"/>
<text text-anchor="start" x="764.06" y="-92.2" font-family="Times New Roman,Times,Liberation Serif,serif" font-size="14.00">x0</text>
<polygon fill="none" stroke="black" points="813.38,-86 813.38,-108.5 916.5,-108.5 916.5,-86 813.38,-86"/>
<text text-anchor="start" x="837.19" y="-92.2" font-family="Times New Roman,Times,Liberation Serif,serif" font-size="14.00">Reactance</text>
<polygon fill="none" stroke="black" points="728.25,-63.5 728.25,-86 813.38,-86 813.38,-63.5 728.25,-63.5"/>
<text text-anchor="start" x="764.06" y="-69.7" font-family="Times New Roman,Times,Liberation Serif,serif" font-size="14.00">x1</text>
<polygon fill="none" stroke="black" points="813.38,-63.5 813.38,-86 916.5,-86 916.5,-63.5 813.38,-63.5"/>
<text text-anchor="start" x="837.19" y="-69.7" font-family="Times New Roman,Times,Liberation Serif,serif" font-size="14.00">Reactance</text>
<polygon fill="none" stroke="black" points="728.25,-41 728.25,-63.5 813.38,-63.5 813.38,-41 728.25,-41"/>
<text text-anchor="start" x="750.94" y="-47.2" font-family="Times New Roman,Times,Liberation Serif,serif" font-size="14.00">voltage</text>
<polygon fill="none" stroke="black" points="813.38,-41 813.38,-63.5 916.5,-63.5 916.5,-41 813.38,-41"/>
<text text-anchor="start" x="844.31" y="-47.2" font-family="Times New Roman,Times,Liberation Serif,serif" font-size="14.00">Voltage</text>
<polygon fill="none" stroke="black" points="728.25,-18.5 728.25,-41 813.38,-41 813.38,-18.5 728.25,-18.5"/>
<text text-anchor="start" x="756.19" y="-24.7" font-family="Times New Roman,Times,Liberation Serif,serif" font-size="14.00">angle</text>
<polygon fill="none" stroke="black" points="813.38,-18.5 813.38,-41 916.5,-41 916.5,-18.5 813.38,-18.5"/>
<text text-anchor="start" x="848.44" y="-24.7" font-family="Times New Roman,Times,Liberation Serif,serif" font-size="14.00">Angle</text>
</a>
</g>
</g>
<!-- gdm.distribution.equipment.voltagesource_equipment.VoltageSourceEquipment&#45;&gt;gdm.distribution.equipment.phase_voltagesource_equipment.PhaseVoltageSourceEquipment -->
<g id="edge10" class="edge">
<title>gdm.distribution.equipment.voltagesource_equipment.VoltageSourceEquipment:e&#45;&gt;gdm.distribution.equipment.phase_voltagesource_equipment.PhaseVoltageSourceEquipment:w</title>
<path fill="none" stroke="black" d="M623.1,-241.62C662.84,-238.37 675.85,-215.63 713.27,-210.69"/>
<polyline fill="none" stroke="black" points="613.38,-242 618.37,-241.8"/>
<polyline fill="none" stroke="black" points="618.37,-241.8 623.37,-241.6"/>
<polygon fill="black" stroke="black" points="717.94,-210.4 728.2,-214.26 723.26,-210.06 727.58,-209.79 727.58,-209.79 727.58,-209.79 723.26,-210.06 727.63,-205.28 717.94,-210.4"/>
<polyline fill="none" stroke="black" points="716.72,-210.48 711.73,-210.79"/>
</g>
</g>
</svg>
