<?xml version="1.0" encoding="UTF-8" standalone="no"?>
<!DOCTYPE svg PUBLIC "-//W3C//DTD SVG 1.1//EN"
 "http://www.w3.org/Graphics/SVG/1.1/DTD/svg11.dtd">
<!-- Generated by graphviz version 9.0.0 (0)
 -->
<!-- Title: Entity Relationship Diagram created by erdantic Pages: 1 -->
<svg width="562pt" height="357pt"
 viewBox="0.00 0.00 562.00 356.50" xmlns="http://www.w3.org/2000/svg" xmlns:xlink="http://www.w3.org/1999/xlink">
<g id="graph0" class="graph" transform="scale(1 1) rotate(0) translate(4 352.5)">
<title>Entity Relationship Diagram created by erdantic</title>
<polygon fill="white" stroke="none" points="-4,4 -4,-352.5 558,-352.5 558,4 -4,4"/>
<text text-anchor="middle" x="277" y="-5.95" font-family="Times New Roman,Times,Liberation Serif,serif" font-size="9.00" fill="#a8a8a8">Created by erdantic v0.6.0 &lt;https://github.com/drivendataorg/erdantic&gt;</text>
<!-- gdm.distribution.controllers.distribution_recloser_controller.DistributionRecloserController -->
<g id="node1" class="node">
<title>gdm.distribution.controllers.distribution_recloser_controller.DistributionRecloserController</title>
<g id="a_node1"><a xlink:title="gdm.distribution.controllers.distribution_recloser_controller.DistributionRecloserController&#10;&#10;Interface for distribution recloser controller.&#10;">
<polygon fill="none" stroke="black" points="0,-326.5 0,-348.5 265,-348.5 265,-326.5 0,-326.5"/>
<text text-anchor="start" x="42.12" y="-333.2" font-family="Times New Roman,Times,Liberation Serif,serif" font-weight="bold" font-size="14.00">DistributionRecloserController</text>
<polygon fill="none" stroke="black" points="0,-304.5 0,-326.5 97,-326.5 97,-304.5 0,-304.5"/>
<text text-anchor="start" x="36.5" y="-310.2" font-family="Times New Roman,Times,Liberation Serif,serif" font-size="14.00">uuid</text>
<polygon fill="none" stroke="black" points="97,-304.5 97,-326.5 265,-326.5 265,-304.5 97,-304.5"/>
<text text-anchor="start" x="164.12" y="-310.2" font-family="Times New Roman,Times,Liberation Serif,serif" font-size="14.00">UUID</text>
<polygon fill="none" stroke="black" points="0,-282.5 0,-304.5 97,-304.5 97,-282.5 0,-282.5"/>
<text text-anchor="start" x="33.5" y="-288.2" font-family="Times New Roman,Times,Liberation Serif,serif" font-size="14.00">name</text>
<polygon fill="none" stroke="black" points="97,-282.5 97,-304.5 265,-304.5 265,-282.5 97,-282.5"/>
<text text-anchor="start" x="174.25" y="-288.2" font-family="Times New Roman,Times,Liberation Serif,serif" font-size="14.00">str</text>
<polygon fill="none" stroke="black" points="0,-260.5 0,-282.5 97,-282.5 97,-260.5 0,-260.5"/>
<text text-anchor="start" x="33.88" y="-266.2" font-family="Times New Roman,Times,Liberation Serif,serif" font-size="14.00">delay</text>
<polygon fill="none" stroke="black" points="97,-260.5 97,-282.5 265,-282.5 265,-260.5 97,-260.5"/>
<text text-anchor="start" x="166.38" y="-266.2" font-family="Times New Roman,Times,Liberation Serif,serif" font-size="14.00">Time</text>
<polygon fill="none" stroke="black" points="0,-238.5 0,-260.5 97,-260.5 97,-238.5 0,-238.5"/>
<text text-anchor="start" x="5" y="-244.2" font-family="Times New Roman,Times,Liberation Serif,serif" font-size="14.00">ground_delayed</text>
<polygon fill="none" stroke="black" points="97,-238.5 97,-260.5 265,-260.5 265,-238.5 97,-238.5"/>
<text text-anchor="start" x="129.25" y="-244.2" font-family="Times New Roman,Times,Liberation Serif,serif" font-size="14.00">TimeCurrentCurve</text>
<polygon fill="none" stroke="black" points="0,-216.5 0,-238.5 97,-238.5 97,-216.5 0,-216.5"/>
<text text-anchor="start" x="16.25" y="-222.2" font-family="Times New Roman,Times,Liberation Serif,serif" font-size="14.00">ground_fast</text>
<polygon fill="none" stroke="black" points="97,-216.5 97,-238.5 265,-238.5 265,-216.5 97,-216.5"/>
<text text-anchor="start" x="129.25" y="-222.2" font-family="Times New Roman,Times,Liberation Serif,serif" font-size="14.00">TimeCurrentCurve</text>
<polygon fill="none" stroke="black" points="0,-194.5 0,-216.5 97,-216.5 97,-194.5 0,-194.5"/>
<text text-anchor="start" x="8.75" y="-200.2" font-family="Times New Roman,Times,Liberation Serif,serif" font-size="14.00">phase_delayed</text>
<polygon fill="none" stroke="black" points="97,-194.5 97,-216.5 265,-216.5 265,-194.5 97,-194.5"/>
<text text-anchor="start" x="129.25" y="-200.2" font-family="Times New Roman,Times,Liberation Serif,serif" font-size="14.00">TimeCurrentCurve</text>
<polygon fill="none" stroke="black" points="0,-172.5 0,-194.5 97,-194.5 97,-172.5 0,-172.5"/>
<text text-anchor="start" x="20" y="-178.2" font-family="Times New Roman,Times,Liberation Serif,serif" font-size="14.00">phase_fast</text>
<polygon fill="none" stroke="black" points="97,-172.5 97,-194.5 265,-194.5 265,-172.5 97,-172.5"/>
<text text-anchor="start" x="129.25" y="-178.2" font-family="Times New Roman,Times,Liberation Serif,serif" font-size="14.00">TimeCurrentCurve</text>
<polygon fill="none" stroke="black" points="0,-150.5 0,-172.5 97,-172.5 97,-150.5 0,-150.5"/>
<text text-anchor="start" x="10.25" y="-156.2" font-family="Times New Roman,Times,Liberation Serif,serif" font-size="14.00">num_fast_ops</text>
<polygon fill="none" stroke="black" points="97,-150.5 97,-172.5 265,-172.5 265,-150.5 97,-150.5"/>
<text text-anchor="start" x="173.88" y="-156.2" font-family="Times New Roman,Times,Liberation Serif,serif" font-size="14.00">int</text>
<polygon fill="none" stroke="black" points="0,-128.5 0,-150.5 97,-150.5 97,-128.5 0,-128.5"/>
<text text-anchor="start" x="18.88" y="-134.2" font-family="Times New Roman,Times,Liberation Serif,serif" font-size="14.00">num_shots</text>
<polygon fill="none" stroke="black" points="97,-128.5 97,-150.5 265,-150.5 265,-128.5 97,-128.5"/>
<text text-anchor="start" x="173.88" y="-134.2" font-family="Times New Roman,Times,Liberation Serif,serif" font-size="14.00">int</text>
<polygon fill="none" stroke="black" points="0,-106.5 0,-128.5 97,-128.5 97,-106.5 0,-106.5"/>
<text text-anchor="start" x="2.75" y="-112.2" font-family="Times New Roman,Times,Liberation Serif,serif" font-size="14.00">reclose_intervals</text>
<polygon fill="none" stroke="black" points="97,-106.5 97,-128.5 265,-128.5 265,-106.5 97,-106.5"/>
<text text-anchor="start" x="166.38" y="-112.2" font-family="Times New Roman,Times,Liberation Serif,serif" font-size="14.00">Time</text>
<polygon fill="none" stroke="black" points="0,-84.5 0,-106.5 97,-106.5 97,-84.5 0,-84.5"/>
<text text-anchor="start" x="20" y="-90.2" font-family="Times New Roman,Times,Liberation Serif,serif" font-size="14.00">reset_time</text>
<polygon fill="none" stroke="black" points="97,-84.5 97,-106.5 265,-106.5 265,-84.5 97,-84.5"/>
<text text-anchor="start" x="166.38" y="-90.2" font-family="Times New Roman,Times,Liberation Serif,serif" font-size="14.00">Time</text>
<polygon fill="none" stroke="black" points="0,-62.5 0,-84.5 97,-84.5 97,-62.5 0,-62.5"/>
<text text-anchor="start" x="19.62" y="-68.2" font-family="Times New Roman,Times,Liberation Serif,serif" font-size="14.00">equipment</text>
<polygon fill="none" stroke="black" points="97,-62.5 97,-84.5 265,-84.5 265,-62.5 97,-62.5"/>
<text text-anchor="start" x="99.62" y="-68.2" font-family="Times New Roman,Times,Liberation Serif,serif" font-size="14.00">RecloserControllerEquipment</text>
</a>
</g>
</g>
<!-- gdm.distribution.curve.TimeCurrentCurve -->
<g id="node2" class="node">
<title>gdm.distribution.curve.TimeCurrentCurve</title>
<g id="a_node2"><a xlink:title="gdm.distribution.curve.TimeCurrentCurve&#10;&#10;An interface for time current curve.&#10;">
<polygon fill="none" stroke="black" points="403.5,-212.5 403.5,-234.5 523.5,-234.5 523.5,-212.5 403.5,-212.5"/>
<text text-anchor="start" x="406.5" y="-219.2" font-family="Times New Roman,Times,Liberation Serif,serif" font-weight="bold" font-size="14.00">TimeCurrentCurve</text>
<polygon fill="none" stroke="black" points="403.5,-190.5 403.5,-212.5 464.5,-212.5 464.5,-190.5 403.5,-190.5"/>
<text text-anchor="start" x="422" y="-196.2" font-family="Times New Roman,Times,Liberation Serif,serif" font-size="14.00">uuid</text>
<polygon fill="none" stroke="black" points="464.5,-190.5 464.5,-212.5 523.5,-212.5 523.5,-190.5 464.5,-190.5"/>
<text text-anchor="start" x="477.12" y="-196.2" font-family="Times New Roman,Times,Liberation Serif,serif" font-size="14.00">UUID</text>
<polygon fill="none" stroke="black" points="403.5,-168.5 403.5,-190.5 464.5,-190.5 464.5,-168.5 403.5,-168.5"/>
<text text-anchor="start" x="419" y="-174.2" font-family="Times New Roman,Times,Liberation Serif,serif" font-size="14.00">name</text>
<polygon fill="none" stroke="black" points="464.5,-168.5 464.5,-190.5 523.5,-190.5 523.5,-168.5 464.5,-168.5"/>
<text text-anchor="start" x="487.25" y="-174.2" font-family="Times New Roman,Times,Liberation Serif,serif" font-size="14.00">str</text>
<polygon fill="none" stroke="black" points="403.5,-146.5 403.5,-168.5 464.5,-168.5 464.5,-146.5 403.5,-146.5"/>
<text text-anchor="start" x="412.25" y="-152.2" font-family="Times New Roman,Times,Liberation Serif,serif" font-size="14.00">curve_x</text>
<polygon fill="none" stroke="black" points="464.5,-146.5 464.5,-168.5 523.5,-168.5 523.5,-146.5 464.5,-146.5"/>
<text text-anchor="start" x="473.38" y="-152.2" font-family="Times New Roman,Times,Liberation Serif,serif" font-size="14.00">Current</text>
<polygon fill="none" stroke="black" points="403.5,-124.5 403.5,-146.5 464.5,-146.5 464.5,-124.5 403.5,-124.5"/>
<text text-anchor="start" x="412.25" y="-130.2" font-family="Times New Roman,Times,Liberation Serif,serif" font-size="14.00">curve_y</text>
<polygon fill="none" stroke="black" points="464.5,-124.5 464.5,-146.5 523.5,-146.5 523.5,-124.5 464.5,-124.5"/>
<text text-anchor="start" x="479.38" y="-130.2" font-family="Times New Roman,Times,Liberation Serif,serif" font-size="14.00">Time</text>
</a>
</g>
</g>
<!-- gdm.distribution.controllers.distribution_recloser_controller.DistributionRecloserController&#45;&gt;gdm.distribution.curve.TimeCurrentCurve -->
<g id="edge1" class="edge">
<title>gdm.distribution.controllers.distribution_recloser_controller.DistributionRecloserController:e&#45;&gt;gdm.distribution.curve.TimeCurrentCurve:w</title>
<path fill="none" stroke="black" d="M274.78,-249.28C323.92,-246.96 340.71,-227.51 387.66,-224.03"/>
<polyline fill="none" stroke="black" points="265,-249.5 270,-249.39"/>
<polyline fill="none" stroke="black" points="270,-249.39 275,-249.27"/>
<polyline fill="none" stroke="black" points="402.5,-223.5 397.5,-223.68"/>
<polygon fill="black" stroke="black" points="396.33,-218.72 396.68,-228.71 394.68,-228.78 394.33,-218.79 396.33,-218.72"/>
<polyline fill="none" stroke="black" points="397.5,-223.68 392.51,-223.86"/>
<polygon fill="black" stroke="black" points="391.33,-218.9 391.69,-228.89 389.69,-228.96 389.33,-218.97 391.33,-218.9"/>
<polyline fill="none" stroke="black" points="392.51,-223.86 387.51,-224.04"/>
</g>
<!-- gdm.distribution.controllers.distribution_recloser_controller.DistributionRecloserController&#45;&gt;gdm.distribution.curve.TimeCurrentCurve -->
<g id="edge2" class="edge">
<title>gdm.distribution.controllers.distribution_recloser_controller.DistributionRecloserController:e&#45;&gt;gdm.distribution.curve.TimeCurrentCurve:w</title>
<path fill="none" stroke="black" d="M274.96,-227.46C323.14,-227.1 341.43,-224.13 387.59,-223.58"/>
<polyline fill="none" stroke="black" points="265,-227.5 270,-227.48"/>
<polyline fill="none" stroke="black" points="270,-227.48 275,-227.46"/>
<polyline fill="none" stroke="black" points="402.5,-223.5 397.5,-223.53"/>
<polygon fill="black" stroke="black" points="396.47,-218.53 396.53,-228.53 394.53,-228.55 394.47,-218.55 396.47,-218.53"/>
<polyline fill="none" stroke="black" points="397.5,-223.53 392.5,-223.56"/>
<polygon fill="black" stroke="black" points="391.47,-218.56 391.53,-228.56 389.53,-228.57 389.47,-218.57 391.47,-218.56"/>
<polyline fill="none" stroke="black" points="392.5,-223.56 387.5,-223.59"/>
</g>
<!-- gdm.distribution.controllers.distribution_recloser_controller.DistributionRecloserController&#45;&gt;gdm.distribution.curve.TimeCurrentCurve -->
<g id="edge3" class="edge">
<title>gdm.distribution.controllers.distribution_recloser_controller.DistributionRecloserController:e&#45;&gt;gdm.distribution.curve.TimeCurrentCurve:w</title>
<path fill="none" stroke="black" d="M274.7,-205.66C323.51,-207.26 341.08,-220.73 387.76,-223.13"/>
<polyline fill="none" stroke="black" points="265,-205.5 270,-205.58"/>
<polyline fill="none" stroke="black" points="270,-205.58 275,-205.66"/>
<polyline fill="none" stroke="black" points="402.5,-223.5 397.5,-223.38"/>
<polygon fill="black" stroke="black" points="396.63,-218.35 396.38,-228.35 394.38,-228.3 394.63,-218.3 396.63,-218.35"/>
<polyline fill="none" stroke="black" points="397.5,-223.38 392.5,-223.25"/>
<polygon fill="black" stroke="black" points="391.63,-218.23 391.38,-228.22 389.38,-228.17 389.63,-218.18 391.63,-218.23"/>
<polyline fill="none" stroke="black" points="392.5,-223.25 387.5,-223.13"/>
</g>
<!-- gdm.distribution.controllers.distribution_recloser_controller.DistributionRecloserController&#45;&gt;gdm.distribution.curve.TimeCurrentCurve -->
<g id="edge4" class="edge">
<title>gdm.distribution.controllers.distribution_recloser_controller.DistributionRecloserController:e&#45;&gt;gdm.distribution.curve.TimeCurrentCurve:w</title>
<path fill="none" stroke="black" d="M274.98,-183.85C325.09,-187.41 339.83,-217.46 387.68,-222.72"/>
<polyline fill="none" stroke="black" points="265,-183.5 270,-183.67"/>
<polyline fill="none" stroke="black" points="270,-183.67 274.99,-183.85"/>
<polyline fill="none" stroke="black" points="402.5,-223.5 397.51,-223.24"/>
<polygon fill="black" stroke="black" points="396.77,-218.19 396.24,-228.18 394.25,-228.07 394.77,-218.09 396.77,-218.19"/>
<polyline fill="none" stroke="black" points="397.51,-223.24 392.51,-222.97"/>
<polygon fill="black" stroke="black" points="391.78,-217.93 391.25,-227.91 389.25,-227.81 389.78,-217.82 391.78,-217.93"/>
<polyline fill="none" stroke="black" points="392.51,-222.97 387.52,-222.71"/>
</g>
<!-- gdm.distribution.equipment.recloser_controller_equipment.RecloserControllerEquipment -->
<g id="node3" class="node">
<title>gdm.distribution.equipment.recloser_controller_equipment.RecloserControllerEquipment</title>
<g id="a_node3"><a xlink:title="gdm.distribution.equipment.recloser_controller_equipment.RecloserControllerEquipment&#10;&#10;Class interface for recloser controller equipment.&#10;">
<polygon fill="none" stroke="black" points="373,-62.5 373,-84.5 554,-84.5 554,-62.5 373,-62.5"/>
<text text-anchor="start" x="375.75" y="-69.2" font-family="Times New Roman,Times,Liberation Serif,serif" font-weight="bold" font-size="14.00">RecloserControllerEquipment</text>
<polygon fill="none" stroke="black" points="373,-40.5 373,-62.5 462,-62.5 462,-40.5 373,-40.5"/>
<text text-anchor="start" x="405.5" y="-46.2" font-family="Times New Roman,Times,Liberation Serif,serif" font-size="14.00">uuid</text>
<polygon fill="none" stroke="black" points="462,-40.5 462,-62.5 554,-62.5 554,-40.5 462,-40.5"/>
<text text-anchor="start" x="491.12" y="-46.2" font-family="Times New Roman,Times,Liberation Serif,serif" font-size="14.00">UUID</text>
<polygon fill="none" stroke="black" points="373,-18.5 373,-40.5 462,-40.5 462,-18.5 373,-18.5"/>
<text text-anchor="start" x="402.5" y="-24.2" font-family="Times New Roman,Times,Liberation Serif,serif" font-size="14.00">name</text>
<polygon fill="none" stroke="black" points="462,-18.5 462,-40.5 554,-40.5 554,-18.5 462,-18.5"/>
<text text-anchor="start" x="501.25" y="-24.2" font-family="Times New Roman,Times,Liberation Serif,serif" font-size="14.00">str</text>
</a>
</g>
</g>
<!-- gdm.distribution.controllers.distribution_recloser_controller.DistributionRecloserController&#45;&gt;gdm.distribution.equipment.recloser_controller_equipment.RecloserControllerEquipment -->
<g id="edge5" class="edge">
<title>gdm.distribution.controllers.distribution_recloser_controller.DistributionRecloserController:e&#45;&gt;gdm.distribution.equipment.recloser_controller_equipment.RecloserControllerEquipment:w</title>
<path fill="none" stroke="black" d="M274.87,-73.5C310.07,-73.5 324.8,-73.5 358.08,-73.5"/>
<polyline fill="none" stroke="black" points="265,-73.5 270,-73.5"/>
<polyline fill="none" stroke="black" points="270,-73.5 275,-73.5"/>
<polyline fill="none" stroke="black" points="373,-73.5 368,-73.5"/>
<polygon fill="black" stroke="black" points="367,-68.5 367,-78.5 365,-78.5 365,-68.5 367,-68.5"/>
<polyline fill="none" stroke="black" points="368,-73.5 363,-73.5"/>
<polygon fill="black" stroke="black" points="362,-68.5 362,-78.5 360,-78.5 360,-68.5 362,-68.5"/>
<polyline fill="none" stroke="black" points="363,-73.5 358,-73.5"/>
</g>
</g>
</svg>
