<?xml version="1.0" encoding="UTF-8" standalone="no"?>
<!DOCTYPE svg PUBLIC "-//W3C//DTD SVG 1.1//EN"
 "http://www.w3.org/Graphics/SVG/1.1/DTD/svg11.dtd">
<!-- Generated by graphviz version 9.0.0 (0)
 -->
<!-- Title: Entity Relationship Diagram created by erdantic Pages: 1 -->
<svg width="1152pt" height="637pt"
 viewBox="0.00 0.00 1152.00 636.50" xmlns="http://www.w3.org/2000/svg" xmlns:xlink="http://www.w3.org/1999/xlink">
<g id="graph0" class="graph" transform="scale(1 1) rotate(0) translate(4 632.5)">
<title>Entity Relationship Diagram created by erdantic</title>
<polygon fill="white" stroke="none" points="-4,4 -4,-632.5 1148,-632.5 1148,4 -4,4"/>
<text text-anchor="middle" x="572" y="-5.95" font-family="Times New Roman,Times,Liberation Serif,serif" font-size="9.00" fill="#a8a8a8">Created by erdantic v0.6.0 &lt;https://github.com/drivendataorg/erdantic&gt;</text>
<!-- gdm.distribution.components.base.distribution_switch_base.DistributionSwitchBase -->
<g id="node1" class="node">
<title>gdm.distribution.components.base.distribution_switch_base.DistributionSwitchBase</title>
<g id="a_node1"><a xlink:title="gdm.distribution.components.base.distribution_switch_base.DistributionSwitchBase&#10;&#10;Interface for distribution branch that can be toggled.&#10;">
<polygon fill="none" stroke="black" points="0,-562.5 0,-584.5 245,-584.5 245,-562.5 0,-562.5"/>
<text text-anchor="start" x="54.25" y="-569.2" font-family="Times New Roman,Times,Liberation Serif,serif" font-weight="bold" font-size="14.00">DistributionSwitchBase</text>
<polygon fill="none" stroke="black" points="0,-540.5 0,-562.5 61,-562.5 61,-540.5 0,-540.5"/>
<text text-anchor="start" x="18.5" y="-546.2" font-family="Times New Roman,Times,Liberation Serif,serif" font-size="14.00">uuid</text>
<polygon fill="none" stroke="black" points="61,-540.5 61,-562.5 245,-562.5 245,-540.5 61,-540.5"/>
<text text-anchor="start" x="136.12" y="-546.2" font-family="Times New Roman,Times,Liberation Serif,serif" font-size="14.00">UUID</text>
<polygon fill="none" stroke="black" points="0,-518.5 0,-540.5 61,-540.5 61,-518.5 0,-518.5"/>
<text text-anchor="start" x="15.5" y="-524.2" font-family="Times New Roman,Times,Liberation Serif,serif" font-size="14.00">name</text>
<polygon fill="none" stroke="black" points="61,-518.5 61,-540.5 245,-540.5 245,-518.5 61,-518.5"/>
<text text-anchor="start" x="146.25" y="-524.2" font-family="Times New Roman,Times,Liberation Serif,serif" font-size="14.00">str</text>
<polygon fill="none" stroke="black" points="0,-496.5 0,-518.5 61,-518.5 61,-496.5 0,-496.5"/>
<text text-anchor="start" x="3.12" y="-502.2" font-family="Times New Roman,Times,Liberation Serif,serif" font-size="14.00">substation</text>
<polygon fill="none" stroke="black" points="61,-496.5 61,-518.5 245,-518.5 245,-496.5 61,-496.5"/>
<text text-anchor="start" x="63.75" y="-502.2" font-family="Times New Roman,Times,Liberation Serif,serif" font-size="14.00">Optional[DistributionSubstation]</text>
<polygon fill="none" stroke="black" points="0,-474.5 0,-496.5 61,-496.5 61,-474.5 0,-474.5"/>
<text text-anchor="start" x="13.62" y="-480.2" font-family="Times New Roman,Times,Liberation Serif,serif" font-size="14.00">feeder</text>
<polygon fill="none" stroke="black" points="61,-474.5 61,-496.5 245,-496.5 245,-474.5 61,-474.5"/>
<text text-anchor="start" x="73.88" y="-480.2" font-family="Times New Roman,Times,Liberation Serif,serif" font-size="14.00">Optional[DistributionFeeder]</text>
<polygon fill="none" stroke="black" points="0,-452.5 0,-474.5 61,-474.5 61,-452.5 0,-452.5"/>
<text text-anchor="start" x="2.75" y="-458.2" font-family="Times New Roman,Times,Liberation Serif,serif" font-size="14.00">in_service</text>
<polygon fill="none" stroke="black" points="61,-452.5 61,-474.5 245,-474.5 245,-452.5 61,-452.5"/>
<text text-anchor="start" x="141" y="-458.2" font-family="Times New Roman,Times,Liberation Serif,serif" font-size="14.00">bool</text>
<polygon fill="none" stroke="black" points="0,-430.5 0,-452.5 61,-452.5 61,-430.5 0,-430.5"/>
<text text-anchor="start" x="15.5" y="-436.2" font-family="Times New Roman,Times,Liberation Serif,serif" font-size="14.00">buses</text>
<polygon fill="none" stroke="black" points="61,-430.5 61,-452.5 245,-452.5 245,-430.5 61,-430.5"/>
<text text-anchor="start" x="97.12" y="-436.2" font-family="Times New Roman,Times,Liberation Serif,serif" font-size="14.00">list[DistributionBus]</text>
<polygon fill="none" stroke="black" points="0,-408.5 0,-430.5 61,-430.5 61,-408.5 0,-408.5"/>
<text text-anchor="start" x="13.62" y="-414.2" font-family="Times New Roman,Times,Liberation Serif,serif" font-size="14.00">length</text>
<polygon fill="none" stroke="black" points="61,-408.5 61,-430.5 245,-430.5 245,-408.5 61,-408.5"/>
<text text-anchor="start" x="107.62" y="-414.2" font-family="Times New Roman,Times,Liberation Serif,serif" font-size="14.00">PositiveDistance</text>
<polygon fill="none" stroke="black" points="0,-386.5 0,-408.5 61,-408.5 61,-386.5 0,-386.5"/>
<text text-anchor="start" x="12.5" y="-392.2" font-family="Times New Roman,Times,Liberation Serif,serif" font-size="14.00">phases</text>
<polygon fill="none" stroke="black" points="61,-386.5 61,-408.5 245,-408.5 245,-386.5 61,-386.5"/>
<text text-anchor="start" x="124.5" y="-392.2" font-family="Times New Roman,Times,Liberation Serif,serif" font-size="14.00">list[Phase]</text>
<polygon fill="none" stroke="black" points="0,-364.5 0,-386.5 61,-386.5 61,-364.5 0,-364.5"/>
<text text-anchor="start" x="5.38" y="-370.2" font-family="Times New Roman,Times,Liberation Serif,serif" font-size="14.00">is_closed</text>
<polygon fill="none" stroke="black" points="61,-364.5 61,-386.5 245,-386.5 245,-364.5 61,-364.5"/>
<text text-anchor="start" x="128.25" y="-370.2" font-family="Times New Roman,Times,Liberation Serif,serif" font-size="14.00">list[bool]</text>
</a>
</g>
</g>
<!-- gdm.distribution.components.distribution_bus.DistributionBus -->
<g id="node2" class="node">
<title>gdm.distribution.components.distribution_bus.DistributionBus</title>
<g id="a_node2"><a xlink:title="gdm.distribution.components.distribution_bus.DistributionBus&#10;&#10;Interface for distribution bus.&#10;&#10;Examples:&#10; &#160;&#160;&#160;&gt;&gt;&gt; from gdm import DistributionBus&#10; &#160;&#160;&#160;&gt;&gt;&gt; DistributionBus.example()&#10;">
<polygon fill="none" stroke="black" points="353,-408.5 353,-430.5 634,-430.5 634,-408.5 353,-408.5"/>
<text text-anchor="start" x="447.38" y="-415.2" font-family="Times New Roman,Times,Liberation Serif,serif" font-weight="bold" font-size="14.00">DistributionBus</text>
<polygon fill="none" stroke="black" points="353,-386.5 353,-408.5 450,-408.5 450,-386.5 353,-386.5"/>
<text text-anchor="start" x="389.5" y="-392.2" font-family="Times New Roman,Times,Liberation Serif,serif" font-size="14.00">uuid</text>
<polygon fill="none" stroke="black" points="450,-386.5 450,-408.5 634,-408.5 634,-386.5 450,-386.5"/>
<text text-anchor="start" x="525.12" y="-392.2" font-family="Times New Roman,Times,Liberation Serif,serif" font-size="14.00">UUID</text>
<polygon fill="none" stroke="black" points="353,-364.5 353,-386.5 450,-386.5 450,-364.5 353,-364.5"/>
<text text-anchor="start" x="386.5" y="-370.2" font-family="Times New Roman,Times,Liberation Serif,serif" font-size="14.00">name</text>
<polygon fill="none" stroke="black" points="450,-364.5 450,-386.5 634,-386.5 634,-364.5 450,-364.5"/>
<text text-anchor="start" x="535.25" y="-370.2" font-family="Times New Roman,Times,Liberation Serif,serif" font-size="14.00">str</text>
<polygon fill="none" stroke="black" points="353,-342.5 353,-364.5 450,-364.5 450,-342.5 353,-342.5"/>
<text text-anchor="start" x="374.12" y="-348.2" font-family="Times New Roman,Times,Liberation Serif,serif" font-size="14.00">substation</text>
<polygon fill="none" stroke="black" points="450,-342.5 450,-364.5 634,-364.5 634,-342.5 450,-342.5"/>
<text text-anchor="start" x="452.75" y="-348.2" font-family="Times New Roman,Times,Liberation Serif,serif" font-size="14.00">Optional[DistributionSubstation]</text>
<polygon fill="none" stroke="black" points="353,-320.5 353,-342.5 450,-342.5 450,-320.5 353,-320.5"/>
<text text-anchor="start" x="384.62" y="-326.2" font-family="Times New Roman,Times,Liberation Serif,serif" font-size="14.00">feeder</text>
<polygon fill="none" stroke="black" points="450,-320.5 450,-342.5 634,-342.5 634,-320.5 450,-320.5"/>
<text text-anchor="start" x="462.88" y="-326.2" font-family="Times New Roman,Times,Liberation Serif,serif" font-size="14.00">Optional[DistributionFeeder]</text>
<polygon fill="none" stroke="black" points="353,-298.5 353,-320.5 450,-320.5 450,-298.5 353,-298.5"/>
<text text-anchor="start" x="366.62" y="-304.2" font-family="Times New Roman,Times,Liberation Serif,serif" font-size="14.00">voltage_type</text>
<polygon fill="none" stroke="black" points="450,-298.5 450,-320.5 634,-320.5 634,-298.5 450,-298.5"/>
<text text-anchor="start" x="505.25" y="-304.2" font-family="Times New Roman,Times,Liberation Serif,serif" font-size="14.00">VoltageTypes</text>
<polygon fill="none" stroke="black" points="353,-276.5 353,-298.5 450,-298.5 450,-276.5 353,-276.5"/>
<text text-anchor="start" x="383.5" y="-282.2" font-family="Times New Roman,Times,Liberation Serif,serif" font-size="14.00">phases</text>
<polygon fill="none" stroke="black" points="450,-276.5 450,-298.5 634,-298.5 634,-276.5 450,-276.5"/>
<text text-anchor="start" x="513.5" y="-282.2" font-family="Times New Roman,Times,Liberation Serif,serif" font-size="14.00">list[Phase]</text>
<polygon fill="none" stroke="black" points="353,-254.5 353,-276.5 450,-276.5 450,-254.5 353,-254.5"/>
<text text-anchor="start" x="365.88" y="-260.2" font-family="Times New Roman,Times,Liberation Serif,serif" font-size="14.00">voltagelimits</text>
<polygon fill="none" stroke="black" points="450,-254.5 450,-276.5 634,-276.5 634,-254.5 450,-254.5"/>
<text text-anchor="start" x="484.62" y="-260.2" font-family="Times New Roman,Times,Liberation Serif,serif" font-size="14.00">list[VoltageLimitSet]</text>
<polygon fill="none" stroke="black" points="353,-232.5 353,-254.5 450,-254.5 450,-232.5 353,-232.5"/>
<text text-anchor="start" x="355.75" y="-238.2" font-family="Times New Roman,Times,Liberation Serif,serif" font-size="14.00">rated_voltage</text>
<polygon fill="none" stroke="black" points="450,-232.5 450,-254.5 634,-254.5 634,-232.5 450,-232.5"/>
<text text-anchor="start" x="499.62" y="-238.2" font-family="Times New Roman,Times,Liberation Serif,serif" font-size="14.00">PositiveVoltage</text>
<polygon fill="none" stroke="black" points="353,-210.5 353,-232.5 450,-232.5 450,-210.5 353,-210.5"/>
<text text-anchor="start" x="373" y="-216.2" font-family="Times New Roman,Times,Liberation Serif,serif" font-size="14.00">coordinate</text>
<polygon fill="none" stroke="black" points="450,-210.5 450,-232.5 634,-232.5 634,-210.5 450,-210.5"/>
<text text-anchor="start" x="489.88" y="-216.2" font-family="Times New Roman,Times,Liberation Serif,serif" font-size="14.00">Optional[Location]</text>
</a>
</g>
</g>
<!-- gdm.distribution.components.base.distribution_switch_base.DistributionSwitchBase&#45;&gt;gdm.distribution.components.distribution_bus.DistributionBus -->
<g id="edge1" class="edge">
<title>gdm.distribution.components.base.distribution_switch_base.DistributionSwitchBase:e&#45;&gt;gdm.distribution.components.distribution_bus.DistributionBus:w</title>
<path fill="none" stroke="black" d="M254.78,-441.19C290.17,-438.87 303.8,-424.26 336.49,-420.42"/>
<polyline fill="none" stroke="black" points="245,-441.5 250,-441.34"/>
<polyline fill="none" stroke="black" points="250,-441.34 254.99,-441.18"/>
<polygon fill="black" stroke="black" points="342.68,-420.08 352.92,-424.01 348.01,-419.78 352.33,-419.54 352.33,-419.54 352.33,-419.54 348.01,-419.78 352.41,-415.03 342.68,-420.08"/>
<polyline fill="none" stroke="black" points="341.47,-420.15 336.47,-420.42"/>
</g>
<!-- gdm.distribution.components.distribution_feeder.DistributionFeeder -->
<g id="node3" class="node">
<title>gdm.distribution.components.distribution_feeder.DistributionFeeder</title>
<g id="a_node3"><a xlink:title="gdm.distribution.components.distribution_feeder.DistributionFeeder&#10;&#10;Class interface for distribution feeder.&#10;">
<polygon fill="none" stroke="black" points="1028,-474.5 1028,-496.5 1144,-496.5 1144,-474.5 1028,-474.5"/>
<text text-anchor="start" x="1030.88" y="-481.2" font-family="Times New Roman,Times,Liberation Serif,serif" font-weight="bold" font-size="14.00">DistributionFeeder</text>
<polygon fill="none" stroke="black" points="1028,-452.5 1028,-474.5 1084,-474.5 1084,-452.5 1028,-452.5"/>
<text text-anchor="start" x="1044" y="-458.2" font-family="Times New Roman,Times,Liberation Serif,serif" font-size="14.00">uuid</text>
<polygon fill="none" stroke="black" points="1084,-452.5 1084,-474.5 1144,-474.5 1144,-452.5 1084,-452.5"/>
<text text-anchor="start" x="1097.12" y="-458.2" font-family="Times New Roman,Times,Liberation Serif,serif" font-size="14.00">UUID</text>
<polygon fill="none" stroke="black" points="1028,-430.5 1028,-452.5 1084,-452.5 1084,-430.5 1028,-430.5"/>
<text text-anchor="start" x="1041" y="-436.2" font-family="Times New Roman,Times,Liberation Serif,serif" font-size="14.00">name</text>
<polygon fill="none" stroke="black" points="1084,-430.5 1084,-452.5 1144,-452.5 1144,-430.5 1084,-430.5"/>
<text text-anchor="start" x="1107.25" y="-436.2" font-family="Times New Roman,Times,Liberation Serif,serif" font-size="14.00">str</text>
</a>
</g>
</g>
<!-- gdm.distribution.components.base.distribution_switch_base.DistributionSwitchBase&#45;&gt;gdm.distribution.components.distribution_feeder.DistributionFeeder -->
<g id="edge2" class="edge">
<title>gdm.distribution.components.base.distribution_switch_base.DistributionSwitchBase:e&#45;&gt;gdm.distribution.components.distribution_feeder.DistributionFeeder:w</title>
<path fill="none" stroke="black" d="M254.87,-485.5C588.38,-485.5 679.94,-485.5 1009.07,-485.5"/>
<polyline fill="none" stroke="black" points="245,-485.5 250,-485.5"/>
<polyline fill="none" stroke="black" points="250,-485.5 255,-485.5"/>
<polyline fill="none" stroke="black" points="1028,-485.5 1023,-485.5"/>
<polygon fill="black" stroke="black" points="1022,-480.5 1022,-490.5 1020,-490.5 1020,-480.5 1022,-480.5"/>
<polyline fill="none" stroke="black" points="1023,-485.5 1018,-485.5"/>
<ellipse fill="none" stroke="black" cx="1013.5" cy="-485.5" rx="4" ry="4"/>
</g>
<!-- gdm.distribution.components.distribution_substation.DistributionSubstation -->
<g id="node4" class="node">
<title>gdm.distribution.components.distribution_substation.DistributionSubstation</title>
<g id="a_node4"><a xlink:title="gdm.distribution.components.distribution_substation.DistributionSubstation&#10;&#10;Class interface for distribution feeder.&#10;">
<polygon fill="none" stroke="black" points="742,-606.5 742,-628.5 920,-628.5 920,-606.5 742,-606.5"/>
<text text-anchor="start" x="765" y="-613.2" font-family="Times New Roman,Times,Liberation Serif,serif" font-weight="bold" font-size="14.00">DistributionSubstation</text>
<polygon fill="none" stroke="black" points="742,-584.5 742,-606.5 787,-606.5 787,-584.5 742,-584.5"/>
<text text-anchor="start" x="752.5" y="-590.2" font-family="Times New Roman,Times,Liberation Serif,serif" font-size="14.00">uuid</text>
<polygon fill="none" stroke="black" points="787,-584.5 787,-606.5 920,-606.5 920,-584.5 787,-584.5"/>
<text text-anchor="start" x="836.62" y="-590.2" font-family="Times New Roman,Times,Liberation Serif,serif" font-size="14.00">UUID</text>
<polygon fill="none" stroke="black" points="742,-562.5 742,-584.5 787,-584.5 787,-562.5 742,-562.5"/>
<text text-anchor="start" x="749.5" y="-568.2" font-family="Times New Roman,Times,Liberation Serif,serif" font-size="14.00">name</text>
<polygon fill="none" stroke="black" points="787,-562.5 787,-584.5 920,-584.5 920,-562.5 787,-562.5"/>
<text text-anchor="start" x="846.75" y="-568.2" font-family="Times New Roman,Times,Liberation Serif,serif" font-size="14.00">str</text>
<polygon fill="none" stroke="black" points="742,-540.5 742,-562.5 787,-562.5 787,-540.5 742,-540.5"/>
<text text-anchor="start" x="745" y="-546.2" font-family="Times New Roman,Times,Liberation Serif,serif" font-size="14.00">feeders</text>
<polygon fill="none" stroke="black" points="787,-540.5 787,-562.5 920,-562.5 920,-540.5 787,-540.5"/>
<text text-anchor="start" x="789.75" y="-546.2" font-family="Times New Roman,Times,Liberation Serif,serif" font-size="14.00">list[DistributionFeeder]</text>
</a>
</g>
</g>
<!-- gdm.distribution.components.base.distribution_switch_base.DistributionSwitchBase&#45;&gt;gdm.distribution.components.distribution_substation.DistributionSubstation -->
<g id="edge3" class="edge">
<title>gdm.distribution.components.base.distribution_switch_base.DistributionSwitchBase:e&#45;&gt;gdm.distribution.components.distribution_substation.DistributionSubstation:w</title>
<path fill="none" stroke="black" d="M254.83,-507.57C466.3,-510.61 516.26,-611.43 723.16,-617.24"/>
<polyline fill="none" stroke="black" points="245,-507.5 250,-507.54"/>
<polyline fill="none" stroke="black" points="250,-507.54 255,-507.57"/>
<polyline fill="none" stroke="black" points="742,-617.5 737,-617.43"/>
<polygon fill="black" stroke="black" points="736.07,-612.42 735.93,-622.42 733.93,-622.39 734.07,-612.39 736.07,-612.42"/>
<polyline fill="none" stroke="black" points="737,-617.43 732,-617.36"/>
<ellipse fill="none" stroke="black" cx="727.5" cy="-617.3" rx="4" ry="4"/>
</g>
<!-- gdm.distribution.components.distribution_bus.DistributionBus&#45;&gt;gdm.distribution.components.distribution_feeder.DistributionFeeder -->
<g id="edge4" class="edge">
<title>gdm.distribution.components.distribution_bus.DistributionBus:e&#45;&gt;gdm.distribution.components.distribution_feeder.DistributionFeeder:w</title>
<path fill="none" stroke="black" d="M643.73,-332C735.26,-340.94 912.31,-467.5 1009.18,-483.78"/>
<polyline fill="none" stroke="black" points="634,-331.5 638.99,-331.76"/>
<polyline fill="none" stroke="black" points="638.99,-331.76 643.99,-332.01"/>
<polyline fill="none" stroke="black" points="1028,-485.5 1023.02,-485.05"/>
<polygon fill="black" stroke="black" points="1022.48,-479.97 1021.57,-489.93 1019.58,-489.75 1020.49,-479.79 1022.48,-479.97"/>
<polyline fill="none" stroke="black" points="1023.02,-485.05 1018.04,-484.59"/>
<ellipse fill="none" stroke="black" cx="1013.56" cy="-484.18" rx="4" ry="4"/>
</g>
<!-- gdm.distribution.components.distribution_bus.DistributionBus&#45;&gt;gdm.distribution.components.distribution_substation.DistributionSubstation -->
<g id="edge5" class="edge">
<title>gdm.distribution.components.distribution_bus.DistributionBus:e&#45;&gt;gdm.distribution.components.distribution_substation.DistributionSubstation:w</title>
<path fill="none" stroke="black" d="M643.8,-354.08C746.72,-366.95 633.36,-589.5 723.16,-615.11"/>
<polyline fill="none" stroke="black" points="634,-353.5 638.99,-353.8"/>
<polyline fill="none" stroke="black" points="638.99,-353.8 643.98,-354.09"/>
<polyline fill="none" stroke="black" points="742,-617.5 737.04,-616.87"/>
<polygon fill="black" stroke="black" points="736.68,-611.78 735.42,-621.7 733.43,-621.45 734.69,-611.53 736.68,-611.78"/>
<polyline fill="none" stroke="black" points="737.04,-616.87 732.08,-616.24"/>
<ellipse fill="none" stroke="black" cx="727.62" cy="-615.67" rx="4" ry="4"/>
</g>
<!-- gdm.distribution.limitset.VoltageLimitSet -->
<g id="node5" class="node">
<title>gdm.distribution.limitset.VoltageLimitSet</title>
<g id="a_node5"><a xlink:title="gdm.distribution.limitset.VoltageLimitSet&#10;&#10;Interface for voltage limit set.&#10;">
<polygon fill="none" stroke="black" points="755,-274.5 755,-296.5 907,-296.5 907,-274.5 755,-274.5"/>
<text text-anchor="start" x="783.75" y="-281.2" font-family="Times New Roman,Times,Liberation Serif,serif" font-weight="bold" font-size="14.00">VoltageLimitSet</text>
<polygon fill="none" stroke="black" points="755,-252.5 755,-274.5 817,-274.5 817,-252.5 755,-252.5"/>
<text text-anchor="start" x="774" y="-258.2" font-family="Times New Roman,Times,Liberation Serif,serif" font-size="14.00">uuid</text>
<polygon fill="none" stroke="black" points="817,-252.5 817,-274.5 907,-274.5 907,-252.5 817,-252.5"/>
<text text-anchor="start" x="845.12" y="-258.2" font-family="Times New Roman,Times,Liberation Serif,serif" font-size="14.00">UUID</text>
<polygon fill="none" stroke="black" points="755,-230.5 755,-252.5 817,-252.5 817,-230.5 755,-230.5"/>
<text text-anchor="start" x="771" y="-236.2" font-family="Times New Roman,Times,Liberation Serif,serif" font-size="14.00">name</text>
<polygon fill="none" stroke="black" points="817,-230.5 817,-252.5 907,-252.5 907,-230.5 817,-230.5"/>
<text text-anchor="start" x="855.25" y="-236.2" font-family="Times New Roman,Times,Liberation Serif,serif" font-size="14.00">str</text>
<polygon fill="none" stroke="black" points="755,-208.5 755,-230.5 817,-230.5 817,-208.5 755,-208.5"/>
<text text-anchor="start" x="757.88" y="-214.2" font-family="Times New Roman,Times,Liberation Serif,serif" font-size="14.00">limit_type</text>
<polygon fill="none" stroke="black" points="817,-208.5 817,-230.5 907,-230.5 907,-208.5 817,-208.5"/>
<text text-anchor="start" x="833.12" y="-214.2" font-family="Times New Roman,Times,Liberation Serif,serif" font-size="14.00">LimitType</text>
<polygon fill="none" stroke="black" points="755,-186.5 755,-208.5 817,-208.5 817,-186.5 755,-186.5"/>
<text text-anchor="start" x="771.38" y="-192.2" font-family="Times New Roman,Times,Liberation Serif,serif" font-size="14.00">value</text>
<polygon fill="none" stroke="black" points="817,-186.5 817,-208.5 907,-208.5 907,-186.5 817,-186.5"/>
<text text-anchor="start" x="819.62" y="-192.2" font-family="Times New Roman,Times,Liberation Serif,serif" font-size="14.00">PositiveVoltage</text>
</a>
</g>
</g>
<!-- gdm.distribution.components.distribution_bus.DistributionBus&#45;&gt;gdm.distribution.limitset.VoltageLimitSet -->
<g id="edge6" class="edge">
<title>gdm.distribution.components.distribution_bus.DistributionBus:e&#45;&gt;gdm.distribution.limitset.VoltageLimitSet:w</title>
<path fill="none" stroke="black" d="M643.95,-265.74C684.49,-267.74 699.84,-281.67 737.88,-284.85"/>
<polyline fill="none" stroke="black" points="634,-265.5 639,-265.62"/>
<polyline fill="none" stroke="black" points="639,-265.62 644,-265.74"/>
<polygon fill="black" stroke="black" points="743.67,-285.09 753.49,-289.98 749,-285.3 753.33,-285.47 753.33,-285.47 753.33,-285.47 749,-285.3 753.85,-280.99 743.67,-285.09"/>
<polyline fill="none" stroke="black" points="742.46,-285.04 737.46,-284.84"/>
</g>
<!-- infrasys.location.Location -->
<g id="node6" class="node">
<title>infrasys.location.Location</title>
<g id="a_node6"><a xlink:title="infrasys.location.Location&#10;&#10;Specifies geographic location.&#10;">
<polygon fill="none" stroke="black" points="783.5,-128.5 783.5,-150.5 878.5,-150.5 878.5,-128.5 783.5,-128.5"/>
<text text-anchor="start" x="805.5" y="-135.2" font-family="Times New Roman,Times,Liberation Serif,serif" font-weight="bold" font-size="14.00">Location</text>
<polygon fill="none" stroke="black" points="783.5,-106.5 783.5,-128.5 819.5,-128.5 819.5,-106.5 783.5,-106.5"/>
<text text-anchor="start" x="789.5" y="-112.2" font-family="Times New Roman,Times,Liberation Serif,serif" font-size="14.00">uuid</text>
<polygon fill="none" stroke="black" points="819.5,-106.5 819.5,-128.5 878.5,-128.5 878.5,-106.5 819.5,-106.5"/>
<text text-anchor="start" x="832.12" y="-112.2" font-family="Times New Roman,Times,Liberation Serif,serif" font-size="14.00">UUID</text>
<polygon fill="none" stroke="black" points="783.5,-84.5 783.5,-106.5 819.5,-106.5 819.5,-84.5 783.5,-84.5"/>
<text text-anchor="start" x="786.5" y="-90.2" font-family="Times New Roman,Times,Liberation Serif,serif" font-size="14.00">name</text>
<polygon fill="none" stroke="black" points="819.5,-84.5 819.5,-106.5 878.5,-106.5 878.5,-84.5 819.5,-84.5"/>
<text text-anchor="start" x="842.25" y="-90.2" font-family="Times New Roman,Times,Liberation Serif,serif" font-size="14.00">str</text>
<polygon fill="none" stroke="black" points="783.5,-62.5 783.5,-84.5 819.5,-84.5 819.5,-62.5 783.5,-62.5"/>
<text text-anchor="start" x="798.12" y="-68.2" font-family="Times New Roman,Times,Liberation Serif,serif" font-size="14.00">x</text>
<polygon fill="none" stroke="black" points="819.5,-62.5 819.5,-84.5 878.5,-84.5 878.5,-62.5 819.5,-62.5"/>
<text text-anchor="start" x="836.62" y="-68.2" font-family="Times New Roman,Times,Liberation Serif,serif" font-size="14.00">float</text>
<polygon fill="none" stroke="black" points="783.5,-40.5 783.5,-62.5 819.5,-62.5 819.5,-40.5 783.5,-40.5"/>
<text text-anchor="start" x="798.12" y="-46.2" font-family="Times New Roman,Times,Liberation Serif,serif" font-size="14.00">y</text>
<polygon fill="none" stroke="black" points="819.5,-40.5 819.5,-62.5 878.5,-62.5 878.5,-40.5 819.5,-40.5"/>
<text text-anchor="start" x="836.62" y="-46.2" font-family="Times New Roman,Times,Liberation Serif,serif" font-size="14.00">float</text>
<polygon fill="none" stroke="black" points="783.5,-18.5 783.5,-40.5 819.5,-40.5 819.5,-18.5 783.5,-18.5"/>
<text text-anchor="start" x="793.62" y="-24.2" font-family="Times New Roman,Times,Liberation Serif,serif" font-size="14.00">crs</text>
<polygon fill="none" stroke="black" points="819.5,-18.5 819.5,-40.5 878.5,-40.5 878.5,-18.5 819.5,-18.5"/>
<text text-anchor="start" x="822.38" y="-24.2" font-family="Times New Roman,Times,Liberation Serif,serif" font-size="14.00">str | None</text>
</a>
</g>
</g>
<!-- gdm.distribution.components.distribution_bus.DistributionBus&#45;&gt;infrasys.location.Location -->
<g id="edge7" class="edge">
<title>gdm.distribution.components.distribution_bus.DistributionBus:e&#45;&gt;infrasys.location.Location:w</title>
<path fill="none" stroke="black" d="M643.68,-221.02C702.88,-214.94 709.39,-153.19 763.21,-141.43"/>
<polyline fill="none" stroke="black" points="634,-221.5 638.99,-221.25"/>
<polyline fill="none" stroke="black" points="638.99,-221.25 643.99,-221"/>
<polyline fill="none" stroke="black" points="782,-139.5 777.03,-140.01"/>
<polygon fill="black" stroke="black" points="775.52,-135.14 776.54,-145.09 774.55,-145.29 773.53,-135.34 775.52,-135.14"/>
<polyline fill="none" stroke="black" points="777.03,-140.01 772.05,-140.52"/>
<ellipse fill="none" stroke="black" cx="767.58" cy="-140.98" rx="4" ry="4"/>
</g>
<!-- gdm.distribution.components.distribution_substation.DistributionSubstation&#45;&gt;gdm.distribution.components.distribution_feeder.DistributionFeeder -->
<g id="edge8" class="edge">
<title>gdm.distribution.components.distribution_substation.DistributionSubstation:e&#45;&gt;gdm.distribution.components.distribution_feeder.DistributionFeeder:w</title>
<path fill="none" stroke="black" d="M929.87,-550.76C970.89,-544.3 974.85,-497.58 1012.48,-487.44"/>
<polyline fill="none" stroke="black" points="920,-551.5 924.99,-551.13"/>
<polyline fill="none" stroke="black" points="924.99,-551.13 929.97,-550.75"/>
<polygon fill="black" stroke="black" points="1017.75,-486.78 1028.23,-490.01 1023.04,-486.12 1027.34,-485.58 1027.34,-485.58 1027.34,-485.58 1023.04,-486.12 1027.11,-481.08 1017.75,-486.78"/>
<polyline fill="none" stroke="black" points="1016.54,-486.93 1011.57,-487.55"/>
</g>
</g>
</svg>
