<?xml version="1.0" encoding="UTF-8" standalone="no"?>
<!DOCTYPE svg PUBLIC "-//W3C//DTD SVG 1.1//EN"
 "http://www.w3.org/Graphics/SVG/1.1/DTD/svg11.dtd">
<!-- Generated by graphviz version 12.2.1 (20241206.2353)
 -->
<!-- Title: Entity Relationship Diagram created by erdantic Pages: 1 -->
<svg width="275pt" height="162pt"
 viewBox="0.00 0.00 274.50 161.50" xmlns="http://www.w3.org/2000/svg" xmlns:xlink="http://www.w3.org/1999/xlink">
<g id="graph0" class="graph" transform="scale(1 1) rotate(0) translate(4 157.5)">
<title>Entity Relationship Diagram created by erdantic</title>
<polygon fill="white" stroke="none" points="-4,4 -4,-157.5 270.5,-157.5 270.5,4 -4,4"/>
<text text-anchor="middle" x="133.25" y="-5.95" font-family="Times New Roman,Times,Liberation Serif,serif" font-size="9.00" fill="#a8a8a8">Created by erdantic v1.0.5 &lt;https://github.com/drivendataorg/erdantic&gt;</text>
<!-- gdm.distribution.controllers.distribution_switch_controller.DistributionSwitchController -->
<g id="node1" class="node">
<title>gdm.distribution.controllers.distribution_switch_controller.DistributionSwitchController</title>
<g id="a_node1"><a xlink:title="gdm.distribution.controllers.distribution_switch_controller.DistributionSwitchController&#10;&#10;Data model for distribution switch controller.&#10;">
<polygon fill="none" stroke="black" points="34.25,-131 34.25,-153.5 232.25,-153.5 232.25,-131 34.25,-131"/>
<text text-anchor="start" x="48.12" y="-138.2" font-family="Times New Roman,Times,Liberation Serif,serif" font-weight="bold" font-size="14.00">DistributionSwitchController</text>
<polygon fill="none" stroke="black" points="34.25,-108.5 34.25,-131 110.75,-131 110.75,-108.5 34.25,-108.5"/>
<text text-anchor="start" x="60.5" y="-114.7" font-family="Times New Roman,Times,Liberation Serif,serif" font-size="14.00">uuid</text>
<polygon fill="none" stroke="black" points="110.75,-108.5 110.75,-131 232.25,-131 232.25,-108.5 110.75,-108.5"/>
<text text-anchor="start" x="154.62" y="-114.7" font-family="Times New Roman,Times,Liberation Serif,serif" font-size="14.00">UUID</text>
<polygon fill="none" stroke="black" points="34.25,-86 34.25,-108.5 110.75,-108.5 110.75,-86 34.25,-86"/>
<text text-anchor="start" x="57.5" y="-92.2" font-family="Times New Roman,Times,Liberation Serif,serif" font-size="14.00">name</text>
<polygon fill="none" stroke="black" points="110.75,-86 110.75,-108.5 232.25,-108.5 232.25,-86 110.75,-86"/>
<text text-anchor="start" x="164.75" y="-92.2" font-family="Times New Roman,Times,Liberation Serif,serif" font-size="14.00">str</text>
<polygon fill="none" stroke="black" points="34.25,-63.5 34.25,-86 110.75,-86 110.75,-63.5 34.25,-63.5"/>
<text text-anchor="start" x="57.88" y="-69.7" font-family="Times New Roman,Times,Liberation Serif,serif" font-size="14.00">delay</text>
<polygon fill="none" stroke="black" points="110.75,-63.5 110.75,-86 232.25,-86 232.25,-63.5 110.75,-63.5"/>
<text text-anchor="start" x="156.88" y="-69.7" font-family="Times New Roman,Times,Liberation Serif,serif" font-size="14.00">Time</text>
<polygon fill="none" stroke="black" points="34.25,-41 34.25,-63.5 110.75,-63.5 110.75,-41 34.25,-41"/>
<text text-anchor="start" x="37.25" y="-47.2" font-family="Times New Roman,Times,Liberation Serif,serif" font-size="14.00">normal_state</text>
<polygon fill="none" stroke="black" points="110.75,-41 110.75,-63.5 232.25,-63.5 232.25,-41 110.75,-41"/>
<text text-anchor="start" x="113.75" y="-47.2" font-family="Times New Roman,Times,Liberation Serif,serif" font-size="14.00">Literal[&#39;open&#39;, &#39;close&#39;]</text>
<polygon fill="none" stroke="black" points="34.25,-18.5 34.25,-41 110.75,-41 110.75,-18.5 34.25,-18.5"/>
<text text-anchor="start" x="46.62" y="-24.7" font-family="Times New Roman,Times,Liberation Serif,serif" font-size="14.00">is_locked</text>
<polygon fill="none" stroke="black" points="110.75,-18.5 110.75,-41 232.25,-41 232.25,-18.5 110.75,-18.5"/>
<text text-anchor="start" x="159.5" y="-24.7" font-family="Times New Roman,Times,Liberation Serif,serif" font-size="14.00">bool</text>
</a>
</g>
</g>
</g>
</svg>
