<?xml version="1.0" encoding="UTF-8" standalone="no"?>
<!DOCTYPE svg PUBLIC "-//W3C//DTD SVG 1.1//EN"
 "http://www.w3.org/Graphics/SVG/1.1/DTD/svg11.dtd">
<!-- Generated by graphviz version 12.2.1 (20241206.2353)
 -->
<!-- Title: Entity Relationship Diagram created by erdantic Pages: 1 -->
<svg width="1137pt" height="647pt"
 viewBox="0.00 0.00 1136.75 647.00" xmlns="http://www.w3.org/2000/svg" xmlns:xlink="http://www.w3.org/1999/xlink">
<g id="graph0" class="graph" transform="scale(1 1) rotate(0) translate(4 643)">
<title>Entity Relationship Diagram created by erdantic</title>
<polygon fill="white" stroke="none" points="-4,4 -4,-643 1132.75,-643 1132.75,4 -4,4"/>
<text text-anchor="middle" x="564.38" y="-5.95" font-family="Times New Roman,Times,Liberation Serif,serif" font-size="9.00" fill="#a8a8a8">Created by erdantic v1.0.5 &lt;https://github.com/drivendataorg/erdantic&gt;</text>
<!-- gdm.distribution.common.limitset.VoltageLimitSet -->
<g id="node1" class="node">
<title>gdm.distribution.common.limitset.VoltageLimitSet</title>
<g id="a_node1"><a xlink:title="gdm.distribution.common.limitset.VoltageLimitSet&#10;&#10;Interface for voltage limit set.&#10;">
<polygon fill="none" stroke="black" points="738.75,-279.75 738.75,-302.25 891.75,-302.25 891.75,-279.75 738.75,-279.75"/>
<text text-anchor="start" x="768" y="-286.95" font-family="Times New Roman,Times,Liberation Serif,serif" font-weight="bold" font-size="14.00">VoltageLimitSet</text>
<polygon fill="none" stroke="black" points="738.75,-257.25 738.75,-279.75 801,-279.75 801,-257.25 738.75,-257.25"/>
<text text-anchor="start" x="757.88" y="-263.45" font-family="Times New Roman,Times,Liberation Serif,serif" font-size="14.00">uuid</text>
<polygon fill="none" stroke="black" points="801,-257.25 801,-279.75 891.75,-279.75 891.75,-257.25 801,-257.25"/>
<text text-anchor="start" x="829.5" y="-263.45" font-family="Times New Roman,Times,Liberation Serif,serif" font-size="14.00">UUID</text>
<polygon fill="none" stroke="black" points="738.75,-234.75 738.75,-257.25 801,-257.25 801,-234.75 738.75,-234.75"/>
<text text-anchor="start" x="754.88" y="-240.95" font-family="Times New Roman,Times,Liberation Serif,serif" font-size="14.00">name</text>
<polygon fill="none" stroke="black" points="801,-234.75 801,-257.25 891.75,-257.25 891.75,-234.75 801,-234.75"/>
<text text-anchor="start" x="839.62" y="-240.95" font-family="Times New Roman,Times,Liberation Serif,serif" font-size="14.00">str</text>
<polygon fill="none" stroke="black" points="738.75,-212.25 738.75,-234.75 801,-234.75 801,-212.25 738.75,-212.25"/>
<text text-anchor="start" x="741.75" y="-218.45" font-family="Times New Roman,Times,Liberation Serif,serif" font-size="14.00">limit_type</text>
<polygon fill="none" stroke="black" points="801,-212.25 801,-234.75 891.75,-234.75 891.75,-212.25 801,-212.25"/>
<text text-anchor="start" x="817.12" y="-218.45" font-family="Times New Roman,Times,Liberation Serif,serif" font-size="14.00">LimitType</text>
<polygon fill="none" stroke="black" points="738.75,-189.75 738.75,-212.25 801,-212.25 801,-189.75 738.75,-189.75"/>
<text text-anchor="start" x="755.25" y="-195.95" font-family="Times New Roman,Times,Liberation Serif,serif" font-size="14.00">value</text>
<polygon fill="none" stroke="black" points="801,-189.75 801,-212.25 891.75,-212.25 891.75,-189.75 801,-189.75"/>
<text text-anchor="start" x="804" y="-195.95" font-family="Times New Roman,Times,Liberation Serif,serif" font-size="14.00">PositiveVoltage</text>
</a>
</g>
</g>
<!-- gdm.distribution.components.base.distribution_switch_base.DistributionSwitchBase -->
<g id="node2" class="node">
<title>gdm.distribution.components.base.distribution_switch_base.DistributionSwitchBase</title>
<g id="a_node2"><a xlink:title="gdm.distribution.components.base.distribution_switch_base.DistributionSwitchBase&#10;&#10;Interface for distribution branch that can be toggled.&#10;">
<polygon fill="none" stroke="black" points="0,-573 0,-595.5 246,-595.5 246,-573 0,-573"/>
<text text-anchor="start" x="54.75" y="-580.2" font-family="Times New Roman,Times,Liberation Serif,serif" font-weight="bold" font-size="14.00">DistributionSwitchBase</text>
<polygon fill="none" stroke="black" points="0,-550.5 0,-573 61.5,-573 61.5,-550.5 0,-550.5"/>
<text text-anchor="start" x="18.75" y="-556.7" font-family="Times New Roman,Times,Liberation Serif,serif" font-size="14.00">uuid</text>
<polygon fill="none" stroke="black" points="61.5,-550.5 61.5,-573 246,-573 246,-550.5 61.5,-550.5"/>
<text text-anchor="start" x="136.88" y="-556.7" font-family="Times New Roman,Times,Liberation Serif,serif" font-size="14.00">UUID</text>
<polygon fill="none" stroke="black" points="0,-528 0,-550.5 61.5,-550.5 61.5,-528 0,-528"/>
<text text-anchor="start" x="15.75" y="-534.2" font-family="Times New Roman,Times,Liberation Serif,serif" font-size="14.00">name</text>
<polygon fill="none" stroke="black" points="61.5,-528 61.5,-550.5 246,-550.5 246,-528 61.5,-528"/>
<text text-anchor="start" x="147" y="-534.2" font-family="Times New Roman,Times,Liberation Serif,serif" font-size="14.00">str</text>
<polygon fill="none" stroke="black" points="0,-505.5 0,-528 61.5,-528 61.5,-505.5 0,-505.5"/>
<text text-anchor="start" x="3.38" y="-511.7" font-family="Times New Roman,Times,Liberation Serif,serif" font-size="14.00">substation</text>
<polygon fill="none" stroke="black" points="61.5,-505.5 61.5,-528 246,-528 246,-505.5 61.5,-505.5"/>
<text text-anchor="start" x="64.5" y="-511.7" font-family="Times New Roman,Times,Liberation Serif,serif" font-size="14.00">Optional[DistributionSubstation]</text>
<polygon fill="none" stroke="black" points="0,-483 0,-505.5 61.5,-505.5 61.5,-483 0,-483"/>
<text text-anchor="start" x="13.88" y="-489.2" font-family="Times New Roman,Times,Liberation Serif,serif" font-size="14.00">feeder</text>
<polygon fill="none" stroke="black" points="61.5,-483 61.5,-505.5 246,-505.5 246,-483 61.5,-483"/>
<text text-anchor="start" x="74.62" y="-489.2" font-family="Times New Roman,Times,Liberation Serif,serif" font-size="14.00">Optional[DistributionFeeder]</text>
<polygon fill="none" stroke="black" points="0,-460.5 0,-483 61.5,-483 61.5,-460.5 0,-460.5"/>
<text text-anchor="start" x="3" y="-466.7" font-family="Times New Roman,Times,Liberation Serif,serif" font-size="14.00">in_service</text>
<polygon fill="none" stroke="black" points="61.5,-460.5 61.5,-483 246,-483 246,-460.5 61.5,-460.5"/>
<text text-anchor="start" x="141.75" y="-466.7" font-family="Times New Roman,Times,Liberation Serif,serif" font-size="14.00">bool</text>
<polygon fill="none" stroke="black" points="0,-438 0,-460.5 61.5,-460.5 61.5,-438 0,-438"/>
<text text-anchor="start" x="15.75" y="-444.2" font-family="Times New Roman,Times,Liberation Serif,serif" font-size="14.00">buses</text>
<polygon fill="none" stroke="black" points="61.5,-438 61.5,-460.5 246,-460.5 246,-438 61.5,-438"/>
<text text-anchor="start" x="97.88" y="-444.2" font-family="Times New Roman,Times,Liberation Serif,serif" font-size="14.00">list[DistributionBus]</text>
<polygon fill="none" stroke="black" points="0,-415.5 0,-438 61.5,-438 61.5,-415.5 0,-415.5"/>
<text text-anchor="start" x="13.88" y="-421.7" font-family="Times New Roman,Times,Liberation Serif,serif" font-size="14.00">length</text>
<polygon fill="none" stroke="black" points="61.5,-415.5 61.5,-438 246,-438 246,-415.5 61.5,-415.5"/>
<text text-anchor="start" x="108.38" y="-421.7" font-family="Times New Roman,Times,Liberation Serif,serif" font-size="14.00">PositiveDistance</text>
<polygon fill="none" stroke="black" points="0,-393 0,-415.5 61.5,-415.5 61.5,-393 0,-393"/>
<text text-anchor="start" x="12.75" y="-399.2" font-family="Times New Roman,Times,Liberation Serif,serif" font-size="14.00">phases</text>
<polygon fill="none" stroke="black" points="61.5,-393 61.5,-415.5 246,-415.5 246,-393 61.5,-393"/>
<text text-anchor="start" x="125.25" y="-399.2" font-family="Times New Roman,Times,Liberation Serif,serif" font-size="14.00">list[Phase]</text>
<polygon fill="none" stroke="black" points="0,-370.5 0,-393 61.5,-393 61.5,-370.5 0,-370.5"/>
<text text-anchor="start" x="5.62" y="-376.7" font-family="Times New Roman,Times,Liberation Serif,serif" font-size="14.00">is_closed</text>
<polygon fill="none" stroke="black" points="61.5,-370.5 61.5,-393 246,-393 246,-370.5 61.5,-370.5"/>
<text text-anchor="start" x="129" y="-376.7" font-family="Times New Roman,Times,Liberation Serif,serif" font-size="14.00">list[bool]</text>
</a>
</g>
</g>
<!-- gdm.distribution.components.distribution_bus.DistributionBus -->
<g id="node3" class="node">
<title>gdm.distribution.components.distribution_bus.DistributionBus</title>
<g id="a_node3"><a xlink:title="gdm.distribution.components.distribution_bus.DistributionBus&#10;&#10;Interface for distribution bus.&#10;&#10;Examples:&#10; &#160;&#160;&#160;&gt;&gt;&gt; from gdm import DistributionBus&#10; &#160;&#160;&#160;&gt;&gt;&gt; DistributionBus.example()&#10;">
<polygon fill="none" stroke="black" points="354,-416 354,-438.5 618,-438.5 618,-416 354,-416"/>
<text text-anchor="start" x="439.88" y="-423.2" font-family="Times New Roman,Times,Liberation Serif,serif" font-weight="bold" font-size="14.00">DistributionBus</text>
<polygon fill="none" stroke="black" points="354,-393.5 354,-416 433.5,-416 433.5,-393.5 354,-393.5"/>
<text text-anchor="start" x="381.75" y="-399.7" font-family="Times New Roman,Times,Liberation Serif,serif" font-size="14.00">uuid</text>
<polygon fill="none" stroke="black" points="433.5,-393.5 433.5,-416 618,-416 618,-393.5 433.5,-393.5"/>
<text text-anchor="start" x="508.88" y="-399.7" font-family="Times New Roman,Times,Liberation Serif,serif" font-size="14.00">UUID</text>
<polygon fill="none" stroke="black" points="354,-371 354,-393.5 433.5,-393.5 433.5,-371 354,-371"/>
<text text-anchor="start" x="378.75" y="-377.2" font-family="Times New Roman,Times,Liberation Serif,serif" font-size="14.00">name</text>
<polygon fill="none" stroke="black" points="433.5,-371 433.5,-393.5 618,-393.5 618,-371 433.5,-371"/>
<text text-anchor="start" x="519" y="-377.2" font-family="Times New Roman,Times,Liberation Serif,serif" font-size="14.00">str</text>
<polygon fill="none" stroke="black" points="354,-348.5 354,-371 433.5,-371 433.5,-348.5 354,-348.5"/>
<text text-anchor="start" x="366.38" y="-354.7" font-family="Times New Roman,Times,Liberation Serif,serif" font-size="14.00">substation</text>
<polygon fill="none" stroke="black" points="433.5,-348.5 433.5,-371 618,-371 618,-348.5 433.5,-348.5"/>
<text text-anchor="start" x="436.5" y="-354.7" font-family="Times New Roman,Times,Liberation Serif,serif" font-size="14.00">Optional[DistributionSubstation]</text>
<polygon fill="none" stroke="black" points="354,-326 354,-348.5 433.5,-348.5 433.5,-326 354,-326"/>
<text text-anchor="start" x="376.88" y="-332.2" font-family="Times New Roman,Times,Liberation Serif,serif" font-size="14.00">feeder</text>
<polygon fill="none" stroke="black" points="433.5,-326 433.5,-348.5 618,-348.5 618,-326 433.5,-326"/>
<text text-anchor="start" x="446.62" y="-332.2" font-family="Times New Roman,Times,Liberation Serif,serif" font-size="14.00">Optional[DistributionFeeder]</text>
<polygon fill="none" stroke="black" points="354,-303.5 354,-326 433.5,-326 433.5,-303.5 354,-303.5"/>
<text text-anchor="start" x="358.88" y="-309.7" font-family="Times New Roman,Times,Liberation Serif,serif" font-size="14.00">voltage_type</text>
<polygon fill="none" stroke="black" points="433.5,-303.5 433.5,-326 618,-326 618,-303.5 433.5,-303.5"/>
<text text-anchor="start" x="488.62" y="-309.7" font-family="Times New Roman,Times,Liberation Serif,serif" font-size="14.00">VoltageTypes</text>
<polygon fill="none" stroke="black" points="354,-281 354,-303.5 433.5,-303.5 433.5,-281 354,-281"/>
<text text-anchor="start" x="375.75" y="-287.2" font-family="Times New Roman,Times,Liberation Serif,serif" font-size="14.00">phases</text>
<polygon fill="none" stroke="black" points="433.5,-281 433.5,-303.5 618,-303.5 618,-281 433.5,-281"/>
<text text-anchor="start" x="497.25" y="-287.2" font-family="Times New Roman,Times,Liberation Serif,serif" font-size="14.00">list[Phase]</text>
<polygon fill="none" stroke="black" points="354,-258.5 354,-281 433.5,-281 433.5,-258.5 354,-258.5"/>
<text text-anchor="start" x="358.12" y="-264.7" font-family="Times New Roman,Times,Liberation Serif,serif" font-size="14.00">voltagelimits</text>
<polygon fill="none" stroke="black" points="433.5,-258.5 433.5,-281 618,-281 618,-258.5 433.5,-258.5"/>
<text text-anchor="start" x="468.38" y="-264.7" font-family="Times New Roman,Times,Liberation Serif,serif" font-size="14.00">list[VoltageLimitSet]</text>
<polygon fill="none" stroke="black" points="354,-236 354,-258.5 433.5,-258.5 433.5,-236 354,-236"/>
<text text-anchor="start" x="357" y="-242.2" font-family="Times New Roman,Times,Liberation Serif,serif" font-size="14.00">rated_voltage</text>
<polygon fill="none" stroke="black" points="433.5,-236 433.5,-258.5 618,-258.5 618,-236 433.5,-236"/>
<text text-anchor="start" x="483.38" y="-242.2" font-family="Times New Roman,Times,Liberation Serif,serif" font-size="14.00">PositiveVoltage</text>
<polygon fill="none" stroke="black" points="354,-213.5 354,-236 433.5,-236 433.5,-213.5 354,-213.5"/>
<text text-anchor="start" x="365.25" y="-219.7" font-family="Times New Roman,Times,Liberation Serif,serif" font-size="14.00">coordinate</text>
<polygon fill="none" stroke="black" points="433.5,-213.5 433.5,-236 618,-236 618,-213.5 433.5,-213.5"/>
<text text-anchor="start" x="473.62" y="-219.7" font-family="Times New Roman,Times,Liberation Serif,serif" font-size="14.00">Optional[Location]</text>
</a>
</g>
</g>
<!-- gdm.distribution.components.base.distribution_switch_base.DistributionSwitchBase&#45;&gt;gdm.distribution.components.distribution_bus.DistributionBus -->
<g id="edge1" class="edge">
<title>gdm.distribution.components.base.distribution_switch_base.DistributionSwitchBase:e&#45;&gt;gdm.distribution.components.distribution_bus.DistributionBus:w</title>
<path fill="none" stroke="black" d="M255.78,-448.94C291.65,-446.59 305.16,-431.62 338.83,-428.02"/>
<polyline fill="none" stroke="black" points="246,-449.25 251,-449.09"/>
<polyline fill="none" stroke="black" points="251,-449.09 255.99,-448.93"/>
<polygon fill="black" stroke="black" points="343.68,-427.78 353.9,-431.76 349.01,-427.5 353.33,-427.28 353.33,-427.28 353.33,-427.28 349.01,-427.5 353.44,-422.77 343.68,-427.78"/>
<polyline fill="none" stroke="black" points="342.46,-427.84 337.47,-428.09"/>
</g>
<!-- gdm.distribution.components.distribution_feeder.DistributionFeeder -->
<g id="node4" class="node">
<title>gdm.distribution.components.distribution_feeder.DistributionFeeder</title>
<g id="a_node4"><a xlink:title="gdm.distribution.components.distribution_feeder.DistributionFeeder&#10;&#10;Class interface for distribution feeder.&#10;">
<polygon fill="none" stroke="black" points="1012.5,-483.25 1012.5,-505.75 1128.75,-505.75 1128.75,-483.25 1012.5,-483.25"/>
<text text-anchor="start" x="1015.5" y="-490.45" font-family="Times New Roman,Times,Liberation Serif,serif" font-weight="bold" font-size="14.00">DistributionFeeder</text>
<polygon fill="none" stroke="black" points="1012.5,-460.75 1012.5,-483.25 1068.75,-483.25 1068.75,-460.75 1012.5,-460.75"/>
<text text-anchor="start" x="1028.62" y="-466.95" font-family="Times New Roman,Times,Liberation Serif,serif" font-size="14.00">uuid</text>
<polygon fill="none" stroke="black" points="1068.75,-460.75 1068.75,-483.25 1128.75,-483.25 1128.75,-460.75 1068.75,-460.75"/>
<text text-anchor="start" x="1081.88" y="-466.95" font-family="Times New Roman,Times,Liberation Serif,serif" font-size="14.00">UUID</text>
<polygon fill="none" stroke="black" points="1012.5,-438.25 1012.5,-460.75 1068.75,-460.75 1068.75,-438.25 1012.5,-438.25"/>
<text text-anchor="start" x="1025.62" y="-444.45" font-family="Times New Roman,Times,Liberation Serif,serif" font-size="14.00">name</text>
<polygon fill="none" stroke="black" points="1068.75,-438.25 1068.75,-460.75 1128.75,-460.75 1128.75,-438.25 1068.75,-438.25"/>
<text text-anchor="start" x="1092" y="-444.45" font-family="Times New Roman,Times,Liberation Serif,serif" font-size="14.00">str</text>
</a>
</g>
</g>
<!-- gdm.distribution.components.base.distribution_switch_base.DistributionSwitchBase&#45;&gt;gdm.distribution.components.distribution_feeder.DistributionFeeder -->
<g id="edge2" class="edge">
<title>gdm.distribution.components.base.distribution_switch_base.DistributionSwitchBase:e&#45;&gt;gdm.distribution.components.distribution_feeder.DistributionFeeder:w</title>
<path fill="none" stroke="black" d="M255.91,-494.25C582.19,-494.25 671.85,-494.49 993.98,-494.5"/>
<polyline fill="none" stroke="black" points="246,-494.25 251,-494.25"/>
<polyline fill="none" stroke="black" points="251,-494.25 256,-494.25"/>
<polyline fill="none" stroke="black" points="1012.5,-494.5 1007.5,-494.5"/>
<polygon fill="black" stroke="black" points="1006.5,-489.5 1006.5,-499.5 1004.5,-499.5 1004.5,-489.5 1006.5,-489.5"/>
<polyline fill="none" stroke="black" points="1007.5,-494.5 1002.5,-494.5"/>
<ellipse fill="none" stroke="black" cx="998" cy="-494.5" rx="4" ry="4"/>
</g>
<!-- gdm.distribution.components.distribution_substation.DistributionSubstation -->
<g id="node5" class="node">
<title>gdm.distribution.components.distribution_substation.DistributionSubstation</title>
<g id="a_node5"><a xlink:title="gdm.distribution.components.distribution_substation.DistributionSubstation&#10;&#10;Class interface for distribution feeder.&#10;">
<polygon fill="none" stroke="black" points="726,-616.5 726,-639 904.5,-639 904.5,-616.5 726,-616.5"/>
<text text-anchor="start" x="749.25" y="-623.7" font-family="Times New Roman,Times,Liberation Serif,serif" font-weight="bold" font-size="14.00">DistributionSubstation</text>
<polygon fill="none" stroke="black" points="726,-594 726,-616.5 771,-616.5 771,-594 726,-594"/>
<text text-anchor="start" x="736.5" y="-600.2" font-family="Times New Roman,Times,Liberation Serif,serif" font-size="14.00">uuid</text>
<polygon fill="none" stroke="black" points="771,-594 771,-616.5 904.5,-616.5 904.5,-594 771,-594"/>
<text text-anchor="start" x="820.88" y="-600.2" font-family="Times New Roman,Times,Liberation Serif,serif" font-size="14.00">UUID</text>
<polygon fill="none" stroke="black" points="726,-571.5 726,-594 771,-594 771,-571.5 726,-571.5"/>
<text text-anchor="start" x="733.5" y="-577.7" font-family="Times New Roman,Times,Liberation Serif,serif" font-size="14.00">name</text>
<polygon fill="none" stroke="black" points="771,-571.5 771,-594 904.5,-594 904.5,-571.5 771,-571.5"/>
<text text-anchor="start" x="831" y="-577.7" font-family="Times New Roman,Times,Liberation Serif,serif" font-size="14.00">str</text>
<polygon fill="none" stroke="black" points="726,-549 726,-571.5 771,-571.5 771,-549 726,-549"/>
<text text-anchor="start" x="729" y="-555.2" font-family="Times New Roman,Times,Liberation Serif,serif" font-size="14.00">feeders</text>
<polygon fill="none" stroke="black" points="771,-549 771,-571.5 904.5,-571.5 904.5,-549 771,-549"/>
<text text-anchor="start" x="774" y="-555.2" font-family="Times New Roman,Times,Liberation Serif,serif" font-size="14.00">list[DistributionFeeder]</text>
</a>
</g>
</g>
<!-- gdm.distribution.components.base.distribution_switch_base.DistributionSwitchBase&#45;&gt;gdm.distribution.components.distribution_substation.DistributionSubstation -->
<g id="edge3" class="edge">
<title>gdm.distribution.components.base.distribution_switch_base.DistributionSwitchBase:e&#45;&gt;gdm.distribution.components.distribution_substation.DistributionSubstation:w</title>
<path fill="none" stroke="black" d="M255.82,-516.83C460.01,-519.99 507.58,-621.43 707.18,-627.47"/>
<polyline fill="none" stroke="black" points="246,-516.75 251,-516.79"/>
<polyline fill="none" stroke="black" points="251,-516.79 256,-516.83"/>
<polyline fill="none" stroke="black" points="726,-627.75 721,-627.68"/>
<polygon fill="black" stroke="black" points="720.08,-622.66 719.93,-632.66 717.93,-632.63 718.08,-622.63 720.08,-622.66"/>
<polyline fill="none" stroke="black" points="721,-627.68 716,-627.6"/>
<ellipse fill="none" stroke="black" cx="711.5" cy="-627.53" rx="4" ry="4"/>
</g>
<!-- gdm.distribution.components.distribution_bus.DistributionBus&#45;&gt;gdm.distribution.common.limitset.VoltageLimitSet -->
<g id="edge4" class="edge">
<title>gdm.distribution.components.distribution_bus.DistributionBus:e&#45;&gt;gdm.distribution.common.limitset.VoltageLimitSet:w</title>
<path fill="none" stroke="black" d="M627.95,-270C668.72,-272.14 683.85,-287.13 722.4,-290.38"/>
<polyline fill="none" stroke="black" points="618,-269.75 623,-269.88"/>
<polyline fill="none" stroke="black" points="623,-269.88 628,-270"/>
<polygon fill="black" stroke="black" points="727.42,-290.58 737.23,-295.48 732.75,-290.8 737.08,-290.97 737.08,-290.97 737.08,-290.97 732.75,-290.8 737.6,-286.49 727.42,-290.58"/>
<polyline fill="none" stroke="black" points="726.21,-290.53 721.21,-290.33"/>
</g>
<!-- gdm.distribution.components.distribution_bus.DistributionBus&#45;&gt;gdm.distribution.components.distribution_feeder.DistributionFeeder -->
<g id="edge5" class="edge">
<title>gdm.distribution.components.distribution_bus.DistributionBus:e&#45;&gt;gdm.distribution.components.distribution_feeder.DistributionFeeder:w</title>
<path fill="none" stroke="black" d="M627.76,-337.76C719.59,-346.89 896.48,-476.12 993.61,-492.74"/>
<polyline fill="none" stroke="black" points="618,-337.25 622.99,-337.51"/>
<polyline fill="none" stroke="black" points="622.99,-337.51 627.99,-337.77"/>
<polyline fill="none" stroke="black" points="1012.5,-494.5 1007.52,-494.04"/>
<polygon fill="black" stroke="black" points="1006.99,-488.97 1006.06,-498.92 1004.07,-498.74 1005,-488.78 1006.99,-488.97"/>
<polyline fill="none" stroke="black" points="1007.52,-494.04 1002.54,-493.57"/>
<ellipse fill="none" stroke="black" cx="998.06" cy="-493.16" rx="4" ry="4"/>
</g>
<!-- gdm.distribution.components.distribution_bus.DistributionBus&#45;&gt;gdm.distribution.components.distribution_substation.DistributionSubstation -->
<g id="edge6" class="edge">
<title>gdm.distribution.components.distribution_bus.DistributionBus:e&#45;&gt;gdm.distribution.components.distribution_substation.DistributionSubstation:w</title>
<path fill="none" stroke="black" d="M627.92,-360.34C732.22,-373.42 615.86,-599.8 707.21,-625.4"/>
<polyline fill="none" stroke="black" points="618,-359.75 622.99,-360.05"/>
<polyline fill="none" stroke="black" points="622.99,-360.05 627.98,-360.34"/>
<polyline fill="none" stroke="black" points="726,-627.75 721.04,-627.13"/>
<polygon fill="black" stroke="black" points="720.67,-622.04 719.43,-631.97 717.44,-631.72 718.68,-621.8 720.67,-622.04"/>
<polyline fill="none" stroke="black" points="721.04,-627.13 716.08,-626.51"/>
<ellipse fill="none" stroke="black" cx="711.61" cy="-625.95" rx="4" ry="4"/>
</g>
<!-- infrasys.location.Location -->
<g id="node6" class="node">
<title>infrasys.location.Location</title>
<g id="a_node6"><a xlink:title="infrasys.location.Location&#10;&#10;Specifies geographic location.&#10;">
<polygon fill="none" stroke="black" points="767.62,-131 767.62,-153.5 862.88,-153.5 862.88,-131 767.62,-131"/>
<text text-anchor="start" x="789.75" y="-138.2" font-family="Times New Roman,Times,Liberation Serif,serif" font-weight="bold" font-size="14.00">Location</text>
<polygon fill="none" stroke="black" points="767.62,-108.5 767.62,-131 803.62,-131 803.62,-108.5 767.62,-108.5"/>
<text text-anchor="start" x="773.62" y="-114.7" font-family="Times New Roman,Times,Liberation Serif,serif" font-size="14.00">uuid</text>
<polygon fill="none" stroke="black" points="803.62,-108.5 803.62,-131 862.88,-131 862.88,-108.5 803.62,-108.5"/>
<text text-anchor="start" x="816.38" y="-114.7" font-family="Times New Roman,Times,Liberation Serif,serif" font-size="14.00">UUID</text>
<polygon fill="none" stroke="black" points="767.62,-86 767.62,-108.5 803.62,-108.5 803.62,-86 767.62,-86"/>
<text text-anchor="start" x="770.62" y="-92.2" font-family="Times New Roman,Times,Liberation Serif,serif" font-size="14.00">name</text>
<polygon fill="none" stroke="black" points="803.62,-86 803.62,-108.5 862.88,-108.5 862.88,-86 803.62,-86"/>
<text text-anchor="start" x="826.5" y="-92.2" font-family="Times New Roman,Times,Liberation Serif,serif" font-size="14.00">str</text>
<polygon fill="none" stroke="black" points="767.62,-63.5 767.62,-86 803.62,-86 803.62,-63.5 767.62,-63.5"/>
<text text-anchor="start" x="782.25" y="-69.7" font-family="Times New Roman,Times,Liberation Serif,serif" font-size="14.00">x</text>
<polygon fill="none" stroke="black" points="803.62,-63.5 803.62,-86 862.88,-86 862.88,-63.5 803.62,-63.5"/>
<text text-anchor="start" x="820.88" y="-69.7" font-family="Times New Roman,Times,Liberation Serif,serif" font-size="14.00">float</text>
<polygon fill="none" stroke="black" points="767.62,-41 767.62,-63.5 803.62,-63.5 803.62,-41 767.62,-41"/>
<text text-anchor="start" x="782.25" y="-47.2" font-family="Times New Roman,Times,Liberation Serif,serif" font-size="14.00">y</text>
<polygon fill="none" stroke="black" points="803.62,-41 803.62,-63.5 862.88,-63.5 862.88,-41 803.62,-41"/>
<text text-anchor="start" x="820.88" y="-47.2" font-family="Times New Roman,Times,Liberation Serif,serif" font-size="14.00">float</text>
<polygon fill="none" stroke="black" points="767.62,-18.5 767.62,-41 803.62,-41 803.62,-18.5 767.62,-18.5"/>
<text text-anchor="start" x="777.75" y="-24.7" font-family="Times New Roman,Times,Liberation Serif,serif" font-size="14.00">crs</text>
<polygon fill="none" stroke="black" points="803.62,-18.5 803.62,-41 862.88,-41 862.88,-18.5 803.62,-18.5"/>
<text text-anchor="start" x="806.62" y="-24.7" font-family="Times New Roman,Times,Liberation Serif,serif" font-size="14.00">str | None</text>
</a>
</g>
</g>
<!-- gdm.distribution.components.distribution_bus.DistributionBus&#45;&gt;infrasys.location.Location -->
<g id="edge7" class="edge">
<title>gdm.distribution.components.distribution_bus.DistributionBus:e&#45;&gt;infrasys.location.Location:w</title>
<path fill="none" stroke="black" d="M627.72,-224.27C687.19,-218.15 693.69,-156.03 747.74,-144.19"/>
<polyline fill="none" stroke="black" points="618,-224.75 622.99,-224.5"/>
<polyline fill="none" stroke="black" points="622.99,-224.5 627.99,-224.25"/>
<polyline fill="none" stroke="black" points="766.62,-142.25 761.65,-142.76"/>
<polygon fill="black" stroke="black" points="760.14,-137.89 761.17,-147.84 759.18,-148.04 758.16,-138.09 760.14,-137.89"/>
<polyline fill="none" stroke="black" points="761.65,-142.76 756.68,-143.27"/>
<ellipse fill="none" stroke="black" cx="752.2" cy="-143.73" rx="4" ry="4"/>
</g>
<!-- gdm.distribution.components.distribution_substation.DistributionSubstation&#45;&gt;gdm.distribution.components.distribution_feeder.DistributionFeeder -->
<g id="edge8" class="edge">
<title>gdm.distribution.components.distribution_substation.DistributionSubstation:e&#45;&gt;gdm.distribution.components.distribution_feeder.DistributionFeeder:w</title>
<path fill="none" stroke="black" d="M914.36,-559.51C955.44,-553.06 959.4,-506.33 997.24,-496.37"/>
<polyline fill="none" stroke="black" points="904.5,-560.25 909.49,-559.88"/>
<polyline fill="none" stroke="black" points="909.49,-559.88 914.47,-559.5"/>
<polygon fill="black" stroke="black" points="1002.24,-495.75 1012.71,-499.01 1007.54,-495.11 1011.84,-494.58 1011.84,-494.58 1011.84,-494.58 1007.54,-495.11 1011.62,-490.07 1002.24,-495.75"/>
<polyline fill="none" stroke="black" points="1001.03,-495.9 996.07,-496.51"/>
</g>
</g>
</svg>
