<?xml version="1.0" encoding="UTF-8" standalone="no"?>
<!DOCTYPE svg PUBLIC "-//W3C//DTD SVG 1.1//EN"
 "http://www.w3.org/Graphics/SVG/1.1/DTD/svg11.dtd">
<!-- Generated by graphviz version 9.0.0 (0)
 -->
<!-- Title: Entity Relationship Diagram created by erdantic Pages: 1 -->
<svg width="1164pt" height="811pt"
 viewBox="0.00 0.00 1164.00 810.50" xmlns="http://www.w3.org/2000/svg" xmlns:xlink="http://www.w3.org/1999/xlink">
<g id="graph0" class="graph" transform="scale(1 1) rotate(0) translate(4 806.5)">
<title>Entity Relationship Diagram created by erdantic</title>
<polygon fill="white" stroke="none" points="-4,4 -4,-806.5 1160,-806.5 1160,4 -4,4"/>
<text text-anchor="middle" x="578" y="-5.95" font-family="Times New Roman,Times,Liberation Serif,serif" font-size="9.00" fill="#a8a8a8">Created by erdantic v0.6.0 &lt;https://github.com/drivendataorg/erdantic&gt;</text>
<!-- gdm.distribution.components.distribution_bus.DistributionBus -->
<g id="node1" class="node">
<title>gdm.distribution.components.distribution_bus.DistributionBus</title>
<g id="a_node1"><a xlink:title="gdm.distribution.components.distribution_bus.DistributionBus&#10;&#10;Interface for distribution bus.&#10;&#10;Examples:&#10; &#160;&#160;&#160;&gt;&gt;&gt; from gdm import DistributionBus&#10; &#160;&#160;&#160;&gt;&gt;&gt; DistributionBus.example()&#10;">
<polygon fill="none" stroke="black" points="355,-582.5 355,-604.5 636,-604.5 636,-582.5 355,-582.5"/>
<text text-anchor="start" x="449.38" y="-589.2" font-family="Times New Roman,Times,Liberation Serif,serif" font-weight="bold" font-size="14.00">DistributionBus</text>
<polygon fill="none" stroke="black" points="355,-560.5 355,-582.5 452,-582.5 452,-560.5 355,-560.5"/>
<text text-anchor="start" x="391.5" y="-566.2" font-family="Times New Roman,Times,Liberation Serif,serif" font-size="14.00">uuid</text>
<polygon fill="none" stroke="black" points="452,-560.5 452,-582.5 636,-582.5 636,-560.5 452,-560.5"/>
<text text-anchor="start" x="527.12" y="-566.2" font-family="Times New Roman,Times,Liberation Serif,serif" font-size="14.00">UUID</text>
<polygon fill="none" stroke="black" points="355,-538.5 355,-560.5 452,-560.5 452,-538.5 355,-538.5"/>
<text text-anchor="start" x="388.5" y="-544.2" font-family="Times New Roman,Times,Liberation Serif,serif" font-size="14.00">name</text>
<polygon fill="none" stroke="black" points="452,-538.5 452,-560.5 636,-560.5 636,-538.5 452,-538.5"/>
<text text-anchor="start" x="537.25" y="-544.2" font-family="Times New Roman,Times,Liberation Serif,serif" font-size="14.00">str</text>
<polygon fill="none" stroke="black" points="355,-516.5 355,-538.5 452,-538.5 452,-516.5 355,-516.5"/>
<text text-anchor="start" x="376.12" y="-522.2" font-family="Times New Roman,Times,Liberation Serif,serif" font-size="14.00">substation</text>
<polygon fill="none" stroke="black" points="452,-516.5 452,-538.5 636,-538.5 636,-516.5 452,-516.5"/>
<text text-anchor="start" x="454.75" y="-522.2" font-family="Times New Roman,Times,Liberation Serif,serif" font-size="14.00">Optional[DistributionSubstation]</text>
<polygon fill="none" stroke="black" points="355,-494.5 355,-516.5 452,-516.5 452,-494.5 355,-494.5"/>
<text text-anchor="start" x="386.62" y="-500.2" font-family="Times New Roman,Times,Liberation Serif,serif" font-size="14.00">feeder</text>
<polygon fill="none" stroke="black" points="452,-494.5 452,-516.5 636,-516.5 636,-494.5 452,-494.5"/>
<text text-anchor="start" x="464.88" y="-500.2" font-family="Times New Roman,Times,Liberation Serif,serif" font-size="14.00">Optional[DistributionFeeder]</text>
<polygon fill="none" stroke="black" points="355,-472.5 355,-494.5 452,-494.5 452,-472.5 355,-472.5"/>
<text text-anchor="start" x="368.62" y="-478.2" font-family="Times New Roman,Times,Liberation Serif,serif" font-size="14.00">voltage_type</text>
<polygon fill="none" stroke="black" points="452,-472.5 452,-494.5 636,-494.5 636,-472.5 452,-472.5"/>
<text text-anchor="start" x="507.25" y="-478.2" font-family="Times New Roman,Times,Liberation Serif,serif" font-size="14.00">VoltageTypes</text>
<polygon fill="none" stroke="black" points="355,-450.5 355,-472.5 452,-472.5 452,-450.5 355,-450.5"/>
<text text-anchor="start" x="385.5" y="-456.2" font-family="Times New Roman,Times,Liberation Serif,serif" font-size="14.00">phases</text>
<polygon fill="none" stroke="black" points="452,-450.5 452,-472.5 636,-472.5 636,-450.5 452,-450.5"/>
<text text-anchor="start" x="515.5" y="-456.2" font-family="Times New Roman,Times,Liberation Serif,serif" font-size="14.00">list[Phase]</text>
<polygon fill="none" stroke="black" points="355,-428.5 355,-450.5 452,-450.5 452,-428.5 355,-428.5"/>
<text text-anchor="start" x="367.88" y="-434.2" font-family="Times New Roman,Times,Liberation Serif,serif" font-size="14.00">voltagelimits</text>
<polygon fill="none" stroke="black" points="452,-428.5 452,-450.5 636,-450.5 636,-428.5 452,-428.5"/>
<text text-anchor="start" x="486.62" y="-434.2" font-family="Times New Roman,Times,Liberation Serif,serif" font-size="14.00">list[VoltageLimitSet]</text>
<polygon fill="none" stroke="black" points="355,-406.5 355,-428.5 452,-428.5 452,-406.5 355,-406.5"/>
<text text-anchor="start" x="357.75" y="-412.2" font-family="Times New Roman,Times,Liberation Serif,serif" font-size="14.00">rated_voltage</text>
<polygon fill="none" stroke="black" points="452,-406.5 452,-428.5 636,-428.5 636,-406.5 452,-406.5"/>
<text text-anchor="start" x="501.62" y="-412.2" font-family="Times New Roman,Times,Liberation Serif,serif" font-size="14.00">PositiveVoltage</text>
<polygon fill="none" stroke="black" points="355,-384.5 355,-406.5 452,-406.5 452,-384.5 355,-384.5"/>
<text text-anchor="start" x="375" y="-390.2" font-family="Times New Roman,Times,Liberation Serif,serif" font-size="14.00">coordinate</text>
<polygon fill="none" stroke="black" points="452,-384.5 452,-406.5 636,-406.5 636,-384.5 452,-384.5"/>
<text text-anchor="start" x="491.88" y="-390.2" font-family="Times New Roman,Times,Liberation Serif,serif" font-size="14.00">Optional[Location]</text>
</a>
</g>
</g>
<!-- gdm.distribution.components.distribution_feeder.DistributionFeeder -->
<g id="node2" class="node">
<title>gdm.distribution.components.distribution_feeder.DistributionFeeder</title>
<g id="a_node2"><a xlink:title="gdm.distribution.components.distribution_feeder.DistributionFeeder&#10;&#10;Class interface for distribution feeder.&#10;">
<polygon fill="none" stroke="black" points="1040,-648.5 1040,-670.5 1156,-670.5 1156,-648.5 1040,-648.5"/>
<text text-anchor="start" x="1042.88" y="-655.2" font-family="Times New Roman,Times,Liberation Serif,serif" font-weight="bold" font-size="14.00">DistributionFeeder</text>
<polygon fill="none" stroke="black" points="1040,-626.5 1040,-648.5 1096,-648.5 1096,-626.5 1040,-626.5"/>
<text text-anchor="start" x="1056" y="-632.2" font-family="Times New Roman,Times,Liberation Serif,serif" font-size="14.00">uuid</text>
<polygon fill="none" stroke="black" points="1096,-626.5 1096,-648.5 1156,-648.5 1156,-626.5 1096,-626.5"/>
<text text-anchor="start" x="1109.12" y="-632.2" font-family="Times New Roman,Times,Liberation Serif,serif" font-size="14.00">UUID</text>
<polygon fill="none" stroke="black" points="1040,-604.5 1040,-626.5 1096,-626.5 1096,-604.5 1040,-604.5"/>
<text text-anchor="start" x="1053" y="-610.2" font-family="Times New Roman,Times,Liberation Serif,serif" font-size="14.00">name</text>
<polygon fill="none" stroke="black" points="1096,-604.5 1096,-626.5 1156,-626.5 1156,-604.5 1096,-604.5"/>
<text text-anchor="start" x="1119.25" y="-610.2" font-family="Times New Roman,Times,Liberation Serif,serif" font-size="14.00">str</text>
</a>
</g>
</g>
<!-- gdm.distribution.components.distribution_bus.DistributionBus&#45;&gt;gdm.distribution.components.distribution_feeder.DistributionFeeder -->
<g id="edge1" class="edge">
<title>gdm.distribution.components.distribution_bus.DistributionBus:e&#45;&gt;gdm.distribution.components.distribution_feeder.DistributionFeeder:w</title>
<path fill="none" stroke="black" d="M645.74,-505.81C688.92,-508.71 699.01,-531.11 744,-548.5 804.28,-571.8 944.7,-646.17 1021.49,-657.93"/>
<polyline fill="none" stroke="black" points="636,-505.5 641,-505.66"/>
<polyline fill="none" stroke="black" points="641,-505.66 645.99,-505.82"/>
<polyline fill="none" stroke="black" points="1040,-659.5 1035.02,-659.08"/>
<polygon fill="black" stroke="black" points="1034.44,-654.01 1033.6,-663.97 1031.61,-663.8 1032.45,-653.84 1034.44,-654.01"/>
<polyline fill="none" stroke="black" points="1035.02,-659.08 1030.04,-658.65"/>
<ellipse fill="none" stroke="black" cx="1025.55" cy="-658.27" rx="4" ry="4"/>
</g>
<!-- gdm.distribution.components.distribution_substation.DistributionSubstation -->
<g id="node3" class="node">
<title>gdm.distribution.components.distribution_substation.DistributionSubstation</title>
<g id="a_node3"><a xlink:title="gdm.distribution.components.distribution_substation.DistributionSubstation&#10;&#10;Class interface for distribution feeder.&#10;">
<polygon fill="none" stroke="black" points="749,-780.5 749,-802.5 927,-802.5 927,-780.5 749,-780.5"/>
<text text-anchor="start" x="772" y="-787.2" font-family="Times New Roman,Times,Liberation Serif,serif" font-weight="bold" font-size="14.00">DistributionSubstation</text>
<polygon fill="none" stroke="black" points="749,-758.5 749,-780.5 794,-780.5 794,-758.5 749,-758.5"/>
<text text-anchor="start" x="759.5" y="-764.2" font-family="Times New Roman,Times,Liberation Serif,serif" font-size="14.00">uuid</text>
<polygon fill="none" stroke="black" points="794,-758.5 794,-780.5 927,-780.5 927,-758.5 794,-758.5"/>
<text text-anchor="start" x="843.62" y="-764.2" font-family="Times New Roman,Times,Liberation Serif,serif" font-size="14.00">UUID</text>
<polygon fill="none" stroke="black" points="749,-736.5 749,-758.5 794,-758.5 794,-736.5 749,-736.5"/>
<text text-anchor="start" x="756.5" y="-742.2" font-family="Times New Roman,Times,Liberation Serif,serif" font-size="14.00">name</text>
<polygon fill="none" stroke="black" points="794,-736.5 794,-758.5 927,-758.5 927,-736.5 794,-736.5"/>
<text text-anchor="start" x="853.75" y="-742.2" font-family="Times New Roman,Times,Liberation Serif,serif" font-size="14.00">str</text>
<polygon fill="none" stroke="black" points="749,-714.5 749,-736.5 794,-736.5 794,-714.5 749,-714.5"/>
<text text-anchor="start" x="752" y="-720.2" font-family="Times New Roman,Times,Liberation Serif,serif" font-size="14.00">feeders</text>
<polygon fill="none" stroke="black" points="794,-714.5 794,-736.5 927,-736.5 927,-714.5 794,-714.5"/>
<text text-anchor="start" x="796.75" y="-720.2" font-family="Times New Roman,Times,Liberation Serif,serif" font-size="14.00">list[DistributionFeeder]</text>
</a>
</g>
</g>
<!-- gdm.distribution.components.distribution_bus.DistributionBus&#45;&gt;gdm.distribution.components.distribution_substation.DistributionSubstation -->
<g id="edge2" class="edge">
<title>gdm.distribution.components.distribution_bus.DistributionBus:e&#45;&gt;gdm.distribution.components.distribution_substation.DistributionSubstation:w</title>
<path fill="none" stroke="black" d="M645.86,-528.08C749.61,-540.97 638.19,-763.96 729.31,-789.18"/>
<polyline fill="none" stroke="black" points="636,-527.5 640.99,-527.79"/>
<polyline fill="none" stroke="black" points="640.99,-527.79 645.98,-528.09"/>
<polyline fill="none" stroke="black" points="748,-791.5 743.04,-790.89"/>
<polygon fill="black" stroke="black" points="742.66,-785.8 741.43,-795.72 739.45,-795.48 740.68,-785.55 742.66,-785.8"/>
<polyline fill="none" stroke="black" points="743.04,-790.89 738.08,-790.27"/>
<ellipse fill="none" stroke="black" cx="733.61" cy="-789.72" rx="4" ry="4"/>
</g>
<!-- gdm.distribution.limitset.VoltageLimitSet -->
<g id="node4" class="node">
<title>gdm.distribution.limitset.VoltageLimitSet</title>
<g id="a_node4"><a xlink:title="gdm.distribution.limitset.VoltageLimitSet&#10;&#10;Interface for voltage limit set.&#10;">
<polygon fill="none" stroke="black" points="762,-508.5 762,-530.5 914,-530.5 914,-508.5 762,-508.5"/>
<text text-anchor="start" x="790.75" y="-515.2" font-family="Times New Roman,Times,Liberation Serif,serif" font-weight="bold" font-size="14.00">VoltageLimitSet</text>
<polygon fill="none" stroke="black" points="762,-486.5 762,-508.5 824,-508.5 824,-486.5 762,-486.5"/>
<text text-anchor="start" x="781" y="-492.2" font-family="Times New Roman,Times,Liberation Serif,serif" font-size="14.00">uuid</text>
<polygon fill="none" stroke="black" points="824,-486.5 824,-508.5 914,-508.5 914,-486.5 824,-486.5"/>
<text text-anchor="start" x="852.12" y="-492.2" font-family="Times New Roman,Times,Liberation Serif,serif" font-size="14.00">UUID</text>
<polygon fill="none" stroke="black" points="762,-464.5 762,-486.5 824,-486.5 824,-464.5 762,-464.5"/>
<text text-anchor="start" x="778" y="-470.2" font-family="Times New Roman,Times,Liberation Serif,serif" font-size="14.00">name</text>
<polygon fill="none" stroke="black" points="824,-464.5 824,-486.5 914,-486.5 914,-464.5 824,-464.5"/>
<text text-anchor="start" x="862.25" y="-470.2" font-family="Times New Roman,Times,Liberation Serif,serif" font-size="14.00">str</text>
<polygon fill="none" stroke="black" points="762,-442.5 762,-464.5 824,-464.5 824,-442.5 762,-442.5"/>
<text text-anchor="start" x="764.88" y="-448.2" font-family="Times New Roman,Times,Liberation Serif,serif" font-size="14.00">limit_type</text>
<polygon fill="none" stroke="black" points="824,-442.5 824,-464.5 914,-464.5 914,-442.5 824,-442.5"/>
<text text-anchor="start" x="840.12" y="-448.2" font-family="Times New Roman,Times,Liberation Serif,serif" font-size="14.00">LimitType</text>
<polygon fill="none" stroke="black" points="762,-420.5 762,-442.5 824,-442.5 824,-420.5 762,-420.5"/>
<text text-anchor="start" x="778.38" y="-426.2" font-family="Times New Roman,Times,Liberation Serif,serif" font-size="14.00">value</text>
<polygon fill="none" stroke="black" points="824,-420.5 824,-442.5 914,-442.5 914,-420.5 824,-420.5"/>
<text text-anchor="start" x="826.62" y="-426.2" font-family="Times New Roman,Times,Liberation Serif,serif" font-size="14.00">PositiveVoltage</text>
</a>
</g>
</g>
<!-- gdm.distribution.components.distribution_bus.DistributionBus&#45;&gt;gdm.distribution.limitset.VoltageLimitSet -->
<g id="edge3" class="edge">
<title>gdm.distribution.components.distribution_bus.DistributionBus:e&#45;&gt;gdm.distribution.limitset.VoltageLimitSet:w</title>
<path fill="none" stroke="black" d="M645.85,-440.14C696.22,-447.01 698.55,-506.6 745.05,-517.72"/>
<polyline fill="none" stroke="black" points="636,-439.5 640.99,-439.83"/>
<polyline fill="none" stroke="black" points="640.99,-439.83 645.98,-440.15"/>
<polygon fill="black" stroke="black" points="750.73,-518.35 760.17,-523.94 756.03,-518.95 760.34,-519.43 760.34,-519.43 760.34,-519.43 756.03,-518.95 761.17,-514.99 750.73,-518.35"/>
<polyline fill="none" stroke="black" points="749.52,-518.22 744.55,-517.66"/>
</g>
<!-- infrasys.location.Location -->
<g id="node5" class="node">
<title>infrasys.location.Location</title>
<g id="a_node5"><a xlink:title="infrasys.location.Location&#10;&#10;Specifies geographic location.&#10;">
<polygon fill="none" stroke="black" points="790.5,-362.5 790.5,-384.5 885.5,-384.5 885.5,-362.5 790.5,-362.5"/>
<text text-anchor="start" x="812.5" y="-369.2" font-family="Times New Roman,Times,Liberation Serif,serif" font-weight="bold" font-size="14.00">Location</text>
<polygon fill="none" stroke="black" points="790.5,-340.5 790.5,-362.5 826.5,-362.5 826.5,-340.5 790.5,-340.5"/>
<text text-anchor="start" x="796.5" y="-346.2" font-family="Times New Roman,Times,Liberation Serif,serif" font-size="14.00">uuid</text>
<polygon fill="none" stroke="black" points="826.5,-340.5 826.5,-362.5 885.5,-362.5 885.5,-340.5 826.5,-340.5"/>
<text text-anchor="start" x="839.12" y="-346.2" font-family="Times New Roman,Times,Liberation Serif,serif" font-size="14.00">UUID</text>
<polygon fill="none" stroke="black" points="790.5,-318.5 790.5,-340.5 826.5,-340.5 826.5,-318.5 790.5,-318.5"/>
<text text-anchor="start" x="793.5" y="-324.2" font-family="Times New Roman,Times,Liberation Serif,serif" font-size="14.00">name</text>
<polygon fill="none" stroke="black" points="826.5,-318.5 826.5,-340.5 885.5,-340.5 885.5,-318.5 826.5,-318.5"/>
<text text-anchor="start" x="849.25" y="-324.2" font-family="Times New Roman,Times,Liberation Serif,serif" font-size="14.00">str</text>
<polygon fill="none" stroke="black" points="790.5,-296.5 790.5,-318.5 826.5,-318.5 826.5,-296.5 790.5,-296.5"/>
<text text-anchor="start" x="805.12" y="-302.2" font-family="Times New Roman,Times,Liberation Serif,serif" font-size="14.00">x</text>
<polygon fill="none" stroke="black" points="826.5,-296.5 826.5,-318.5 885.5,-318.5 885.5,-296.5 826.5,-296.5"/>
<text text-anchor="start" x="843.62" y="-302.2" font-family="Times New Roman,Times,Liberation Serif,serif" font-size="14.00">float</text>
<polygon fill="none" stroke="black" points="790.5,-274.5 790.5,-296.5 826.5,-296.5 826.5,-274.5 790.5,-274.5"/>
<text text-anchor="start" x="805.12" y="-280.2" font-family="Times New Roman,Times,Liberation Serif,serif" font-size="14.00">y</text>
<polygon fill="none" stroke="black" points="826.5,-274.5 826.5,-296.5 885.5,-296.5 885.5,-274.5 826.5,-274.5"/>
<text text-anchor="start" x="843.62" y="-280.2" font-family="Times New Roman,Times,Liberation Serif,serif" font-size="14.00">float</text>
<polygon fill="none" stroke="black" points="790.5,-252.5 790.5,-274.5 826.5,-274.5 826.5,-252.5 790.5,-252.5"/>
<text text-anchor="start" x="800.62" y="-258.2" font-family="Times New Roman,Times,Liberation Serif,serif" font-size="14.00">crs</text>
<polygon fill="none" stroke="black" points="826.5,-252.5 826.5,-274.5 885.5,-274.5 885.5,-252.5 826.5,-252.5"/>
<text text-anchor="start" x="829.38" y="-258.2" font-family="Times New Roman,Times,Liberation Serif,serif" font-size="14.00">str | None</text>
</a>
</g>
</g>
<!-- gdm.distribution.components.distribution_bus.DistributionBus&#45;&gt;infrasys.location.Location -->
<g id="edge4" class="edge">
<title>gdm.distribution.components.distribution_bus.DistributionBus:e&#45;&gt;infrasys.location.Location:w</title>
<path fill="none" stroke="black" d="M645.7,-395.35C700.07,-393.61 719.61,-377.43 770.15,-374.1"/>
<polyline fill="none" stroke="black" points="636,-395.5 641,-395.42"/>
<polyline fill="none" stroke="black" points="641,-395.42 646,-395.34"/>
<polyline fill="none" stroke="black" points="789,-373.5 784,-373.66"/>
<polygon fill="black" stroke="black" points="782.84,-368.69 783.16,-378.69 781.16,-378.75 780.85,-368.76 782.84,-368.69"/>
<polyline fill="none" stroke="black" points="784,-373.66 779.01,-373.82"/>
<ellipse fill="none" stroke="black" cx="774.51" cy="-373.96" rx="4" ry="4"/>
</g>
<!-- gdm.distribution.components.distribution_substation.DistributionSubstation&#45;&gt;gdm.distribution.components.distribution_feeder.DistributionFeeder -->
<g id="edge5" class="edge">
<title>gdm.distribution.components.distribution_substation.DistributionSubstation:e&#45;&gt;gdm.distribution.components.distribution_feeder.DistributionFeeder:w</title>
<path fill="none" stroke="black" d="M937.85,-724.8C980.54,-718.49 985.16,-671.22 1024.51,-661.32"/>
<polyline fill="none" stroke="black" points="928,-725.5 932.99,-725.15"/>
<polyline fill="none" stroke="black" points="932.99,-725.15 937.98,-724.79"/>
<polygon fill="black" stroke="black" points="1029.74,-660.7 1040.19,-664.01 1035.03,-660.08 1039.34,-659.58 1039.34,-659.58 1039.34,-659.58 1035.03,-660.08 1039.14,-655.07 1029.74,-660.7"/>
<polyline fill="none" stroke="black" points="1028.53,-660.85 1023.56,-661.43"/>
</g>
<!-- gdm.distribution.components.distribution_vsource.DistributionVoltageSource -->
<g id="node6" class="node">
<title>gdm.distribution.components.distribution_vsource.DistributionVoltageSource</title>
<g id="a_node6"><a xlink:title="gdm.distribution.components.distribution_vsource.DistributionVoltageSource&#10;&#10;Interface for distribution substation.&#10;">
<polygon fill="none" stroke="black" points="0,-725.5 0,-747.5 247,-747.5 247,-725.5 0,-725.5"/>
<text text-anchor="start" x="46.62" y="-732.2" font-family="Times New Roman,Times,Liberation Serif,serif" font-weight="bold" font-size="14.00">DistributionVoltageSource</text>
<polygon fill="none" stroke="black" points="0,-703.5 0,-725.5 63,-725.5 63,-703.5 0,-703.5"/>
<text text-anchor="start" x="19.5" y="-709.2" font-family="Times New Roman,Times,Liberation Serif,serif" font-size="14.00">uuid</text>
<polygon fill="none" stroke="black" points="63,-703.5 63,-725.5 247,-725.5 247,-703.5 63,-703.5"/>
<text text-anchor="start" x="138.12" y="-709.2" font-family="Times New Roman,Times,Liberation Serif,serif" font-size="14.00">UUID</text>
<polygon fill="none" stroke="black" points="0,-681.5 0,-703.5 63,-703.5 63,-681.5 0,-681.5"/>
<text text-anchor="start" x="16.5" y="-687.2" font-family="Times New Roman,Times,Liberation Serif,serif" font-size="14.00">name</text>
<polygon fill="none" stroke="black" points="63,-681.5 63,-703.5 247,-703.5 247,-681.5 63,-681.5"/>
<text text-anchor="start" x="148.25" y="-687.2" font-family="Times New Roman,Times,Liberation Serif,serif" font-size="14.00">str</text>
<polygon fill="none" stroke="black" points="0,-659.5 0,-681.5 63,-681.5 63,-659.5 0,-659.5"/>
<text text-anchor="start" x="4.12" y="-665.2" font-family="Times New Roman,Times,Liberation Serif,serif" font-size="14.00">substation</text>
<polygon fill="none" stroke="black" points="63,-659.5 63,-681.5 247,-681.5 247,-659.5 63,-659.5"/>
<text text-anchor="start" x="65.75" y="-665.2" font-family="Times New Roman,Times,Liberation Serif,serif" font-size="14.00">Optional[DistributionSubstation]</text>
<polygon fill="none" stroke="black" points="0,-637.5 0,-659.5 63,-659.5 63,-637.5 0,-637.5"/>
<text text-anchor="start" x="14.62" y="-643.2" font-family="Times New Roman,Times,Liberation Serif,serif" font-size="14.00">feeder</text>
<polygon fill="none" stroke="black" points="63,-637.5 63,-659.5 247,-659.5 247,-637.5 63,-637.5"/>
<text text-anchor="start" x="75.88" y="-643.2" font-family="Times New Roman,Times,Liberation Serif,serif" font-size="14.00">Optional[DistributionFeeder]</text>
<polygon fill="none" stroke="black" points="0,-615.5 0,-637.5 63,-637.5 63,-615.5 0,-615.5"/>
<text text-anchor="start" x="3.75" y="-621.2" font-family="Times New Roman,Times,Liberation Serif,serif" font-size="14.00">in_service</text>
<polygon fill="none" stroke="black" points="63,-615.5 63,-637.5 247,-637.5 247,-615.5 63,-615.5"/>
<text text-anchor="start" x="143" y="-621.2" font-family="Times New Roman,Times,Liberation Serif,serif" font-size="14.00">bool</text>
<polygon fill="none" stroke="black" points="0,-593.5 0,-615.5 63,-615.5 63,-593.5 0,-593.5"/>
<text text-anchor="start" x="22.12" y="-599.2" font-family="Times New Roman,Times,Liberation Serif,serif" font-size="14.00">bus</text>
<polygon fill="none" stroke="black" points="63,-593.5 63,-615.5 247,-615.5 247,-593.5 63,-593.5"/>
<text text-anchor="start" x="111.88" y="-599.2" font-family="Times New Roman,Times,Liberation Serif,serif" font-size="14.00">DistributionBus</text>
<polygon fill="none" stroke="black" points="0,-571.5 0,-593.5 63,-593.5 63,-571.5 0,-571.5"/>
<text text-anchor="start" x="13.5" y="-577.2" font-family="Times New Roman,Times,Liberation Serif,serif" font-size="14.00">phases</text>
<polygon fill="none" stroke="black" points="63,-571.5 63,-593.5 247,-593.5 247,-571.5 63,-571.5"/>
<text text-anchor="start" x="126.5" y="-577.2" font-family="Times New Roman,Times,Liberation Serif,serif" font-size="14.00">list[Phase]</text>
<polygon fill="none" stroke="black" points="0,-549.5 0,-571.5 63,-571.5 63,-549.5 0,-549.5"/>
<text text-anchor="start" x="2.62" y="-555.2" font-family="Times New Roman,Times,Liberation Serif,serif" font-size="14.00">equipment</text>
<polygon fill="none" stroke="black" points="63,-549.5 63,-571.5 247,-571.5 247,-549.5 63,-549.5"/>
<text text-anchor="start" x="85.62" y="-555.2" font-family="Times New Roman,Times,Liberation Serif,serif" font-size="14.00">VoltageSourceEquipment</text>
</a>
</g>
</g>
<!-- gdm.distribution.components.distribution_vsource.DistributionVoltageSource&#45;&gt;gdm.distribution.components.distribution_bus.DistributionBus -->
<g id="edge6" class="edge">
<title>gdm.distribution.components.distribution_vsource.DistributionVoltageSource:e&#45;&gt;gdm.distribution.components.distribution_bus.DistributionBus:w</title>
<path fill="none" stroke="black" d="M256.91,-604.34C292.24,-603.13 306.66,-595.67 340.03,-593.89"/>
<polyline fill="none" stroke="black" points="247,-604.5 252,-604.42"/>
<polyline fill="none" stroke="black" points="252,-604.42 257,-604.33"/>
<polyline fill="none" stroke="black" points="355,-593.5 350,-593.63"/>
<polygon fill="black" stroke="black" points="348.87,-588.66 349.13,-598.65 347.13,-598.7 346.87,-588.71 348.87,-588.66"/>
<polyline fill="none" stroke="black" points="350,-593.63 345,-593.76"/>
<polygon fill="black" stroke="black" points="343.87,-588.78 344.13,-598.78 342.13,-598.83 341.88,-588.84 343.87,-588.78"/>
<polyline fill="none" stroke="black" points="345,-593.76 340,-593.89"/>
</g>
<!-- gdm.distribution.components.distribution_vsource.DistributionVoltageSource&#45;&gt;gdm.distribution.components.distribution_feeder.DistributionFeeder -->
<g id="edge7" class="edge">
<title>gdm.distribution.components.distribution_vsource.DistributionVoltageSource:e&#45;&gt;gdm.distribution.components.distribution_feeder.DistributionFeeder:w</title>
<path fill="none" stroke="black" d="M257,-648.5C594.96,-648.7 687.55,-659.11 1021.33,-659.49"/>
<polyline fill="none" stroke="black" points="247,-648.5 252,-648.5"/>
<polyline fill="none" stroke="black" points="252,-648.5 257,-648.5"/>
<polyline fill="none" stroke="black" points="1040,-659.5 1035,-659.5"/>
<polygon fill="black" stroke="black" points="1034,-654.5 1034,-664.5 1032,-664.5 1032,-654.5 1034,-654.5"/>
<polyline fill="none" stroke="black" points="1035,-659.5 1030,-659.49"/>
<ellipse fill="none" stroke="black" cx="1025.5" cy="-659.49" rx="4" ry="4"/>
</g>
<!-- gdm.distribution.components.distribution_vsource.DistributionVoltageSource&#45;&gt;gdm.distribution.components.distribution_substation.DistributionSubstation -->
<g id="edge8" class="edge">
<title>gdm.distribution.components.distribution_vsource.DistributionVoltageSource:e&#45;&gt;gdm.distribution.components.distribution_substation.DistributionSubstation:w</title>
<path fill="none" stroke="black" d="M256.74,-670.77C369.98,-676.7 609.53,-779.73 729.18,-790.58"/>
<polyline fill="none" stroke="black" points="247,-670.5 252,-670.64"/>
<polyline fill="none" stroke="black" points="252,-670.64 257,-670.77"/>
<polyline fill="none" stroke="black" points="748,-791.5 743.01,-791.26"/>
<polygon fill="black" stroke="black" points="742.25,-786.21 741.76,-796.2 739.76,-796.1 740.25,-786.11 742.25,-786.21"/>
<polyline fill="none" stroke="black" points="743.01,-791.26 738.01,-791.01"/>
<ellipse fill="none" stroke="black" cx="733.52" cy="-790.79" rx="4" ry="4"/>
</g>
<!-- gdm.distribution.equipment.voltagesource_equipment.VoltageSourceEquipment -->
<g id="node7" class="node">
<title>gdm.distribution.equipment.voltagesource_equipment.VoltageSourceEquipment</title>
<g id="a_node7"><a xlink:title="gdm.distribution.equipment.voltagesource_equipment.VoltageSourceEquipment&#10;&#10;Interface for voltage source model.&#10;">
<polygon fill="none" stroke="black" points="372,-293.5 372,-315.5 619,-315.5 619,-293.5 372,-293.5"/>
<text text-anchor="start" x="421.25" y="-300.2" font-family="Times New Roman,Times,Liberation Serif,serif" font-weight="bold" font-size="14.00">VoltageSourceEquipment</text>
<polygon fill="none" stroke="black" points="372,-271.5 372,-293.5 418,-293.5 418,-271.5 372,-271.5"/>
<text text-anchor="start" x="383" y="-277.2" font-family="Times New Roman,Times,Liberation Serif,serif" font-size="14.00">uuid</text>
<polygon fill="none" stroke="black" points="418,-271.5 418,-293.5 619,-293.5 619,-271.5 418,-271.5"/>
<text text-anchor="start" x="501.62" y="-277.2" font-family="Times New Roman,Times,Liberation Serif,serif" font-size="14.00">UUID</text>
<polygon fill="none" stroke="black" points="372,-249.5 372,-271.5 418,-271.5 418,-249.5 372,-249.5"/>
<text text-anchor="start" x="380" y="-255.2" font-family="Times New Roman,Times,Liberation Serif,serif" font-size="14.00">name</text>
<polygon fill="none" stroke="black" points="418,-249.5 418,-271.5 619,-271.5 619,-249.5 418,-249.5"/>
<text text-anchor="start" x="511.75" y="-255.2" font-family="Times New Roman,Times,Liberation Serif,serif" font-size="14.00">str</text>
<polygon fill="none" stroke="black" points="372,-227.5 372,-249.5 418,-249.5 418,-227.5 372,-227.5"/>
<text text-anchor="start" x="374.75" y="-233.2" font-family="Times New Roman,Times,Liberation Serif,serif" font-size="14.00">sources</text>
<polygon fill="none" stroke="black" points="418,-227.5 418,-249.5 619,-249.5 619,-227.5 418,-227.5"/>
<text text-anchor="start" x="420.62" y="-233.2" font-family="Times New Roman,Times,Liberation Serif,serif" font-size="14.00">list[PhaseVoltageSourceEquipment]</text>
</a>
</g>
</g>
<!-- gdm.distribution.components.distribution_vsource.DistributionVoltageSource&#45;&gt;gdm.distribution.equipment.voltagesource_equipment.VoltageSourceEquipment -->
<g id="edge9" class="edge">
<title>gdm.distribution.components.distribution_vsource.DistributionVoltageSource:e&#45;&gt;gdm.distribution.equipment.voltagesource_equipment.VoltageSourceEquipment:w</title>
<path fill="none" stroke="black" d="M256.8,-559.94C361.63,-547.27 257.63,-325.34 355.66,-305.86"/>
<polyline fill="none" stroke="black" points="247,-560.5 251.99,-560.21"/>
<polyline fill="none" stroke="black" points="251.99,-560.21 256.98,-559.93"/>
<polyline fill="none" stroke="black" points="370.5,-304.5 365.52,-304.96"/>
<polygon fill="black" stroke="black" points="364.07,-300.07 364.98,-310.03 362.99,-310.21 362.08,-300.25 364.07,-300.07"/>
<polyline fill="none" stroke="black" points="365.52,-304.96 360.54,-305.41"/>
<polygon fill="black" stroke="black" points="359.09,-300.53 360,-310.49 358.01,-310.67 357.1,-300.71 359.09,-300.53"/>
<polyline fill="none" stroke="black" points="360.54,-305.41 355.56,-305.87"/>
</g>
<!-- gdm.distribution.equipment.phase_voltagesource_equipment.PhaseVoltageSourceEquipment -->
<g id="node8" class="node">
<title>gdm.distribution.equipment.phase_voltagesource_equipment.PhaseVoltageSourceEquipment</title>
<g id="a_node8"><a xlink:title="gdm.distribution.equipment.phase_voltagesource_equipment.PhaseVoltageSourceEquipment&#10;&#10;Interface for phase voltage source.&#10;">
<polygon fill="none" stroke="black" points="744,-194.5 744,-216.5 932,-216.5 932,-194.5 744,-194.5"/>
<text text-anchor="start" x="746.88" y="-201.2" font-family="Times New Roman,Times,Liberation Serif,serif" font-weight="bold" font-size="14.00">PhaseVoltageSourceEquipment</text>
<polygon fill="none" stroke="black" points="744,-172.5 744,-194.5 829,-194.5 829,-172.5 744,-172.5"/>
<text text-anchor="start" x="774.5" y="-178.2" font-family="Times New Roman,Times,Liberation Serif,serif" font-size="14.00">uuid</text>
<polygon fill="none" stroke="black" points="829,-172.5 829,-194.5 932,-194.5 932,-172.5 829,-172.5"/>
<text text-anchor="start" x="863.62" y="-178.2" font-family="Times New Roman,Times,Liberation Serif,serif" font-size="14.00">UUID</text>
<polygon fill="none" stroke="black" points="744,-150.5 744,-172.5 829,-172.5 829,-150.5 744,-150.5"/>
<text text-anchor="start" x="771.5" y="-156.2" font-family="Times New Roman,Times,Liberation Serif,serif" font-size="14.00">name</text>
<polygon fill="none" stroke="black" points="829,-150.5 829,-172.5 932,-172.5 932,-150.5 829,-150.5"/>
<text text-anchor="start" x="873.75" y="-156.2" font-family="Times New Roman,Times,Liberation Serif,serif" font-size="14.00">str</text>
<polygon fill="none" stroke="black" points="744,-128.5 744,-150.5 829,-150.5 829,-128.5 744,-128.5"/>
<text text-anchor="start" x="780.88" y="-134.2" font-family="Times New Roman,Times,Liberation Serif,serif" font-size="14.00">r0</text>
<polygon fill="none" stroke="black" points="829,-128.5 829,-150.5 932,-150.5 932,-128.5 829,-128.5"/>
<text text-anchor="start" x="851.62" y="-134.2" font-family="Times New Roman,Times,Liberation Serif,serif" font-size="14.00">Resistance</text>
<polygon fill="none" stroke="black" points="744,-106.5 744,-128.5 829,-128.5 829,-106.5 744,-106.5"/>
<text text-anchor="start" x="780.88" y="-112.2" font-family="Times New Roman,Times,Liberation Serif,serif" font-size="14.00">r1</text>
<polygon fill="none" stroke="black" points="829,-106.5 829,-128.5 932,-128.5 932,-106.5 829,-106.5"/>
<text text-anchor="start" x="851.62" y="-112.2" font-family="Times New Roman,Times,Liberation Serif,serif" font-size="14.00">Resistance</text>
<polygon fill="none" stroke="black" points="744,-84.5 744,-106.5 829,-106.5 829,-84.5 744,-84.5"/>
<text text-anchor="start" x="779.75" y="-90.2" font-family="Times New Roman,Times,Liberation Serif,serif" font-size="14.00">x0</text>
<polygon fill="none" stroke="black" points="829,-84.5 829,-106.5 932,-106.5 932,-84.5 829,-84.5"/>
<text text-anchor="start" x="852.75" y="-90.2" font-family="Times New Roman,Times,Liberation Serif,serif" font-size="14.00">Reactance</text>
<polygon fill="none" stroke="black" points="744,-62.5 744,-84.5 829,-84.5 829,-62.5 744,-62.5"/>
<text text-anchor="start" x="779.75" y="-68.2" font-family="Times New Roman,Times,Liberation Serif,serif" font-size="14.00">x1</text>
<polygon fill="none" stroke="black" points="829,-62.5 829,-84.5 932,-84.5 932,-62.5 829,-62.5"/>
<text text-anchor="start" x="852.75" y="-68.2" font-family="Times New Roman,Times,Liberation Serif,serif" font-size="14.00">Reactance</text>
<polygon fill="none" stroke="black" points="744,-40.5 744,-62.5 829,-62.5 829,-40.5 744,-40.5"/>
<text text-anchor="start" x="766.62" y="-46.2" font-family="Times New Roman,Times,Liberation Serif,serif" font-size="14.00">voltage</text>
<polygon fill="none" stroke="black" points="829,-40.5 829,-62.5 932,-62.5 932,-40.5 829,-40.5"/>
<text text-anchor="start" x="859.88" y="-46.2" font-family="Times New Roman,Times,Liberation Serif,serif" font-size="14.00">Voltage</text>
<polygon fill="none" stroke="black" points="744,-18.5 744,-40.5 829,-40.5 829,-18.5 744,-18.5"/>
<text text-anchor="start" x="771.88" y="-24.2" font-family="Times New Roman,Times,Liberation Serif,serif" font-size="14.00">angle</text>
<polygon fill="none" stroke="black" points="829,-18.5 829,-40.5 932,-40.5 932,-18.5 829,-18.5"/>
<text text-anchor="start" x="864" y="-24.2" font-family="Times New Roman,Times,Liberation Serif,serif" font-size="14.00">Angle</text>
</a>
</g>
</g>
<!-- gdm.distribution.equipment.voltagesource_equipment.VoltageSourceEquipment&#45;&gt;gdm.distribution.equipment.phase_voltagesource_equipment.PhaseVoltageSourceEquipment -->
<g id="edge10" class="edge">
<title>gdm.distribution.equipment.voltagesource_equipment.VoltageSourceEquipment:e&#45;&gt;gdm.distribution.equipment.phase_voltagesource_equipment.PhaseVoltageSourceEquipment:w</title>
<path fill="none" stroke="black" d="M630.32,-238.15C673.49,-235 687.64,-211.46 728.14,-206.44"/>
<polyline fill="none" stroke="black" points="620.5,-238.5 625.5,-238.32"/>
<polyline fill="none" stroke="black" points="625.5,-238.32 630.49,-238.15"/>
<polygon fill="black" stroke="black" points="733.68,-206.11 743.93,-210.01 739.01,-205.8 743.33,-205.54 743.33,-205.54 743.33,-205.54 739.01,-205.8 743.4,-201.03 733.68,-206.11"/>
<polyline fill="none" stroke="black" points="732.47,-206.18 727.48,-206.48"/>
</g>
</g>
</svg>
