<?xml version="1.0" encoding="UTF-8" standalone="no"?>
<!DOCTYPE svg PUBLIC "-//W3C//DTD SVG 1.1//EN"
 "http://www.w3.org/Graphics/SVG/1.1/DTD/svg11.dtd">
<!-- Generated by graphviz version 12.2.1 (20241206.2353)
 -->
<!-- Title: Entity Relationship Diagram created by erdantic Pages: 1 -->
<svg width="1234pt" height="935pt"
 viewBox="0.00 0.00 1234.25 935.00" xmlns="http://www.w3.org/2000/svg" xmlns:xlink="http://www.w3.org/1999/xlink">
<g id="graph0" class="graph" transform="scale(1 1) rotate(0) translate(4 931)">
<title>Entity Relationship Diagram created by erdantic</title>
<polygon fill="white" stroke="none" points="-4,4 -4,-931 1230.25,-931 1230.25,4 -4,4"/>
<text text-anchor="middle" x="613.12" y="-5.95" font-family="Times New Roman,Times,Liberation Serif,serif" font-size="9.00" fill="#a8a8a8">Created by erdantic v1.0.5 &lt;https://github.com/drivendataorg/erdantic&gt;</text>
<!-- gdm.distribution.common.limitset.VoltageLimitSet -->
<g id="node1" class="node">
<title>gdm.distribution.common.limitset.VoltageLimitSet</title>
<g id="a_node1"><a xlink:title="gdm.distribution.common.limitset.VoltageLimitSet&#10;&#10;Data model for voltage limit set.&#10;">
<polygon fill="none" stroke="black" points="810.75,-630.75 810.75,-653.25 963.75,-653.25 963.75,-630.75 810.75,-630.75"/>
<text text-anchor="start" x="840" y="-637.95" font-family="Times New Roman,Times,Liberation Serif,serif" font-weight="bold" font-size="14.00">VoltageLimitSet</text>
<polygon fill="none" stroke="black" points="810.75,-608.25 810.75,-630.75 873,-630.75 873,-608.25 810.75,-608.25"/>
<text text-anchor="start" x="829.88" y="-614.45" font-family="Times New Roman,Times,Liberation Serif,serif" font-size="14.00">uuid</text>
<polygon fill="none" stroke="black" points="873,-608.25 873,-630.75 963.75,-630.75 963.75,-608.25 873,-608.25"/>
<text text-anchor="start" x="901.5" y="-614.45" font-family="Times New Roman,Times,Liberation Serif,serif" font-size="14.00">UUID</text>
<polygon fill="none" stroke="black" points="810.75,-585.75 810.75,-608.25 873,-608.25 873,-585.75 810.75,-585.75"/>
<text text-anchor="start" x="826.88" y="-591.95" font-family="Times New Roman,Times,Liberation Serif,serif" font-size="14.00">name</text>
<polygon fill="none" stroke="black" points="873,-585.75 873,-608.25 963.75,-608.25 963.75,-585.75 873,-585.75"/>
<text text-anchor="start" x="911.62" y="-591.95" font-family="Times New Roman,Times,Liberation Serif,serif" font-size="14.00">str</text>
<polygon fill="none" stroke="black" points="810.75,-563.25 810.75,-585.75 873,-585.75 873,-563.25 810.75,-563.25"/>
<text text-anchor="start" x="813.75" y="-569.45" font-family="Times New Roman,Times,Liberation Serif,serif" font-size="14.00">limit_type</text>
<polygon fill="none" stroke="black" points="873,-563.25 873,-585.75 963.75,-585.75 963.75,-563.25 873,-563.25"/>
<text text-anchor="start" x="889.12" y="-569.45" font-family="Times New Roman,Times,Liberation Serif,serif" font-size="14.00">LimitType</text>
<polygon fill="none" stroke="black" points="810.75,-540.75 810.75,-563.25 873,-563.25 873,-540.75 810.75,-540.75"/>
<text text-anchor="start" x="827.25" y="-546.95" font-family="Times New Roman,Times,Liberation Serif,serif" font-size="14.00">value</text>
<polygon fill="none" stroke="black" points="873,-540.75 873,-563.25 963.75,-563.25 963.75,-540.75 873,-540.75"/>
<text text-anchor="start" x="876" y="-546.95" font-family="Times New Roman,Times,Liberation Serif,serif" font-size="14.00">PositiveVoltage</text>
</a>
</g>
</g>
<!-- gdm.distribution.components.base.distribution_transformer_base.DistributionTransformerBase -->
<g id="node2" class="node">
<title>gdm.distribution.components.base.distribution_transformer_base.DistributionTransformerBase</title>
<g id="a_node2"><a xlink:title="gdm.distribution.components.base.distribution_transformer_base.DistributionTransformerBase&#10;&#10;Data model for distribution transformer.&#10;">
<polygon fill="none" stroke="black" points="0,-849.75 0,-872.25 292.5,-872.25 292.5,-849.75 0,-849.75"/>
<text text-anchor="start" x="59.62" y="-856.95" font-family="Times New Roman,Times,Liberation Serif,serif" font-weight="bold" font-size="14.00">DistributionTransformerBase</text>
<polygon fill="none" stroke="black" points="0,-827.25 0,-849.75 93,-849.75 93,-827.25 0,-827.25"/>
<text text-anchor="start" x="34.5" y="-833.45" font-family="Times New Roman,Times,Liberation Serif,serif" font-size="14.00">uuid</text>
<polygon fill="none" stroke="black" points="93,-827.25 93,-849.75 292.5,-849.75 292.5,-827.25 93,-827.25"/>
<text text-anchor="start" x="175.88" y="-833.45" font-family="Times New Roman,Times,Liberation Serif,serif" font-size="14.00">UUID</text>
<polygon fill="none" stroke="black" points="0,-804.75 0,-827.25 93,-827.25 93,-804.75 0,-804.75"/>
<text text-anchor="start" x="31.5" y="-810.95" font-family="Times New Roman,Times,Liberation Serif,serif" font-size="14.00">name</text>
<polygon fill="none" stroke="black" points="93,-804.75 93,-827.25 292.5,-827.25 292.5,-804.75 93,-804.75"/>
<text text-anchor="start" x="186" y="-810.95" font-family="Times New Roman,Times,Liberation Serif,serif" font-size="14.00">str</text>
<polygon fill="none" stroke="black" points="0,-782.25 0,-804.75 93,-804.75 93,-782.25 0,-782.25"/>
<text text-anchor="start" x="19.12" y="-788.45" font-family="Times New Roman,Times,Liberation Serif,serif" font-size="14.00">substation</text>
<polygon fill="none" stroke="black" points="93,-782.25 93,-804.75 292.5,-804.75 292.5,-782.25 93,-782.25"/>
<text text-anchor="start" x="103.5" y="-788.45" font-family="Times New Roman,Times,Liberation Serif,serif" font-size="14.00">Optional[DistributionSubstation]</text>
<polygon fill="none" stroke="black" points="0,-759.75 0,-782.25 93,-782.25 93,-759.75 0,-759.75"/>
<text text-anchor="start" x="29.62" y="-765.95" font-family="Times New Roman,Times,Liberation Serif,serif" font-size="14.00">feeder</text>
<polygon fill="none" stroke="black" points="93,-759.75 93,-782.25 292.5,-782.25 292.5,-759.75 93,-759.75"/>
<text text-anchor="start" x="113.62" y="-765.95" font-family="Times New Roman,Times,Liberation Serif,serif" font-size="14.00">Optional[DistributionFeeder]</text>
<polygon fill="none" stroke="black" points="0,-737.25 0,-759.75 93,-759.75 93,-737.25 0,-737.25"/>
<text text-anchor="start" x="18.75" y="-743.45" font-family="Times New Roman,Times,Liberation Serif,serif" font-size="14.00">in_service</text>
<polygon fill="none" stroke="black" points="93,-737.25 93,-759.75 292.5,-759.75 292.5,-737.25 93,-737.25"/>
<text text-anchor="start" x="180.75" y="-743.45" font-family="Times New Roman,Times,Liberation Serif,serif" font-size="14.00">bool</text>
<polygon fill="none" stroke="black" points="0,-714.75 0,-737.25 93,-737.25 93,-714.75 0,-714.75"/>
<text text-anchor="start" x="31.5" y="-720.95" font-family="Times New Roman,Times,Liberation Serif,serif" font-size="14.00">buses</text>
<polygon fill="none" stroke="black" points="93,-714.75 93,-737.25 292.5,-737.25 292.5,-714.75 93,-714.75"/>
<text text-anchor="start" x="136.88" y="-720.95" font-family="Times New Roman,Times,Liberation Serif,serif" font-size="14.00">list[DistributionBus]</text>
<polygon fill="none" stroke="black" points="0,-692.25 0,-714.75 93,-714.75 93,-692.25 0,-692.25"/>
<text text-anchor="start" x="3" y="-698.45" font-family="Times New Roman,Times,Liberation Serif,serif" font-size="14.00">winding_phases</text>
<polygon fill="none" stroke="black" points="93,-692.25 93,-714.75 292.5,-714.75 292.5,-692.25 93,-692.25"/>
<text text-anchor="start" x="151.5" y="-698.45" font-family="Times New Roman,Times,Liberation Serif,serif" font-size="14.00">list[list[Phase]]</text>
<polygon fill="none" stroke="black" points="0,-669.75 0,-692.25 93,-692.25 93,-669.75 0,-669.75"/>
<text text-anchor="start" x="17.62" y="-675.95" font-family="Times New Roman,Times,Liberation Serif,serif" font-size="14.00">equipment</text>
<polygon fill="none" stroke="black" points="93,-669.75 93,-692.25 292.5,-692.25 292.5,-669.75 93,-669.75"/>
<text text-anchor="start" x="96" y="-675.95" font-family="Times New Roman,Times,Liberation Serif,serif" font-size="14.00">DistributionTransformerEquipment</text>
</a>
</g>
</g>
<!-- gdm.distribution.components.distribution_bus.DistributionBus -->
<g id="node3" class="node">
<title>gdm.distribution.components.distribution_bus.DistributionBus</title>
<g id="a_node3"><a xlink:title="gdm.distribution.components.distribution_bus.DistributionBus&#10;&#10;Data model for distribution bus.&#10;&#10;Examples:&#10; &#160;&#160;&#160;&gt;&gt;&gt; from gdm import DistributionBus&#10; &#160;&#160;&#160;&gt;&gt;&gt; DistributionBus.example()&#10;">
<polygon fill="none" stroke="black" points="400.5,-704 400.5,-726.5 664.5,-726.5 664.5,-704 400.5,-704"/>
<text text-anchor="start" x="486.38" y="-711.2" font-family="Times New Roman,Times,Liberation Serif,serif" font-weight="bold" font-size="14.00">DistributionBus</text>
<polygon fill="none" stroke="black" points="400.5,-681.5 400.5,-704 480,-704 480,-681.5 400.5,-681.5"/>
<text text-anchor="start" x="428.25" y="-687.7" font-family="Times New Roman,Times,Liberation Serif,serif" font-size="14.00">uuid</text>
<polygon fill="none" stroke="black" points="480,-681.5 480,-704 664.5,-704 664.5,-681.5 480,-681.5"/>
<text text-anchor="start" x="555.38" y="-687.7" font-family="Times New Roman,Times,Liberation Serif,serif" font-size="14.00">UUID</text>
<polygon fill="none" stroke="black" points="400.5,-659 400.5,-681.5 480,-681.5 480,-659 400.5,-659"/>
<text text-anchor="start" x="425.25" y="-665.2" font-family="Times New Roman,Times,Liberation Serif,serif" font-size="14.00">name</text>
<polygon fill="none" stroke="black" points="480,-659 480,-681.5 664.5,-681.5 664.5,-659 480,-659"/>
<text text-anchor="start" x="565.5" y="-665.2" font-family="Times New Roman,Times,Liberation Serif,serif" font-size="14.00">str</text>
<polygon fill="none" stroke="black" points="400.5,-636.5 400.5,-659 480,-659 480,-636.5 400.5,-636.5"/>
<text text-anchor="start" x="412.88" y="-642.7" font-family="Times New Roman,Times,Liberation Serif,serif" font-size="14.00">substation</text>
<polygon fill="none" stroke="black" points="480,-636.5 480,-659 664.5,-659 664.5,-636.5 480,-636.5"/>
<text text-anchor="start" x="483" y="-642.7" font-family="Times New Roman,Times,Liberation Serif,serif" font-size="14.00">Optional[DistributionSubstation]</text>
<polygon fill="none" stroke="black" points="400.5,-614 400.5,-636.5 480,-636.5 480,-614 400.5,-614"/>
<text text-anchor="start" x="423.38" y="-620.2" font-family="Times New Roman,Times,Liberation Serif,serif" font-size="14.00">feeder</text>
<polygon fill="none" stroke="black" points="480,-614 480,-636.5 664.5,-636.5 664.5,-614 480,-614"/>
<text text-anchor="start" x="493.12" y="-620.2" font-family="Times New Roman,Times,Liberation Serif,serif" font-size="14.00">Optional[DistributionFeeder]</text>
<polygon fill="none" stroke="black" points="400.5,-591.5 400.5,-614 480,-614 480,-591.5 400.5,-591.5"/>
<text text-anchor="start" x="405.38" y="-597.7" font-family="Times New Roman,Times,Liberation Serif,serif" font-size="14.00">voltage_type</text>
<polygon fill="none" stroke="black" points="480,-591.5 480,-614 664.5,-614 664.5,-591.5 480,-591.5"/>
<text text-anchor="start" x="535.12" y="-597.7" font-family="Times New Roman,Times,Liberation Serif,serif" font-size="14.00">VoltageTypes</text>
<polygon fill="none" stroke="black" points="400.5,-569 400.5,-591.5 480,-591.5 480,-569 400.5,-569"/>
<text text-anchor="start" x="422.25" y="-575.2" font-family="Times New Roman,Times,Liberation Serif,serif" font-size="14.00">phases</text>
<polygon fill="none" stroke="black" points="480,-569 480,-591.5 664.5,-591.5 664.5,-569 480,-569"/>
<text text-anchor="start" x="543.75" y="-575.2" font-family="Times New Roman,Times,Liberation Serif,serif" font-size="14.00">list[Phase]</text>
<polygon fill="none" stroke="black" points="400.5,-546.5 400.5,-569 480,-569 480,-546.5 400.5,-546.5"/>
<text text-anchor="start" x="404.62" y="-552.7" font-family="Times New Roman,Times,Liberation Serif,serif" font-size="14.00">voltagelimits</text>
<polygon fill="none" stroke="black" points="480,-546.5 480,-569 664.5,-569 664.5,-546.5 480,-546.5"/>
<text text-anchor="start" x="514.88" y="-552.7" font-family="Times New Roman,Times,Liberation Serif,serif" font-size="14.00">list[VoltageLimitSet]</text>
<polygon fill="none" stroke="black" points="400.5,-524 400.5,-546.5 480,-546.5 480,-524 400.5,-524"/>
<text text-anchor="start" x="403.5" y="-530.2" font-family="Times New Roman,Times,Liberation Serif,serif" font-size="14.00">rated_voltage</text>
<polygon fill="none" stroke="black" points="480,-524 480,-546.5 664.5,-546.5 664.5,-524 480,-524"/>
<text text-anchor="start" x="529.88" y="-530.2" font-family="Times New Roman,Times,Liberation Serif,serif" font-size="14.00">PositiveVoltage</text>
<polygon fill="none" stroke="black" points="400.5,-501.5 400.5,-524 480,-524 480,-501.5 400.5,-501.5"/>
<text text-anchor="start" x="411.75" y="-507.7" font-family="Times New Roman,Times,Liberation Serif,serif" font-size="14.00">coordinate</text>
<polygon fill="none" stroke="black" points="480,-501.5 480,-524 664.5,-524 664.5,-501.5 480,-501.5"/>
<text text-anchor="start" x="520.12" y="-507.7" font-family="Times New Roman,Times,Liberation Serif,serif" font-size="14.00">Optional[Location]</text>
</a>
</g>
</g>
<!-- gdm.distribution.components.base.distribution_transformer_base.DistributionTransformerBase&#45;&gt;gdm.distribution.components.distribution_bus.DistributionBus -->
<g id="edge1" class="edge">
<title>gdm.distribution.components.base.distribution_transformer_base.DistributionTransformerBase:e&#45;&gt;gdm.distribution.components.distribution_bus.DistributionBus:w</title>
<path fill="none" stroke="black" d="M302.41,-725.84C337.57,-724.67 352.04,-717.44 385.08,-715.65"/>
<polyline fill="none" stroke="black" points="292.5,-726 297.5,-725.92"/>
<polyline fill="none" stroke="black" points="297.5,-725.92 302.5,-725.84"/>
<polygon fill="black" stroke="black" points="390.17,-715.52 400.28,-719.76 395.5,-715.38 399.83,-715.27 399.83,-715.27 399.83,-715.27 395.5,-715.38 400.05,-710.76 390.17,-715.52"/>
<polyline fill="none" stroke="black" points="388.95,-715.55 383.95,-715.68"/>
</g>
<!-- gdm.distribution.components.distribution_feeder.DistributionFeeder -->
<g id="node4" class="node">
<title>gdm.distribution.components.distribution_feeder.DistributionFeeder</title>
<g id="a_node4"><a xlink:title="gdm.distribution.components.distribution_feeder.DistributionFeeder&#10;&#10;Class interface for distribution feeder.&#10;">
<polygon fill="none" stroke="black" points="1110,-771.25 1110,-793.75 1226.25,-793.75 1226.25,-771.25 1110,-771.25"/>
<text text-anchor="start" x="1113" y="-778.45" font-family="Times New Roman,Times,Liberation Serif,serif" font-weight="bold" font-size="14.00">DistributionFeeder</text>
<polygon fill="none" stroke="black" points="1110,-748.75 1110,-771.25 1166.25,-771.25 1166.25,-748.75 1110,-748.75"/>
<text text-anchor="start" x="1126.12" y="-754.95" font-family="Times New Roman,Times,Liberation Serif,serif" font-size="14.00">uuid</text>
<polygon fill="none" stroke="black" points="1166.25,-748.75 1166.25,-771.25 1226.25,-771.25 1226.25,-748.75 1166.25,-748.75"/>
<text text-anchor="start" x="1179.38" y="-754.95" font-family="Times New Roman,Times,Liberation Serif,serif" font-size="14.00">UUID</text>
<polygon fill="none" stroke="black" points="1110,-726.25 1110,-748.75 1166.25,-748.75 1166.25,-726.25 1110,-726.25"/>
<text text-anchor="start" x="1123.12" y="-732.45" font-family="Times New Roman,Times,Liberation Serif,serif" font-size="14.00">name</text>
<polygon fill="none" stroke="black" points="1166.25,-726.25 1166.25,-748.75 1226.25,-748.75 1226.25,-726.25 1166.25,-726.25"/>
<text text-anchor="start" x="1189.5" y="-732.45" font-family="Times New Roman,Times,Liberation Serif,serif" font-size="14.00">str</text>
</a>
</g>
</g>
<!-- gdm.distribution.components.base.distribution_transformer_base.DistributionTransformerBase&#45;&gt;gdm.distribution.components.distribution_feeder.DistributionFeeder -->
<g id="edge2" class="edge">
<title>gdm.distribution.components.base.distribution_transformer_base.DistributionTransformerBase:e&#45;&gt;gdm.distribution.components.distribution_feeder.DistributionFeeder:w</title>
<path fill="none" stroke="black" d="M302.28,-771C651.29,-771.2 746.58,-782.11 1091.26,-782.49"/>
<polyline fill="none" stroke="black" points="292.5,-771 297.5,-771"/>
<polyline fill="none" stroke="black" points="297.5,-771 302.5,-771"/>
<polyline fill="none" stroke="black" points="1110,-782.5 1105,-782.5"/>
<polygon fill="black" stroke="black" points="1104,-777.5 1104,-787.5 1102,-787.5 1102,-777.5 1104,-777.5"/>
<polyline fill="none" stroke="black" points="1105,-782.5 1100,-782.49"/>
<ellipse fill="none" stroke="black" cx="1095.5" cy="-782.49" rx="4" ry="4"/>
</g>
<!-- gdm.distribution.components.distribution_substation.DistributionSubstation -->
<g id="node5" class="node">
<title>gdm.distribution.components.distribution_substation.DistributionSubstation</title>
<g id="a_node5"><a xlink:title="gdm.distribution.components.distribution_substation.DistributionSubstation&#10;&#10;Class interface for distribution feeder.&#10;">
<polygon fill="none" stroke="black" points="798,-904.5 798,-927 976.5,-927 976.5,-904.5 798,-904.5"/>
<text text-anchor="start" x="821.25" y="-911.7" font-family="Times New Roman,Times,Liberation Serif,serif" font-weight="bold" font-size="14.00">DistributionSubstation</text>
<polygon fill="none" stroke="black" points="798,-882 798,-904.5 843,-904.5 843,-882 798,-882"/>
<text text-anchor="start" x="808.5" y="-888.2" font-family="Times New Roman,Times,Liberation Serif,serif" font-size="14.00">uuid</text>
<polygon fill="none" stroke="black" points="843,-882 843,-904.5 976.5,-904.5 976.5,-882 843,-882"/>
<text text-anchor="start" x="892.88" y="-888.2" font-family="Times New Roman,Times,Liberation Serif,serif" font-size="14.00">UUID</text>
<polygon fill="none" stroke="black" points="798,-859.5 798,-882 843,-882 843,-859.5 798,-859.5"/>
<text text-anchor="start" x="805.5" y="-865.7" font-family="Times New Roman,Times,Liberation Serif,serif" font-size="14.00">name</text>
<polygon fill="none" stroke="black" points="843,-859.5 843,-882 976.5,-882 976.5,-859.5 843,-859.5"/>
<text text-anchor="start" x="903" y="-865.7" font-family="Times New Roman,Times,Liberation Serif,serif" font-size="14.00">str</text>
<polygon fill="none" stroke="black" points="798,-837 798,-859.5 843,-859.5 843,-837 798,-837"/>
<text text-anchor="start" x="801" y="-843.2" font-family="Times New Roman,Times,Liberation Serif,serif" font-size="14.00">feeders</text>
<polygon fill="none" stroke="black" points="843,-837 843,-859.5 976.5,-859.5 976.5,-837 843,-837"/>
<text text-anchor="start" x="846" y="-843.2" font-family="Times New Roman,Times,Liberation Serif,serif" font-size="14.00">list[DistributionFeeder]</text>
</a>
</g>
</g>
<!-- gdm.distribution.components.base.distribution_transformer_base.DistributionTransformerBase&#45;&gt;gdm.distribution.components.distribution_substation.DistributionSubstation -->
<g id="edge3" class="edge">
<title>gdm.distribution.components.base.distribution_transformer_base.DistributionTransformerBase:e&#45;&gt;gdm.distribution.components.distribution_substation.DistributionSubstation:w</title>
<path fill="none" stroke="black" d="M302.31,-793.77C416.36,-799.76 657.55,-903.86 778.04,-914.82"/>
<polyline fill="none" stroke="black" points="292.5,-793.5 297.5,-793.64"/>
<polyline fill="none" stroke="black" points="297.5,-793.64 302.5,-793.77"/>
<polyline fill="none" stroke="black" points="797,-915.75 792.01,-915.5"/>
<polygon fill="black" stroke="black" points="791.25,-910.46 790.76,-920.45 788.76,-920.35 789.26,-910.36 791.25,-910.46"/>
<polyline fill="none" stroke="black" points="792.01,-915.5 787.01,-915.26"/>
<ellipse fill="none" stroke="black" cx="782.52" cy="-915.04" rx="4" ry="4"/>
</g>
<!-- gdm.distribution.equipment.distribution_transformer_equipment.DistributionTransformerEquipment -->
<g id="node6" class="node">
<title>gdm.distribution.equipment.distribution_transformer_equipment.DistributionTransformerEquipment</title>
<g id="a_node6"><a xlink:title="gdm.distribution.equipment.distribution_transformer_equipment.DistributionTransformerEquipment&#10;&#10;Data model for distribution transformer info.&#10;">
<polygon fill="none" stroke="black" points="405.75,-432.75 405.75,-455.25 659.25,-455.25 659.25,-432.75 405.75,-432.75"/>
<text text-anchor="start" x="426.75" y="-439.95" font-family="Times New Roman,Times,Liberation Serif,serif" font-weight="bold" font-size="14.00">DistributionTransformerEquipment</text>
<polygon fill="none" stroke="black" points="405.75,-410.25 405.75,-432.75 520.5,-432.75 520.5,-410.25 405.75,-410.25"/>
<text text-anchor="start" x="451.12" y="-416.45" font-family="Times New Roman,Times,Liberation Serif,serif" font-size="14.00">uuid</text>
<polygon fill="none" stroke="black" points="520.5,-410.25 520.5,-432.75 659.25,-432.75 659.25,-410.25 520.5,-410.25"/>
<text text-anchor="start" x="573" y="-416.45" font-family="Times New Roman,Times,Liberation Serif,serif" font-size="14.00">UUID</text>
<polygon fill="none" stroke="black" points="405.75,-387.75 405.75,-410.25 520.5,-410.25 520.5,-387.75 405.75,-387.75"/>
<text text-anchor="start" x="448.12" y="-393.95" font-family="Times New Roman,Times,Liberation Serif,serif" font-size="14.00">name</text>
<polygon fill="none" stroke="black" points="520.5,-387.75 520.5,-410.25 659.25,-410.25 659.25,-387.75 520.5,-387.75"/>
<text text-anchor="start" x="583.12" y="-393.95" font-family="Times New Roman,Times,Liberation Serif,serif" font-size="14.00">str</text>
<polygon fill="none" stroke="black" points="405.75,-365.25 405.75,-387.75 520.5,-387.75 520.5,-365.25 405.75,-365.25"/>
<text text-anchor="start" x="415.88" y="-371.45" font-family="Times New Roman,Times,Liberation Serif,serif" font-size="14.00">pct_no_load_loss</text>
<polygon fill="none" stroke="black" points="520.5,-365.25 520.5,-387.75 659.25,-387.75 659.25,-365.25 520.5,-365.25"/>
<text text-anchor="start" x="577.5" y="-371.45" font-family="Times New Roman,Times,Liberation Serif,serif" font-size="14.00">float</text>
<polygon fill="none" stroke="black" points="405.75,-342.75 405.75,-365.25 520.5,-365.25 520.5,-342.75 405.75,-342.75"/>
<text text-anchor="start" x="413.25" y="-348.95" font-family="Times New Roman,Times,Liberation Serif,serif" font-size="14.00">pct_full_load_loss</text>
<polygon fill="none" stroke="black" points="520.5,-342.75 520.5,-365.25 659.25,-365.25 659.25,-342.75 520.5,-342.75"/>
<text text-anchor="start" x="577.5" y="-348.95" font-family="Times New Roman,Times,Liberation Serif,serif" font-size="14.00">float</text>
<polygon fill="none" stroke="black" points="405.75,-320.25 405.75,-342.75 520.5,-342.75 520.5,-320.25 405.75,-320.25"/>
<text text-anchor="start" x="438.38" y="-326.45" font-family="Times New Roman,Times,Liberation Serif,serif" font-size="14.00">windings</text>
<polygon fill="none" stroke="black" points="520.5,-320.25 520.5,-342.75 659.25,-342.75 659.25,-320.25 520.5,-320.25"/>
<text text-anchor="start" x="523.5" y="-326.45" font-family="Times New Roman,Times,Liberation Serif,serif" font-size="14.00">list[WindingEquipment]</text>
<polygon fill="none" stroke="black" points="405.75,-297.75 405.75,-320.25 520.5,-320.25 520.5,-297.75 405.75,-297.75"/>
<text text-anchor="start" x="408.75" y="-303.95" font-family="Times New Roman,Times,Liberation Serif,serif" font-size="14.00">coupling_sequences</text>
<polygon fill="none" stroke="black" points="520.5,-297.75 520.5,-320.25 659.25,-320.25 659.25,-297.75 520.5,-297.75"/>
<text text-anchor="start" x="540.38" y="-303.95" font-family="Times New Roman,Times,Liberation Serif,serif" font-size="14.00">list[SequencePair]</text>
<polygon fill="none" stroke="black" points="405.75,-275.25 405.75,-297.75 520.5,-297.75 520.5,-275.25 405.75,-275.25"/>
<text text-anchor="start" x="409.5" y="-281.45" font-family="Times New Roman,Times,Liberation Serif,serif" font-size="14.00">winding_reactances</text>
<polygon fill="none" stroke="black" points="520.5,-275.25 520.5,-297.75 659.25,-297.75 659.25,-275.25 520.5,-275.25"/>
<text text-anchor="start" x="564.75" y="-281.45" font-family="Times New Roman,Times,Liberation Serif,serif" font-size="14.00">list[float]</text>
<polygon fill="none" stroke="black" points="405.75,-252.75 405.75,-275.25 520.5,-275.25 520.5,-252.75 405.75,-252.75"/>
<text text-anchor="start" x="417.38" y="-258.95" font-family="Times New Roman,Times,Liberation Serif,serif" font-size="14.00">is_center_tapped</text>
<polygon fill="none" stroke="black" points="520.5,-252.75 520.5,-275.25 659.25,-275.25 659.25,-252.75 520.5,-252.75"/>
<text text-anchor="start" x="577.88" y="-258.95" font-family="Times New Roman,Times,Liberation Serif,serif" font-size="14.00">bool</text>
</a>
</g>
</g>
<!-- gdm.distribution.components.base.distribution_transformer_base.DistributionTransformerBase&#45;&gt;gdm.distribution.equipment.distribution_transformer_equipment.DistributionTransformerEquipment -->
<g id="edge4" class="edge">
<title>gdm.distribution.components.base.distribution_transformer_base.DistributionTransformerBase:e&#45;&gt;gdm.distribution.equipment.distribution_transformer_equipment.DistributionTransformerEquipment:w</title>
<path fill="none" stroke="black" d="M302.45,-680.36C397.19,-667.51 301.8,-464.85 390.01,-445.48"/>
<polyline fill="none" stroke="black" points="292.5,-681 297.49,-680.68"/>
<polyline fill="none" stroke="black" points="297.49,-680.68 302.48,-680.36"/>
<polyline fill="none" stroke="black" points="404.75,-444 399.78,-444.5"/>
<polygon fill="black" stroke="black" points="398.28,-439.63 399.28,-449.58 397.29,-449.78 396.29,-439.83 398.28,-439.63"/>
<polyline fill="none" stroke="black" points="399.78,-444.5 394.8,-445"/>
<polygon fill="black" stroke="black" points="393.3,-440.13 394.31,-450.08 392.32,-450.28 391.31,-440.33 393.3,-440.13"/>
<polyline fill="none" stroke="black" points="394.8,-445 389.83,-445.5"/>
</g>
<!-- gdm.distribution.components.distribution_bus.DistributionBus&#45;&gt;gdm.distribution.common.limitset.VoltageLimitSet -->
<g id="edge5" class="edge">
<title>gdm.distribution.components.distribution_bus.DistributionBus:e&#45;&gt;gdm.distribution.common.limitset.VoltageLimitSet:w</title>
<path fill="none" stroke="black" d="M674.1,-558.24C733.99,-564.62 738.16,-630.7 794.65,-640.73"/>
<polyline fill="none" stroke="black" points="664.5,-557.75 669.49,-558.01"/>
<polyline fill="none" stroke="black" points="669.49,-558.01 674.49,-558.27"/>
<polygon fill="black" stroke="black" points="799.45,-641.13 809.04,-646.46 804.77,-641.58 809.08,-641.94 809.08,-641.94 809.08,-641.94 804.77,-641.58 809.79,-637.49 799.45,-641.13"/>
<polyline fill="none" stroke="black" points="798.24,-641.03 793.26,-640.61"/>
</g>
<!-- gdm.distribution.components.distribution_bus.DistributionBus&#45;&gt;gdm.distribution.components.distribution_feeder.DistributionFeeder -->
<g id="edge6" class="edge">
<title>gdm.distribution.components.distribution_bus.DistributionBus:e&#45;&gt;gdm.distribution.components.distribution_feeder.DistributionFeeder:w</title>
<path fill="none" stroke="black" d="M674.31,-625.6C717.75,-628.85 726.95,-653.86 772.5,-671 805.71,-683.5 1019.79,-763.54 1091.58,-779.67"/>
<polyline fill="none" stroke="black" points="664.5,-625.25 669.5,-625.43"/>
<polyline fill="none" stroke="black" points="669.5,-625.43 674.49,-625.61"/>
<polyline fill="none" stroke="black" points="1110,-782.5 1105.06,-781.74"/>
<polygon fill="black" stroke="black" points="1104.83,-776.65 1103.31,-786.53 1101.33,-786.23 1102.85,-776.34 1104.83,-776.65"/>
<polyline fill="none" stroke="black" points="1105.06,-781.74 1100.12,-780.98"/>
<ellipse fill="none" stroke="black" cx="1095.67" cy="-780.3" rx="4" ry="4"/>
</g>
<!-- gdm.distribution.components.distribution_bus.DistributionBus&#45;&gt;gdm.distribution.components.distribution_substation.DistributionSubstation -->
<g id="edge7" class="edge">
<title>gdm.distribution.components.distribution_bus.DistributionBus:e&#45;&gt;gdm.distribution.components.distribution_substation.DistributionSubstation:w</title>
<path fill="none" stroke="black" d="M674.47,-648.3C784.3,-660.98 680.14,-889.15 778.26,-913.63"/>
<polyline fill="none" stroke="black" points="664.5,-647.75 669.49,-648.03"/>
<polyline fill="none" stroke="black" points="669.49,-648.03 674.48,-648.3"/>
<polyline fill="none" stroke="black" points="797,-915.75 792.03,-915.19"/>
<polygon fill="black" stroke="black" points="791.6,-910.11 790.48,-920.04 788.49,-919.82 789.61,-909.88 791.6,-910.11"/>
<polyline fill="none" stroke="black" points="792.03,-915.19 787.06,-914.62"/>
<ellipse fill="none" stroke="black" cx="782.59" cy="-914.12" rx="4" ry="4"/>
</g>
<!-- infrasys.location.Location -->
<g id="node7" class="node">
<title>infrasys.location.Location</title>
<g id="a_node7"><a xlink:title="infrasys.location.Location&#10;&#10;Specifies geographic location.&#10;">
<polygon fill="none" stroke="black" points="839.62,-482 839.62,-504.5 934.88,-504.5 934.88,-482 839.62,-482"/>
<text text-anchor="start" x="861.75" y="-489.2" font-family="Times New Roman,Times,Liberation Serif,serif" font-weight="bold" font-size="14.00">Location</text>
<polygon fill="none" stroke="black" points="839.62,-459.5 839.62,-482 875.62,-482 875.62,-459.5 839.62,-459.5"/>
<text text-anchor="start" x="845.62" y="-465.7" font-family="Times New Roman,Times,Liberation Serif,serif" font-size="14.00">uuid</text>
<polygon fill="none" stroke="black" points="875.62,-459.5 875.62,-482 934.88,-482 934.88,-459.5 875.62,-459.5"/>
<text text-anchor="start" x="888.38" y="-465.7" font-family="Times New Roman,Times,Liberation Serif,serif" font-size="14.00">UUID</text>
<polygon fill="none" stroke="black" points="839.62,-437 839.62,-459.5 875.62,-459.5 875.62,-437 839.62,-437"/>
<text text-anchor="start" x="842.62" y="-443.2" font-family="Times New Roman,Times,Liberation Serif,serif" font-size="14.00">name</text>
<polygon fill="none" stroke="black" points="875.62,-437 875.62,-459.5 934.88,-459.5 934.88,-437 875.62,-437"/>
<text text-anchor="start" x="898.5" y="-443.2" font-family="Times New Roman,Times,Liberation Serif,serif" font-size="14.00">str</text>
<polygon fill="none" stroke="black" points="839.62,-414.5 839.62,-437 875.62,-437 875.62,-414.5 839.62,-414.5"/>
<text text-anchor="start" x="854.25" y="-420.7" font-family="Times New Roman,Times,Liberation Serif,serif" font-size="14.00">x</text>
<polygon fill="none" stroke="black" points="875.62,-414.5 875.62,-437 934.88,-437 934.88,-414.5 875.62,-414.5"/>
<text text-anchor="start" x="892.88" y="-420.7" font-family="Times New Roman,Times,Liberation Serif,serif" font-size="14.00">float</text>
<polygon fill="none" stroke="black" points="839.62,-392 839.62,-414.5 875.62,-414.5 875.62,-392 839.62,-392"/>
<text text-anchor="start" x="854.25" y="-398.2" font-family="Times New Roman,Times,Liberation Serif,serif" font-size="14.00">y</text>
<polygon fill="none" stroke="black" points="875.62,-392 875.62,-414.5 934.88,-414.5 934.88,-392 875.62,-392"/>
<text text-anchor="start" x="892.88" y="-398.2" font-family="Times New Roman,Times,Liberation Serif,serif" font-size="14.00">float</text>
<polygon fill="none" stroke="black" points="839.62,-369.5 839.62,-392 875.62,-392 875.62,-369.5 839.62,-369.5"/>
<text text-anchor="start" x="849.75" y="-375.7" font-family="Times New Roman,Times,Liberation Serif,serif" font-size="14.00">crs</text>
<polygon fill="none" stroke="black" points="875.62,-369.5 875.62,-392 934.88,-392 934.88,-369.5 875.62,-369.5"/>
<text text-anchor="start" x="878.62" y="-375.7" font-family="Times New Roman,Times,Liberation Serif,serif" font-size="14.00">str | None</text>
</a>
</g>
</g>
<!-- gdm.distribution.components.distribution_bus.DistributionBus&#45;&gt;infrasys.location.Location -->
<g id="edge8" class="edge">
<title>gdm.distribution.components.distribution_bus.DistributionBus:e&#45;&gt;infrasys.location.Location:w</title>
<path fill="none" stroke="black" d="M674.22,-512.65C737.79,-511.25 760.1,-496.33 819.78,-493.66"/>
<polyline fill="none" stroke="black" points="664.5,-512.75 669.5,-512.7"/>
<polyline fill="none" stroke="black" points="669.5,-512.7 674.5,-512.64"/>
<polyline fill="none" stroke="black" points="838.62,-493.25 833.63,-493.36"/>
<polygon fill="black" stroke="black" points="832.52,-488.38 832.73,-498.38 830.74,-498.42 830.52,-488.42 832.52,-488.38"/>
<polyline fill="none" stroke="black" points="833.63,-493.36 828.63,-493.47"/>
<ellipse fill="none" stroke="black" cx="824.13" cy="-493.56" rx="4" ry="4"/>
</g>
<!-- gdm.distribution.components.distribution_substation.DistributionSubstation&#45;&gt;gdm.distribution.components.distribution_feeder.DistributionFeeder -->
<g id="edge9" class="edge">
<title>gdm.distribution.components.distribution_substation.DistributionSubstation:e&#45;&gt;gdm.distribution.components.distribution_feeder.DistributionFeeder:w</title>
<path fill="none" stroke="black" d="M987.38,-847.72C1038.59,-842.05 1046.59,-792.46 1094.85,-783.79"/>
<polyline fill="none" stroke="black" points="977.5,-848.25 982.49,-847.98"/>
<polyline fill="none" stroke="black" points="982.49,-847.98 987.49,-847.71"/>
<polygon fill="black" stroke="black" points="1099.7,-783.38 1110.05,-787.01 1105.02,-782.92 1109.33,-782.56 1109.33,-782.56 1109.33,-782.56 1105.02,-782.92 1109.28,-778.04 1099.7,-783.38"/>
<polyline fill="none" stroke="black" points="1098.49,-783.48 1093.51,-783.91"/>
</g>
<!-- gdm.distribution.equipment.distribution_transformer_equipment.WindingEquipment -->
<g id="node8" class="node">
<title>gdm.distribution.equipment.distribution_transformer_equipment.WindingEquipment</title>
<g id="a_node8"><a xlink:title="gdm.distribution.equipment.distribution_transformer_equipment.WindingEquipment&#10;&#10;Data model for winding.&#10;">
<polygon fill="none" stroke="black" points="772.5,-311 772.5,-333.5 1002,-333.5 1002,-311 772.5,-311"/>
<text text-anchor="start" x="829.5" y="-318.2" font-family="Times New Roman,Times,Liberation Serif,serif" font-weight="bold" font-size="14.00">WindingEquipment</text>
<polygon fill="none" stroke="black" points="772.5,-288.5 772.5,-311 867.75,-311 867.75,-288.5 772.5,-288.5"/>
<text text-anchor="start" x="808.12" y="-294.7" font-family="Times New Roman,Times,Liberation Serif,serif" font-size="14.00">uuid</text>
<polygon fill="none" stroke="black" points="867.75,-288.5 867.75,-311 1002,-311 1002,-288.5 867.75,-288.5"/>
<text text-anchor="start" x="918" y="-294.7" font-family="Times New Roman,Times,Liberation Serif,serif" font-size="14.00">UUID</text>
<polygon fill="none" stroke="black" points="772.5,-266 772.5,-288.5 867.75,-288.5 867.75,-266 772.5,-266"/>
<text text-anchor="start" x="805.12" y="-272.2" font-family="Times New Roman,Times,Liberation Serif,serif" font-size="14.00">name</text>
<polygon fill="none" stroke="black" points="867.75,-266 867.75,-288.5 1002,-288.5 1002,-266 867.75,-266"/>
<text text-anchor="start" x="928.12" y="-272.2" font-family="Times New Roman,Times,Liberation Serif,serif" font-size="14.00">str</text>
<polygon fill="none" stroke="black" points="772.5,-243.5 772.5,-266 867.75,-266 867.75,-243.5 772.5,-243.5"/>
<text text-anchor="start" x="793.5" y="-249.7" font-family="Times New Roman,Times,Liberation Serif,serif" font-size="14.00">resistance</text>
<polygon fill="none" stroke="black" points="867.75,-243.5 867.75,-266 1002,-266 1002,-243.5 867.75,-243.5"/>
<text text-anchor="start" x="922.5" y="-249.7" font-family="Times New Roman,Times,Liberation Serif,serif" font-size="14.00">float</text>
<polygon fill="none" stroke="black" points="772.5,-221 772.5,-243.5 867.75,-243.5 867.75,-221 772.5,-221"/>
<text text-anchor="start" x="786.75" y="-227.2" font-family="Times New Roman,Times,Liberation Serif,serif" font-size="14.00">is_grounded</text>
<polygon fill="none" stroke="black" points="867.75,-221 867.75,-243.5 1002,-243.5 1002,-221 867.75,-221"/>
<text text-anchor="start" x="922.88" y="-227.2" font-family="Times New Roman,Times,Liberation Serif,serif" font-size="14.00">bool</text>
<polygon fill="none" stroke="black" points="772.5,-198.5 772.5,-221 867.75,-221 867.75,-198.5 772.5,-198.5"/>
<text text-anchor="start" x="783.38" y="-204.7" font-family="Times New Roman,Times,Liberation Serif,serif" font-size="14.00">rated_voltage</text>
<polygon fill="none" stroke="black" points="867.75,-198.5 867.75,-221 1002,-221 1002,-198.5 867.75,-198.5"/>
<text text-anchor="start" x="892.5" y="-204.7" font-family="Times New Roman,Times,Liberation Serif,serif" font-size="14.00">PositiveVoltage</text>
<polygon fill="none" stroke="black" points="772.5,-176 772.5,-198.5 867.75,-198.5 867.75,-176 772.5,-176"/>
<text text-anchor="start" x="785.25" y="-182.2" font-family="Times New Roman,Times,Liberation Serif,serif" font-size="14.00">voltage_type</text>
<polygon fill="none" stroke="black" points="867.75,-176 867.75,-198.5 1002,-198.5 1002,-176 867.75,-176"/>
<text text-anchor="start" x="897.75" y="-182.2" font-family="Times New Roman,Times,Liberation Serif,serif" font-size="14.00">VoltageTypes</text>
<polygon fill="none" stroke="black" points="772.5,-153.5 772.5,-176 867.75,-176 867.75,-153.5 772.5,-153.5"/>
<text text-anchor="start" x="786.38" y="-159.7" font-family="Times New Roman,Times,Liberation Serif,serif" font-size="14.00">rated_power</text>
<polygon fill="none" stroke="black" points="867.75,-153.5 867.75,-176 1002,-176 1002,-153.5 867.75,-153.5"/>
<text text-anchor="start" x="870.75" y="-159.7" font-family="Times New Roman,Times,Liberation Serif,serif" font-size="14.00">PositiveApparentPower</text>
<polygon fill="none" stroke="black" points="772.5,-131 772.5,-153.5 867.75,-153.5 867.75,-131 772.5,-131"/>
<text text-anchor="start" x="786.38" y="-137.2" font-family="Times New Roman,Times,Liberation Serif,serif" font-size="14.00">num_phases</text>
<polygon fill="none" stroke="black" points="867.75,-131 867.75,-153.5 1002,-153.5 1002,-131 867.75,-131"/>
<text text-anchor="start" x="927.75" y="-137.2" font-family="Times New Roman,Times,Liberation Serif,serif" font-size="14.00">int</text>
<polygon fill="none" stroke="black" points="772.5,-108.5 772.5,-131 867.75,-131 867.75,-108.5 772.5,-108.5"/>
<text text-anchor="start" x="775.5" y="-114.7" font-family="Times New Roman,Times,Liberation Serif,serif" font-size="14.00">connection_type</text>
<polygon fill="none" stroke="black" points="867.75,-108.5 867.75,-131 1002,-131 1002,-108.5 867.75,-108.5"/>
<text text-anchor="start" x="889.88" y="-114.7" font-family="Times New Roman,Times,Liberation Serif,serif" font-size="14.00">ConnectionType</text>
<polygon fill="none" stroke="black" points="772.5,-86 772.5,-108.5 867.75,-108.5 867.75,-86 772.5,-86"/>
<text text-anchor="start" x="784.12" y="-92.2" font-family="Times New Roman,Times,Liberation Serif,serif" font-size="14.00">tap_positions</text>
<polygon fill="none" stroke="black" points="867.75,-86 867.75,-108.5 1002,-108.5 1002,-86 867.75,-86"/>
<text text-anchor="start" x="909.75" y="-92.2" font-family="Times New Roman,Times,Liberation Serif,serif" font-size="14.00">list[float]</text>
<polygon fill="none" stroke="black" points="772.5,-63.5 772.5,-86 867.75,-86 867.75,-63.5 772.5,-63.5"/>
<text text-anchor="start" x="793.88" y="-69.7" font-family="Times New Roman,Times,Liberation Serif,serif" font-size="14.00">total_taps</text>
<polygon fill="none" stroke="black" points="867.75,-63.5 867.75,-86 1002,-86 1002,-63.5 867.75,-63.5"/>
<text text-anchor="start" x="927.75" y="-69.7" font-family="Times New Roman,Times,Liberation Serif,serif" font-size="14.00">int</text>
<polygon fill="none" stroke="black" points="772.5,-41 772.5,-63.5 867.75,-63.5 867.75,-41 772.5,-41"/>
<text text-anchor="start" x="787.5" y="-47.2" font-family="Times New Roman,Times,Liberation Serif,serif" font-size="14.00">min_tap_pu</text>
<polygon fill="none" stroke="black" points="867.75,-41 867.75,-63.5 1002,-63.5 1002,-41 867.75,-41"/>
<text text-anchor="start" x="922.5" y="-47.2" font-family="Times New Roman,Times,Liberation Serif,serif" font-size="14.00">float</text>
<polygon fill="none" stroke="black" points="772.5,-18.5 772.5,-41 867.75,-41 867.75,-18.5 772.5,-18.5"/>
<text text-anchor="start" x="786.38" y="-24.7" font-family="Times New Roman,Times,Liberation Serif,serif" font-size="14.00">max_tap_pu</text>
<polygon fill="none" stroke="black" points="867.75,-18.5 867.75,-41 1002,-41 1002,-18.5 867.75,-18.5"/>
<text text-anchor="start" x="922.5" y="-24.7" font-family="Times New Roman,Times,Liberation Serif,serif" font-size="14.00">float</text>
</a>
</g>
</g>
<!-- gdm.distribution.equipment.distribution_transformer_equipment.DistributionTransformerEquipment&#45;&gt;gdm.distribution.equipment.distribution_transformer_equipment.WindingEquipment -->
<g id="edge10" class="edge">
<title>gdm.distribution.equipment.distribution_transformer_equipment.DistributionTransformerEquipment:e&#45;&gt;gdm.distribution.equipment.distribution_transformer_equipment.WindingEquipment:w</title>
<path fill="none" stroke="black" d="M670.01,-331.38C707.21,-330.41 722.26,-324.04 757.36,-322.56"/>
<polyline fill="none" stroke="black" points="660.25,-331.5 665.25,-331.44"/>
<polyline fill="none" stroke="black" points="665.25,-331.44 670.25,-331.37"/>
<polygon fill="black" stroke="black" points="762.17,-322.46 772.26,-326.76 767.5,-322.35 771.83,-322.26 771.83,-322.26 771.83,-322.26 767.5,-322.35 772.07,-317.76 762.17,-322.46"/>
<polyline fill="none" stroke="black" points="760.95,-322.48 755.95,-322.59"/>
</g>
</g>
</svg>
