<?xml version="1.0" encoding="UTF-8" standalone="no"?>
<!DOCTYPE svg PUBLIC "-//W3C//DTD SVG 1.1//EN"
 "http://www.w3.org/Graphics/SVG/1.1/DTD/svg11.dtd">
<!-- Generated by graphviz version 9.0.0 (0)
 -->
<!-- Title: Entity Relationship Diagram created by erdantic Pages: 1 -->
<svg width="410pt" height="159pt"
 viewBox="0.00 0.00 410.00 158.50" xmlns="http://www.w3.org/2000/svg" xmlns:xlink="http://www.w3.org/1999/xlink">
<g id="graph0" class="graph" transform="scale(1 1) rotate(0) translate(4 154.5)">
<title>Entity Relationship Diagram created by erdantic</title>
<polygon fill="white" stroke="none" points="-4,4 -4,-154.5 406,-154.5 406,4 -4,4"/>
<text text-anchor="middle" x="201" y="-5.95" font-family="Times New Roman,Times,Liberation Serif,serif" font-size="9.00" fill="#a8a8a8">Created by erdantic v0.6.0 &lt;https://github.com/drivendataorg/erdantic&gt;</text>
<!-- gdm.distribution.components.distribution_feeder.DistributionFeeder -->
<g id="node1" class="node">
<title>gdm.distribution.components.distribution_feeder.DistributionFeeder</title>
<g id="a_node1"><a xlink:title="gdm.distribution.components.distribution_feeder.DistributionFeeder&#10;&#10;Class interface for distribution feeder.&#10;">
<polygon fill="none" stroke="black" points="286,-62.5 286,-84.5 402,-84.5 402,-62.5 286,-62.5"/>
<text text-anchor="start" x="288.88" y="-69.2" font-family="Times New Roman,Times,Liberation Serif,serif" font-weight="bold" font-size="14.00">DistributionFeeder</text>
<polygon fill="none" stroke="black" points="286,-40.5 286,-62.5 342,-62.5 342,-40.5 286,-40.5"/>
<text text-anchor="start" x="302" y="-46.2" font-family="Times New Roman,Times,Liberation Serif,serif" font-size="14.00">uuid</text>
<polygon fill="none" stroke="black" points="342,-40.5 342,-62.5 402,-62.5 402,-40.5 342,-40.5"/>
<text text-anchor="start" x="355.12" y="-46.2" font-family="Times New Roman,Times,Liberation Serif,serif" font-size="14.00">UUID</text>
<polygon fill="none" stroke="black" points="286,-18.5 286,-40.5 342,-40.5 342,-18.5 286,-18.5"/>
<text text-anchor="start" x="299" y="-24.2" font-family="Times New Roman,Times,Liberation Serif,serif" font-size="14.00">name</text>
<polygon fill="none" stroke="black" points="342,-18.5 342,-40.5 402,-40.5 402,-18.5 342,-18.5"/>
<text text-anchor="start" x="365.25" y="-24.2" font-family="Times New Roman,Times,Liberation Serif,serif" font-size="14.00">str</text>
</a>
</g>
</g>
<!-- gdm.distribution.components.distribution_substation.DistributionSubstation -->
<g id="node2" class="node">
<title>gdm.distribution.components.distribution_substation.DistributionSubstation</title>
<g id="a_node2"><a xlink:title="gdm.distribution.components.distribution_substation.DistributionSubstation&#10;&#10;Class interface for distribution feeder.&#10;">
<polygon fill="none" stroke="black" points="0,-128.5 0,-150.5 178,-150.5 178,-128.5 0,-128.5"/>
<text text-anchor="start" x="23" y="-135.2" font-family="Times New Roman,Times,Liberation Serif,serif" font-weight="bold" font-size="14.00">DistributionSubstation</text>
<polygon fill="none" stroke="black" points="0,-106.5 0,-128.5 45,-128.5 45,-106.5 0,-106.5"/>
<text text-anchor="start" x="10.5" y="-112.2" font-family="Times New Roman,Times,Liberation Serif,serif" font-size="14.00">uuid</text>
<polygon fill="none" stroke="black" points="45,-106.5 45,-128.5 178,-128.5 178,-106.5 45,-106.5"/>
<text text-anchor="start" x="94.62" y="-112.2" font-family="Times New Roman,Times,Liberation Serif,serif" font-size="14.00">UUID</text>
<polygon fill="none" stroke="black" points="0,-84.5 0,-106.5 45,-106.5 45,-84.5 0,-84.5"/>
<text text-anchor="start" x="7.5" y="-90.2" font-family="Times New Roman,Times,Liberation Serif,serif" font-size="14.00">name</text>
<polygon fill="none" stroke="black" points="45,-84.5 45,-106.5 178,-106.5 178,-84.5 45,-84.5"/>
<text text-anchor="start" x="104.75" y="-90.2" font-family="Times New Roman,Times,Liberation Serif,serif" font-size="14.00">str</text>
<polygon fill="none" stroke="black" points="0,-62.5 0,-84.5 45,-84.5 45,-62.5 0,-62.5"/>
<text text-anchor="start" x="3" y="-68.2" font-family="Times New Roman,Times,Liberation Serif,serif" font-size="14.00">feeders</text>
<polygon fill="none" stroke="black" points="45,-62.5 45,-84.5 178,-84.5 178,-62.5 45,-62.5"/>
<text text-anchor="start" x="47.75" y="-68.2" font-family="Times New Roman,Times,Liberation Serif,serif" font-size="14.00">list[DistributionFeeder]</text>
</a>
</g>
</g>
<!-- gdm.distribution.components.distribution_substation.DistributionSubstation&#45;&gt;gdm.distribution.components.distribution_feeder.DistributionFeeder -->
<g id="edge1" class="edge">
<title>gdm.distribution.components.distribution_substation.DistributionSubstation:e&#45;&gt;gdm.distribution.components.distribution_feeder.DistributionFeeder:w</title>
<path fill="none" stroke="black" d="M187.87,-73.5C222.6,-73.5 237.4,-73.5 269.76,-73.5"/>
<polyline fill="none" stroke="black" points="178,-73.5 183,-73.5"/>
<polyline fill="none" stroke="black" points="183,-73.5 188,-73.5"/>
<polygon fill="black" stroke="black" points="275.67,-73.5 285.67,-78 281,-73.5 285.33,-73.5 285.33,-73.5 285.33,-73.5 281,-73.5 285.67,-69 275.67,-73.5"/>
<polyline fill="none" stroke="black" points="274.45,-73.5 269.45,-73.5"/>
</g>
</g>
</svg>
