<?xml version="1.0" encoding="UTF-8" standalone="no"?>
<!DOCTYPE svg PUBLIC "-//W3C//DTD SVG 1.1//EN"
 "http://www.w3.org/Graphics/SVG/1.1/DTD/svg11.dtd">
<!-- Generated by graphviz version 12.2.1 (20241206.2353)
 -->
<!-- Title: Entity Relationship Diagram created by erdantic Pages: 1 -->
<svg width="411pt" height="161pt"
 viewBox="0.00 0.00 410.75 161.25" xmlns="http://www.w3.org/2000/svg" xmlns:xlink="http://www.w3.org/1999/xlink">
<g id="graph0" class="graph" transform="scale(1 1) rotate(0) translate(4 157.25)">
<title>Entity Relationship Diagram created by erdantic</title>
<polygon fill="white" stroke="none" points="-4,4 -4,-157.25 406.75,-157.25 406.75,4 -4,4"/>
<text text-anchor="middle" x="201.38" y="-5.95" font-family="Times New Roman,Times,Liberation Serif,serif" font-size="9.00" fill="#a8a8a8">Created by erdantic v1.0.5 &lt;https://github.com/drivendataorg/erdantic&gt;</text>
<!-- gdm.distribution.components.distribution_feeder.DistributionFeeder -->
<g id="node1" class="node">
<title>gdm.distribution.components.distribution_feeder.DistributionFeeder</title>
<g id="a_node1"><a xlink:title="gdm.distribution.components.distribution_feeder.DistributionFeeder&#10;&#10;Class interface for distribution feeder.&#10;">
<polygon fill="none" stroke="black" points="286.5,-63.5 286.5,-86 402.75,-86 402.75,-63.5 286.5,-63.5"/>
<text text-anchor="start" x="289.5" y="-70.7" font-family="Times New Roman,Times,Liberation Serif,serif" font-weight="bold" font-size="14.00">DistributionFeeder</text>
<polygon fill="none" stroke="black" points="286.5,-41 286.5,-63.5 342.75,-63.5 342.75,-41 286.5,-41"/>
<text text-anchor="start" x="302.62" y="-47.2" font-family="Times New Roman,Times,Liberation Serif,serif" font-size="14.00">uuid</text>
<polygon fill="none" stroke="black" points="342.75,-41 342.75,-63.5 402.75,-63.5 402.75,-41 342.75,-41"/>
<text text-anchor="start" x="355.88" y="-47.2" font-family="Times New Roman,Times,Liberation Serif,serif" font-size="14.00">UUID</text>
<polygon fill="none" stroke="black" points="286.5,-18.5 286.5,-41 342.75,-41 342.75,-18.5 286.5,-18.5"/>
<text text-anchor="start" x="299.62" y="-24.7" font-family="Times New Roman,Times,Liberation Serif,serif" font-size="14.00">name</text>
<polygon fill="none" stroke="black" points="342.75,-18.5 342.75,-41 402.75,-41 402.75,-18.5 342.75,-18.5"/>
<text text-anchor="start" x="366" y="-24.7" font-family="Times New Roman,Times,Liberation Serif,serif" font-size="14.00">str</text>
</a>
</g>
</g>
<!-- gdm.distribution.components.distribution_substation.DistributionSubstation -->
<g id="node2" class="node">
<title>gdm.distribution.components.distribution_substation.DistributionSubstation</title>
<g id="a_node2"><a xlink:title="gdm.distribution.components.distribution_substation.DistributionSubstation&#10;&#10;Class interface for distribution feeder.&#10;">
<polygon fill="none" stroke="black" points="0,-130.75 0,-153.25 178.5,-153.25 178.5,-130.75 0,-130.75"/>
<text text-anchor="start" x="23.25" y="-137.95" font-family="Times New Roman,Times,Liberation Serif,serif" font-weight="bold" font-size="14.00">DistributionSubstation</text>
<polygon fill="none" stroke="black" points="0,-108.25 0,-130.75 45,-130.75 45,-108.25 0,-108.25"/>
<text text-anchor="start" x="10.5" y="-114.45" font-family="Times New Roman,Times,Liberation Serif,serif" font-size="14.00">uuid</text>
<polygon fill="none" stroke="black" points="45,-108.25 45,-130.75 178.5,-130.75 178.5,-108.25 45,-108.25"/>
<text text-anchor="start" x="94.88" y="-114.45" font-family="Times New Roman,Times,Liberation Serif,serif" font-size="14.00">UUID</text>
<polygon fill="none" stroke="black" points="0,-85.75 0,-108.25 45,-108.25 45,-85.75 0,-85.75"/>
<text text-anchor="start" x="7.5" y="-91.95" font-family="Times New Roman,Times,Liberation Serif,serif" font-size="14.00">name</text>
<polygon fill="none" stroke="black" points="45,-85.75 45,-108.25 178.5,-108.25 178.5,-85.75 45,-85.75"/>
<text text-anchor="start" x="105" y="-91.95" font-family="Times New Roman,Times,Liberation Serif,serif" font-size="14.00">str</text>
<polygon fill="none" stroke="black" points="0,-63.25 0,-85.75 45,-85.75 45,-63.25 0,-63.25"/>
<text text-anchor="start" x="3" y="-69.45" font-family="Times New Roman,Times,Liberation Serif,serif" font-size="14.00">feeders</text>
<polygon fill="none" stroke="black" points="45,-63.25 45,-85.75 178.5,-85.75 178.5,-63.25 45,-63.25"/>
<text text-anchor="start" x="48" y="-69.45" font-family="Times New Roman,Times,Liberation Serif,serif" font-size="14.00">list[DistributionFeeder]</text>
</a>
</g>
</g>
<!-- gdm.distribution.components.distribution_substation.DistributionSubstation&#45;&gt;gdm.distribution.components.distribution_feeder.DistributionFeeder -->
<g id="edge1" class="edge">
<title>gdm.distribution.components.distribution_substation.DistributionSubstation:e&#45;&gt;gdm.distribution.components.distribution_feeder.DistributionFeeder:w</title>
<path fill="none" stroke="black" d="M188.37,-74.5C223.42,-74.53 238.17,-74.7 271.14,-74.74"/>
<polyline fill="none" stroke="black" points="178.5,-74.5 183.5,-74.5"/>
<polyline fill="none" stroke="black" points="183.5,-74.5 188.5,-74.5"/>
<polygon fill="black" stroke="black" points="276.17,-74.74 286.16,-79.25 281.5,-74.75 285.83,-74.75 285.83,-74.75 285.83,-74.75 281.5,-74.75 286.17,-70.25 276.17,-74.74"/>
<polyline fill="none" stroke="black" points="274.95,-74.74 269.95,-74.74"/>
</g>
</g>
</svg>
