<?xml version="1.0" encoding="UTF-8" standalone="no"?>
<!DOCTYPE svg PUBLIC "-//W3C//DTD SVG 1.1//EN"
 "http://www.w3.org/Graphics/SVG/1.1/DTD/svg11.dtd">
<!-- Generated by graphviz version 9.0.0 (0)
 -->
<!-- Title: Entity Relationship Diagram created by erdantic Pages: 1 -->
<svg width="799pt" height="503pt"
 viewBox="0.00 0.00 799.00 502.50" xmlns="http://www.w3.org/2000/svg" xmlns:xlink="http://www.w3.org/1999/xlink">
<g id="graph0" class="graph" transform="scale(1 1) rotate(0) translate(4 498.5)">
<title>Entity Relationship Diagram created by erdantic</title>
<polygon fill="white" stroke="none" points="-4,4 -4,-498.5 795,-498.5 795,4 -4,4"/>
<text text-anchor="middle" x="395.5" y="-5.95" font-family="Times New Roman,Times,Liberation Serif,serif" font-size="9.00" fill="#a8a8a8">Created by erdantic v0.6.0 &lt;https://github.com/drivendataorg/erdantic&gt;</text>
<!-- gdm.distribution.components.distribution_bus.DistributionBus -->
<g id="node1" class="node">
<title>gdm.distribution.components.distribution_bus.DistributionBus</title>
<g id="a_node1"><a xlink:title="gdm.distribution.components.distribution_bus.DistributionBus&#10;&#10;Interface for distribution bus.&#10;&#10;Examples:&#10; &#160;&#160;&#160;&gt;&gt;&gt; from gdm import DistributionBus&#10; &#160;&#160;&#160;&gt;&gt;&gt; DistributionBus.example()&#10;">
<polygon fill="none" stroke="black" points="0,-428.5 0,-450.5 281,-450.5 281,-428.5 0,-428.5"/>
<text text-anchor="start" x="94.38" y="-435.2" font-family="Times New Roman,Times,Liberation Serif,serif" font-weight="bold" font-size="14.00">DistributionBus</text>
<polygon fill="none" stroke="black" points="0,-406.5 0,-428.5 97,-428.5 97,-406.5 0,-406.5"/>
<text text-anchor="start" x="36.5" y="-412.2" font-family="Times New Roman,Times,Liberation Serif,serif" font-size="14.00">uuid</text>
<polygon fill="none" stroke="black" points="97,-406.5 97,-428.5 281,-428.5 281,-406.5 97,-406.5"/>
<text text-anchor="start" x="172.12" y="-412.2" font-family="Times New Roman,Times,Liberation Serif,serif" font-size="14.00">UUID</text>
<polygon fill="none" stroke="black" points="0,-384.5 0,-406.5 97,-406.5 97,-384.5 0,-384.5"/>
<text text-anchor="start" x="33.5" y="-390.2" font-family="Times New Roman,Times,Liberation Serif,serif" font-size="14.00">name</text>
<polygon fill="none" stroke="black" points="97,-384.5 97,-406.5 281,-406.5 281,-384.5 97,-384.5"/>
<text text-anchor="start" x="182.25" y="-390.2" font-family="Times New Roman,Times,Liberation Serif,serif" font-size="14.00">str</text>
<polygon fill="none" stroke="black" points="0,-362.5 0,-384.5 97,-384.5 97,-362.5 0,-362.5"/>
<text text-anchor="start" x="21.12" y="-368.2" font-family="Times New Roman,Times,Liberation Serif,serif" font-size="14.00">substation</text>
<polygon fill="none" stroke="black" points="97,-362.5 97,-384.5 281,-384.5 281,-362.5 97,-362.5"/>
<text text-anchor="start" x="99.75" y="-368.2" font-family="Times New Roman,Times,Liberation Serif,serif" font-size="14.00">Optional[DistributionSubstation]</text>
<polygon fill="none" stroke="black" points="0,-340.5 0,-362.5 97,-362.5 97,-340.5 0,-340.5"/>
<text text-anchor="start" x="31.62" y="-346.2" font-family="Times New Roman,Times,Liberation Serif,serif" font-size="14.00">feeder</text>
<polygon fill="none" stroke="black" points="97,-340.5 97,-362.5 281,-362.5 281,-340.5 97,-340.5"/>
<text text-anchor="start" x="109.88" y="-346.2" font-family="Times New Roman,Times,Liberation Serif,serif" font-size="14.00">Optional[DistributionFeeder]</text>
<polygon fill="none" stroke="black" points="0,-318.5 0,-340.5 97,-340.5 97,-318.5 0,-318.5"/>
<text text-anchor="start" x="13.62" y="-324.2" font-family="Times New Roman,Times,Liberation Serif,serif" font-size="14.00">voltage_type</text>
<polygon fill="none" stroke="black" points="97,-318.5 97,-340.5 281,-340.5 281,-318.5 97,-318.5"/>
<text text-anchor="start" x="152.25" y="-324.2" font-family="Times New Roman,Times,Liberation Serif,serif" font-size="14.00">VoltageTypes</text>
<polygon fill="none" stroke="black" points="0,-296.5 0,-318.5 97,-318.5 97,-296.5 0,-296.5"/>
<text text-anchor="start" x="30.5" y="-302.2" font-family="Times New Roman,Times,Liberation Serif,serif" font-size="14.00">phases</text>
<polygon fill="none" stroke="black" points="97,-296.5 97,-318.5 281,-318.5 281,-296.5 97,-296.5"/>
<text text-anchor="start" x="160.5" y="-302.2" font-family="Times New Roman,Times,Liberation Serif,serif" font-size="14.00">list[Phase]</text>
<polygon fill="none" stroke="black" points="0,-274.5 0,-296.5 97,-296.5 97,-274.5 0,-274.5"/>
<text text-anchor="start" x="12.88" y="-280.2" font-family="Times New Roman,Times,Liberation Serif,serif" font-size="14.00">voltagelimits</text>
<polygon fill="none" stroke="black" points="97,-274.5 97,-296.5 281,-296.5 281,-274.5 97,-274.5"/>
<text text-anchor="start" x="131.62" y="-280.2" font-family="Times New Roman,Times,Liberation Serif,serif" font-size="14.00">list[VoltageLimitSet]</text>
<polygon fill="none" stroke="black" points="0,-252.5 0,-274.5 97,-274.5 97,-252.5 0,-252.5"/>
<text text-anchor="start" x="2.75" y="-258.2" font-family="Times New Roman,Times,Liberation Serif,serif" font-size="14.00">nominal_voltage</text>
<polygon fill="none" stroke="black" points="97,-252.5 97,-274.5 281,-274.5 281,-252.5 97,-252.5"/>
<text text-anchor="start" x="146.62" y="-258.2" font-family="Times New Roman,Times,Liberation Serif,serif" font-size="14.00">PositiveVoltage</text>
<polygon fill="none" stroke="black" points="0,-230.5 0,-252.5 97,-252.5 97,-230.5 0,-230.5"/>
<text text-anchor="start" x="20" y="-236.2" font-family="Times New Roman,Times,Liberation Serif,serif" font-size="14.00">coordinate</text>
<polygon fill="none" stroke="black" points="97,-230.5 97,-252.5 281,-252.5 281,-230.5 97,-230.5"/>
<text text-anchor="start" x="136.88" y="-236.2" font-family="Times New Roman,Times,Liberation Serif,serif" font-size="14.00">Optional[Location]</text>
</a>
</g>
</g>
<!-- gdm.distribution.components.distribution_feeder.DistributionFeeder -->
<g id="node2" class="node">
<title>gdm.distribution.components.distribution_feeder.DistributionFeeder</title>
<g id="a_node2"><a xlink:title="gdm.distribution.components.distribution_feeder.DistributionFeeder&#10;&#10;Class interface for distribution feeder.&#10;">
<polygon fill="none" stroke="black" points="675,-373.5 675,-395.5 791,-395.5 791,-373.5 675,-373.5"/>
<text text-anchor="start" x="677.88" y="-380.2" font-family="Times New Roman,Times,Liberation Serif,serif" font-weight="bold" font-size="14.00">DistributionFeeder</text>
<polygon fill="none" stroke="black" points="675,-351.5 675,-373.5 731,-373.5 731,-351.5 675,-351.5"/>
<text text-anchor="start" x="691" y="-357.2" font-family="Times New Roman,Times,Liberation Serif,serif" font-size="14.00">uuid</text>
<polygon fill="none" stroke="black" points="731,-351.5 731,-373.5 791,-373.5 791,-351.5 731,-351.5"/>
<text text-anchor="start" x="744.12" y="-357.2" font-family="Times New Roman,Times,Liberation Serif,serif" font-size="14.00">UUID</text>
<polygon fill="none" stroke="black" points="675,-329.5 675,-351.5 731,-351.5 731,-329.5 675,-329.5"/>
<text text-anchor="start" x="688" y="-335.2" font-family="Times New Roman,Times,Liberation Serif,serif" font-size="14.00">name</text>
<polygon fill="none" stroke="black" points="731,-329.5 731,-351.5 791,-351.5 791,-329.5 731,-329.5"/>
<text text-anchor="start" x="754.25" y="-335.2" font-family="Times New Roman,Times,Liberation Serif,serif" font-size="14.00">str</text>
</a>
</g>
</g>
<!-- gdm.distribution.components.distribution_bus.DistributionBus&#45;&gt;gdm.distribution.components.distribution_feeder.DistributionFeeder -->
<g id="edge1" class="edge">
<title>gdm.distribution.components.distribution_bus.DistributionBus:e&#45;&gt;gdm.distribution.components.distribution_feeder.DistributionFeeder:w</title>
<path fill="none" stroke="black" d="M290.9,-351.54C452.18,-352.7 499.17,-382.19 656.33,-384.37"/>
<polyline fill="none" stroke="black" points="281,-351.5 286,-351.52"/>
<polyline fill="none" stroke="black" points="286,-351.52 291,-351.54"/>
<polyline fill="none" stroke="black" points="675,-384.5 670,-384.47"/>
<polygon fill="black" stroke="black" points="669.03,-379.46 668.97,-389.46 666.97,-389.45 667.03,-379.45 669.03,-379.46"/>
<polyline fill="none" stroke="black" points="670,-384.47 665,-384.43"/>
<ellipse fill="none" stroke="black" cx="660.5" cy="-384.4" rx="4" ry="4"/>
</g>
<!-- gdm.distribution.components.distribution_substation.DistributionSubstation -->
<g id="node3" class="node">
<title>gdm.distribution.components.distribution_substation.DistributionSubstation</title>
<g id="a_node3"><a xlink:title="gdm.distribution.components.distribution_substation.DistributionSubstation&#10;&#10;Class interface for distribution feeder.&#10;">
<polygon fill="none" stroke="black" points="389,-472.5 389,-494.5 567,-494.5 567,-472.5 389,-472.5"/>
<text text-anchor="start" x="412" y="-479.2" font-family="Times New Roman,Times,Liberation Serif,serif" font-weight="bold" font-size="14.00">DistributionSubstation</text>
<polygon fill="none" stroke="black" points="389,-450.5 389,-472.5 434,-472.5 434,-450.5 389,-450.5"/>
<text text-anchor="start" x="399.5" y="-456.2" font-family="Times New Roman,Times,Liberation Serif,serif" font-size="14.00">uuid</text>
<polygon fill="none" stroke="black" points="434,-450.5 434,-472.5 567,-472.5 567,-450.5 434,-450.5"/>
<text text-anchor="start" x="483.62" y="-456.2" font-family="Times New Roman,Times,Liberation Serif,serif" font-size="14.00">UUID</text>
<polygon fill="none" stroke="black" points="389,-428.5 389,-450.5 434,-450.5 434,-428.5 389,-428.5"/>
<text text-anchor="start" x="396.5" y="-434.2" font-family="Times New Roman,Times,Liberation Serif,serif" font-size="14.00">name</text>
<polygon fill="none" stroke="black" points="434,-428.5 434,-450.5 567,-450.5 567,-428.5 434,-428.5"/>
<text text-anchor="start" x="493.75" y="-434.2" font-family="Times New Roman,Times,Liberation Serif,serif" font-size="14.00">str</text>
<polygon fill="none" stroke="black" points="389,-406.5 389,-428.5 434,-428.5 434,-406.5 389,-406.5"/>
<text text-anchor="start" x="392" y="-412.2" font-family="Times New Roman,Times,Liberation Serif,serif" font-size="14.00">feeders</text>
<polygon fill="none" stroke="black" points="434,-406.5 434,-428.5 567,-428.5 567,-406.5 434,-406.5"/>
<text text-anchor="start" x="436.75" y="-412.2" font-family="Times New Roman,Times,Liberation Serif,serif" font-size="14.00">list[DistributionFeeder]</text>
</a>
</g>
</g>
<!-- gdm.distribution.components.distribution_bus.DistributionBus&#45;&gt;gdm.distribution.components.distribution_substation.DistributionSubstation -->
<g id="edge2" class="edge">
<title>gdm.distribution.components.distribution_bus.DistributionBus:e&#45;&gt;gdm.distribution.components.distribution_substation.DistributionSubstation:w</title>
<path fill="none" stroke="black" d="M290.71,-374.32C340.57,-383.27 328.07,-462.54 370.32,-480.07"/>
<polyline fill="none" stroke="black" points="281,-373.5 285.98,-373.92"/>
<polyline fill="none" stroke="black" points="285.98,-373.92 290.96,-374.34"/>
<polyline fill="none" stroke="black" points="389,-483.5 384.08,-482.6"/>
<polygon fill="black" stroke="black" points="384,-477.5 382.2,-487.34 380.23,-486.98 382.03,-477.14 384,-477.5"/>
<polyline fill="none" stroke="black" points="384.08,-482.6 379.16,-481.7"/>
<ellipse fill="none" stroke="black" cx="374.74" cy="-480.88" rx="4" ry="4"/>
</g>
<!-- gdm.distribution.limitset.VoltageLimitSet -->
<g id="node4" class="node">
<title>gdm.distribution.limitset.VoltageLimitSet</title>
<g id="a_node4"><a xlink:title="gdm.distribution.limitset.VoltageLimitSet&#10;&#10;Interface for voltage limit set.&#10;">
<polygon fill="none" stroke="black" points="402,-274.5 402,-296.5 554,-296.5 554,-274.5 402,-274.5"/>
<text text-anchor="start" x="430.75" y="-281.2" font-family="Times New Roman,Times,Liberation Serif,serif" font-weight="bold" font-size="14.00">VoltageLimitSet</text>
<polygon fill="none" stroke="black" points="402,-252.5 402,-274.5 464,-274.5 464,-252.5 402,-252.5"/>
<text text-anchor="start" x="421" y="-258.2" font-family="Times New Roman,Times,Liberation Serif,serif" font-size="14.00">uuid</text>
<polygon fill="none" stroke="black" points="464,-252.5 464,-274.5 554,-274.5 554,-252.5 464,-252.5"/>
<text text-anchor="start" x="492.12" y="-258.2" font-family="Times New Roman,Times,Liberation Serif,serif" font-size="14.00">UUID</text>
<polygon fill="none" stroke="black" points="402,-230.5 402,-252.5 464,-252.5 464,-230.5 402,-230.5"/>
<text text-anchor="start" x="418" y="-236.2" font-family="Times New Roman,Times,Liberation Serif,serif" font-size="14.00">name</text>
<polygon fill="none" stroke="black" points="464,-230.5 464,-252.5 554,-252.5 554,-230.5 464,-230.5"/>
<text text-anchor="start" x="502.25" y="-236.2" font-family="Times New Roman,Times,Liberation Serif,serif" font-size="14.00">str</text>
<polygon fill="none" stroke="black" points="402,-208.5 402,-230.5 464,-230.5 464,-208.5 402,-208.5"/>
<text text-anchor="start" x="404.88" y="-214.2" font-family="Times New Roman,Times,Liberation Serif,serif" font-size="14.00">limit_type</text>
<polygon fill="none" stroke="black" points="464,-208.5 464,-230.5 554,-230.5 554,-208.5 464,-208.5"/>
<text text-anchor="start" x="480.12" y="-214.2" font-family="Times New Roman,Times,Liberation Serif,serif" font-size="14.00">LimitType</text>
<polygon fill="none" stroke="black" points="402,-186.5 402,-208.5 464,-208.5 464,-186.5 402,-186.5"/>
<text text-anchor="start" x="418.38" y="-192.2" font-family="Times New Roman,Times,Liberation Serif,serif" font-size="14.00">value</text>
<polygon fill="none" stroke="black" points="464,-186.5 464,-208.5 554,-208.5 554,-186.5 464,-186.5"/>
<text text-anchor="start" x="466.62" y="-192.2" font-family="Times New Roman,Times,Liberation Serif,serif" font-size="14.00">PositiveVoltage</text>
</a>
</g>
</g>
<!-- gdm.distribution.components.distribution_bus.DistributionBus&#45;&gt;gdm.distribution.limitset.VoltageLimitSet -->
<g id="edge3" class="edge">
<title>gdm.distribution.components.distribution_bus.DistributionBus:e&#45;&gt;gdm.distribution.limitset.VoltageLimitSet:w</title>
<path fill="none" stroke="black" d="M290.84,-285.5C330.9,-285.5 347.2,-285.5 384.8,-285.5"/>
<polyline fill="none" stroke="black" points="281,-285.5 286,-285.5"/>
<polyline fill="none" stroke="black" points="286,-285.5 291,-285.5"/>
<polygon fill="black" stroke="black" points="390.67,-285.5 400.67,-290 396,-285.5 400.33,-285.5 400.33,-285.5 400.33,-285.5 396,-285.5 400.67,-281 390.67,-285.5"/>
<polyline fill="none" stroke="black" points="389.45,-285.5 384.45,-285.5"/>
</g>
<!-- infrasys.location.Location -->
<g id="node5" class="node">
<title>infrasys.location.Location</title>
<g id="a_node5"><a xlink:title="infrasys.location.Location&#10;&#10;Specifies geographic location.&#10;">
<polygon fill="none" stroke="black" points="430.5,-128.5 430.5,-150.5 525.5,-150.5 525.5,-128.5 430.5,-128.5"/>
<text text-anchor="start" x="452.5" y="-135.2" font-family="Times New Roman,Times,Liberation Serif,serif" font-weight="bold" font-size="14.00">Location</text>
<polygon fill="none" stroke="black" points="430.5,-106.5 430.5,-128.5 466.5,-128.5 466.5,-106.5 430.5,-106.5"/>
<text text-anchor="start" x="436.5" y="-112.2" font-family="Times New Roman,Times,Liberation Serif,serif" font-size="14.00">uuid</text>
<polygon fill="none" stroke="black" points="466.5,-106.5 466.5,-128.5 525.5,-128.5 525.5,-106.5 466.5,-106.5"/>
<text text-anchor="start" x="479.12" y="-112.2" font-family="Times New Roman,Times,Liberation Serif,serif" font-size="14.00">UUID</text>
<polygon fill="none" stroke="black" points="430.5,-84.5 430.5,-106.5 466.5,-106.5 466.5,-84.5 430.5,-84.5"/>
<text text-anchor="start" x="433.5" y="-90.2" font-family="Times New Roman,Times,Liberation Serif,serif" font-size="14.00">name</text>
<polygon fill="none" stroke="black" points="466.5,-84.5 466.5,-106.5 525.5,-106.5 525.5,-84.5 466.5,-84.5"/>
<text text-anchor="start" x="489.25" y="-90.2" font-family="Times New Roman,Times,Liberation Serif,serif" font-size="14.00">str</text>
<polygon fill="none" stroke="black" points="430.5,-62.5 430.5,-84.5 466.5,-84.5 466.5,-62.5 430.5,-62.5"/>
<text text-anchor="start" x="445.12" y="-68.2" font-family="Times New Roman,Times,Liberation Serif,serif" font-size="14.00">x</text>
<polygon fill="none" stroke="black" points="466.5,-62.5 466.5,-84.5 525.5,-84.5 525.5,-62.5 466.5,-62.5"/>
<text text-anchor="start" x="483.62" y="-68.2" font-family="Times New Roman,Times,Liberation Serif,serif" font-size="14.00">float</text>
<polygon fill="none" stroke="black" points="430.5,-40.5 430.5,-62.5 466.5,-62.5 466.5,-40.5 430.5,-40.5"/>
<text text-anchor="start" x="445.12" y="-46.2" font-family="Times New Roman,Times,Liberation Serif,serif" font-size="14.00">y</text>
<polygon fill="none" stroke="black" points="466.5,-40.5 466.5,-62.5 525.5,-62.5 525.5,-40.5 466.5,-40.5"/>
<text text-anchor="start" x="483.62" y="-46.2" font-family="Times New Roman,Times,Liberation Serif,serif" font-size="14.00">float</text>
<polygon fill="none" stroke="black" points="430.5,-18.5 430.5,-40.5 466.5,-40.5 466.5,-18.5 430.5,-18.5"/>
<text text-anchor="start" x="440.62" y="-24.2" font-family="Times New Roman,Times,Liberation Serif,serif" font-size="14.00">crs</text>
<polygon fill="none" stroke="black" points="466.5,-18.5 466.5,-40.5 525.5,-40.5 525.5,-18.5 466.5,-18.5"/>
<text text-anchor="start" x="469.38" y="-24.2" font-family="Times New Roman,Times,Liberation Serif,serif" font-size="14.00">str | None</text>
</a>
</g>
</g>
<!-- gdm.distribution.components.distribution_bus.DistributionBus&#45;&gt;infrasys.location.Location -->
<g id="edge4" class="edge">
<title>gdm.distribution.components.distribution_bus.DistributionBus:e&#45;&gt;infrasys.location.Location:w</title>
<path fill="none" stroke="black" d="M290.8,-240.95C353.82,-233.64 353.27,-155.6 410.31,-141.63"/>
<polyline fill="none" stroke="black" points="281,-241.5 285.99,-241.22"/>
<polyline fill="none" stroke="black" points="285.99,-241.22 290.98,-240.94"/>
<polyline fill="none" stroke="black" points="429,-139.5 424.03,-140.07"/>
<polygon fill="black" stroke="black" points="422.47,-135.21 423.61,-145.15 421.62,-145.37 420.48,-135.44 422.47,-135.21"/>
<polyline fill="none" stroke="black" points="424.03,-140.07 419.06,-140.63"/>
<ellipse fill="none" stroke="black" cx="414.59" cy="-141.14" rx="4" ry="4"/>
</g>
<!-- gdm.distribution.components.distribution_substation.DistributionSubstation&#45;&gt;gdm.distribution.components.distribution_feeder.DistributionFeeder -->
<g id="edge5" class="edge">
<title>gdm.distribution.components.distribution_substation.DistributionSubstation:e&#45;&gt;gdm.distribution.components.distribution_feeder.DistributionFeeder:w</title>
<path fill="none" stroke="black" d="M576.99,-417.03C613.45,-413.51 625.49,-391.05 659.55,-385.66"/>
<polyline fill="none" stroke="black" points="567,-417.5 571.99,-417.27"/>
<polyline fill="none" stroke="black" points="571.99,-417.27 576.99,-417.03"/>
<polygon fill="black" stroke="black" points="664.69,-385.27 675,-389.01 670.01,-384.87 674.33,-384.55 674.33,-384.55 674.33,-384.55 670.01,-384.87 674.33,-380.04 664.69,-385.27"/>
<polyline fill="none" stroke="black" points="663.48,-385.37 658.49,-385.74"/>
</g>
</g>
</svg>
