<?xml version="1.0" encoding="UTF-8" standalone="no"?>
<!DOCTYPE svg PUBLIC "-//W3C//DTD SVG 1.1//EN"
 "http://www.w3.org/Graphics/SVG/1.1/DTD/svg11.dtd">
<!-- Generated by graphviz version 9.0.0 (0)
 -->
<!-- Title: Entity Relationship Diagram created by erdantic Pages: 1 -->
<svg width="599pt" height="445pt"
 viewBox="0.00 0.00 599.00 444.50" xmlns="http://www.w3.org/2000/svg" xmlns:xlink="http://www.w3.org/1999/xlink">
<g id="graph0" class="graph" transform="scale(1 1) rotate(0) translate(4 440.5)">
<title>Entity Relationship Diagram created by erdantic</title>
<polygon fill="white" stroke="none" points="-4,4 -4,-440.5 595,-440.5 595,4 -4,4"/>
<text text-anchor="middle" x="295.5" y="-5.95" font-family="Times New Roman,Times,Liberation Serif,serif" font-size="9.00" fill="#a8a8a8">Created by erdantic v0.6.0 &lt;https://github.com/drivendataorg/erdantic&gt;</text>
<!-- gdm.distribution.equipment.distribution_transformer_equipment.DistributionTransformerEquipment -->
<g id="node1" class="node">
<title>gdm.distribution.equipment.distribution_transformer_equipment.DistributionTransformerEquipment</title>
<g id="a_node1"><a xlink:title="gdm.distribution.equipment.distribution_transformer_equipment.DistributionTransformerEquipment&#10;&#10;Interface for distribution transformer info.&#10;">
<polygon fill="none" stroke="black" points="0,-414.5 0,-436.5 252,-436.5 252,-414.5 0,-414.5"/>
<text text-anchor="start" x="20.62" y="-421.2" font-family="Times New Roman,Times,Liberation Serif,serif" font-weight="bold" font-size="14.00">DistributionTransformerEquipment</text>
<polygon fill="none" stroke="black" points="0,-392.5 0,-414.5 114,-414.5 114,-392.5 0,-392.5"/>
<text text-anchor="start" x="45" y="-398.2" font-family="Times New Roman,Times,Liberation Serif,serif" font-size="14.00">uuid</text>
<polygon fill="none" stroke="black" points="114,-392.5 114,-414.5 252,-414.5 252,-392.5 114,-392.5"/>
<text text-anchor="start" x="166.12" y="-398.2" font-family="Times New Roman,Times,Liberation Serif,serif" font-size="14.00">UUID</text>
<polygon fill="none" stroke="black" points="0,-370.5 0,-392.5 114,-392.5 114,-370.5 0,-370.5"/>
<text text-anchor="start" x="42" y="-376.2" font-family="Times New Roman,Times,Liberation Serif,serif" font-size="14.00">name</text>
<polygon fill="none" stroke="black" points="114,-370.5 114,-392.5 252,-392.5 252,-370.5 114,-370.5"/>
<text text-anchor="start" x="176.25" y="-376.2" font-family="Times New Roman,Times,Liberation Serif,serif" font-size="14.00">str</text>
<polygon fill="none" stroke="black" points="0,-348.5 0,-370.5 114,-370.5 114,-348.5 0,-348.5"/>
<text text-anchor="start" x="9.75" y="-354.2" font-family="Times New Roman,Times,Liberation Serif,serif" font-size="14.00">pct_no_load_loss</text>
<polygon fill="none" stroke="black" points="114,-348.5 114,-370.5 252,-370.5 252,-348.5 114,-348.5"/>
<text text-anchor="start" x="170.62" y="-354.2" font-family="Times New Roman,Times,Liberation Serif,serif" font-size="14.00">float</text>
<polygon fill="none" stroke="black" points="0,-326.5 0,-348.5 114,-348.5 114,-326.5 0,-326.5"/>
<text text-anchor="start" x="7.12" y="-332.2" font-family="Times New Roman,Times,Liberation Serif,serif" font-size="14.00">pct_full_load_loss</text>
<polygon fill="none" stroke="black" points="114,-326.5 114,-348.5 252,-348.5 252,-326.5 114,-326.5"/>
<text text-anchor="start" x="170.62" y="-332.2" font-family="Times New Roman,Times,Liberation Serif,serif" font-size="14.00">float</text>
<polygon fill="none" stroke="black" points="0,-304.5 0,-326.5 114,-326.5 114,-304.5 0,-304.5"/>
<text text-anchor="start" x="32.25" y="-310.2" font-family="Times New Roman,Times,Liberation Serif,serif" font-size="14.00">windings</text>
<polygon fill="none" stroke="black" points="114,-304.5 114,-326.5 252,-326.5 252,-304.5 114,-304.5"/>
<text text-anchor="start" x="116.62" y="-310.2" font-family="Times New Roman,Times,Liberation Serif,serif" font-size="14.00">list[WindingEquipment]</text>
<polygon fill="none" stroke="black" points="0,-282.5 0,-304.5 114,-304.5 114,-282.5 0,-282.5"/>
<text text-anchor="start" x="2.62" y="-288.2" font-family="Times New Roman,Times,Liberation Serif,serif" font-size="14.00">coupling_sequences</text>
<polygon fill="none" stroke="black" points="114,-282.5 114,-304.5 252,-304.5 252,-282.5 114,-282.5"/>
<text text-anchor="start" x="133.5" y="-288.2" font-family="Times New Roman,Times,Liberation Serif,serif" font-size="14.00">list[SequencePair]</text>
<polygon fill="none" stroke="black" points="0,-260.5 0,-282.5 114,-282.5 114,-260.5 0,-260.5"/>
<text text-anchor="start" x="3.38" y="-266.2" font-family="Times New Roman,Times,Liberation Serif,serif" font-size="14.00">winding_reactances</text>
<polygon fill="none" stroke="black" points="114,-260.5 114,-282.5 252,-282.5 252,-260.5 114,-260.5"/>
<text text-anchor="start" x="157.88" y="-266.2" font-family="Times New Roman,Times,Liberation Serif,serif" font-size="14.00">list[float]</text>
<polygon fill="none" stroke="black" points="0,-238.5 0,-260.5 114,-260.5 114,-238.5 0,-238.5"/>
<text text-anchor="start" x="11.25" y="-244.2" font-family="Times New Roman,Times,Liberation Serif,serif" font-size="14.00">is_center_tapped</text>
<polygon fill="none" stroke="black" points="114,-238.5 114,-260.5 252,-260.5 252,-238.5 114,-238.5"/>
<text text-anchor="start" x="171" y="-244.2" font-family="Times New Roman,Times,Liberation Serif,serif" font-size="14.00">bool</text>
</a>
</g>
</g>
<!-- gdm.distribution.equipment.distribution_transformer_equipment.WindingEquipment -->
<g id="node2" class="node">
<title>gdm.distribution.equipment.distribution_transformer_equipment.WindingEquipment</title>
<g id="a_node2"><a xlink:title="gdm.distribution.equipment.distribution_transformer_equipment.WindingEquipment&#10;&#10;Interface for winding.&#10;">
<polygon fill="none" stroke="black" points="360,-304.5 360,-326.5 591,-326.5 591,-304.5 360,-304.5"/>
<text text-anchor="start" x="417.75" y="-311.2" font-family="Times New Roman,Times,Liberation Serif,serif" font-weight="bold" font-size="14.00">WindingEquipment</text>
<polygon fill="none" stroke="black" points="360,-282.5 360,-304.5 457,-304.5 457,-282.5 360,-282.5"/>
<text text-anchor="start" x="396.5" y="-288.2" font-family="Times New Roman,Times,Liberation Serif,serif" font-size="14.00">uuid</text>
<polygon fill="none" stroke="black" points="457,-282.5 457,-304.5 591,-304.5 591,-282.5 457,-282.5"/>
<text text-anchor="start" x="507.12" y="-288.2" font-family="Times New Roman,Times,Liberation Serif,serif" font-size="14.00">UUID</text>
<polygon fill="none" stroke="black" points="360,-260.5 360,-282.5 457,-282.5 457,-260.5 360,-260.5"/>
<text text-anchor="start" x="393.5" y="-266.2" font-family="Times New Roman,Times,Liberation Serif,serif" font-size="14.00">name</text>
<polygon fill="none" stroke="black" points="457,-260.5 457,-282.5 591,-282.5 591,-260.5 457,-260.5"/>
<text text-anchor="start" x="517.25" y="-266.2" font-family="Times New Roman,Times,Liberation Serif,serif" font-size="14.00">str</text>
<polygon fill="none" stroke="black" points="360,-238.5 360,-260.5 457,-260.5 457,-238.5 360,-238.5"/>
<text text-anchor="start" x="381.88" y="-244.2" font-family="Times New Roman,Times,Liberation Serif,serif" font-size="14.00">resistance</text>
<polygon fill="none" stroke="black" points="457,-238.5 457,-260.5 591,-260.5 591,-238.5 457,-238.5"/>
<text text-anchor="start" x="511.62" y="-244.2" font-family="Times New Roman,Times,Liberation Serif,serif" font-size="14.00">float</text>
<polygon fill="none" stroke="black" points="360,-216.5 360,-238.5 457,-238.5 457,-216.5 360,-216.5"/>
<text text-anchor="start" x="375.12" y="-222.2" font-family="Times New Roman,Times,Liberation Serif,serif" font-size="14.00">is_grounded</text>
<polygon fill="none" stroke="black" points="457,-216.5 457,-238.5 591,-238.5 591,-216.5 457,-216.5"/>
<text text-anchor="start" x="512" y="-222.2" font-family="Times New Roman,Times,Liberation Serif,serif" font-size="14.00">bool</text>
<polygon fill="none" stroke="black" points="360,-194.5 360,-216.5 457,-216.5 457,-194.5 360,-194.5"/>
<text text-anchor="start" x="362.75" y="-200.2" font-family="Times New Roman,Times,Liberation Serif,serif" font-size="14.00">nominal_voltage</text>
<polygon fill="none" stroke="black" points="457,-194.5 457,-216.5 591,-216.5 591,-194.5 457,-194.5"/>
<text text-anchor="start" x="481.62" y="-200.2" font-family="Times New Roman,Times,Liberation Serif,serif" font-size="14.00">PositiveVoltage</text>
<polygon fill="none" stroke="black" points="360,-172.5 360,-194.5 457,-194.5 457,-172.5 360,-172.5"/>
<text text-anchor="start" x="373.62" y="-178.2" font-family="Times New Roman,Times,Liberation Serif,serif" font-size="14.00">voltage_type</text>
<polygon fill="none" stroke="black" points="457,-172.5 457,-194.5 591,-194.5 591,-172.5 457,-172.5"/>
<text text-anchor="start" x="487.25" y="-178.2" font-family="Times New Roman,Times,Liberation Serif,serif" font-size="14.00">VoltageTypes</text>
<polygon fill="none" stroke="black" points="360,-150.5 360,-172.5 457,-172.5 457,-150.5 360,-150.5"/>
<text text-anchor="start" x="374.75" y="-156.2" font-family="Times New Roman,Times,Liberation Serif,serif" font-size="14.00">rated_power</text>
<polygon fill="none" stroke="black" points="457,-150.5 457,-172.5 591,-172.5 591,-150.5 457,-150.5"/>
<text text-anchor="start" x="459.88" y="-156.2" font-family="Times New Roman,Times,Liberation Serif,serif" font-size="14.00">PositiveApparentPower</text>
<polygon fill="none" stroke="black" points="360,-128.5 360,-150.5 457,-150.5 457,-128.5 360,-128.5"/>
<text text-anchor="start" x="374.75" y="-134.2" font-family="Times New Roman,Times,Liberation Serif,serif" font-size="14.00">num_phases</text>
<polygon fill="none" stroke="black" points="457,-128.5 457,-150.5 591,-150.5 591,-128.5 457,-128.5"/>
<text text-anchor="start" x="516.88" y="-134.2" font-family="Times New Roman,Times,Liberation Serif,serif" font-size="14.00">int</text>
<polygon fill="none" stroke="black" points="360,-106.5 360,-128.5 457,-128.5 457,-106.5 360,-106.5"/>
<text text-anchor="start" x="363.88" y="-112.2" font-family="Times New Roman,Times,Liberation Serif,serif" font-size="14.00">connection_type</text>
<polygon fill="none" stroke="black" points="457,-106.5 457,-128.5 591,-128.5 591,-106.5 457,-106.5"/>
<text text-anchor="start" x="479.38" y="-112.2" font-family="Times New Roman,Times,Liberation Serif,serif" font-size="14.00">ConnectionType</text>
<polygon fill="none" stroke="black" points="360,-84.5 360,-106.5 457,-106.5 457,-84.5 360,-84.5"/>
<text text-anchor="start" x="372.5" y="-90.2" font-family="Times New Roman,Times,Liberation Serif,serif" font-size="14.00">tap_positions</text>
<polygon fill="none" stroke="black" points="457,-84.5 457,-106.5 591,-106.5 591,-84.5 457,-84.5"/>
<text text-anchor="start" x="498.88" y="-90.2" font-family="Times New Roman,Times,Liberation Serif,serif" font-size="14.00">list[float]</text>
<polygon fill="none" stroke="black" points="360,-62.5 360,-84.5 457,-84.5 457,-62.5 360,-62.5"/>
<text text-anchor="start" x="382.25" y="-68.2" font-family="Times New Roman,Times,Liberation Serif,serif" font-size="14.00">total_taps</text>
<polygon fill="none" stroke="black" points="457,-62.5 457,-84.5 591,-84.5 591,-62.5 457,-62.5"/>
<text text-anchor="start" x="516.88" y="-68.2" font-family="Times New Roman,Times,Liberation Serif,serif" font-size="14.00">int</text>
<polygon fill="none" stroke="black" points="360,-40.5 360,-62.5 457,-62.5 457,-40.5 360,-40.5"/>
<text text-anchor="start" x="375.88" y="-46.2" font-family="Times New Roman,Times,Liberation Serif,serif" font-size="14.00">min_tap_pu</text>
<polygon fill="none" stroke="black" points="457,-40.5 457,-62.5 591,-62.5 591,-40.5 457,-40.5"/>
<text text-anchor="start" x="511.62" y="-46.2" font-family="Times New Roman,Times,Liberation Serif,serif" font-size="14.00">float</text>
<polygon fill="none" stroke="black" points="360,-18.5 360,-40.5 457,-40.5 457,-18.5 360,-18.5"/>
<text text-anchor="start" x="374.75" y="-24.2" font-family="Times New Roman,Times,Liberation Serif,serif" font-size="14.00">max_tap_pu</text>
<polygon fill="none" stroke="black" points="457,-18.5 457,-40.5 591,-40.5 591,-18.5 457,-18.5"/>
<text text-anchor="start" x="511.62" y="-24.2" font-family="Times New Roman,Times,Liberation Serif,serif" font-size="14.00">float</text>
</a>
</g>
</g>
<!-- gdm.distribution.equipment.distribution_transformer_equipment.DistributionTransformerEquipment&#45;&gt;gdm.distribution.equipment.distribution_transformer_equipment.WindingEquipment -->
<g id="edge1" class="edge">
<title>gdm.distribution.equipment.distribution_transformer_equipment.DistributionTransformerEquipment:e&#45;&gt;gdm.distribution.equipment.distribution_transformer_equipment.WindingEquipment:w</title>
<path fill="none" stroke="black" d="M261.87,-315.5C296.76,-315.5 311.54,-315.5 344.2,-315.5"/>
<polyline fill="none" stroke="black" points="252,-315.5 257,-315.5"/>
<polyline fill="none" stroke="black" points="257,-315.5 262,-315.5"/>
<polygon fill="black" stroke="black" points="349.67,-315.5 359.67,-320 355,-315.5 359.33,-315.5 359.33,-315.5 359.33,-315.5 355,-315.5 359.67,-311 349.67,-315.5"/>
<polyline fill="none" stroke="black" points="348.45,-315.5 343.45,-315.5"/>
</g>
</g>
</svg>
