<?xml version="1.0" encoding="UTF-8" standalone="no"?>
<!DOCTYPE svg PUBLIC "-//W3C//DTD SVG 1.1//EN"
 "http://www.w3.org/Graphics/SVG/1.1/DTD/svg11.dtd">
<!-- Generated by graphviz version 9.0.0 (0)
 -->
<!-- Title: Entity Relationship Diagram created by erdantic Pages: 1 -->
<svg width="275pt" height="159pt"
 viewBox="0.00 0.00 274.50 158.50" xmlns="http://www.w3.org/2000/svg" xmlns:xlink="http://www.w3.org/1999/xlink">
<g id="graph0" class="graph" transform="scale(1 1) rotate(0) translate(4 154.5)">
<title>Entity Relationship Diagram created by erdantic</title>
<polygon fill="white" stroke="none" points="-4,4 -4,-154.5 270.5,-154.5 270.5,4 -4,4"/>
<text text-anchor="middle" x="133.25" y="-5.95" font-family="Times New Roman,Times,Liberation Serif,serif" font-size="9.00" fill="#a8a8a8">Created by erdantic v0.6.0 &lt;https://github.com/drivendataorg/erdantic&gt;</text>
<!-- gdm.distribution.controllers.distribution_switch_controller.DistributionSwitchController -->
<g id="node1" class="node">
<title>gdm.distribution.controllers.distribution_switch_controller.DistributionSwitchController</title>
<g id="a_node1"><a xlink:title="gdm.distribution.controllers.distribution_switch_controller.DistributionSwitchController&#10;&#10;Interface for distribution switch controller.&#10;">
<polygon fill="none" stroke="black" points="34.75,-128.5 34.75,-150.5 231.75,-150.5 231.75,-128.5 34.75,-128.5"/>
<text text-anchor="start" x="48.12" y="-135.2" font-family="Times New Roman,Times,Liberation Serif,serif" font-weight="bold" font-size="14.00">DistributionSwitchController</text>
<polygon fill="none" stroke="black" points="34.75,-106.5 34.75,-128.5 110.75,-128.5 110.75,-106.5 34.75,-106.5"/>
<text text-anchor="start" x="60.75" y="-112.2" font-family="Times New Roman,Times,Liberation Serif,serif" font-size="14.00">uuid</text>
<polygon fill="none" stroke="black" points="110.75,-106.5 110.75,-128.5 231.75,-128.5 231.75,-106.5 110.75,-106.5"/>
<text text-anchor="start" x="154.38" y="-112.2" font-family="Times New Roman,Times,Liberation Serif,serif" font-size="14.00">UUID</text>
<polygon fill="none" stroke="black" points="34.75,-84.5 34.75,-106.5 110.75,-106.5 110.75,-84.5 34.75,-84.5"/>
<text text-anchor="start" x="57.75" y="-90.2" font-family="Times New Roman,Times,Liberation Serif,serif" font-size="14.00">name</text>
<polygon fill="none" stroke="black" points="110.75,-84.5 110.75,-106.5 231.75,-106.5 231.75,-84.5 110.75,-84.5"/>
<text text-anchor="start" x="164.5" y="-90.2" font-family="Times New Roman,Times,Liberation Serif,serif" font-size="14.00">str</text>
<polygon fill="none" stroke="black" points="34.75,-62.5 34.75,-84.5 110.75,-84.5 110.75,-62.5 34.75,-62.5"/>
<text text-anchor="start" x="58.12" y="-68.2" font-family="Times New Roman,Times,Liberation Serif,serif" font-size="14.00">delay</text>
<polygon fill="none" stroke="black" points="110.75,-62.5 110.75,-84.5 231.75,-84.5 231.75,-62.5 110.75,-62.5"/>
<text text-anchor="start" x="156.62" y="-68.2" font-family="Times New Roman,Times,Liberation Serif,serif" font-size="14.00">Time</text>
<polygon fill="none" stroke="black" points="34.75,-40.5 34.75,-62.5 110.75,-62.5 110.75,-40.5 34.75,-40.5"/>
<text text-anchor="start" x="37.5" y="-46.2" font-family="Times New Roman,Times,Liberation Serif,serif" font-size="14.00">normal_state</text>
<polygon fill="none" stroke="black" points="110.75,-40.5 110.75,-62.5 231.75,-62.5 231.75,-40.5 110.75,-40.5"/>
<text text-anchor="start" x="113.5" y="-46.2" font-family="Times New Roman,Times,Liberation Serif,serif" font-size="14.00">Literal[&#39;open&#39;, &#39;close&#39;]</text>
<polygon fill="none" stroke="black" points="34.75,-18.5 34.75,-40.5 110.75,-40.5 110.75,-18.5 34.75,-18.5"/>
<text text-anchor="start" x="46.88" y="-24.2" font-family="Times New Roman,Times,Liberation Serif,serif" font-size="14.00">is_locked</text>
<polygon fill="none" stroke="black" points="110.75,-18.5 110.75,-40.5 231.75,-40.5 231.75,-18.5 110.75,-18.5"/>
<text text-anchor="start" x="159.25" y="-24.2" font-family="Times New Roman,Times,Liberation Serif,serif" font-size="14.00">bool</text>
</a>
</g>
</g>
</g>
</svg>
