<?xml version="1.0" encoding="UTF-8" standalone="no"?>
<!DOCTYPE svg PUBLIC "-//W3C//DTD SVG 1.1//EN"
 "http://www.w3.org/Graphics/SVG/1.1/DTD/svg11.dtd">
<!-- Generated by graphviz version 12.2.1 (20241206.2353)
 -->
<!-- Title: Entity Relationship Diagram created by erdantic Pages: 1 -->
<svg width="764pt" height="206pt"
 viewBox="0.00 0.00 764.00 205.50" xmlns="http://www.w3.org/2000/svg" xmlns:xlink="http://www.w3.org/1999/xlink">
<g id="graph0" class="graph" transform="scale(1 1) rotate(0) translate(4 201.5)">
<title>Entity Relationship Diagram created by erdantic</title>
<polygon fill="white" stroke="none" points="-4,4 -4,-201.5 760,-201.5 760,4 -4,4"/>
<text text-anchor="middle" x="378" y="-5.95" font-family="Times New Roman,Times,Liberation Serif,serif" font-size="9.00" fill="#a8a8a8">Created by erdantic v1.0.5 &lt;https://github.com/drivendataorg/erdantic&gt;</text>
<!-- gdm.distribution.components.base.distribution_component_base.DistributionComponentBase -->
<g id="node1" class="node">
<title>gdm.distribution.components.base.distribution_component_base.DistributionComponentBase</title>
<g id="a_node1"><a xlink:title="gdm.distribution.components.base.distribution_component_base.DistributionComponentBase&#10;&#10;Data model for simple distribution component.&#10;">
<polygon fill="none" stroke="black" points="0,-175 0,-197.5 245.25,-197.5 245.25,-175 0,-175"/>
<text text-anchor="start" x="39.75" y="-182.2" font-family="Times New Roman,Times,Liberation Serif,serif" font-weight="bold" font-size="14.00">DistributionComponentBase</text>
<polygon fill="none" stroke="black" points="0,-152.5 0,-175 60.75,-175 60.75,-152.5 0,-152.5"/>
<text text-anchor="start" x="18.38" y="-158.7" font-family="Times New Roman,Times,Liberation Serif,serif" font-size="14.00">uuid</text>
<polygon fill="none" stroke="black" points="60.75,-152.5 60.75,-175 245.25,-175 245.25,-152.5 60.75,-152.5"/>
<text text-anchor="start" x="136.12" y="-158.7" font-family="Times New Roman,Times,Liberation Serif,serif" font-size="14.00">UUID</text>
<polygon fill="none" stroke="black" points="0,-130 0,-152.5 60.75,-152.5 60.75,-130 0,-130"/>
<text text-anchor="start" x="15.38" y="-136.2" font-family="Times New Roman,Times,Liberation Serif,serif" font-size="14.00">name</text>
<polygon fill="none" stroke="black" points="60.75,-130 60.75,-152.5 245.25,-152.5 245.25,-130 60.75,-130"/>
<text text-anchor="start" x="146.25" y="-136.2" font-family="Times New Roman,Times,Liberation Serif,serif" font-size="14.00">str</text>
<polygon fill="none" stroke="black" points="0,-107.5 0,-130 60.75,-130 60.75,-107.5 0,-107.5"/>
<text text-anchor="start" x="3" y="-113.7" font-family="Times New Roman,Times,Liberation Serif,serif" font-size="14.00">substation</text>
<polygon fill="none" stroke="black" points="60.75,-107.5 60.75,-130 245.25,-130 245.25,-107.5 60.75,-107.5"/>
<text text-anchor="start" x="63.75" y="-113.7" font-family="Times New Roman,Times,Liberation Serif,serif" font-size="14.00">Optional[DistributionSubstation]</text>
<polygon fill="none" stroke="black" points="0,-85 0,-107.5 60.75,-107.5 60.75,-85 0,-85"/>
<text text-anchor="start" x="13.5" y="-91.2" font-family="Times New Roman,Times,Liberation Serif,serif" font-size="14.00">feeder</text>
<polygon fill="none" stroke="black" points="60.75,-85 60.75,-107.5 245.25,-107.5 245.25,-85 60.75,-85"/>
<text text-anchor="start" x="73.88" y="-91.2" font-family="Times New Roman,Times,Liberation Serif,serif" font-size="14.00">Optional[DistributionFeeder]</text>
</a>
</g>
</g>
<!-- gdm.distribution.components.distribution_feeder.DistributionFeeder -->
<g id="node2" class="node">
<title>gdm.distribution.components.distribution_feeder.DistributionFeeder</title>
<g id="a_node2"><a xlink:title="gdm.distribution.components.distribution_feeder.DistributionFeeder&#10;&#10;Class interface for distribution feeder.&#10;">
<polygon fill="none" stroke="black" points="639.75,-63.5 639.75,-86 756,-86 756,-63.5 639.75,-63.5"/>
<text text-anchor="start" x="642.75" y="-70.7" font-family="Times New Roman,Times,Liberation Serif,serif" font-weight="bold" font-size="14.00">DistributionFeeder</text>
<polygon fill="none" stroke="black" points="639.75,-41 639.75,-63.5 696,-63.5 696,-41 639.75,-41"/>
<text text-anchor="start" x="655.88" y="-47.2" font-family="Times New Roman,Times,Liberation Serif,serif" font-size="14.00">uuid</text>
<polygon fill="none" stroke="black" points="696,-41 696,-63.5 756,-63.5 756,-41 696,-41"/>
<text text-anchor="start" x="709.12" y="-47.2" font-family="Times New Roman,Times,Liberation Serif,serif" font-size="14.00">UUID</text>
<polygon fill="none" stroke="black" points="639.75,-18.5 639.75,-41 696,-41 696,-18.5 639.75,-18.5"/>
<text text-anchor="start" x="652.88" y="-24.7" font-family="Times New Roman,Times,Liberation Serif,serif" font-size="14.00">name</text>
<polygon fill="none" stroke="black" points="696,-18.5 696,-41 756,-41 756,-18.5 696,-18.5"/>
<text text-anchor="start" x="719.25" y="-24.7" font-family="Times New Roman,Times,Liberation Serif,serif" font-size="14.00">str</text>
</a>
</g>
</g>
<!-- gdm.distribution.components.base.distribution_component_base.DistributionComponentBase&#45;&gt;gdm.distribution.components.distribution_feeder.DistributionFeeder -->
<g id="edge1" class="edge">
<title>gdm.distribution.components.base.distribution_component_base.DistributionComponentBase:e&#45;&gt;gdm.distribution.components.distribution_feeder.DistributionFeeder:w</title>
<path fill="none" stroke="black" d="M255.24,-96.04C295.68,-94.32 308.28,-82.25 353.25,-78.25 473.65,-67.54 508.88,-74.01 621.06,-74.69"/>
<polyline fill="none" stroke="black" points="245.25,-96.25 250.25,-96.15"/>
<polyline fill="none" stroke="black" points="250.25,-96.15 255.25,-96.04"/>
<polyline fill="none" stroke="black" points="639.75,-74.75 634.75,-74.73"/>
<polygon fill="black" stroke="black" points="633.77,-69.73 633.73,-79.73 631.73,-79.73 631.77,-69.73 633.77,-69.73"/>
<polyline fill="none" stroke="black" points="634.75,-74.73 629.75,-74.72"/>
<ellipse fill="none" stroke="black" cx="625.25" cy="-74.71" rx="4" ry="4"/>
</g>
<!-- gdm.distribution.components.distribution_substation.DistributionSubstation -->
<g id="node3" class="node">
<title>gdm.distribution.components.distribution_substation.DistributionSubstation</title>
<g id="a_node3"><a xlink:title="gdm.distribution.components.distribution_substation.DistributionSubstation&#10;&#10;Class interface for distribution feeder.&#10;">
<polygon fill="none" stroke="black" points="353.25,-163.75 353.25,-186.25 531.75,-186.25 531.75,-163.75 353.25,-163.75"/>
<text text-anchor="start" x="376.5" y="-170.95" font-family="Times New Roman,Times,Liberation Serif,serif" font-weight="bold" font-size="14.00">DistributionSubstation</text>
<polygon fill="none" stroke="black" points="353.25,-141.25 353.25,-163.75 398.25,-163.75 398.25,-141.25 353.25,-141.25"/>
<text text-anchor="start" x="363.75" y="-147.45" font-family="Times New Roman,Times,Liberation Serif,serif" font-size="14.00">uuid</text>
<polygon fill="none" stroke="black" points="398.25,-141.25 398.25,-163.75 531.75,-163.75 531.75,-141.25 398.25,-141.25"/>
<text text-anchor="start" x="448.12" y="-147.45" font-family="Times New Roman,Times,Liberation Serif,serif" font-size="14.00">UUID</text>
<polygon fill="none" stroke="black" points="353.25,-118.75 353.25,-141.25 398.25,-141.25 398.25,-118.75 353.25,-118.75"/>
<text text-anchor="start" x="360.75" y="-124.95" font-family="Times New Roman,Times,Liberation Serif,serif" font-size="14.00">name</text>
<polygon fill="none" stroke="black" points="398.25,-118.75 398.25,-141.25 531.75,-141.25 531.75,-118.75 398.25,-118.75"/>
<text text-anchor="start" x="458.25" y="-124.95" font-family="Times New Roman,Times,Liberation Serif,serif" font-size="14.00">str</text>
<polygon fill="none" stroke="black" points="353.25,-96.25 353.25,-118.75 398.25,-118.75 398.25,-96.25 353.25,-96.25"/>
<text text-anchor="start" x="356.25" y="-102.45" font-family="Times New Roman,Times,Liberation Serif,serif" font-size="14.00">feeders</text>
<polygon fill="none" stroke="black" points="398.25,-96.25 398.25,-118.75 531.75,-118.75 531.75,-96.25 398.25,-96.25"/>
<text text-anchor="start" x="401.25" y="-102.45" font-family="Times New Roman,Times,Liberation Serif,serif" font-size="14.00">list[DistributionFeeder]</text>
</a>
</g>
</g>
<!-- gdm.distribution.components.base.distribution_component_base.DistributionComponentBase&#45;&gt;gdm.distribution.components.distribution_substation.DistributionSubstation -->
<g id="edge2" class="edge">
<title>gdm.distribution.components.base.distribution_component_base.DistributionComponentBase:e&#45;&gt;gdm.distribution.components.distribution_substation.DistributionSubstation:w</title>
<path fill="none" stroke="black" d="M255.07,-119.42C293.31,-124.87 300.94,-162 334.46,-172.34"/>
<polyline fill="none" stroke="black" points="245.25,-118.75 250.24,-119.09"/>
<polyline fill="none" stroke="black" points="250.24,-119.09 255.23,-119.43"/>
<polyline fill="none" stroke="black" points="353.25,-175 348.3,-174.3"/>
<polygon fill="black" stroke="black" points="348.01,-169.21 346.61,-179.11 344.63,-178.83 346.03,-168.93 348.01,-169.21"/>
<polyline fill="none" stroke="black" points="348.3,-174.3 343.35,-173.6"/>
<ellipse fill="none" stroke="black" cx="338.89" cy="-172.96" rx="4" ry="4"/>
</g>
<!-- gdm.distribution.components.distribution_substation.DistributionSubstation&#45;&gt;gdm.distribution.components.distribution_feeder.DistributionFeeder -->
<g id="edge3" class="edge">
<title>gdm.distribution.components.distribution_substation.DistributionSubstation:e&#45;&gt;gdm.distribution.components.distribution_feeder.DistributionFeeder:w</title>
<path fill="none" stroke="black" d="M541.73,-107.04C578.34,-103.52 590.36,-81.05 624.76,-75.83"/>
<polyline fill="none" stroke="black" points="531.75,-107.5 536.74,-107.27"/>
<polyline fill="none" stroke="black" points="536.74,-107.27 541.74,-107.04"/>
<polygon fill="black" stroke="black" points="629.44,-75.49 639.74,-79.26 634.76,-75.11 639.08,-74.8 639.08,-74.8 639.08,-74.8 634.76,-75.11 639.09,-70.29 629.44,-75.49"/>
<polyline fill="none" stroke="black" points="628.23,-75.58 623.24,-75.94"/>
</g>
</g>
</svg>
