<?xml version="1.0" encoding="UTF-8" standalone="no"?>
<!DOCTYPE svg PUBLIC "-//W3C//DTD SVG 1.1//EN"
 "http://www.w3.org/Graphics/SVG/1.1/DTD/svg11.dtd">
<!-- Generated by graphviz version 12.2.1 (20241206.2353)
 -->
<!-- Title: Entity Relationship Diagram created by erdantic Pages: 1 -->
<svg width="1141pt" height="891pt"
 viewBox="0.00 0.00 1141.25 890.50" xmlns="http://www.w3.org/2000/svg" xmlns:xlink="http://www.w3.org/1999/xlink">
<g id="graph0" class="graph" transform="scale(1 1) rotate(0) translate(4 886.5)">
<title>Entity Relationship Diagram created by erdantic</title>
<polygon fill="white" stroke="none" points="-4,4 -4,-886.5 1137.25,-886.5 1137.25,4 -4,4"/>
<text text-anchor="middle" x="566.62" y="-5.95" font-family="Times New Roman,Times,Liberation Serif,serif" font-size="9.00" fill="#a8a8a8">Created by erdantic v1.0.5 &lt;https://github.com/drivendataorg/erdantic&gt;</text>
<!-- gdm.distribution.common.limitset.VoltageLimitSet -->
<g id="node1" class="node">
<title>gdm.distribution.common.limitset.VoltageLimitSet</title>
<g id="a_node1"><a xlink:title="gdm.distribution.common.limitset.VoltageLimitSet&#10;&#10;Data model for voltage limit set.&#10;">
<polygon fill="none" stroke="black" points="742.12,-586.25 742.12,-608.75 895.12,-608.75 895.12,-586.25 742.12,-586.25"/>
<text text-anchor="start" x="771.38" y="-593.45" font-family="Times New Roman,Times,Liberation Serif,serif" font-weight="bold" font-size="14.00">VoltageLimitSet</text>
<polygon fill="none" stroke="black" points="742.12,-563.75 742.12,-586.25 804.38,-586.25 804.38,-563.75 742.12,-563.75"/>
<text text-anchor="start" x="761.25" y="-569.95" font-family="Times New Roman,Times,Liberation Serif,serif" font-size="14.00">uuid</text>
<polygon fill="none" stroke="black" points="804.38,-563.75 804.38,-586.25 895.12,-586.25 895.12,-563.75 804.38,-563.75"/>
<text text-anchor="start" x="832.88" y="-569.95" font-family="Times New Roman,Times,Liberation Serif,serif" font-size="14.00">UUID</text>
<polygon fill="none" stroke="black" points="742.12,-541.25 742.12,-563.75 804.38,-563.75 804.38,-541.25 742.12,-541.25"/>
<text text-anchor="start" x="758.25" y="-547.45" font-family="Times New Roman,Times,Liberation Serif,serif" font-size="14.00">name</text>
<polygon fill="none" stroke="black" points="804.38,-541.25 804.38,-563.75 895.12,-563.75 895.12,-541.25 804.38,-541.25"/>
<text text-anchor="start" x="843" y="-547.45" font-family="Times New Roman,Times,Liberation Serif,serif" font-size="14.00">str</text>
<polygon fill="none" stroke="black" points="742.12,-518.75 742.12,-541.25 804.38,-541.25 804.38,-518.75 742.12,-518.75"/>
<text text-anchor="start" x="745.12" y="-524.95" font-family="Times New Roman,Times,Liberation Serif,serif" font-size="14.00">limit_type</text>
<polygon fill="none" stroke="black" points="804.38,-518.75 804.38,-541.25 895.12,-541.25 895.12,-518.75 804.38,-518.75"/>
<text text-anchor="start" x="820.5" y="-524.95" font-family="Times New Roman,Times,Liberation Serif,serif" font-size="14.00">LimitType</text>
<polygon fill="none" stroke="black" points="742.12,-496.25 742.12,-518.75 804.38,-518.75 804.38,-496.25 742.12,-496.25"/>
<text text-anchor="start" x="758.62" y="-502.45" font-family="Times New Roman,Times,Liberation Serif,serif" font-size="14.00">value</text>
<polygon fill="none" stroke="black" points="804.38,-496.25 804.38,-518.75 895.12,-518.75 895.12,-496.25 804.38,-496.25"/>
<text text-anchor="start" x="807.38" y="-502.45" font-family="Times New Roman,Times,Liberation Serif,serif" font-size="14.00">PositiveVoltage</text>
</a>
</g>
</g>
<!-- gdm.distribution.components.distribution_bus.DistributionBus -->
<g id="node2" class="node">
<title>gdm.distribution.components.distribution_bus.DistributionBus</title>
<g id="a_node2"><a xlink:title="gdm.distribution.components.distribution_bus.DistributionBus&#10;&#10;Data model for distribution bus.&#10;&#10;Examples:&#10; &#160;&#160;&#160;&gt;&gt;&gt; from gdm import DistributionBus&#10; &#160;&#160;&#160;&gt;&gt;&gt; DistributionBus.example()&#10;">
<polygon fill="none" stroke="black" points="356.25,-659.5 356.25,-682 620.25,-682 620.25,-659.5 356.25,-659.5"/>
<text text-anchor="start" x="442.12" y="-666.7" font-family="Times New Roman,Times,Liberation Serif,serif" font-weight="bold" font-size="14.00">DistributionBus</text>
<polygon fill="none" stroke="black" points="356.25,-637 356.25,-659.5 435.75,-659.5 435.75,-637 356.25,-637"/>
<text text-anchor="start" x="384" y="-643.2" font-family="Times New Roman,Times,Liberation Serif,serif" font-size="14.00">uuid</text>
<polygon fill="none" stroke="black" points="435.75,-637 435.75,-659.5 620.25,-659.5 620.25,-637 435.75,-637"/>
<text text-anchor="start" x="511.12" y="-643.2" font-family="Times New Roman,Times,Liberation Serif,serif" font-size="14.00">UUID</text>
<polygon fill="none" stroke="black" points="356.25,-614.5 356.25,-637 435.75,-637 435.75,-614.5 356.25,-614.5"/>
<text text-anchor="start" x="381" y="-620.7" font-family="Times New Roman,Times,Liberation Serif,serif" font-size="14.00">name</text>
<polygon fill="none" stroke="black" points="435.75,-614.5 435.75,-637 620.25,-637 620.25,-614.5 435.75,-614.5"/>
<text text-anchor="start" x="521.25" y="-620.7" font-family="Times New Roman,Times,Liberation Serif,serif" font-size="14.00">str</text>
<polygon fill="none" stroke="black" points="356.25,-592 356.25,-614.5 435.75,-614.5 435.75,-592 356.25,-592"/>
<text text-anchor="start" x="368.62" y="-598.2" font-family="Times New Roman,Times,Liberation Serif,serif" font-size="14.00">substation</text>
<polygon fill="none" stroke="black" points="435.75,-592 435.75,-614.5 620.25,-614.5 620.25,-592 435.75,-592"/>
<text text-anchor="start" x="438.75" y="-598.2" font-family="Times New Roman,Times,Liberation Serif,serif" font-size="14.00">Optional[DistributionSubstation]</text>
<polygon fill="none" stroke="black" points="356.25,-569.5 356.25,-592 435.75,-592 435.75,-569.5 356.25,-569.5"/>
<text text-anchor="start" x="379.12" y="-575.7" font-family="Times New Roman,Times,Liberation Serif,serif" font-size="14.00">feeder</text>
<polygon fill="none" stroke="black" points="435.75,-569.5 435.75,-592 620.25,-592 620.25,-569.5 435.75,-569.5"/>
<text text-anchor="start" x="448.88" y="-575.7" font-family="Times New Roman,Times,Liberation Serif,serif" font-size="14.00">Optional[DistributionFeeder]</text>
<polygon fill="none" stroke="black" points="356.25,-547 356.25,-569.5 435.75,-569.5 435.75,-547 356.25,-547"/>
<text text-anchor="start" x="361.12" y="-553.2" font-family="Times New Roman,Times,Liberation Serif,serif" font-size="14.00">voltage_type</text>
<polygon fill="none" stroke="black" points="435.75,-547 435.75,-569.5 620.25,-569.5 620.25,-547 435.75,-547"/>
<text text-anchor="start" x="490.88" y="-553.2" font-family="Times New Roman,Times,Liberation Serif,serif" font-size="14.00">VoltageTypes</text>
<polygon fill="none" stroke="black" points="356.25,-524.5 356.25,-547 435.75,-547 435.75,-524.5 356.25,-524.5"/>
<text text-anchor="start" x="378" y="-530.7" font-family="Times New Roman,Times,Liberation Serif,serif" font-size="14.00">phases</text>
<polygon fill="none" stroke="black" points="435.75,-524.5 435.75,-547 620.25,-547 620.25,-524.5 435.75,-524.5"/>
<text text-anchor="start" x="499.5" y="-530.7" font-family="Times New Roman,Times,Liberation Serif,serif" font-size="14.00">list[Phase]</text>
<polygon fill="none" stroke="black" points="356.25,-502 356.25,-524.5 435.75,-524.5 435.75,-502 356.25,-502"/>
<text text-anchor="start" x="360.38" y="-508.2" font-family="Times New Roman,Times,Liberation Serif,serif" font-size="14.00">voltagelimits</text>
<polygon fill="none" stroke="black" points="435.75,-502 435.75,-524.5 620.25,-524.5 620.25,-502 435.75,-502"/>
<text text-anchor="start" x="470.62" y="-508.2" font-family="Times New Roman,Times,Liberation Serif,serif" font-size="14.00">list[VoltageLimitSet]</text>
<polygon fill="none" stroke="black" points="356.25,-479.5 356.25,-502 435.75,-502 435.75,-479.5 356.25,-479.5"/>
<text text-anchor="start" x="359.25" y="-485.7" font-family="Times New Roman,Times,Liberation Serif,serif" font-size="14.00">rated_voltage</text>
<polygon fill="none" stroke="black" points="435.75,-479.5 435.75,-502 620.25,-502 620.25,-479.5 435.75,-479.5"/>
<text text-anchor="start" x="485.62" y="-485.7" font-family="Times New Roman,Times,Liberation Serif,serif" font-size="14.00">PositiveVoltage</text>
<polygon fill="none" stroke="black" points="356.25,-457 356.25,-479.5 435.75,-479.5 435.75,-457 356.25,-457"/>
<text text-anchor="start" x="367.5" y="-463.2" font-family="Times New Roman,Times,Liberation Serif,serif" font-size="14.00">coordinate</text>
<polygon fill="none" stroke="black" points="435.75,-457 435.75,-479.5 620.25,-479.5 620.25,-457 435.75,-457"/>
<text text-anchor="start" x="475.88" y="-463.2" font-family="Times New Roman,Times,Liberation Serif,serif" font-size="14.00">Optional[Location]</text>
</a>
</g>
</g>
<!-- gdm.distribution.components.distribution_bus.DistributionBus&#45;&gt;gdm.distribution.common.limitset.VoltageLimitSet -->
<g id="edge1" class="edge">
<title>gdm.distribution.components.distribution_bus.DistributionBus:e&#45;&gt;gdm.distribution.common.limitset.VoltageLimitSet:w</title>
<path fill="none" stroke="black" d="M630,-513.93C679.95,-521.19 679.64,-584.46 725.95,-595.77"/>
<polyline fill="none" stroke="black" points="620.25,-513.25 625.24,-513.6"/>
<polyline fill="none" stroke="black" points="625.24,-513.6 630.23,-513.94"/>
<polygon fill="black" stroke="black" points="730.86,-596.33 740.28,-601.93 736.16,-596.93 740.46,-597.42 740.46,-597.42 740.46,-597.42 736.16,-596.93 741.3,-592.99 730.86,-596.33"/>
<polyline fill="none" stroke="black" points="729.65,-596.19 724.68,-595.63"/>
</g>
<!-- gdm.distribution.components.distribution_feeder.DistributionFeeder -->
<g id="node3" class="node">
<title>gdm.distribution.components.distribution_feeder.DistributionFeeder</title>
<g id="a_node3"><a xlink:title="gdm.distribution.components.distribution_feeder.DistributionFeeder&#10;&#10;Class interface for distribution feeder.&#10;">
<polygon fill="none" stroke="black" points="1017,-726.75 1017,-749.25 1133.25,-749.25 1133.25,-726.75 1017,-726.75"/>
<text text-anchor="start" x="1020" y="-733.95" font-family="Times New Roman,Times,Liberation Serif,serif" font-weight="bold" font-size="14.00">DistributionFeeder</text>
<polygon fill="none" stroke="black" points="1017,-704.25 1017,-726.75 1073.25,-726.75 1073.25,-704.25 1017,-704.25"/>
<text text-anchor="start" x="1033.12" y="-710.45" font-family="Times New Roman,Times,Liberation Serif,serif" font-size="14.00">uuid</text>
<polygon fill="none" stroke="black" points="1073.25,-704.25 1073.25,-726.75 1133.25,-726.75 1133.25,-704.25 1073.25,-704.25"/>
<text text-anchor="start" x="1086.38" y="-710.45" font-family="Times New Roman,Times,Liberation Serif,serif" font-size="14.00">UUID</text>
<polygon fill="none" stroke="black" points="1017,-681.75 1017,-704.25 1073.25,-704.25 1073.25,-681.75 1017,-681.75"/>
<text text-anchor="start" x="1030.12" y="-687.95" font-family="Times New Roman,Times,Liberation Serif,serif" font-size="14.00">name</text>
<polygon fill="none" stroke="black" points="1073.25,-681.75 1073.25,-704.25 1133.25,-704.25 1133.25,-681.75 1073.25,-681.75"/>
<text text-anchor="start" x="1096.5" y="-687.95" font-family="Times New Roman,Times,Liberation Serif,serif" font-size="14.00">str</text>
</a>
</g>
</g>
<!-- gdm.distribution.components.distribution_bus.DistributionBus&#45;&gt;gdm.distribution.components.distribution_feeder.DistributionFeeder -->
<g id="edge2" class="edge">
<title>gdm.distribution.components.distribution_bus.DistributionBus:e&#45;&gt;gdm.distribution.components.distribution_feeder.DistributionFeeder:w</title>
<path fill="none" stroke="black" d="M630.07,-581.09C673.56,-584.2 683.14,-608.24 728.25,-626.5 786.78,-650.19 923.21,-724.34 998.41,-736.35"/>
<polyline fill="none" stroke="black" points="620.25,-580.75 625.25,-580.92"/>
<polyline fill="none" stroke="black" points="625.25,-580.92 630.24,-581.09"/>
<polyline fill="none" stroke="black" points="1017,-738 1012.02,-737.56"/>
<polygon fill="black" stroke="black" points="1011.47,-732.49 1010.58,-742.45 1008.59,-742.27 1009.47,-732.31 1011.47,-732.49"/>
<polyline fill="none" stroke="black" points="1012.02,-737.56 1007.04,-737.12"/>
<ellipse fill="none" stroke="black" cx="1002.56" cy="-736.72" rx="4" ry="4"/>
</g>
<!-- gdm.distribution.components.distribution_substation.DistributionSubstation -->
<g id="node4" class="node">
<title>gdm.distribution.components.distribution_substation.DistributionSubstation</title>
<g id="a_node4"><a xlink:title="gdm.distribution.components.distribution_substation.DistributionSubstation&#10;&#10;Class interface for distribution feeder.&#10;">
<polygon fill="none" stroke="black" points="729.38,-860 729.38,-882.5 907.88,-882.5 907.88,-860 729.38,-860"/>
<text text-anchor="start" x="752.62" y="-867.2" font-family="Times New Roman,Times,Liberation Serif,serif" font-weight="bold" font-size="14.00">DistributionSubstation</text>
<polygon fill="none" stroke="black" points="729.38,-837.5 729.38,-860 774.38,-860 774.38,-837.5 729.38,-837.5"/>
<text text-anchor="start" x="739.88" y="-843.7" font-family="Times New Roman,Times,Liberation Serif,serif" font-size="14.00">uuid</text>
<polygon fill="none" stroke="black" points="774.38,-837.5 774.38,-860 907.88,-860 907.88,-837.5 774.38,-837.5"/>
<text text-anchor="start" x="824.25" y="-843.7" font-family="Times New Roman,Times,Liberation Serif,serif" font-size="14.00">UUID</text>
<polygon fill="none" stroke="black" points="729.38,-815 729.38,-837.5 774.38,-837.5 774.38,-815 729.38,-815"/>
<text text-anchor="start" x="736.88" y="-821.2" font-family="Times New Roman,Times,Liberation Serif,serif" font-size="14.00">name</text>
<polygon fill="none" stroke="black" points="774.38,-815 774.38,-837.5 907.88,-837.5 907.88,-815 774.38,-815"/>
<text text-anchor="start" x="834.38" y="-821.2" font-family="Times New Roman,Times,Liberation Serif,serif" font-size="14.00">str</text>
<polygon fill="none" stroke="black" points="729.38,-792.5 729.38,-815 774.38,-815 774.38,-792.5 729.38,-792.5"/>
<text text-anchor="start" x="732.38" y="-798.7" font-family="Times New Roman,Times,Liberation Serif,serif" font-size="14.00">feeders</text>
<polygon fill="none" stroke="black" points="774.38,-792.5 774.38,-815 907.88,-815 907.88,-792.5 774.38,-792.5"/>
<text text-anchor="start" x="777.38" y="-798.7" font-family="Times New Roman,Times,Liberation Serif,serif" font-size="14.00">list[DistributionFeeder]</text>
</a>
</g>
</g>
<!-- gdm.distribution.components.distribution_bus.DistributionBus&#45;&gt;gdm.distribution.components.distribution_substation.DistributionSubstation -->
<g id="edge3" class="edge">
<title>gdm.distribution.components.distribution_bus.DistributionBus:e&#45;&gt;gdm.distribution.components.distribution_substation.DistributionSubstation:w</title>
<path fill="none" stroke="black" d="M630.18,-603.84C734.5,-616.92 618.21,-843.3 709.58,-868.9"/>
<polyline fill="none" stroke="black" points="620.25,-603.25 625.24,-603.55"/>
<polyline fill="none" stroke="black" points="625.24,-603.55 630.23,-603.84"/>
<polyline fill="none" stroke="black" points="728.38,-871.25 723.41,-870.63"/>
<polygon fill="black" stroke="black" points="723.04,-865.54 721.8,-875.47 719.82,-875.22 721.06,-865.3 723.04,-865.54"/>
<polyline fill="none" stroke="black" points="723.41,-870.63 718.45,-870.01"/>
<ellipse fill="none" stroke="black" cx="713.99" cy="-869.45" rx="4" ry="4"/>
</g>
<!-- infrasys.location.Location -->
<g id="node5" class="node">
<title>infrasys.location.Location</title>
<g id="a_node5"><a xlink:title="infrasys.location.Location&#10;&#10;Specifies geographic location.&#10;">
<polygon fill="none" stroke="black" points="771,-437.5 771,-460 866.25,-460 866.25,-437.5 771,-437.5"/>
<text text-anchor="start" x="793.12" y="-444.7" font-family="Times New Roman,Times,Liberation Serif,serif" font-weight="bold" font-size="14.00">Location</text>
<polygon fill="none" stroke="black" points="771,-415 771,-437.5 807,-437.5 807,-415 771,-415"/>
<text text-anchor="start" x="777" y="-421.2" font-family="Times New Roman,Times,Liberation Serif,serif" font-size="14.00">uuid</text>
<polygon fill="none" stroke="black" points="807,-415 807,-437.5 866.25,-437.5 866.25,-415 807,-415"/>
<text text-anchor="start" x="819.75" y="-421.2" font-family="Times New Roman,Times,Liberation Serif,serif" font-size="14.00">UUID</text>
<polygon fill="none" stroke="black" points="771,-392.5 771,-415 807,-415 807,-392.5 771,-392.5"/>
<text text-anchor="start" x="774" y="-398.7" font-family="Times New Roman,Times,Liberation Serif,serif" font-size="14.00">name</text>
<polygon fill="none" stroke="black" points="807,-392.5 807,-415 866.25,-415 866.25,-392.5 807,-392.5"/>
<text text-anchor="start" x="829.88" y="-398.7" font-family="Times New Roman,Times,Liberation Serif,serif" font-size="14.00">str</text>
<polygon fill="none" stroke="black" points="771,-370 771,-392.5 807,-392.5 807,-370 771,-370"/>
<text text-anchor="start" x="785.62" y="-376.2" font-family="Times New Roman,Times,Liberation Serif,serif" font-size="14.00">x</text>
<polygon fill="none" stroke="black" points="807,-370 807,-392.5 866.25,-392.5 866.25,-370 807,-370"/>
<text text-anchor="start" x="824.25" y="-376.2" font-family="Times New Roman,Times,Liberation Serif,serif" font-size="14.00">float</text>
<polygon fill="none" stroke="black" points="771,-347.5 771,-370 807,-370 807,-347.5 771,-347.5"/>
<text text-anchor="start" x="785.62" y="-353.7" font-family="Times New Roman,Times,Liberation Serif,serif" font-size="14.00">y</text>
<polygon fill="none" stroke="black" points="807,-347.5 807,-370 866.25,-370 866.25,-347.5 807,-347.5"/>
<text text-anchor="start" x="824.25" y="-353.7" font-family="Times New Roman,Times,Liberation Serif,serif" font-size="14.00">float</text>
<polygon fill="none" stroke="black" points="771,-325 771,-347.5 807,-347.5 807,-325 771,-325"/>
<text text-anchor="start" x="781.12" y="-331.2" font-family="Times New Roman,Times,Liberation Serif,serif" font-size="14.00">crs</text>
<polygon fill="none" stroke="black" points="807,-325 807,-347.5 866.25,-347.5 866.25,-325 807,-325"/>
<text text-anchor="start" x="810" y="-331.2" font-family="Times New Roman,Times,Liberation Serif,serif" font-size="14.00">str | None</text>
</a>
</g>
</g>
<!-- gdm.distribution.components.distribution_bus.DistributionBus&#45;&gt;infrasys.location.Location -->
<g id="edge4" class="edge">
<title>gdm.distribution.components.distribution_bus.DistributionBus:e&#45;&gt;infrasys.location.Location:w</title>
<path fill="none" stroke="black" d="M630.09,-468.1C682.85,-466.51 702.19,-452.28 751.29,-449.3"/>
<polyline fill="none" stroke="black" points="620.25,-468.25 625.25,-468.18"/>
<polyline fill="none" stroke="black" points="625.25,-468.18 630.25,-468.1"/>
<polyline fill="none" stroke="black" points="770,-448.75 765,-448.9"/>
<polygon fill="black" stroke="black" points="763.86,-443.93 764.15,-453.92 762.15,-453.98 761.86,-443.99 763.86,-443.93"/>
<polyline fill="none" stroke="black" points="765,-448.9 760,-449.04"/>
<ellipse fill="none" stroke="black" cx="755.51" cy="-449.17" rx="4" ry="4"/>
</g>
<!-- gdm.distribution.components.distribution_substation.DistributionSubstation&#45;&gt;gdm.distribution.components.distribution_feeder.DistributionFeeder -->
<g id="edge9" class="edge">
<title>gdm.distribution.components.distribution_substation.DistributionSubstation:e&#45;&gt;gdm.distribution.components.distribution_feeder.DistributionFeeder:w</title>
<path fill="none" stroke="black" d="M918.74,-803.01C959.86,-796.56 963.85,-749.83 1001.73,-739.87"/>
<polyline fill="none" stroke="black" points="908.88,-803.75 913.86,-803.38"/>
<polyline fill="none" stroke="black" points="913.86,-803.38 918.85,-803"/>
<polygon fill="black" stroke="black" points="1006.74,-739.25 1017.21,-742.51 1012.04,-738.61 1016.34,-738.08 1016.34,-738.08 1016.34,-738.08 1012.04,-738.61 1016.12,-733.57 1006.74,-739.25"/>
<polyline fill="none" stroke="black" points="1005.53,-739.4 1000.57,-740.01"/>
</g>
<!-- gdm.distribution.components.distribution_load.DistributionLoad -->
<g id="node6" class="node">
<title>gdm.distribution.components.distribution_load.DistributionLoad</title>
<g id="a_node6"><a xlink:title="gdm.distribution.components.distribution_load.DistributionLoad&#10;&#10;Data model for distribution load.&#10;">
<polygon fill="none" stroke="black" points="0,-805.25 0,-827.75 248.25,-827.75 248.25,-805.25 0,-805.25"/>
<text text-anchor="start" x="73.88" y="-812.45" font-family="Times New Roman,Times,Liberation Serif,serif" font-weight="bold" font-size="14.00">DistributionLoad</text>
<polygon fill="none" stroke="black" points="0,-782.75 0,-805.25 63.75,-805.25 63.75,-782.75 0,-782.75"/>
<text text-anchor="start" x="19.88" y="-788.95" font-family="Times New Roman,Times,Liberation Serif,serif" font-size="14.00">uuid</text>
<polygon fill="none" stroke="black" points="63.75,-782.75 63.75,-805.25 248.25,-805.25 248.25,-782.75 63.75,-782.75"/>
<text text-anchor="start" x="139.12" y="-788.95" font-family="Times New Roman,Times,Liberation Serif,serif" font-size="14.00">UUID</text>
<polygon fill="none" stroke="black" points="0,-760.25 0,-782.75 63.75,-782.75 63.75,-760.25 0,-760.25"/>
<text text-anchor="start" x="16.88" y="-766.45" font-family="Times New Roman,Times,Liberation Serif,serif" font-size="14.00">name</text>
<polygon fill="none" stroke="black" points="63.75,-760.25 63.75,-782.75 248.25,-782.75 248.25,-760.25 63.75,-760.25"/>
<text text-anchor="start" x="149.25" y="-766.45" font-family="Times New Roman,Times,Liberation Serif,serif" font-size="14.00">str</text>
<polygon fill="none" stroke="black" points="0,-737.75 0,-760.25 63.75,-760.25 63.75,-737.75 0,-737.75"/>
<text text-anchor="start" x="4.5" y="-743.95" font-family="Times New Roman,Times,Liberation Serif,serif" font-size="14.00">substation</text>
<polygon fill="none" stroke="black" points="63.75,-737.75 63.75,-760.25 248.25,-760.25 248.25,-737.75 63.75,-737.75"/>
<text text-anchor="start" x="66.75" y="-743.95" font-family="Times New Roman,Times,Liberation Serif,serif" font-size="14.00">Optional[DistributionSubstation]</text>
<polygon fill="none" stroke="black" points="0,-715.25 0,-737.75 63.75,-737.75 63.75,-715.25 0,-715.25"/>
<text text-anchor="start" x="15" y="-721.45" font-family="Times New Roman,Times,Liberation Serif,serif" font-size="14.00">feeder</text>
<polygon fill="none" stroke="black" points="63.75,-715.25 63.75,-737.75 248.25,-737.75 248.25,-715.25 63.75,-715.25"/>
<text text-anchor="start" x="76.88" y="-721.45" font-family="Times New Roman,Times,Liberation Serif,serif" font-size="14.00">Optional[DistributionFeeder]</text>
<polygon fill="none" stroke="black" points="0,-692.75 0,-715.25 63.75,-715.25 63.75,-692.75 0,-692.75"/>
<text text-anchor="start" x="4.12" y="-698.95" font-family="Times New Roman,Times,Liberation Serif,serif" font-size="14.00">in_service</text>
<polygon fill="none" stroke="black" points="63.75,-692.75 63.75,-715.25 248.25,-715.25 248.25,-692.75 63.75,-692.75"/>
<text text-anchor="start" x="144" y="-698.95" font-family="Times New Roman,Times,Liberation Serif,serif" font-size="14.00">bool</text>
<polygon fill="none" stroke="black" points="0,-670.25 0,-692.75 63.75,-692.75 63.75,-670.25 0,-670.25"/>
<text text-anchor="start" x="22.5" y="-676.45" font-family="Times New Roman,Times,Liberation Serif,serif" font-size="14.00">bus</text>
<polygon fill="none" stroke="black" points="63.75,-670.25 63.75,-692.75 248.25,-692.75 248.25,-670.25 63.75,-670.25"/>
<text text-anchor="start" x="112.88" y="-676.45" font-family="Times New Roman,Times,Liberation Serif,serif" font-size="14.00">DistributionBus</text>
<polygon fill="none" stroke="black" points="0,-647.75 0,-670.25 63.75,-670.25 63.75,-647.75 0,-647.75"/>
<text text-anchor="start" x="13.88" y="-653.95" font-family="Times New Roman,Times,Liberation Serif,serif" font-size="14.00">phases</text>
<polygon fill="none" stroke="black" points="63.75,-647.75 63.75,-670.25 248.25,-670.25 248.25,-647.75 63.75,-647.75"/>
<text text-anchor="start" x="127.5" y="-653.95" font-family="Times New Roman,Times,Liberation Serif,serif" font-size="14.00">list[Phase]</text>
<polygon fill="none" stroke="black" points="0,-625.25 0,-647.75 63.75,-647.75 63.75,-625.25 0,-625.25"/>
<text text-anchor="start" x="3" y="-631.45" font-family="Times New Roman,Times,Liberation Serif,serif" font-size="14.00">equipment</text>
<polygon fill="none" stroke="black" points="63.75,-625.25 63.75,-647.75 248.25,-647.75 248.25,-625.25 63.75,-625.25"/>
<text text-anchor="start" x="112.12" y="-631.45" font-family="Times New Roman,Times,Liberation Serif,serif" font-size="14.00">LoadEquipment</text>
</a>
</g>
</g>
<!-- gdm.distribution.components.distribution_load.DistributionLoad&#45;&gt;gdm.distribution.components.distribution_bus.DistributionBus -->
<g id="edge5" class="edge">
<title>gdm.distribution.components.distribution_load.DistributionLoad:e&#45;&gt;gdm.distribution.components.distribution_bus.DistributionBus:w</title>
<path fill="none" stroke="black" d="M258.16,-681.34C293.48,-680.16 307.92,-672.87 341.28,-671.13"/>
<polyline fill="none" stroke="black" points="248.25,-681.5 253.25,-681.42"/>
<polyline fill="none" stroke="black" points="253.25,-681.42 258.25,-681.34"/>
<polyline fill="none" stroke="black" points="356.25,-670.75 351.25,-670.88"/>
<polygon fill="black" stroke="black" points="350.13,-665.9 350.38,-675.9 348.38,-675.95 348.13,-665.95 350.13,-665.9"/>
<polyline fill="none" stroke="black" points="351.25,-670.88 346.25,-671"/>
<polygon fill="black" stroke="black" points="345.13,-666.03 345.38,-676.03 343.38,-676.08 343.13,-666.08 345.13,-666.03"/>
<polyline fill="none" stroke="black" points="346.25,-671 341.25,-671.13"/>
</g>
<!-- gdm.distribution.components.distribution_load.DistributionLoad&#45;&gt;gdm.distribution.components.distribution_feeder.DistributionFeeder -->
<g id="edge6" class="edge">
<title>gdm.distribution.components.distribution_load.DistributionLoad:e&#45;&gt;gdm.distribution.components.distribution_feeder.DistributionFeeder:w</title>
<path fill="none" stroke="black" d="M258.19,-726.5C585.46,-726.72 675.32,-737.59 998.42,-737.99"/>
<polyline fill="none" stroke="black" points="248.25,-726.5 253.25,-726.5"/>
<polyline fill="none" stroke="black" points="253.25,-726.5 258.25,-726.5"/>
<polyline fill="none" stroke="black" points="1017,-738 1012,-738"/>
<polygon fill="black" stroke="black" points="1011,-733 1011,-743 1009,-743 1009,-733 1011,-733"/>
<polyline fill="none" stroke="black" points="1012,-738 1007,-737.99"/>
<ellipse fill="none" stroke="black" cx="1002.5" cy="-737.99" rx="4" ry="4"/>
</g>
<!-- gdm.distribution.components.distribution_load.DistributionLoad&#45;&gt;gdm.distribution.components.distribution_substation.DistributionSubstation -->
<g id="edge7" class="edge">
<title>gdm.distribution.components.distribution_load.DistributionLoad:e&#45;&gt;gdm.distribution.components.distribution_substation.DistributionSubstation:w</title>
<path fill="none" stroke="black" d="M257.96,-749.29C366.66,-755.47 594.62,-858.95 709.6,-870.25"/>
<polyline fill="none" stroke="black" points="248.25,-749 253.25,-749.15"/>
<polyline fill="none" stroke="black" points="253.25,-749.15 258.25,-749.3"/>
<polyline fill="none" stroke="black" points="728.38,-871.25 723.38,-870.98"/>
<polygon fill="black" stroke="black" points="722.65,-865.94 722.12,-875.92 720.12,-875.82 720.65,-865.83 722.65,-865.94"/>
<polyline fill="none" stroke="black" points="723.38,-870.98 718.39,-870.72"/>
<ellipse fill="none" stroke="black" cx="713.9" cy="-870.48" rx="4" ry="4"/>
</g>
<!-- gdm.distribution.equipment.load_equipment.LoadEquipment -->
<g id="node7" class="node">
<title>gdm.distribution.equipment.load_equipment.LoadEquipment</title>
<g id="a_node7"><a xlink:title="gdm.distribution.equipment.load_equipment.LoadEquipment&#10;&#10;Data model for load model.&#10;">
<polygon fill="none" stroke="black" points="365.25,-366.25 365.25,-388.75 611.25,-388.75 611.25,-366.25 365.25,-366.25"/>
<text text-anchor="start" x="440.62" y="-373.45" font-family="Times New Roman,Times,Liberation Serif,serif" font-weight="bold" font-size="14.00">LoadEquipment</text>
<polygon fill="none" stroke="black" points="365.25,-343.75 365.25,-366.25 460.5,-366.25 460.5,-343.75 365.25,-343.75"/>
<text text-anchor="start" x="400.88" y="-349.95" font-family="Times New Roman,Times,Liberation Serif,serif" font-size="14.00">uuid</text>
<polygon fill="none" stroke="black" points="460.5,-343.75 460.5,-366.25 611.25,-366.25 611.25,-343.75 460.5,-343.75"/>
<text text-anchor="start" x="519" y="-349.95" font-family="Times New Roman,Times,Liberation Serif,serif" font-size="14.00">UUID</text>
<polygon fill="none" stroke="black" points="365.25,-321.25 365.25,-343.75 460.5,-343.75 460.5,-321.25 365.25,-321.25"/>
<text text-anchor="start" x="397.88" y="-327.45" font-family="Times New Roman,Times,Liberation Serif,serif" font-size="14.00">name</text>
<polygon fill="none" stroke="black" points="460.5,-321.25 460.5,-343.75 611.25,-343.75 611.25,-321.25 460.5,-321.25"/>
<text text-anchor="start" x="529.12" y="-327.45" font-family="Times New Roman,Times,Liberation Serif,serif" font-size="14.00">str</text>
<polygon fill="none" stroke="black" points="365.25,-298.75 365.25,-321.25 460.5,-321.25 460.5,-298.75 365.25,-298.75"/>
<text text-anchor="start" x="379.88" y="-304.95" font-family="Times New Roman,Times,Liberation Serif,serif" font-size="14.00">phase_loads</text>
<polygon fill="none" stroke="black" points="460.5,-298.75 460.5,-321.25 611.25,-321.25 611.25,-298.75 460.5,-298.75"/>
<text text-anchor="start" x="463.5" y="-304.95" font-family="Times New Roman,Times,Liberation Serif,serif" font-size="14.00">list[PhaseLoadEquipment]</text>
<polygon fill="none" stroke="black" points="365.25,-276.25 365.25,-298.75 460.5,-298.75 460.5,-276.25 365.25,-276.25"/>
<text text-anchor="start" x="368.25" y="-282.45" font-family="Times New Roman,Times,Liberation Serif,serif" font-size="14.00">connection_type</text>
<polygon fill="none" stroke="black" points="460.5,-276.25 460.5,-298.75 611.25,-298.75 611.25,-276.25 460.5,-276.25"/>
<text text-anchor="start" x="490.88" y="-282.45" font-family="Times New Roman,Times,Liberation Serif,serif" font-size="14.00">ConnectionType</text>
</a>
</g>
</g>
<!-- gdm.distribution.components.distribution_load.DistributionLoad&#45;&gt;gdm.distribution.equipment.load_equipment.LoadEquipment -->
<g id="edge8" class="edge">
<title>gdm.distribution.components.distribution_load.DistributionLoad:e&#45;&gt;gdm.distribution.equipment.load_equipment.LoadEquipment:w</title>
<path fill="none" stroke="black" d="M258.02,-635.93C362.33,-623.12 252.15,-398.59 349.47,-378.88"/>
<polyline fill="none" stroke="black" points="248.25,-636.5 253.24,-636.21"/>
<polyline fill="none" stroke="black" points="253.24,-636.21 258.23,-635.92"/>
<polyline fill="none" stroke="black" points="364.25,-377.5 359.27,-377.96"/>
<polygon fill="black" stroke="black" points="357.81,-373.08 358.74,-383.04 356.75,-383.22 355.82,-373.27 357.81,-373.08"/>
<polyline fill="none" stroke="black" points="359.27,-377.96 354.29,-378.43"/>
<polygon fill="black" stroke="black" points="352.83,-373.54 353.76,-383.5 351.77,-383.69 350.84,-373.73 352.83,-373.54"/>
<polyline fill="none" stroke="black" points="354.29,-378.43 349.31,-378.89"/>
</g>
<!-- gdm.distribution.equipment.phase_load_equipment.PhaseLoadEquipment -->
<g id="node8" class="node">
<title>gdm.distribution.equipment.phase_load_equipment.PhaseLoadEquipment</title>
<g id="a_node8"><a xlink:title="gdm.distribution.equipment.phase_load_equipment.PhaseLoadEquipment&#10;&#10;Data model for single phase load equipment.&#10;">
<polygon fill="none" stroke="black" points="728.25,-266 728.25,-288.5 909,-288.5 909,-266 728.25,-266"/>
<text text-anchor="start" x="754.12" y="-273.2" font-family="Times New Roman,Times,Liberation Serif,serif" font-weight="bold" font-size="14.00">PhaseLoadEquipment</text>
<polygon fill="none" stroke="black" points="728.25,-243.5 728.25,-266 821.25,-266 821.25,-243.5 728.25,-243.5"/>
<text text-anchor="start" x="762.75" y="-249.7" font-family="Times New Roman,Times,Liberation Serif,serif" font-size="14.00">uuid</text>
<polygon fill="none" stroke="black" points="821.25,-243.5 821.25,-266 909,-266 909,-243.5 821.25,-243.5"/>
<text text-anchor="start" x="848.25" y="-249.7" font-family="Times New Roman,Times,Liberation Serif,serif" font-size="14.00">UUID</text>
<polygon fill="none" stroke="black" points="728.25,-221 728.25,-243.5 821.25,-243.5 821.25,-221 728.25,-221"/>
<text text-anchor="start" x="759.75" y="-227.2" font-family="Times New Roman,Times,Liberation Serif,serif" font-size="14.00">name</text>
<polygon fill="none" stroke="black" points="821.25,-221 821.25,-243.5 909,-243.5 909,-221 821.25,-221"/>
<text text-anchor="start" x="858.38" y="-227.2" font-family="Times New Roman,Times,Liberation Serif,serif" font-size="14.00">str</text>
<polygon fill="none" stroke="black" points="728.25,-198.5 728.25,-221 821.25,-221 821.25,-198.5 728.25,-198.5"/>
<text text-anchor="start" x="744.38" y="-204.7" font-family="Times New Roman,Times,Liberation Serif,serif" font-size="14.00">real_power</text>
<polygon fill="none" stroke="black" points="821.25,-198.5 821.25,-221 909,-221 909,-198.5 821.25,-198.5"/>
<text text-anchor="start" x="829.88" y="-204.7" font-family="Times New Roman,Times,Liberation Serif,serif" font-size="14.00">ActivePower</text>
<polygon fill="none" stroke="black" points="728.25,-176 728.25,-198.5 821.25,-198.5 821.25,-176 728.25,-176"/>
<text text-anchor="start" x="733.12" y="-182.2" font-family="Times New Roman,Times,Liberation Serif,serif" font-size="14.00">reactive_power</text>
<polygon fill="none" stroke="black" points="821.25,-176 821.25,-198.5 909,-198.5 909,-176 821.25,-176"/>
<text text-anchor="start" x="824.25" y="-182.2" font-family="Times New Roman,Times,Liberation Serif,serif" font-size="14.00">ReactivePower</text>
<polygon fill="none" stroke="black" points="728.25,-153.5 728.25,-176 821.25,-176 821.25,-153.5 728.25,-153.5"/>
<text text-anchor="start" x="758.25" y="-159.7" font-family="Times New Roman,Times,Liberation Serif,serif" font-size="14.00">z_real</text>
<polygon fill="none" stroke="black" points="821.25,-153.5 821.25,-176 909,-176 909,-153.5 821.25,-153.5"/>
<text text-anchor="start" x="852.75" y="-159.7" font-family="Times New Roman,Times,Liberation Serif,serif" font-size="14.00">float</text>
<polygon fill="none" stroke="black" points="728.25,-131 728.25,-153.5 821.25,-153.5 821.25,-131 728.25,-131"/>
<text text-anchor="start" x="754.5" y="-137.2" font-family="Times New Roman,Times,Liberation Serif,serif" font-size="14.00">z_imag</text>
<polygon fill="none" stroke="black" points="821.25,-131 821.25,-153.5 909,-153.5 909,-131 821.25,-131"/>
<text text-anchor="start" x="852.75" y="-137.2" font-family="Times New Roman,Times,Liberation Serif,serif" font-size="14.00">float</text>
<polygon fill="none" stroke="black" points="728.25,-108.5 728.25,-131 821.25,-131 821.25,-108.5 728.25,-108.5"/>
<text text-anchor="start" x="759.38" y="-114.7" font-family="Times New Roman,Times,Liberation Serif,serif" font-size="14.00">i_real</text>
<polygon fill="none" stroke="black" points="821.25,-108.5 821.25,-131 909,-131 909,-108.5 821.25,-108.5"/>
<text text-anchor="start" x="852.75" y="-114.7" font-family="Times New Roman,Times,Liberation Serif,serif" font-size="14.00">float</text>
<polygon fill="none" stroke="black" points="728.25,-86 728.25,-108.5 821.25,-108.5 821.25,-86 728.25,-86"/>
<text text-anchor="start" x="755.62" y="-92.2" font-family="Times New Roman,Times,Liberation Serif,serif" font-size="14.00">i_imag</text>
<polygon fill="none" stroke="black" points="821.25,-86 821.25,-108.5 909,-108.5 909,-86 821.25,-86"/>
<text text-anchor="start" x="852.75" y="-92.2" font-family="Times New Roman,Times,Liberation Serif,serif" font-size="14.00">float</text>
<polygon fill="none" stroke="black" points="728.25,-63.5 728.25,-86 821.25,-86 821.25,-63.5 728.25,-63.5"/>
<text text-anchor="start" x="757.88" y="-69.7" font-family="Times New Roman,Times,Liberation Serif,serif" font-size="14.00">p_real</text>
<polygon fill="none" stroke="black" points="821.25,-63.5 821.25,-86 909,-86 909,-63.5 821.25,-63.5"/>
<text text-anchor="start" x="852.75" y="-69.7" font-family="Times New Roman,Times,Liberation Serif,serif" font-size="14.00">float</text>
<polygon fill="none" stroke="black" points="728.25,-41 728.25,-63.5 821.25,-63.5 821.25,-41 728.25,-41"/>
<text text-anchor="start" x="754.12" y="-47.2" font-family="Times New Roman,Times,Liberation Serif,serif" font-size="14.00">p_imag</text>
<polygon fill="none" stroke="black" points="821.25,-41 821.25,-63.5 909,-63.5 909,-41 821.25,-41"/>
<text text-anchor="start" x="852.75" y="-47.2" font-family="Times New Roman,Times,Liberation Serif,serif" font-size="14.00">float</text>
<polygon fill="none" stroke="black" points="728.25,-18.5 728.25,-41 821.25,-41 821.25,-18.5 728.25,-18.5"/>
<text text-anchor="start" x="731.25" y="-24.7" font-family="Times New Roman,Times,Liberation Serif,serif" font-size="14.00">num_customers</text>
<polygon fill="none" stroke="black" points="821.25,-18.5 821.25,-41 909,-41 909,-18.5 821.25,-18.5"/>
<text text-anchor="start" x="829.88" y="-24.7" font-family="Times New Roman,Times,Liberation Serif,serif" font-size="14.00">Optional[int]</text>
</a>
</g>
</g>
<!-- gdm.distribution.equipment.load_equipment.LoadEquipment&#45;&gt;gdm.distribution.equipment.phase_load_equipment.PhaseLoadEquipment -->
<g id="edge10" class="edge">
<title>gdm.distribution.equipment.load_equipment.LoadEquipment:e&#45;&gt;gdm.distribution.equipment.phase_load_equipment.PhaseLoadEquipment:w</title>
<path fill="none" stroke="black" d="M622.08,-309.61C662.22,-306.32 675.32,-283.22 713.11,-278.21"/>
<polyline fill="none" stroke="black" points="612.25,-310 617.25,-309.8"/>
<polyline fill="none" stroke="black" points="617.25,-309.8 622.24,-309.6"/>
<polygon fill="black" stroke="black" points="717.94,-277.9 728.2,-281.76 723.26,-277.57 727.58,-277.29 727.58,-277.29 727.58,-277.29 723.26,-277.57 727.63,-272.78 717.94,-277.9"/>
<polyline fill="none" stroke="black" points="716.72,-277.98 711.73,-278.3"/>
</g>
</g>
</svg>
