<?xml version="1.0" encoding="UTF-8" standalone="no"?>
<!DOCTYPE svg PUBLIC "-//W3C//DTD SVG 1.1//EN"
 "http://www.w3.org/Graphics/SVG/1.1/DTD/svg11.dtd">
<!-- Generated by graphviz version 9.0.0 (0)
 -->
<!-- Title: Entity Relationship Diagram created by erdantic Pages: 1 -->
<svg width="1156pt" height="877pt"
 viewBox="0.00 0.00 1156.00 876.50" xmlns="http://www.w3.org/2000/svg" xmlns:xlink="http://www.w3.org/1999/xlink">
<g id="graph0" class="graph" transform="scale(1 1) rotate(0) translate(4 872.5)">
<title>Entity Relationship Diagram created by erdantic</title>
<polygon fill="white" stroke="none" points="-4,4 -4,-872.5 1152,-872.5 1152,4 -4,4"/>
<text text-anchor="middle" x="574" y="-5.95" font-family="Times New Roman,Times,Liberation Serif,serif" font-size="9.00" fill="#a8a8a8">Created by erdantic v0.6.0 &lt;https://github.com/drivendataorg/erdantic&gt;</text>
<!-- gdm.distribution.components.distribution_bus.DistributionBus -->
<g id="node1" class="node">
<title>gdm.distribution.components.distribution_bus.DistributionBus</title>
<g id="a_node1"><a xlink:title="gdm.distribution.components.distribution_bus.DistributionBus&#10;&#10;Interface for distribution bus.&#10;&#10;Examples:&#10; &#160;&#160;&#160;&gt;&gt;&gt; from gdm import DistributionBus&#10; &#160;&#160;&#160;&gt;&gt;&gt; DistributionBus.example()&#10;">
<polygon fill="none" stroke="black" points="355,-648.5 355,-670.5 636,-670.5 636,-648.5 355,-648.5"/>
<text text-anchor="start" x="449.38" y="-655.2" font-family="Times New Roman,Times,Liberation Serif,serif" font-weight="bold" font-size="14.00">DistributionBus</text>
<polygon fill="none" stroke="black" points="355,-626.5 355,-648.5 452,-648.5 452,-626.5 355,-626.5"/>
<text text-anchor="start" x="391.5" y="-632.2" font-family="Times New Roman,Times,Liberation Serif,serif" font-size="14.00">uuid</text>
<polygon fill="none" stroke="black" points="452,-626.5 452,-648.5 636,-648.5 636,-626.5 452,-626.5"/>
<text text-anchor="start" x="527.12" y="-632.2" font-family="Times New Roman,Times,Liberation Serif,serif" font-size="14.00">UUID</text>
<polygon fill="none" stroke="black" points="355,-604.5 355,-626.5 452,-626.5 452,-604.5 355,-604.5"/>
<text text-anchor="start" x="388.5" y="-610.2" font-family="Times New Roman,Times,Liberation Serif,serif" font-size="14.00">name</text>
<polygon fill="none" stroke="black" points="452,-604.5 452,-626.5 636,-626.5 636,-604.5 452,-604.5"/>
<text text-anchor="start" x="537.25" y="-610.2" font-family="Times New Roman,Times,Liberation Serif,serif" font-size="14.00">str</text>
<polygon fill="none" stroke="black" points="355,-582.5 355,-604.5 452,-604.5 452,-582.5 355,-582.5"/>
<text text-anchor="start" x="376.12" y="-588.2" font-family="Times New Roman,Times,Liberation Serif,serif" font-size="14.00">substation</text>
<polygon fill="none" stroke="black" points="452,-582.5 452,-604.5 636,-604.5 636,-582.5 452,-582.5"/>
<text text-anchor="start" x="454.75" y="-588.2" font-family="Times New Roman,Times,Liberation Serif,serif" font-size="14.00">Optional[DistributionSubstation]</text>
<polygon fill="none" stroke="black" points="355,-560.5 355,-582.5 452,-582.5 452,-560.5 355,-560.5"/>
<text text-anchor="start" x="386.62" y="-566.2" font-family="Times New Roman,Times,Liberation Serif,serif" font-size="14.00">feeder</text>
<polygon fill="none" stroke="black" points="452,-560.5 452,-582.5 636,-582.5 636,-560.5 452,-560.5"/>
<text text-anchor="start" x="464.88" y="-566.2" font-family="Times New Roman,Times,Liberation Serif,serif" font-size="14.00">Optional[DistributionFeeder]</text>
<polygon fill="none" stroke="black" points="355,-538.5 355,-560.5 452,-560.5 452,-538.5 355,-538.5"/>
<text text-anchor="start" x="368.62" y="-544.2" font-family="Times New Roman,Times,Liberation Serif,serif" font-size="14.00">voltage_type</text>
<polygon fill="none" stroke="black" points="452,-538.5 452,-560.5 636,-560.5 636,-538.5 452,-538.5"/>
<text text-anchor="start" x="507.25" y="-544.2" font-family="Times New Roman,Times,Liberation Serif,serif" font-size="14.00">VoltageTypes</text>
<polygon fill="none" stroke="black" points="355,-516.5 355,-538.5 452,-538.5 452,-516.5 355,-516.5"/>
<text text-anchor="start" x="385.5" y="-522.2" font-family="Times New Roman,Times,Liberation Serif,serif" font-size="14.00">phases</text>
<polygon fill="none" stroke="black" points="452,-516.5 452,-538.5 636,-538.5 636,-516.5 452,-516.5"/>
<text text-anchor="start" x="515.5" y="-522.2" font-family="Times New Roman,Times,Liberation Serif,serif" font-size="14.00">list[Phase]</text>
<polygon fill="none" stroke="black" points="355,-494.5 355,-516.5 452,-516.5 452,-494.5 355,-494.5"/>
<text text-anchor="start" x="367.88" y="-500.2" font-family="Times New Roman,Times,Liberation Serif,serif" font-size="14.00">voltagelimits</text>
<polygon fill="none" stroke="black" points="452,-494.5 452,-516.5 636,-516.5 636,-494.5 452,-494.5"/>
<text text-anchor="start" x="486.62" y="-500.2" font-family="Times New Roman,Times,Liberation Serif,serif" font-size="14.00">list[VoltageLimitSet]</text>
<polygon fill="none" stroke="black" points="355,-472.5 355,-494.5 452,-494.5 452,-472.5 355,-472.5"/>
<text text-anchor="start" x="357.75" y="-478.2" font-family="Times New Roman,Times,Liberation Serif,serif" font-size="14.00">rated_voltage</text>
<polygon fill="none" stroke="black" points="452,-472.5 452,-494.5 636,-494.5 636,-472.5 452,-472.5"/>
<text text-anchor="start" x="501.62" y="-478.2" font-family="Times New Roman,Times,Liberation Serif,serif" font-size="14.00">PositiveVoltage</text>
<polygon fill="none" stroke="black" points="355,-450.5 355,-472.5 452,-472.5 452,-450.5 355,-450.5"/>
<text text-anchor="start" x="375" y="-456.2" font-family="Times New Roman,Times,Liberation Serif,serif" font-size="14.00">coordinate</text>
<polygon fill="none" stroke="black" points="452,-450.5 452,-472.5 636,-472.5 636,-450.5 452,-450.5"/>
<text text-anchor="start" x="491.88" y="-456.2" font-family="Times New Roman,Times,Liberation Serif,serif" font-size="14.00">Optional[Location]</text>
</a>
</g>
</g>
<!-- gdm.distribution.components.distribution_feeder.DistributionFeeder -->
<g id="node2" class="node">
<title>gdm.distribution.components.distribution_feeder.DistributionFeeder</title>
<g id="a_node2"><a xlink:title="gdm.distribution.components.distribution_feeder.DistributionFeeder&#10;&#10;Class interface for distribution feeder.&#10;">
<polygon fill="none" stroke="black" points="1032,-714.5 1032,-736.5 1148,-736.5 1148,-714.5 1032,-714.5"/>
<text text-anchor="start" x="1034.88" y="-721.2" font-family="Times New Roman,Times,Liberation Serif,serif" font-weight="bold" font-size="14.00">DistributionFeeder</text>
<polygon fill="none" stroke="black" points="1032,-692.5 1032,-714.5 1088,-714.5 1088,-692.5 1032,-692.5"/>
<text text-anchor="start" x="1048" y="-698.2" font-family="Times New Roman,Times,Liberation Serif,serif" font-size="14.00">uuid</text>
<polygon fill="none" stroke="black" points="1088,-692.5 1088,-714.5 1148,-714.5 1148,-692.5 1088,-692.5"/>
<text text-anchor="start" x="1101.12" y="-698.2" font-family="Times New Roman,Times,Liberation Serif,serif" font-size="14.00">UUID</text>
<polygon fill="none" stroke="black" points="1032,-670.5 1032,-692.5 1088,-692.5 1088,-670.5 1032,-670.5"/>
<text text-anchor="start" x="1045" y="-676.2" font-family="Times New Roman,Times,Liberation Serif,serif" font-size="14.00">name</text>
<polygon fill="none" stroke="black" points="1088,-670.5 1088,-692.5 1148,-692.5 1148,-670.5 1088,-670.5"/>
<text text-anchor="start" x="1111.25" y="-676.2" font-family="Times New Roman,Times,Liberation Serif,serif" font-size="14.00">str</text>
</a>
</g>
</g>
<!-- gdm.distribution.components.distribution_bus.DistributionBus&#45;&gt;gdm.distribution.components.distribution_feeder.DistributionFeeder -->
<g id="edge1" class="edge">
<title>gdm.distribution.components.distribution_bus.DistributionBus:e&#45;&gt;gdm.distribution.components.distribution_feeder.DistributionFeeder:w</title>
<path fill="none" stroke="black" d="M645.74,-571.81C688.93,-574.68 699.09,-596.91 744,-614.5 802.62,-637.47 938.51,-711.8 1013.46,-723.85"/>
<polyline fill="none" stroke="black" points="636,-571.5 641,-571.66"/>
<polyline fill="none" stroke="black" points="641,-571.66 645.99,-571.82"/>
<polyline fill="none" stroke="black" points="1032,-725.5 1027.02,-725.06"/>
<polygon fill="black" stroke="black" points="1026.47,-719.99 1025.58,-729.95 1023.59,-729.77 1024.48,-719.81 1026.47,-719.99"/>
<polyline fill="none" stroke="black" points="1027.02,-725.06 1022.04,-724.61"/>
<ellipse fill="none" stroke="black" cx="1017.56" cy="-724.21" rx="4" ry="4"/>
</g>
<!-- gdm.distribution.components.distribution_substation.DistributionSubstation -->
<g id="node3" class="node">
<title>gdm.distribution.components.distribution_substation.DistributionSubstation</title>
<g id="a_node3"><a xlink:title="gdm.distribution.components.distribution_substation.DistributionSubstation&#10;&#10;Class interface for distribution feeder.&#10;">
<polygon fill="none" stroke="black" points="745,-846.5 745,-868.5 923,-868.5 923,-846.5 745,-846.5"/>
<text text-anchor="start" x="768" y="-853.2" font-family="Times New Roman,Times,Liberation Serif,serif" font-weight="bold" font-size="14.00">DistributionSubstation</text>
<polygon fill="none" stroke="black" points="745,-824.5 745,-846.5 790,-846.5 790,-824.5 745,-824.5"/>
<text text-anchor="start" x="755.5" y="-830.2" font-family="Times New Roman,Times,Liberation Serif,serif" font-size="14.00">uuid</text>
<polygon fill="none" stroke="black" points="790,-824.5 790,-846.5 923,-846.5 923,-824.5 790,-824.5"/>
<text text-anchor="start" x="839.62" y="-830.2" font-family="Times New Roman,Times,Liberation Serif,serif" font-size="14.00">UUID</text>
<polygon fill="none" stroke="black" points="745,-802.5 745,-824.5 790,-824.5 790,-802.5 745,-802.5"/>
<text text-anchor="start" x="752.5" y="-808.2" font-family="Times New Roman,Times,Liberation Serif,serif" font-size="14.00">name</text>
<polygon fill="none" stroke="black" points="790,-802.5 790,-824.5 923,-824.5 923,-802.5 790,-802.5"/>
<text text-anchor="start" x="849.75" y="-808.2" font-family="Times New Roman,Times,Liberation Serif,serif" font-size="14.00">str</text>
<polygon fill="none" stroke="black" points="745,-780.5 745,-802.5 790,-802.5 790,-780.5 745,-780.5"/>
<text text-anchor="start" x="748" y="-786.2" font-family="Times New Roman,Times,Liberation Serif,serif" font-size="14.00">feeders</text>
<polygon fill="none" stroke="black" points="790,-780.5 790,-802.5 923,-802.5 923,-780.5 790,-780.5"/>
<text text-anchor="start" x="792.75" y="-786.2" font-family="Times New Roman,Times,Liberation Serif,serif" font-size="14.00">list[DistributionFeeder]</text>
</a>
</g>
</g>
<!-- gdm.distribution.components.distribution_bus.DistributionBus&#45;&gt;gdm.distribution.components.distribution_substation.DistributionSubstation -->
<g id="edge2" class="edge">
<title>gdm.distribution.components.distribution_bus.DistributionBus:e&#45;&gt;gdm.distribution.components.distribution_substation.DistributionSubstation:w</title>
<path fill="none" stroke="black" d="M645.8,-594.08C748.72,-606.95 635.36,-829.5 725.16,-855.11"/>
<polyline fill="none" stroke="black" points="636,-593.5 640.99,-593.8"/>
<polyline fill="none" stroke="black" points="640.99,-593.8 645.98,-594.09"/>
<polyline fill="none" stroke="black" points="744,-857.5 739.04,-856.87"/>
<polygon fill="black" stroke="black" points="738.68,-851.78 737.42,-861.7 735.43,-861.45 736.69,-851.53 738.68,-851.78"/>
<polyline fill="none" stroke="black" points="739.04,-856.87 734.08,-856.24"/>
<ellipse fill="none" stroke="black" cx="729.62" cy="-855.67" rx="4" ry="4"/>
</g>
<!-- gdm.distribution.limitset.VoltageLimitSet -->
<g id="node4" class="node">
<title>gdm.distribution.limitset.VoltageLimitSet</title>
<g id="a_node4"><a xlink:title="gdm.distribution.limitset.VoltageLimitSet&#10;&#10;Interface for voltage limit set.&#10;">
<polygon fill="none" stroke="black" points="758,-574.5 758,-596.5 910,-596.5 910,-574.5 758,-574.5"/>
<text text-anchor="start" x="786.75" y="-581.2" font-family="Times New Roman,Times,Liberation Serif,serif" font-weight="bold" font-size="14.00">VoltageLimitSet</text>
<polygon fill="none" stroke="black" points="758,-552.5 758,-574.5 820,-574.5 820,-552.5 758,-552.5"/>
<text text-anchor="start" x="777" y="-558.2" font-family="Times New Roman,Times,Liberation Serif,serif" font-size="14.00">uuid</text>
<polygon fill="none" stroke="black" points="820,-552.5 820,-574.5 910,-574.5 910,-552.5 820,-552.5"/>
<text text-anchor="start" x="848.12" y="-558.2" font-family="Times New Roman,Times,Liberation Serif,serif" font-size="14.00">UUID</text>
<polygon fill="none" stroke="black" points="758,-530.5 758,-552.5 820,-552.5 820,-530.5 758,-530.5"/>
<text text-anchor="start" x="774" y="-536.2" font-family="Times New Roman,Times,Liberation Serif,serif" font-size="14.00">name</text>
<polygon fill="none" stroke="black" points="820,-530.5 820,-552.5 910,-552.5 910,-530.5 820,-530.5"/>
<text text-anchor="start" x="858.25" y="-536.2" font-family="Times New Roman,Times,Liberation Serif,serif" font-size="14.00">str</text>
<polygon fill="none" stroke="black" points="758,-508.5 758,-530.5 820,-530.5 820,-508.5 758,-508.5"/>
<text text-anchor="start" x="760.88" y="-514.2" font-family="Times New Roman,Times,Liberation Serif,serif" font-size="14.00">limit_type</text>
<polygon fill="none" stroke="black" points="820,-508.5 820,-530.5 910,-530.5 910,-508.5 820,-508.5"/>
<text text-anchor="start" x="836.12" y="-514.2" font-family="Times New Roman,Times,Liberation Serif,serif" font-size="14.00">LimitType</text>
<polygon fill="none" stroke="black" points="758,-486.5 758,-508.5 820,-508.5 820,-486.5 758,-486.5"/>
<text text-anchor="start" x="774.38" y="-492.2" font-family="Times New Roman,Times,Liberation Serif,serif" font-size="14.00">value</text>
<polygon fill="none" stroke="black" points="820,-486.5 820,-508.5 910,-508.5 910,-486.5 820,-486.5"/>
<text text-anchor="start" x="822.62" y="-492.2" font-family="Times New Roman,Times,Liberation Serif,serif" font-size="14.00">PositiveVoltage</text>
</a>
</g>
</g>
<!-- gdm.distribution.components.distribution_bus.DistributionBus&#45;&gt;gdm.distribution.limitset.VoltageLimitSet -->
<g id="edge3" class="edge">
<title>gdm.distribution.components.distribution_bus.DistributionBus:e&#45;&gt;gdm.distribution.limitset.VoltageLimitSet:w</title>
<path fill="none" stroke="black" d="M645.95,-506.19C694.56,-513.25 696.24,-572.14 740.88,-583.58"/>
<polyline fill="none" stroke="black" points="636,-505.5 640.99,-505.85"/>
<polyline fill="none" stroke="black" points="640.99,-505.85 645.98,-506.19"/>
<polygon fill="black" stroke="black" points="746.74,-584.28 756.14,-589.93 752.04,-584.91 756.34,-585.42 756.34,-585.42 756.34,-585.42 752.04,-584.91 757.2,-580.99 746.74,-584.28"/>
<polyline fill="none" stroke="black" points="745.53,-584.13 740.56,-583.54"/>
</g>
<!-- infrasys.location.Location -->
<g id="node5" class="node">
<title>infrasys.location.Location</title>
<g id="a_node5"><a xlink:title="infrasys.location.Location&#10;&#10;Specifies geographic location.&#10;">
<polygon fill="none" stroke="black" points="786.5,-428.5 786.5,-450.5 881.5,-450.5 881.5,-428.5 786.5,-428.5"/>
<text text-anchor="start" x="808.5" y="-435.2" font-family="Times New Roman,Times,Liberation Serif,serif" font-weight="bold" font-size="14.00">Location</text>
<polygon fill="none" stroke="black" points="786.5,-406.5 786.5,-428.5 822.5,-428.5 822.5,-406.5 786.5,-406.5"/>
<text text-anchor="start" x="792.5" y="-412.2" font-family="Times New Roman,Times,Liberation Serif,serif" font-size="14.00">uuid</text>
<polygon fill="none" stroke="black" points="822.5,-406.5 822.5,-428.5 881.5,-428.5 881.5,-406.5 822.5,-406.5"/>
<text text-anchor="start" x="835.12" y="-412.2" font-family="Times New Roman,Times,Liberation Serif,serif" font-size="14.00">UUID</text>
<polygon fill="none" stroke="black" points="786.5,-384.5 786.5,-406.5 822.5,-406.5 822.5,-384.5 786.5,-384.5"/>
<text text-anchor="start" x="789.5" y="-390.2" font-family="Times New Roman,Times,Liberation Serif,serif" font-size="14.00">name</text>
<polygon fill="none" stroke="black" points="822.5,-384.5 822.5,-406.5 881.5,-406.5 881.5,-384.5 822.5,-384.5"/>
<text text-anchor="start" x="845.25" y="-390.2" font-family="Times New Roman,Times,Liberation Serif,serif" font-size="14.00">str</text>
<polygon fill="none" stroke="black" points="786.5,-362.5 786.5,-384.5 822.5,-384.5 822.5,-362.5 786.5,-362.5"/>
<text text-anchor="start" x="801.12" y="-368.2" font-family="Times New Roman,Times,Liberation Serif,serif" font-size="14.00">x</text>
<polygon fill="none" stroke="black" points="822.5,-362.5 822.5,-384.5 881.5,-384.5 881.5,-362.5 822.5,-362.5"/>
<text text-anchor="start" x="839.62" y="-368.2" font-family="Times New Roman,Times,Liberation Serif,serif" font-size="14.00">float</text>
<polygon fill="none" stroke="black" points="786.5,-340.5 786.5,-362.5 822.5,-362.5 822.5,-340.5 786.5,-340.5"/>
<text text-anchor="start" x="801.12" y="-346.2" font-family="Times New Roman,Times,Liberation Serif,serif" font-size="14.00">y</text>
<polygon fill="none" stroke="black" points="822.5,-340.5 822.5,-362.5 881.5,-362.5 881.5,-340.5 822.5,-340.5"/>
<text text-anchor="start" x="839.62" y="-346.2" font-family="Times New Roman,Times,Liberation Serif,serif" font-size="14.00">float</text>
<polygon fill="none" stroke="black" points="786.5,-318.5 786.5,-340.5 822.5,-340.5 822.5,-318.5 786.5,-318.5"/>
<text text-anchor="start" x="796.62" y="-324.2" font-family="Times New Roman,Times,Liberation Serif,serif" font-size="14.00">crs</text>
<polygon fill="none" stroke="black" points="822.5,-318.5 822.5,-340.5 881.5,-340.5 881.5,-318.5 822.5,-318.5"/>
<text text-anchor="start" x="825.38" y="-324.2" font-family="Times New Roman,Times,Liberation Serif,serif" font-size="14.00">str | None</text>
</a>
</g>
</g>
<!-- gdm.distribution.components.distribution_bus.DistributionBus&#45;&gt;infrasys.location.Location -->
<g id="edge4" class="edge">
<title>gdm.distribution.components.distribution_bus.DistributionBus:e&#45;&gt;infrasys.location.Location:w</title>
<path fill="none" stroke="black" d="M645.81,-461.34C698.29,-459.54 717.35,-443.55 766.03,-440.14"/>
<polyline fill="none" stroke="black" points="636,-461.5 641,-461.42"/>
<polyline fill="none" stroke="black" points="641,-461.42 646,-461.33"/>
<polyline fill="none" stroke="black" points="785,-439.5 780,-439.67"/>
<polygon fill="black" stroke="black" points="778.83,-434.71 779.17,-444.7 777.17,-444.77 776.84,-434.77 778.83,-434.71"/>
<polyline fill="none" stroke="black" points="780,-439.67 775.01,-439.84"/>
<ellipse fill="none" stroke="black" cx="770.51" cy="-439.99" rx="4" ry="4"/>
</g>
<!-- gdm.distribution.components.distribution_substation.DistributionSubstation&#45;&gt;gdm.distribution.components.distribution_feeder.DistributionFeeder -->
<g id="edge9" class="edge">
<title>gdm.distribution.components.distribution_substation.DistributionSubstation:e&#45;&gt;gdm.distribution.components.distribution_feeder.DistributionFeeder:w</title>
<path fill="none" stroke="black" d="M933.87,-790.76C974.89,-784.3 978.85,-737.58 1016.48,-727.44"/>
<polyline fill="none" stroke="black" points="924,-791.5 928.99,-791.13"/>
<polyline fill="none" stroke="black" points="928.99,-791.13 933.97,-790.75"/>
<polygon fill="black" stroke="black" points="1021.75,-726.78 1032.23,-730.01 1027.04,-726.12 1031.34,-725.58 1031.34,-725.58 1031.34,-725.58 1027.04,-726.12 1031.11,-721.08 1021.75,-726.78"/>
<polyline fill="none" stroke="black" points="1020.54,-726.93 1015.57,-727.55"/>
</g>
<!-- gdm.distribution.components.distribution_load.DistributionLoad -->
<g id="node6" class="node">
<title>gdm.distribution.components.distribution_load.DistributionLoad</title>
<g id="a_node6"><a xlink:title="gdm.distribution.components.distribution_load.DistributionLoad&#10;&#10;Interface for distribution load.&#10;">
<polygon fill="none" stroke="black" points="0,-791.5 0,-813.5 247,-813.5 247,-791.5 0,-791.5"/>
<text text-anchor="start" x="73.25" y="-798.2" font-family="Times New Roman,Times,Liberation Serif,serif" font-weight="bold" font-size="14.00">DistributionLoad</text>
<polygon fill="none" stroke="black" points="0,-769.5 0,-791.5 63,-791.5 63,-769.5 0,-769.5"/>
<text text-anchor="start" x="19.5" y="-775.2" font-family="Times New Roman,Times,Liberation Serif,serif" font-size="14.00">uuid</text>
<polygon fill="none" stroke="black" points="63,-769.5 63,-791.5 247,-791.5 247,-769.5 63,-769.5"/>
<text text-anchor="start" x="138.12" y="-775.2" font-family="Times New Roman,Times,Liberation Serif,serif" font-size="14.00">UUID</text>
<polygon fill="none" stroke="black" points="0,-747.5 0,-769.5 63,-769.5 63,-747.5 0,-747.5"/>
<text text-anchor="start" x="16.5" y="-753.2" font-family="Times New Roman,Times,Liberation Serif,serif" font-size="14.00">name</text>
<polygon fill="none" stroke="black" points="63,-747.5 63,-769.5 247,-769.5 247,-747.5 63,-747.5"/>
<text text-anchor="start" x="148.25" y="-753.2" font-family="Times New Roman,Times,Liberation Serif,serif" font-size="14.00">str</text>
<polygon fill="none" stroke="black" points="0,-725.5 0,-747.5 63,-747.5 63,-725.5 0,-725.5"/>
<text text-anchor="start" x="4.12" y="-731.2" font-family="Times New Roman,Times,Liberation Serif,serif" font-size="14.00">substation</text>
<polygon fill="none" stroke="black" points="63,-725.5 63,-747.5 247,-747.5 247,-725.5 63,-725.5"/>
<text text-anchor="start" x="65.75" y="-731.2" font-family="Times New Roman,Times,Liberation Serif,serif" font-size="14.00">Optional[DistributionSubstation]</text>
<polygon fill="none" stroke="black" points="0,-703.5 0,-725.5 63,-725.5 63,-703.5 0,-703.5"/>
<text text-anchor="start" x="14.62" y="-709.2" font-family="Times New Roman,Times,Liberation Serif,serif" font-size="14.00">feeder</text>
<polygon fill="none" stroke="black" points="63,-703.5 63,-725.5 247,-725.5 247,-703.5 63,-703.5"/>
<text text-anchor="start" x="75.88" y="-709.2" font-family="Times New Roman,Times,Liberation Serif,serif" font-size="14.00">Optional[DistributionFeeder]</text>
<polygon fill="none" stroke="black" points="0,-681.5 0,-703.5 63,-703.5 63,-681.5 0,-681.5"/>
<text text-anchor="start" x="3.75" y="-687.2" font-family="Times New Roman,Times,Liberation Serif,serif" font-size="14.00">in_service</text>
<polygon fill="none" stroke="black" points="63,-681.5 63,-703.5 247,-703.5 247,-681.5 63,-681.5"/>
<text text-anchor="start" x="143" y="-687.2" font-family="Times New Roman,Times,Liberation Serif,serif" font-size="14.00">bool</text>
<polygon fill="none" stroke="black" points="0,-659.5 0,-681.5 63,-681.5 63,-659.5 0,-659.5"/>
<text text-anchor="start" x="22.12" y="-665.2" font-family="Times New Roman,Times,Liberation Serif,serif" font-size="14.00">bus</text>
<polygon fill="none" stroke="black" points="63,-659.5 63,-681.5 247,-681.5 247,-659.5 63,-659.5"/>
<text text-anchor="start" x="111.88" y="-665.2" font-family="Times New Roman,Times,Liberation Serif,serif" font-size="14.00">DistributionBus</text>
<polygon fill="none" stroke="black" points="0,-637.5 0,-659.5 63,-659.5 63,-637.5 0,-637.5"/>
<text text-anchor="start" x="13.5" y="-643.2" font-family="Times New Roman,Times,Liberation Serif,serif" font-size="14.00">phases</text>
<polygon fill="none" stroke="black" points="63,-637.5 63,-659.5 247,-659.5 247,-637.5 63,-637.5"/>
<text text-anchor="start" x="126.5" y="-643.2" font-family="Times New Roman,Times,Liberation Serif,serif" font-size="14.00">list[Phase]</text>
<polygon fill="none" stroke="black" points="0,-615.5 0,-637.5 63,-637.5 63,-615.5 0,-615.5"/>
<text text-anchor="start" x="2.62" y="-621.2" font-family="Times New Roman,Times,Liberation Serif,serif" font-size="14.00">equipment</text>
<polygon fill="none" stroke="black" points="63,-615.5 63,-637.5 247,-637.5 247,-615.5 63,-615.5"/>
<text text-anchor="start" x="111.12" y="-621.2" font-family="Times New Roman,Times,Liberation Serif,serif" font-size="14.00">LoadEquipment</text>
</a>
</g>
</g>
<!-- gdm.distribution.components.distribution_load.DistributionLoad&#45;&gt;gdm.distribution.components.distribution_bus.DistributionBus -->
<g id="edge5" class="edge">
<title>gdm.distribution.components.distribution_load.DistributionLoad:e&#45;&gt;gdm.distribution.components.distribution_bus.DistributionBus:w</title>
<path fill="none" stroke="black" d="M256.91,-670.34C292.24,-669.13 306.66,-661.67 340.03,-659.89"/>
<polyline fill="none" stroke="black" points="247,-670.5 252,-670.42"/>
<polyline fill="none" stroke="black" points="252,-670.42 257,-670.33"/>
<polyline fill="none" stroke="black" points="355,-659.5 350,-659.63"/>
<polygon fill="black" stroke="black" points="348.87,-654.66 349.13,-664.65 347.13,-664.7 346.87,-654.71 348.87,-654.66"/>
<polyline fill="none" stroke="black" points="350,-659.63 345,-659.76"/>
<polygon fill="black" stroke="black" points="343.87,-654.78 344.13,-664.78 342.13,-664.83 341.88,-654.84 343.87,-654.78"/>
<polyline fill="none" stroke="black" points="345,-659.76 340,-659.89"/>
</g>
<!-- gdm.distribution.components.distribution_load.DistributionLoad&#45;&gt;gdm.distribution.components.distribution_feeder.DistributionFeeder -->
<g id="edge6" class="edge">
<title>gdm.distribution.components.distribution_load.DistributionLoad:e&#45;&gt;gdm.distribution.components.distribution_feeder.DistributionFeeder:w</title>
<path fill="none" stroke="black" d="M256.9,-714.5C591.28,-714.7 683.02,-725.1 1013.02,-725.49"/>
<polyline fill="none" stroke="black" points="247,-714.5 252,-714.5"/>
<polyline fill="none" stroke="black" points="252,-714.5 257,-714.5"/>
<polyline fill="none" stroke="black" points="1032,-725.5 1027,-725.5"/>
<polygon fill="black" stroke="black" points="1026,-720.5 1026,-730.5 1024,-730.5 1024,-720.5 1026,-720.5"/>
<polyline fill="none" stroke="black" points="1027,-725.5 1022,-725.49"/>
<ellipse fill="none" stroke="black" cx="1017.5" cy="-725.49" rx="4" ry="4"/>
</g>
<!-- gdm.distribution.components.distribution_load.DistributionLoad&#45;&gt;gdm.distribution.components.distribution_substation.DistributionSubstation -->
<g id="edge7" class="edge">
<title>gdm.distribution.components.distribution_load.DistributionLoad:e&#45;&gt;gdm.distribution.components.distribution_substation.DistributionSubstation:w</title>
<path fill="none" stroke="black" d="M256.67,-736.77C369.04,-742.7 606.6,-845.73 725.32,-856.58"/>
<polyline fill="none" stroke="black" points="247,-736.5 252,-736.64"/>
<polyline fill="none" stroke="black" points="252,-736.64 257,-736.78"/>
<polyline fill="none" stroke="black" points="744,-857.5 739.01,-857.25"/>
<polygon fill="black" stroke="black" points="738.25,-852.21 737.76,-862.2 735.76,-862.1 736.26,-852.11 738.25,-852.21"/>
<polyline fill="none" stroke="black" points="739.01,-857.25 734.01,-857.01"/>
<ellipse fill="none" stroke="black" cx="729.52" cy="-856.78" rx="4" ry="4"/>
</g>
<!-- gdm.distribution.equipment.load_equipment.LoadEquipment -->
<g id="node7" class="node">
<title>gdm.distribution.equipment.load_equipment.LoadEquipment</title>
<g id="a_node7"><a xlink:title="gdm.distribution.equipment.load_equipment.LoadEquipment&#10;&#10;Interface for load model.&#10;">
<polygon fill="none" stroke="black" points="373,-359.5 373,-381.5 618,-381.5 618,-359.5 373,-359.5"/>
<text text-anchor="start" x="447.88" y="-366.2" font-family="Times New Roman,Times,Liberation Serif,serif" font-weight="bold" font-size="14.00">LoadEquipment</text>
<polygon fill="none" stroke="black" points="373,-337.5 373,-359.5 468,-359.5 468,-337.5 373,-337.5"/>
<text text-anchor="start" x="408.5" y="-343.2" font-family="Times New Roman,Times,Liberation Serif,serif" font-size="14.00">uuid</text>
<polygon fill="none" stroke="black" points="468,-337.5 468,-359.5 618,-359.5 618,-337.5 468,-337.5"/>
<text text-anchor="start" x="526.12" y="-343.2" font-family="Times New Roman,Times,Liberation Serif,serif" font-size="14.00">UUID</text>
<polygon fill="none" stroke="black" points="373,-315.5 373,-337.5 468,-337.5 468,-315.5 373,-315.5"/>
<text text-anchor="start" x="405.5" y="-321.2" font-family="Times New Roman,Times,Liberation Serif,serif" font-size="14.00">name</text>
<polygon fill="none" stroke="black" points="468,-315.5 468,-337.5 618,-337.5 618,-315.5 468,-315.5"/>
<text text-anchor="start" x="536.25" y="-321.2" font-family="Times New Roman,Times,Liberation Serif,serif" font-size="14.00">str</text>
<polygon fill="none" stroke="black" points="373,-293.5 373,-315.5 468,-315.5 468,-293.5 373,-293.5"/>
<text text-anchor="start" x="387.5" y="-299.2" font-family="Times New Roman,Times,Liberation Serif,serif" font-size="14.00">phase_loads</text>
<polygon fill="none" stroke="black" points="468,-293.5 468,-315.5 618,-315.5 618,-293.5 468,-293.5"/>
<text text-anchor="start" x="470.62" y="-299.2" font-family="Times New Roman,Times,Liberation Serif,serif" font-size="14.00">list[PhaseLoadEquipment]</text>
<polygon fill="none" stroke="black" points="373,-271.5 373,-293.5 468,-293.5 468,-271.5 373,-271.5"/>
<text text-anchor="start" x="375.88" y="-277.2" font-family="Times New Roman,Times,Liberation Serif,serif" font-size="14.00">connection_type</text>
<polygon fill="none" stroke="black" points="468,-271.5 468,-293.5 618,-293.5 618,-271.5 468,-271.5"/>
<text text-anchor="start" x="498.38" y="-277.2" font-family="Times New Roman,Times,Liberation Serif,serif" font-size="14.00">ConnectionType</text>
</a>
</g>
</g>
<!-- gdm.distribution.components.distribution_load.DistributionLoad&#45;&gt;gdm.distribution.equipment.load_equipment.LoadEquipment -->
<g id="edge8" class="edge">
<title>gdm.distribution.components.distribution_load.DistributionLoad:e&#45;&gt;gdm.distribution.equipment.load_equipment.LoadEquipment:w</title>
<path fill="none" stroke="black" d="M256.82,-625.94C361.85,-613.27 258.39,-391.34 356.63,-371.86"/>
<polyline fill="none" stroke="black" points="247,-626.5 251.99,-626.21"/>
<polyline fill="none" stroke="black" points="251.99,-626.21 256.98,-625.93"/>
<polyline fill="none" stroke="black" points="371.5,-370.5 366.52,-370.96"/>
<polygon fill="black" stroke="black" points="365.07,-366.07 365.98,-376.03 363.99,-376.21 363.08,-366.25 365.07,-366.07"/>
<polyline fill="none" stroke="black" points="366.52,-370.96 361.54,-371.41"/>
<polygon fill="black" stroke="black" points="360.09,-366.53 361,-376.48 359.01,-376.67 358.1,-366.71 360.09,-366.53"/>
<polyline fill="none" stroke="black" points="361.54,-371.41 356.56,-371.87"/>
</g>
<!-- gdm.distribution.equipment.phase_load_equipment.PhaseLoadEquipment -->
<g id="node8" class="node">
<title>gdm.distribution.equipment.phase_load_equipment.PhaseLoadEquipment</title>
<g id="a_node8"><a xlink:title="gdm.distribution.equipment.phase_load_equipment.PhaseLoadEquipment&#10;&#10;Interface for single phase load equipment.&#10; &#160;&#160;&#160;&#10;">
<polygon fill="none" stroke="black" points="744,-260.5 744,-282.5 924,-282.5 924,-260.5 744,-260.5"/>
<text text-anchor="start" x="769.5" y="-267.2" font-family="Times New Roman,Times,Liberation Serif,serif" font-weight="bold" font-size="14.00">PhaseLoadEquipment</text>
<polygon fill="none" stroke="black" points="744,-238.5 744,-260.5 837,-260.5 837,-238.5 744,-238.5"/>
<text text-anchor="start" x="778.5" y="-244.2" font-family="Times New Roman,Times,Liberation Serif,serif" font-size="14.00">uuid</text>
<polygon fill="none" stroke="black" points="837,-238.5 837,-260.5 924,-260.5 924,-238.5 837,-238.5"/>
<text text-anchor="start" x="863.62" y="-244.2" font-family="Times New Roman,Times,Liberation Serif,serif" font-size="14.00">UUID</text>
<polygon fill="none" stroke="black" points="744,-216.5 744,-238.5 837,-238.5 837,-216.5 744,-216.5"/>
<text text-anchor="start" x="775.5" y="-222.2" font-family="Times New Roman,Times,Liberation Serif,serif" font-size="14.00">name</text>
<polygon fill="none" stroke="black" points="837,-216.5 837,-238.5 924,-238.5 924,-216.5 837,-216.5"/>
<text text-anchor="start" x="873.75" y="-222.2" font-family="Times New Roman,Times,Liberation Serif,serif" font-size="14.00">str</text>
<polygon fill="none" stroke="black" points="744,-194.5 744,-216.5 837,-216.5 837,-194.5 744,-194.5"/>
<text text-anchor="start" x="760.12" y="-200.2" font-family="Times New Roman,Times,Liberation Serif,serif" font-size="14.00">real_power</text>
<polygon fill="none" stroke="black" points="837,-194.5 837,-216.5 924,-216.5 924,-194.5 837,-194.5"/>
<text text-anchor="start" x="845.25" y="-200.2" font-family="Times New Roman,Times,Liberation Serif,serif" font-size="14.00">ActivePower</text>
<polygon fill="none" stroke="black" points="744,-172.5 744,-194.5 837,-194.5 837,-172.5 744,-172.5"/>
<text text-anchor="start" x="748.88" y="-178.2" font-family="Times New Roman,Times,Liberation Serif,serif" font-size="14.00">reactive_power</text>
<polygon fill="none" stroke="black" points="837,-172.5 837,-194.5 924,-194.5 924,-172.5 837,-172.5"/>
<text text-anchor="start" x="839.62" y="-178.2" font-family="Times New Roman,Times,Liberation Serif,serif" font-size="14.00">ReactivePower</text>
<polygon fill="none" stroke="black" points="744,-150.5 744,-172.5 837,-172.5 837,-150.5 744,-150.5"/>
<text text-anchor="start" x="774" y="-156.2" font-family="Times New Roman,Times,Liberation Serif,serif" font-size="14.00">z_real</text>
<polygon fill="none" stroke="black" points="837,-150.5 837,-172.5 924,-172.5 924,-150.5 837,-150.5"/>
<text text-anchor="start" x="868.12" y="-156.2" font-family="Times New Roman,Times,Liberation Serif,serif" font-size="14.00">float</text>
<polygon fill="none" stroke="black" points="744,-128.5 744,-150.5 837,-150.5 837,-128.5 744,-128.5"/>
<text text-anchor="start" x="770.25" y="-134.2" font-family="Times New Roman,Times,Liberation Serif,serif" font-size="14.00">z_imag</text>
<polygon fill="none" stroke="black" points="837,-128.5 837,-150.5 924,-150.5 924,-128.5 837,-128.5"/>
<text text-anchor="start" x="868.12" y="-134.2" font-family="Times New Roman,Times,Liberation Serif,serif" font-size="14.00">float</text>
<polygon fill="none" stroke="black" points="744,-106.5 744,-128.5 837,-128.5 837,-106.5 744,-106.5"/>
<text text-anchor="start" x="775.12" y="-112.2" font-family="Times New Roman,Times,Liberation Serif,serif" font-size="14.00">i_real</text>
<polygon fill="none" stroke="black" points="837,-106.5 837,-128.5 924,-128.5 924,-106.5 837,-106.5"/>
<text text-anchor="start" x="868.12" y="-112.2" font-family="Times New Roman,Times,Liberation Serif,serif" font-size="14.00">float</text>
<polygon fill="none" stroke="black" points="744,-84.5 744,-106.5 837,-106.5 837,-84.5 744,-84.5"/>
<text text-anchor="start" x="771.38" y="-90.2" font-family="Times New Roman,Times,Liberation Serif,serif" font-size="14.00">i_imag</text>
<polygon fill="none" stroke="black" points="837,-84.5 837,-106.5 924,-106.5 924,-84.5 837,-84.5"/>
<text text-anchor="start" x="868.12" y="-90.2" font-family="Times New Roman,Times,Liberation Serif,serif" font-size="14.00">float</text>
<polygon fill="none" stroke="black" points="744,-62.5 744,-84.5 837,-84.5 837,-62.5 744,-62.5"/>
<text text-anchor="start" x="773.62" y="-68.2" font-family="Times New Roman,Times,Liberation Serif,serif" font-size="14.00">p_real</text>
<polygon fill="none" stroke="black" points="837,-62.5 837,-84.5 924,-84.5 924,-62.5 837,-62.5"/>
<text text-anchor="start" x="868.12" y="-68.2" font-family="Times New Roman,Times,Liberation Serif,serif" font-size="14.00">float</text>
<polygon fill="none" stroke="black" points="744,-40.5 744,-62.5 837,-62.5 837,-40.5 744,-40.5"/>
<text text-anchor="start" x="769.88" y="-46.2" font-family="Times New Roman,Times,Liberation Serif,serif" font-size="14.00">p_imag</text>
<polygon fill="none" stroke="black" points="837,-40.5 837,-62.5 924,-62.5 924,-40.5 837,-40.5"/>
<text text-anchor="start" x="868.12" y="-46.2" font-family="Times New Roman,Times,Liberation Serif,serif" font-size="14.00">float</text>
<polygon fill="none" stroke="black" points="744,-18.5 744,-40.5 837,-40.5 837,-18.5 744,-18.5"/>
<text text-anchor="start" x="747" y="-24.2" font-family="Times New Roman,Times,Liberation Serif,serif" font-size="14.00">num_customers</text>
<polygon fill="none" stroke="black" points="837,-18.5 837,-40.5 924,-40.5 924,-18.5 837,-18.5"/>
<text text-anchor="start" x="845.25" y="-24.2" font-family="Times New Roman,Times,Liberation Serif,serif" font-size="14.00">Optional[int]</text>
</a>
</g>
</g>
<!-- gdm.distribution.equipment.load_equipment.LoadEquipment&#45;&gt;gdm.distribution.equipment.phase_load_equipment.PhaseLoadEquipment -->
<g id="edge10" class="edge">
<title>gdm.distribution.equipment.load_equipment.LoadEquipment:e&#45;&gt;gdm.distribution.equipment.phase_load_equipment.PhaseLoadEquipment:w</title>
<path fill="none" stroke="black" d="M629.4,-304.15C672.99,-301 687.26,-277.36 728.28,-272.41"/>
<polyline fill="none" stroke="black" points="619.5,-304.5 624.5,-304.32"/>
<polyline fill="none" stroke="black" points="624.5,-304.32 629.49,-304.15"/>
<polygon fill="black" stroke="black" points="733.68,-272.1 743.93,-276.01 739.01,-271.79 743.33,-271.54 743.33,-271.54 743.33,-271.54 739.01,-271.79 743.41,-267.03 733.68,-272.1"/>
<polyline fill="none" stroke="black" points="732.47,-272.17 727.47,-272.45"/>
</g>
</g>
</svg>
