<?xml version="1.0" encoding="UTF-8" standalone="no"?>
<!DOCTYPE svg PUBLIC "-//W3C//DTD SVG 1.1//EN"
 "http://www.w3.org/Graphics/SVG/1.1/DTD/svg11.dtd">
<!-- Generated by graphviz version 12.2.1 (20241206.2353)
 -->
<!-- Title: Entity Relationship Diagram created by erdantic Pages: 1 -->
<svg width="564pt" height="364pt"
 viewBox="0.00 0.00 563.75 363.50" xmlns="http://www.w3.org/2000/svg" xmlns:xlink="http://www.w3.org/1999/xlink">
<g id="graph0" class="graph" transform="scale(1 1) rotate(0) translate(4 359.5)">
<title>Entity Relationship Diagram created by erdantic</title>
<polygon fill="white" stroke="none" points="-4,4 -4,-359.5 559.75,-359.5 559.75,4 -4,4"/>
<text text-anchor="middle" x="277.88" y="-5.95" font-family="Times New Roman,Times,Liberation Serif,serif" font-size="9.00" fill="#a8a8a8">Created by erdantic v1.0.5 &lt;https://github.com/drivendataorg/erdantic&gt;</text>
<!-- gdm.distribution.common.curve.TimeCurrentCurve -->
<g id="node1" class="node">
<title>gdm.distribution.common.curve.TimeCurrentCurve</title>
<g id="a_node1"><a xlink:title="gdm.distribution.common.curve.TimeCurrentCurve&#10;&#10;An interface for time current curve.&#10;">
<polygon fill="none" stroke="black" points="405,-216 405,-238.5 525,-238.5 525,-216 405,-216"/>
<text text-anchor="start" x="408" y="-223.2" font-family="Times New Roman,Times,Liberation Serif,serif" font-weight="bold" font-size="14.00">TimeCurrentCurve</text>
<polygon fill="none" stroke="black" points="405,-193.5 405,-216 466.12,-216 466.12,-193.5 405,-193.5"/>
<text text-anchor="start" x="423.56" y="-199.7" font-family="Times New Roman,Times,Liberation Serif,serif" font-size="14.00">uuid</text>
<polygon fill="none" stroke="black" points="466.12,-193.5 466.12,-216 525,-216 525,-193.5 466.12,-193.5"/>
<text text-anchor="start" x="478.69" y="-199.7" font-family="Times New Roman,Times,Liberation Serif,serif" font-size="14.00">UUID</text>
<polygon fill="none" stroke="black" points="405,-171 405,-193.5 466.12,-193.5 466.12,-171 405,-171"/>
<text text-anchor="start" x="420.56" y="-177.2" font-family="Times New Roman,Times,Liberation Serif,serif" font-size="14.00">name</text>
<polygon fill="none" stroke="black" points="466.12,-171 466.12,-193.5 525,-193.5 525,-171 466.12,-171"/>
<text text-anchor="start" x="488.81" y="-177.2" font-family="Times New Roman,Times,Liberation Serif,serif" font-size="14.00">str</text>
<polygon fill="none" stroke="black" points="405,-148.5 405,-171 466.12,-171 466.12,-148.5 405,-148.5"/>
<text text-anchor="start" x="413.81" y="-154.7" font-family="Times New Roman,Times,Liberation Serif,serif" font-size="14.00">curve_x</text>
<polygon fill="none" stroke="black" points="466.12,-148.5 466.12,-171 525,-171 525,-148.5 466.12,-148.5"/>
<text text-anchor="start" x="474.94" y="-154.7" font-family="Times New Roman,Times,Liberation Serif,serif" font-size="14.00">Current</text>
<polygon fill="none" stroke="black" points="405,-126 405,-148.5 466.12,-148.5 466.12,-126 405,-126"/>
<text text-anchor="start" x="413.81" y="-132.2" font-family="Times New Roman,Times,Liberation Serif,serif" font-size="14.00">curve_y</text>
<polygon fill="none" stroke="black" points="466.12,-126 466.12,-148.5 525,-148.5 525,-126 466.12,-126"/>
<text text-anchor="start" x="480.94" y="-132.2" font-family="Times New Roman,Times,Liberation Serif,serif" font-size="14.00">Time</text>
</a>
</g>
</g>
<!-- gdm.distribution.controllers.distribution_recloser_controller.DistributionRecloserController -->
<g id="node2" class="node">
<title>gdm.distribution.controllers.distribution_recloser_controller.DistributionRecloserController</title>
<g id="a_node2"><a xlink:title="gdm.distribution.controllers.distribution_recloser_controller.DistributionRecloserController&#10;&#10;Interface for distribution recloser controller.&#10;">
<polygon fill="none" stroke="black" points="0,-333 0,-355.5 266.25,-355.5 266.25,-333 0,-333"/>
<text text-anchor="start" x="42.75" y="-340.2" font-family="Times New Roman,Times,Liberation Serif,serif" font-weight="bold" font-size="14.00">DistributionRecloserController</text>
<polygon fill="none" stroke="black" points="0,-310.5 0,-333 97.5,-333 97.5,-310.5 0,-310.5"/>
<text text-anchor="start" x="36.75" y="-316.7" font-family="Times New Roman,Times,Liberation Serif,serif" font-size="14.00">uuid</text>
<polygon fill="none" stroke="black" points="97.5,-310.5 97.5,-333 266.25,-333 266.25,-310.5 97.5,-310.5"/>
<text text-anchor="start" x="165" y="-316.7" font-family="Times New Roman,Times,Liberation Serif,serif" font-size="14.00">UUID</text>
<polygon fill="none" stroke="black" points="0,-288 0,-310.5 97.5,-310.5 97.5,-288 0,-288"/>
<text text-anchor="start" x="33.75" y="-294.2" font-family="Times New Roman,Times,Liberation Serif,serif" font-size="14.00">name</text>
<polygon fill="none" stroke="black" points="97.5,-288 97.5,-310.5 266.25,-310.5 266.25,-288 97.5,-288"/>
<text text-anchor="start" x="175.12" y="-294.2" font-family="Times New Roman,Times,Liberation Serif,serif" font-size="14.00">str</text>
<polygon fill="none" stroke="black" points="0,-265.5 0,-288 97.5,-288 97.5,-265.5 0,-265.5"/>
<text text-anchor="start" x="34.12" y="-271.7" font-family="Times New Roman,Times,Liberation Serif,serif" font-size="14.00">delay</text>
<polygon fill="none" stroke="black" points="97.5,-265.5 97.5,-288 266.25,-288 266.25,-265.5 97.5,-265.5"/>
<text text-anchor="start" x="167.25" y="-271.7" font-family="Times New Roman,Times,Liberation Serif,serif" font-size="14.00">Time</text>
<polygon fill="none" stroke="black" points="0,-243 0,-265.5 97.5,-265.5 97.5,-243 0,-243"/>
<text text-anchor="start" x="5.25" y="-249.2" font-family="Times New Roman,Times,Liberation Serif,serif" font-size="14.00">ground_delayed</text>
<polygon fill="none" stroke="black" points="97.5,-243 97.5,-265.5 266.25,-265.5 266.25,-243 97.5,-243"/>
<text text-anchor="start" x="130.12" y="-249.2" font-family="Times New Roman,Times,Liberation Serif,serif" font-size="14.00">TimeCurrentCurve</text>
<polygon fill="none" stroke="black" points="0,-220.5 0,-243 97.5,-243 97.5,-220.5 0,-220.5"/>
<text text-anchor="start" x="16.5" y="-226.7" font-family="Times New Roman,Times,Liberation Serif,serif" font-size="14.00">ground_fast</text>
<polygon fill="none" stroke="black" points="97.5,-220.5 97.5,-243 266.25,-243 266.25,-220.5 97.5,-220.5"/>
<text text-anchor="start" x="130.12" y="-226.7" font-family="Times New Roman,Times,Liberation Serif,serif" font-size="14.00">TimeCurrentCurve</text>
<polygon fill="none" stroke="black" points="0,-198 0,-220.5 97.5,-220.5 97.5,-198 0,-198"/>
<text text-anchor="start" x="9" y="-204.2" font-family="Times New Roman,Times,Liberation Serif,serif" font-size="14.00">phase_delayed</text>
<polygon fill="none" stroke="black" points="97.5,-198 97.5,-220.5 266.25,-220.5 266.25,-198 97.5,-198"/>
<text text-anchor="start" x="130.12" y="-204.2" font-family="Times New Roman,Times,Liberation Serif,serif" font-size="14.00">TimeCurrentCurve</text>
<polygon fill="none" stroke="black" points="0,-175.5 0,-198 97.5,-198 97.5,-175.5 0,-175.5"/>
<text text-anchor="start" x="20.25" y="-181.7" font-family="Times New Roman,Times,Liberation Serif,serif" font-size="14.00">phase_fast</text>
<polygon fill="none" stroke="black" points="97.5,-175.5 97.5,-198 266.25,-198 266.25,-175.5 97.5,-175.5"/>
<text text-anchor="start" x="130.12" y="-181.7" font-family="Times New Roman,Times,Liberation Serif,serif" font-size="14.00">TimeCurrentCurve</text>
<polygon fill="none" stroke="black" points="0,-153 0,-175.5 97.5,-175.5 97.5,-153 0,-153"/>
<text text-anchor="start" x="10.5" y="-159.2" font-family="Times New Roman,Times,Liberation Serif,serif" font-size="14.00">num_fast_ops</text>
<polygon fill="none" stroke="black" points="97.5,-153 97.5,-175.5 266.25,-175.5 266.25,-153 97.5,-153"/>
<text text-anchor="start" x="174.75" y="-159.2" font-family="Times New Roman,Times,Liberation Serif,serif" font-size="14.00">int</text>
<polygon fill="none" stroke="black" points="0,-130.5 0,-153 97.5,-153 97.5,-130.5 0,-130.5"/>
<text text-anchor="start" x="19.12" y="-136.7" font-family="Times New Roman,Times,Liberation Serif,serif" font-size="14.00">num_shots</text>
<polygon fill="none" stroke="black" points="97.5,-130.5 97.5,-153 266.25,-153 266.25,-130.5 97.5,-130.5"/>
<text text-anchor="start" x="174.75" y="-136.7" font-family="Times New Roman,Times,Liberation Serif,serif" font-size="14.00">int</text>
<polygon fill="none" stroke="black" points="0,-108 0,-130.5 97.5,-130.5 97.5,-108 0,-108"/>
<text text-anchor="start" x="3" y="-114.2" font-family="Times New Roman,Times,Liberation Serif,serif" font-size="14.00">reclose_intervals</text>
<polygon fill="none" stroke="black" points="97.5,-108 97.5,-130.5 266.25,-130.5 266.25,-108 97.5,-108"/>
<text text-anchor="start" x="167.25" y="-114.2" font-family="Times New Roman,Times,Liberation Serif,serif" font-size="14.00">Time</text>
<polygon fill="none" stroke="black" points="0,-85.5 0,-108 97.5,-108 97.5,-85.5 0,-85.5"/>
<text text-anchor="start" x="20.25" y="-91.7" font-family="Times New Roman,Times,Liberation Serif,serif" font-size="14.00">reset_time</text>
<polygon fill="none" stroke="black" points="97.5,-85.5 97.5,-108 266.25,-108 266.25,-85.5 97.5,-85.5"/>
<text text-anchor="start" x="167.25" y="-91.7" font-family="Times New Roman,Times,Liberation Serif,serif" font-size="14.00">Time</text>
<polygon fill="none" stroke="black" points="0,-63 0,-85.5 97.5,-85.5 97.5,-63 0,-63"/>
<text text-anchor="start" x="19.88" y="-69.2" font-family="Times New Roman,Times,Liberation Serif,serif" font-size="14.00">equipment</text>
<polygon fill="none" stroke="black" points="97.5,-63 97.5,-85.5 266.25,-85.5 266.25,-63 97.5,-63"/>
<text text-anchor="start" x="100.5" y="-69.2" font-family="Times New Roman,Times,Liberation Serif,serif" font-size="14.00">RecloserControllerEquipment</text>
</a>
</g>
</g>
<!-- gdm.distribution.controllers.distribution_recloser_controller.DistributionRecloserController&#45;&gt;gdm.distribution.common.curve.TimeCurrentCurve -->
<g id="edge1" class="edge">
<title>gdm.distribution.controllers.distribution_recloser_controller.DistributionRecloserController:e&#45;&gt;gdm.distribution.common.curve.TimeCurrentCurve:w</title>
<path fill="none" stroke="black" d="M276.06,-254.02C325.34,-251.61 342.04,-231.41 389.11,-227.8"/>
<polyline fill="none" stroke="black" points="266.25,-254.25 271.25,-254.13"/>
<polyline fill="none" stroke="black" points="271.25,-254.13 276.25,-254.01"/>
<polyline fill="none" stroke="black" points="404,-227.25 399,-227.44"/>
<polygon fill="black" stroke="black" points="397.82,-222.48 398.19,-232.47 396.19,-232.54 395.82,-222.55 397.82,-222.48"/>
<polyline fill="none" stroke="black" points="399,-227.44 394.01,-227.62"/>
<polygon fill="black" stroke="black" points="392.82,-222.66 393.19,-232.65 391.19,-232.73 390.82,-222.73 392.82,-222.66"/>
<polyline fill="none" stroke="black" points="394.01,-227.62 389.01,-227.81"/>
</g>
<!-- gdm.distribution.controllers.distribution_recloser_controller.DistributionRecloserController&#45;&gt;gdm.distribution.common.curve.TimeCurrentCurve -->
<g id="edge2" class="edge">
<title>gdm.distribution.controllers.distribution_recloser_controller.DistributionRecloserController:e&#45;&gt;gdm.distribution.common.curve.TimeCurrentCurve:w</title>
<path fill="none" stroke="black" d="M276.23,-231.71C324.5,-231.3 342.82,-227.96 389.06,-227.35"/>
<polyline fill="none" stroke="black" points="266.25,-231.75 271.25,-231.73"/>
<polyline fill="none" stroke="black" points="271.25,-231.73 276.25,-231.71"/>
<polyline fill="none" stroke="black" points="404,-227.25 399,-227.28"/>
<polygon fill="black" stroke="black" points="397.97,-222.29 398.03,-232.29 396.03,-232.3 395.97,-222.3 397.97,-222.29"/>
<polyline fill="none" stroke="black" points="399,-227.28 394,-227.31"/>
<polygon fill="black" stroke="black" points="392.97,-222.32 393.03,-232.32 391.03,-232.33 390.97,-222.33 392.97,-222.32"/>
<polyline fill="none" stroke="black" points="394,-227.31 389,-227.35"/>
</g>
<!-- gdm.distribution.controllers.distribution_recloser_controller.DistributionRecloserController&#45;&gt;gdm.distribution.common.curve.TimeCurrentCurve -->
<g id="edge3" class="edge">
<title>gdm.distribution.controllers.distribution_recloser_controller.DistributionRecloserController:e&#45;&gt;gdm.distribution.common.curve.TimeCurrentCurve:w</title>
<path fill="none" stroke="black" d="M275.97,-209.41C324.87,-211.01 342.46,-224.48 389.24,-226.88"/>
<polyline fill="none" stroke="black" points="266.25,-209.25 271.25,-209.33"/>
<polyline fill="none" stroke="black" points="271.25,-209.33 276.25,-209.41"/>
<polyline fill="none" stroke="black" points="404,-227.25 399,-227.13"/>
<polygon fill="black" stroke="black" points="398.13,-222.1 397.88,-232.1 395.88,-232.05 396.13,-222.05 398.13,-222.1"/>
<polyline fill="none" stroke="black" points="399,-227.13 394,-227"/>
<polygon fill="black" stroke="black" points="393.13,-221.98 392.88,-231.97 390.88,-231.92 391.13,-221.93 393.13,-221.98"/>
<polyline fill="none" stroke="black" points="394,-227 389,-226.88"/>
</g>
<!-- gdm.distribution.controllers.distribution_recloser_controller.DistributionRecloserController&#45;&gt;gdm.distribution.common.curve.TimeCurrentCurve -->
<g id="edge4" class="edge">
<title>gdm.distribution.controllers.distribution_recloser_controller.DistributionRecloserController:e&#45;&gt;gdm.distribution.common.curve.TimeCurrentCurve:w</title>
<path fill="none" stroke="black" d="M275.91,-187.08C326.41,-190.57 341.06,-221.11 389.12,-226.45"/>
<polyline fill="none" stroke="black" points="266.25,-186.75 271.25,-186.92"/>
<polyline fill="none" stroke="black" points="271.25,-186.92 276.24,-187.09"/>
<polyline fill="none" stroke="black" points="404,-227.25 399.01,-226.98"/>
<polygon fill="black" stroke="black" points="398.28,-221.94 397.74,-231.92 395.74,-231.82 396.28,-221.83 398.28,-221.94"/>
<polyline fill="none" stroke="black" points="399.01,-226.98 394.01,-226.72"/>
<polygon fill="black" stroke="black" points="393.28,-221.67 392.75,-231.66 390.75,-231.55 391.29,-221.56 393.28,-221.67"/>
<polyline fill="none" stroke="black" points="394.01,-226.72 389.02,-226.45"/>
</g>
<!-- gdm.distribution.equipment.recloser_controller_equipment.RecloserControllerEquipment -->
<g id="node3" class="node">
<title>gdm.distribution.equipment.recloser_controller_equipment.RecloserControllerEquipment</title>
<g id="a_node3"><a xlink:title="gdm.distribution.equipment.recloser_controller_equipment.RecloserControllerEquipment&#10;&#10;Class interface for recloser controller equipment.&#10;">
<polygon fill="none" stroke="black" points="374.25,-63.5 374.25,-86 555.75,-86 555.75,-63.5 374.25,-63.5"/>
<text text-anchor="start" x="377.25" y="-70.7" font-family="Times New Roman,Times,Liberation Serif,serif" font-weight="bold" font-size="14.00">RecloserControllerEquipment</text>
<polygon fill="none" stroke="black" points="374.25,-41 374.25,-63.5 463.12,-63.5 463.12,-41 374.25,-41"/>
<text text-anchor="start" x="406.69" y="-47.2" font-family="Times New Roman,Times,Liberation Serif,serif" font-size="14.00">uuid</text>
<polygon fill="none" stroke="black" points="463.12,-41 463.12,-63.5 555.75,-63.5 555.75,-41 463.12,-41"/>
<text text-anchor="start" x="492.56" y="-47.2" font-family="Times New Roman,Times,Liberation Serif,serif" font-size="14.00">UUID</text>
<polygon fill="none" stroke="black" points="374.25,-18.5 374.25,-41 463.12,-41 463.12,-18.5 374.25,-18.5"/>
<text text-anchor="start" x="403.69" y="-24.7" font-family="Times New Roman,Times,Liberation Serif,serif" font-size="14.00">name</text>
<polygon fill="none" stroke="black" points="463.12,-18.5 463.12,-41 555.75,-41 555.75,-18.5 463.12,-18.5"/>
<text text-anchor="start" x="502.69" y="-24.7" font-family="Times New Roman,Times,Liberation Serif,serif" font-size="14.00">str</text>
</a>
</g>
</g>
<!-- gdm.distribution.controllers.distribution_recloser_controller.DistributionRecloserController&#45;&gt;gdm.distribution.equipment.recloser_controller_equipment.RecloserControllerEquipment -->
<g id="edge5" class="edge">
<title>gdm.distribution.controllers.distribution_recloser_controller.DistributionRecloserController:e&#45;&gt;gdm.distribution.equipment.recloser_controller_equipment.RecloserControllerEquipment:w</title>
<path fill="none" stroke="black" d="M276.12,-74.26C311.32,-74.31 326.05,-74.65 359.33,-74.73"/>
<polyline fill="none" stroke="black" points="266.25,-74.25 271.25,-74.25"/>
<polyline fill="none" stroke="black" points="271.25,-74.25 276.25,-74.26"/>
<polyline fill="none" stroke="black" points="374.25,-74.75 369.25,-74.74"/>
<polygon fill="black" stroke="black" points="368.26,-69.74 368.24,-79.74 366.24,-79.74 366.26,-69.74 368.26,-69.74"/>
<polyline fill="none" stroke="black" points="369.25,-74.74 364.25,-74.74"/>
<polygon fill="black" stroke="black" points="363.26,-69.74 363.24,-79.74 361.24,-79.73 361.26,-69.73 363.26,-69.74"/>
<polyline fill="none" stroke="black" points="364.25,-74.74 359.25,-74.73"/>
</g>
</g>
</svg>
