<?xml version="1.0" encoding="UTF-8" standalone="no"?>
<!DOCTYPE svg PUBLIC "-//W3C//DTD SVG 1.1//EN"
 "http://www.w3.org/Graphics/SVG/1.1/DTD/svg11.dtd">
<!-- Generated by graphviz version 12.2.1 (20241206.2353)
 -->
<!-- Title: Entity Relationship Diagram created by erdantic Pages: 1 -->
<svg width="783pt" height="510pt"
 viewBox="0.00 0.00 782.75 510.00" xmlns="http://www.w3.org/2000/svg" xmlns:xlink="http://www.w3.org/1999/xlink">
<g id="graph0" class="graph" transform="scale(1 1) rotate(0) translate(4 506)">
<title>Entity Relationship Diagram created by erdantic</title>
<polygon fill="white" stroke="none" points="-4,4 -4,-506 778.75,-506 778.75,4 -4,4"/>
<text text-anchor="middle" x="387.38" y="-5.95" font-family="Times New Roman,Times,Liberation Serif,serif" font-size="9.00" fill="#a8a8a8">Created by erdantic v1.0.5 &lt;https://github.com/drivendataorg/erdantic&gt;</text>
<!-- gdm.distribution.common.limitset.VoltageLimitSet -->
<g id="node1" class="node">
<title>gdm.distribution.common.limitset.VoltageLimitSet</title>
<g id="a_node1"><a xlink:title="gdm.distribution.common.limitset.VoltageLimitSet&#10;&#10;Interface for voltage limit set.&#10;">
<polygon fill="none" stroke="black" points="384.75,-279.75 384.75,-302.25 537.75,-302.25 537.75,-279.75 384.75,-279.75"/>
<text text-anchor="start" x="414" y="-286.95" font-family="Times New Roman,Times,Liberation Serif,serif" font-weight="bold" font-size="14.00">VoltageLimitSet</text>
<polygon fill="none" stroke="black" points="384.75,-257.25 384.75,-279.75 447,-279.75 447,-257.25 384.75,-257.25"/>
<text text-anchor="start" x="403.88" y="-263.45" font-family="Times New Roman,Times,Liberation Serif,serif" font-size="14.00">uuid</text>
<polygon fill="none" stroke="black" points="447,-257.25 447,-279.75 537.75,-279.75 537.75,-257.25 447,-257.25"/>
<text text-anchor="start" x="475.5" y="-263.45" font-family="Times New Roman,Times,Liberation Serif,serif" font-size="14.00">UUID</text>
<polygon fill="none" stroke="black" points="384.75,-234.75 384.75,-257.25 447,-257.25 447,-234.75 384.75,-234.75"/>
<text text-anchor="start" x="400.88" y="-240.95" font-family="Times New Roman,Times,Liberation Serif,serif" font-size="14.00">name</text>
<polygon fill="none" stroke="black" points="447,-234.75 447,-257.25 537.75,-257.25 537.75,-234.75 447,-234.75"/>
<text text-anchor="start" x="485.62" y="-240.95" font-family="Times New Roman,Times,Liberation Serif,serif" font-size="14.00">str</text>
<polygon fill="none" stroke="black" points="384.75,-212.25 384.75,-234.75 447,-234.75 447,-212.25 384.75,-212.25"/>
<text text-anchor="start" x="387.75" y="-218.45" font-family="Times New Roman,Times,Liberation Serif,serif" font-size="14.00">limit_type</text>
<polygon fill="none" stroke="black" points="447,-212.25 447,-234.75 537.75,-234.75 537.75,-212.25 447,-212.25"/>
<text text-anchor="start" x="463.12" y="-218.45" font-family="Times New Roman,Times,Liberation Serif,serif" font-size="14.00">LimitType</text>
<polygon fill="none" stroke="black" points="384.75,-189.75 384.75,-212.25 447,-212.25 447,-189.75 384.75,-189.75"/>
<text text-anchor="start" x="401.25" y="-195.95" font-family="Times New Roman,Times,Liberation Serif,serif" font-size="14.00">value</text>
<polygon fill="none" stroke="black" points="447,-189.75 447,-212.25 537.75,-212.25 537.75,-189.75 447,-189.75"/>
<text text-anchor="start" x="450" y="-195.95" font-family="Times New Roman,Times,Liberation Serif,serif" font-size="14.00">PositiveVoltage</text>
</a>
</g>
</g>
<!-- gdm.distribution.components.distribution_bus.DistributionBus -->
<g id="node2" class="node">
<title>gdm.distribution.components.distribution_bus.DistributionBus</title>
<g id="a_node2"><a xlink:title="gdm.distribution.components.distribution_bus.DistributionBus&#10;&#10;Interface for distribution bus.&#10;&#10;Examples:&#10; &#160;&#160;&#160;&gt;&gt;&gt; from gdm import DistributionBus&#10; &#160;&#160;&#160;&gt;&gt;&gt; DistributionBus.example()&#10;">
<polygon fill="none" stroke="black" points="0,-436 0,-458.5 264,-458.5 264,-436 0,-436"/>
<text text-anchor="start" x="85.88" y="-443.2" font-family="Times New Roman,Times,Liberation Serif,serif" font-weight="bold" font-size="14.00">DistributionBus</text>
<polygon fill="none" stroke="black" points="0,-413.5 0,-436 79.5,-436 79.5,-413.5 0,-413.5"/>
<text text-anchor="start" x="27.75" y="-419.7" font-family="Times New Roman,Times,Liberation Serif,serif" font-size="14.00">uuid</text>
<polygon fill="none" stroke="black" points="79.5,-413.5 79.5,-436 264,-436 264,-413.5 79.5,-413.5"/>
<text text-anchor="start" x="154.88" y="-419.7" font-family="Times New Roman,Times,Liberation Serif,serif" font-size="14.00">UUID</text>
<polygon fill="none" stroke="black" points="0,-391 0,-413.5 79.5,-413.5 79.5,-391 0,-391"/>
<text text-anchor="start" x="24.75" y="-397.2" font-family="Times New Roman,Times,Liberation Serif,serif" font-size="14.00">name</text>
<polygon fill="none" stroke="black" points="79.5,-391 79.5,-413.5 264,-413.5 264,-391 79.5,-391"/>
<text text-anchor="start" x="165" y="-397.2" font-family="Times New Roman,Times,Liberation Serif,serif" font-size="14.00">str</text>
<polygon fill="none" stroke="black" points="0,-368.5 0,-391 79.5,-391 79.5,-368.5 0,-368.5"/>
<text text-anchor="start" x="12.38" y="-374.7" font-family="Times New Roman,Times,Liberation Serif,serif" font-size="14.00">substation</text>
<polygon fill="none" stroke="black" points="79.5,-368.5 79.5,-391 264,-391 264,-368.5 79.5,-368.5"/>
<text text-anchor="start" x="82.5" y="-374.7" font-family="Times New Roman,Times,Liberation Serif,serif" font-size="14.00">Optional[DistributionSubstation]</text>
<polygon fill="none" stroke="black" points="0,-346 0,-368.5 79.5,-368.5 79.5,-346 0,-346"/>
<text text-anchor="start" x="22.88" y="-352.2" font-family="Times New Roman,Times,Liberation Serif,serif" font-size="14.00">feeder</text>
<polygon fill="none" stroke="black" points="79.5,-346 79.5,-368.5 264,-368.5 264,-346 79.5,-346"/>
<text text-anchor="start" x="92.62" y="-352.2" font-family="Times New Roman,Times,Liberation Serif,serif" font-size="14.00">Optional[DistributionFeeder]</text>
<polygon fill="none" stroke="black" points="0,-323.5 0,-346 79.5,-346 79.5,-323.5 0,-323.5"/>
<text text-anchor="start" x="4.88" y="-329.7" font-family="Times New Roman,Times,Liberation Serif,serif" font-size="14.00">voltage_type</text>
<polygon fill="none" stroke="black" points="79.5,-323.5 79.5,-346 264,-346 264,-323.5 79.5,-323.5"/>
<text text-anchor="start" x="134.62" y="-329.7" font-family="Times New Roman,Times,Liberation Serif,serif" font-size="14.00">VoltageTypes</text>
<polygon fill="none" stroke="black" points="0,-301 0,-323.5 79.5,-323.5 79.5,-301 0,-301"/>
<text text-anchor="start" x="21.75" y="-307.2" font-family="Times New Roman,Times,Liberation Serif,serif" font-size="14.00">phases</text>
<polygon fill="none" stroke="black" points="79.5,-301 79.5,-323.5 264,-323.5 264,-301 79.5,-301"/>
<text text-anchor="start" x="143.25" y="-307.2" font-family="Times New Roman,Times,Liberation Serif,serif" font-size="14.00">list[Phase]</text>
<polygon fill="none" stroke="black" points="0,-278.5 0,-301 79.5,-301 79.5,-278.5 0,-278.5"/>
<text text-anchor="start" x="4.12" y="-284.7" font-family="Times New Roman,Times,Liberation Serif,serif" font-size="14.00">voltagelimits</text>
<polygon fill="none" stroke="black" points="79.5,-278.5 79.5,-301 264,-301 264,-278.5 79.5,-278.5"/>
<text text-anchor="start" x="114.38" y="-284.7" font-family="Times New Roman,Times,Liberation Serif,serif" font-size="14.00">list[VoltageLimitSet]</text>
<polygon fill="none" stroke="black" points="0,-256 0,-278.5 79.5,-278.5 79.5,-256 0,-256"/>
<text text-anchor="start" x="3" y="-262.2" font-family="Times New Roman,Times,Liberation Serif,serif" font-size="14.00">rated_voltage</text>
<polygon fill="none" stroke="black" points="79.5,-256 79.5,-278.5 264,-278.5 264,-256 79.5,-256"/>
<text text-anchor="start" x="129.38" y="-262.2" font-family="Times New Roman,Times,Liberation Serif,serif" font-size="14.00">PositiveVoltage</text>
<polygon fill="none" stroke="black" points="0,-233.5 0,-256 79.5,-256 79.5,-233.5 0,-233.5"/>
<text text-anchor="start" x="11.25" y="-239.7" font-family="Times New Roman,Times,Liberation Serif,serif" font-size="14.00">coordinate</text>
<polygon fill="none" stroke="black" points="79.5,-233.5 79.5,-256 264,-256 264,-233.5 79.5,-233.5"/>
<text text-anchor="start" x="119.62" y="-239.7" font-family="Times New Roman,Times,Liberation Serif,serif" font-size="14.00">Optional[Location]</text>
</a>
</g>
</g>
<!-- gdm.distribution.components.distribution_bus.DistributionBus&#45;&gt;gdm.distribution.common.limitset.VoltageLimitSet -->
<g id="edge1" class="edge">
<title>gdm.distribution.components.distribution_bus.DistributionBus:e&#45;&gt;gdm.distribution.common.limitset.VoltageLimitSet:w</title>
<path fill="none" stroke="black" d="M273.82,-289.76C314.15,-289.89 330.34,-290.77 368.58,-290.96"/>
<polyline fill="none" stroke="black" points="264,-289.75 269,-289.76"/>
<polyline fill="none" stroke="black" points="269,-289.76 274,-289.77"/>
<polygon fill="black" stroke="black" points="373.42,-290.98 383.4,-295.5 378.75,-290.99 383.08,-291 383.08,-291 383.08,-291 378.75,-290.99 383.43,-286.5 373.42,-290.98"/>
<polyline fill="none" stroke="black" points="372.2,-290.97 367.2,-290.96"/>
</g>
<!-- gdm.distribution.components.distribution_feeder.DistributionFeeder -->
<g id="node3" class="node">
<title>gdm.distribution.components.distribution_feeder.DistributionFeeder</title>
<g id="a_node3"><a xlink:title="gdm.distribution.components.distribution_feeder.DistributionFeeder&#10;&#10;Class interface for distribution feeder.&#10;">
<polygon fill="none" stroke="black" points="658.5,-379.25 658.5,-401.75 774.75,-401.75 774.75,-379.25 658.5,-379.25"/>
<text text-anchor="start" x="661.5" y="-386.45" font-family="Times New Roman,Times,Liberation Serif,serif" font-weight="bold" font-size="14.00">DistributionFeeder</text>
<polygon fill="none" stroke="black" points="658.5,-356.75 658.5,-379.25 714.75,-379.25 714.75,-356.75 658.5,-356.75"/>
<text text-anchor="start" x="674.62" y="-362.95" font-family="Times New Roman,Times,Liberation Serif,serif" font-size="14.00">uuid</text>
<polygon fill="none" stroke="black" points="714.75,-356.75 714.75,-379.25 774.75,-379.25 774.75,-356.75 714.75,-356.75"/>
<text text-anchor="start" x="727.88" y="-362.95" font-family="Times New Roman,Times,Liberation Serif,serif" font-size="14.00">UUID</text>
<polygon fill="none" stroke="black" points="658.5,-334.25 658.5,-356.75 714.75,-356.75 714.75,-334.25 658.5,-334.25"/>
<text text-anchor="start" x="671.62" y="-340.45" font-family="Times New Roman,Times,Liberation Serif,serif" font-size="14.00">name</text>
<polygon fill="none" stroke="black" points="714.75,-334.25 714.75,-356.75 774.75,-356.75 774.75,-334.25 714.75,-334.25"/>
<text text-anchor="start" x="738" y="-340.45" font-family="Times New Roman,Times,Liberation Serif,serif" font-size="14.00">str</text>
</a>
</g>
</g>
<!-- gdm.distribution.components.distribution_bus.DistributionBus&#45;&gt;gdm.distribution.components.distribution_feeder.DistributionFeeder -->
<g id="edge2" class="edge">
<title>gdm.distribution.components.distribution_bus.DistributionBus:e&#45;&gt;gdm.distribution.components.distribution_feeder.DistributionFeeder:w</title>
<path fill="none" stroke="black" d="M273.91,-357.29C435.4,-358.46 482.44,-388.17 639.8,-390.37"/>
<polyline fill="none" stroke="black" points="264,-357.25 269,-357.27"/>
<polyline fill="none" stroke="black" points="269,-357.27 274,-357.29"/>
<polyline fill="none" stroke="black" points="658.5,-390.5 653.5,-390.47"/>
<polygon fill="black" stroke="black" points="652.53,-385.46 652.47,-395.46 650.47,-395.44 650.53,-385.44 652.53,-385.46"/>
<polyline fill="none" stroke="black" points="653.5,-390.47 648.5,-390.43"/>
<ellipse fill="none" stroke="black" cx="644" cy="-390.4" rx="4" ry="4"/>
</g>
<!-- gdm.distribution.components.distribution_substation.DistributionSubstation -->
<g id="node4" class="node">
<title>gdm.distribution.components.distribution_substation.DistributionSubstation</title>
<g id="a_node4"><a xlink:title="gdm.distribution.components.distribution_substation.DistributionSubstation&#10;&#10;Class interface for distribution feeder.&#10;">
<polygon fill="none" stroke="black" points="372,-479.5 372,-502 550.5,-502 550.5,-479.5 372,-479.5"/>
<text text-anchor="start" x="395.25" y="-486.7" font-family="Times New Roman,Times,Liberation Serif,serif" font-weight="bold" font-size="14.00">DistributionSubstation</text>
<polygon fill="none" stroke="black" points="372,-457 372,-479.5 417,-479.5 417,-457 372,-457"/>
<text text-anchor="start" x="382.5" y="-463.2" font-family="Times New Roman,Times,Liberation Serif,serif" font-size="14.00">uuid</text>
<polygon fill="none" stroke="black" points="417,-457 417,-479.5 550.5,-479.5 550.5,-457 417,-457"/>
<text text-anchor="start" x="466.88" y="-463.2" font-family="Times New Roman,Times,Liberation Serif,serif" font-size="14.00">UUID</text>
<polygon fill="none" stroke="black" points="372,-434.5 372,-457 417,-457 417,-434.5 372,-434.5"/>
<text text-anchor="start" x="379.5" y="-440.7" font-family="Times New Roman,Times,Liberation Serif,serif" font-size="14.00">name</text>
<polygon fill="none" stroke="black" points="417,-434.5 417,-457 550.5,-457 550.5,-434.5 417,-434.5"/>
<text text-anchor="start" x="477" y="-440.7" font-family="Times New Roman,Times,Liberation Serif,serif" font-size="14.00">str</text>
<polygon fill="none" stroke="black" points="372,-412 372,-434.5 417,-434.5 417,-412 372,-412"/>
<text text-anchor="start" x="375" y="-418.2" font-family="Times New Roman,Times,Liberation Serif,serif" font-size="14.00">feeders</text>
<polygon fill="none" stroke="black" points="417,-412 417,-434.5 550.5,-434.5 550.5,-412 417,-412"/>
<text text-anchor="start" x="420" y="-418.2" font-family="Times New Roman,Times,Liberation Serif,serif" font-size="14.00">list[DistributionFeeder]</text>
</a>
</g>
</g>
<!-- gdm.distribution.components.distribution_bus.DistributionBus&#45;&gt;gdm.distribution.components.distribution_substation.DistributionSubstation -->
<g id="edge3" class="edge">
<title>gdm.distribution.components.distribution_bus.DistributionBus:e&#45;&gt;gdm.distribution.components.distribution_substation.DistributionSubstation:w</title>
<path fill="none" stroke="black" d="M273.75,-380.58C323.91,-389.63 310.83,-469.95 353.53,-487.41"/>
<polyline fill="none" stroke="black" points="264,-379.75 268.98,-380.17"/>
<polyline fill="none" stroke="black" points="268.98,-380.17 273.96,-380.6"/>
<polyline fill="none" stroke="black" points="372,-490.75 367.08,-489.86"/>
<polygon fill="black" stroke="black" points="366.99,-484.76 365.21,-494.6 363.24,-494.25 365.02,-484.41 366.99,-484.76"/>
<polyline fill="none" stroke="black" points="367.08,-489.86 362.16,-488.97"/>
<ellipse fill="none" stroke="black" cx="357.73" cy="-488.17" rx="4" ry="4"/>
</g>
<!-- infrasys.location.Location -->
<g id="node5" class="node">
<title>infrasys.location.Location</title>
<g id="a_node5"><a xlink:title="infrasys.location.Location&#10;&#10;Specifies geographic location.&#10;">
<polygon fill="none" stroke="black" points="413.62,-131 413.62,-153.5 508.88,-153.5 508.88,-131 413.62,-131"/>
<text text-anchor="start" x="435.75" y="-138.2" font-family="Times New Roman,Times,Liberation Serif,serif" font-weight="bold" font-size="14.00">Location</text>
<polygon fill="none" stroke="black" points="413.62,-108.5 413.62,-131 449.62,-131 449.62,-108.5 413.62,-108.5"/>
<text text-anchor="start" x="419.62" y="-114.7" font-family="Times New Roman,Times,Liberation Serif,serif" font-size="14.00">uuid</text>
<polygon fill="none" stroke="black" points="449.62,-108.5 449.62,-131 508.88,-131 508.88,-108.5 449.62,-108.5"/>
<text text-anchor="start" x="462.38" y="-114.7" font-family="Times New Roman,Times,Liberation Serif,serif" font-size="14.00">UUID</text>
<polygon fill="none" stroke="black" points="413.62,-86 413.62,-108.5 449.62,-108.5 449.62,-86 413.62,-86"/>
<text text-anchor="start" x="416.62" y="-92.2" font-family="Times New Roman,Times,Liberation Serif,serif" font-size="14.00">name</text>
<polygon fill="none" stroke="black" points="449.62,-86 449.62,-108.5 508.88,-108.5 508.88,-86 449.62,-86"/>
<text text-anchor="start" x="472.5" y="-92.2" font-family="Times New Roman,Times,Liberation Serif,serif" font-size="14.00">str</text>
<polygon fill="none" stroke="black" points="413.62,-63.5 413.62,-86 449.62,-86 449.62,-63.5 413.62,-63.5"/>
<text text-anchor="start" x="428.25" y="-69.7" font-family="Times New Roman,Times,Liberation Serif,serif" font-size="14.00">x</text>
<polygon fill="none" stroke="black" points="449.62,-63.5 449.62,-86 508.88,-86 508.88,-63.5 449.62,-63.5"/>
<text text-anchor="start" x="466.88" y="-69.7" font-family="Times New Roman,Times,Liberation Serif,serif" font-size="14.00">float</text>
<polygon fill="none" stroke="black" points="413.62,-41 413.62,-63.5 449.62,-63.5 449.62,-41 413.62,-41"/>
<text text-anchor="start" x="428.25" y="-47.2" font-family="Times New Roman,Times,Liberation Serif,serif" font-size="14.00">y</text>
<polygon fill="none" stroke="black" points="449.62,-41 449.62,-63.5 508.88,-63.5 508.88,-41 449.62,-41"/>
<text text-anchor="start" x="466.88" y="-47.2" font-family="Times New Roman,Times,Liberation Serif,serif" font-size="14.00">float</text>
<polygon fill="none" stroke="black" points="413.62,-18.5 413.62,-41 449.62,-41 449.62,-18.5 413.62,-18.5"/>
<text text-anchor="start" x="423.75" y="-24.7" font-family="Times New Roman,Times,Liberation Serif,serif" font-size="14.00">crs</text>
<polygon fill="none" stroke="black" points="449.62,-18.5 449.62,-41 508.88,-41 508.88,-18.5 449.62,-18.5"/>
<text text-anchor="start" x="452.62" y="-24.7" font-family="Times New Roman,Times,Liberation Serif,serif" font-size="14.00">str | None</text>
</a>
</g>
</g>
<!-- gdm.distribution.components.distribution_bus.DistributionBus&#45;&gt;infrasys.location.Location -->
<g id="edge4" class="edge">
<title>gdm.distribution.components.distribution_bus.DistributionBus:e&#45;&gt;infrasys.location.Location:w</title>
<path fill="none" stroke="black" d="M273.85,-244.2C337.14,-236.86 336.57,-158.43 393.85,-144.39"/>
<polyline fill="none" stroke="black" points="264,-244.75 268.99,-244.47"/>
<polyline fill="none" stroke="black" points="268.99,-244.47 273.98,-244.19"/>
<polyline fill="none" stroke="black" points="412.62,-142.25 407.66,-142.82"/>
<polygon fill="black" stroke="black" points="406.1,-137.96 407.23,-147.9 405.24,-148.13 404.11,-138.19 406.1,-137.96"/>
<polyline fill="none" stroke="black" points="407.66,-142.82 402.69,-143.38"/>
<ellipse fill="none" stroke="black" cx="398.22" cy="-143.89" rx="4" ry="4"/>
</g>
<!-- gdm.distribution.components.distribution_substation.DistributionSubstation&#45;&gt;gdm.distribution.components.distribution_feeder.DistributionFeeder -->
<g id="edge5" class="edge">
<title>gdm.distribution.components.distribution_substation.DistributionSubstation:e&#45;&gt;gdm.distribution.components.distribution_feeder.DistributionFeeder:w</title>
<path fill="none" stroke="black" d="M560.48,-422.79C597.09,-419.27 609.11,-396.8 643.51,-391.58"/>
<polyline fill="none" stroke="black" points="550.5,-423.25 555.49,-423.02"/>
<polyline fill="none" stroke="black" points="555.49,-423.02 560.49,-422.79"/>
<polygon fill="black" stroke="black" points="648.19,-391.24 658.49,-395.01 653.51,-390.86 657.83,-390.55 657.83,-390.55 657.83,-390.55 653.51,-390.86 657.84,-386.04 648.19,-391.24"/>
<polyline fill="none" stroke="black" points="646.98,-391.33 641.99,-391.69"/>
</g>
</g>
</svg>
