<?xml version="1.0" encoding="UTF-8" standalone="no"?>
<!DOCTYPE svg PUBLIC "-//W3C//DTD SVG 1.1//EN"
 "http://www.w3.org/Graphics/SVG/1.1/DTD/svg11.dtd">
<!-- Generated by graphviz version 12.2.1 (20241206.2353)
 -->
<!-- Title: Entity Relationship Diagram created by erdantic Pages: 1 -->
<svg width="1225pt" height="906pt"
 viewBox="0.00 0.00 1224.50 905.50" xmlns="http://www.w3.org/2000/svg" xmlns:xlink="http://www.w3.org/1999/xlink">
<g id="graph0" class="graph" transform="scale(1 1) rotate(0) translate(4 901.5)">
<title>Entity Relationship Diagram created by erdantic</title>
<polygon fill="white" stroke="none" points="-4,4 -4,-901.5 1220.5,-901.5 1220.5,4 -4,4"/>
<text text-anchor="middle" x="608.25" y="-5.95" font-family="Times New Roman,Times,Liberation Serif,serif" font-size="9.00" fill="#a8a8a8">Created by erdantic v1.0.5 &lt;https://github.com/drivendataorg/erdantic&gt;</text>
<!-- gdm.distribution.common.limitset.VoltageLimitSet -->
<g id="node1" class="node">
<title>gdm.distribution.common.limitset.VoltageLimitSet</title>
<g id="a_node1"><a xlink:title="gdm.distribution.common.limitset.VoltageLimitSet&#10;&#10;Interface for voltage limit set.&#10;">
<polygon fill="none" stroke="black" points="788.62,-538.25 788.62,-560.75 941.62,-560.75 941.62,-538.25 788.62,-538.25"/>
<text text-anchor="start" x="817.88" y="-545.45" font-family="Times New Roman,Times,Liberation Serif,serif" font-weight="bold" font-size="14.00">VoltageLimitSet</text>
<polygon fill="none" stroke="black" points="788.62,-515.75 788.62,-538.25 850.88,-538.25 850.88,-515.75 788.62,-515.75"/>
<text text-anchor="start" x="807.75" y="-521.95" font-family="Times New Roman,Times,Liberation Serif,serif" font-size="14.00">uuid</text>
<polygon fill="none" stroke="black" points="850.88,-515.75 850.88,-538.25 941.62,-538.25 941.62,-515.75 850.88,-515.75"/>
<text text-anchor="start" x="879.38" y="-521.95" font-family="Times New Roman,Times,Liberation Serif,serif" font-size="14.00">UUID</text>
<polygon fill="none" stroke="black" points="788.62,-493.25 788.62,-515.75 850.88,-515.75 850.88,-493.25 788.62,-493.25"/>
<text text-anchor="start" x="804.75" y="-499.45" font-family="Times New Roman,Times,Liberation Serif,serif" font-size="14.00">name</text>
<polygon fill="none" stroke="black" points="850.88,-493.25 850.88,-515.75 941.62,-515.75 941.62,-493.25 850.88,-493.25"/>
<text text-anchor="start" x="889.5" y="-499.45" font-family="Times New Roman,Times,Liberation Serif,serif" font-size="14.00">str</text>
<polygon fill="none" stroke="black" points="788.62,-470.75 788.62,-493.25 850.88,-493.25 850.88,-470.75 788.62,-470.75"/>
<text text-anchor="start" x="791.62" y="-476.95" font-family="Times New Roman,Times,Liberation Serif,serif" font-size="14.00">limit_type</text>
<polygon fill="none" stroke="black" points="850.88,-470.75 850.88,-493.25 941.62,-493.25 941.62,-470.75 850.88,-470.75"/>
<text text-anchor="start" x="867" y="-476.95" font-family="Times New Roman,Times,Liberation Serif,serif" font-size="14.00">LimitType</text>
<polygon fill="none" stroke="black" points="788.62,-448.25 788.62,-470.75 850.88,-470.75 850.88,-448.25 788.62,-448.25"/>
<text text-anchor="start" x="805.12" y="-454.45" font-family="Times New Roman,Times,Liberation Serif,serif" font-size="14.00">value</text>
<polygon fill="none" stroke="black" points="850.88,-448.25 850.88,-470.75 941.62,-470.75 941.62,-448.25 850.88,-448.25"/>
<text text-anchor="start" x="853.88" y="-454.45" font-family="Times New Roman,Times,Liberation Serif,serif" font-size="14.00">PositiveVoltage</text>
</a>
</g>
</g>
<!-- gdm.distribution.components.distribution_bus.DistributionBus -->
<g id="node2" class="node">
<title>gdm.distribution.components.distribution_bus.DistributionBus</title>
<g id="a_node2"><a xlink:title="gdm.distribution.components.distribution_bus.DistributionBus&#10;&#10;Interface for distribution bus.&#10;&#10;Examples:&#10; &#160;&#160;&#160;&gt;&gt;&gt; from gdm import DistributionBus&#10; &#160;&#160;&#160;&gt;&gt;&gt; DistributionBus.example()&#10;">
<polygon fill="none" stroke="black" points="361.12,-674.5 361.12,-697 625.12,-697 625.12,-674.5 361.12,-674.5"/>
<text text-anchor="start" x="447" y="-681.7" font-family="Times New Roman,Times,Liberation Serif,serif" font-weight="bold" font-size="14.00">DistributionBus</text>
<polygon fill="none" stroke="black" points="361.12,-652 361.12,-674.5 440.62,-674.5 440.62,-652 361.12,-652"/>
<text text-anchor="start" x="388.88" y="-658.2" font-family="Times New Roman,Times,Liberation Serif,serif" font-size="14.00">uuid</text>
<polygon fill="none" stroke="black" points="440.62,-652 440.62,-674.5 625.12,-674.5 625.12,-652 440.62,-652"/>
<text text-anchor="start" x="516" y="-658.2" font-family="Times New Roman,Times,Liberation Serif,serif" font-size="14.00">UUID</text>
<polygon fill="none" stroke="black" points="361.12,-629.5 361.12,-652 440.62,-652 440.62,-629.5 361.12,-629.5"/>
<text text-anchor="start" x="385.88" y="-635.7" font-family="Times New Roman,Times,Liberation Serif,serif" font-size="14.00">name</text>
<polygon fill="none" stroke="black" points="440.62,-629.5 440.62,-652 625.12,-652 625.12,-629.5 440.62,-629.5"/>
<text text-anchor="start" x="526.12" y="-635.7" font-family="Times New Roman,Times,Liberation Serif,serif" font-size="14.00">str</text>
<polygon fill="none" stroke="black" points="361.12,-607 361.12,-629.5 440.62,-629.5 440.62,-607 361.12,-607"/>
<text text-anchor="start" x="373.5" y="-613.2" font-family="Times New Roman,Times,Liberation Serif,serif" font-size="14.00">substation</text>
<polygon fill="none" stroke="black" points="440.62,-607 440.62,-629.5 625.12,-629.5 625.12,-607 440.62,-607"/>
<text text-anchor="start" x="443.62" y="-613.2" font-family="Times New Roman,Times,Liberation Serif,serif" font-size="14.00">Optional[DistributionSubstation]</text>
<polygon fill="none" stroke="black" points="361.12,-584.5 361.12,-607 440.62,-607 440.62,-584.5 361.12,-584.5"/>
<text text-anchor="start" x="384" y="-590.7" font-family="Times New Roman,Times,Liberation Serif,serif" font-size="14.00">feeder</text>
<polygon fill="none" stroke="black" points="440.62,-584.5 440.62,-607 625.12,-607 625.12,-584.5 440.62,-584.5"/>
<text text-anchor="start" x="453.75" y="-590.7" font-family="Times New Roman,Times,Liberation Serif,serif" font-size="14.00">Optional[DistributionFeeder]</text>
<polygon fill="none" stroke="black" points="361.12,-562 361.12,-584.5 440.62,-584.5 440.62,-562 361.12,-562"/>
<text text-anchor="start" x="366" y="-568.2" font-family="Times New Roman,Times,Liberation Serif,serif" font-size="14.00">voltage_type</text>
<polygon fill="none" stroke="black" points="440.62,-562 440.62,-584.5 625.12,-584.5 625.12,-562 440.62,-562"/>
<text text-anchor="start" x="495.75" y="-568.2" font-family="Times New Roman,Times,Liberation Serif,serif" font-size="14.00">VoltageTypes</text>
<polygon fill="none" stroke="black" points="361.12,-539.5 361.12,-562 440.62,-562 440.62,-539.5 361.12,-539.5"/>
<text text-anchor="start" x="382.88" y="-545.7" font-family="Times New Roman,Times,Liberation Serif,serif" font-size="14.00">phases</text>
<polygon fill="none" stroke="black" points="440.62,-539.5 440.62,-562 625.12,-562 625.12,-539.5 440.62,-539.5"/>
<text text-anchor="start" x="504.38" y="-545.7" font-family="Times New Roman,Times,Liberation Serif,serif" font-size="14.00">list[Phase]</text>
<polygon fill="none" stroke="black" points="361.12,-517 361.12,-539.5 440.62,-539.5 440.62,-517 361.12,-517"/>
<text text-anchor="start" x="365.25" y="-523.2" font-family="Times New Roman,Times,Liberation Serif,serif" font-size="14.00">voltagelimits</text>
<polygon fill="none" stroke="black" points="440.62,-517 440.62,-539.5 625.12,-539.5 625.12,-517 440.62,-517"/>
<text text-anchor="start" x="475.5" y="-523.2" font-family="Times New Roman,Times,Liberation Serif,serif" font-size="14.00">list[VoltageLimitSet]</text>
<polygon fill="none" stroke="black" points="361.12,-494.5 361.12,-517 440.62,-517 440.62,-494.5 361.12,-494.5"/>
<text text-anchor="start" x="364.12" y="-500.7" font-family="Times New Roman,Times,Liberation Serif,serif" font-size="14.00">rated_voltage</text>
<polygon fill="none" stroke="black" points="440.62,-494.5 440.62,-517 625.12,-517 625.12,-494.5 440.62,-494.5"/>
<text text-anchor="start" x="490.5" y="-500.7" font-family="Times New Roman,Times,Liberation Serif,serif" font-size="14.00">PositiveVoltage</text>
<polygon fill="none" stroke="black" points="361.12,-472 361.12,-494.5 440.62,-494.5 440.62,-472 361.12,-472"/>
<text text-anchor="start" x="372.38" y="-478.2" font-family="Times New Roman,Times,Liberation Serif,serif" font-size="14.00">coordinate</text>
<polygon fill="none" stroke="black" points="440.62,-472 440.62,-494.5 625.12,-494.5 625.12,-472 440.62,-472"/>
<text text-anchor="start" x="480.75" y="-478.2" font-family="Times New Roman,Times,Liberation Serif,serif" font-size="14.00">Optional[Location]</text>
</a>
</g>
</g>
<!-- gdm.distribution.components.distribution_bus.DistributionBus&#45;&gt;gdm.distribution.common.limitset.VoltageLimitSet -->
<g id="edge1" class="edge">
<title>gdm.distribution.components.distribution_bus.DistributionBus:e&#45;&gt;gdm.distribution.common.limitset.VoltageLimitSet:w</title>
<path fill="none" stroke="black" d="M635.95,-528.39C695.19,-530.05 715.47,-546.59 772.33,-549.16"/>
<polyline fill="none" stroke="black" points="626.12,-528.25 631.12,-528.32"/>
<polyline fill="none" stroke="black" points="631.12,-528.32 636.12,-528.39"/>
<polygon fill="black" stroke="black" points="777.29,-549.27 787.19,-553.99 782.63,-549.39 786.96,-549.49 786.96,-549.49 786.96,-549.49 782.63,-549.39 787.39,-544.99 777.29,-549.27"/>
<polyline fill="none" stroke="black" points="776.07,-549.25 771.08,-549.14"/>
</g>
<!-- gdm.distribution.components.distribution_feeder.DistributionFeeder -->
<g id="node3" class="node">
<title>gdm.distribution.components.distribution_feeder.DistributionFeeder</title>
<g id="a_node3"><a xlink:title="gdm.distribution.components.distribution_feeder.DistributionFeeder&#10;&#10;Class interface for distribution feeder.&#10;">
<polygon fill="none" stroke="black" points="1100.25,-741.75 1100.25,-764.25 1216.5,-764.25 1216.5,-741.75 1100.25,-741.75"/>
<text text-anchor="start" x="1103.25" y="-748.95" font-family="Times New Roman,Times,Liberation Serif,serif" font-weight="bold" font-size="14.00">DistributionFeeder</text>
<polygon fill="none" stroke="black" points="1100.25,-719.25 1100.25,-741.75 1156.5,-741.75 1156.5,-719.25 1100.25,-719.25"/>
<text text-anchor="start" x="1116.38" y="-725.45" font-family="Times New Roman,Times,Liberation Serif,serif" font-size="14.00">uuid</text>
<polygon fill="none" stroke="black" points="1156.5,-719.25 1156.5,-741.75 1216.5,-741.75 1216.5,-719.25 1156.5,-719.25"/>
<text text-anchor="start" x="1169.62" y="-725.45" font-family="Times New Roman,Times,Liberation Serif,serif" font-size="14.00">UUID</text>
<polygon fill="none" stroke="black" points="1100.25,-696.75 1100.25,-719.25 1156.5,-719.25 1156.5,-696.75 1100.25,-696.75"/>
<text text-anchor="start" x="1113.38" y="-702.95" font-family="Times New Roman,Times,Liberation Serif,serif" font-size="14.00">name</text>
<polygon fill="none" stroke="black" points="1156.5,-696.75 1156.5,-719.25 1216.5,-719.25 1216.5,-696.75 1156.5,-696.75"/>
<text text-anchor="start" x="1179.75" y="-702.95" font-family="Times New Roman,Times,Liberation Serif,serif" font-size="14.00">str</text>
</a>
</g>
</g>
<!-- gdm.distribution.components.distribution_bus.DistributionBus&#45;&gt;gdm.distribution.components.distribution_feeder.DistributionFeeder -->
<g id="edge2" class="edge">
<title>gdm.distribution.components.distribution_bus.DistributionBus:e&#45;&gt;gdm.distribution.components.distribution_feeder.DistributionFeeder:w</title>
<path fill="none" stroke="black" d="M635.89,-596.75C708.43,-609.03 993.92,-730.18 1081.6,-750.2"/>
<polyline fill="none" stroke="black" points="626.12,-595.75 631.1,-596.26"/>
<polyline fill="none" stroke="black" points="631.1,-596.26 636.07,-596.77"/>
<polyline fill="none" stroke="black" points="1100.25,-753 1095.31,-752.26"/>
<polygon fill="black" stroke="black" points="1095.06,-747.17 1093.57,-757.05 1091.6,-756.76 1093.08,-746.87 1095.06,-747.17"/>
<polyline fill="none" stroke="black" points="1095.31,-752.26 1090.36,-751.52"/>
<ellipse fill="none" stroke="black" cx="1085.91" cy="-750.85" rx="4" ry="4"/>
</g>
<!-- gdm.distribution.components.distribution_substation.DistributionSubstation -->
<g id="node4" class="node">
<title>gdm.distribution.components.distribution_substation.DistributionSubstation</title>
<g id="a_node4"><a xlink:title="gdm.distribution.components.distribution_substation.DistributionSubstation&#10;&#10;Class interface for distribution feeder.&#10;">
<polygon fill="none" stroke="black" points="775.88,-875 775.88,-897.5 954.38,-897.5 954.38,-875 775.88,-875"/>
<text text-anchor="start" x="799.12" y="-882.2" font-family="Times New Roman,Times,Liberation Serif,serif" font-weight="bold" font-size="14.00">DistributionSubstation</text>
<polygon fill="none" stroke="black" points="775.88,-852.5 775.88,-875 820.88,-875 820.88,-852.5 775.88,-852.5"/>
<text text-anchor="start" x="786.38" y="-858.7" font-family="Times New Roman,Times,Liberation Serif,serif" font-size="14.00">uuid</text>
<polygon fill="none" stroke="black" points="820.88,-852.5 820.88,-875 954.38,-875 954.38,-852.5 820.88,-852.5"/>
<text text-anchor="start" x="870.75" y="-858.7" font-family="Times New Roman,Times,Liberation Serif,serif" font-size="14.00">UUID</text>
<polygon fill="none" stroke="black" points="775.88,-830 775.88,-852.5 820.88,-852.5 820.88,-830 775.88,-830"/>
<text text-anchor="start" x="783.38" y="-836.2" font-family="Times New Roman,Times,Liberation Serif,serif" font-size="14.00">name</text>
<polygon fill="none" stroke="black" points="820.88,-830 820.88,-852.5 954.38,-852.5 954.38,-830 820.88,-830"/>
<text text-anchor="start" x="880.88" y="-836.2" font-family="Times New Roman,Times,Liberation Serif,serif" font-size="14.00">str</text>
<polygon fill="none" stroke="black" points="775.88,-807.5 775.88,-830 820.88,-830 820.88,-807.5 775.88,-807.5"/>
<text text-anchor="start" x="778.88" y="-813.7" font-family="Times New Roman,Times,Liberation Serif,serif" font-size="14.00">feeders</text>
<polygon fill="none" stroke="black" points="820.88,-807.5 820.88,-830 954.38,-830 954.38,-807.5 820.88,-807.5"/>
<text text-anchor="start" x="823.88" y="-813.7" font-family="Times New Roman,Times,Liberation Serif,serif" font-size="14.00">list[DistributionFeeder]</text>
</a>
</g>
</g>
<!-- gdm.distribution.components.distribution_bus.DistributionBus&#45;&gt;gdm.distribution.components.distribution_substation.DistributionSubstation -->
<g id="edge3" class="edge">
<title>gdm.distribution.components.distribution_bus.DistributionBus:e&#45;&gt;gdm.distribution.components.distribution_substation.DistributionSubstation:w</title>
<path fill="none" stroke="black" d="M636.01,-618.76C750.02,-631.02 653.29,-860.55 756.18,-884.27"/>
<polyline fill="none" stroke="black" points="626.12,-618.25 631.12,-618.51"/>
<polyline fill="none" stroke="black" points="631.12,-618.51 636.11,-618.77"/>
<polyline fill="none" stroke="black" points="774.88,-886.25 769.9,-885.72"/>
<polygon fill="black" stroke="black" points="769.43,-880.65 768.38,-890.59 766.39,-890.38 767.45,-880.44 769.43,-880.65"/>
<polyline fill="none" stroke="black" points="769.9,-885.72 764.93,-885.2"/>
<ellipse fill="none" stroke="black" cx="760.46" cy="-884.73" rx="4" ry="4"/>
</g>
<!-- infrasys.location.Location -->
<g id="node5" class="node">
<title>infrasys.location.Location</title>
<g id="a_node5"><a xlink:title="infrasys.location.Location&#10;&#10;Specifies geographic location.&#10;">
<polygon fill="none" stroke="black" points="817.5,-389.5 817.5,-412 912.75,-412 912.75,-389.5 817.5,-389.5"/>
<text text-anchor="start" x="839.62" y="-396.7" font-family="Times New Roman,Times,Liberation Serif,serif" font-weight="bold" font-size="14.00">Location</text>
<polygon fill="none" stroke="black" points="817.5,-367 817.5,-389.5 853.5,-389.5 853.5,-367 817.5,-367"/>
<text text-anchor="start" x="823.5" y="-373.2" font-family="Times New Roman,Times,Liberation Serif,serif" font-size="14.00">uuid</text>
<polygon fill="none" stroke="black" points="853.5,-367 853.5,-389.5 912.75,-389.5 912.75,-367 853.5,-367"/>
<text text-anchor="start" x="866.25" y="-373.2" font-family="Times New Roman,Times,Liberation Serif,serif" font-size="14.00">UUID</text>
<polygon fill="none" stroke="black" points="817.5,-344.5 817.5,-367 853.5,-367 853.5,-344.5 817.5,-344.5"/>
<text text-anchor="start" x="820.5" y="-350.7" font-family="Times New Roman,Times,Liberation Serif,serif" font-size="14.00">name</text>
<polygon fill="none" stroke="black" points="853.5,-344.5 853.5,-367 912.75,-367 912.75,-344.5 853.5,-344.5"/>
<text text-anchor="start" x="876.38" y="-350.7" font-family="Times New Roman,Times,Liberation Serif,serif" font-size="14.00">str</text>
<polygon fill="none" stroke="black" points="817.5,-322 817.5,-344.5 853.5,-344.5 853.5,-322 817.5,-322"/>
<text text-anchor="start" x="832.12" y="-328.2" font-family="Times New Roman,Times,Liberation Serif,serif" font-size="14.00">x</text>
<polygon fill="none" stroke="black" points="853.5,-322 853.5,-344.5 912.75,-344.5 912.75,-322 853.5,-322"/>
<text text-anchor="start" x="870.75" y="-328.2" font-family="Times New Roman,Times,Liberation Serif,serif" font-size="14.00">float</text>
<polygon fill="none" stroke="black" points="817.5,-299.5 817.5,-322 853.5,-322 853.5,-299.5 817.5,-299.5"/>
<text text-anchor="start" x="832.12" y="-305.7" font-family="Times New Roman,Times,Liberation Serif,serif" font-size="14.00">y</text>
<polygon fill="none" stroke="black" points="853.5,-299.5 853.5,-322 912.75,-322 912.75,-299.5 853.5,-299.5"/>
<text text-anchor="start" x="870.75" y="-305.7" font-family="Times New Roman,Times,Liberation Serif,serif" font-size="14.00">float</text>
<polygon fill="none" stroke="black" points="817.5,-277 817.5,-299.5 853.5,-299.5 853.5,-277 817.5,-277"/>
<text text-anchor="start" x="827.62" y="-283.2" font-family="Times New Roman,Times,Liberation Serif,serif" font-size="14.00">crs</text>
<polygon fill="none" stroke="black" points="853.5,-277 853.5,-299.5 912.75,-299.5 912.75,-277 853.5,-277"/>
<text text-anchor="start" x="856.5" y="-283.2" font-family="Times New Roman,Times,Liberation Serif,serif" font-size="14.00">str | None</text>
</a>
</g>
</g>
<!-- gdm.distribution.components.distribution_bus.DistributionBus&#45;&gt;infrasys.location.Location -->
<g id="edge4" class="edge">
<title>gdm.distribution.components.distribution_bus.DistributionBus:e&#45;&gt;infrasys.location.Location:w</title>
<path fill="none" stroke="black" d="M636.04,-482.92C712.75,-477.66 725.99,-411.71 797.99,-401.95"/>
<polyline fill="none" stroke="black" points="626.12,-483.25 631.12,-483.08"/>
<polyline fill="none" stroke="black" points="631.12,-483.08 636.12,-482.91"/>
<polyline fill="none" stroke="black" points="816.5,-400.75 811.51,-401.07"/>
<polygon fill="black" stroke="black" points="810.19,-396.15 810.84,-406.13 808.84,-406.26 808.19,-396.28 810.19,-396.15"/>
<polyline fill="none" stroke="black" points="811.51,-401.07 806.52,-401.4"/>
<ellipse fill="none" stroke="black" cx="802.03" cy="-401.69" rx="4" ry="4"/>
</g>
<!-- gdm.distribution.components.distribution_substation.DistributionSubstation&#45;&gt;gdm.distribution.components.distribution_feeder.DistributionFeeder -->
<g id="edge10" class="edge">
<title>gdm.distribution.components.distribution_substation.DistributionSubstation:e&#45;&gt;gdm.distribution.components.distribution_feeder.DistributionFeeder:w</title>
<path fill="none" stroke="black" d="M965.27,-818.3C1021.55,-812.96 1031.57,-762.4 1084.86,-754.14"/>
<polyline fill="none" stroke="black" points="955.38,-818.75 960.37,-818.52"/>
<polyline fill="none" stroke="black" points="960.37,-818.52 965.36,-818.29"/>
<polygon fill="black" stroke="black" points="1089.94,-753.76 1100.25,-757.51 1095.26,-753.37 1099.58,-753.05 1099.58,-753.05 1099.58,-753.05 1095.26,-753.37 1099.58,-748.54 1089.94,-753.76"/>
<polyline fill="none" stroke="black" points="1088.73,-753.85 1083.74,-754.22"/>
</g>
<!-- gdm.distribution.components.distribution_capacitor.DistributionCapacitor -->
<g id="node6" class="node">
<title>gdm.distribution.components.distribution_capacitor.DistributionCapacitor</title>
<g id="a_node6"><a xlink:title="gdm.distribution.components.distribution_capacitor.DistributionCapacitor&#10;&#10;Interface for capacitor present in distribution system models.&#10;">
<polygon fill="none" stroke="black" points="0,-809.5 0,-832 248.25,-832 248.25,-809.5 0,-809.5"/>
<text text-anchor="start" x="60" y="-816.7" font-family="Times New Roman,Times,Liberation Serif,serif" font-weight="bold" font-size="14.00">DistributionCapacitor</text>
<polygon fill="none" stroke="black" points="0,-787 0,-809.5 63.75,-809.5 63.75,-787 0,-787"/>
<text text-anchor="start" x="19.88" y="-793.2" font-family="Times New Roman,Times,Liberation Serif,serif" font-size="14.00">uuid</text>
<polygon fill="none" stroke="black" points="63.75,-787 63.75,-809.5 248.25,-809.5 248.25,-787 63.75,-787"/>
<text text-anchor="start" x="139.12" y="-793.2" font-family="Times New Roman,Times,Liberation Serif,serif" font-size="14.00">UUID</text>
<polygon fill="none" stroke="black" points="0,-764.5 0,-787 63.75,-787 63.75,-764.5 0,-764.5"/>
<text text-anchor="start" x="16.88" y="-770.7" font-family="Times New Roman,Times,Liberation Serif,serif" font-size="14.00">name</text>
<polygon fill="none" stroke="black" points="63.75,-764.5 63.75,-787 248.25,-787 248.25,-764.5 63.75,-764.5"/>
<text text-anchor="start" x="149.25" y="-770.7" font-family="Times New Roman,Times,Liberation Serif,serif" font-size="14.00">str</text>
<polygon fill="none" stroke="black" points="0,-742 0,-764.5 63.75,-764.5 63.75,-742 0,-742"/>
<text text-anchor="start" x="4.5" y="-748.2" font-family="Times New Roman,Times,Liberation Serif,serif" font-size="14.00">substation</text>
<polygon fill="none" stroke="black" points="63.75,-742 63.75,-764.5 248.25,-764.5 248.25,-742 63.75,-742"/>
<text text-anchor="start" x="66.75" y="-748.2" font-family="Times New Roman,Times,Liberation Serif,serif" font-size="14.00">Optional[DistributionSubstation]</text>
<polygon fill="none" stroke="black" points="0,-719.5 0,-742 63.75,-742 63.75,-719.5 0,-719.5"/>
<text text-anchor="start" x="15" y="-725.7" font-family="Times New Roman,Times,Liberation Serif,serif" font-size="14.00">feeder</text>
<polygon fill="none" stroke="black" points="63.75,-719.5 63.75,-742 248.25,-742 248.25,-719.5 63.75,-719.5"/>
<text text-anchor="start" x="76.88" y="-725.7" font-family="Times New Roman,Times,Liberation Serif,serif" font-size="14.00">Optional[DistributionFeeder]</text>
<polygon fill="none" stroke="black" points="0,-697 0,-719.5 63.75,-719.5 63.75,-697 0,-697"/>
<text text-anchor="start" x="4.12" y="-703.2" font-family="Times New Roman,Times,Liberation Serif,serif" font-size="14.00">in_service</text>
<polygon fill="none" stroke="black" points="63.75,-697 63.75,-719.5 248.25,-719.5 248.25,-697 63.75,-697"/>
<text text-anchor="start" x="144" y="-703.2" font-family="Times New Roman,Times,Liberation Serif,serif" font-size="14.00">bool</text>
<polygon fill="none" stroke="black" points="0,-674.5 0,-697 63.75,-697 63.75,-674.5 0,-674.5"/>
<text text-anchor="start" x="22.5" y="-680.7" font-family="Times New Roman,Times,Liberation Serif,serif" font-size="14.00">bus</text>
<polygon fill="none" stroke="black" points="63.75,-674.5 63.75,-697 248.25,-697 248.25,-674.5 63.75,-674.5"/>
<text text-anchor="start" x="112.88" y="-680.7" font-family="Times New Roman,Times,Liberation Serif,serif" font-size="14.00">DistributionBus</text>
<polygon fill="none" stroke="black" points="0,-652 0,-674.5 63.75,-674.5 63.75,-652 0,-652"/>
<text text-anchor="start" x="13.88" y="-658.2" font-family="Times New Roman,Times,Liberation Serif,serif" font-size="14.00">phases</text>
<polygon fill="none" stroke="black" points="63.75,-652 63.75,-674.5 248.25,-674.5 248.25,-652 63.75,-652"/>
<text text-anchor="start" x="127.5" y="-658.2" font-family="Times New Roman,Times,Liberation Serif,serif" font-size="14.00">list[Phase]</text>
<polygon fill="none" stroke="black" points="0,-629.5 0,-652 63.75,-652 63.75,-629.5 0,-629.5"/>
<text text-anchor="start" x="3" y="-635.7" font-family="Times New Roman,Times,Liberation Serif,serif" font-size="14.00">controllers</text>
<polygon fill="none" stroke="black" points="63.75,-629.5 63.75,-652 248.25,-652 248.25,-629.5 63.75,-629.5"/>
<text text-anchor="start" x="76.12" y="-635.7" font-family="Times New Roman,Times,Liberation Serif,serif" font-size="14.00">list[CapacitorControllerBase]</text>
<polygon fill="none" stroke="black" points="0,-607 0,-629.5 63.75,-629.5 63.75,-607 0,-607"/>
<text text-anchor="start" x="3" y="-613.2" font-family="Times New Roman,Times,Liberation Serif,serif" font-size="14.00">equipment</text>
<polygon fill="none" stroke="black" points="63.75,-607 63.75,-629.5 248.25,-629.5 248.25,-607 63.75,-607"/>
<text text-anchor="start" x="99.75" y="-613.2" font-family="Times New Roman,Times,Liberation Serif,serif" font-size="14.00">CapacitorEquipment</text>
</a>
</g>
</g>
<!-- gdm.distribution.components.distribution_capacitor.DistributionCapacitor&#45;&gt;gdm.distribution.components.distribution_bus.DistributionBus -->
<g id="edge5" class="edge">
<title>gdm.distribution.components.distribution_capacitor.DistributionCapacitor:e&#45;&gt;gdm.distribution.components.distribution_bus.DistributionBus:w</title>
<path fill="none" stroke="black" d="M258.21,-685.75C295.18,-685.75 310.37,-685.75 345.57,-685.75"/>
<polyline fill="none" stroke="black" points="248.25,-685.75 253.25,-685.75"/>
<polyline fill="none" stroke="black" points="253.25,-685.75 258.25,-685.75"/>
<polyline fill="none" stroke="black" points="360.12,-685.75 355.12,-685.75"/>
<polygon fill="black" stroke="black" points="354.12,-680.75 354.13,-690.75 352.13,-690.75 352.12,-680.75 354.12,-680.75"/>
<polyline fill="none" stroke="black" points="355.12,-685.75 350.12,-685.75"/>
<polygon fill="black" stroke="black" points="349.12,-680.75 349.13,-690.75 347.13,-690.75 347.12,-680.75 349.12,-680.75"/>
<polyline fill="none" stroke="black" points="350.12,-685.75 345.12,-685.75"/>
</g>
<!-- gdm.distribution.components.distribution_capacitor.DistributionCapacitor&#45;&gt;gdm.distribution.components.distribution_feeder.DistributionFeeder -->
<g id="edge6" class="edge">
<title>gdm.distribution.components.distribution_capacitor.DistributionCapacitor:e&#45;&gt;gdm.distribution.components.distribution_feeder.DistributionFeeder:w</title>
<path fill="none" stroke="black" d="M258.17,-730.76C622.49,-731.13 721.47,-752.27 1081.51,-752.98"/>
<polyline fill="none" stroke="black" points="248.25,-730.75 253.25,-730.75"/>
<polyline fill="none" stroke="black" points="253.25,-730.75 258.25,-730.76"/>
<polyline fill="none" stroke="black" points="1100.25,-753 1095.25,-753"/>
<polygon fill="black" stroke="black" points="1094.25,-747.99 1094.25,-757.99 1092.25,-757.99 1092.25,-747.99 1094.25,-747.99"/>
<polyline fill="none" stroke="black" points="1095.25,-753 1090.25,-752.99"/>
<ellipse fill="none" stroke="black" cx="1085.75" cy="-752.99" rx="4" ry="4"/>
</g>
<!-- gdm.distribution.components.distribution_capacitor.DistributionCapacitor&#45;&gt;gdm.distribution.components.distribution_substation.DistributionSubstation -->
<g id="edge7" class="edge">
<title>gdm.distribution.components.distribution_capacitor.DistributionCapacitor:e&#45;&gt;gdm.distribution.components.distribution_substation.DistributionSubstation:w</title>
<path fill="none" stroke="black" d="M257.93,-755.67C320.87,-771.52 672.17,-860.38 756.62,-881.67"/>
<polyline fill="none" stroke="black" points="248.25,-753.25 253.1,-754.46"/>
<polyline fill="none" stroke="black" points="253.1,-754.46 257.95,-755.68"/>
<polyline fill="none" stroke="black" points="774.88,-886.25 770.03,-885.03"/>
<polygon fill="black" stroke="black" points="770.27,-879.94 767.84,-889.64 765.9,-889.15 768.33,-879.45 770.27,-879.94"/>
<polyline fill="none" stroke="black" points="770.03,-885.03 765.18,-883.82"/>
<ellipse fill="none" stroke="black" cx="760.81" cy="-882.72" rx="4" ry="4"/>
</g>
<!-- gdm.distribution.controllers.base.capacitor_controller_base.CapacitorControllerBase -->
<g id="node7" class="node">
<title>gdm.distribution.controllers.base.capacitor_controller_base.CapacitorControllerBase</title>
<g id="a_node7"><a xlink:title="gdm.distribution.controllers.base.capacitor_controller_base.CapacitorControllerBase&#10;&#10;Interface for capacitor controllers. Phase connection specified in the capacitor.&#10;">
<polygon fill="none" stroke="black" points="415.88,-413.5 415.88,-436 570.38,-436 570.38,-413.5 415.88,-413.5"/>
<text text-anchor="start" x="420.38" y="-420.7" font-family="Times New Roman,Times,Liberation Serif,serif" font-weight="bold" font-size="14.00">CapacitorControllerBase</text>
<polygon fill="none" stroke="black" points="415.88,-391 415.88,-413.5 478.88,-413.5 478.88,-391 415.88,-391"/>
<text text-anchor="start" x="435.38" y="-397.2" font-family="Times New Roman,Times,Liberation Serif,serif" font-size="14.00">uuid</text>
<polygon fill="none" stroke="black" points="478.88,-391 478.88,-413.5 570.38,-413.5 570.38,-391 478.88,-391"/>
<text text-anchor="start" x="507.75" y="-397.2" font-family="Times New Roman,Times,Liberation Serif,serif" font-size="14.00">UUID</text>
<polygon fill="none" stroke="black" points="415.88,-368.5 415.88,-391 478.88,-391 478.88,-368.5 415.88,-368.5"/>
<text text-anchor="start" x="432.38" y="-374.7" font-family="Times New Roman,Times,Liberation Serif,serif" font-size="14.00">name</text>
<polygon fill="none" stroke="black" points="478.88,-368.5 478.88,-391 570.38,-391 570.38,-368.5 478.88,-368.5"/>
<text text-anchor="start" x="517.88" y="-374.7" font-family="Times New Roman,Times,Liberation Serif,serif" font-size="14.00">str</text>
<polygon fill="none" stroke="black" points="415.88,-346 415.88,-368.5 478.88,-368.5 478.88,-346 415.88,-346"/>
<text text-anchor="start" x="422.62" y="-352.2" font-family="Times New Roman,Times,Liberation Serif,serif" font-size="14.00">delay_on</text>
<polygon fill="none" stroke="black" points="478.88,-346 478.88,-368.5 570.38,-368.5 570.38,-346 478.88,-346"/>
<text text-anchor="start" x="481.88" y="-352.2" font-family="Times New Roman,Times,Liberation Serif,serif" font-size="14.00">Optional[Time]</text>
<polygon fill="none" stroke="black" points="415.88,-323.5 415.88,-346 478.88,-346 478.88,-323.5 415.88,-323.5"/>
<text text-anchor="start" x="421.5" y="-329.7" font-family="Times New Roman,Times,Liberation Serif,serif" font-size="14.00">delay_off</text>
<polygon fill="none" stroke="black" points="478.88,-323.5 478.88,-346 570.38,-346 570.38,-323.5 478.88,-323.5"/>
<text text-anchor="start" x="481.88" y="-329.7" font-family="Times New Roman,Times,Liberation Serif,serif" font-size="14.00">Optional[Time]</text>
<polygon fill="none" stroke="black" points="415.88,-301 415.88,-323.5 478.88,-323.5 478.88,-301 415.88,-301"/>
<text text-anchor="start" x="418.88" y="-307.2" font-family="Times New Roman,Times,Liberation Serif,serif" font-size="14.00">dead_time</text>
<polygon fill="none" stroke="black" points="478.88,-301 478.88,-323.5 570.38,-323.5 570.38,-301 478.88,-301"/>
<text text-anchor="start" x="481.88" y="-307.2" font-family="Times New Roman,Times,Liberation Serif,serif" font-size="14.00">Optional[Time]</text>
</a>
</g>
</g>
<!-- gdm.distribution.components.distribution_capacitor.DistributionCapacitor&#45;&gt;gdm.distribution.controllers.base.capacitor_controller_base.CapacitorControllerBase -->
<g id="edge8" class="edge">
<title>gdm.distribution.components.distribution_capacitor.DistributionCapacitor:e&#45;&gt;gdm.distribution.controllers.base.capacitor_controller_base.CapacitorControllerBase:w</title>
<path fill="none" stroke="black" d="M257.79,-640.31C340.07,-632.34 289.17,-517.93 356.25,-454.5 373.25,-438.42 381.88,-429.02 399.65,-425.91"/>
<polyline fill="none" stroke="black" points="248.25,-640.75 253.24,-640.52"/>
<polyline fill="none" stroke="black" points="253.24,-640.52 258.24,-640.29"/>
<polygon fill="black" stroke="black" points="404.57,-425.53 414.88,-429.26 409.89,-425.13 414.21,-424.8 414.21,-424.8 414.21,-424.8 409.89,-425.13 414.2,-420.29 404.57,-425.53"/>
<polyline fill="none" stroke="black" points="403.36,-425.63 398.37,-426"/>
</g>
<!-- gdm.distribution.equipment.capacitor_equipment.CapacitorEquipment -->
<g id="node8" class="node">
<title>gdm.distribution.equipment.capacitor_equipment.CapacitorEquipment</title>
<g id="a_node8"><a xlink:title="gdm.distribution.equipment.capacitor_equipment.CapacitorEquipment&#10;&#10;Interface for capacitor model.&#10;">
<polygon fill="none" stroke="black" points="356.25,-242.75 356.25,-265.25 630,-265.25 630,-242.75 356.25,-242.75"/>
<text text-anchor="start" x="431.62" y="-249.95" font-family="Times New Roman,Times,Liberation Serif,serif" font-weight="bold" font-size="14.00">CapacitorEquipment</text>
<polygon fill="none" stroke="black" points="356.25,-220.25 356.25,-242.75 454.5,-242.75 454.5,-220.25 356.25,-220.25"/>
<text text-anchor="start" x="393.38" y="-226.45" font-family="Times New Roman,Times,Liberation Serif,serif" font-size="14.00">uuid</text>
<polygon fill="none" stroke="black" points="454.5,-220.25 454.5,-242.75 630,-242.75 630,-220.25 454.5,-220.25"/>
<text text-anchor="start" x="525.38" y="-226.45" font-family="Times New Roman,Times,Liberation Serif,serif" font-size="14.00">UUID</text>
<polygon fill="none" stroke="black" points="356.25,-197.75 356.25,-220.25 454.5,-220.25 454.5,-197.75 356.25,-197.75"/>
<text text-anchor="start" x="390.38" y="-203.95" font-family="Times New Roman,Times,Liberation Serif,serif" font-size="14.00">name</text>
<polygon fill="none" stroke="black" points="454.5,-197.75 454.5,-220.25 630,-220.25 630,-197.75 454.5,-197.75"/>
<text text-anchor="start" x="535.5" y="-203.95" font-family="Times New Roman,Times,Liberation Serif,serif" font-size="14.00">str</text>
<polygon fill="none" stroke="black" points="356.25,-175.25 356.25,-197.75 454.5,-197.75 454.5,-175.25 356.25,-175.25"/>
<text text-anchor="start" x="359.25" y="-181.45" font-family="Times New Roman,Times,Liberation Serif,serif" font-size="14.00">phase_capacitors</text>
<polygon fill="none" stroke="black" points="454.5,-175.25 454.5,-197.75 630,-197.75 630,-175.25 454.5,-175.25"/>
<text text-anchor="start" x="457.5" y="-181.45" font-family="Times New Roman,Times,Liberation Serif,serif" font-size="14.00">list[PhaseCapacitorEquipment]</text>
<polygon fill="none" stroke="black" points="356.25,-152.75 356.25,-175.25 454.5,-175.25 454.5,-152.75 356.25,-152.75"/>
<text text-anchor="start" x="360.75" y="-158.95" font-family="Times New Roman,Times,Liberation Serif,serif" font-size="14.00">connection_type</text>
<polygon fill="none" stroke="black" points="454.5,-152.75 454.5,-175.25 630,-175.25 630,-152.75 454.5,-152.75"/>
<text text-anchor="start" x="497.25" y="-158.95" font-family="Times New Roman,Times,Liberation Serif,serif" font-size="14.00">ConnectionType</text>
<polygon fill="none" stroke="black" points="356.25,-130.25 356.25,-152.75 454.5,-152.75 454.5,-130.25 356.25,-130.25"/>
<text text-anchor="start" x="368.62" y="-136.45" font-family="Times New Roman,Times,Liberation Serif,serif" font-size="14.00">rated_voltage</text>
<polygon fill="none" stroke="black" points="454.5,-130.25 454.5,-152.75 630,-152.75 630,-130.25 454.5,-130.25"/>
<text text-anchor="start" x="499.88" y="-136.45" font-family="Times New Roman,Times,Liberation Serif,serif" font-size="14.00">PositiveVoltage</text>
<polygon fill="none" stroke="black" points="356.25,-107.75 356.25,-130.25 454.5,-130.25 454.5,-107.75 356.25,-107.75"/>
<text text-anchor="start" x="370.5" y="-113.95" font-family="Times New Roman,Times,Liberation Serif,serif" font-size="14.00">voltage_type</text>
<polygon fill="none" stroke="black" points="454.5,-107.75 454.5,-130.25 630,-130.25 630,-107.75 454.5,-107.75"/>
<text text-anchor="start" x="505.12" y="-113.95" font-family="Times New Roman,Times,Liberation Serif,serif" font-size="14.00">VoltageTypes</text>
</a>
</g>
</g>
<!-- gdm.distribution.components.distribution_capacitor.DistributionCapacitor&#45;&gt;gdm.distribution.equipment.capacitor_equipment.CapacitorEquipment -->
<g id="edge9" class="edge">
<title>gdm.distribution.components.distribution_capacitor.DistributionCapacitor:e&#45;&gt;gdm.distribution.equipment.capacitor_equipment.CapacitorEquipment:w</title>
<path fill="none" stroke="black" d="M258.14,-617.8C403.03,-603.93 204.46,-276.18 341.43,-255.07"/>
<polyline fill="none" stroke="black" points="248.25,-618.25 253.24,-618.02"/>
<polyline fill="none" stroke="black" points="253.24,-618.02 258.24,-617.79"/>
<polyline fill="none" stroke="black" points="356.25,-254 351.26,-254.36"/>
<polygon fill="black" stroke="black" points="349.91,-249.44 350.62,-259.42 348.63,-259.56 347.91,-249.59 349.91,-249.44"/>
<polyline fill="none" stroke="black" points="351.26,-254.36 346.28,-254.72"/>
<polygon fill="black" stroke="black" points="344.92,-249.8 345.64,-259.78 343.64,-259.92 342.92,-249.95 344.92,-249.8"/>
<polyline fill="none" stroke="black" points="346.28,-254.72 341.29,-255.08"/>
</g>
<!-- gdm.distribution.equipment.phase_capacitor_equipment.PhaseCapacitorEquipment -->
<g id="node9" class="node">
<title>gdm.distribution.equipment.phase_capacitor_equipment.PhaseCapacitorEquipment</title>
<g id="a_node9"><a xlink:title="gdm.distribution.equipment.phase_capacitor_equipment.PhaseCapacitorEquipment&#10;&#10;Interface for phase capacitor.&#10;">
<polygon fill="none" stroke="black" points="738,-176 738,-198.5 992.25,-198.5 992.25,-176 738,-176"/>
<text text-anchor="start" x="786.75" y="-183.2" font-family="Times New Roman,Times,Liberation Serif,serif" font-weight="bold" font-size="14.00">PhaseCapacitorEquipment</text>
<polygon fill="none" stroke="black" points="738,-153.5 738,-176 861,-176 861,-153.5 738,-153.5"/>
<text text-anchor="start" x="787.5" y="-159.7" font-family="Times New Roman,Times,Liberation Serif,serif" font-size="14.00">uuid</text>
<polygon fill="none" stroke="black" points="861,-153.5 861,-176 992.25,-176 992.25,-153.5 861,-153.5"/>
<text text-anchor="start" x="909.75" y="-159.7" font-family="Times New Roman,Times,Liberation Serif,serif" font-size="14.00">UUID</text>
<polygon fill="none" stroke="black" points="738,-131 738,-153.5 861,-153.5 861,-131 738,-131"/>
<text text-anchor="start" x="784.5" y="-137.2" font-family="Times New Roman,Times,Liberation Serif,serif" font-size="14.00">name</text>
<polygon fill="none" stroke="black" points="861,-131 861,-153.5 992.25,-153.5 992.25,-131 861,-131"/>
<text text-anchor="start" x="919.88" y="-137.2" font-family="Times New Roman,Times,Liberation Serif,serif" font-size="14.00">str</text>
<polygon fill="none" stroke="black" points="738,-108.5 738,-131 861,-131 861,-108.5 738,-108.5"/>
<text text-anchor="start" x="772.88" y="-114.7" font-family="Times New Roman,Times,Liberation Serif,serif" font-size="14.00">resistance</text>
<polygon fill="none" stroke="black" points="861,-108.5 861,-131 992.25,-131 992.25,-108.5 861,-108.5"/>
<text text-anchor="start" x="876" y="-114.7" font-family="Times New Roman,Times,Liberation Serif,serif" font-size="14.00">PositiveResistance</text>
<polygon fill="none" stroke="black" points="738,-86 738,-108.5 861,-108.5 861,-86 738,-86"/>
<text text-anchor="start" x="774" y="-92.2" font-family="Times New Roman,Times,Liberation Serif,serif" font-size="14.00">reactance</text>
<polygon fill="none" stroke="black" points="861,-86 861,-108.5 992.25,-108.5 992.25,-86 861,-86"/>
<text text-anchor="start" x="877.12" y="-92.2" font-family="Times New Roman,Times,Liberation Serif,serif" font-size="14.00">PositiveReactance</text>
<polygon fill="none" stroke="black" points="738,-63.5 738,-86 861,-86 861,-63.5 738,-63.5"/>
<text text-anchor="start" x="741" y="-69.7" font-family="Times New Roman,Times,Liberation Serif,serif" font-size="14.00">rated_reactive_power</text>
<polygon fill="none" stroke="black" points="861,-63.5 861,-86 992.25,-86 992.25,-63.5 861,-63.5"/>
<text text-anchor="start" x="864" y="-69.7" font-family="Times New Roman,Times,Liberation Serif,serif" font-size="14.00">PositiveReactivePower</text>
<polygon fill="none" stroke="black" points="738,-41 738,-63.5 861,-63.5 861,-41 738,-41"/>
<text text-anchor="start" x="757.88" y="-47.2" font-family="Times New Roman,Times,Liberation Serif,serif" font-size="14.00">num_banks_on</text>
<polygon fill="none" stroke="black" points="861,-41 861,-63.5 992.25,-63.5 992.25,-41 861,-41"/>
<text text-anchor="start" x="919.5" y="-47.2" font-family="Times New Roman,Times,Liberation Serif,serif" font-size="14.00">int</text>
<polygon fill="none" stroke="black" points="738,-18.5 738,-41 861,-41 861,-18.5 738,-18.5"/>
<text text-anchor="start" x="768" y="-24.7" font-family="Times New Roman,Times,Liberation Serif,serif" font-size="14.00">num_banks</text>
<polygon fill="none" stroke="black" points="861,-18.5 861,-41 992.25,-41 992.25,-18.5 861,-18.5"/>
<text text-anchor="start" x="919.5" y="-24.7" font-family="Times New Roman,Times,Liberation Serif,serif" font-size="14.00">int</text>
</a>
</g>
</g>
<!-- gdm.distribution.equipment.capacitor_equipment.CapacitorEquipment&#45;&gt;gdm.distribution.equipment.phase_capacitor_equipment.PhaseCapacitorEquipment -->
<g id="edge11" class="edge">
<title>gdm.distribution.equipment.capacitor_equipment.CapacitorEquipment:e&#45;&gt;gdm.distribution.equipment.phase_capacitor_equipment.PhaseCapacitorEquipment:w</title>
<path fill="none" stroke="black" d="M639.87,-186.51C674.92,-186.59 689.67,-187.1 722.64,-187.22"/>
<polyline fill="none" stroke="black" points="630,-186.5 635,-186.51"/>
<polyline fill="none" stroke="black" points="635,-186.51 640,-186.51"/>
<polygon fill="black" stroke="black" points="727.67,-187.23 737.66,-191.75 733,-187.24 737.33,-187.25 737.33,-187.25 737.33,-187.25 733,-187.24 737.67,-182.75 727.67,-187.23"/>
<polyline fill="none" stroke="black" points="726.45,-187.23 721.45,-187.22"/>
</g>
</g>
</svg>
