<?xml version="1.0" encoding="UTF-8" standalone="no"?>
<!DOCTYPE svg PUBLIC "-//W3C//DTD SVG 1.1//EN"
 "http://www.w3.org/Graphics/SVG/1.1/DTD/svg11.dtd">
<!-- Generated by graphviz version 9.0.0 (0)
 -->
<!-- Title: Entity Relationship Diagram created by erdantic Pages: 1 -->
<svg width="1112pt" height="635pt"
 viewBox="0.00 0.00 1112.00 634.50" xmlns="http://www.w3.org/2000/svg" xmlns:xlink="http://www.w3.org/1999/xlink">
<g id="graph0" class="graph" transform="scale(1 1) rotate(0) translate(4 630.5)">
<title>Entity Relationship Diagram created by erdantic</title>
<polygon fill="white" stroke="none" points="-4,4 -4,-630.5 1108,-630.5 1108,4 -4,4"/>
<text text-anchor="middle" x="552" y="-5.95" font-family="Times New Roman,Times,Liberation Serif,serif" font-size="9.00" fill="#a8a8a8">Created by erdantic v0.6.0 &lt;https://github.com/drivendataorg/erdantic&gt;</text>
<!-- gdm.distribution.equipment.bare_conductor_equipment.BareConductorEquipment -->
<g id="node1" class="node">
<title>gdm.distribution.equipment.bare_conductor_equipment.BareConductorEquipment</title>
<g id="a_node1"><a xlink:title="gdm.distribution.equipment.bare_conductor_equipment.BareConductorEquipment&#10;&#10;Interface for conductor catalaog.&#10;">
<polygon fill="none" stroke="black" points="559,-604.5 559,-626.5 844,-626.5 844,-604.5 559,-604.5"/>
<text text-anchor="start" x="623.88" y="-611.2" font-family="Times New Roman,Times,Liberation Serif,serif" font-weight="bold" font-size="14.00">BareConductorEquipment</text>
<polygon fill="none" stroke="black" points="559,-582.5 559,-604.5 682,-604.5 682,-582.5 559,-582.5"/>
<text text-anchor="start" x="608.5" y="-588.2" font-family="Times New Roman,Times,Liberation Serif,serif" font-size="14.00">uuid</text>
<polygon fill="none" stroke="black" points="682,-582.5 682,-604.5 844,-604.5 844,-582.5 682,-582.5"/>
<text text-anchor="start" x="746.12" y="-588.2" font-family="Times New Roman,Times,Liberation Serif,serif" font-size="14.00">UUID</text>
<polygon fill="none" stroke="black" points="559,-560.5 559,-582.5 682,-582.5 682,-560.5 559,-560.5"/>
<text text-anchor="start" x="605.5" y="-566.2" font-family="Times New Roman,Times,Liberation Serif,serif" font-size="14.00">name</text>
<polygon fill="none" stroke="black" points="682,-560.5 682,-582.5 844,-582.5 844,-560.5 682,-560.5"/>
<text text-anchor="start" x="756.25" y="-566.2" font-family="Times New Roman,Times,Liberation Serif,serif" font-size="14.00">str</text>
<polygon fill="none" stroke="black" points="559,-538.5 559,-560.5 682,-560.5 682,-538.5 559,-538.5"/>
<text text-anchor="start" x="566.12" y="-544.2" font-family="Times New Roman,Times,Liberation Serif,serif" font-size="14.00">conductor_diameter</text>
<polygon fill="none" stroke="black" points="682,-538.5 682,-560.5 844,-560.5 844,-538.5 682,-538.5"/>
<text text-anchor="start" x="717.62" y="-544.2" font-family="Times New Roman,Times,Liberation Serif,serif" font-size="14.00">PositiveDistance</text>
<polygon fill="none" stroke="black" points="559,-516.5 559,-538.5 682,-538.5 682,-516.5 559,-516.5"/>
<text text-anchor="start" x="578.88" y="-522.2" font-family="Times New Roman,Times,Liberation Serif,serif" font-size="14.00">conductor_gmr</text>
<polygon fill="none" stroke="black" points="682,-516.5 682,-538.5 844,-538.5 844,-516.5 682,-516.5"/>
<text text-anchor="start" x="717.62" y="-522.2" font-family="Times New Roman,Times,Liberation Serif,serif" font-size="14.00">PositiveDistance</text>
<polygon fill="none" stroke="black" points="559,-494.5 559,-516.5 682,-516.5 682,-494.5 559,-494.5"/>
<text text-anchor="start" x="595.38" y="-500.2" font-family="Times New Roman,Times,Liberation Serif,serif" font-size="14.00">ampacity</text>
<polygon fill="none" stroke="black" points="682,-494.5 682,-516.5 844,-516.5 844,-494.5 682,-494.5"/>
<text text-anchor="start" x="720.62" y="-500.2" font-family="Times New Roman,Times,Liberation Serif,serif" font-size="14.00">PositiveCurrent</text>
<polygon fill="none" stroke="black" points="559,-472.5 559,-494.5 682,-494.5 682,-472.5 559,-472.5"/>
<text text-anchor="start" x="584.5" y="-478.2" font-family="Times New Roman,Times,Liberation Serif,serif" font-size="14.00">ac_resistance</text>
<polygon fill="none" stroke="black" points="682,-472.5 682,-494.5 844,-494.5 844,-472.5 682,-472.5"/>
<text text-anchor="start" x="684.62" y="-478.2" font-family="Times New Roman,Times,Liberation Serif,serif" font-size="14.00">PositiveResistancePULength</text>
<polygon fill="none" stroke="black" points="559,-450.5 559,-472.5 682,-472.5 682,-450.5 559,-450.5"/>
<text text-anchor="start" x="562" y="-456.2" font-family="Times New Roman,Times,Liberation Serif,serif" font-size="14.00">emergency_ampacity</text>
<polygon fill="none" stroke="black" points="682,-450.5 682,-472.5 844,-472.5 844,-450.5 682,-450.5"/>
<text text-anchor="start" x="720.62" y="-456.2" font-family="Times New Roman,Times,Liberation Serif,serif" font-size="14.00">PositiveCurrent</text>
<polygon fill="none" stroke="black" points="559,-428.5 559,-450.5 682,-450.5 682,-428.5 559,-428.5"/>
<text text-anchor="start" x="584.12" y="-434.2" font-family="Times New Roman,Times,Liberation Serif,serif" font-size="14.00">dc_resistance</text>
<polygon fill="none" stroke="black" points="682,-428.5 682,-450.5 844,-450.5 844,-428.5 682,-428.5"/>
<text text-anchor="start" x="684.62" y="-434.2" font-family="Times New Roman,Times,Liberation Serif,serif" font-size="14.00">PositiveResistancePULength</text>
<polygon fill="none" stroke="black" points="559,-406.5 559,-428.5 682,-428.5 682,-406.5 559,-406.5"/>
<text text-anchor="start" x="583.75" y="-412.2" font-family="Times New Roman,Times,Liberation Serif,serif" font-size="14.00">loading_limit</text>
<polygon fill="none" stroke="black" points="682,-406.5 682,-428.5 844,-428.5 844,-406.5 682,-406.5"/>
<text text-anchor="start" x="687.62" y="-412.2" font-family="Times New Roman,Times,Liberation Serif,serif" font-size="14.00">Optional[ThermalLimitSet]</text>
</a>
</g>
</g>
<!-- gdm.distribution.limitset.ThermalLimitSet -->
<g id="node2" class="node">
<title>gdm.distribution.limitset.ThermalLimitSet</title>
<g id="a_node2"><a xlink:title="gdm.distribution.limitset.ThermalLimitSet&#10;&#10;Interface for voltage limit set.&#10;">
<polygon fill="none" stroke="black" points="952,-406.5 952,-428.5 1104,-428.5 1104,-406.5 952,-406.5"/>
<text text-anchor="start" x="977" y="-413.2" font-family="Times New Roman,Times,Liberation Serif,serif" font-weight="bold" font-size="14.00">ThermalLimitSet</text>
<polygon fill="none" stroke="black" points="952,-384.5 952,-406.5 1014,-406.5 1014,-384.5 952,-384.5"/>
<text text-anchor="start" x="971" y="-390.2" font-family="Times New Roman,Times,Liberation Serif,serif" font-size="14.00">uuid</text>
<polygon fill="none" stroke="black" points="1014,-384.5 1014,-406.5 1104,-406.5 1104,-384.5 1014,-384.5"/>
<text text-anchor="start" x="1042.12" y="-390.2" font-family="Times New Roman,Times,Liberation Serif,serif" font-size="14.00">UUID</text>
<polygon fill="none" stroke="black" points="952,-362.5 952,-384.5 1014,-384.5 1014,-362.5 952,-362.5"/>
<text text-anchor="start" x="968" y="-368.2" font-family="Times New Roman,Times,Liberation Serif,serif" font-size="14.00">name</text>
<polygon fill="none" stroke="black" points="1014,-362.5 1014,-384.5 1104,-384.5 1104,-362.5 1014,-362.5"/>
<text text-anchor="start" x="1052.25" y="-368.2" font-family="Times New Roman,Times,Liberation Serif,serif" font-size="14.00">str</text>
<polygon fill="none" stroke="black" points="952,-340.5 952,-362.5 1014,-362.5 1014,-340.5 952,-340.5"/>
<text text-anchor="start" x="954.88" y="-346.2" font-family="Times New Roman,Times,Liberation Serif,serif" font-size="14.00">limit_type</text>
<polygon fill="none" stroke="black" points="1014,-340.5 1014,-362.5 1104,-362.5 1104,-340.5 1014,-340.5"/>
<text text-anchor="start" x="1030.12" y="-346.2" font-family="Times New Roman,Times,Liberation Serif,serif" font-size="14.00">LimitType</text>
<polygon fill="none" stroke="black" points="952,-318.5 952,-340.5 1014,-340.5 1014,-318.5 952,-318.5"/>
<text text-anchor="start" x="968.38" y="-324.2" font-family="Times New Roman,Times,Liberation Serif,serif" font-size="14.00">value</text>
<polygon fill="none" stroke="black" points="1014,-318.5 1014,-340.5 1104,-340.5 1104,-318.5 1014,-318.5"/>
<text text-anchor="start" x="1016.62" y="-324.2" font-family="Times New Roman,Times,Liberation Serif,serif" font-size="14.00">PositiveCurrent</text>
</a>
</g>
</g>
<!-- gdm.distribution.equipment.bare_conductor_equipment.BareConductorEquipment&#45;&gt;gdm.distribution.limitset.ThermalLimitSet -->
<g id="edge1" class="edge">
<title>gdm.distribution.equipment.bare_conductor_equipment.BareConductorEquipment:e&#45;&gt;gdm.distribution.limitset.ThermalLimitSet:w</title>
<path fill="none" stroke="black" d="M853.87,-417.5C887.66,-417.5 902.59,-417.5 933.18,-417.5"/>
<polyline fill="none" stroke="black" points="844,-417.5 849,-417.5"/>
<polyline fill="none" stroke="black" points="849,-417.5 854,-417.5"/>
<polyline fill="none" stroke="black" points="952,-417.5 947,-417.5"/>
<polygon fill="black" stroke="black" points="946,-412.5 946,-422.5 944,-422.5 944,-412.5 946,-412.5"/>
<polyline fill="none" stroke="black" points="947,-417.5 942,-417.5"/>
<ellipse fill="none" stroke="black" cx="937.5" cy="-417.5" rx="4" ry="4"/>
</g>
<!-- gdm.distribution.equipment.concentric_cable_equipment.ConcentricCableEquipment -->
<g id="node3" class="node">
<title>gdm.distribution.equipment.concentric_cable_equipment.ConcentricCableEquipment</title>
<g id="a_node3"><a xlink:title="gdm.distribution.equipment.concentric_cable_equipment.ConcentricCableEquipment&#10;&#10;Interface for cable catalog.&#10;">
<polygon fill="none" stroke="black" points="559,-348.5 559,-370.5 844,-370.5 844,-348.5 559,-348.5"/>
<text text-anchor="start" x="620.12" y="-355.2" font-family="Times New Roman,Times,Liberation Serif,serif" font-weight="bold" font-size="14.00">ConcentricCableEquipment</text>
<polygon fill="none" stroke="black" points="559,-326.5 559,-348.5 682,-348.5 682,-326.5 559,-326.5"/>
<text text-anchor="start" x="608.5" y="-332.2" font-family="Times New Roman,Times,Liberation Serif,serif" font-size="14.00">uuid</text>
<polygon fill="none" stroke="black" points="682,-326.5 682,-348.5 844,-348.5 844,-326.5 682,-326.5"/>
<text text-anchor="start" x="746.12" y="-332.2" font-family="Times New Roman,Times,Liberation Serif,serif" font-size="14.00">UUID</text>
<polygon fill="none" stroke="black" points="559,-304.5 559,-326.5 682,-326.5 682,-304.5 559,-304.5"/>
<text text-anchor="start" x="605.5" y="-310.2" font-family="Times New Roman,Times,Liberation Serif,serif" font-size="14.00">name</text>
<polygon fill="none" stroke="black" points="682,-304.5 682,-326.5 844,-326.5 844,-304.5 682,-304.5"/>
<text text-anchor="start" x="756.25" y="-310.2" font-family="Times New Roman,Times,Liberation Serif,serif" font-size="14.00">str</text>
<polygon fill="none" stroke="black" points="559,-282.5 559,-304.5 682,-304.5 682,-282.5 559,-282.5"/>
<text text-anchor="start" x="576.62" y="-288.2" font-family="Times New Roman,Times,Liberation Serif,serif" font-size="14.00">strand_diameter</text>
<polygon fill="none" stroke="black" points="682,-282.5 682,-304.5 844,-304.5 844,-282.5 682,-282.5"/>
<text text-anchor="start" x="717.62" y="-288.2" font-family="Times New Roman,Times,Liberation Serif,serif" font-size="14.00">PositiveDistance</text>
<polygon fill="none" stroke="black" points="559,-260.5 559,-282.5 682,-282.5 682,-260.5 559,-260.5"/>
<text text-anchor="start" x="566.12" y="-266.2" font-family="Times New Roman,Times,Liberation Serif,serif" font-size="14.00">conductor_diameter</text>
<polygon fill="none" stroke="black" points="682,-260.5 682,-282.5 844,-282.5 844,-260.5 682,-260.5"/>
<text text-anchor="start" x="717.62" y="-266.2" font-family="Times New Roman,Times,Liberation Serif,serif" font-size="14.00">PositiveDistance</text>
<polygon fill="none" stroke="black" points="559,-238.5 559,-260.5 682,-260.5 682,-238.5 559,-238.5"/>
<text text-anchor="start" x="578.88" y="-244.2" font-family="Times New Roman,Times,Liberation Serif,serif" font-size="14.00">cable_diameter</text>
<polygon fill="none" stroke="black" points="682,-238.5 682,-260.5 844,-260.5 844,-238.5 682,-238.5"/>
<text text-anchor="start" x="717.62" y="-244.2" font-family="Times New Roman,Times,Liberation Serif,serif" font-size="14.00">PositiveDistance</text>
<polygon fill="none" stroke="black" points="559,-216.5 559,-238.5 682,-238.5 682,-216.5 559,-216.5"/>
<text text-anchor="start" x="565.38" y="-222.2" font-family="Times New Roman,Times,Liberation Serif,serif" font-size="14.00">insulation_thickness</text>
<polygon fill="none" stroke="black" points="682,-216.5 682,-238.5 844,-238.5 844,-216.5 682,-216.5"/>
<text text-anchor="start" x="717.62" y="-222.2" font-family="Times New Roman,Times,Liberation Serif,serif" font-size="14.00">PositiveDistance</text>
<polygon fill="none" stroke="black" points="559,-194.5 559,-216.5 682,-216.5 682,-194.5 559,-194.5"/>
<text text-anchor="start" x="566.5" y="-200.2" font-family="Times New Roman,Times,Liberation Serif,serif" font-size="14.00">insulation_diameter</text>
<polygon fill="none" stroke="black" points="682,-194.5 682,-216.5 844,-216.5 844,-194.5 682,-194.5"/>
<text text-anchor="start" x="717.62" y="-200.2" font-family="Times New Roman,Times,Liberation Serif,serif" font-size="14.00">PositiveDistance</text>
<polygon fill="none" stroke="black" points="559,-172.5 559,-194.5 682,-194.5 682,-172.5 559,-172.5"/>
<text text-anchor="start" x="595.38" y="-178.2" font-family="Times New Roman,Times,Liberation Serif,serif" font-size="14.00">ampacity</text>
<polygon fill="none" stroke="black" points="682,-172.5 682,-194.5 844,-194.5 844,-172.5 682,-172.5"/>
<text text-anchor="start" x="720.62" y="-178.2" font-family="Times New Roman,Times,Liberation Serif,serif" font-size="14.00">PositiveCurrent</text>
<polygon fill="none" stroke="black" points="559,-150.5 559,-172.5 682,-172.5 682,-150.5 559,-150.5"/>
<text text-anchor="start" x="562" y="-156.2" font-family="Times New Roman,Times,Liberation Serif,serif" font-size="14.00">emergency_ampacity</text>
<polygon fill="none" stroke="black" points="682,-150.5 682,-172.5 844,-172.5 844,-150.5 682,-150.5"/>
<text text-anchor="start" x="720.62" y="-156.2" font-family="Times New Roman,Times,Liberation Serif,serif" font-size="14.00">PositiveCurrent</text>
<polygon fill="none" stroke="black" points="559,-128.5 559,-150.5 682,-150.5 682,-128.5 559,-128.5"/>
<text text-anchor="start" x="578.88" y="-134.2" font-family="Times New Roman,Times,Liberation Serif,serif" font-size="14.00">conductor_gmr</text>
<polygon fill="none" stroke="black" points="682,-128.5 682,-150.5 844,-150.5 844,-128.5 682,-128.5"/>
<text text-anchor="start" x="717.62" y="-134.2" font-family="Times New Roman,Times,Liberation Serif,serif" font-size="14.00">PositiveDistance</text>
<polygon fill="none" stroke="black" points="559,-106.5 559,-128.5 682,-128.5 682,-106.5 559,-106.5"/>
<text text-anchor="start" x="589.38" y="-112.2" font-family="Times New Roman,Times,Liberation Serif,serif" font-size="14.00">strand_gmr</text>
<polygon fill="none" stroke="black" points="682,-106.5 682,-128.5 844,-128.5 844,-106.5 682,-106.5"/>
<text text-anchor="start" x="717.62" y="-112.2" font-family="Times New Roman,Times,Liberation Serif,serif" font-size="14.00">PositiveDistance</text>
<polygon fill="none" stroke="black" points="559,-84.5 559,-106.5 682,-106.5 682,-84.5 559,-84.5"/>
<text text-anchor="start" x="565.75" y="-90.2" font-family="Times New Roman,Times,Liberation Serif,serif" font-size="14.00">phase_ac_resistance</text>
<polygon fill="none" stroke="black" points="682,-84.5 682,-106.5 844,-106.5 844,-84.5 682,-84.5"/>
<text text-anchor="start" x="684.62" y="-90.2" font-family="Times New Roman,Times,Liberation Serif,serif" font-size="14.00">PositiveResistancePULength</text>
<polygon fill="none" stroke="black" points="559,-62.5 559,-84.5 682,-84.5 682,-62.5 559,-62.5"/>
<text text-anchor="start" x="564.62" y="-68.2" font-family="Times New Roman,Times,Liberation Serif,serif" font-size="14.00">strand_ac_resistance</text>
<polygon fill="none" stroke="black" points="682,-62.5 682,-84.5 844,-84.5 844,-62.5 682,-62.5"/>
<text text-anchor="start" x="684.62" y="-68.2" font-family="Times New Roman,Times,Liberation Serif,serif" font-size="14.00">PositiveResistancePULength</text>
<polygon fill="none" stroke="black" points="559,-40.5 559,-62.5 682,-62.5 682,-40.5 559,-40.5"/>
<text text-anchor="start" x="563.5" y="-46.2" font-family="Times New Roman,Times,Liberation Serif,serif" font-size="14.00">num_neutral_strands</text>
<polygon fill="none" stroke="black" points="682,-40.5 682,-62.5 844,-62.5 844,-40.5 682,-40.5"/>
<text text-anchor="start" x="755.88" y="-46.2" font-family="Times New Roman,Times,Liberation Serif,serif" font-size="14.00">int</text>
<polygon fill="none" stroke="black" points="559,-18.5 559,-40.5 682,-40.5 682,-18.5 559,-18.5"/>
<text text-anchor="start" x="583.75" y="-24.2" font-family="Times New Roman,Times,Liberation Serif,serif" font-size="14.00">rated_voltage</text>
<polygon fill="none" stroke="black" points="682,-18.5 682,-40.5 844,-40.5 844,-18.5 682,-18.5"/>
<text text-anchor="start" x="720.62" y="-24.2" font-family="Times New Roman,Times,Liberation Serif,serif" font-size="14.00">PositiveVoltage</text>
</a>
</g>
</g>
<!-- gdm.distribution.equipment.geometry_branch_equipment.GeometryBranchEquipment -->
<g id="node4" class="node">
<title>gdm.distribution.equipment.geometry_branch_equipment.GeometryBranchEquipment</title>
<g id="a_node4"><a xlink:title="gdm.distribution.equipment.geometry_branch_equipment.GeometryBranchEquipment&#10;&#10;Interface for geometry branch info.&#10;">
<polygon fill="none" stroke="black" points="0,-542.5 0,-564.5 451,-564.5 451,-542.5 0,-542.5"/>
<text text-anchor="start" x="141.88" y="-549.2" font-family="Times New Roman,Times,Liberation Serif,serif" font-weight="bold" font-size="14.00">GeometryBranchEquipment</text>
<polygon fill="none" stroke="black" points="0,-520.5 0,-542.5 116,-542.5 116,-520.5 0,-520.5"/>
<text text-anchor="start" x="46" y="-526.2" font-family="Times New Roman,Times,Liberation Serif,serif" font-size="14.00">uuid</text>
<polygon fill="none" stroke="black" points="116,-520.5 116,-542.5 451,-542.5 451,-520.5 116,-520.5"/>
<text text-anchor="start" x="266.62" y="-526.2" font-family="Times New Roman,Times,Liberation Serif,serif" font-size="14.00">UUID</text>
<polygon fill="none" stroke="black" points="0,-498.5 0,-520.5 116,-520.5 116,-498.5 0,-498.5"/>
<text text-anchor="start" x="43" y="-504.2" font-family="Times New Roman,Times,Liberation Serif,serif" font-size="14.00">name</text>
<polygon fill="none" stroke="black" points="116,-498.5 116,-520.5 451,-520.5 451,-498.5 116,-498.5"/>
<text text-anchor="start" x="276.75" y="-504.2" font-family="Times New Roman,Times,Liberation Serif,serif" font-size="14.00">str</text>
<polygon fill="none" stroke="black" points="0,-476.5 0,-498.5 116,-498.5 116,-476.5 0,-476.5"/>
<text text-anchor="start" x="28.38" y="-482.2" font-family="Times New Roman,Times,Liberation Serif,serif" font-size="14.00">conductors</text>
<polygon fill="none" stroke="black" points="116,-476.5 116,-498.5 451,-498.5 451,-476.5 116,-476.5"/>
<text text-anchor="start" x="118.88" y="-482.2" font-family="Times New Roman,Times,Liberation Serif,serif" font-size="14.00">list[BareConductorEquipment | ConcentricCableEquipment]</text>
<polygon fill="none" stroke="black" points="0,-454.5 0,-476.5 116,-476.5 116,-454.5 0,-454.5"/>
<text text-anchor="start" x="2.88" y="-460.2" font-family="Times New Roman,Times,Liberation Serif,serif" font-size="14.00">horizontal_positions</text>
<polygon fill="none" stroke="black" points="116,-454.5 116,-476.5 451,-476.5 451,-454.5 116,-454.5"/>
<text text-anchor="start" x="259.88" y="-460.2" font-family="Times New Roman,Times,Liberation Serif,serif" font-size="14.00">Distance</text>
<polygon fill="none" stroke="black" points="0,-432.5 0,-454.5 116,-454.5 116,-432.5 0,-432.5"/>
<text text-anchor="start" x="10" y="-438.2" font-family="Times New Roman,Times,Liberation Serif,serif" font-size="14.00">vertical_positions</text>
<polygon fill="none" stroke="black" points="116,-432.5 116,-454.5 451,-454.5 451,-432.5 116,-432.5"/>
<text text-anchor="start" x="259.88" y="-438.2" font-family="Times New Roman,Times,Liberation Serif,serif" font-size="14.00">Distance</text>
</a>
</g>
</g>
<!-- gdm.distribution.equipment.geometry_branch_equipment.GeometryBranchEquipment&#45;&gt;gdm.distribution.equipment.bare_conductor_equipment.BareConductorEquipment -->
<g id="edge2" class="edge">
<title>gdm.distribution.equipment.geometry_branch_equipment.GeometryBranchEquipment:e&#45;&gt;gdm.distribution.equipment.bare_conductor_equipment.BareConductorEquipment:w</title>
<path fill="none" stroke="black" d="M460.73,-488.32C516.6,-498.28 493.16,-596.29 542.9,-613.06"/>
<polyline fill="none" stroke="black" points="451,-487.5 455.98,-487.92"/>
<polyline fill="none" stroke="black" points="455.98,-487.92 460.96,-488.34"/>
<polygon fill="black" stroke="black" points="548.78,-613.95 558,-619.9 554.06,-614.75 558.34,-615.4 558.34,-615.4 558.34,-615.4 554.06,-614.75 559.34,-611 548.78,-613.95"/>
<polyline fill="none" stroke="black" points="547.58,-613.77 542.63,-613.02"/>
</g>
<!-- gdm.distribution.equipment.geometry_branch_equipment.GeometryBranchEquipment&#45;&gt;gdm.distribution.equipment.concentric_cable_equipment.ConcentricCableEquipment -->
<g id="edge3" class="edge">
<title>gdm.distribution.equipment.geometry_branch_equipment.GeometryBranchEquipment:e&#45;&gt;gdm.distribution.equipment.concentric_cable_equipment.ConcentricCableEquipment:w</title>
<path fill="none" stroke="black" d="M460.73,-486.68C516.6,-476.72 493.16,-378.71 542.9,-361.94"/>
<polyline fill="none" stroke="black" points="451,-487.5 455.98,-487.08"/>
<polyline fill="none" stroke="black" points="455.98,-487.08 460.96,-486.66"/>
<polygon fill="black" stroke="black" points="548.78,-361.05 559.34,-364 554.06,-360.25 558.34,-359.6 558.34,-359.6 558.34,-359.6 554.06,-360.25 558,-355.1 548.78,-361.05"/>
<polyline fill="none" stroke="black" points="547.58,-361.23 542.63,-361.98"/>
</g>
</g>
</svg>
