<?xml version="1.0" encoding="UTF-8" standalone="no"?>
<!DOCTYPE svg PUBLIC "-//W3C//DTD SVG 1.1//EN"
 "http://www.w3.org/Graphics/SVG/1.1/DTD/svg11.dtd">
<!-- Generated by graphviz version 12.2.1 (20241206.2353)
 -->
<!-- Title: Entity Relationship Diagram created by erdantic Pages: 1 -->
<svg width="1114pt" height="648pt"
 viewBox="0.00 0.00 1114.25 648.00" xmlns="http://www.w3.org/2000/svg" xmlns:xlink="http://www.w3.org/1999/xlink">
<g id="graph0" class="graph" transform="scale(1 1) rotate(0) translate(4 644)">
<title>Entity Relationship Diagram created by erdantic</title>
<polygon fill="white" stroke="none" points="-4,4 -4,-644 1110.25,-644 1110.25,4 -4,4"/>
<text text-anchor="middle" x="553.12" y="-5.95" font-family="Times New Roman,Times,Liberation Serif,serif" font-size="9.00" fill="#a8a8a8">Created by erdantic v1.0.5 &lt;https://github.com/drivendataorg/erdantic&gt;</text>
<!-- gdm.distribution.common.limitset.ThermalLimitSet -->
<g id="node1" class="node">
<title>gdm.distribution.common.limitset.ThermalLimitSet</title>
<g id="a_node1"><a xlink:title="gdm.distribution.common.limitset.ThermalLimitSet&#10;&#10;Interface for voltage limit set.&#10;">
<polygon fill="none" stroke="black" points="953.25,-415.25 953.25,-437.75 1106.25,-437.75 1106.25,-415.25 953.25,-415.25"/>
<text text-anchor="start" x="978.75" y="-422.45" font-family="Times New Roman,Times,Liberation Serif,serif" font-weight="bold" font-size="14.00">ThermalLimitSet</text>
<polygon fill="none" stroke="black" points="953.25,-392.75 953.25,-415.25 1015.5,-415.25 1015.5,-392.75 953.25,-392.75"/>
<text text-anchor="start" x="972.38" y="-398.95" font-family="Times New Roman,Times,Liberation Serif,serif" font-size="14.00">uuid</text>
<polygon fill="none" stroke="black" points="1015.5,-392.75 1015.5,-415.25 1106.25,-415.25 1106.25,-392.75 1015.5,-392.75"/>
<text text-anchor="start" x="1044" y="-398.95" font-family="Times New Roman,Times,Liberation Serif,serif" font-size="14.00">UUID</text>
<polygon fill="none" stroke="black" points="953.25,-370.25 953.25,-392.75 1015.5,-392.75 1015.5,-370.25 953.25,-370.25"/>
<text text-anchor="start" x="969.38" y="-376.45" font-family="Times New Roman,Times,Liberation Serif,serif" font-size="14.00">name</text>
<polygon fill="none" stroke="black" points="1015.5,-370.25 1015.5,-392.75 1106.25,-392.75 1106.25,-370.25 1015.5,-370.25"/>
<text text-anchor="start" x="1054.12" y="-376.45" font-family="Times New Roman,Times,Liberation Serif,serif" font-size="14.00">str</text>
<polygon fill="none" stroke="black" points="953.25,-347.75 953.25,-370.25 1015.5,-370.25 1015.5,-347.75 953.25,-347.75"/>
<text text-anchor="start" x="956.25" y="-353.95" font-family="Times New Roman,Times,Liberation Serif,serif" font-size="14.00">limit_type</text>
<polygon fill="none" stroke="black" points="1015.5,-347.75 1015.5,-370.25 1106.25,-370.25 1106.25,-347.75 1015.5,-347.75"/>
<text text-anchor="start" x="1031.62" y="-353.95" font-family="Times New Roman,Times,Liberation Serif,serif" font-size="14.00">LimitType</text>
<polygon fill="none" stroke="black" points="953.25,-325.25 953.25,-347.75 1015.5,-347.75 1015.5,-325.25 953.25,-325.25"/>
<text text-anchor="start" x="969.75" y="-331.45" font-family="Times New Roman,Times,Liberation Serif,serif" font-size="14.00">value</text>
<polygon fill="none" stroke="black" points="1015.5,-325.25 1015.5,-347.75 1106.25,-347.75 1106.25,-325.25 1015.5,-325.25"/>
<text text-anchor="start" x="1018.5" y="-331.45" font-family="Times New Roman,Times,Liberation Serif,serif" font-size="14.00">PositiveCurrent</text>
</a>
</g>
</g>
<!-- gdm.distribution.equipment.bare_conductor_equipment.BareConductorEquipment -->
<g id="node2" class="node">
<title>gdm.distribution.equipment.bare_conductor_equipment.BareConductorEquipment</title>
<g id="a_node2"><a xlink:title="gdm.distribution.equipment.bare_conductor_equipment.BareConductorEquipment&#10;&#10;Interface for conductor catalaog.&#10;">
<polygon fill="none" stroke="black" points="559.5,-617.5 559.5,-640 845.25,-640 845.25,-617.5 559.5,-617.5"/>
<text text-anchor="start" x="624.75" y="-624.7" font-family="Times New Roman,Times,Liberation Serif,serif" font-weight="bold" font-size="14.00">BareConductorEquipment</text>
<polygon fill="none" stroke="black" points="559.5,-595 559.5,-617.5 682.5,-617.5 682.5,-595 559.5,-595"/>
<text text-anchor="start" x="609" y="-601.2" font-family="Times New Roman,Times,Liberation Serif,serif" font-size="14.00">uuid</text>
<polygon fill="none" stroke="black" points="682.5,-595 682.5,-617.5 845.25,-617.5 845.25,-595 682.5,-595"/>
<text text-anchor="start" x="747" y="-601.2" font-family="Times New Roman,Times,Liberation Serif,serif" font-size="14.00">UUID</text>
<polygon fill="none" stroke="black" points="559.5,-572.5 559.5,-595 682.5,-595 682.5,-572.5 559.5,-572.5"/>
<text text-anchor="start" x="606" y="-578.7" font-family="Times New Roman,Times,Liberation Serif,serif" font-size="14.00">name</text>
<polygon fill="none" stroke="black" points="682.5,-572.5 682.5,-595 845.25,-595 845.25,-572.5 682.5,-572.5"/>
<text text-anchor="start" x="757.12" y="-578.7" font-family="Times New Roman,Times,Liberation Serif,serif" font-size="14.00">str</text>
<polygon fill="none" stroke="black" points="559.5,-550 559.5,-572.5 682.5,-572.5 682.5,-550 559.5,-550"/>
<text text-anchor="start" x="566.62" y="-556.2" font-family="Times New Roman,Times,Liberation Serif,serif" font-size="14.00">conductor_diameter</text>
<polygon fill="none" stroke="black" points="682.5,-550 682.5,-572.5 845.25,-572.5 845.25,-550 682.5,-550"/>
<text text-anchor="start" x="718.5" y="-556.2" font-family="Times New Roman,Times,Liberation Serif,serif" font-size="14.00">PositiveDistance</text>
<polygon fill="none" stroke="black" points="559.5,-527.5 559.5,-550 682.5,-550 682.5,-527.5 559.5,-527.5"/>
<text text-anchor="start" x="579.38" y="-533.7" font-family="Times New Roman,Times,Liberation Serif,serif" font-size="14.00">conductor_gmr</text>
<polygon fill="none" stroke="black" points="682.5,-527.5 682.5,-550 845.25,-550 845.25,-527.5 682.5,-527.5"/>
<text text-anchor="start" x="718.5" y="-533.7" font-family="Times New Roman,Times,Liberation Serif,serif" font-size="14.00">PositiveDistance</text>
<polygon fill="none" stroke="black" points="559.5,-505 559.5,-527.5 682.5,-527.5 682.5,-505 559.5,-505"/>
<text text-anchor="start" x="595.88" y="-511.2" font-family="Times New Roman,Times,Liberation Serif,serif" font-size="14.00">ampacity</text>
<polygon fill="none" stroke="black" points="682.5,-505 682.5,-527.5 845.25,-527.5 845.25,-505 682.5,-505"/>
<text text-anchor="start" x="721.5" y="-511.2" font-family="Times New Roman,Times,Liberation Serif,serif" font-size="14.00">PositiveCurrent</text>
<polygon fill="none" stroke="black" points="559.5,-482.5 559.5,-505 682.5,-505 682.5,-482.5 559.5,-482.5"/>
<text text-anchor="start" x="585" y="-488.7" font-family="Times New Roman,Times,Liberation Serif,serif" font-size="14.00">ac_resistance</text>
<polygon fill="none" stroke="black" points="682.5,-482.5 682.5,-505 845.25,-505 845.25,-482.5 682.5,-482.5"/>
<text text-anchor="start" x="685.5" y="-488.7" font-family="Times New Roman,Times,Liberation Serif,serif" font-size="14.00">PositiveResistancePULength</text>
<polygon fill="none" stroke="black" points="559.5,-460 559.5,-482.5 682.5,-482.5 682.5,-460 559.5,-460"/>
<text text-anchor="start" x="562.5" y="-466.2" font-family="Times New Roman,Times,Liberation Serif,serif" font-size="14.00">emergency_ampacity</text>
<polygon fill="none" stroke="black" points="682.5,-460 682.5,-482.5 845.25,-482.5 845.25,-460 682.5,-460"/>
<text text-anchor="start" x="721.5" y="-466.2" font-family="Times New Roman,Times,Liberation Serif,serif" font-size="14.00">PositiveCurrent</text>
<polygon fill="none" stroke="black" points="559.5,-437.5 559.5,-460 682.5,-460 682.5,-437.5 559.5,-437.5"/>
<text text-anchor="start" x="584.62" y="-443.7" font-family="Times New Roman,Times,Liberation Serif,serif" font-size="14.00">dc_resistance</text>
<polygon fill="none" stroke="black" points="682.5,-437.5 682.5,-460 845.25,-460 845.25,-437.5 682.5,-437.5"/>
<text text-anchor="start" x="685.5" y="-443.7" font-family="Times New Roman,Times,Liberation Serif,serif" font-size="14.00">PositiveResistancePULength</text>
<polygon fill="none" stroke="black" points="559.5,-415 559.5,-437.5 682.5,-437.5 682.5,-415 559.5,-415"/>
<text text-anchor="start" x="584.25" y="-421.2" font-family="Times New Roman,Times,Liberation Serif,serif" font-size="14.00">loading_limit</text>
<polygon fill="none" stroke="black" points="682.5,-415 682.5,-437.5 845.25,-437.5 845.25,-415 682.5,-415"/>
<text text-anchor="start" x="688.5" y="-421.2" font-family="Times New Roman,Times,Liberation Serif,serif" font-size="14.00">Optional[ThermalLimitSet]</text>
</a>
</g>
</g>
<!-- gdm.distribution.equipment.bare_conductor_equipment.BareConductorEquipment&#45;&gt;gdm.distribution.common.limitset.ThermalLimitSet -->
<g id="edge1" class="edge">
<title>gdm.distribution.equipment.bare_conductor_equipment.BareConductorEquipment:e&#45;&gt;gdm.distribution.common.limitset.ThermalLimitSet:w</title>
<path fill="none" stroke="black" d="M855.12,-426.25C888.91,-426.28 903.84,-426.44 934.43,-426.49"/>
<polyline fill="none" stroke="black" points="845.25,-426.25 850.25,-426.25"/>
<polyline fill="none" stroke="black" points="850.25,-426.25 855.25,-426.25"/>
<polyline fill="none" stroke="black" points="953.25,-426.5 948.25,-426.5"/>
<polygon fill="black" stroke="black" points="947.25,-421.5 947.25,-431.5 945.25,-431.49 945.25,-421.49 947.25,-421.5"/>
<polyline fill="none" stroke="black" points="948.25,-426.5 943.25,-426.49"/>
<ellipse fill="none" stroke="black" cx="938.75" cy="-426.49" rx="4" ry="4"/>
</g>
<!-- gdm.distribution.equipment.concentric_cable_equipment.ConcentricCableEquipment -->
<g id="node3" class="node">
<title>gdm.distribution.equipment.concentric_cable_equipment.ConcentricCableEquipment</title>
<g id="a_node3"><a xlink:title="gdm.distribution.equipment.concentric_cable_equipment.ConcentricCableEquipment&#10;&#10;Interface for cable catalog.&#10;">
<polygon fill="none" stroke="black" points="559.5,-356 559.5,-378.5 845.25,-378.5 845.25,-356 559.5,-356"/>
<text text-anchor="start" x="621" y="-363.2" font-family="Times New Roman,Times,Liberation Serif,serif" font-weight="bold" font-size="14.00">ConcentricCableEquipment</text>
<polygon fill="none" stroke="black" points="559.5,-333.5 559.5,-356 682.5,-356 682.5,-333.5 559.5,-333.5"/>
<text text-anchor="start" x="609" y="-339.7" font-family="Times New Roman,Times,Liberation Serif,serif" font-size="14.00">uuid</text>
<polygon fill="none" stroke="black" points="682.5,-333.5 682.5,-356 845.25,-356 845.25,-333.5 682.5,-333.5"/>
<text text-anchor="start" x="747" y="-339.7" font-family="Times New Roman,Times,Liberation Serif,serif" font-size="14.00">UUID</text>
<polygon fill="none" stroke="black" points="559.5,-311 559.5,-333.5 682.5,-333.5 682.5,-311 559.5,-311"/>
<text text-anchor="start" x="606" y="-317.2" font-family="Times New Roman,Times,Liberation Serif,serif" font-size="14.00">name</text>
<polygon fill="none" stroke="black" points="682.5,-311 682.5,-333.5 845.25,-333.5 845.25,-311 682.5,-311"/>
<text text-anchor="start" x="757.12" y="-317.2" font-family="Times New Roman,Times,Liberation Serif,serif" font-size="14.00">str</text>
<polygon fill="none" stroke="black" points="559.5,-288.5 559.5,-311 682.5,-311 682.5,-288.5 559.5,-288.5"/>
<text text-anchor="start" x="577.12" y="-294.7" font-family="Times New Roman,Times,Liberation Serif,serif" font-size="14.00">strand_diameter</text>
<polygon fill="none" stroke="black" points="682.5,-288.5 682.5,-311 845.25,-311 845.25,-288.5 682.5,-288.5"/>
<text text-anchor="start" x="718.5" y="-294.7" font-family="Times New Roman,Times,Liberation Serif,serif" font-size="14.00">PositiveDistance</text>
<polygon fill="none" stroke="black" points="559.5,-266 559.5,-288.5 682.5,-288.5 682.5,-266 559.5,-266"/>
<text text-anchor="start" x="566.62" y="-272.2" font-family="Times New Roman,Times,Liberation Serif,serif" font-size="14.00">conductor_diameter</text>
<polygon fill="none" stroke="black" points="682.5,-266 682.5,-288.5 845.25,-288.5 845.25,-266 682.5,-266"/>
<text text-anchor="start" x="718.5" y="-272.2" font-family="Times New Roman,Times,Liberation Serif,serif" font-size="14.00">PositiveDistance</text>
<polygon fill="none" stroke="black" points="559.5,-243.5 559.5,-266 682.5,-266 682.5,-243.5 559.5,-243.5"/>
<text text-anchor="start" x="579.38" y="-249.7" font-family="Times New Roman,Times,Liberation Serif,serif" font-size="14.00">cable_diameter</text>
<polygon fill="none" stroke="black" points="682.5,-243.5 682.5,-266 845.25,-266 845.25,-243.5 682.5,-243.5"/>
<text text-anchor="start" x="718.5" y="-249.7" font-family="Times New Roman,Times,Liberation Serif,serif" font-size="14.00">PositiveDistance</text>
<polygon fill="none" stroke="black" points="559.5,-221 559.5,-243.5 682.5,-243.5 682.5,-221 559.5,-221"/>
<text text-anchor="start" x="565.88" y="-227.2" font-family="Times New Roman,Times,Liberation Serif,serif" font-size="14.00">insulation_thickness</text>
<polygon fill="none" stroke="black" points="682.5,-221 682.5,-243.5 845.25,-243.5 845.25,-221 682.5,-221"/>
<text text-anchor="start" x="718.5" y="-227.2" font-family="Times New Roman,Times,Liberation Serif,serif" font-size="14.00">PositiveDistance</text>
<polygon fill="none" stroke="black" points="559.5,-198.5 559.5,-221 682.5,-221 682.5,-198.5 559.5,-198.5"/>
<text text-anchor="start" x="567" y="-204.7" font-family="Times New Roman,Times,Liberation Serif,serif" font-size="14.00">insulation_diameter</text>
<polygon fill="none" stroke="black" points="682.5,-198.5 682.5,-221 845.25,-221 845.25,-198.5 682.5,-198.5"/>
<text text-anchor="start" x="718.5" y="-204.7" font-family="Times New Roman,Times,Liberation Serif,serif" font-size="14.00">PositiveDistance</text>
<polygon fill="none" stroke="black" points="559.5,-176 559.5,-198.5 682.5,-198.5 682.5,-176 559.5,-176"/>
<text text-anchor="start" x="595.88" y="-182.2" font-family="Times New Roman,Times,Liberation Serif,serif" font-size="14.00">ampacity</text>
<polygon fill="none" stroke="black" points="682.5,-176 682.5,-198.5 845.25,-198.5 845.25,-176 682.5,-176"/>
<text text-anchor="start" x="721.5" y="-182.2" font-family="Times New Roman,Times,Liberation Serif,serif" font-size="14.00">PositiveCurrent</text>
<polygon fill="none" stroke="black" points="559.5,-153.5 559.5,-176 682.5,-176 682.5,-153.5 559.5,-153.5"/>
<text text-anchor="start" x="562.5" y="-159.7" font-family="Times New Roman,Times,Liberation Serif,serif" font-size="14.00">emergency_ampacity</text>
<polygon fill="none" stroke="black" points="682.5,-153.5 682.5,-176 845.25,-176 845.25,-153.5 682.5,-153.5"/>
<text text-anchor="start" x="721.5" y="-159.7" font-family="Times New Roman,Times,Liberation Serif,serif" font-size="14.00">PositiveCurrent</text>
<polygon fill="none" stroke="black" points="559.5,-131 559.5,-153.5 682.5,-153.5 682.5,-131 559.5,-131"/>
<text text-anchor="start" x="579.38" y="-137.2" font-family="Times New Roman,Times,Liberation Serif,serif" font-size="14.00">conductor_gmr</text>
<polygon fill="none" stroke="black" points="682.5,-131 682.5,-153.5 845.25,-153.5 845.25,-131 682.5,-131"/>
<text text-anchor="start" x="718.5" y="-137.2" font-family="Times New Roman,Times,Liberation Serif,serif" font-size="14.00">PositiveDistance</text>
<polygon fill="none" stroke="black" points="559.5,-108.5 559.5,-131 682.5,-131 682.5,-108.5 559.5,-108.5"/>
<text text-anchor="start" x="589.88" y="-114.7" font-family="Times New Roman,Times,Liberation Serif,serif" font-size="14.00">strand_gmr</text>
<polygon fill="none" stroke="black" points="682.5,-108.5 682.5,-131 845.25,-131 845.25,-108.5 682.5,-108.5"/>
<text text-anchor="start" x="718.5" y="-114.7" font-family="Times New Roman,Times,Liberation Serif,serif" font-size="14.00">PositiveDistance</text>
<polygon fill="none" stroke="black" points="559.5,-86 559.5,-108.5 682.5,-108.5 682.5,-86 559.5,-86"/>
<text text-anchor="start" x="566.25" y="-92.2" font-family="Times New Roman,Times,Liberation Serif,serif" font-size="14.00">phase_ac_resistance</text>
<polygon fill="none" stroke="black" points="682.5,-86 682.5,-108.5 845.25,-108.5 845.25,-86 682.5,-86"/>
<text text-anchor="start" x="685.5" y="-92.2" font-family="Times New Roman,Times,Liberation Serif,serif" font-size="14.00">PositiveResistancePULength</text>
<polygon fill="none" stroke="black" points="559.5,-63.5 559.5,-86 682.5,-86 682.5,-63.5 559.5,-63.5"/>
<text text-anchor="start" x="565.12" y="-69.7" font-family="Times New Roman,Times,Liberation Serif,serif" font-size="14.00">strand_ac_resistance</text>
<polygon fill="none" stroke="black" points="682.5,-63.5 682.5,-86 845.25,-86 845.25,-63.5 682.5,-63.5"/>
<text text-anchor="start" x="685.5" y="-69.7" font-family="Times New Roman,Times,Liberation Serif,serif" font-size="14.00">PositiveResistancePULength</text>
<polygon fill="none" stroke="black" points="559.5,-41 559.5,-63.5 682.5,-63.5 682.5,-41 559.5,-41"/>
<text text-anchor="start" x="564" y="-47.2" font-family="Times New Roman,Times,Liberation Serif,serif" font-size="14.00">num_neutral_strands</text>
<polygon fill="none" stroke="black" points="682.5,-41 682.5,-63.5 845.25,-63.5 845.25,-41 682.5,-41"/>
<text text-anchor="start" x="756.75" y="-47.2" font-family="Times New Roman,Times,Liberation Serif,serif" font-size="14.00">int</text>
<polygon fill="none" stroke="black" points="559.5,-18.5 559.5,-41 682.5,-41 682.5,-18.5 559.5,-18.5"/>
<text text-anchor="start" x="584.25" y="-24.7" font-family="Times New Roman,Times,Liberation Serif,serif" font-size="14.00">rated_voltage</text>
<polygon fill="none" stroke="black" points="682.5,-18.5 682.5,-41 845.25,-41 845.25,-18.5 682.5,-18.5"/>
<text text-anchor="start" x="721.5" y="-24.7" font-family="Times New Roman,Times,Liberation Serif,serif" font-size="14.00">PositiveVoltage</text>
</a>
</g>
</g>
<!-- gdm.distribution.equipment.geometry_branch_equipment.GeometryBranchEquipment -->
<g id="node4" class="node">
<title>gdm.distribution.equipment.geometry_branch_equipment.GeometryBranchEquipment</title>
<g id="a_node4"><a xlink:title="gdm.distribution.equipment.geometry_branch_equipment.GeometryBranchEquipment&#10;&#10;Interface for geometry branch info.&#10;">
<polygon fill="none" stroke="black" points="0,-553.5 0,-576 451.5,-576 451.5,-553.5 0,-553.5"/>
<text text-anchor="start" x="142.12" y="-560.7" font-family="Times New Roman,Times,Liberation Serif,serif" font-weight="bold" font-size="14.00">GeometryBranchEquipment</text>
<polygon fill="none" stroke="black" points="0,-531 0,-553.5 116.25,-553.5 116.25,-531 0,-531"/>
<text text-anchor="start" x="46.12" y="-537.2" font-family="Times New Roman,Times,Liberation Serif,serif" font-size="14.00">uuid</text>
<polygon fill="none" stroke="black" points="116.25,-531 116.25,-553.5 451.5,-553.5 451.5,-531 116.25,-531"/>
<text text-anchor="start" x="267" y="-537.2" font-family="Times New Roman,Times,Liberation Serif,serif" font-size="14.00">UUID</text>
<polygon fill="none" stroke="black" points="0,-508.5 0,-531 116.25,-531 116.25,-508.5 0,-508.5"/>
<text text-anchor="start" x="43.12" y="-514.7" font-family="Times New Roman,Times,Liberation Serif,serif" font-size="14.00">name</text>
<polygon fill="none" stroke="black" points="116.25,-508.5 116.25,-531 451.5,-531 451.5,-508.5 116.25,-508.5"/>
<text text-anchor="start" x="277.12" y="-514.7" font-family="Times New Roman,Times,Liberation Serif,serif" font-size="14.00">str</text>
<polygon fill="none" stroke="black" points="0,-486 0,-508.5 116.25,-508.5 116.25,-486 0,-486"/>
<text text-anchor="start" x="28.5" y="-492.2" font-family="Times New Roman,Times,Liberation Serif,serif" font-size="14.00">conductors</text>
<polygon fill="none" stroke="black" points="116.25,-486 116.25,-508.5 451.5,-508.5 451.5,-486 116.25,-486"/>
<text text-anchor="start" x="119.25" y="-492.2" font-family="Times New Roman,Times,Liberation Serif,serif" font-size="14.00">list[BareConductorEquipment | ConcentricCableEquipment]</text>
<polygon fill="none" stroke="black" points="0,-463.5 0,-486 116.25,-486 116.25,-463.5 0,-463.5"/>
<text text-anchor="start" x="3" y="-469.7" font-family="Times New Roman,Times,Liberation Serif,serif" font-size="14.00">horizontal_positions</text>
<polygon fill="none" stroke="black" points="116.25,-463.5 116.25,-486 451.5,-486 451.5,-463.5 116.25,-463.5"/>
<text text-anchor="start" x="260.25" y="-469.7" font-family="Times New Roman,Times,Liberation Serif,serif" font-size="14.00">Distance</text>
<polygon fill="none" stroke="black" points="0,-441 0,-463.5 116.25,-463.5 116.25,-441 0,-441"/>
<text text-anchor="start" x="10.12" y="-447.2" font-family="Times New Roman,Times,Liberation Serif,serif" font-size="14.00">vertical_positions</text>
<polygon fill="none" stroke="black" points="116.25,-441 116.25,-463.5 451.5,-463.5 451.5,-441 116.25,-441"/>
<text text-anchor="start" x="260.25" y="-447.2" font-family="Times New Roman,Times,Liberation Serif,serif" font-size="14.00">Distance</text>
</a>
</g>
</g>
<!-- gdm.distribution.equipment.geometry_branch_equipment.GeometryBranchEquipment&#45;&gt;gdm.distribution.equipment.bare_conductor_equipment.BareConductorEquipment -->
<g id="edge2" class="edge">
<title>gdm.distribution.equipment.geometry_branch_equipment.GeometryBranchEquipment:e&#45;&gt;gdm.distribution.equipment.bare_conductor_equipment.BareConductorEquipment:w</title>
<path fill="none" stroke="black" d="M461.38,-498.09C518.49,-508.41 492.43,-610.75 544.48,-626.67"/>
<polyline fill="none" stroke="black" points="451.5,-497.25 456.48,-497.67"/>
<polyline fill="none" stroke="black" points="456.48,-497.67 461.46,-498.1"/>
<polygon fill="black" stroke="black" points="549.26,-627.33 558.55,-633.16 554.55,-628.06 558.84,-628.66 558.84,-628.66 558.84,-628.66 554.55,-628.06 559.79,-624.25 549.26,-627.33"/>
<polyline fill="none" stroke="black" points="548.06,-627.17 543.1,-626.48"/>
</g>
<!-- gdm.distribution.equipment.geometry_branch_equipment.GeometryBranchEquipment&#45;&gt;gdm.distribution.equipment.concentric_cable_equipment.ConcentricCableEquipment -->
<g id="edge3" class="edge">
<title>gdm.distribution.equipment.geometry_branch_equipment.GeometryBranchEquipment:e&#45;&gt;gdm.distribution.equipment.concentric_cable_equipment.ConcentricCableEquipment:w</title>
<path fill="none" stroke="black" d="M461.31,-496.42C517.98,-486.23 492.89,-385.48 544.25,-369.41"/>
<polyline fill="none" stroke="black" points="451.5,-497.25 456.48,-496.83"/>
<polyline fill="none" stroke="black" points="456.48,-496.83 461.46,-496.41"/>
<polygon fill="black" stroke="black" points="549.27,-368.7 559.8,-371.75 554.55,-367.95 558.84,-367.34 558.84,-367.34 558.84,-367.34 554.55,-367.95 558.54,-362.84 549.27,-368.7"/>
<polyline fill="none" stroke="black" points="548.06,-368.87 543.11,-369.57"/>
</g>
</g>
</svg>
