<?xml version="1.0" encoding="UTF-8" standalone="no"?>
<!DOCTYPE svg PUBLIC "-//W3C//DTD SVG 1.1//EN"
 "http://www.w3.org/Graphics/SVG/1.1/DTD/svg11.dtd">
<!-- Generated by graphviz version 12.2.1 (20241206.2353)
 -->
<!-- Title: Entity Relationship Diagram created by erdantic Pages: 1 -->
<svg width="853pt" height="603pt"
 viewBox="0.00 0.00 853.25 602.50" xmlns="http://www.w3.org/2000/svg" xmlns:xlink="http://www.w3.org/1999/xlink">
<g id="graph0" class="graph" transform="scale(1 1) rotate(0) translate(4 598.5)">
<title>Entity Relationship Diagram created by erdantic</title>
<polygon fill="white" stroke="none" points="-4,4 -4,-598.5 849.25,-598.5 849.25,4 -4,4"/>
<text text-anchor="middle" x="422.62" y="-5.95" font-family="Times New Roman,Times,Liberation Serif,serif" font-size="9.00" fill="#a8a8a8">Created by erdantic v1.0.5 &lt;https://github.com/drivendataorg/erdantic&gt;</text>
<!-- gdm.distribution.equipment.bare_conductor_equipment.BareConductorEquipment -->
<g id="node1" class="node">
<title>gdm.distribution.equipment.bare_conductor_equipment.BareConductorEquipment</title>
<g id="a_node1"><a xlink:title="gdm.distribution.equipment.bare_conductor_equipment.BareConductorEquipment&#10;&#10;Data model for conductor catalaog.&#10;">
<polygon fill="none" stroke="black" points="559.5,-572 559.5,-594.5 845.25,-594.5 845.25,-572 559.5,-572"/>
<text text-anchor="start" x="624.75" y="-579.2" font-family="Times New Roman,Times,Liberation Serif,serif" font-weight="bold" font-size="14.00">BareConductorEquipment</text>
<polygon fill="none" stroke="black" points="559.5,-549.5 559.5,-572 682.5,-572 682.5,-549.5 559.5,-549.5"/>
<text text-anchor="start" x="609" y="-555.7" font-family="Times New Roman,Times,Liberation Serif,serif" font-size="14.00">uuid</text>
<polygon fill="none" stroke="black" points="682.5,-549.5 682.5,-572 845.25,-572 845.25,-549.5 682.5,-549.5"/>
<text text-anchor="start" x="747" y="-555.7" font-family="Times New Roman,Times,Liberation Serif,serif" font-size="14.00">UUID</text>
<polygon fill="none" stroke="black" points="559.5,-527 559.5,-549.5 682.5,-549.5 682.5,-527 559.5,-527"/>
<text text-anchor="start" x="606" y="-533.2" font-family="Times New Roman,Times,Liberation Serif,serif" font-size="14.00">name</text>
<polygon fill="none" stroke="black" points="682.5,-527 682.5,-549.5 845.25,-549.5 845.25,-527 682.5,-527"/>
<text text-anchor="start" x="757.12" y="-533.2" font-family="Times New Roman,Times,Liberation Serif,serif" font-size="14.00">str</text>
<polygon fill="none" stroke="black" points="559.5,-504.5 559.5,-527 682.5,-527 682.5,-504.5 559.5,-504.5"/>
<text text-anchor="start" x="566.62" y="-510.7" font-family="Times New Roman,Times,Liberation Serif,serif" font-size="14.00">conductor_diameter</text>
<polygon fill="none" stroke="black" points="682.5,-504.5 682.5,-527 845.25,-527 845.25,-504.5 682.5,-504.5"/>
<text text-anchor="start" x="718.5" y="-510.7" font-family="Times New Roman,Times,Liberation Serif,serif" font-size="14.00">PositiveDistance</text>
<polygon fill="none" stroke="black" points="559.5,-482 559.5,-504.5 682.5,-504.5 682.5,-482 559.5,-482"/>
<text text-anchor="start" x="579.38" y="-488.2" font-family="Times New Roman,Times,Liberation Serif,serif" font-size="14.00">conductor_gmr</text>
<polygon fill="none" stroke="black" points="682.5,-482 682.5,-504.5 845.25,-504.5 845.25,-482 682.5,-482"/>
<text text-anchor="start" x="718.5" y="-488.2" font-family="Times New Roman,Times,Liberation Serif,serif" font-size="14.00">PositiveDistance</text>
<polygon fill="none" stroke="black" points="559.5,-459.5 559.5,-482 682.5,-482 682.5,-459.5 559.5,-459.5"/>
<text text-anchor="start" x="595.88" y="-465.7" font-family="Times New Roman,Times,Liberation Serif,serif" font-size="14.00">ampacity</text>
<polygon fill="none" stroke="black" points="682.5,-459.5 682.5,-482 845.25,-482 845.25,-459.5 682.5,-459.5"/>
<text text-anchor="start" x="721.5" y="-465.7" font-family="Times New Roman,Times,Liberation Serif,serif" font-size="14.00">PositiveCurrent</text>
<polygon fill="none" stroke="black" points="559.5,-437 559.5,-459.5 682.5,-459.5 682.5,-437 559.5,-437"/>
<text text-anchor="start" x="585" y="-443.2" font-family="Times New Roman,Times,Liberation Serif,serif" font-size="14.00">ac_resistance</text>
<polygon fill="none" stroke="black" points="682.5,-437 682.5,-459.5 845.25,-459.5 845.25,-437 682.5,-437"/>
<text text-anchor="start" x="685.5" y="-443.2" font-family="Times New Roman,Times,Liberation Serif,serif" font-size="14.00">PositiveResistancePULength</text>
<polygon fill="none" stroke="black" points="559.5,-414.5 559.5,-437 682.5,-437 682.5,-414.5 559.5,-414.5"/>
<text text-anchor="start" x="562.5" y="-420.7" font-family="Times New Roman,Times,Liberation Serif,serif" font-size="14.00">emergency_ampacity</text>
<polygon fill="none" stroke="black" points="682.5,-414.5 682.5,-437 845.25,-437 845.25,-414.5 682.5,-414.5"/>
<text text-anchor="start" x="721.5" y="-420.7" font-family="Times New Roman,Times,Liberation Serif,serif" font-size="14.00">PositiveCurrent</text>
<polygon fill="none" stroke="black" points="559.5,-392 559.5,-414.5 682.5,-414.5 682.5,-392 559.5,-392"/>
<text text-anchor="start" x="584.62" y="-398.2" font-family="Times New Roman,Times,Liberation Serif,serif" font-size="14.00">dc_resistance</text>
<polygon fill="none" stroke="black" points="682.5,-392 682.5,-414.5 845.25,-414.5 845.25,-392 682.5,-392"/>
<text text-anchor="start" x="685.5" y="-398.2" font-family="Times New Roman,Times,Liberation Serif,serif" font-size="14.00">PositiveResistancePULength</text>
</a>
</g>
</g>
<!-- gdm.distribution.equipment.concentric_cable_equipment.ConcentricCableEquipment -->
<g id="node2" class="node">
<title>gdm.distribution.equipment.concentric_cable_equipment.ConcentricCableEquipment</title>
<g id="a_node2"><a xlink:title="gdm.distribution.equipment.concentric_cable_equipment.ConcentricCableEquipment&#10;&#10;Data model for cable catalog.&#10;">
<polygon fill="none" stroke="black" points="561,-333.5 561,-356 843.75,-356 843.75,-333.5 561,-333.5"/>
<text text-anchor="start" x="621" y="-340.7" font-family="Times New Roman,Times,Liberation Serif,serif" font-weight="bold" font-size="14.00">ConcentricCableEquipment</text>
<polygon fill="none" stroke="black" points="561,-311 561,-333.5 681,-333.5 681,-311 561,-311"/>
<text text-anchor="start" x="609" y="-317.2" font-family="Times New Roman,Times,Liberation Serif,serif" font-size="14.00">uuid</text>
<polygon fill="none" stroke="black" points="681,-311 681,-333.5 843.75,-333.5 843.75,-311 681,-311"/>
<text text-anchor="start" x="745.5" y="-317.2" font-family="Times New Roman,Times,Liberation Serif,serif" font-size="14.00">UUID</text>
<polygon fill="none" stroke="black" points="561,-288.5 561,-311 681,-311 681,-288.5 561,-288.5"/>
<text text-anchor="start" x="606" y="-294.7" font-family="Times New Roman,Times,Liberation Serif,serif" font-size="14.00">name</text>
<polygon fill="none" stroke="black" points="681,-288.5 681,-311 843.75,-311 843.75,-288.5 681,-288.5"/>
<text text-anchor="start" x="755.62" y="-294.7" font-family="Times New Roman,Times,Liberation Serif,serif" font-size="14.00">str</text>
<polygon fill="none" stroke="black" points="561,-266 561,-288.5 681,-288.5 681,-266 561,-266"/>
<text text-anchor="start" x="577.12" y="-272.2" font-family="Times New Roman,Times,Liberation Serif,serif" font-size="14.00">strand_diameter</text>
<polygon fill="none" stroke="black" points="681,-266 681,-288.5 843.75,-288.5 843.75,-266 681,-266"/>
<text text-anchor="start" x="717" y="-272.2" font-family="Times New Roman,Times,Liberation Serif,serif" font-size="14.00">PositiveDistance</text>
<polygon fill="none" stroke="black" points="561,-243.5 561,-266 681,-266 681,-243.5 561,-243.5"/>
<text text-anchor="start" x="566.62" y="-249.7" font-family="Times New Roman,Times,Liberation Serif,serif" font-size="14.00">conductor_diameter</text>
<polygon fill="none" stroke="black" points="681,-243.5 681,-266 843.75,-266 843.75,-243.5 681,-243.5"/>
<text text-anchor="start" x="717" y="-249.7" font-family="Times New Roman,Times,Liberation Serif,serif" font-size="14.00">PositiveDistance</text>
<polygon fill="none" stroke="black" points="561,-221 561,-243.5 681,-243.5 681,-221 561,-221"/>
<text text-anchor="start" x="579.38" y="-227.2" font-family="Times New Roman,Times,Liberation Serif,serif" font-size="14.00">cable_diameter</text>
<polygon fill="none" stroke="black" points="681,-221 681,-243.5 843.75,-243.5 843.75,-221 681,-221"/>
<text text-anchor="start" x="717" y="-227.2" font-family="Times New Roman,Times,Liberation Serif,serif" font-size="14.00">PositiveDistance</text>
<polygon fill="none" stroke="black" points="561,-198.5 561,-221 681,-221 681,-198.5 561,-198.5"/>
<text text-anchor="start" x="565.88" y="-204.7" font-family="Times New Roman,Times,Liberation Serif,serif" font-size="14.00">insulation_thickness</text>
<polygon fill="none" stroke="black" points="681,-198.5 681,-221 843.75,-221 843.75,-198.5 681,-198.5"/>
<text text-anchor="start" x="717" y="-204.7" font-family="Times New Roman,Times,Liberation Serif,serif" font-size="14.00">PositiveDistance</text>
<polygon fill="none" stroke="black" points="561,-176 561,-198.5 681,-198.5 681,-176 561,-176"/>
<text text-anchor="start" x="567" y="-182.2" font-family="Times New Roman,Times,Liberation Serif,serif" font-size="14.00">insulation_diameter</text>
<polygon fill="none" stroke="black" points="681,-176 681,-198.5 843.75,-198.5 843.75,-176 681,-176"/>
<text text-anchor="start" x="717" y="-182.2" font-family="Times New Roman,Times,Liberation Serif,serif" font-size="14.00">PositiveDistance</text>
<polygon fill="none" stroke="black" points="561,-153.5 561,-176 681,-176 681,-153.5 561,-153.5"/>
<text text-anchor="start" x="595.88" y="-159.7" font-family="Times New Roman,Times,Liberation Serif,serif" font-size="14.00">ampacity</text>
<polygon fill="none" stroke="black" points="681,-153.5 681,-176 843.75,-176 843.75,-153.5 681,-153.5"/>
<text text-anchor="start" x="720" y="-159.7" font-family="Times New Roman,Times,Liberation Serif,serif" font-size="14.00">PositiveCurrent</text>
<polygon fill="none" stroke="black" points="561,-131 561,-153.5 681,-153.5 681,-131 561,-131"/>
<text text-anchor="start" x="579.38" y="-137.2" font-family="Times New Roman,Times,Liberation Serif,serif" font-size="14.00">conductor_gmr</text>
<polygon fill="none" stroke="black" points="681,-131 681,-153.5 843.75,-153.5 843.75,-131 681,-131"/>
<text text-anchor="start" x="717" y="-137.2" font-family="Times New Roman,Times,Liberation Serif,serif" font-size="14.00">PositiveDistance</text>
<polygon fill="none" stroke="black" points="561,-108.5 561,-131 681,-131 681,-108.5 561,-108.5"/>
<text text-anchor="start" x="589.88" y="-114.7" font-family="Times New Roman,Times,Liberation Serif,serif" font-size="14.00">strand_gmr</text>
<polygon fill="none" stroke="black" points="681,-108.5 681,-131 843.75,-131 843.75,-108.5 681,-108.5"/>
<text text-anchor="start" x="717" y="-114.7" font-family="Times New Roman,Times,Liberation Serif,serif" font-size="14.00">PositiveDistance</text>
<polygon fill="none" stroke="black" points="561,-86 561,-108.5 681,-108.5 681,-86 561,-86"/>
<text text-anchor="start" x="566.25" y="-92.2" font-family="Times New Roman,Times,Liberation Serif,serif" font-size="14.00">phase_ac_resistance</text>
<polygon fill="none" stroke="black" points="681,-86 681,-108.5 843.75,-108.5 843.75,-86 681,-86"/>
<text text-anchor="start" x="684" y="-92.2" font-family="Times New Roman,Times,Liberation Serif,serif" font-size="14.00">PositiveResistancePULength</text>
<polygon fill="none" stroke="black" points="561,-63.5 561,-86 681,-86 681,-63.5 561,-63.5"/>
<text text-anchor="start" x="565.12" y="-69.7" font-family="Times New Roman,Times,Liberation Serif,serif" font-size="14.00">strand_ac_resistance</text>
<polygon fill="none" stroke="black" points="681,-63.5 681,-86 843.75,-86 843.75,-63.5 681,-63.5"/>
<text text-anchor="start" x="684" y="-69.7" font-family="Times New Roman,Times,Liberation Serif,serif" font-size="14.00">PositiveResistancePULength</text>
<polygon fill="none" stroke="black" points="561,-41 561,-63.5 681,-63.5 681,-41 561,-41"/>
<text text-anchor="start" x="564" y="-47.2" font-family="Times New Roman,Times,Liberation Serif,serif" font-size="14.00">num_neutral_strands</text>
<polygon fill="none" stroke="black" points="681,-41 681,-63.5 843.75,-63.5 843.75,-41 681,-41"/>
<text text-anchor="start" x="755.25" y="-47.2" font-family="Times New Roman,Times,Liberation Serif,serif" font-size="14.00">int</text>
<polygon fill="none" stroke="black" points="561,-18.5 561,-41 681,-41 681,-18.5 561,-18.5"/>
<text text-anchor="start" x="584.25" y="-24.7" font-family="Times New Roman,Times,Liberation Serif,serif" font-size="14.00">rated_voltage</text>
<polygon fill="none" stroke="black" points="681,-18.5 681,-41 843.75,-41 843.75,-18.5 681,-18.5"/>
<text text-anchor="start" x="720" y="-24.7" font-family="Times New Roman,Times,Liberation Serif,serif" font-size="14.00">PositiveVoltage</text>
</a>
</g>
</g>
<!-- gdm.distribution.equipment.geometry_branch_equipment.GeometryBranchEquipment -->
<g id="node3" class="node">
<title>gdm.distribution.equipment.geometry_branch_equipment.GeometryBranchEquipment</title>
<g id="a_node3"><a xlink:title="gdm.distribution.equipment.geometry_branch_equipment.GeometryBranchEquipment&#10;&#10;Data model for geometry branch info.&#10;">
<polygon fill="none" stroke="black" points="0,-519.25 0,-541.75 451.5,-541.75 451.5,-519.25 0,-519.25"/>
<text text-anchor="start" x="142.12" y="-526.45" font-family="Times New Roman,Times,Liberation Serif,serif" font-weight="bold" font-size="14.00">GeometryBranchEquipment</text>
<polygon fill="none" stroke="black" points="0,-496.75 0,-519.25 116.25,-519.25 116.25,-496.75 0,-496.75"/>
<text text-anchor="start" x="46.12" y="-502.95" font-family="Times New Roman,Times,Liberation Serif,serif" font-size="14.00">uuid</text>
<polygon fill="none" stroke="black" points="116.25,-496.75 116.25,-519.25 451.5,-519.25 451.5,-496.75 116.25,-496.75"/>
<text text-anchor="start" x="267" y="-502.95" font-family="Times New Roman,Times,Liberation Serif,serif" font-size="14.00">UUID</text>
<polygon fill="none" stroke="black" points="0,-474.25 0,-496.75 116.25,-496.75 116.25,-474.25 0,-474.25"/>
<text text-anchor="start" x="43.12" y="-480.45" font-family="Times New Roman,Times,Liberation Serif,serif" font-size="14.00">name</text>
<polygon fill="none" stroke="black" points="116.25,-474.25 116.25,-496.75 451.5,-496.75 451.5,-474.25 116.25,-474.25"/>
<text text-anchor="start" x="277.12" y="-480.45" font-family="Times New Roman,Times,Liberation Serif,serif" font-size="14.00">str</text>
<polygon fill="none" stroke="black" points="0,-451.75 0,-474.25 116.25,-474.25 116.25,-451.75 0,-451.75"/>
<text text-anchor="start" x="28.5" y="-457.95" font-family="Times New Roman,Times,Liberation Serif,serif" font-size="14.00">conductors</text>
<polygon fill="none" stroke="black" points="116.25,-451.75 116.25,-474.25 451.5,-474.25 451.5,-451.75 116.25,-451.75"/>
<text text-anchor="start" x="119.25" y="-457.95" font-family="Times New Roman,Times,Liberation Serif,serif" font-size="14.00">list[BareConductorEquipment | ConcentricCableEquipment]</text>
<polygon fill="none" stroke="black" points="0,-429.25 0,-451.75 116.25,-451.75 116.25,-429.25 0,-429.25"/>
<text text-anchor="start" x="3" y="-435.45" font-family="Times New Roman,Times,Liberation Serif,serif" font-size="14.00">horizontal_positions</text>
<polygon fill="none" stroke="black" points="116.25,-429.25 116.25,-451.75 451.5,-451.75 451.5,-429.25 116.25,-429.25"/>
<text text-anchor="start" x="260.25" y="-435.45" font-family="Times New Roman,Times,Liberation Serif,serif" font-size="14.00">Distance</text>
<polygon fill="none" stroke="black" points="0,-406.75 0,-429.25 116.25,-429.25 116.25,-406.75 0,-406.75"/>
<text text-anchor="start" x="10.12" y="-412.95" font-family="Times New Roman,Times,Liberation Serif,serif" font-size="14.00">vertical_positions</text>
<polygon fill="none" stroke="black" points="116.25,-406.75 116.25,-429.25 451.5,-429.25 451.5,-406.75 116.25,-406.75"/>
<text text-anchor="start" x="260.25" y="-412.95" font-family="Times New Roman,Times,Liberation Serif,serif" font-size="14.00">Distance</text>
</a>
</g>
</g>
<!-- gdm.distribution.equipment.geometry_branch_equipment.GeometryBranchEquipment&#45;&gt;gdm.distribution.equipment.bare_conductor_equipment.BareConductorEquipment -->
<g id="edge1" class="edge">
<title>gdm.distribution.equipment.geometry_branch_equipment.GeometryBranchEquipment:e&#45;&gt;gdm.distribution.equipment.bare_conductor_equipment.BareConductorEquipment:w</title>
<path fill="none" stroke="black" d="M461.28,-463.83C515.17,-473.56 495.41,-565.67 544.23,-581.07"/>
<polyline fill="none" stroke="black" points="451.5,-463 456.48,-463.42"/>
<polyline fill="none" stroke="black" points="456.48,-463.42 461.46,-463.85"/>
<polygon fill="black" stroke="black" points="549.27,-581.79 558.53,-587.66 554.55,-582.54 558.84,-583.16 558.84,-583.16 558.84,-583.16 554.55,-582.54 559.8,-578.75 549.27,-581.79"/>
<polyline fill="none" stroke="black" points="548.06,-581.62 543.11,-580.91"/>
</g>
<!-- gdm.distribution.equipment.geometry_branch_equipment.GeometryBranchEquipment&#45;&gt;gdm.distribution.equipment.concentric_cable_equipment.ConcentricCableEquipment -->
<g id="edge2" class="edge">
<title>gdm.distribution.equipment.geometry_branch_equipment.GeometryBranchEquipment:e&#45;&gt;gdm.distribution.equipment.concentric_cable_equipment.ConcentricCableEquipment:w</title>
<path fill="none" stroke="black" d="M461.22,-462.18C514.83,-452.61 496.18,-362.04 544.82,-346.89"/>
<polyline fill="none" stroke="black" points="451.5,-463 456.48,-462.58"/>
<polyline fill="none" stroke="black" points="456.48,-462.58 461.46,-462.16"/>
<polygon fill="black" stroke="black" points="549.77,-346.19 560.3,-349.25 555.05,-345.45 559.34,-344.84 559.34,-344.84 559.34,-344.84 555.05,-345.45 559.04,-340.34 549.77,-346.19"/>
<polyline fill="none" stroke="black" points="548.56,-346.37 543.61,-347.06"/>
</g>
</g>
</svg>
