<?xml version="1.0" encoding="UTF-8" standalone="no"?>
<!DOCTYPE svg PUBLIC "-//W3C//DTD SVG 1.1//EN"
 "http://www.w3.org/Graphics/SVG/1.1/DTD/svg11.dtd">
<!-- Generated by graphviz version 12.2.1 (20241206.2353)
 -->
<!-- Title: Entity Relationship Diagram created by erdantic Pages: 1 -->
<svg width="731pt" height="224pt"
 viewBox="0.00 0.00 731.00 224.00" xmlns="http://www.w3.org/2000/svg" xmlns:xlink="http://www.w3.org/1999/xlink">
<g id="graph0" class="graph" transform="scale(1 1) rotate(0) translate(4 220)">
<title>Entity Relationship Diagram created by erdantic</title>
<polygon fill="white" stroke="none" points="-4,4 -4,-220 727,-220 727,4 -4,4"/>
<text text-anchor="middle" x="361.5" y="-5.95" font-family="Times New Roman,Times,Liberation Serif,serif" font-size="9.00" fill="#a8a8a8">Created by erdantic v1.0.5 &lt;https://github.com/drivendataorg/erdantic&gt;</text>
<!-- gdm.distribution.controllers.base.inverter_controller_base.ActivePowerInverterControllerBase -->
<g id="node1" class="node">
<title>gdm.distribution.controllers.base.inverter_controller_base.ActivePowerInverterControllerBase</title>
<g id="a_node1"><a xlink:title="gdm.distribution.controllers.base.inverter_controller_base.ActivePowerInverterControllerBase&#10;&#10;Interface for Inverter controllers that control active power.&#10;">
<polygon fill="none" stroke="black" points="501.38,-167.5 501.38,-190 716.62,-190 716.62,-167.5 501.38,-167.5"/>
<text text-anchor="start" x="504.38" y="-174.7" font-family="Times New Roman,Times,Liberation Serif,serif" font-weight="bold" font-size="14.00">ActivePowerInverterControllerBase</text>
<polygon fill="none" stroke="black" points="501.38,-145 501.38,-167.5 607.12,-167.5 607.12,-145 501.38,-145"/>
<text text-anchor="start" x="542.25" y="-151.2" font-family="Times New Roman,Times,Liberation Serif,serif" font-size="14.00">uuid</text>
<polygon fill="none" stroke="black" points="607.12,-145 607.12,-167.5 716.62,-167.5 716.62,-145 607.12,-145"/>
<text text-anchor="start" x="645" y="-151.2" font-family="Times New Roman,Times,Liberation Serif,serif" font-size="14.00">UUID</text>
<polygon fill="none" stroke="black" points="501.38,-122.5 501.38,-145 607.12,-145 607.12,-122.5 501.38,-122.5"/>
<text text-anchor="start" x="539.25" y="-128.7" font-family="Times New Roman,Times,Liberation Serif,serif" font-size="14.00">name</text>
<polygon fill="none" stroke="black" points="607.12,-122.5 607.12,-145 716.62,-145 716.62,-122.5 607.12,-122.5"/>
<text text-anchor="start" x="655.12" y="-128.7" font-family="Times New Roman,Times,Liberation Serif,serif" font-size="14.00">str</text>
</a>
</g>
</g>
<!-- gdm.distribution.controllers.base.inverter_controller_base.ReactivePowerInverterControllerBase -->
<g id="node2" class="node">
<title>gdm.distribution.controllers.base.inverter_controller_base.ReactivePowerInverterControllerBase</title>
<g id="a_node2"><a xlink:title="gdm.distribution.controllers.base.inverter_controller_base.ReactivePowerInverterControllerBase&#10;&#10;Interface for Inverter controllers that control reactive power.&#10;">
<polygon fill="none" stroke="black" points="495,-63.5 495,-86 723,-86 723,-63.5 495,-63.5"/>
<text text-anchor="start" x="498" y="-70.7" font-family="Times New Roman,Times,Liberation Serif,serif" font-weight="bold" font-size="14.00">ReactivePowerInverterControllerBase</text>
<polygon fill="none" stroke="black" points="495,-41 495,-63.5 607.12,-63.5 607.12,-41 495,-41"/>
<text text-anchor="start" x="539.06" y="-47.2" font-family="Times New Roman,Times,Liberation Serif,serif" font-size="14.00">uuid</text>
<polygon fill="none" stroke="black" points="607.12,-41 607.12,-63.5 723,-63.5 723,-41 607.12,-41"/>
<text text-anchor="start" x="648.19" y="-47.2" font-family="Times New Roman,Times,Liberation Serif,serif" font-size="14.00">UUID</text>
<polygon fill="none" stroke="black" points="495,-18.5 495,-41 607.12,-41 607.12,-18.5 495,-18.5"/>
<text text-anchor="start" x="536.06" y="-24.7" font-family="Times New Roman,Times,Liberation Serif,serif" font-size="14.00">name</text>
<polygon fill="none" stroke="black" points="607.12,-18.5 607.12,-41 723,-41 723,-18.5 607.12,-18.5"/>
<text text-anchor="start" x="658.31" y="-24.7" font-family="Times New Roman,Times,Liberation Serif,serif" font-size="14.00">str</text>
</a>
</g>
</g>
<!-- gdm.distribution.controllers.distribution_inverter_controller.InverterController -->
<g id="node3" class="node">
<title>gdm.distribution.controllers.distribution_inverter_controller.InverterController</title>
<g id="a_node3"><a xlink:title="gdm.distribution.controllers.distribution_inverter_controller.InverterController&#10;&#10;Inverter contoller represent the complete control settings for a given &#10;InverterEquipment. This model may be used with an instance of DistributionSolar,&#10;DistributionBattery or any other model that has an inverter.&#10;">
<polygon fill="none" stroke="black" points="0,-193.5 0,-216 387,-216 387,-193.5 0,-193.5"/>
<text text-anchor="start" x="139.12" y="-200.7" font-family="Times New Roman,Times,Liberation Serif,serif" font-weight="bold" font-size="14.00">InverterController</text>
<polygon fill="none" stroke="black" points="0,-171 0,-193.5 135,-193.5 135,-171 0,-171"/>
<text text-anchor="start" x="55.5" y="-177.2" font-family="Times New Roman,Times,Liberation Serif,serif" font-size="14.00">uuid</text>
<polygon fill="none" stroke="black" points="135,-171 135,-193.5 387,-193.5 387,-171 135,-171"/>
<text text-anchor="start" x="244.12" y="-177.2" font-family="Times New Roman,Times,Liberation Serif,serif" font-size="14.00">UUID</text>
<polygon fill="none" stroke="black" points="0,-148.5 0,-171 135,-171 135,-148.5 0,-148.5"/>
<text text-anchor="start" x="52.5" y="-154.7" font-family="Times New Roman,Times,Liberation Serif,serif" font-size="14.00">name</text>
<polygon fill="none" stroke="black" points="135,-148.5 135,-171 387,-171 387,-148.5 135,-148.5"/>
<text text-anchor="start" x="254.25" y="-154.7" font-family="Times New Roman,Times,Liberation Serif,serif" font-size="14.00">str</text>
<polygon fill="none" stroke="black" points="0,-126 0,-148.5 135,-148.5 135,-126 0,-126"/>
<text text-anchor="start" x="8.62" y="-132.2" font-family="Times New Roman,Times,Liberation Serif,serif" font-size="14.00">active_power_control</text>
<polygon fill="none" stroke="black" points="135,-126 135,-148.5 387,-148.5 387,-126 135,-126"/>
<text text-anchor="start" x="143.62" y="-132.2" font-family="Times New Roman,Times,Liberation Serif,serif" font-size="14.00">ActivePowerInverterControllerBase | None</text>
<polygon fill="none" stroke="black" points="0,-103.5 0,-126 135,-126 135,-103.5 0,-103.5"/>
<text text-anchor="start" x="3.38" y="-109.7" font-family="Times New Roman,Times,Liberation Serif,serif" font-size="14.00">reactive_power_control</text>
<polygon fill="none" stroke="black" points="135,-103.5 135,-126 387,-126 387,-103.5 135,-103.5"/>
<text text-anchor="start" x="138" y="-109.7" font-family="Times New Roman,Times,Liberation Serif,serif" font-size="14.00">ReactivePowerInverterControllerBase | None</text>
<polygon fill="none" stroke="black" points="0,-81 0,-103.5 135,-103.5 135,-81 0,-81"/>
<text text-anchor="start" x="3" y="-87.2" font-family="Times New Roman,Times,Liberation Serif,serif" font-size="14.00">prioritize_active_power</text>
<polygon fill="none" stroke="black" points="135,-81 135,-103.5 387,-103.5 387,-81 135,-81"/>
<text text-anchor="start" x="249" y="-87.2" font-family="Times New Roman,Times,Liberation Serif,serif" font-size="14.00">bool</text>
<polygon fill="none" stroke="black" points="0,-58.5 0,-81 135,-81 135,-58.5 0,-58.5"/>
<text text-anchor="start" x="34.88" y="-64.7" font-family="Times New Roman,Times,Liberation Serif,serif" font-size="14.00">night_mode</text>
<polygon fill="none" stroke="black" points="135,-58.5 135,-81 387,-81 387,-58.5 135,-58.5"/>
<text text-anchor="start" x="249" y="-64.7" font-family="Times New Roman,Times,Liberation Serif,serif" font-size="14.00">bool</text>
</a>
</g>
</g>
<!-- gdm.distribution.controllers.distribution_inverter_controller.InverterController&#45;&gt;gdm.distribution.controllers.base.inverter_controller_base.ActivePowerInverterControllerBase -->
<g id="edge1" class="edge">
<title>gdm.distribution.controllers.distribution_inverter_controller.InverterController:e&#45;&gt;gdm.distribution.controllers.base.inverter_controller_base.ActivePowerInverterControllerBase:w</title>
<path fill="none" stroke="black" d="M396.81,-137.74C436.91,-141.93 447.97,-171.44 485.79,-177.62"/>
<polyline fill="none" stroke="black" points="387,-137.25 391.99,-137.5"/>
<polyline fill="none" stroke="black" points="391.99,-137.5 396.99,-137.75"/>
<polyline fill="none" stroke="black" points="500.38,-178.75 495.39,-178.36"/>
<polygon fill="black" stroke="black" points="494.78,-173.3 494.01,-183.27 492.01,-183.12 492.79,-173.15 494.78,-173.3"/>
<polyline fill="none" stroke="black" points="495.39,-178.36 490.41,-177.98"/>
<polygon fill="black" stroke="black" points="489.8,-172.91 489.02,-182.88 487.03,-182.73 487.8,-172.76 489.8,-172.91"/>
<polyline fill="none" stroke="black" points="490.41,-177.98 485.42,-177.59"/>
</g>
<!-- gdm.distribution.controllers.distribution_inverter_controller.InverterController&#45;&gt;gdm.distribution.controllers.base.inverter_controller_base.ReactivePowerInverterControllerBase -->
<g id="edge2" class="edge">
<title>gdm.distribution.controllers.distribution_inverter_controller.InverterController:e&#45;&gt;gdm.distribution.controllers.base.inverter_controller_base.ReactivePowerInverterControllerBase:w</title>
<path fill="none" stroke="black" d="M396.89,-114.21C434.38,-110.01 445.03,-82.23 480.21,-75.99"/>
<polyline fill="none" stroke="black" points="387,-114.75 391.99,-114.48"/>
<polyline fill="none" stroke="black" points="391.99,-114.48 396.99,-114.21"/>
<polyline fill="none" stroke="black" points="495,-74.75 490.02,-75.17"/>
<polygon fill="black" stroke="black" points="488.6,-70.27 489.44,-80.23 487.45,-80.4 486.61,-70.44 488.6,-70.27"/>
<polyline fill="none" stroke="black" points="490.02,-75.17 485.04,-75.59"/>
<polygon fill="black" stroke="black" points="483.62,-70.69 484.46,-80.65 482.46,-80.82 481.63,-70.86 483.62,-70.69"/>
<polyline fill="none" stroke="black" points="485.04,-75.59 480.05,-76.01"/>
</g>
</g>
</svg>
