<?xml version="1.0" encoding="UTF-8" standalone="no"?>
<!DOCTYPE svg PUBLIC "-//W3C//DTD SVG 1.1//EN"
 "http://www.w3.org/Graphics/SVG/1.1/DTD/svg11.dtd">
<!-- Generated by graphviz version 9.0.0 (0)
 -->
<!-- Title: Entity Relationship Diagram created by erdantic Pages: 1 -->
<svg width="610pt" height="335pt"
 viewBox="0.00 0.00 610.00 334.50" xmlns="http://www.w3.org/2000/svg" xmlns:xlink="http://www.w3.org/1999/xlink">
<g id="graph0" class="graph" transform="scale(1 1) rotate(0) translate(4 330.5)">
<title>Entity Relationship Diagram created by erdantic</title>
<polygon fill="white" stroke="none" points="-4,4 -4,-330.5 606,-330.5 606,4 -4,4"/>
<text text-anchor="middle" x="301" y="-5.95" font-family="Times New Roman,Times,Liberation Serif,serif" font-size="9.00" fill="#a8a8a8">Created by erdantic v0.6.0 &lt;https://github.com/drivendataorg/erdantic&gt;</text>
<!-- gdm.distribution.curve.Curve -->
<g id="node1" class="node">
<title>gdm.distribution.curve.Curve</title>
<g id="a_node1"><a xlink:title="gdm.distribution.curve.Curve&#10;&#10;An interface for representing a curve using x and y points. e.g for volt&#45;var and volt&#45;watt curves.&#10;&#10;Examples&#10;&#45;&#45;&#45;&#45;&#45;&#45;&#45;&#45;&#10;&#10;Example of a Curve (Volt&#45;Var IEEE&#45;1547 standard).&#10;&#10;&gt;&gt;&gt; Curve(&#10; &#160;&#160;&#160;&#160;&#160;&#160;&#160;curve_x=[0.5, 0.92, 0.98, 1.02, 1.08, 1.5], curve_y=[1.0, 1.0, 0.0, 0.0, &#45;1.0, &#45;1.0]&#10; &#160;&#160;&#160;)&#10;&#10;Example of a Curve (Volt&#45;Var Volt&#45;Watt IEEE&#45;1547 standard)&#10;&#10;&gt;&gt;&gt; Curve(curve_x=[0.5, 1.06, 1.1, 1.5], curve_y=[1.0, 1.0, 0.0, 0.0])&#10;">
<polygon fill="none" stroke="black" points="413,-106.5 413,-128.5 602,-128.5 602,-106.5 413,-106.5"/>
<text text-anchor="start" x="489.5" y="-113.2" font-family="Times New Roman,Times,Liberation Serif,serif" font-weight="bold" font-size="14.00">Curve</text>
<polygon fill="none" stroke="black" points="413,-84.5 413,-106.5 462,-106.5 462,-84.5 413,-84.5"/>
<text text-anchor="start" x="425.5" y="-90.2" font-family="Times New Roman,Times,Liberation Serif,serif" font-size="14.00">uuid</text>
<polygon fill="none" stroke="black" points="462,-84.5 462,-106.5 602,-106.5 602,-84.5 462,-84.5"/>
<text text-anchor="start" x="515.12" y="-90.2" font-family="Times New Roman,Times,Liberation Serif,serif" font-size="14.00">UUID</text>
<polygon fill="none" stroke="black" points="413,-62.5 413,-84.5 462,-84.5 462,-62.5 413,-62.5"/>
<text text-anchor="start" x="422.5" y="-68.2" font-family="Times New Roman,Times,Liberation Serif,serif" font-size="14.00">name</text>
<polygon fill="none" stroke="black" points="462,-62.5 462,-84.5 602,-84.5 602,-62.5 462,-62.5"/>
<text text-anchor="start" x="525.25" y="-68.2" font-family="Times New Roman,Times,Liberation Serif,serif" font-size="14.00">str</text>
<polygon fill="none" stroke="black" points="413,-40.5 413,-62.5 462,-62.5 462,-40.5 413,-40.5"/>
<text text-anchor="start" x="415.75" y="-46.2" font-family="Times New Roman,Times,Liberation Serif,serif" font-size="14.00">curve_x</text>
<polygon fill="none" stroke="black" points="462,-40.5 462,-62.5 602,-62.5 602,-40.5 462,-40.5"/>
<text text-anchor="start" x="464.88" y="-46.2" font-family="Times New Roman,Times,Liberation Serif,serif" font-size="14.00">list[float] | BaseQuantity</text>
<polygon fill="none" stroke="black" points="413,-18.5 413,-40.5 462,-40.5 462,-18.5 413,-18.5"/>
<text text-anchor="start" x="415.75" y="-24.2" font-family="Times New Roman,Times,Liberation Serif,serif" font-size="14.00">curve_y</text>
<polygon fill="none" stroke="black" points="462,-18.5 462,-40.5 602,-40.5 602,-18.5 462,-18.5"/>
<text text-anchor="start" x="464.88" y="-24.2" font-family="Times New Roman,Times,Liberation Serif,serif" font-size="14.00">list[float] | BaseQuantity</text>
</a>
</g>
</g>
<!-- gdm.distribution.equipment.inverter_equipment.InverterEquipment -->
<g id="node2" class="node">
<title>gdm.distribution.equipment.inverter_equipment.InverterEquipment</title>
<g id="a_node2"><a xlink:title="gdm.distribution.equipment.inverter_equipment.InverterEquipment&#10;&#10;Interface for inverter equipment.&#10;">
<polygon fill="none" stroke="black" points="0,-304.5 0,-326.5 305,-326.5 305,-304.5 0,-304.5"/>
<text text-anchor="start" x="95.88" y="-311.2" font-family="Times New Roman,Times,Liberation Serif,serif" font-weight="bold" font-size="14.00">InverterEquipment</text>
<polygon fill="none" stroke="black" points="0,-282.5 0,-304.5 126,-304.5 126,-282.5 0,-282.5"/>
<text text-anchor="start" x="51" y="-288.2" font-family="Times New Roman,Times,Liberation Serif,serif" font-size="14.00">uuid</text>
<polygon fill="none" stroke="black" points="126,-282.5 126,-304.5 305,-304.5 305,-282.5 126,-282.5"/>
<text text-anchor="start" x="198.62" y="-288.2" font-family="Times New Roman,Times,Liberation Serif,serif" font-size="14.00">UUID</text>
<polygon fill="none" stroke="black" points="0,-260.5 0,-282.5 126,-282.5 126,-260.5 0,-260.5"/>
<text text-anchor="start" x="48" y="-266.2" font-family="Times New Roman,Times,Liberation Serif,serif" font-size="14.00">name</text>
<polygon fill="none" stroke="black" points="126,-260.5 126,-282.5 305,-282.5 305,-260.5 126,-260.5"/>
<text text-anchor="start" x="208.75" y="-266.2" font-family="Times New Roman,Times,Liberation Serif,serif" font-size="14.00">str</text>
<polygon fill="none" stroke="black" points="0,-238.5 0,-260.5 126,-260.5 126,-238.5 0,-238.5"/>
<text text-anchor="start" x="2.62" y="-244.2" font-family="Times New Roman,Times,Liberation Serif,serif" font-size="14.00">rated_apparent_power</text>
<polygon fill="none" stroke="black" points="126,-238.5 126,-260.5 305,-260.5 305,-238.5 126,-238.5"/>
<text text-anchor="start" x="151.38" y="-244.2" font-family="Times New Roman,Times,Liberation Serif,serif" font-size="14.00">PositiveApparentPower</text>
<polygon fill="none" stroke="black" points="0,-216.5 0,-238.5 126,-238.5 126,-216.5 0,-216.5"/>
<text text-anchor="start" x="36.75" y="-222.2" font-family="Times New Roman,Times,Liberation Serif,serif" font-size="14.00">rise_limit</text>
<polygon fill="none" stroke="black" points="126,-216.5 126,-238.5 305,-238.5 305,-216.5 126,-216.5"/>
<text text-anchor="start" x="128.88" y="-222.2" font-family="Times New Roman,Times,Liberation Serif,serif" font-size="14.00">Optional[ActivePowerPUTime]</text>
<polygon fill="none" stroke="black" points="0,-194.5 0,-216.5 126,-216.5 126,-194.5 0,-194.5"/>
<text text-anchor="start" x="37.5" y="-200.2" font-family="Times New Roman,Times,Liberation Serif,serif" font-size="14.00">fall_limit</text>
<polygon fill="none" stroke="black" points="126,-194.5 126,-216.5 305,-216.5 305,-194.5 126,-194.5"/>
<text text-anchor="start" x="128.88" y="-200.2" font-family="Times New Roman,Times,Liberation Serif,serif" font-size="14.00">Optional[ActivePowerPUTime]</text>
<polygon fill="none" stroke="black" points="0,-172.5 0,-194.5 126,-194.5 126,-172.5 0,-172.5"/>
<text text-anchor="start" x="22.88" y="-178.2" font-family="Times New Roman,Times,Liberation Serif,serif" font-size="14.00">cutout_percent</text>
<polygon fill="none" stroke="black" points="126,-172.5 126,-194.5 305,-194.5 305,-172.5 126,-172.5"/>
<text text-anchor="start" x="203.12" y="-178.2" font-family="Times New Roman,Times,Liberation Serif,serif" font-size="14.00">float</text>
<polygon fill="none" stroke="black" points="0,-150.5 0,-172.5 126,-172.5 126,-150.5 0,-150.5"/>
<text text-anchor="start" x="26.25" y="-156.2" font-family="Times New Roman,Times,Liberation Serif,serif" font-size="14.00">cutin_percent</text>
<polygon fill="none" stroke="black" points="126,-150.5 126,-172.5 305,-172.5 305,-150.5 126,-150.5"/>
<text text-anchor="start" x="203.12" y="-156.2" font-family="Times New Roman,Times,Liberation Serif,serif" font-size="14.00">float</text>
<polygon fill="none" stroke="black" points="0,-128.5 0,-150.5 126,-150.5 126,-128.5 0,-128.5"/>
<text text-anchor="start" x="8.25" y="-134.2" font-family="Times New Roman,Times,Liberation Serif,serif" font-size="14.00">dc_to_ac_efficiency</text>
<polygon fill="none" stroke="black" points="126,-128.5 126,-150.5 305,-150.5 305,-128.5 126,-128.5"/>
<text text-anchor="start" x="203.12" y="-134.2" font-family="Times New Roman,Times,Liberation Serif,serif" font-size="14.00">float</text>
<polygon fill="none" stroke="black" points="0,-106.5 0,-128.5 126,-128.5 126,-106.5 0,-106.5"/>
<text text-anchor="start" x="37.12" y="-112.2" font-family="Times New Roman,Times,Liberation Serif,serif" font-size="14.00">eff_curve</text>
<polygon fill="none" stroke="black" points="126,-106.5 126,-128.5 305,-128.5 305,-106.5 126,-106.5"/>
<text text-anchor="start" x="170.88" y="-112.2" font-family="Times New Roman,Times,Liberation Serif,serif" font-size="14.00">Optional[Curve]</text>
</a>
</g>
</g>
<!-- gdm.distribution.equipment.inverter_equipment.InverterEquipment&#45;&gt;gdm.distribution.curve.Curve -->
<g id="edge1" class="edge">
<title>gdm.distribution.equipment.inverter_equipment.InverterEquipment:e&#45;&gt;gdm.distribution.curve.Curve:w</title>
<path fill="none" stroke="black" d="M314.87,-117.5C348.66,-117.5 363.59,-117.5 394.18,-117.5"/>
<polyline fill="none" stroke="black" points="305,-117.5 310,-117.5"/>
<polyline fill="none" stroke="black" points="310,-117.5 315,-117.5"/>
<polyline fill="none" stroke="black" points="413,-117.5 408,-117.5"/>
<polygon fill="black" stroke="black" points="407,-112.5 407,-122.5 405,-122.5 405,-112.5 407,-112.5"/>
<polyline fill="none" stroke="black" points="408,-117.5 403,-117.5"/>
<ellipse fill="none" stroke="black" cx="398.5" cy="-117.5" rx="4" ry="4"/>
</g>
</g>
</svg>
