<?xml version="1.0" encoding="UTF-8" standalone="no"?>
<!DOCTYPE svg PUBLIC "-//W3C//DTD SVG 1.1//EN"
 "http://www.w3.org/Graphics/SVG/1.1/DTD/svg11.dtd">
<!-- Generated by graphviz version 9.0.0 (0)
 -->
<!-- Title: Entity Relationship Diagram created by erdantic Pages: 1 -->
<svg width="731pt" height="221pt"
 viewBox="0.00 0.00 731.00 220.50" xmlns="http://www.w3.org/2000/svg" xmlns:xlink="http://www.w3.org/1999/xlink">
<g id="graph0" class="graph" transform="scale(1 1) rotate(0) translate(4 216.5)">
<title>Entity Relationship Diagram created by erdantic</title>
<polygon fill="white" stroke="none" points="-4,4 -4,-216.5 727,-216.5 727,4 -4,4"/>
<text text-anchor="middle" x="361.5" y="-5.95" font-family="Times New Roman,Times,Liberation Serif,serif" font-size="9.00" fill="#a8a8a8">Created by erdantic v0.6.0 &lt;https://github.com/drivendataorg/erdantic&gt;</text>
<!-- gdm.distribution.controllers.base.inverter_controller_base.ActivePowerInverterControllerBase -->
<g id="node1" class="node">
<title>gdm.distribution.controllers.base.inverter_controller_base.ActivePowerInverterControllerBase</title>
<g id="a_node1"><a xlink:title="gdm.distribution.controllers.base.inverter_controller_base.ActivePowerInverterControllerBase&#10;&#10;Interface for Inverter controllers that control active power.&#10;">
<polygon fill="none" stroke="black" points="501.5,-164.5 501.5,-186.5 716.5,-186.5 716.5,-164.5 501.5,-164.5"/>
<text text-anchor="start" x="504.38" y="-171.2" font-family="Times New Roman,Times,Liberation Serif,serif" font-weight="bold" font-size="14.00">ActivePowerInverterControllerBase</text>
<polygon fill="none" stroke="black" points="501.5,-142.5 501.5,-164.5 607.5,-164.5 607.5,-142.5 501.5,-142.5"/>
<text text-anchor="start" x="542.5" y="-148.2" font-family="Times New Roman,Times,Liberation Serif,serif" font-size="14.00">uuid</text>
<polygon fill="none" stroke="black" points="607.5,-142.5 607.5,-164.5 716.5,-164.5 716.5,-142.5 607.5,-142.5"/>
<text text-anchor="start" x="645.12" y="-148.2" font-family="Times New Roman,Times,Liberation Serif,serif" font-size="14.00">UUID</text>
<polygon fill="none" stroke="black" points="501.5,-120.5 501.5,-142.5 607.5,-142.5 607.5,-120.5 501.5,-120.5"/>
<text text-anchor="start" x="539.5" y="-126.2" font-family="Times New Roman,Times,Liberation Serif,serif" font-size="14.00">name</text>
<polygon fill="none" stroke="black" points="607.5,-120.5 607.5,-142.5 716.5,-142.5 716.5,-120.5 607.5,-120.5"/>
<text text-anchor="start" x="655.25" y="-126.2" font-family="Times New Roman,Times,Liberation Serif,serif" font-size="14.00">str</text>
</a>
</g>
</g>
<!-- gdm.distribution.controllers.base.inverter_controller_base.ReactivePowerInverterControllerBase -->
<g id="node2" class="node">
<title>gdm.distribution.controllers.base.inverter_controller_base.ReactivePowerInverterControllerBase</title>
<g id="a_node2"><a xlink:title="gdm.distribution.controllers.base.inverter_controller_base.ReactivePowerInverterControllerBase&#10;&#10;Interface for Inverter controllers that control reactive power.&#10;">
<polygon fill="none" stroke="black" points="495,-62.5 495,-84.5 723,-84.5 723,-62.5 495,-62.5"/>
<text text-anchor="start" x="498" y="-69.2" font-family="Times New Roman,Times,Liberation Serif,serif" font-weight="bold" font-size="14.00">ReactivePowerInverterControllerBase</text>
<polygon fill="none" stroke="black" points="495,-40.5 495,-62.5 607,-62.5 607,-40.5 495,-40.5"/>
<text text-anchor="start" x="539" y="-46.2" font-family="Times New Roman,Times,Liberation Serif,serif" font-size="14.00">uuid</text>
<polygon fill="none" stroke="black" points="607,-40.5 607,-62.5 723,-62.5 723,-40.5 607,-40.5"/>
<text text-anchor="start" x="648.12" y="-46.2" font-family="Times New Roman,Times,Liberation Serif,serif" font-size="14.00">UUID</text>
<polygon fill="none" stroke="black" points="495,-18.5 495,-40.5 607,-40.5 607,-18.5 495,-18.5"/>
<text text-anchor="start" x="536" y="-24.2" font-family="Times New Roman,Times,Liberation Serif,serif" font-size="14.00">name</text>
<polygon fill="none" stroke="black" points="607,-18.5 607,-40.5 723,-40.5 723,-18.5 607,-18.5"/>
<text text-anchor="start" x="658.25" y="-24.2" font-family="Times New Roman,Times,Liberation Serif,serif" font-size="14.00">str</text>
</a>
</g>
</g>
<!-- gdm.distribution.controllers.distribution_inverter_controller.InverterController -->
<g id="node3" class="node">
<title>gdm.distribution.controllers.distribution_inverter_controller.InverterController</title>
<g id="a_node3"><a xlink:title="gdm.distribution.controllers.distribution_inverter_controller.InverterController&#10;&#10;Interface for Inverter controllers that control active and reactive power.&#10;">
<polygon fill="none" stroke="black" points="0,-190.5 0,-212.5 387,-212.5 387,-190.5 0,-190.5"/>
<text text-anchor="start" x="139.12" y="-197.2" font-family="Times New Roman,Times,Liberation Serif,serif" font-weight="bold" font-size="14.00">InverterController</text>
<polygon fill="none" stroke="black" points="0,-168.5 0,-190.5 135,-190.5 135,-168.5 0,-168.5"/>
<text text-anchor="start" x="55.5" y="-174.2" font-family="Times New Roman,Times,Liberation Serif,serif" font-size="14.00">uuid</text>
<polygon fill="none" stroke="black" points="135,-168.5 135,-190.5 387,-190.5 387,-168.5 135,-168.5"/>
<text text-anchor="start" x="244.12" y="-174.2" font-family="Times New Roman,Times,Liberation Serif,serif" font-size="14.00">UUID</text>
<polygon fill="none" stroke="black" points="0,-146.5 0,-168.5 135,-168.5 135,-146.5 0,-146.5"/>
<text text-anchor="start" x="52.5" y="-152.2" font-family="Times New Roman,Times,Liberation Serif,serif" font-size="14.00">name</text>
<polygon fill="none" stroke="black" points="135,-146.5 135,-168.5 387,-168.5 387,-146.5 135,-146.5"/>
<text text-anchor="start" x="254.25" y="-152.2" font-family="Times New Roman,Times,Liberation Serif,serif" font-size="14.00">str</text>
<polygon fill="none" stroke="black" points="0,-124.5 0,-146.5 135,-146.5 135,-124.5 0,-124.5"/>
<text text-anchor="start" x="8.62" y="-130.2" font-family="Times New Roman,Times,Liberation Serif,serif" font-size="14.00">active_power_control</text>
<polygon fill="none" stroke="black" points="135,-124.5 135,-146.5 387,-146.5 387,-124.5 135,-124.5"/>
<text text-anchor="start" x="143.62" y="-130.2" font-family="Times New Roman,Times,Liberation Serif,serif" font-size="14.00">ActivePowerInverterControllerBase | None</text>
<polygon fill="none" stroke="black" points="0,-102.5 0,-124.5 135,-124.5 135,-102.5 0,-102.5"/>
<text text-anchor="start" x="3.38" y="-108.2" font-family="Times New Roman,Times,Liberation Serif,serif" font-size="14.00">reactive_power_control</text>
<polygon fill="none" stroke="black" points="135,-102.5 135,-124.5 387,-124.5 387,-102.5 135,-102.5"/>
<text text-anchor="start" x="138" y="-108.2" font-family="Times New Roman,Times,Liberation Serif,serif" font-size="14.00">ReactivePowerInverterControllerBase | None</text>
<polygon fill="none" stroke="black" points="0,-80.5 0,-102.5 135,-102.5 135,-80.5 0,-80.5"/>
<text text-anchor="start" x="3" y="-86.2" font-family="Times New Roman,Times,Liberation Serif,serif" font-size="14.00">prioritize_active_power</text>
<polygon fill="none" stroke="black" points="135,-80.5 135,-102.5 387,-102.5 387,-80.5 135,-80.5"/>
<text text-anchor="start" x="249" y="-86.2" font-family="Times New Roman,Times,Liberation Serif,serif" font-size="14.00">bool</text>
<polygon fill="none" stroke="black" points="0,-58.5 0,-80.5 135,-80.5 135,-58.5 0,-58.5"/>
<text text-anchor="start" x="34.88" y="-64.2" font-family="Times New Roman,Times,Liberation Serif,serif" font-size="14.00">night_mode</text>
<polygon fill="none" stroke="black" points="135,-58.5 135,-80.5 387,-80.5 387,-58.5 135,-58.5"/>
<text text-anchor="start" x="249" y="-64.2" font-family="Times New Roman,Times,Liberation Serif,serif" font-size="14.00">bool</text>
</a>
</g>
</g>
<!-- gdm.distribution.controllers.distribution_inverter_controller.InverterController&#45;&gt;gdm.distribution.controllers.base.inverter_controller_base.ActivePowerInverterControllerBase -->
<g id="edge1" class="edge">
<title>gdm.distribution.controllers.distribution_inverter_controller.InverterController:e&#45;&gt;gdm.distribution.controllers.base.inverter_controller_base.ActivePowerInverterControllerBase:w</title>
<path fill="none" stroke="black" d="M396.74,-135.98C436.6,-140.01 447.89,-168.45 485.51,-174.41"/>
<polyline fill="none" stroke="black" points="387,-135.5 391.99,-135.74"/>
<polyline fill="none" stroke="black" points="391.99,-135.74 396.99,-135.99"/>
<polyline fill="none" stroke="black" points="500,-175.5 495.01,-175.12"/>
<polygon fill="black" stroke="black" points="494.39,-170.06 493.64,-180.04 491.65,-179.89 492.4,-169.91 494.39,-170.06"/>
<polyline fill="none" stroke="black" points="495.01,-175.12 490.03,-174.75"/>
<polygon fill="black" stroke="black" points="489.41,-169.69 488.66,-179.66 486.66,-179.51 487.41,-169.54 489.41,-169.69"/>
<polyline fill="none" stroke="black" points="490.03,-174.75 485.04,-174.37"/>
</g>
<!-- gdm.distribution.controllers.distribution_inverter_controller.InverterController&#45;&gt;gdm.distribution.controllers.base.inverter_controller_base.ReactivePowerInverterControllerBase -->
<g id="edge2" class="edge">
<title>gdm.distribution.controllers.distribution_inverter_controller.InverterController:e&#45;&gt;gdm.distribution.controllers.base.inverter_controller_base.ReactivePowerInverterControllerBase:w</title>
<path fill="none" stroke="black" d="M396.89,-112.96C434.38,-108.76 445.03,-80.98 480.21,-74.74"/>
<polyline fill="none" stroke="black" points="387,-113.5 391.99,-113.23"/>
<polyline fill="none" stroke="black" points="391.99,-113.23 396.99,-112.96"/>
<polyline fill="none" stroke="black" points="495,-73.5 490.02,-73.92"/>
<polygon fill="black" stroke="black" points="488.6,-69.02 489.44,-78.98 487.45,-79.15 486.61,-69.19 488.6,-69.02"/>
<polyline fill="none" stroke="black" points="490.02,-73.92 485.04,-74.34"/>
<polygon fill="black" stroke="black" points="483.62,-69.44 484.46,-79.4 482.46,-79.57 481.63,-69.61 483.62,-69.44"/>
<polyline fill="none" stroke="black" points="485.04,-74.34 480.05,-74.76"/>
</g>
</g>
</svg>
