<?xml version="1.0" encoding="UTF-8" standalone="no"?>
<!DOCTYPE svg PUBLIC "-//W3C//DTD SVG 1.1//EN"
 "http://www.w3.org/Graphics/SVG/1.1/DTD/svg11.dtd">
<!-- Generated by graphviz version 12.2.1 (20241206.2353)
 -->
<!-- Title: Entity Relationship Diagram created by erdantic Pages: 1 -->
<svg width="543pt" height="364pt"
 viewBox="0.00 0.00 542.75 363.75" xmlns="http://www.w3.org/2000/svg" xmlns:xlink="http://www.w3.org/1999/xlink">
<g id="graph0" class="graph" transform="scale(1 1) rotate(0) translate(4 359.75)">
<title>Entity Relationship Diagram created by erdantic</title>
<polygon fill="white" stroke="none" points="-4,4 -4,-359.75 538.75,-359.75 538.75,4 -4,4"/>
<text text-anchor="middle" x="267.38" y="-5.95" font-family="Times New Roman,Times,Liberation Serif,serif" font-size="9.00" fill="#a8a8a8">Created by erdantic v1.0.5 &lt;https://github.com/drivendataorg/erdantic&gt;</text>
<!-- gdm.distribution.equipment.load_equipment.LoadEquipment -->
<g id="node1" class="node">
<title>gdm.distribution.equipment.load_equipment.LoadEquipment</title>
<g id="a_node1"><a xlink:title="gdm.distribution.equipment.load_equipment.LoadEquipment&#10;&#10;Data model for load model.&#10;">
<polygon fill="none" stroke="black" points="0,-333.25 0,-355.75 246,-355.75 246,-333.25 0,-333.25"/>
<text text-anchor="start" x="75.38" y="-340.45" font-family="Times New Roman,Times,Liberation Serif,serif" font-weight="bold" font-size="14.00">LoadEquipment</text>
<polygon fill="none" stroke="black" points="0,-310.75 0,-333.25 95.25,-333.25 95.25,-310.75 0,-310.75"/>
<text text-anchor="start" x="35.62" y="-316.95" font-family="Times New Roman,Times,Liberation Serif,serif" font-size="14.00">uuid</text>
<polygon fill="none" stroke="black" points="95.25,-310.75 95.25,-333.25 246,-333.25 246,-310.75 95.25,-310.75"/>
<text text-anchor="start" x="153.75" y="-316.95" font-family="Times New Roman,Times,Liberation Serif,serif" font-size="14.00">UUID</text>
<polygon fill="none" stroke="black" points="0,-288.25 0,-310.75 95.25,-310.75 95.25,-288.25 0,-288.25"/>
<text text-anchor="start" x="32.62" y="-294.45" font-family="Times New Roman,Times,Liberation Serif,serif" font-size="14.00">name</text>
<polygon fill="none" stroke="black" points="95.25,-288.25 95.25,-310.75 246,-310.75 246,-288.25 95.25,-288.25"/>
<text text-anchor="start" x="163.88" y="-294.45" font-family="Times New Roman,Times,Liberation Serif,serif" font-size="14.00">str</text>
<polygon fill="none" stroke="black" points="0,-265.75 0,-288.25 95.25,-288.25 95.25,-265.75 0,-265.75"/>
<text text-anchor="start" x="14.62" y="-271.95" font-family="Times New Roman,Times,Liberation Serif,serif" font-size="14.00">phase_loads</text>
<polygon fill="none" stroke="black" points="95.25,-265.75 95.25,-288.25 246,-288.25 246,-265.75 95.25,-265.75"/>
<text text-anchor="start" x="98.25" y="-271.95" font-family="Times New Roman,Times,Liberation Serif,serif" font-size="14.00">list[PhaseLoadEquipment]</text>
<polygon fill="none" stroke="black" points="0,-243.25 0,-265.75 95.25,-265.75 95.25,-243.25 0,-243.25"/>
<text text-anchor="start" x="3" y="-249.45" font-family="Times New Roman,Times,Liberation Serif,serif" font-size="14.00">connection_type</text>
<polygon fill="none" stroke="black" points="95.25,-243.25 95.25,-265.75 246,-265.75 246,-243.25 95.25,-243.25"/>
<text text-anchor="start" x="125.62" y="-249.45" font-family="Times New Roman,Times,Liberation Serif,serif" font-size="14.00">ConnectionType</text>
</a>
</g>
</g>
<!-- gdm.distribution.equipment.phase_load_equipment.PhaseLoadEquipment -->
<g id="node2" class="node">
<title>gdm.distribution.equipment.phase_load_equipment.PhaseLoadEquipment</title>
<g id="a_node2"><a xlink:title="gdm.distribution.equipment.phase_load_equipment.PhaseLoadEquipment&#10;&#10;Data model for single phase load equipment.&#10;">
<polygon fill="none" stroke="black" points="354,-266 354,-288.5 534.75,-288.5 534.75,-266 354,-266"/>
<text text-anchor="start" x="379.88" y="-273.2" font-family="Times New Roman,Times,Liberation Serif,serif" font-weight="bold" font-size="14.00">PhaseLoadEquipment</text>
<polygon fill="none" stroke="black" points="354,-243.5 354,-266 447,-266 447,-243.5 354,-243.5"/>
<text text-anchor="start" x="388.5" y="-249.7" font-family="Times New Roman,Times,Liberation Serif,serif" font-size="14.00">uuid</text>
<polygon fill="none" stroke="black" points="447,-243.5 447,-266 534.75,-266 534.75,-243.5 447,-243.5"/>
<text text-anchor="start" x="474" y="-249.7" font-family="Times New Roman,Times,Liberation Serif,serif" font-size="14.00">UUID</text>
<polygon fill="none" stroke="black" points="354,-221 354,-243.5 447,-243.5 447,-221 354,-221"/>
<text text-anchor="start" x="385.5" y="-227.2" font-family="Times New Roman,Times,Liberation Serif,serif" font-size="14.00">name</text>
<polygon fill="none" stroke="black" points="447,-221 447,-243.5 534.75,-243.5 534.75,-221 447,-221"/>
<text text-anchor="start" x="484.12" y="-227.2" font-family="Times New Roman,Times,Liberation Serif,serif" font-size="14.00">str</text>
<polygon fill="none" stroke="black" points="354,-198.5 354,-221 447,-221 447,-198.5 354,-198.5"/>
<text text-anchor="start" x="370.12" y="-204.7" font-family="Times New Roman,Times,Liberation Serif,serif" font-size="14.00">real_power</text>
<polygon fill="none" stroke="black" points="447,-198.5 447,-221 534.75,-221 534.75,-198.5 447,-198.5"/>
<text text-anchor="start" x="455.62" y="-204.7" font-family="Times New Roman,Times,Liberation Serif,serif" font-size="14.00">ActivePower</text>
<polygon fill="none" stroke="black" points="354,-176 354,-198.5 447,-198.5 447,-176 354,-176"/>
<text text-anchor="start" x="358.88" y="-182.2" font-family="Times New Roman,Times,Liberation Serif,serif" font-size="14.00">reactive_power</text>
<polygon fill="none" stroke="black" points="447,-176 447,-198.5 534.75,-198.5 534.75,-176 447,-176"/>
<text text-anchor="start" x="450" y="-182.2" font-family="Times New Roman,Times,Liberation Serif,serif" font-size="14.00">ReactivePower</text>
<polygon fill="none" stroke="black" points="354,-153.5 354,-176 447,-176 447,-153.5 354,-153.5"/>
<text text-anchor="start" x="384" y="-159.7" font-family="Times New Roman,Times,Liberation Serif,serif" font-size="14.00">z_real</text>
<polygon fill="none" stroke="black" points="447,-153.5 447,-176 534.75,-176 534.75,-153.5 447,-153.5"/>
<text text-anchor="start" x="478.5" y="-159.7" font-family="Times New Roman,Times,Liberation Serif,serif" font-size="14.00">float</text>
<polygon fill="none" stroke="black" points="354,-131 354,-153.5 447,-153.5 447,-131 354,-131"/>
<text text-anchor="start" x="380.25" y="-137.2" font-family="Times New Roman,Times,Liberation Serif,serif" font-size="14.00">z_imag</text>
<polygon fill="none" stroke="black" points="447,-131 447,-153.5 534.75,-153.5 534.75,-131 447,-131"/>
<text text-anchor="start" x="478.5" y="-137.2" font-family="Times New Roman,Times,Liberation Serif,serif" font-size="14.00">float</text>
<polygon fill="none" stroke="black" points="354,-108.5 354,-131 447,-131 447,-108.5 354,-108.5"/>
<text text-anchor="start" x="385.12" y="-114.7" font-family="Times New Roman,Times,Liberation Serif,serif" font-size="14.00">i_real</text>
<polygon fill="none" stroke="black" points="447,-108.5 447,-131 534.75,-131 534.75,-108.5 447,-108.5"/>
<text text-anchor="start" x="478.5" y="-114.7" font-family="Times New Roman,Times,Liberation Serif,serif" font-size="14.00">float</text>
<polygon fill="none" stroke="black" points="354,-86 354,-108.5 447,-108.5 447,-86 354,-86"/>
<text text-anchor="start" x="381.38" y="-92.2" font-family="Times New Roman,Times,Liberation Serif,serif" font-size="14.00">i_imag</text>
<polygon fill="none" stroke="black" points="447,-86 447,-108.5 534.75,-108.5 534.75,-86 447,-86"/>
<text text-anchor="start" x="478.5" y="-92.2" font-family="Times New Roman,Times,Liberation Serif,serif" font-size="14.00">float</text>
<polygon fill="none" stroke="black" points="354,-63.5 354,-86 447,-86 447,-63.5 354,-63.5"/>
<text text-anchor="start" x="383.62" y="-69.7" font-family="Times New Roman,Times,Liberation Serif,serif" font-size="14.00">p_real</text>
<polygon fill="none" stroke="black" points="447,-63.5 447,-86 534.75,-86 534.75,-63.5 447,-63.5"/>
<text text-anchor="start" x="478.5" y="-69.7" font-family="Times New Roman,Times,Liberation Serif,serif" font-size="14.00">float</text>
<polygon fill="none" stroke="black" points="354,-41 354,-63.5 447,-63.5 447,-41 354,-41"/>
<text text-anchor="start" x="379.88" y="-47.2" font-family="Times New Roman,Times,Liberation Serif,serif" font-size="14.00">p_imag</text>
<polygon fill="none" stroke="black" points="447,-41 447,-63.5 534.75,-63.5 534.75,-41 447,-41"/>
<text text-anchor="start" x="478.5" y="-47.2" font-family="Times New Roman,Times,Liberation Serif,serif" font-size="14.00">float</text>
<polygon fill="none" stroke="black" points="354,-18.5 354,-41 447,-41 447,-18.5 354,-18.5"/>
<text text-anchor="start" x="357" y="-24.7" font-family="Times New Roman,Times,Liberation Serif,serif" font-size="14.00">num_customers</text>
<polygon fill="none" stroke="black" points="447,-18.5 447,-41 534.75,-41 534.75,-18.5 447,-18.5"/>
<text text-anchor="start" x="455.62" y="-24.7" font-family="Times New Roman,Times,Liberation Serif,serif" font-size="14.00">Optional[int]</text>
</a>
</g>
</g>
<!-- gdm.distribution.equipment.load_equipment.LoadEquipment&#45;&gt;gdm.distribution.equipment.phase_load_equipment.PhaseLoadEquipment -->
<g id="edge1" class="edge">
<title>gdm.distribution.equipment.load_equipment.LoadEquipment:e&#45;&gt;gdm.distribution.equipment.phase_load_equipment.PhaseLoadEquipment:w</title>
<path fill="none" stroke="black" d="M255.87,-277C290.92,-277.03 305.67,-277.2 338.64,-277.24"/>
<polyline fill="none" stroke="black" points="246,-277 251,-277"/>
<polyline fill="none" stroke="black" points="251,-277 256,-277"/>
<polygon fill="black" stroke="black" points="343.67,-277.24 353.66,-281.75 349,-277.25 353.33,-277.25 353.33,-277.25 353.33,-277.25 349,-277.25 353.67,-272.75 343.67,-277.24"/>
<polyline fill="none" stroke="black" points="342.45,-277.24 337.45,-277.24"/>
</g>
</g>
</svg>
