<?xml version="1.0" encoding="UTF-8" standalone="no"?>
<!DOCTYPE svg PUBLIC "-//W3C//DTD SVG 1.1//EN"
 "http://www.w3.org/Graphics/SVG/1.1/DTD/svg11.dtd">
<!-- Generated by graphviz version 9.0.0 (0)
 -->
<!-- Title: Entity Relationship Diagram created by erdantic Pages: 1 -->
<svg width="541pt" height="357pt"
 viewBox="0.00 0.00 541.00 356.50" xmlns="http://www.w3.org/2000/svg" xmlns:xlink="http://www.w3.org/1999/xlink">
<g id="graph0" class="graph" transform="scale(1 1) rotate(0) translate(4 352.5)">
<title>Entity Relationship Diagram created by erdantic</title>
<polygon fill="white" stroke="none" points="-4,4 -4,-352.5 537,-352.5 537,4 -4,4"/>
<text text-anchor="middle" x="266.5" y="-5.95" font-family="Times New Roman,Times,Liberation Serif,serif" font-size="9.00" fill="#a8a8a8">Created by erdantic v0.6.0 &lt;https://github.com/drivendataorg/erdantic&gt;</text>
<!-- gdm.distribution.equipment.load_equipment.LoadEquipment -->
<g id="node1" class="node">
<title>gdm.distribution.equipment.load_equipment.LoadEquipment</title>
<g id="a_node1"><a xlink:title="gdm.distribution.equipment.load_equipment.LoadEquipment&#10;&#10;Interface for load model.&#10;">
<polygon fill="none" stroke="black" points="0,-326.5 0,-348.5 245,-348.5 245,-326.5 0,-326.5"/>
<text text-anchor="start" x="74.88" y="-333.2" font-family="Times New Roman,Times,Liberation Serif,serif" font-weight="bold" font-size="14.00">LoadEquipment</text>
<polygon fill="none" stroke="black" points="0,-304.5 0,-326.5 95,-326.5 95,-304.5 0,-304.5"/>
<text text-anchor="start" x="35.5" y="-310.2" font-family="Times New Roman,Times,Liberation Serif,serif" font-size="14.00">uuid</text>
<polygon fill="none" stroke="black" points="95,-304.5 95,-326.5 245,-326.5 245,-304.5 95,-304.5"/>
<text text-anchor="start" x="153.12" y="-310.2" font-family="Times New Roman,Times,Liberation Serif,serif" font-size="14.00">UUID</text>
<polygon fill="none" stroke="black" points="0,-282.5 0,-304.5 95,-304.5 95,-282.5 0,-282.5"/>
<text text-anchor="start" x="32.5" y="-288.2" font-family="Times New Roman,Times,Liberation Serif,serif" font-size="14.00">name</text>
<polygon fill="none" stroke="black" points="95,-282.5 95,-304.5 245,-304.5 245,-282.5 95,-282.5"/>
<text text-anchor="start" x="163.25" y="-288.2" font-family="Times New Roman,Times,Liberation Serif,serif" font-size="14.00">str</text>
<polygon fill="none" stroke="black" points="0,-260.5 0,-282.5 95,-282.5 95,-260.5 0,-260.5"/>
<text text-anchor="start" x="14.5" y="-266.2" font-family="Times New Roman,Times,Liberation Serif,serif" font-size="14.00">phase_loads</text>
<polygon fill="none" stroke="black" points="95,-260.5 95,-282.5 245,-282.5 245,-260.5 95,-260.5"/>
<text text-anchor="start" x="97.62" y="-266.2" font-family="Times New Roman,Times,Liberation Serif,serif" font-size="14.00">list[PhaseLoadEquipment]</text>
<polygon fill="none" stroke="black" points="0,-238.5 0,-260.5 95,-260.5 95,-238.5 0,-238.5"/>
<text text-anchor="start" x="2.88" y="-244.2" font-family="Times New Roman,Times,Liberation Serif,serif" font-size="14.00">connection_type</text>
<polygon fill="none" stroke="black" points="95,-238.5 95,-260.5 245,-260.5 245,-238.5 95,-238.5"/>
<text text-anchor="start" x="125.38" y="-244.2" font-family="Times New Roman,Times,Liberation Serif,serif" font-size="14.00">ConnectionType</text>
</a>
</g>
</g>
<!-- gdm.distribution.equipment.phase_load_equipment.PhaseLoadEquipment -->
<g id="node2" class="node">
<title>gdm.distribution.equipment.phase_load_equipment.PhaseLoadEquipment</title>
<g id="a_node2"><a xlink:title="gdm.distribution.equipment.phase_load_equipment.PhaseLoadEquipment&#10;&#10;Interface for single phase load equipment.&#10; &#160;&#160;&#160;&#10;">
<polygon fill="none" stroke="black" points="353,-260.5 353,-282.5 533,-282.5 533,-260.5 353,-260.5"/>
<text text-anchor="start" x="378.5" y="-267.2" font-family="Times New Roman,Times,Liberation Serif,serif" font-weight="bold" font-size="14.00">PhaseLoadEquipment</text>
<polygon fill="none" stroke="black" points="353,-238.5 353,-260.5 446,-260.5 446,-238.5 353,-238.5"/>
<text text-anchor="start" x="387.5" y="-244.2" font-family="Times New Roman,Times,Liberation Serif,serif" font-size="14.00">uuid</text>
<polygon fill="none" stroke="black" points="446,-238.5 446,-260.5 533,-260.5 533,-238.5 446,-238.5"/>
<text text-anchor="start" x="472.62" y="-244.2" font-family="Times New Roman,Times,Liberation Serif,serif" font-size="14.00">UUID</text>
<polygon fill="none" stroke="black" points="353,-216.5 353,-238.5 446,-238.5 446,-216.5 353,-216.5"/>
<text text-anchor="start" x="384.5" y="-222.2" font-family="Times New Roman,Times,Liberation Serif,serif" font-size="14.00">name</text>
<polygon fill="none" stroke="black" points="446,-216.5 446,-238.5 533,-238.5 533,-216.5 446,-216.5"/>
<text text-anchor="start" x="482.75" y="-222.2" font-family="Times New Roman,Times,Liberation Serif,serif" font-size="14.00">str</text>
<polygon fill="none" stroke="black" points="353,-194.5 353,-216.5 446,-216.5 446,-194.5 353,-194.5"/>
<text text-anchor="start" x="369.12" y="-200.2" font-family="Times New Roman,Times,Liberation Serif,serif" font-size="14.00">real_power</text>
<polygon fill="none" stroke="black" points="446,-194.5 446,-216.5 533,-216.5 533,-194.5 446,-194.5"/>
<text text-anchor="start" x="454.25" y="-200.2" font-family="Times New Roman,Times,Liberation Serif,serif" font-size="14.00">ActivePower</text>
<polygon fill="none" stroke="black" points="353,-172.5 353,-194.5 446,-194.5 446,-172.5 353,-172.5"/>
<text text-anchor="start" x="357.88" y="-178.2" font-family="Times New Roman,Times,Liberation Serif,serif" font-size="14.00">reactive_power</text>
<polygon fill="none" stroke="black" points="446,-172.5 446,-194.5 533,-194.5 533,-172.5 446,-172.5"/>
<text text-anchor="start" x="448.62" y="-178.2" font-family="Times New Roman,Times,Liberation Serif,serif" font-size="14.00">ReactivePower</text>
<polygon fill="none" stroke="black" points="353,-150.5 353,-172.5 446,-172.5 446,-150.5 353,-150.5"/>
<text text-anchor="start" x="383" y="-156.2" font-family="Times New Roman,Times,Liberation Serif,serif" font-size="14.00">z_real</text>
<polygon fill="none" stroke="black" points="446,-150.5 446,-172.5 533,-172.5 533,-150.5 446,-150.5"/>
<text text-anchor="start" x="477.12" y="-156.2" font-family="Times New Roman,Times,Liberation Serif,serif" font-size="14.00">float</text>
<polygon fill="none" stroke="black" points="353,-128.5 353,-150.5 446,-150.5 446,-128.5 353,-128.5"/>
<text text-anchor="start" x="379.25" y="-134.2" font-family="Times New Roman,Times,Liberation Serif,serif" font-size="14.00">z_imag</text>
<polygon fill="none" stroke="black" points="446,-128.5 446,-150.5 533,-150.5 533,-128.5 446,-128.5"/>
<text text-anchor="start" x="477.12" y="-134.2" font-family="Times New Roman,Times,Liberation Serif,serif" font-size="14.00">float</text>
<polygon fill="none" stroke="black" points="353,-106.5 353,-128.5 446,-128.5 446,-106.5 353,-106.5"/>
<text text-anchor="start" x="384.12" y="-112.2" font-family="Times New Roman,Times,Liberation Serif,serif" font-size="14.00">i_real</text>
<polygon fill="none" stroke="black" points="446,-106.5 446,-128.5 533,-128.5 533,-106.5 446,-106.5"/>
<text text-anchor="start" x="477.12" y="-112.2" font-family="Times New Roman,Times,Liberation Serif,serif" font-size="14.00">float</text>
<polygon fill="none" stroke="black" points="353,-84.5 353,-106.5 446,-106.5 446,-84.5 353,-84.5"/>
<text text-anchor="start" x="380.38" y="-90.2" font-family="Times New Roman,Times,Liberation Serif,serif" font-size="14.00">i_imag</text>
<polygon fill="none" stroke="black" points="446,-84.5 446,-106.5 533,-106.5 533,-84.5 446,-84.5"/>
<text text-anchor="start" x="477.12" y="-90.2" font-family="Times New Roman,Times,Liberation Serif,serif" font-size="14.00">float</text>
<polygon fill="none" stroke="black" points="353,-62.5 353,-84.5 446,-84.5 446,-62.5 353,-62.5"/>
<text text-anchor="start" x="382.62" y="-68.2" font-family="Times New Roman,Times,Liberation Serif,serif" font-size="14.00">p_real</text>
<polygon fill="none" stroke="black" points="446,-62.5 446,-84.5 533,-84.5 533,-62.5 446,-62.5"/>
<text text-anchor="start" x="477.12" y="-68.2" font-family="Times New Roman,Times,Liberation Serif,serif" font-size="14.00">float</text>
<polygon fill="none" stroke="black" points="353,-40.5 353,-62.5 446,-62.5 446,-40.5 353,-40.5"/>
<text text-anchor="start" x="378.88" y="-46.2" font-family="Times New Roman,Times,Liberation Serif,serif" font-size="14.00">p_imag</text>
<polygon fill="none" stroke="black" points="446,-40.5 446,-62.5 533,-62.5 533,-40.5 446,-40.5"/>
<text text-anchor="start" x="477.12" y="-46.2" font-family="Times New Roman,Times,Liberation Serif,serif" font-size="14.00">float</text>
<polygon fill="none" stroke="black" points="353,-18.5 353,-40.5 446,-40.5 446,-18.5 353,-18.5"/>
<text text-anchor="start" x="356" y="-24.2" font-family="Times New Roman,Times,Liberation Serif,serif" font-size="14.00">num_customers</text>
<polygon fill="none" stroke="black" points="446,-18.5 446,-40.5 533,-40.5 533,-18.5 446,-18.5"/>
<text text-anchor="start" x="454.25" y="-24.2" font-family="Times New Roman,Times,Liberation Serif,serif" font-size="14.00">Optional[int]</text>
</a>
</g>
</g>
<!-- gdm.distribution.equipment.load_equipment.LoadEquipment&#45;&gt;gdm.distribution.equipment.phase_load_equipment.PhaseLoadEquipment -->
<g id="edge1" class="edge">
<title>gdm.distribution.equipment.load_equipment.LoadEquipment:e&#45;&gt;gdm.distribution.equipment.phase_load_equipment.PhaseLoadEquipment:w</title>
<path fill="none" stroke="black" d="M254.87,-271.5C289.76,-271.5 304.54,-271.5 337.2,-271.5"/>
<polyline fill="none" stroke="black" points="245,-271.5 250,-271.5"/>
<polyline fill="none" stroke="black" points="250,-271.5 255,-271.5"/>
<polygon fill="black" stroke="black" points="342.67,-271.5 352.67,-276 348,-271.5 352.33,-271.5 352.33,-271.5 352.33,-271.5 348,-271.5 352.67,-267 342.67,-271.5"/>
<polyline fill="none" stroke="black" points="341.45,-271.5 336.45,-271.5"/>
</g>
</g>
</svg>
