<?xml version="1.0" encoding="UTF-8" standalone="no"?>
<!DOCTYPE svg PUBLIC "-//W3C//DTD SVG 1.1//EN"
 "http://www.w3.org/Graphics/SVG/1.1/DTD/svg11.dtd">
<!-- Generated by graphviz version 12.2.1 (20241206.2353)
 -->
<!-- Title: Entity Relationship Diagram created by erdantic Pages: 1 -->
<svg width="275pt" height="162pt"
 viewBox="0.00 0.00 274.50 161.50" xmlns="http://www.w3.org/2000/svg" xmlns:xlink="http://www.w3.org/1999/xlink">
<g id="graph0" class="graph" transform="scale(1 1) rotate(0) translate(4 157.5)">
<title>Entity Relationship Diagram created by erdantic</title>
<polygon fill="white" stroke="none" points="-4,4 -4,-157.5 270.5,-157.5 270.5,4 -4,4"/>
<text text-anchor="middle" x="133.25" y="-5.95" font-family="Times New Roman,Times,Liberation Serif,serif" font-size="9.00" fill="#a8a8a8">Created by erdantic v1.0.5 &lt;https://github.com/drivendataorg/erdantic&gt;</text>
<!-- infrasys.location.Location -->
<g id="node1" class="node">
<title>infrasys.location.Location</title>
<g id="a_node1"><a xlink:title="infrasys.location.Location&#10;&#10;Specifies geographic location.&#10;">
<polygon fill="none" stroke="black" points="85.62,-131 85.62,-153.5 180.88,-153.5 180.88,-131 85.62,-131"/>
<text text-anchor="start" x="107.75" y="-138.2" font-family="Times New Roman,Times,Liberation Serif,serif" font-weight="bold" font-size="14.00">Location</text>
<polygon fill="none" stroke="black" points="85.62,-108.5 85.62,-131 121.62,-131 121.62,-108.5 85.62,-108.5"/>
<text text-anchor="start" x="91.62" y="-114.7" font-family="Times New Roman,Times,Liberation Serif,serif" font-size="14.00">uuid</text>
<polygon fill="none" stroke="black" points="121.62,-108.5 121.62,-131 180.88,-131 180.88,-108.5 121.62,-108.5"/>
<text text-anchor="start" x="134.38" y="-114.7" font-family="Times New Roman,Times,Liberation Serif,serif" font-size="14.00">UUID</text>
<polygon fill="none" stroke="black" points="85.62,-86 85.62,-108.5 121.62,-108.5 121.62,-86 85.62,-86"/>
<text text-anchor="start" x="88.62" y="-92.2" font-family="Times New Roman,Times,Liberation Serif,serif" font-size="14.00">name</text>
<polygon fill="none" stroke="black" points="121.62,-86 121.62,-108.5 180.88,-108.5 180.88,-86 121.62,-86"/>
<text text-anchor="start" x="144.5" y="-92.2" font-family="Times New Roman,Times,Liberation Serif,serif" font-size="14.00">str</text>
<polygon fill="none" stroke="black" points="85.62,-63.5 85.62,-86 121.62,-86 121.62,-63.5 85.62,-63.5"/>
<text text-anchor="start" x="100.25" y="-69.7" font-family="Times New Roman,Times,Liberation Serif,serif" font-size="14.00">x</text>
<polygon fill="none" stroke="black" points="121.62,-63.5 121.62,-86 180.88,-86 180.88,-63.5 121.62,-63.5"/>
<text text-anchor="start" x="138.88" y="-69.7" font-family="Times New Roman,Times,Liberation Serif,serif" font-size="14.00">float</text>
<polygon fill="none" stroke="black" points="85.62,-41 85.62,-63.5 121.62,-63.5 121.62,-41 85.62,-41"/>
<text text-anchor="start" x="100.25" y="-47.2" font-family="Times New Roman,Times,Liberation Serif,serif" font-size="14.00">y</text>
<polygon fill="none" stroke="black" points="121.62,-41 121.62,-63.5 180.88,-63.5 180.88,-41 121.62,-41"/>
<text text-anchor="start" x="138.88" y="-47.2" font-family="Times New Roman,Times,Liberation Serif,serif" font-size="14.00">float</text>
<polygon fill="none" stroke="black" points="85.62,-18.5 85.62,-41 121.62,-41 121.62,-18.5 85.62,-18.5"/>
<text text-anchor="start" x="95.75" y="-24.7" font-family="Times New Roman,Times,Liberation Serif,serif" font-size="14.00">crs</text>
<polygon fill="none" stroke="black" points="121.62,-18.5 121.62,-41 180.88,-41 180.88,-18.5 121.62,-18.5"/>
<text text-anchor="start" x="124.62" y="-24.7" font-family="Times New Roman,Times,Liberation Serif,serif" font-size="14.00">str | None</text>
</a>
</g>
</g>
</g>
</svg>
