<?xml version="1.0" encoding="UTF-8" standalone="no"?>
<!DOCTYPE svg PUBLIC "-//W3C//DTD SVG 1.1//EN"
 "http://www.w3.org/Graphics/SVG/1.1/DTD/svg11.dtd">
<!-- Generated by graphviz version 9.0.0 (0)
 -->
<!-- Title: Entity Relationship Diagram created by erdantic Pages: 1 -->
<svg width="275pt" height="159pt"
 viewBox="0.00 0.00 274.50 158.50" xmlns="http://www.w3.org/2000/svg" xmlns:xlink="http://www.w3.org/1999/xlink">
<g id="graph0" class="graph" transform="scale(1 1) rotate(0) translate(4 154.5)">
<title>Entity Relationship Diagram created by erdantic</title>
<polygon fill="white" stroke="none" points="-4,4 -4,-154.5 270.5,-154.5 270.5,4 -4,4"/>
<text text-anchor="middle" x="133.25" y="-5.95" font-family="Times New Roman,Times,Liberation Serif,serif" font-size="9.00" fill="#a8a8a8">Created by erdantic v0.6.0 &lt;https://github.com/drivendataorg/erdantic&gt;</text>
<!-- infrasys.location.Location -->
<g id="node1" class="node">
<title>infrasys.location.Location</title>
<g id="a_node1"><a xlink:title="infrasys.location.Location&#10;&#10;Specifies geographic location.&#10;">
<polygon fill="none" stroke="black" points="85.75,-128.5 85.75,-150.5 180.75,-150.5 180.75,-128.5 85.75,-128.5"/>
<text text-anchor="start" x="107.75" y="-135.2" font-family="Times New Roman,Times,Liberation Serif,serif" font-weight="bold" font-size="14.00">Location</text>
<polygon fill="none" stroke="black" points="85.75,-106.5 85.75,-128.5 121.75,-128.5 121.75,-106.5 85.75,-106.5"/>
<text text-anchor="start" x="91.75" y="-112.2" font-family="Times New Roman,Times,Liberation Serif,serif" font-size="14.00">uuid</text>
<polygon fill="none" stroke="black" points="121.75,-106.5 121.75,-128.5 180.75,-128.5 180.75,-106.5 121.75,-106.5"/>
<text text-anchor="start" x="134.38" y="-112.2" font-family="Times New Roman,Times,Liberation Serif,serif" font-size="14.00">UUID</text>
<polygon fill="none" stroke="black" points="85.75,-84.5 85.75,-106.5 121.75,-106.5 121.75,-84.5 85.75,-84.5"/>
<text text-anchor="start" x="88.75" y="-90.2" font-family="Times New Roman,Times,Liberation Serif,serif" font-size="14.00">name</text>
<polygon fill="none" stroke="black" points="121.75,-84.5 121.75,-106.5 180.75,-106.5 180.75,-84.5 121.75,-84.5"/>
<text text-anchor="start" x="144.5" y="-90.2" font-family="Times New Roman,Times,Liberation Serif,serif" font-size="14.00">str</text>
<polygon fill="none" stroke="black" points="85.75,-62.5 85.75,-84.5 121.75,-84.5 121.75,-62.5 85.75,-62.5"/>
<text text-anchor="start" x="100.38" y="-68.2" font-family="Times New Roman,Times,Liberation Serif,serif" font-size="14.00">x</text>
<polygon fill="none" stroke="black" points="121.75,-62.5 121.75,-84.5 180.75,-84.5 180.75,-62.5 121.75,-62.5"/>
<text text-anchor="start" x="138.88" y="-68.2" font-family="Times New Roman,Times,Liberation Serif,serif" font-size="14.00">float</text>
<polygon fill="none" stroke="black" points="85.75,-40.5 85.75,-62.5 121.75,-62.5 121.75,-40.5 85.75,-40.5"/>
<text text-anchor="start" x="100.38" y="-46.2" font-family="Times New Roman,Times,Liberation Serif,serif" font-size="14.00">y</text>
<polygon fill="none" stroke="black" points="121.75,-40.5 121.75,-62.5 180.75,-62.5 180.75,-40.5 121.75,-40.5"/>
<text text-anchor="start" x="138.88" y="-46.2" font-family="Times New Roman,Times,Liberation Serif,serif" font-size="14.00">float</text>
<polygon fill="none" stroke="black" points="85.75,-18.5 85.75,-40.5 121.75,-40.5 121.75,-18.5 85.75,-18.5"/>
<text text-anchor="start" x="95.88" y="-24.2" font-family="Times New Roman,Times,Liberation Serif,serif" font-size="14.00">crs</text>
<polygon fill="none" stroke="black" points="121.75,-18.5 121.75,-40.5 180.75,-40.5 180.75,-18.5 121.75,-18.5"/>
<text text-anchor="start" x="124.62" y="-24.2" font-family="Times New Roman,Times,Liberation Serif,serif" font-size="14.00">str | None</text>
</a>
</g>
</g>
</g>
</svg>
