<?xml version="1.0" encoding="UTF-8" standalone="no"?>
<!DOCTYPE svg PUBLIC "-//W3C//DTD SVG 1.1//EN"
 "http://www.w3.org/Graphics/SVG/1.1/DTD/svg11.dtd">
<!-- Generated by graphviz version 9.0.0 (0)
 -->
<!-- Title: Entity Relationship Diagram created by erdantic Pages: 1 -->
<svg width="1172pt" height="745pt"
 viewBox="0.00 0.00 1172.00 744.50" xmlns="http://www.w3.org/2000/svg" xmlns:xlink="http://www.w3.org/1999/xlink">
<g id="graph0" class="graph" transform="scale(1 1) rotate(0) translate(4 740.5)">
<title>Entity Relationship Diagram created by erdantic</title>
<polygon fill="white" stroke="none" points="-4,4 -4,-740.5 1168,-740.5 1168,4 -4,4"/>
<text text-anchor="middle" x="582" y="-5.95" font-family="Times New Roman,Times,Liberation Serif,serif" font-size="9.00" fill="#a8a8a8">Created by erdantic v0.6.0 &lt;https://github.com/drivendataorg/erdantic&gt;</text>
<!-- gdm.distribution.components.distribution_bus.DistributionBus -->
<g id="node1" class="node">
<title>gdm.distribution.components.distribution_bus.DistributionBus</title>
<g id="a_node1"><a xlink:title="gdm.distribution.components.distribution_bus.DistributionBus&#10;&#10;Interface for distribution bus.&#10;&#10;Examples:&#10; &#160;&#160;&#160;&gt;&gt;&gt; from gdm import DistributionBus&#10; &#160;&#160;&#160;&gt;&gt;&gt; DistributionBus.example()&#10;">
<polygon fill="none" stroke="black" points="373,-516.5 373,-538.5 654,-538.5 654,-516.5 373,-516.5"/>
<text text-anchor="start" x="467.38" y="-523.2" font-family="Times New Roman,Times,Liberation Serif,serif" font-weight="bold" font-size="14.00">DistributionBus</text>
<polygon fill="none" stroke="black" points="373,-494.5 373,-516.5 470,-516.5 470,-494.5 373,-494.5"/>
<text text-anchor="start" x="409.5" y="-500.2" font-family="Times New Roman,Times,Liberation Serif,serif" font-size="14.00">uuid</text>
<polygon fill="none" stroke="black" points="470,-494.5 470,-516.5 654,-516.5 654,-494.5 470,-494.5"/>
<text text-anchor="start" x="545.12" y="-500.2" font-family="Times New Roman,Times,Liberation Serif,serif" font-size="14.00">UUID</text>
<polygon fill="none" stroke="black" points="373,-472.5 373,-494.5 470,-494.5 470,-472.5 373,-472.5"/>
<text text-anchor="start" x="406.5" y="-478.2" font-family="Times New Roman,Times,Liberation Serif,serif" font-size="14.00">name</text>
<polygon fill="none" stroke="black" points="470,-472.5 470,-494.5 654,-494.5 654,-472.5 470,-472.5"/>
<text text-anchor="start" x="555.25" y="-478.2" font-family="Times New Roman,Times,Liberation Serif,serif" font-size="14.00">str</text>
<polygon fill="none" stroke="black" points="373,-450.5 373,-472.5 470,-472.5 470,-450.5 373,-450.5"/>
<text text-anchor="start" x="394.12" y="-456.2" font-family="Times New Roman,Times,Liberation Serif,serif" font-size="14.00">substation</text>
<polygon fill="none" stroke="black" points="470,-450.5 470,-472.5 654,-472.5 654,-450.5 470,-450.5"/>
<text text-anchor="start" x="472.75" y="-456.2" font-family="Times New Roman,Times,Liberation Serif,serif" font-size="14.00">Optional[DistributionSubstation]</text>
<polygon fill="none" stroke="black" points="373,-428.5 373,-450.5 470,-450.5 470,-428.5 373,-428.5"/>
<text text-anchor="start" x="404.62" y="-434.2" font-family="Times New Roman,Times,Liberation Serif,serif" font-size="14.00">feeder</text>
<polygon fill="none" stroke="black" points="470,-428.5 470,-450.5 654,-450.5 654,-428.5 470,-428.5"/>
<text text-anchor="start" x="482.88" y="-434.2" font-family="Times New Roman,Times,Liberation Serif,serif" font-size="14.00">Optional[DistributionFeeder]</text>
<polygon fill="none" stroke="black" points="373,-406.5 373,-428.5 470,-428.5 470,-406.5 373,-406.5"/>
<text text-anchor="start" x="386.62" y="-412.2" font-family="Times New Roman,Times,Liberation Serif,serif" font-size="14.00">voltage_type</text>
<polygon fill="none" stroke="black" points="470,-406.5 470,-428.5 654,-428.5 654,-406.5 470,-406.5"/>
<text text-anchor="start" x="525.25" y="-412.2" font-family="Times New Roman,Times,Liberation Serif,serif" font-size="14.00">VoltageTypes</text>
<polygon fill="none" stroke="black" points="373,-384.5 373,-406.5 470,-406.5 470,-384.5 373,-384.5"/>
<text text-anchor="start" x="403.5" y="-390.2" font-family="Times New Roman,Times,Liberation Serif,serif" font-size="14.00">phases</text>
<polygon fill="none" stroke="black" points="470,-384.5 470,-406.5 654,-406.5 654,-384.5 470,-384.5"/>
<text text-anchor="start" x="533.5" y="-390.2" font-family="Times New Roman,Times,Liberation Serif,serif" font-size="14.00">list[Phase]</text>
<polygon fill="none" stroke="black" points="373,-362.5 373,-384.5 470,-384.5 470,-362.5 373,-362.5"/>
<text text-anchor="start" x="385.88" y="-368.2" font-family="Times New Roman,Times,Liberation Serif,serif" font-size="14.00">voltagelimits</text>
<polygon fill="none" stroke="black" points="470,-362.5 470,-384.5 654,-384.5 654,-362.5 470,-362.5"/>
<text text-anchor="start" x="504.62" y="-368.2" font-family="Times New Roman,Times,Liberation Serif,serif" font-size="14.00">list[VoltageLimitSet]</text>
<polygon fill="none" stroke="black" points="373,-340.5 373,-362.5 470,-362.5 470,-340.5 373,-340.5"/>
<text text-anchor="start" x="375.75" y="-346.2" font-family="Times New Roman,Times,Liberation Serif,serif" font-size="14.00">nominal_voltage</text>
<polygon fill="none" stroke="black" points="470,-340.5 470,-362.5 654,-362.5 654,-340.5 470,-340.5"/>
<text text-anchor="start" x="519.62" y="-346.2" font-family="Times New Roman,Times,Liberation Serif,serif" font-size="14.00">PositiveVoltage</text>
<polygon fill="none" stroke="black" points="373,-318.5 373,-340.5 470,-340.5 470,-318.5 373,-318.5"/>
<text text-anchor="start" x="393" y="-324.2" font-family="Times New Roman,Times,Liberation Serif,serif" font-size="14.00">coordinate</text>
<polygon fill="none" stroke="black" points="470,-318.5 470,-340.5 654,-340.5 654,-318.5 470,-318.5"/>
<text text-anchor="start" x="509.88" y="-324.2" font-family="Times New Roman,Times,Liberation Serif,serif" font-size="14.00">Optional[Location]</text>
</a>
</g>
</g>
<!-- gdm.distribution.components.distribution_feeder.DistributionFeeder -->
<g id="node2" class="node">
<title>gdm.distribution.components.distribution_feeder.DistributionFeeder</title>
<g id="a_node2"><a xlink:title="gdm.distribution.components.distribution_feeder.DistributionFeeder&#10;&#10;Class interface for distribution feeder.&#10;">
<polygon fill="none" stroke="black" points="1048,-582.5 1048,-604.5 1164,-604.5 1164,-582.5 1048,-582.5"/>
<text text-anchor="start" x="1050.88" y="-589.2" font-family="Times New Roman,Times,Liberation Serif,serif" font-weight="bold" font-size="14.00">DistributionFeeder</text>
<polygon fill="none" stroke="black" points="1048,-560.5 1048,-582.5 1104,-582.5 1104,-560.5 1048,-560.5"/>
<text text-anchor="start" x="1064" y="-566.2" font-family="Times New Roman,Times,Liberation Serif,serif" font-size="14.00">uuid</text>
<polygon fill="none" stroke="black" points="1104,-560.5 1104,-582.5 1164,-582.5 1164,-560.5 1104,-560.5"/>
<text text-anchor="start" x="1117.12" y="-566.2" font-family="Times New Roman,Times,Liberation Serif,serif" font-size="14.00">UUID</text>
<polygon fill="none" stroke="black" points="1048,-538.5 1048,-560.5 1104,-560.5 1104,-538.5 1048,-538.5"/>
<text text-anchor="start" x="1061" y="-544.2" font-family="Times New Roman,Times,Liberation Serif,serif" font-size="14.00">name</text>
<polygon fill="none" stroke="black" points="1104,-538.5 1104,-560.5 1164,-560.5 1164,-538.5 1104,-538.5"/>
<text text-anchor="start" x="1127.25" y="-544.2" font-family="Times New Roman,Times,Liberation Serif,serif" font-size="14.00">str</text>
</a>
</g>
</g>
<!-- gdm.distribution.components.distribution_bus.DistributionBus&#45;&gt;gdm.distribution.components.distribution_feeder.DistributionFeeder -->
<g id="edge1" class="edge">
<title>gdm.distribution.components.distribution_bus.DistributionBus:e&#45;&gt;gdm.distribution.components.distribution_feeder.DistributionFeeder:w</title>
<path fill="none" stroke="black" d="M663.73,-440C755.26,-448.94 932.31,-575.5 1029.18,-591.78"/>
<polyline fill="none" stroke="black" points="654,-439.5 658.99,-439.76"/>
<polyline fill="none" stroke="black" points="658.99,-439.76 663.99,-440.01"/>
<polyline fill="none" stroke="black" points="1048,-593.5 1043.02,-593.05"/>
<polygon fill="black" stroke="black" points="1042.48,-587.97 1041.57,-597.93 1039.58,-597.75 1040.49,-587.79 1042.48,-587.97"/>
<polyline fill="none" stroke="black" points="1043.02,-593.05 1038.04,-592.59"/>
<ellipse fill="none" stroke="black" cx="1033.56" cy="-592.18" rx="4" ry="4"/>
</g>
<!-- gdm.distribution.components.distribution_substation.DistributionSubstation -->
<g id="node3" class="node">
<title>gdm.distribution.components.distribution_substation.DistributionSubstation</title>
<g id="a_node3"><a xlink:title="gdm.distribution.components.distribution_substation.DistributionSubstation&#10;&#10;Class interface for distribution feeder.&#10;">
<polygon fill="none" stroke="black" points="762,-714.5 762,-736.5 940,-736.5 940,-714.5 762,-714.5"/>
<text text-anchor="start" x="785" y="-721.2" font-family="Times New Roman,Times,Liberation Serif,serif" font-weight="bold" font-size="14.00">DistributionSubstation</text>
<polygon fill="none" stroke="black" points="762,-692.5 762,-714.5 807,-714.5 807,-692.5 762,-692.5"/>
<text text-anchor="start" x="772.5" y="-698.2" font-family="Times New Roman,Times,Liberation Serif,serif" font-size="14.00">uuid</text>
<polygon fill="none" stroke="black" points="807,-692.5 807,-714.5 940,-714.5 940,-692.5 807,-692.5"/>
<text text-anchor="start" x="856.62" y="-698.2" font-family="Times New Roman,Times,Liberation Serif,serif" font-size="14.00">UUID</text>
<polygon fill="none" stroke="black" points="762,-670.5 762,-692.5 807,-692.5 807,-670.5 762,-670.5"/>
<text text-anchor="start" x="769.5" y="-676.2" font-family="Times New Roman,Times,Liberation Serif,serif" font-size="14.00">name</text>
<polygon fill="none" stroke="black" points="807,-670.5 807,-692.5 940,-692.5 940,-670.5 807,-670.5"/>
<text text-anchor="start" x="866.75" y="-676.2" font-family="Times New Roman,Times,Liberation Serif,serif" font-size="14.00">str</text>
<polygon fill="none" stroke="black" points="762,-648.5 762,-670.5 807,-670.5 807,-648.5 762,-648.5"/>
<text text-anchor="start" x="765" y="-654.2" font-family="Times New Roman,Times,Liberation Serif,serif" font-size="14.00">feeders</text>
<polygon fill="none" stroke="black" points="807,-648.5 807,-670.5 940,-670.5 940,-648.5 807,-648.5"/>
<text text-anchor="start" x="809.75" y="-654.2" font-family="Times New Roman,Times,Liberation Serif,serif" font-size="14.00">list[DistributionFeeder]</text>
</a>
</g>
</g>
<!-- gdm.distribution.components.distribution_bus.DistributionBus&#45;&gt;gdm.distribution.components.distribution_substation.DistributionSubstation -->
<g id="edge2" class="edge">
<title>gdm.distribution.components.distribution_bus.DistributionBus:e&#45;&gt;gdm.distribution.components.distribution_substation.DistributionSubstation:w</title>
<path fill="none" stroke="black" d="M663.8,-462.08C766.72,-474.95 653.36,-697.5 743.16,-723.11"/>
<polyline fill="none" stroke="black" points="654,-461.5 658.99,-461.8"/>
<polyline fill="none" stroke="black" points="658.99,-461.8 663.98,-462.09"/>
<polyline fill="none" stroke="black" points="762,-725.5 757.04,-724.87"/>
<polygon fill="black" stroke="black" points="756.68,-719.78 755.42,-729.7 753.43,-729.45 754.69,-719.53 756.68,-719.78"/>
<polyline fill="none" stroke="black" points="757.04,-724.87 752.08,-724.24"/>
<ellipse fill="none" stroke="black" cx="747.62" cy="-723.67" rx="4" ry="4"/>
</g>
<!-- gdm.distribution.limitset.VoltageLimitSet -->
<g id="node4" class="node">
<title>gdm.distribution.limitset.VoltageLimitSet</title>
<g id="a_node4"><a xlink:title="gdm.distribution.limitset.VoltageLimitSet&#10;&#10;Interface for voltage limit set.&#10;">
<polygon fill="none" stroke="black" points="775,-431.5 775,-453.5 927,-453.5 927,-431.5 775,-431.5"/>
<text text-anchor="start" x="803.75" y="-438.2" font-family="Times New Roman,Times,Liberation Serif,serif" font-weight="bold" font-size="14.00">VoltageLimitSet</text>
<polygon fill="none" stroke="black" points="775,-409.5 775,-431.5 837,-431.5 837,-409.5 775,-409.5"/>
<text text-anchor="start" x="794" y="-415.2" font-family="Times New Roman,Times,Liberation Serif,serif" font-size="14.00">uuid</text>
<polygon fill="none" stroke="black" points="837,-409.5 837,-431.5 927,-431.5 927,-409.5 837,-409.5"/>
<text text-anchor="start" x="865.12" y="-415.2" font-family="Times New Roman,Times,Liberation Serif,serif" font-size="14.00">UUID</text>
<polygon fill="none" stroke="black" points="775,-387.5 775,-409.5 837,-409.5 837,-387.5 775,-387.5"/>
<text text-anchor="start" x="791" y="-393.2" font-family="Times New Roman,Times,Liberation Serif,serif" font-size="14.00">name</text>
<polygon fill="none" stroke="black" points="837,-387.5 837,-409.5 927,-409.5 927,-387.5 837,-387.5"/>
<text text-anchor="start" x="875.25" y="-393.2" font-family="Times New Roman,Times,Liberation Serif,serif" font-size="14.00">str</text>
<polygon fill="none" stroke="black" points="775,-365.5 775,-387.5 837,-387.5 837,-365.5 775,-365.5"/>
<text text-anchor="start" x="777.88" y="-371.2" font-family="Times New Roman,Times,Liberation Serif,serif" font-size="14.00">limit_type</text>
<polygon fill="none" stroke="black" points="837,-365.5 837,-387.5 927,-387.5 927,-365.5 837,-365.5"/>
<text text-anchor="start" x="853.12" y="-371.2" font-family="Times New Roman,Times,Liberation Serif,serif" font-size="14.00">LimitType</text>
<polygon fill="none" stroke="black" points="775,-343.5 775,-365.5 837,-365.5 837,-343.5 775,-343.5"/>
<text text-anchor="start" x="791.38" y="-349.2" font-family="Times New Roman,Times,Liberation Serif,serif" font-size="14.00">value</text>
<polygon fill="none" stroke="black" points="837,-343.5 837,-365.5 927,-365.5 927,-343.5 837,-343.5"/>
<text text-anchor="start" x="839.62" y="-349.2" font-family="Times New Roman,Times,Liberation Serif,serif" font-size="14.00">PositiveVoltage</text>
</a>
</g>
</g>
<!-- gdm.distribution.components.distribution_bus.DistributionBus&#45;&gt;gdm.distribution.limitset.VoltageLimitSet -->
<g id="edge3" class="edge">
<title>gdm.distribution.components.distribution_bus.DistributionBus:e&#45;&gt;gdm.distribution.limitset.VoltageLimitSet:w</title>
<path fill="none" stroke="black" d="M663.86,-374.14C710.15,-380.39 715.32,-430.59 757.98,-440.72"/>
<polyline fill="none" stroke="black" points="654,-373.5 658.99,-373.82"/>
<polyline fill="none" stroke="black" points="658.99,-373.82 663.98,-374.15"/>
<polygon fill="black" stroke="black" points="763.73,-441.36 773.17,-446.94 769.03,-441.95 773.34,-442.43 773.34,-442.43 773.34,-442.43 769.03,-441.95 774.16,-437.99 763.73,-441.36"/>
<polyline fill="none" stroke="black" points="762.52,-441.22 757.55,-440.67"/>
</g>
<!-- infrasys.location.Location -->
<g id="node5" class="node">
<title>infrasys.location.Location</title>
<g id="a_node5"><a xlink:title="infrasys.location.Location&#10;&#10;Specifies geographic location.&#10;">
<polygon fill="none" stroke="black" points="803.5,-285.5 803.5,-307.5 898.5,-307.5 898.5,-285.5 803.5,-285.5"/>
<text text-anchor="start" x="825.5" y="-292.2" font-family="Times New Roman,Times,Liberation Serif,serif" font-weight="bold" font-size="14.00">Location</text>
<polygon fill="none" stroke="black" points="803.5,-263.5 803.5,-285.5 839.5,-285.5 839.5,-263.5 803.5,-263.5"/>
<text text-anchor="start" x="809.5" y="-269.2" font-family="Times New Roman,Times,Liberation Serif,serif" font-size="14.00">uuid</text>
<polygon fill="none" stroke="black" points="839.5,-263.5 839.5,-285.5 898.5,-285.5 898.5,-263.5 839.5,-263.5"/>
<text text-anchor="start" x="852.12" y="-269.2" font-family="Times New Roman,Times,Liberation Serif,serif" font-size="14.00">UUID</text>
<polygon fill="none" stroke="black" points="803.5,-241.5 803.5,-263.5 839.5,-263.5 839.5,-241.5 803.5,-241.5"/>
<text text-anchor="start" x="806.5" y="-247.2" font-family="Times New Roman,Times,Liberation Serif,serif" font-size="14.00">name</text>
<polygon fill="none" stroke="black" points="839.5,-241.5 839.5,-263.5 898.5,-263.5 898.5,-241.5 839.5,-241.5"/>
<text text-anchor="start" x="862.25" y="-247.2" font-family="Times New Roman,Times,Liberation Serif,serif" font-size="14.00">str</text>
<polygon fill="none" stroke="black" points="803.5,-219.5 803.5,-241.5 839.5,-241.5 839.5,-219.5 803.5,-219.5"/>
<text text-anchor="start" x="818.12" y="-225.2" font-family="Times New Roman,Times,Liberation Serif,serif" font-size="14.00">x</text>
<polygon fill="none" stroke="black" points="839.5,-219.5 839.5,-241.5 898.5,-241.5 898.5,-219.5 839.5,-219.5"/>
<text text-anchor="start" x="856.62" y="-225.2" font-family="Times New Roman,Times,Liberation Serif,serif" font-size="14.00">float</text>
<polygon fill="none" stroke="black" points="803.5,-197.5 803.5,-219.5 839.5,-219.5 839.5,-197.5 803.5,-197.5"/>
<text text-anchor="start" x="818.12" y="-203.2" font-family="Times New Roman,Times,Liberation Serif,serif" font-size="14.00">y</text>
<polygon fill="none" stroke="black" points="839.5,-197.5 839.5,-219.5 898.5,-219.5 898.5,-197.5 839.5,-197.5"/>
<text text-anchor="start" x="856.62" y="-203.2" font-family="Times New Roman,Times,Liberation Serif,serif" font-size="14.00">float</text>
<polygon fill="none" stroke="black" points="803.5,-175.5 803.5,-197.5 839.5,-197.5 839.5,-175.5 803.5,-175.5"/>
<text text-anchor="start" x="813.62" y="-181.2" font-family="Times New Roman,Times,Liberation Serif,serif" font-size="14.00">crs</text>
<polygon fill="none" stroke="black" points="839.5,-175.5 839.5,-197.5 898.5,-197.5 898.5,-175.5 839.5,-175.5"/>
<text text-anchor="start" x="842.38" y="-181.2" font-family="Times New Roman,Times,Liberation Serif,serif" font-size="14.00">str | None</text>
</a>
</g>
</g>
<!-- gdm.distribution.components.distribution_bus.DistributionBus&#45;&gt;infrasys.location.Location -->
<g id="edge4" class="edge">
<title>gdm.distribution.components.distribution_bus.DistributionBus:e&#45;&gt;infrasys.location.Location:w</title>
<path fill="none" stroke="black" d="M663.86,-329.25C716.65,-326.55 734.34,-302.47 783.28,-297.43"/>
<polyline fill="none" stroke="black" points="654,-329.5 659,-329.37"/>
<polyline fill="none" stroke="black" points="659,-329.37 664,-329.25"/>
<polyline fill="none" stroke="black" points="802,-296.5 797.01,-296.75"/>
<polygon fill="black" stroke="black" points="795.76,-291.8 796.25,-301.79 794.26,-301.89 793.76,-291.9 795.76,-291.8"/>
<polyline fill="none" stroke="black" points="797.01,-296.75 792.01,-296.99"/>
<ellipse fill="none" stroke="black" cx="787.52" cy="-297.22" rx="4" ry="4"/>
</g>
<!-- gdm.distribution.components.distribution_substation.DistributionSubstation&#45;&gt;gdm.distribution.components.distribution_feeder.DistributionFeeder -->
<g id="edge5" class="edge">
<title>gdm.distribution.components.distribution_substation.DistributionSubstation:e&#45;&gt;gdm.distribution.components.distribution_feeder.DistributionFeeder:w</title>
<path fill="none" stroke="black" d="M949.87,-658.76C990.89,-652.3 994.85,-605.58 1032.48,-595.44"/>
<polyline fill="none" stroke="black" points="940,-659.5 944.99,-659.13"/>
<polyline fill="none" stroke="black" points="944.99,-659.13 949.97,-658.75"/>
<polygon fill="black" stroke="black" points="1037.75,-594.78 1048.23,-598.01 1043.04,-594.12 1047.34,-593.58 1047.34,-593.58 1047.34,-593.58 1043.04,-594.12 1047.11,-589.08 1037.75,-594.78"/>
<polyline fill="none" stroke="black" points="1036.54,-594.93 1031.57,-595.55"/>
</g>
<!-- gdm.distribution.components.matrix_impedance_branch.MatrixImpedanceBranch -->
<g id="node6" class="node">
<title>gdm.distribution.components.matrix_impedance_branch.MatrixImpedanceBranch</title>
<g id="a_node6"><a xlink:title="gdm.distribution.components.matrix_impedance_branch.MatrixImpedanceBranch&#10;&#10;Interface for matrix impedance branch.&#10;">
<polygon fill="none" stroke="black" points="0,-659.5 0,-681.5 265,-681.5 265,-659.5 0,-659.5"/>
<text text-anchor="start" x="58.25" y="-666.2" font-family="Times New Roman,Times,Liberation Serif,serif" font-weight="bold" font-size="14.00">MatrixImpedanceBranch</text>
<polygon fill="none" stroke="black" points="0,-637.5 0,-659.5 63,-659.5 63,-637.5 0,-637.5"/>
<text text-anchor="start" x="19.5" y="-643.2" font-family="Times New Roman,Times,Liberation Serif,serif" font-size="14.00">uuid</text>
<polygon fill="none" stroke="black" points="63,-637.5 63,-659.5 265,-659.5 265,-637.5 63,-637.5"/>
<text text-anchor="start" x="147.12" y="-643.2" font-family="Times New Roman,Times,Liberation Serif,serif" font-size="14.00">UUID</text>
<polygon fill="none" stroke="black" points="0,-615.5 0,-637.5 63,-637.5 63,-615.5 0,-615.5"/>
<text text-anchor="start" x="16.5" y="-621.2" font-family="Times New Roman,Times,Liberation Serif,serif" font-size="14.00">name</text>
<polygon fill="none" stroke="black" points="63,-615.5 63,-637.5 265,-637.5 265,-615.5 63,-615.5"/>
<text text-anchor="start" x="157.25" y="-621.2" font-family="Times New Roman,Times,Liberation Serif,serif" font-size="14.00">str</text>
<polygon fill="none" stroke="black" points="0,-593.5 0,-615.5 63,-615.5 63,-593.5 0,-593.5"/>
<text text-anchor="start" x="4.12" y="-599.2" font-family="Times New Roman,Times,Liberation Serif,serif" font-size="14.00">substation</text>
<polygon fill="none" stroke="black" points="63,-593.5 63,-615.5 265,-615.5 265,-593.5 63,-593.5"/>
<text text-anchor="start" x="74.75" y="-599.2" font-family="Times New Roman,Times,Liberation Serif,serif" font-size="14.00">Optional[DistributionSubstation]</text>
<polygon fill="none" stroke="black" points="0,-571.5 0,-593.5 63,-593.5 63,-571.5 0,-571.5"/>
<text text-anchor="start" x="14.62" y="-577.2" font-family="Times New Roman,Times,Liberation Serif,serif" font-size="14.00">feeder</text>
<polygon fill="none" stroke="black" points="63,-571.5 63,-593.5 265,-593.5 265,-571.5 63,-571.5"/>
<text text-anchor="start" x="84.88" y="-577.2" font-family="Times New Roman,Times,Liberation Serif,serif" font-size="14.00">Optional[DistributionFeeder]</text>
<polygon fill="none" stroke="black" points="0,-549.5 0,-571.5 63,-571.5 63,-549.5 0,-549.5"/>
<text text-anchor="start" x="3.75" y="-555.2" font-family="Times New Roman,Times,Liberation Serif,serif" font-size="14.00">in_service</text>
<polygon fill="none" stroke="black" points="63,-549.5 63,-571.5 265,-571.5 265,-549.5 63,-549.5"/>
<text text-anchor="start" x="152" y="-555.2" font-family="Times New Roman,Times,Liberation Serif,serif" font-size="14.00">bool</text>
<polygon fill="none" stroke="black" points="0,-527.5 0,-549.5 63,-549.5 63,-527.5 0,-527.5"/>
<text text-anchor="start" x="16.5" y="-533.2" font-family="Times New Roman,Times,Liberation Serif,serif" font-size="14.00">buses</text>
<polygon fill="none" stroke="black" points="63,-527.5 63,-549.5 265,-549.5 265,-527.5 63,-527.5"/>
<text text-anchor="start" x="108.12" y="-533.2" font-family="Times New Roman,Times,Liberation Serif,serif" font-size="14.00">list[DistributionBus]</text>
<polygon fill="none" stroke="black" points="0,-505.5 0,-527.5 63,-527.5 63,-505.5 0,-505.5"/>
<text text-anchor="start" x="14.62" y="-511.2" font-family="Times New Roman,Times,Liberation Serif,serif" font-size="14.00">length</text>
<polygon fill="none" stroke="black" points="63,-505.5 63,-527.5 265,-527.5 265,-505.5 63,-505.5"/>
<text text-anchor="start" x="118.62" y="-511.2" font-family="Times New Roman,Times,Liberation Serif,serif" font-size="14.00">PositiveDistance</text>
<polygon fill="none" stroke="black" points="0,-483.5 0,-505.5 63,-505.5 63,-483.5 0,-483.5"/>
<text text-anchor="start" x="13.5" y="-489.2" font-family="Times New Roman,Times,Liberation Serif,serif" font-size="14.00">phases</text>
<polygon fill="none" stroke="black" points="63,-483.5 63,-505.5 265,-505.5 265,-483.5 63,-483.5"/>
<text text-anchor="start" x="135.5" y="-489.2" font-family="Times New Roman,Times,Liberation Serif,serif" font-size="14.00">list[Phase]</text>
<polygon fill="none" stroke="black" points="0,-461.5 0,-483.5 63,-483.5 63,-461.5 0,-461.5"/>
<text text-anchor="start" x="2.62" y="-467.2" font-family="Times New Roman,Times,Liberation Serif,serif" font-size="14.00">equipment</text>
<polygon fill="none" stroke="black" points="63,-461.5 63,-483.5 265,-483.5 265,-461.5 63,-461.5"/>
<text text-anchor="start" x="65.75" y="-467.2" font-family="Times New Roman,Times,Liberation Serif,serif" font-size="14.00">MatrixImpedanceBranchEquipment</text>
</a>
</g>
</g>
<!-- gdm.distribution.components.matrix_impedance_branch.MatrixImpedanceBranch&#45;&gt;gdm.distribution.components.distribution_bus.DistributionBus -->
<g id="edge6" class="edge">
<title>gdm.distribution.components.matrix_impedance_branch.MatrixImpedanceBranch:e&#45;&gt;gdm.distribution.components.distribution_bus.DistributionBus:w</title>
<path fill="none" stroke="black" d="M274.91,-538.34C309.76,-537.15 324.27,-529.87 356.7,-527.96"/>
<polyline fill="none" stroke="black" points="265,-538.5 270,-538.42"/>
<polyline fill="none" stroke="black" points="270,-538.42 275,-538.33"/>
<polygon fill="black" stroke="black" points="362.67,-527.79 372.79,-532.01 368,-527.64 372.33,-527.52 372.33,-527.52 372.33,-527.52 368,-527.64 372.54,-523.01 362.67,-527.79"/>
<polyline fill="none" stroke="black" points="361.45,-527.83 356.45,-527.97"/>
</g>
<!-- gdm.distribution.components.matrix_impedance_branch.MatrixImpedanceBranch&#45;&gt;gdm.distribution.components.distribution_feeder.DistributionFeeder -->
<g id="edge7" class="edge">
<title>gdm.distribution.components.matrix_impedance_branch.MatrixImpedanceBranch:e&#45;&gt;gdm.distribution.components.distribution_feeder.DistributionFeeder:w</title>
<path fill="none" stroke="black" d="M274.87,-582.5C608.41,-582.7 699.91,-593.1 1029.07,-593.49"/>
<polyline fill="none" stroke="black" points="265,-582.5 270,-582.5"/>
<polyline fill="none" stroke="black" points="270,-582.5 275,-582.5"/>
<polyline fill="none" stroke="black" points="1048,-593.5 1043,-593.5"/>
<polygon fill="black" stroke="black" points="1042,-588.5 1042,-598.5 1040,-598.5 1040,-588.5 1042,-588.5"/>
<polyline fill="none" stroke="black" points="1043,-593.5 1038,-593.49"/>
<ellipse fill="none" stroke="black" cx="1033.5" cy="-593.49" rx="4" ry="4"/>
</g>
<!-- gdm.distribution.components.matrix_impedance_branch.MatrixImpedanceBranch&#45;&gt;gdm.distribution.components.distribution_substation.DistributionSubstation -->
<g id="edge8" class="edge">
<title>gdm.distribution.components.matrix_impedance_branch.MatrixImpedanceBranch:e&#45;&gt;gdm.distribution.components.distribution_substation.DistributionSubstation:w</title>
<path fill="none" stroke="black" d="M274.67,-604.77C387.04,-610.7 624.6,-713.73 743.32,-724.58"/>
<polyline fill="none" stroke="black" points="265,-604.5 270,-604.64"/>
<polyline fill="none" stroke="black" points="270,-604.64 275,-604.78"/>
<polyline fill="none" stroke="black" points="762,-725.5 757.01,-725.25"/>
<polygon fill="black" stroke="black" points="756.25,-720.21 755.76,-730.2 753.76,-730.1 754.26,-720.11 756.25,-720.21"/>
<polyline fill="none" stroke="black" points="757.01,-725.25 752.01,-725.01"/>
<ellipse fill="none" stroke="black" cx="747.52" cy="-724.78" rx="4" ry="4"/>
</g>
<!-- gdm.distribution.equipment.matrix_impedance_branch_equipment.MatrixImpedanceBranchEquipment -->
<g id="node7" class="node">
<title>gdm.distribution.equipment.matrix_impedance_branch_equipment.MatrixImpedanceBranchEquipment</title>
<g id="a_node7"><a xlink:title="gdm.distribution.equipment.matrix_impedance_branch_equipment.MatrixImpedanceBranchEquipment&#10;&#10;Interface for impedance based branch.&#10;">
<polygon fill="none" stroke="black" points="396,-260.5 396,-282.5 631,-282.5 631,-260.5 396,-260.5"/>
<text text-anchor="start" x="406.62" y="-267.2" font-family="Times New Roman,Times,Liberation Serif,serif" font-weight="bold" font-size="14.00">MatrixImpedanceBranchEquipment</text>
<polygon fill="none" stroke="black" points="396,-238.5 396,-260.5 475,-260.5 475,-238.5 396,-238.5"/>
<text text-anchor="start" x="423.5" y="-244.2" font-family="Times New Roman,Times,Liberation Serif,serif" font-size="14.00">uuid</text>
<polygon fill="none" stroke="black" points="475,-238.5 475,-260.5 631,-260.5 631,-238.5 475,-238.5"/>
<text text-anchor="start" x="536.12" y="-244.2" font-family="Times New Roman,Times,Liberation Serif,serif" font-size="14.00">UUID</text>
<polygon fill="none" stroke="black" points="396,-216.5 396,-238.5 475,-238.5 475,-216.5 396,-216.5"/>
<text text-anchor="start" x="420.5" y="-222.2" font-family="Times New Roman,Times,Liberation Serif,serif" font-size="14.00">name</text>
<polygon fill="none" stroke="black" points="475,-216.5 475,-238.5 631,-238.5 631,-216.5 475,-216.5"/>
<text text-anchor="start" x="546.25" y="-222.2" font-family="Times New Roman,Times,Liberation Serif,serif" font-size="14.00">str</text>
<polygon fill="none" stroke="black" points="396,-194.5 396,-216.5 475,-216.5 475,-194.5 396,-194.5"/>
<text text-anchor="start" x="411.88" y="-200.2" font-family="Times New Roman,Times,Liberation Serif,serif" font-size="14.00">r_matrix</text>
<polygon fill="none" stroke="black" points="475,-194.5 475,-216.5 631,-216.5 631,-194.5 475,-194.5"/>
<text text-anchor="start" x="496.38" y="-200.2" font-family="Times New Roman,Times,Liberation Serif,serif" font-size="14.00">ResistancePULength</text>
<polygon fill="none" stroke="black" points="396,-172.5 396,-194.5 475,-194.5 475,-172.5 396,-172.5"/>
<text text-anchor="start" x="410.75" y="-178.2" font-family="Times New Roman,Times,Liberation Serif,serif" font-size="14.00">x_matrix</text>
<polygon fill="none" stroke="black" points="475,-172.5 475,-194.5 631,-194.5 631,-172.5 475,-172.5"/>
<text text-anchor="start" x="497.5" y="-178.2" font-family="Times New Roman,Times,Liberation Serif,serif" font-size="14.00">ReactancePULength</text>
<polygon fill="none" stroke="black" points="396,-150.5 396,-172.5 475,-172.5 475,-150.5 396,-150.5"/>
<text text-anchor="start" x="411.12" y="-156.2" font-family="Times New Roman,Times,Liberation Serif,serif" font-size="14.00">c_matrix</text>
<polygon fill="none" stroke="black" points="475,-150.5 475,-172.5 631,-172.5 631,-150.5 475,-150.5"/>
<text text-anchor="start" x="492.25" y="-156.2" font-family="Times New Roman,Times,Liberation Serif,serif" font-size="14.00">CapacitancePULength</text>
<polygon fill="none" stroke="black" points="396,-128.5 396,-150.5 475,-150.5 475,-128.5 396,-128.5"/>
<text text-anchor="start" x="410.38" y="-134.2" font-family="Times New Roman,Times,Liberation Serif,serif" font-size="14.00">ampacity</text>
<polygon fill="none" stroke="black" points="475,-128.5 475,-150.5 631,-150.5 631,-128.5 475,-128.5"/>
<text text-anchor="start" x="510.62" y="-134.2" font-family="Times New Roman,Times,Liberation Serif,serif" font-size="14.00">PositiveCurrent</text>
<polygon fill="none" stroke="black" points="396,-106.5 396,-128.5 475,-128.5 475,-106.5 396,-106.5"/>
<text text-anchor="start" x="398.75" y="-112.2" font-family="Times New Roman,Times,Liberation Serif,serif" font-size="14.00">loading_limit</text>
<polygon fill="none" stroke="black" points="475,-106.5 475,-128.5 631,-128.5 631,-106.5 475,-106.5"/>
<text text-anchor="start" x="477.62" y="-112.2" font-family="Times New Roman,Times,Liberation Serif,serif" font-size="14.00">Optional[ThermalLimitSet]</text>
</a>
</g>
</g>
<!-- gdm.distribution.components.matrix_impedance_branch.MatrixImpedanceBranch&#45;&gt;gdm.distribution.equipment.matrix_impedance_branch_equipment.MatrixImpedanceBranchEquipment -->
<g id="edge9" class="edge">
<title>gdm.distribution.components.matrix_impedance_branch.MatrixImpedanceBranch:e&#45;&gt;gdm.distribution.equipment.matrix_impedance_branch_equipment.MatrixImpedanceBranchEquipment:w</title>
<path fill="none" stroke="black" d="M274.97,-471.85C361.17,-460.03 299.13,-290.83 379.67,-273.01"/>
<polyline fill="none" stroke="black" points="265,-472.5 269.99,-472.17"/>
<polyline fill="none" stroke="black" points="269.99,-472.17 274.98,-471.85"/>
<polyline fill="none" stroke="black" points="394.5,-271.5 389.53,-272.01"/>
<polygon fill="black" stroke="black" points="388.02,-267.14 389.04,-277.08 387.05,-277.29 386.03,-267.34 388.02,-267.14"/>
<polyline fill="none" stroke="black" points="389.53,-272.01 384.55,-272.52"/>
<polygon fill="black" stroke="black" points="383.05,-267.64 384.06,-277.59 382.08,-277.79 381.06,-267.85 383.05,-267.64"/>
<polyline fill="none" stroke="black" points="384.55,-272.52 379.58,-273.02"/>
</g>
<!-- gdm.distribution.limitset.ThermalLimitSet -->
<g id="node8" class="node">
<title>gdm.distribution.limitset.ThermalLimitSet</title>
<g id="a_node8"><a xlink:title="gdm.distribution.limitset.ThermalLimitSet&#10;&#10;Interface for voltage limit set.&#10;">
<polygon fill="none" stroke="black" points="775,-106.5 775,-128.5 927,-128.5 927,-106.5 775,-106.5"/>
<text text-anchor="start" x="800" y="-113.2" font-family="Times New Roman,Times,Liberation Serif,serif" font-weight="bold" font-size="14.00">ThermalLimitSet</text>
<polygon fill="none" stroke="black" points="775,-84.5 775,-106.5 837,-106.5 837,-84.5 775,-84.5"/>
<text text-anchor="start" x="794" y="-90.2" font-family="Times New Roman,Times,Liberation Serif,serif" font-size="14.00">uuid</text>
<polygon fill="none" stroke="black" points="837,-84.5 837,-106.5 927,-106.5 927,-84.5 837,-84.5"/>
<text text-anchor="start" x="865.12" y="-90.2" font-family="Times New Roman,Times,Liberation Serif,serif" font-size="14.00">UUID</text>
<polygon fill="none" stroke="black" points="775,-62.5 775,-84.5 837,-84.5 837,-62.5 775,-62.5"/>
<text text-anchor="start" x="791" y="-68.2" font-family="Times New Roman,Times,Liberation Serif,serif" font-size="14.00">name</text>
<polygon fill="none" stroke="black" points="837,-62.5 837,-84.5 927,-84.5 927,-62.5 837,-62.5"/>
<text text-anchor="start" x="875.25" y="-68.2" font-family="Times New Roman,Times,Liberation Serif,serif" font-size="14.00">str</text>
<polygon fill="none" stroke="black" points="775,-40.5 775,-62.5 837,-62.5 837,-40.5 775,-40.5"/>
<text text-anchor="start" x="777.88" y="-46.2" font-family="Times New Roman,Times,Liberation Serif,serif" font-size="14.00">limit_type</text>
<polygon fill="none" stroke="black" points="837,-40.5 837,-62.5 927,-62.5 927,-40.5 837,-40.5"/>
<text text-anchor="start" x="853.12" y="-46.2" font-family="Times New Roman,Times,Liberation Serif,serif" font-size="14.00">LimitType</text>
<polygon fill="none" stroke="black" points="775,-18.5 775,-40.5 837,-40.5 837,-18.5 775,-18.5"/>
<text text-anchor="start" x="791.38" y="-24.2" font-family="Times New Roman,Times,Liberation Serif,serif" font-size="14.00">value</text>
<polygon fill="none" stroke="black" points="837,-18.5 837,-40.5 927,-40.5 927,-18.5 837,-18.5"/>
<text text-anchor="start" x="839.62" y="-24.2" font-family="Times New Roman,Times,Liberation Serif,serif" font-size="14.00">PositiveCurrent</text>
</a>
</g>
</g>
<!-- gdm.distribution.equipment.matrix_impedance_branch_equipment.MatrixImpedanceBranchEquipment&#45;&gt;gdm.distribution.limitset.ThermalLimitSet -->
<g id="edge10" class="edge">
<title>gdm.distribution.equipment.matrix_impedance_branch_equipment.MatrixImpedanceBranchEquipment:e&#45;&gt;gdm.distribution.limitset.ThermalLimitSet:w</title>
<path fill="none" stroke="black" d="M642.41,-117.5C690.93,-117.5 710.06,-117.5 755.01,-117.5"/>
<polyline fill="none" stroke="black" points="632.5,-117.5 637.5,-117.5"/>
<polyline fill="none" stroke="black" points="637.5,-117.5 642.5,-117.5"/>
<polyline fill="none" stroke="black" points="774,-117.5 769,-117.5"/>
<polygon fill="black" stroke="black" points="768,-112.5 768,-122.5 766,-122.5 766,-112.5 768,-112.5"/>
<polyline fill="none" stroke="black" points="769,-117.5 764,-117.5"/>
<ellipse fill="none" stroke="black" cx="759.5" cy="-117.5" rx="4" ry="4"/>
</g>
</g>
</svg>
