<?xml version="1.0" encoding="UTF-8" standalone="no"?>
<!DOCTYPE svg PUBLIC "-//W3C//DTD SVG 1.1//EN"
 "http://www.w3.org/Graphics/SVG/1.1/DTD/svg11.dtd">
<!-- Generated by graphviz version 12.2.1 (20241206.2353)
 -->
<!-- Title: Entity Relationship Diagram created by erdantic Pages: 1 -->
<svg width="505pt" height="393pt"
 viewBox="0.00 0.00 505.25 393.25" xmlns="http://www.w3.org/2000/svg" xmlns:xlink="http://www.w3.org/1999/xlink">
<g id="graph0" class="graph" transform="scale(1 1) rotate(0) translate(4 389.25)">
<title>Entity Relationship Diagram created by erdantic</title>
<polygon fill="white" stroke="none" points="-4,4 -4,-389.25 501.25,-389.25 501.25,4 -4,4"/>
<text text-anchor="middle" x="248.62" y="-5.95" font-family="Times New Roman,Times,Liberation Serif,serif" font-size="9.00" fill="#a8a8a8">Created by erdantic v1.0.5 &lt;https://github.com/drivendataorg/erdantic&gt;</text>
<!-- gdm.distribution.common.curve.TimeCurrentCurve -->
<g id="node1" class="node">
<title>gdm.distribution.common.curve.TimeCurrentCurve</title>
<g id="a_node1"><a xlink:title="gdm.distribution.common.curve.TimeCurrentCurve&#10;&#10;An interface for time current curve.&#10;">
<polygon fill="none" stroke="black" points="360.75,-108.5 360.75,-131 480.75,-131 480.75,-108.5 360.75,-108.5"/>
<text text-anchor="start" x="363.75" y="-115.7" font-family="Times New Roman,Times,Liberation Serif,serif" font-weight="bold" font-size="14.00">TimeCurrentCurve</text>
<polygon fill="none" stroke="black" points="360.75,-86 360.75,-108.5 421.88,-108.5 421.88,-86 360.75,-86"/>
<text text-anchor="start" x="379.31" y="-92.2" font-family="Times New Roman,Times,Liberation Serif,serif" font-size="14.00">uuid</text>
<polygon fill="none" stroke="black" points="421.88,-86 421.88,-108.5 480.75,-108.5 480.75,-86 421.88,-86"/>
<text text-anchor="start" x="434.44" y="-92.2" font-family="Times New Roman,Times,Liberation Serif,serif" font-size="14.00">UUID</text>
<polygon fill="none" stroke="black" points="360.75,-63.5 360.75,-86 421.88,-86 421.88,-63.5 360.75,-63.5"/>
<text text-anchor="start" x="376.31" y="-69.7" font-family="Times New Roman,Times,Liberation Serif,serif" font-size="14.00">name</text>
<polygon fill="none" stroke="black" points="421.88,-63.5 421.88,-86 480.75,-86 480.75,-63.5 421.88,-63.5"/>
<text text-anchor="start" x="444.56" y="-69.7" font-family="Times New Roman,Times,Liberation Serif,serif" font-size="14.00">str</text>
<polygon fill="none" stroke="black" points="360.75,-41 360.75,-63.5 421.88,-63.5 421.88,-41 360.75,-41"/>
<text text-anchor="start" x="369.56" y="-47.2" font-family="Times New Roman,Times,Liberation Serif,serif" font-size="14.00">curve_x</text>
<polygon fill="none" stroke="black" points="421.88,-41 421.88,-63.5 480.75,-63.5 480.75,-41 421.88,-41"/>
<text text-anchor="start" x="430.69" y="-47.2" font-family="Times New Roman,Times,Liberation Serif,serif" font-size="14.00">Current</text>
<polygon fill="none" stroke="black" points="360.75,-18.5 360.75,-41 421.88,-41 421.88,-18.5 360.75,-18.5"/>
<text text-anchor="start" x="369.56" y="-24.7" font-family="Times New Roman,Times,Liberation Serif,serif" font-size="14.00">curve_y</text>
<polygon fill="none" stroke="black" points="421.88,-18.5 421.88,-41 480.75,-41 480.75,-18.5 421.88,-18.5"/>
<text text-anchor="start" x="436.69" y="-24.7" font-family="Times New Roman,Times,Liberation Serif,serif" font-size="14.00">Time</text>
</a>
</g>
</g>
<!-- gdm.distribution.common.limitset.ThermalLimitSet -->
<g id="node2" class="node">
<title>gdm.distribution.common.limitset.ThermalLimitSet</title>
<g id="a_node2"><a xlink:title="gdm.distribution.common.limitset.ThermalLimitSet&#10;&#10;Interface for voltage limit set.&#10;">
<polygon fill="none" stroke="black" points="344.25,-257.5 344.25,-280 497.25,-280 497.25,-257.5 344.25,-257.5"/>
<text text-anchor="start" x="369.75" y="-264.7" font-family="Times New Roman,Times,Liberation Serif,serif" font-weight="bold" font-size="14.00">ThermalLimitSet</text>
<polygon fill="none" stroke="black" points="344.25,-235 344.25,-257.5 406.5,-257.5 406.5,-235 344.25,-235"/>
<text text-anchor="start" x="363.38" y="-241.2" font-family="Times New Roman,Times,Liberation Serif,serif" font-size="14.00">uuid</text>
<polygon fill="none" stroke="black" points="406.5,-235 406.5,-257.5 497.25,-257.5 497.25,-235 406.5,-235"/>
<text text-anchor="start" x="435" y="-241.2" font-family="Times New Roman,Times,Liberation Serif,serif" font-size="14.00">UUID</text>
<polygon fill="none" stroke="black" points="344.25,-212.5 344.25,-235 406.5,-235 406.5,-212.5 344.25,-212.5"/>
<text text-anchor="start" x="360.38" y="-218.7" font-family="Times New Roman,Times,Liberation Serif,serif" font-size="14.00">name</text>
<polygon fill="none" stroke="black" points="406.5,-212.5 406.5,-235 497.25,-235 497.25,-212.5 406.5,-212.5"/>
<text text-anchor="start" x="445.12" y="-218.7" font-family="Times New Roman,Times,Liberation Serif,serif" font-size="14.00">str</text>
<polygon fill="none" stroke="black" points="344.25,-190 344.25,-212.5 406.5,-212.5 406.5,-190 344.25,-190"/>
<text text-anchor="start" x="347.25" y="-196.2" font-family="Times New Roman,Times,Liberation Serif,serif" font-size="14.00">limit_type</text>
<polygon fill="none" stroke="black" points="406.5,-190 406.5,-212.5 497.25,-212.5 497.25,-190 406.5,-190"/>
<text text-anchor="start" x="422.62" y="-196.2" font-family="Times New Roman,Times,Liberation Serif,serif" font-size="14.00">LimitType</text>
<polygon fill="none" stroke="black" points="344.25,-167.5 344.25,-190 406.5,-190 406.5,-167.5 344.25,-167.5"/>
<text text-anchor="start" x="360.75" y="-173.7" font-family="Times New Roman,Times,Liberation Serif,serif" font-size="14.00">value</text>
<polygon fill="none" stroke="black" points="406.5,-167.5 406.5,-190 497.25,-190 497.25,-167.5 406.5,-167.5"/>
<text text-anchor="start" x="409.5" y="-173.7" font-family="Times New Roman,Times,Liberation Serif,serif" font-size="14.00">PositiveCurrent</text>
</a>
</g>
</g>
<!-- gdm.distribution.equipment.matrix_impedance_fuse_equipment.MatrixImpedanceFuseEquipment -->
<g id="node3" class="node">
<title>gdm.distribution.equipment.matrix_impedance_fuse_equipment.MatrixImpedanceFuseEquipment</title>
<g id="a_node3"><a xlink:title="gdm.distribution.equipment.matrix_impedance_fuse_equipment.MatrixImpedanceFuseEquipment&#10;&#10;Interface for impedance based fuse equipment.&#10;">
<polygon fill="none" stroke="black" points="0,-362.75 0,-385.25 236.25,-385.25 236.25,-362.75 0,-362.75"/>
<text text-anchor="start" x="19.12" y="-369.95" font-family="Times New Roman,Times,Liberation Serif,serif" font-weight="bold" font-size="14.00">MatrixImpedanceFuseEquipment</text>
<polygon fill="none" stroke="black" points="0,-340.25 0,-362.75 79.5,-362.75 79.5,-340.25 0,-340.25"/>
<text text-anchor="start" x="27.75" y="-346.45" font-family="Times New Roman,Times,Liberation Serif,serif" font-size="14.00">uuid</text>
<polygon fill="none" stroke="black" points="79.5,-340.25 79.5,-362.75 236.25,-362.75 236.25,-340.25 79.5,-340.25"/>
<text text-anchor="start" x="141" y="-346.45" font-family="Times New Roman,Times,Liberation Serif,serif" font-size="14.00">UUID</text>
<polygon fill="none" stroke="black" points="0,-317.75 0,-340.25 79.5,-340.25 79.5,-317.75 0,-317.75"/>
<text text-anchor="start" x="24.75" y="-323.95" font-family="Times New Roman,Times,Liberation Serif,serif" font-size="14.00">name</text>
<polygon fill="none" stroke="black" points="79.5,-317.75 79.5,-340.25 236.25,-340.25 236.25,-317.75 79.5,-317.75"/>
<text text-anchor="start" x="151.12" y="-323.95" font-family="Times New Roman,Times,Liberation Serif,serif" font-size="14.00">str</text>
<polygon fill="none" stroke="black" points="0,-295.25 0,-317.75 79.5,-317.75 79.5,-295.25 0,-295.25"/>
<text text-anchor="start" x="16.12" y="-301.45" font-family="Times New Roman,Times,Liberation Serif,serif" font-size="14.00">r_matrix</text>
<polygon fill="none" stroke="black" points="79.5,-295.25 79.5,-317.75 236.25,-317.75 236.25,-295.25 79.5,-295.25"/>
<text text-anchor="start" x="101.25" y="-301.45" font-family="Times New Roman,Times,Liberation Serif,serif" font-size="14.00">ResistancePULength</text>
<polygon fill="none" stroke="black" points="0,-272.75 0,-295.25 79.5,-295.25 79.5,-272.75 0,-272.75"/>
<text text-anchor="start" x="15" y="-278.95" font-family="Times New Roman,Times,Liberation Serif,serif" font-size="14.00">x_matrix</text>
<polygon fill="none" stroke="black" points="79.5,-272.75 79.5,-295.25 236.25,-295.25 236.25,-272.75 79.5,-272.75"/>
<text text-anchor="start" x="102.38" y="-278.95" font-family="Times New Roman,Times,Liberation Serif,serif" font-size="14.00">ReactancePULength</text>
<polygon fill="none" stroke="black" points="0,-250.25 0,-272.75 79.5,-272.75 79.5,-250.25 0,-250.25"/>
<text text-anchor="start" x="15.38" y="-256.45" font-family="Times New Roman,Times,Liberation Serif,serif" font-size="14.00">c_matrix</text>
<polygon fill="none" stroke="black" points="79.5,-250.25 79.5,-272.75 236.25,-272.75 236.25,-250.25 79.5,-250.25"/>
<text text-anchor="start" x="97.12" y="-256.45" font-family="Times New Roman,Times,Liberation Serif,serif" font-size="14.00">CapacitancePULength</text>
<polygon fill="none" stroke="black" points="0,-227.75 0,-250.25 79.5,-250.25 79.5,-227.75 0,-227.75"/>
<text text-anchor="start" x="14.62" y="-233.95" font-family="Times New Roman,Times,Liberation Serif,serif" font-size="14.00">ampacity</text>
<polygon fill="none" stroke="black" points="79.5,-227.75 79.5,-250.25 236.25,-250.25 236.25,-227.75 79.5,-227.75"/>
<text text-anchor="start" x="115.5" y="-233.95" font-family="Times New Roman,Times,Liberation Serif,serif" font-size="14.00">PositiveCurrent</text>
<polygon fill="none" stroke="black" points="0,-205.25 0,-227.75 79.5,-227.75 79.5,-205.25 0,-205.25"/>
<text text-anchor="start" x="3" y="-211.45" font-family="Times New Roman,Times,Liberation Serif,serif" font-size="14.00">loading_limit</text>
<polygon fill="none" stroke="black" points="79.5,-205.25 79.5,-227.75 236.25,-227.75 236.25,-205.25 79.5,-205.25"/>
<text text-anchor="start" x="82.5" y="-211.45" font-family="Times New Roman,Times,Liberation Serif,serif" font-size="14.00">Optional[ThermalLimitSet]</text>
<polygon fill="none" stroke="black" points="0,-182.75 0,-205.25 79.5,-205.25 79.5,-182.75 0,-182.75"/>
<text text-anchor="start" x="25.12" y="-188.95" font-family="Times New Roman,Times,Liberation Serif,serif" font-size="14.00">delay</text>
<polygon fill="none" stroke="black" points="79.5,-182.75 79.5,-205.25 236.25,-205.25 236.25,-182.75 79.5,-182.75"/>
<text text-anchor="start" x="143.25" y="-188.95" font-family="Times New Roman,Times,Liberation Serif,serif" font-size="14.00">Time</text>
<polygon fill="none" stroke="black" points="0,-160.25 0,-182.75 79.5,-182.75 79.5,-160.25 0,-160.25"/>
<text text-anchor="start" x="13.5" y="-166.45" font-family="Times New Roman,Times,Liberation Serif,serif" font-size="14.00">tcc_curve</text>
<polygon fill="none" stroke="black" points="79.5,-160.25 79.5,-182.75 236.25,-182.75 236.25,-160.25 79.5,-160.25"/>
<text text-anchor="start" x="106.12" y="-166.45" font-family="Times New Roman,Times,Liberation Serif,serif" font-size="14.00">TimeCurrentCurve</text>
</a>
</g>
</g>
<!-- gdm.distribution.equipment.matrix_impedance_fuse_equipment.MatrixImpedanceFuseEquipment&#45;&gt;gdm.distribution.common.curve.TimeCurrentCurve -->
<g id="edge1" class="edge">
<title>gdm.distribution.equipment.matrix_impedance_fuse_equipment.MatrixImpedanceFuseEquipment:e&#45;&gt;gdm.distribution.common.curve.TimeCurrentCurve:w</title>
<path fill="none" stroke="black" d="M246.17,-170.99C291.66,-166.13 301.94,-128.16 344.92,-120.93"/>
<polyline fill="none" stroke="black" points="236.25,-171.5 241.24,-171.24"/>
<polyline fill="none" stroke="black" points="241.24,-171.24 246.24,-170.98"/>
<polyline fill="none" stroke="black" points="359.75,-119.75 354.77,-120.15"/>
<polygon fill="black" stroke="black" points="353.37,-115.24 354.17,-125.21 352.17,-125.37 351.38,-115.4 353.37,-115.24"/>
<polyline fill="none" stroke="black" points="354.77,-120.15 349.78,-120.55"/>
<polygon fill="black" stroke="black" points="348.39,-115.64 349.18,-125.61 347.19,-125.77 346.39,-115.8 348.39,-115.64"/>
<polyline fill="none" stroke="black" points="349.78,-120.55 344.8,-120.94"/>
</g>
<!-- gdm.distribution.equipment.matrix_impedance_fuse_equipment.MatrixImpedanceFuseEquipment&#45;&gt;gdm.distribution.common.limitset.ThermalLimitSet -->
<g id="edge2" class="edge">
<title>gdm.distribution.equipment.matrix_impedance_fuse_equipment.MatrixImpedanceFuseEquipment:e&#45;&gt;gdm.distribution.common.limitset.ThermalLimitSet:w</title>
<path fill="none" stroke="black" d="M246.22,-217.16C283.83,-222.36 292.43,-256.72 325.7,-266.28"/>
<polyline fill="none" stroke="black" points="236.25,-216.5 241.24,-216.83"/>
<polyline fill="none" stroke="black" points="241.24,-216.83 246.23,-217.16"/>
<polyline fill="none" stroke="black" points="344.25,-268.75 339.29,-268.09"/>
<polygon fill="black" stroke="black" points="338.96,-263 337.64,-272.92 335.66,-272.65 336.98,-262.74 338.96,-263"/>
<polyline fill="none" stroke="black" points="339.29,-268.09 334.34,-267.43"/>
<ellipse fill="none" stroke="black" cx="329.88" cy="-266.84" rx="4" ry="4"/>
</g>
</g>
</svg>
