<?xml version="1.0" encoding="UTF-8" standalone="no"?>
<!DOCTYPE svg PUBLIC "-//W3C//DTD SVG 1.1//EN"
 "http://www.w3.org/Graphics/SVG/1.1/DTD/svg11.dtd">
<!-- Generated by graphviz version 12.2.1 (20241206.2353)
 -->
<!-- Title: Entity Relationship Diagram created by erdantic Pages: 1 -->
<svg width="1144pt" height="903pt"
 viewBox="0.00 0.00 1143.50 902.75" xmlns="http://www.w3.org/2000/svg" xmlns:xlink="http://www.w3.org/1999/xlink">
<g id="graph0" class="graph" transform="scale(1 1) rotate(0) translate(4 898.75)">
<title>Entity Relationship Diagram created by erdantic</title>
<polygon fill="white" stroke="none" points="-4,4 -4,-898.75 1139.5,-898.75 1139.5,4 -4,4"/>
<text text-anchor="middle" x="567.75" y="-5.95" font-family="Times New Roman,Times,Liberation Serif,serif" font-size="9.00" fill="#a8a8a8">Created by erdantic v1.0.5 &lt;https://github.com/drivendataorg/erdantic&gt;</text>
<!-- gdm.distribution.common.curve.TimeCurrentCurve -->
<g id="node1" class="node">
<title>gdm.distribution.common.curve.TimeCurrentCurve</title>
<g id="a_node1"><a xlink:title="gdm.distribution.common.curve.TimeCurrentCurve&#10;&#10;An interface for time current curve.&#10;">
<polygon fill="none" stroke="black" points="762,-108.5 762,-131 882,-131 882,-108.5 762,-108.5"/>
<text text-anchor="start" x="765" y="-115.7" font-family="Times New Roman,Times,Liberation Serif,serif" font-weight="bold" font-size="14.00">TimeCurrentCurve</text>
<polygon fill="none" stroke="black" points="762,-86 762,-108.5 823.12,-108.5 823.12,-86 762,-86"/>
<text text-anchor="start" x="780.56" y="-92.2" font-family="Times New Roman,Times,Liberation Serif,serif" font-size="14.00">uuid</text>
<polygon fill="none" stroke="black" points="823.12,-86 823.12,-108.5 882,-108.5 882,-86 823.12,-86"/>
<text text-anchor="start" x="835.69" y="-92.2" font-family="Times New Roman,Times,Liberation Serif,serif" font-size="14.00">UUID</text>
<polygon fill="none" stroke="black" points="762,-63.5 762,-86 823.12,-86 823.12,-63.5 762,-63.5"/>
<text text-anchor="start" x="777.56" y="-69.7" font-family="Times New Roman,Times,Liberation Serif,serif" font-size="14.00">name</text>
<polygon fill="none" stroke="black" points="823.12,-63.5 823.12,-86 882,-86 882,-63.5 823.12,-63.5"/>
<text text-anchor="start" x="845.81" y="-69.7" font-family="Times New Roman,Times,Liberation Serif,serif" font-size="14.00">str</text>
<polygon fill="none" stroke="black" points="762,-41 762,-63.5 823.12,-63.5 823.12,-41 762,-41"/>
<text text-anchor="start" x="770.81" y="-47.2" font-family="Times New Roman,Times,Liberation Serif,serif" font-size="14.00">curve_x</text>
<polygon fill="none" stroke="black" points="823.12,-41 823.12,-63.5 882,-63.5 882,-41 823.12,-41"/>
<text text-anchor="start" x="831.94" y="-47.2" font-family="Times New Roman,Times,Liberation Serif,serif" font-size="14.00">Current</text>
<polygon fill="none" stroke="black" points="762,-18.5 762,-41 823.12,-41 823.12,-18.5 762,-18.5"/>
<text text-anchor="start" x="770.81" y="-24.7" font-family="Times New Roman,Times,Liberation Serif,serif" font-size="14.00">curve_y</text>
<polygon fill="none" stroke="black" points="823.12,-18.5 823.12,-41 882,-41 882,-18.5 823.12,-18.5"/>
<text text-anchor="start" x="837.94" y="-24.7" font-family="Times New Roman,Times,Liberation Serif,serif" font-size="14.00">Time</text>
</a>
</g>
</g>
<!-- gdm.distribution.common.limitset.ThermalLimitSet -->
<g id="node2" class="node">
<title>gdm.distribution.common.limitset.ThermalLimitSet</title>
<g id="a_node2"><a xlink:title="gdm.distribution.common.limitset.ThermalLimitSet&#10;&#10;Interface for voltage limit set.&#10;">
<polygon fill="none" stroke="black" points="745.5,-257.5 745.5,-280 898.5,-280 898.5,-257.5 745.5,-257.5"/>
<text text-anchor="start" x="771" y="-264.7" font-family="Times New Roman,Times,Liberation Serif,serif" font-weight="bold" font-size="14.00">ThermalLimitSet</text>
<polygon fill="none" stroke="black" points="745.5,-235 745.5,-257.5 807.75,-257.5 807.75,-235 745.5,-235"/>
<text text-anchor="start" x="764.62" y="-241.2" font-family="Times New Roman,Times,Liberation Serif,serif" font-size="14.00">uuid</text>
<polygon fill="none" stroke="black" points="807.75,-235 807.75,-257.5 898.5,-257.5 898.5,-235 807.75,-235"/>
<text text-anchor="start" x="836.25" y="-241.2" font-family="Times New Roman,Times,Liberation Serif,serif" font-size="14.00">UUID</text>
<polygon fill="none" stroke="black" points="745.5,-212.5 745.5,-235 807.75,-235 807.75,-212.5 745.5,-212.5"/>
<text text-anchor="start" x="761.62" y="-218.7" font-family="Times New Roman,Times,Liberation Serif,serif" font-size="14.00">name</text>
<polygon fill="none" stroke="black" points="807.75,-212.5 807.75,-235 898.5,-235 898.5,-212.5 807.75,-212.5"/>
<text text-anchor="start" x="846.38" y="-218.7" font-family="Times New Roman,Times,Liberation Serif,serif" font-size="14.00">str</text>
<polygon fill="none" stroke="black" points="745.5,-190 745.5,-212.5 807.75,-212.5 807.75,-190 745.5,-190"/>
<text text-anchor="start" x="748.5" y="-196.2" font-family="Times New Roman,Times,Liberation Serif,serif" font-size="14.00">limit_type</text>
<polygon fill="none" stroke="black" points="807.75,-190 807.75,-212.5 898.5,-212.5 898.5,-190 807.75,-190"/>
<text text-anchor="start" x="823.88" y="-196.2" font-family="Times New Roman,Times,Liberation Serif,serif" font-size="14.00">LimitType</text>
<polygon fill="none" stroke="black" points="745.5,-167.5 745.5,-190 807.75,-190 807.75,-167.5 745.5,-167.5"/>
<text text-anchor="start" x="762" y="-173.7" font-family="Times New Roman,Times,Liberation Serif,serif" font-size="14.00">value</text>
<polygon fill="none" stroke="black" points="807.75,-167.5 807.75,-190 898.5,-190 898.5,-167.5 807.75,-167.5"/>
<text text-anchor="start" x="810.75" y="-173.7" font-family="Times New Roman,Times,Liberation Serif,serif" font-size="14.00">PositiveCurrent</text>
</a>
</g>
</g>
<!-- gdm.distribution.common.limitset.VoltageLimitSet -->
<g id="node3" class="node">
<title>gdm.distribution.common.limitset.VoltageLimitSet</title>
<g id="a_node3"><a xlink:title="gdm.distribution.common.limitset.VoltageLimitSet&#10;&#10;Interface for voltage limit set.&#10;">
<polygon fill="none" stroke="black" points="745.5,-589.5 745.5,-612 898.5,-612 898.5,-589.5 745.5,-589.5"/>
<text text-anchor="start" x="774.75" y="-596.7" font-family="Times New Roman,Times,Liberation Serif,serif" font-weight="bold" font-size="14.00">VoltageLimitSet</text>
<polygon fill="none" stroke="black" points="745.5,-567 745.5,-589.5 807.75,-589.5 807.75,-567 745.5,-567"/>
<text text-anchor="start" x="764.62" y="-573.2" font-family="Times New Roman,Times,Liberation Serif,serif" font-size="14.00">uuid</text>
<polygon fill="none" stroke="black" points="807.75,-567 807.75,-589.5 898.5,-589.5 898.5,-567 807.75,-567"/>
<text text-anchor="start" x="836.25" y="-573.2" font-family="Times New Roman,Times,Liberation Serif,serif" font-size="14.00">UUID</text>
<polygon fill="none" stroke="black" points="745.5,-544.5 745.5,-567 807.75,-567 807.75,-544.5 745.5,-544.5"/>
<text text-anchor="start" x="761.62" y="-550.7" font-family="Times New Roman,Times,Liberation Serif,serif" font-size="14.00">name</text>
<polygon fill="none" stroke="black" points="807.75,-544.5 807.75,-567 898.5,-567 898.5,-544.5 807.75,-544.5"/>
<text text-anchor="start" x="846.38" y="-550.7" font-family="Times New Roman,Times,Liberation Serif,serif" font-size="14.00">str</text>
<polygon fill="none" stroke="black" points="745.5,-522 745.5,-544.5 807.75,-544.5 807.75,-522 745.5,-522"/>
<text text-anchor="start" x="748.5" y="-528.2" font-family="Times New Roman,Times,Liberation Serif,serif" font-size="14.00">limit_type</text>
<polygon fill="none" stroke="black" points="807.75,-522 807.75,-544.5 898.5,-544.5 898.5,-522 807.75,-522"/>
<text text-anchor="start" x="823.88" y="-528.2" font-family="Times New Roman,Times,Liberation Serif,serif" font-size="14.00">LimitType</text>
<polygon fill="none" stroke="black" points="745.5,-499.5 745.5,-522 807.75,-522 807.75,-499.5 745.5,-499.5"/>
<text text-anchor="start" x="762" y="-505.7" font-family="Times New Roman,Times,Liberation Serif,serif" font-size="14.00">value</text>
<polygon fill="none" stroke="black" points="807.75,-499.5 807.75,-522 898.5,-522 898.5,-499.5 807.75,-499.5"/>
<text text-anchor="start" x="810.75" y="-505.7" font-family="Times New Roman,Times,Liberation Serif,serif" font-size="14.00">PositiveVoltage</text>
</a>
</g>
</g>
<!-- gdm.distribution.components.distribution_bus.DistributionBus -->
<g id="node4" class="node">
<title>gdm.distribution.components.distribution_bus.DistributionBus</title>
<g id="a_node4"><a xlink:title="gdm.distribution.components.distribution_bus.DistributionBus&#10;&#10;Interface for distribution bus.&#10;&#10;Examples:&#10; &#160;&#160;&#160;&gt;&gt;&gt; from gdm import DistributionBus&#10; &#160;&#160;&#160;&gt;&gt;&gt; DistributionBus.example()&#10;">
<polygon fill="none" stroke="black" points="360.75,-671.75 360.75,-694.25 624.75,-694.25 624.75,-671.75 360.75,-671.75"/>
<text text-anchor="start" x="446.62" y="-678.95" font-family="Times New Roman,Times,Liberation Serif,serif" font-weight="bold" font-size="14.00">DistributionBus</text>
<polygon fill="none" stroke="black" points="360.75,-649.25 360.75,-671.75 440.25,-671.75 440.25,-649.25 360.75,-649.25"/>
<text text-anchor="start" x="388.5" y="-655.45" font-family="Times New Roman,Times,Liberation Serif,serif" font-size="14.00">uuid</text>
<polygon fill="none" stroke="black" points="440.25,-649.25 440.25,-671.75 624.75,-671.75 624.75,-649.25 440.25,-649.25"/>
<text text-anchor="start" x="515.62" y="-655.45" font-family="Times New Roman,Times,Liberation Serif,serif" font-size="14.00">UUID</text>
<polygon fill="none" stroke="black" points="360.75,-626.75 360.75,-649.25 440.25,-649.25 440.25,-626.75 360.75,-626.75"/>
<text text-anchor="start" x="385.5" y="-632.95" font-family="Times New Roman,Times,Liberation Serif,serif" font-size="14.00">name</text>
<polygon fill="none" stroke="black" points="440.25,-626.75 440.25,-649.25 624.75,-649.25 624.75,-626.75 440.25,-626.75"/>
<text text-anchor="start" x="525.75" y="-632.95" font-family="Times New Roman,Times,Liberation Serif,serif" font-size="14.00">str</text>
<polygon fill="none" stroke="black" points="360.75,-604.25 360.75,-626.75 440.25,-626.75 440.25,-604.25 360.75,-604.25"/>
<text text-anchor="start" x="373.12" y="-610.45" font-family="Times New Roman,Times,Liberation Serif,serif" font-size="14.00">substation</text>
<polygon fill="none" stroke="black" points="440.25,-604.25 440.25,-626.75 624.75,-626.75 624.75,-604.25 440.25,-604.25"/>
<text text-anchor="start" x="443.25" y="-610.45" font-family="Times New Roman,Times,Liberation Serif,serif" font-size="14.00">Optional[DistributionSubstation]</text>
<polygon fill="none" stroke="black" points="360.75,-581.75 360.75,-604.25 440.25,-604.25 440.25,-581.75 360.75,-581.75"/>
<text text-anchor="start" x="383.62" y="-587.95" font-family="Times New Roman,Times,Liberation Serif,serif" font-size="14.00">feeder</text>
<polygon fill="none" stroke="black" points="440.25,-581.75 440.25,-604.25 624.75,-604.25 624.75,-581.75 440.25,-581.75"/>
<text text-anchor="start" x="453.38" y="-587.95" font-family="Times New Roman,Times,Liberation Serif,serif" font-size="14.00">Optional[DistributionFeeder]</text>
<polygon fill="none" stroke="black" points="360.75,-559.25 360.75,-581.75 440.25,-581.75 440.25,-559.25 360.75,-559.25"/>
<text text-anchor="start" x="365.62" y="-565.45" font-family="Times New Roman,Times,Liberation Serif,serif" font-size="14.00">voltage_type</text>
<polygon fill="none" stroke="black" points="440.25,-559.25 440.25,-581.75 624.75,-581.75 624.75,-559.25 440.25,-559.25"/>
<text text-anchor="start" x="495.38" y="-565.45" font-family="Times New Roman,Times,Liberation Serif,serif" font-size="14.00">VoltageTypes</text>
<polygon fill="none" stroke="black" points="360.75,-536.75 360.75,-559.25 440.25,-559.25 440.25,-536.75 360.75,-536.75"/>
<text text-anchor="start" x="382.5" y="-542.95" font-family="Times New Roman,Times,Liberation Serif,serif" font-size="14.00">phases</text>
<polygon fill="none" stroke="black" points="440.25,-536.75 440.25,-559.25 624.75,-559.25 624.75,-536.75 440.25,-536.75"/>
<text text-anchor="start" x="504" y="-542.95" font-family="Times New Roman,Times,Liberation Serif,serif" font-size="14.00">list[Phase]</text>
<polygon fill="none" stroke="black" points="360.75,-514.25 360.75,-536.75 440.25,-536.75 440.25,-514.25 360.75,-514.25"/>
<text text-anchor="start" x="364.88" y="-520.45" font-family="Times New Roman,Times,Liberation Serif,serif" font-size="14.00">voltagelimits</text>
<polygon fill="none" stroke="black" points="440.25,-514.25 440.25,-536.75 624.75,-536.75 624.75,-514.25 440.25,-514.25"/>
<text text-anchor="start" x="475.12" y="-520.45" font-family="Times New Roman,Times,Liberation Serif,serif" font-size="14.00">list[VoltageLimitSet]</text>
<polygon fill="none" stroke="black" points="360.75,-491.75 360.75,-514.25 440.25,-514.25 440.25,-491.75 360.75,-491.75"/>
<text text-anchor="start" x="363.75" y="-497.95" font-family="Times New Roman,Times,Liberation Serif,serif" font-size="14.00">rated_voltage</text>
<polygon fill="none" stroke="black" points="440.25,-491.75 440.25,-514.25 624.75,-514.25 624.75,-491.75 440.25,-491.75"/>
<text text-anchor="start" x="490.12" y="-497.95" font-family="Times New Roman,Times,Liberation Serif,serif" font-size="14.00">PositiveVoltage</text>
<polygon fill="none" stroke="black" points="360.75,-469.25 360.75,-491.75 440.25,-491.75 440.25,-469.25 360.75,-469.25"/>
<text text-anchor="start" x="372" y="-475.45" font-family="Times New Roman,Times,Liberation Serif,serif" font-size="14.00">coordinate</text>
<polygon fill="none" stroke="black" points="440.25,-469.25 440.25,-491.75 624.75,-491.75 624.75,-469.25 440.25,-469.25"/>
<text text-anchor="start" x="480.38" y="-475.45" font-family="Times New Roman,Times,Liberation Serif,serif" font-size="14.00">Optional[Location]</text>
</a>
</g>
</g>
<!-- gdm.distribution.components.distribution_bus.DistributionBus&#45;&gt;gdm.distribution.common.limitset.VoltageLimitSet -->
<g id="edge1" class="edge">
<title>gdm.distribution.components.distribution_bus.DistributionBus:e&#45;&gt;gdm.distribution.common.limitset.VoltageLimitSet:w</title>
<path fill="none" stroke="black" d="M634.47,-526.15C682.22,-532.82 684.99,-588.67 729.31,-599.08"/>
<polyline fill="none" stroke="black" points="624.75,-525.5 629.74,-525.83"/>
<polyline fill="none" stroke="black" points="629.74,-525.83 634.73,-526.17"/>
<polygon fill="black" stroke="black" points="734.23,-599.62 743.68,-605.19 739.53,-600.2 743.84,-600.68 743.84,-600.68 743.84,-600.68 739.53,-600.2 744.66,-596.24 734.23,-599.62"/>
<polyline fill="none" stroke="black" points="733.02,-599.49 728.05,-598.94"/>
</g>
<!-- gdm.distribution.components.distribution_feeder.DistributionFeeder -->
<g id="node5" class="node">
<title>gdm.distribution.components.distribution_feeder.DistributionFeeder</title>
<g id="a_node5"><a xlink:title="gdm.distribution.components.distribution_feeder.DistributionFeeder&#10;&#10;Class interface for distribution feeder.&#10;">
<polygon fill="none" stroke="black" points="1019.25,-739 1019.25,-761.5 1135.5,-761.5 1135.5,-739 1019.25,-739"/>
<text text-anchor="start" x="1022.25" y="-746.2" font-family="Times New Roman,Times,Liberation Serif,serif" font-weight="bold" font-size="14.00">DistributionFeeder</text>
<polygon fill="none" stroke="black" points="1019.25,-716.5 1019.25,-739 1075.5,-739 1075.5,-716.5 1019.25,-716.5"/>
<text text-anchor="start" x="1035.38" y="-722.7" font-family="Times New Roman,Times,Liberation Serif,serif" font-size="14.00">uuid</text>
<polygon fill="none" stroke="black" points="1075.5,-716.5 1075.5,-739 1135.5,-739 1135.5,-716.5 1075.5,-716.5"/>
<text text-anchor="start" x="1088.62" y="-722.7" font-family="Times New Roman,Times,Liberation Serif,serif" font-size="14.00">UUID</text>
<polygon fill="none" stroke="black" points="1019.25,-694 1019.25,-716.5 1075.5,-716.5 1075.5,-694 1019.25,-694"/>
<text text-anchor="start" x="1032.38" y="-700.2" font-family="Times New Roman,Times,Liberation Serif,serif" font-size="14.00">name</text>
<polygon fill="none" stroke="black" points="1075.5,-694 1075.5,-716.5 1135.5,-716.5 1135.5,-694 1075.5,-694"/>
<text text-anchor="start" x="1098.75" y="-700.2" font-family="Times New Roman,Times,Liberation Serif,serif" font-size="14.00">str</text>
</a>
</g>
</g>
<!-- gdm.distribution.components.distribution_bus.DistributionBus&#45;&gt;gdm.distribution.components.distribution_feeder.DistributionFeeder -->
<g id="edge2" class="edge">
<title>gdm.distribution.components.distribution_bus.DistributionBus:e&#45;&gt;gdm.distribution.components.distribution_feeder.DistributionFeeder:w</title>
<path fill="none" stroke="black" d="M634.25,-594.27C696.45,-607.75 925.4,-724.9 1001.05,-746.75"/>
<polyline fill="none" stroke="black" points="624.75,-593 629.71,-593.66"/>
<polyline fill="none" stroke="black" points="629.71,-593.66 634.66,-594.32"/>
<polyline fill="none" stroke="black" points="1019.25,-750.25 1014.34,-749.31"/>
<polygon fill="black" stroke="black" points="1014.3,-744.21 1012.41,-754.03 1010.45,-753.65 1012.34,-743.83 1014.3,-744.21"/>
<polyline fill="none" stroke="black" points="1014.34,-749.31 1009.43,-748.36"/>
<ellipse fill="none" stroke="black" cx="1005.01" cy="-747.51" rx="4" ry="4"/>
</g>
<!-- gdm.distribution.components.distribution_substation.DistributionSubstation -->
<g id="node6" class="node">
<title>gdm.distribution.components.distribution_substation.DistributionSubstation</title>
<g id="a_node6"><a xlink:title="gdm.distribution.components.distribution_substation.DistributionSubstation&#10;&#10;Class interface for distribution feeder.&#10;">
<polygon fill="none" stroke="black" points="732.75,-872.25 732.75,-894.75 911.25,-894.75 911.25,-872.25 732.75,-872.25"/>
<text text-anchor="start" x="756" y="-879.45" font-family="Times New Roman,Times,Liberation Serif,serif" font-weight="bold" font-size="14.00">DistributionSubstation</text>
<polygon fill="none" stroke="black" points="732.75,-849.75 732.75,-872.25 777.75,-872.25 777.75,-849.75 732.75,-849.75"/>
<text text-anchor="start" x="743.25" y="-855.95" font-family="Times New Roman,Times,Liberation Serif,serif" font-size="14.00">uuid</text>
<polygon fill="none" stroke="black" points="777.75,-849.75 777.75,-872.25 911.25,-872.25 911.25,-849.75 777.75,-849.75"/>
<text text-anchor="start" x="827.62" y="-855.95" font-family="Times New Roman,Times,Liberation Serif,serif" font-size="14.00">UUID</text>
<polygon fill="none" stroke="black" points="732.75,-827.25 732.75,-849.75 777.75,-849.75 777.75,-827.25 732.75,-827.25"/>
<text text-anchor="start" x="740.25" y="-833.45" font-family="Times New Roman,Times,Liberation Serif,serif" font-size="14.00">name</text>
<polygon fill="none" stroke="black" points="777.75,-827.25 777.75,-849.75 911.25,-849.75 911.25,-827.25 777.75,-827.25"/>
<text text-anchor="start" x="837.75" y="-833.45" font-family="Times New Roman,Times,Liberation Serif,serif" font-size="14.00">str</text>
<polygon fill="none" stroke="black" points="732.75,-804.75 732.75,-827.25 777.75,-827.25 777.75,-804.75 732.75,-804.75"/>
<text text-anchor="start" x="735.75" y="-810.95" font-family="Times New Roman,Times,Liberation Serif,serif" font-size="14.00">feeders</text>
<polygon fill="none" stroke="black" points="777.75,-804.75 777.75,-827.25 911.25,-827.25 911.25,-804.75 777.75,-804.75"/>
<text text-anchor="start" x="780.75" y="-810.95" font-family="Times New Roman,Times,Liberation Serif,serif" font-size="14.00">list[DistributionFeeder]</text>
</a>
</g>
</g>
<!-- gdm.distribution.components.distribution_bus.DistributionBus&#45;&gt;gdm.distribution.components.distribution_substation.DistributionSubstation -->
<g id="edge3" class="edge">
<title>gdm.distribution.components.distribution_bus.DistributionBus:e&#45;&gt;gdm.distribution.components.distribution_substation.DistributionSubstation:w</title>
<path fill="none" stroke="black" d="M634.67,-616.09C738.97,-629.17 622.61,-855.55 713.96,-881.15"/>
<polyline fill="none" stroke="black" points="624.75,-615.5 629.74,-615.8"/>
<polyline fill="none" stroke="black" points="629.74,-615.8 634.73,-616.09"/>
<polyline fill="none" stroke="black" points="732.75,-883.5 727.79,-882.88"/>
<polygon fill="black" stroke="black" points="727.42,-877.79 726.18,-887.72 724.19,-887.47 725.43,-877.55 727.42,-877.79"/>
<polyline fill="none" stroke="black" points="727.79,-882.88 722.83,-882.26"/>
<ellipse fill="none" stroke="black" cx="718.36" cy="-881.7" rx="4" ry="4"/>
</g>
<!-- infrasys.location.Location -->
<g id="node7" class="node">
<title>infrasys.location.Location</title>
<g id="a_node7"><a xlink:title="infrasys.location.Location&#10;&#10;Specifies geographic location.&#10;">
<polygon fill="none" stroke="black" points="774.38,-440.75 774.38,-463.25 869.62,-463.25 869.62,-440.75 774.38,-440.75"/>
<text text-anchor="start" x="796.5" y="-447.95" font-family="Times New Roman,Times,Liberation Serif,serif" font-weight="bold" font-size="14.00">Location</text>
<polygon fill="none" stroke="black" points="774.38,-418.25 774.38,-440.75 810.38,-440.75 810.38,-418.25 774.38,-418.25"/>
<text text-anchor="start" x="780.38" y="-424.45" font-family="Times New Roman,Times,Liberation Serif,serif" font-size="14.00">uuid</text>
<polygon fill="none" stroke="black" points="810.38,-418.25 810.38,-440.75 869.62,-440.75 869.62,-418.25 810.38,-418.25"/>
<text text-anchor="start" x="823.12" y="-424.45" font-family="Times New Roman,Times,Liberation Serif,serif" font-size="14.00">UUID</text>
<polygon fill="none" stroke="black" points="774.38,-395.75 774.38,-418.25 810.38,-418.25 810.38,-395.75 774.38,-395.75"/>
<text text-anchor="start" x="777.38" y="-401.95" font-family="Times New Roman,Times,Liberation Serif,serif" font-size="14.00">name</text>
<polygon fill="none" stroke="black" points="810.38,-395.75 810.38,-418.25 869.62,-418.25 869.62,-395.75 810.38,-395.75"/>
<text text-anchor="start" x="833.25" y="-401.95" font-family="Times New Roman,Times,Liberation Serif,serif" font-size="14.00">str</text>
<polygon fill="none" stroke="black" points="774.38,-373.25 774.38,-395.75 810.38,-395.75 810.38,-373.25 774.38,-373.25"/>
<text text-anchor="start" x="789" y="-379.45" font-family="Times New Roman,Times,Liberation Serif,serif" font-size="14.00">x</text>
<polygon fill="none" stroke="black" points="810.38,-373.25 810.38,-395.75 869.62,-395.75 869.62,-373.25 810.38,-373.25"/>
<text text-anchor="start" x="827.62" y="-379.45" font-family="Times New Roman,Times,Liberation Serif,serif" font-size="14.00">float</text>
<polygon fill="none" stroke="black" points="774.38,-350.75 774.38,-373.25 810.38,-373.25 810.38,-350.75 774.38,-350.75"/>
<text text-anchor="start" x="789" y="-356.95" font-family="Times New Roman,Times,Liberation Serif,serif" font-size="14.00">y</text>
<polygon fill="none" stroke="black" points="810.38,-350.75 810.38,-373.25 869.62,-373.25 869.62,-350.75 810.38,-350.75"/>
<text text-anchor="start" x="827.62" y="-356.95" font-family="Times New Roman,Times,Liberation Serif,serif" font-size="14.00">float</text>
<polygon fill="none" stroke="black" points="774.38,-328.25 774.38,-350.75 810.38,-350.75 810.38,-328.25 774.38,-328.25"/>
<text text-anchor="start" x="784.5" y="-334.45" font-family="Times New Roman,Times,Liberation Serif,serif" font-size="14.00">crs</text>
<polygon fill="none" stroke="black" points="810.38,-328.25 810.38,-350.75 869.62,-350.75 869.62,-328.25 810.38,-328.25"/>
<text text-anchor="start" x="813.38" y="-334.45" font-family="Times New Roman,Times,Liberation Serif,serif" font-size="14.00">str | None</text>
</a>
</g>
</g>
<!-- gdm.distribution.components.distribution_bus.DistributionBus&#45;&gt;infrasys.location.Location -->
<g id="edge4" class="edge">
<title>gdm.distribution.components.distribution_bus.DistributionBus:e&#45;&gt;infrasys.location.Location:w</title>
<path fill="none" stroke="black" d="M634.6,-480.29C687.36,-477.95 705.69,-457.16 754.67,-452.8"/>
<polyline fill="none" stroke="black" points="624.75,-480.5 629.75,-480.39"/>
<polyline fill="none" stroke="black" points="629.75,-480.39 634.75,-480.28"/>
<polyline fill="none" stroke="black" points="773.38,-452 768.38,-452.21"/>
<polygon fill="black" stroke="black" points="767.17,-447.26 767.59,-457.25 765.6,-457.34 765.17,-447.35 767.17,-447.26"/>
<polyline fill="none" stroke="black" points="768.38,-452.21 763.38,-452.43"/>
<ellipse fill="none" stroke="black" cx="758.89" cy="-452.62" rx="4" ry="4"/>
</g>
<!-- gdm.distribution.components.distribution_substation.DistributionSubstation&#45;&gt;gdm.distribution.components.distribution_feeder.DistributionFeeder -->
<g id="edge5" class="edge">
<title>gdm.distribution.components.distribution_substation.DistributionSubstation:e&#45;&gt;gdm.distribution.components.distribution_feeder.DistributionFeeder:w</title>
<path fill="none" stroke="black" d="M921.11,-815.26C962.19,-808.81 966.15,-762.08 1003.99,-752.12"/>
<polyline fill="none" stroke="black" points="911.25,-816 916.24,-815.63"/>
<polyline fill="none" stroke="black" points="916.24,-815.63 921.22,-815.25"/>
<polygon fill="black" stroke="black" points="1008.99,-751.5 1019.46,-754.76 1014.29,-750.86 1018.59,-750.33 1018.59,-750.33 1018.59,-750.33 1014.29,-750.86 1018.37,-745.82 1008.99,-751.5"/>
<polyline fill="none" stroke="black" points="1007.78,-751.65 1002.82,-752.26"/>
</g>
<!-- gdm.distribution.components.matrix_impedance_fuse.MatrixImpedanceFuse -->
<g id="node8" class="node">
<title>gdm.distribution.components.matrix_impedance_fuse.MatrixImpedanceFuse</title>
<g id="a_node8"><a xlink:title="gdm.distribution.components.matrix_impedance_fuse.MatrixImpedanceFuse&#10;&#10;Interface for distribution fuse.&#10;">
<polygon fill="none" stroke="black" points="0,-817 0,-839.5 252.75,-839.5 252.75,-817 0,-817"/>
<text text-anchor="start" x="60" y="-824.2" font-family="Times New Roman,Times,Liberation Serif,serif" font-weight="bold" font-size="14.00">MatrixImpedanceFuse</text>
<polygon fill="none" stroke="black" points="0,-794.5 0,-817 63.75,-817 63.75,-794.5 0,-794.5"/>
<text text-anchor="start" x="19.88" y="-800.7" font-family="Times New Roman,Times,Liberation Serif,serif" font-size="14.00">uuid</text>
<polygon fill="none" stroke="black" points="63.75,-794.5 63.75,-817 252.75,-817 252.75,-794.5 63.75,-794.5"/>
<text text-anchor="start" x="141.38" y="-800.7" font-family="Times New Roman,Times,Liberation Serif,serif" font-size="14.00">UUID</text>
<polygon fill="none" stroke="black" points="0,-772 0,-794.5 63.75,-794.5 63.75,-772 0,-772"/>
<text text-anchor="start" x="16.88" y="-778.2" font-family="Times New Roman,Times,Liberation Serif,serif" font-size="14.00">name</text>
<polygon fill="none" stroke="black" points="63.75,-772 63.75,-794.5 252.75,-794.5 252.75,-772 63.75,-772"/>
<text text-anchor="start" x="151.5" y="-778.2" font-family="Times New Roman,Times,Liberation Serif,serif" font-size="14.00">str</text>
<polygon fill="none" stroke="black" points="0,-749.5 0,-772 63.75,-772 63.75,-749.5 0,-749.5"/>
<text text-anchor="start" x="4.5" y="-755.7" font-family="Times New Roman,Times,Liberation Serif,serif" font-size="14.00">substation</text>
<polygon fill="none" stroke="black" points="63.75,-749.5 63.75,-772 252.75,-772 252.75,-749.5 63.75,-749.5"/>
<text text-anchor="start" x="69" y="-755.7" font-family="Times New Roman,Times,Liberation Serif,serif" font-size="14.00">Optional[DistributionSubstation]</text>
<polygon fill="none" stroke="black" points="0,-727 0,-749.5 63.75,-749.5 63.75,-727 0,-727"/>
<text text-anchor="start" x="15" y="-733.2" font-family="Times New Roman,Times,Liberation Serif,serif" font-size="14.00">feeder</text>
<polygon fill="none" stroke="black" points="63.75,-727 63.75,-749.5 252.75,-749.5 252.75,-727 63.75,-727"/>
<text text-anchor="start" x="79.12" y="-733.2" font-family="Times New Roman,Times,Liberation Serif,serif" font-size="14.00">Optional[DistributionFeeder]</text>
<polygon fill="none" stroke="black" points="0,-704.5 0,-727 63.75,-727 63.75,-704.5 0,-704.5"/>
<text text-anchor="start" x="4.12" y="-710.7" font-family="Times New Roman,Times,Liberation Serif,serif" font-size="14.00">in_service</text>
<polygon fill="none" stroke="black" points="63.75,-704.5 63.75,-727 252.75,-727 252.75,-704.5 63.75,-704.5"/>
<text text-anchor="start" x="146.25" y="-710.7" font-family="Times New Roman,Times,Liberation Serif,serif" font-size="14.00">bool</text>
<polygon fill="none" stroke="black" points="0,-682 0,-704.5 63.75,-704.5 63.75,-682 0,-682"/>
<text text-anchor="start" x="16.88" y="-688.2" font-family="Times New Roman,Times,Liberation Serif,serif" font-size="14.00">buses</text>
<polygon fill="none" stroke="black" points="63.75,-682 63.75,-704.5 252.75,-704.5 252.75,-682 63.75,-682"/>
<text text-anchor="start" x="102.38" y="-688.2" font-family="Times New Roman,Times,Liberation Serif,serif" font-size="14.00">list[DistributionBus]</text>
<polygon fill="none" stroke="black" points="0,-659.5 0,-682 63.75,-682 63.75,-659.5 0,-659.5"/>
<text text-anchor="start" x="15" y="-665.7" font-family="Times New Roman,Times,Liberation Serif,serif" font-size="14.00">length</text>
<polygon fill="none" stroke="black" points="63.75,-659.5 63.75,-682 252.75,-682 252.75,-659.5 63.75,-659.5"/>
<text text-anchor="start" x="112.88" y="-665.7" font-family="Times New Roman,Times,Liberation Serif,serif" font-size="14.00">PositiveDistance</text>
<polygon fill="none" stroke="black" points="0,-637 0,-659.5 63.75,-659.5 63.75,-637 0,-637"/>
<text text-anchor="start" x="13.88" y="-643.2" font-family="Times New Roman,Times,Liberation Serif,serif" font-size="14.00">phases</text>
<polygon fill="none" stroke="black" points="63.75,-637 63.75,-659.5 252.75,-659.5 252.75,-637 63.75,-637"/>
<text text-anchor="start" x="129.75" y="-643.2" font-family="Times New Roman,Times,Liberation Serif,serif" font-size="14.00">list[Phase]</text>
<polygon fill="none" stroke="black" points="0,-614.5 0,-637 63.75,-637 63.75,-614.5 0,-614.5"/>
<text text-anchor="start" x="6.75" y="-620.7" font-family="Times New Roman,Times,Liberation Serif,serif" font-size="14.00">is_closed</text>
<polygon fill="none" stroke="black" points="63.75,-614.5 63.75,-637 252.75,-637 252.75,-614.5 63.75,-614.5"/>
<text text-anchor="start" x="133.5" y="-620.7" font-family="Times New Roman,Times,Liberation Serif,serif" font-size="14.00">list[bool]</text>
<polygon fill="none" stroke="black" points="0,-592 0,-614.5 63.75,-614.5 63.75,-592 0,-592"/>
<text text-anchor="start" x="3" y="-598.2" font-family="Times New Roman,Times,Liberation Serif,serif" font-size="14.00">equipment</text>
<polygon fill="none" stroke="black" points="63.75,-592 63.75,-614.5 252.75,-614.5 252.75,-592 63.75,-592"/>
<text text-anchor="start" x="66.75" y="-598.2" font-family="Times New Roman,Times,Liberation Serif,serif" font-size="14.00">MatrixImpedanceFuseEquipment</text>
</a>
</g>
</g>
<!-- gdm.distribution.components.matrix_impedance_fuse.MatrixImpedanceFuse&#45;&gt;gdm.distribution.components.distribution_bus.DistributionBus -->
<g id="edge6" class="edge">
<title>gdm.distribution.components.matrix_impedance_fuse.MatrixImpedanceFuse:e&#45;&gt;gdm.distribution.components.distribution_bus.DistributionBus:w</title>
<path fill="none" stroke="black" d="M262.66,-693.1C297.81,-691.98 312.3,-685.09 345.34,-683.38"/>
<polyline fill="none" stroke="black" points="252.75,-693.25 257.75,-693.17"/>
<polyline fill="none" stroke="black" points="257.75,-693.17 262.75,-693.1"/>
<polygon fill="black" stroke="black" points="350.42,-683.26 360.53,-687.51 355.75,-683.12 360.08,-683.02 360.08,-683.02 360.08,-683.02 355.75,-683.12 360.3,-678.51 350.42,-683.26"/>
<polyline fill="none" stroke="black" points="349.2,-683.29 344.2,-683.41"/>
</g>
<!-- gdm.distribution.components.matrix_impedance_fuse.MatrixImpedanceFuse&#45;&gt;gdm.distribution.components.distribution_feeder.DistributionFeeder -->
<g id="edge7" class="edge">
<title>gdm.distribution.components.matrix_impedance_fuse.MatrixImpedanceFuse:e&#45;&gt;gdm.distribution.components.distribution_feeder.DistributionFeeder:w</title>
<path fill="none" stroke="black" d="M262.66,-738.25C588.98,-738.48 678.57,-749.82 1000.73,-750.24"/>
<polyline fill="none" stroke="black" points="252.75,-738.25 257.75,-738.25"/>
<polyline fill="none" stroke="black" points="257.75,-738.25 262.75,-738.25"/>
<polyline fill="none" stroke="black" points="1019.25,-750.25 1014.25,-750.25"/>
<polygon fill="black" stroke="black" points="1013.25,-745.25 1013.25,-755.25 1011.25,-755.24 1011.25,-745.24 1013.25,-745.25"/>
<polyline fill="none" stroke="black" points="1014.25,-750.25 1009.25,-750.24"/>
<ellipse fill="none" stroke="black" cx="1004.75" cy="-750.24" rx="4" ry="4"/>
</g>
<!-- gdm.distribution.components.matrix_impedance_fuse.MatrixImpedanceFuse&#45;&gt;gdm.distribution.components.distribution_substation.DistributionSubstation -->
<g id="edge8" class="edge">
<title>gdm.distribution.components.matrix_impedance_fuse.MatrixImpedanceFuse:e&#45;&gt;gdm.distribution.components.distribution_substation.DistributionSubstation:w</title>
<path fill="none" stroke="black" d="M262.46,-761.04C371.16,-767.25 599.01,-871.15 713.98,-882.5"/>
<polyline fill="none" stroke="black" points="252.75,-760.75 257.75,-760.9"/>
<polyline fill="none" stroke="black" points="257.75,-760.9 262.75,-761.05"/>
<polyline fill="none" stroke="black" points="732.75,-883.5 727.76,-883.23"/>
<polygon fill="black" stroke="black" points="727.03,-878.19 726.49,-888.17 724.49,-888.07 725.03,-878.08 727.03,-878.19"/>
<polyline fill="none" stroke="black" points="727.76,-883.23 722.76,-882.97"/>
<ellipse fill="none" stroke="black" cx="718.27" cy="-882.73" rx="4" ry="4"/>
</g>
<!-- gdm.distribution.equipment.matrix_impedance_fuse_equipment.MatrixImpedanceFuseEquipment -->
<g id="node9" class="node">
<title>gdm.distribution.equipment.matrix_impedance_fuse_equipment.MatrixImpedanceFuseEquipment</title>
<g id="a_node9"><a xlink:title="gdm.distribution.equipment.matrix_impedance_fuse_equipment.MatrixImpedanceFuseEquipment&#10;&#10;Interface for impedance based fuse equipment.&#10;">
<polygon fill="none" stroke="black" points="374.62,-410.75 374.62,-433.25 610.88,-433.25 610.88,-410.75 374.62,-410.75"/>
<text text-anchor="start" x="393.75" y="-417.95" font-family="Times New Roman,Times,Liberation Serif,serif" font-weight="bold" font-size="14.00">MatrixImpedanceFuseEquipment</text>
<polygon fill="none" stroke="black" points="374.62,-388.25 374.62,-410.75 454.12,-410.75 454.12,-388.25 374.62,-388.25"/>
<text text-anchor="start" x="402.38" y="-394.45" font-family="Times New Roman,Times,Liberation Serif,serif" font-size="14.00">uuid</text>
<polygon fill="none" stroke="black" points="454.12,-388.25 454.12,-410.75 610.88,-410.75 610.88,-388.25 454.12,-388.25"/>
<text text-anchor="start" x="515.62" y="-394.45" font-family="Times New Roman,Times,Liberation Serif,serif" font-size="14.00">UUID</text>
<polygon fill="none" stroke="black" points="374.62,-365.75 374.62,-388.25 454.12,-388.25 454.12,-365.75 374.62,-365.75"/>
<text text-anchor="start" x="399.38" y="-371.95" font-family="Times New Roman,Times,Liberation Serif,serif" font-size="14.00">name</text>
<polygon fill="none" stroke="black" points="454.12,-365.75 454.12,-388.25 610.88,-388.25 610.88,-365.75 454.12,-365.75"/>
<text text-anchor="start" x="525.75" y="-371.95" font-family="Times New Roman,Times,Liberation Serif,serif" font-size="14.00">str</text>
<polygon fill="none" stroke="black" points="374.62,-343.25 374.62,-365.75 454.12,-365.75 454.12,-343.25 374.62,-343.25"/>
<text text-anchor="start" x="390.75" y="-349.45" font-family="Times New Roman,Times,Liberation Serif,serif" font-size="14.00">r_matrix</text>
<polygon fill="none" stroke="black" points="454.12,-343.25 454.12,-365.75 610.88,-365.75 610.88,-343.25 454.12,-343.25"/>
<text text-anchor="start" x="475.88" y="-349.45" font-family="Times New Roman,Times,Liberation Serif,serif" font-size="14.00">ResistancePULength</text>
<polygon fill="none" stroke="black" points="374.62,-320.75 374.62,-343.25 454.12,-343.25 454.12,-320.75 374.62,-320.75"/>
<text text-anchor="start" x="389.62" y="-326.95" font-family="Times New Roman,Times,Liberation Serif,serif" font-size="14.00">x_matrix</text>
<polygon fill="none" stroke="black" points="454.12,-320.75 454.12,-343.25 610.88,-343.25 610.88,-320.75 454.12,-320.75"/>
<text text-anchor="start" x="477" y="-326.95" font-family="Times New Roman,Times,Liberation Serif,serif" font-size="14.00">ReactancePULength</text>
<polygon fill="none" stroke="black" points="374.62,-298.25 374.62,-320.75 454.12,-320.75 454.12,-298.25 374.62,-298.25"/>
<text text-anchor="start" x="390" y="-304.45" font-family="Times New Roman,Times,Liberation Serif,serif" font-size="14.00">c_matrix</text>
<polygon fill="none" stroke="black" points="454.12,-298.25 454.12,-320.75 610.88,-320.75 610.88,-298.25 454.12,-298.25"/>
<text text-anchor="start" x="471.75" y="-304.45" font-family="Times New Roman,Times,Liberation Serif,serif" font-size="14.00">CapacitancePULength</text>
<polygon fill="none" stroke="black" points="374.62,-275.75 374.62,-298.25 454.12,-298.25 454.12,-275.75 374.62,-275.75"/>
<text text-anchor="start" x="389.25" y="-281.95" font-family="Times New Roman,Times,Liberation Serif,serif" font-size="14.00">ampacity</text>
<polygon fill="none" stroke="black" points="454.12,-275.75 454.12,-298.25 610.88,-298.25 610.88,-275.75 454.12,-275.75"/>
<text text-anchor="start" x="490.12" y="-281.95" font-family="Times New Roman,Times,Liberation Serif,serif" font-size="14.00">PositiveCurrent</text>
<polygon fill="none" stroke="black" points="374.62,-253.25 374.62,-275.75 454.12,-275.75 454.12,-253.25 374.62,-253.25"/>
<text text-anchor="start" x="377.62" y="-259.45" font-family="Times New Roman,Times,Liberation Serif,serif" font-size="14.00">loading_limit</text>
<polygon fill="none" stroke="black" points="454.12,-253.25 454.12,-275.75 610.88,-275.75 610.88,-253.25 454.12,-253.25"/>
<text text-anchor="start" x="457.12" y="-259.45" font-family="Times New Roman,Times,Liberation Serif,serif" font-size="14.00">Optional[ThermalLimitSet]</text>
<polygon fill="none" stroke="black" points="374.62,-230.75 374.62,-253.25 454.12,-253.25 454.12,-230.75 374.62,-230.75"/>
<text text-anchor="start" x="399.75" y="-236.95" font-family="Times New Roman,Times,Liberation Serif,serif" font-size="14.00">delay</text>
<polygon fill="none" stroke="black" points="454.12,-230.75 454.12,-253.25 610.88,-253.25 610.88,-230.75 454.12,-230.75"/>
<text text-anchor="start" x="517.88" y="-236.95" font-family="Times New Roman,Times,Liberation Serif,serif" font-size="14.00">Time</text>
<polygon fill="none" stroke="black" points="374.62,-208.25 374.62,-230.75 454.12,-230.75 454.12,-208.25 374.62,-208.25"/>
<text text-anchor="start" x="388.12" y="-214.45" font-family="Times New Roman,Times,Liberation Serif,serif" font-size="14.00">tcc_curve</text>
<polygon fill="none" stroke="black" points="454.12,-208.25 454.12,-230.75 610.88,-230.75 610.88,-208.25 454.12,-208.25"/>
<text text-anchor="start" x="480.75" y="-214.45" font-family="Times New Roman,Times,Liberation Serif,serif" font-size="14.00">TimeCurrentCurve</text>
</a>
</g>
</g>
<!-- gdm.distribution.components.matrix_impedance_fuse.MatrixImpedanceFuse&#45;&gt;gdm.distribution.equipment.matrix_impedance_fuse_equipment.MatrixImpedanceFuseEquipment -->
<g id="edge9" class="edge">
<title>gdm.distribution.components.matrix_impedance_fuse.MatrixImpedanceFuse:e&#45;&gt;gdm.distribution.equipment.matrix_impedance_fuse_equipment.MatrixImpedanceFuseEquipment:w</title>
<path fill="none" stroke="black" d="M262.35,-602.59C339.85,-591.43 287.25,-441.23 358.77,-423.67"/>
<polyline fill="none" stroke="black" points="252.75,-603.25 257.74,-602.91"/>
<polyline fill="none" stroke="black" points="257.74,-602.91 262.73,-602.57"/>
<polyline fill="none" stroke="black" points="373.62,-422 368.66,-422.56"/>
<polygon fill="black" stroke="black" points="367.1,-417.7 368.22,-427.64 366.23,-427.86 365.12,-417.93 367.1,-417.7"/>
<polyline fill="none" stroke="black" points="368.66,-422.56 363.69,-423.12"/>
<polygon fill="black" stroke="black" points="362.13,-418.26 363.25,-428.2 361.27,-428.42 360.15,-418.49 362.13,-418.26"/>
<polyline fill="none" stroke="black" points="363.69,-423.12 358.72,-423.68"/>
</g>
<!-- gdm.distribution.equipment.matrix_impedance_fuse_equipment.MatrixImpedanceFuseEquipment&#45;&gt;gdm.distribution.common.curve.TimeCurrentCurve -->
<g id="edge10" class="edge">
<title>gdm.distribution.equipment.matrix_impedance_fuse_equipment.MatrixImpedanceFuseEquipment:e&#45;&gt;gdm.distribution.common.curve.TimeCurrentCurve:w</title>
<path fill="none" stroke="black" d="M621.67,-218.96C686.02,-211.66 685.19,-132.18 746.07,-121.04"/>
<polyline fill="none" stroke="black" points="611.88,-219.5 616.87,-219.23"/>
<polyline fill="none" stroke="black" points="616.87,-219.23 621.86,-218.95"/>
<polyline fill="none" stroke="black" points="761,-119.75 756.02,-120.18"/>
<polygon fill="black" stroke="black" points="754.59,-115.29 755.45,-125.25 753.46,-125.42 752.6,-115.46 754.59,-115.29"/>
<polyline fill="none" stroke="black" points="756.02,-120.18 751.04,-120.61"/>
<polygon fill="black" stroke="black" points="749.61,-115.72 750.47,-125.68 748.48,-125.85 747.62,-115.89 749.61,-115.72"/>
<polyline fill="none" stroke="black" points="751.04,-120.61 746.06,-121.05"/>
</g>
<!-- gdm.distribution.equipment.matrix_impedance_fuse_equipment.MatrixImpedanceFuseEquipment&#45;&gt;gdm.distribution.common.limitset.ThermalLimitSet -->
<g id="edge11" class="edge">
<title>gdm.distribution.equipment.matrix_impedance_fuse_equipment.MatrixImpedanceFuseEquipment:e&#45;&gt;gdm.distribution.common.limitset.ThermalLimitSet:w</title>
<path fill="none" stroke="black" d="M621.8,-264.54C666.46,-264.93 684.45,-267.87 725.65,-268.59"/>
<polyline fill="none" stroke="black" points="611.88,-264.5 616.87,-264.52"/>
<polyline fill="none" stroke="black" points="616.87,-264.52 621.87,-264.54"/>
<polyline fill="none" stroke="black" points="744.5,-268.75 739.5,-268.71"/>
<polygon fill="black" stroke="black" points="738.54,-263.7 738.46,-273.7 736.46,-273.68 736.54,-263.68 738.54,-263.7"/>
<polyline fill="none" stroke="black" points="739.5,-268.71 734.5,-268.67"/>
<ellipse fill="none" stroke="black" cx="730" cy="-268.63" rx="4" ry="4"/>
</g>
</g>
</svg>
