<?xml version="1.0" encoding="UTF-8" standalone="no"?>
<!DOCTYPE svg PUBLIC "-//W3C//DTD SVG 1.1//EN"
 "http://www.w3.org/Graphics/SVG/1.1/DTD/svg11.dtd">
<!-- Generated by graphviz version 12.2.1 (20241206.2353)
 -->
<!-- Title: Entity Relationship Diagram created by erdantic Pages: 1 -->
<svg width="1211pt" height="925pt"
 viewBox="0.00 0.00 1211.00 925.00" xmlns="http://www.w3.org/2000/svg" xmlns:xlink="http://www.w3.org/1999/xlink">
<g id="graph0" class="graph" transform="scale(1 1) rotate(0) translate(4 921)">
<title>Entity Relationship Diagram created by erdantic</title>
<polygon fill="white" stroke="none" points="-4,4 -4,-921 1207,-921 1207,4 -4,4"/>
<text text-anchor="middle" x="601.5" y="-5.95" font-family="Times New Roman,Times,Liberation Serif,serif" font-size="9.00" fill="#a8a8a8">Created by erdantic v1.0.5 &lt;https://github.com/drivendataorg/erdantic&gt;</text>
<!-- gdm.distribution.common.limitset.ThermalLimitSet -->
<g id="node1" class="node">
<title>gdm.distribution.common.limitset.ThermalLimitSet</title>
<g id="a_node1"><a xlink:title="gdm.distribution.common.limitset.ThermalLimitSet&#10;&#10;Interface for voltage limit set.&#10;">
<polygon fill="none" stroke="black" points="803.25,-279.75 803.25,-302.25 956.25,-302.25 956.25,-279.75 803.25,-279.75"/>
<text text-anchor="start" x="828.75" y="-286.95" font-family="Times New Roman,Times,Liberation Serif,serif" font-weight="bold" font-size="14.00">ThermalLimitSet</text>
<polygon fill="none" stroke="black" points="803.25,-257.25 803.25,-279.75 865.5,-279.75 865.5,-257.25 803.25,-257.25"/>
<text text-anchor="start" x="822.38" y="-263.45" font-family="Times New Roman,Times,Liberation Serif,serif" font-size="14.00">uuid</text>
<polygon fill="none" stroke="black" points="865.5,-257.25 865.5,-279.75 956.25,-279.75 956.25,-257.25 865.5,-257.25"/>
<text text-anchor="start" x="894" y="-263.45" font-family="Times New Roman,Times,Liberation Serif,serif" font-size="14.00">UUID</text>
<polygon fill="none" stroke="black" points="803.25,-234.75 803.25,-257.25 865.5,-257.25 865.5,-234.75 803.25,-234.75"/>
<text text-anchor="start" x="819.38" y="-240.95" font-family="Times New Roman,Times,Liberation Serif,serif" font-size="14.00">name</text>
<polygon fill="none" stroke="black" points="865.5,-234.75 865.5,-257.25 956.25,-257.25 956.25,-234.75 865.5,-234.75"/>
<text text-anchor="start" x="904.12" y="-240.95" font-family="Times New Roman,Times,Liberation Serif,serif" font-size="14.00">str</text>
<polygon fill="none" stroke="black" points="803.25,-212.25 803.25,-234.75 865.5,-234.75 865.5,-212.25 803.25,-212.25"/>
<text text-anchor="start" x="806.25" y="-218.45" font-family="Times New Roman,Times,Liberation Serif,serif" font-size="14.00">limit_type</text>
<polygon fill="none" stroke="black" points="865.5,-212.25 865.5,-234.75 956.25,-234.75 956.25,-212.25 865.5,-212.25"/>
<text text-anchor="start" x="881.62" y="-218.45" font-family="Times New Roman,Times,Liberation Serif,serif" font-size="14.00">LimitType</text>
<polygon fill="none" stroke="black" points="803.25,-189.75 803.25,-212.25 865.5,-212.25 865.5,-189.75 803.25,-189.75"/>
<text text-anchor="start" x="819.75" y="-195.95" font-family="Times New Roman,Times,Liberation Serif,serif" font-size="14.00">value</text>
<polygon fill="none" stroke="black" points="865.5,-189.75 865.5,-212.25 956.25,-212.25 956.25,-189.75 865.5,-189.75"/>
<text text-anchor="start" x="868.5" y="-195.95" font-family="Times New Roman,Times,Liberation Serif,serif" font-size="14.00">PositiveCurrent</text>
</a>
</g>
</g>
<!-- gdm.distribution.common.limitset.VoltageLimitSet -->
<g id="node2" class="node">
<title>gdm.distribution.common.limitset.VoltageLimitSet</title>
<g id="a_node2"><a xlink:title="gdm.distribution.common.limitset.VoltageLimitSet&#10;&#10;Interface for voltage limit set.&#10;">
<polygon fill="none" stroke="black" points="803.25,-611.75 803.25,-634.25 956.25,-634.25 956.25,-611.75 803.25,-611.75"/>
<text text-anchor="start" x="832.5" y="-618.95" font-family="Times New Roman,Times,Liberation Serif,serif" font-weight="bold" font-size="14.00">VoltageLimitSet</text>
<polygon fill="none" stroke="black" points="803.25,-589.25 803.25,-611.75 865.5,-611.75 865.5,-589.25 803.25,-589.25"/>
<text text-anchor="start" x="822.38" y="-595.45" font-family="Times New Roman,Times,Liberation Serif,serif" font-size="14.00">uuid</text>
<polygon fill="none" stroke="black" points="865.5,-589.25 865.5,-611.75 956.25,-611.75 956.25,-589.25 865.5,-589.25"/>
<text text-anchor="start" x="894" y="-595.45" font-family="Times New Roman,Times,Liberation Serif,serif" font-size="14.00">UUID</text>
<polygon fill="none" stroke="black" points="803.25,-566.75 803.25,-589.25 865.5,-589.25 865.5,-566.75 803.25,-566.75"/>
<text text-anchor="start" x="819.38" y="-572.95" font-family="Times New Roman,Times,Liberation Serif,serif" font-size="14.00">name</text>
<polygon fill="none" stroke="black" points="865.5,-566.75 865.5,-589.25 956.25,-589.25 956.25,-566.75 865.5,-566.75"/>
<text text-anchor="start" x="904.12" y="-572.95" font-family="Times New Roman,Times,Liberation Serif,serif" font-size="14.00">str</text>
<polygon fill="none" stroke="black" points="803.25,-544.25 803.25,-566.75 865.5,-566.75 865.5,-544.25 803.25,-544.25"/>
<text text-anchor="start" x="806.25" y="-550.45" font-family="Times New Roman,Times,Liberation Serif,serif" font-size="14.00">limit_type</text>
<polygon fill="none" stroke="black" points="865.5,-544.25 865.5,-566.75 956.25,-566.75 956.25,-544.25 865.5,-544.25"/>
<text text-anchor="start" x="881.62" y="-550.45" font-family="Times New Roman,Times,Liberation Serif,serif" font-size="14.00">LimitType</text>
<polygon fill="none" stroke="black" points="803.25,-521.75 803.25,-544.25 865.5,-544.25 865.5,-521.75 803.25,-521.75"/>
<text text-anchor="start" x="819.75" y="-527.95" font-family="Times New Roman,Times,Liberation Serif,serif" font-size="14.00">value</text>
<polygon fill="none" stroke="black" points="865.5,-521.75 865.5,-544.25 956.25,-544.25 956.25,-521.75 865.5,-521.75"/>
<text text-anchor="start" x="868.5" y="-527.95" font-family="Times New Roman,Times,Liberation Serif,serif" font-size="14.00">PositiveVoltage</text>
</a>
</g>
</g>
<!-- gdm.distribution.components.distribution_bus.DistributionBus -->
<g id="node3" class="node">
<title>gdm.distribution.components.distribution_bus.DistributionBus</title>
<g id="a_node3"><a xlink:title="gdm.distribution.components.distribution_bus.DistributionBus&#10;&#10;Interface for distribution bus.&#10;&#10;Examples:&#10; &#160;&#160;&#160;&gt;&gt;&gt; from gdm import DistributionBus&#10; &#160;&#160;&#160;&gt;&gt;&gt; DistributionBus.example()&#10;">
<polygon fill="none" stroke="black" points="390.75,-694 390.75,-716.5 654.75,-716.5 654.75,-694 390.75,-694"/>
<text text-anchor="start" x="476.62" y="-701.2" font-family="Times New Roman,Times,Liberation Serif,serif" font-weight="bold" font-size="14.00">DistributionBus</text>
<polygon fill="none" stroke="black" points="390.75,-671.5 390.75,-694 470.25,-694 470.25,-671.5 390.75,-671.5"/>
<text text-anchor="start" x="418.5" y="-677.7" font-family="Times New Roman,Times,Liberation Serif,serif" font-size="14.00">uuid</text>
<polygon fill="none" stroke="black" points="470.25,-671.5 470.25,-694 654.75,-694 654.75,-671.5 470.25,-671.5"/>
<text text-anchor="start" x="545.62" y="-677.7" font-family="Times New Roman,Times,Liberation Serif,serif" font-size="14.00">UUID</text>
<polygon fill="none" stroke="black" points="390.75,-649 390.75,-671.5 470.25,-671.5 470.25,-649 390.75,-649"/>
<text text-anchor="start" x="415.5" y="-655.2" font-family="Times New Roman,Times,Liberation Serif,serif" font-size="14.00">name</text>
<polygon fill="none" stroke="black" points="470.25,-649 470.25,-671.5 654.75,-671.5 654.75,-649 470.25,-649"/>
<text text-anchor="start" x="555.75" y="-655.2" font-family="Times New Roman,Times,Liberation Serif,serif" font-size="14.00">str</text>
<polygon fill="none" stroke="black" points="390.75,-626.5 390.75,-649 470.25,-649 470.25,-626.5 390.75,-626.5"/>
<text text-anchor="start" x="403.12" y="-632.7" font-family="Times New Roman,Times,Liberation Serif,serif" font-size="14.00">substation</text>
<polygon fill="none" stroke="black" points="470.25,-626.5 470.25,-649 654.75,-649 654.75,-626.5 470.25,-626.5"/>
<text text-anchor="start" x="473.25" y="-632.7" font-family="Times New Roman,Times,Liberation Serif,serif" font-size="14.00">Optional[DistributionSubstation]</text>
<polygon fill="none" stroke="black" points="390.75,-604 390.75,-626.5 470.25,-626.5 470.25,-604 390.75,-604"/>
<text text-anchor="start" x="413.62" y="-610.2" font-family="Times New Roman,Times,Liberation Serif,serif" font-size="14.00">feeder</text>
<polygon fill="none" stroke="black" points="470.25,-604 470.25,-626.5 654.75,-626.5 654.75,-604 470.25,-604"/>
<text text-anchor="start" x="483.38" y="-610.2" font-family="Times New Roman,Times,Liberation Serif,serif" font-size="14.00">Optional[DistributionFeeder]</text>
<polygon fill="none" stroke="black" points="390.75,-581.5 390.75,-604 470.25,-604 470.25,-581.5 390.75,-581.5"/>
<text text-anchor="start" x="395.62" y="-587.7" font-family="Times New Roman,Times,Liberation Serif,serif" font-size="14.00">voltage_type</text>
<polygon fill="none" stroke="black" points="470.25,-581.5 470.25,-604 654.75,-604 654.75,-581.5 470.25,-581.5"/>
<text text-anchor="start" x="525.38" y="-587.7" font-family="Times New Roman,Times,Liberation Serif,serif" font-size="14.00">VoltageTypes</text>
<polygon fill="none" stroke="black" points="390.75,-559 390.75,-581.5 470.25,-581.5 470.25,-559 390.75,-559"/>
<text text-anchor="start" x="412.5" y="-565.2" font-family="Times New Roman,Times,Liberation Serif,serif" font-size="14.00">phases</text>
<polygon fill="none" stroke="black" points="470.25,-559 470.25,-581.5 654.75,-581.5 654.75,-559 470.25,-559"/>
<text text-anchor="start" x="534" y="-565.2" font-family="Times New Roman,Times,Liberation Serif,serif" font-size="14.00">list[Phase]</text>
<polygon fill="none" stroke="black" points="390.75,-536.5 390.75,-559 470.25,-559 470.25,-536.5 390.75,-536.5"/>
<text text-anchor="start" x="394.88" y="-542.7" font-family="Times New Roman,Times,Liberation Serif,serif" font-size="14.00">voltagelimits</text>
<polygon fill="none" stroke="black" points="470.25,-536.5 470.25,-559 654.75,-559 654.75,-536.5 470.25,-536.5"/>
<text text-anchor="start" x="505.12" y="-542.7" font-family="Times New Roman,Times,Liberation Serif,serif" font-size="14.00">list[VoltageLimitSet]</text>
<polygon fill="none" stroke="black" points="390.75,-514 390.75,-536.5 470.25,-536.5 470.25,-514 390.75,-514"/>
<text text-anchor="start" x="393.75" y="-520.2" font-family="Times New Roman,Times,Liberation Serif,serif" font-size="14.00">rated_voltage</text>
<polygon fill="none" stroke="black" points="470.25,-514 470.25,-536.5 654.75,-536.5 654.75,-514 470.25,-514"/>
<text text-anchor="start" x="520.12" y="-520.2" font-family="Times New Roman,Times,Liberation Serif,serif" font-size="14.00">PositiveVoltage</text>
<polygon fill="none" stroke="black" points="390.75,-491.5 390.75,-514 470.25,-514 470.25,-491.5 390.75,-491.5"/>
<text text-anchor="start" x="402" y="-497.7" font-family="Times New Roman,Times,Liberation Serif,serif" font-size="14.00">coordinate</text>
<polygon fill="none" stroke="black" points="470.25,-491.5 470.25,-514 654.75,-514 654.75,-491.5 470.25,-491.5"/>
<text text-anchor="start" x="510.38" y="-497.7" font-family="Times New Roman,Times,Liberation Serif,serif" font-size="14.00">Optional[Location]</text>
</a>
</g>
</g>
<!-- gdm.distribution.components.distribution_bus.DistributionBus&#45;&gt;gdm.distribution.common.limitset.VoltageLimitSet -->
<g id="edge1" class="edge">
<title>gdm.distribution.components.distribution_bus.DistributionBus:e&#45;&gt;gdm.distribution.common.limitset.VoltageLimitSet:w</title>
<path fill="none" stroke="black" d="M665.58,-548.23C724.15,-554.14 731.59,-612.7 787.05,-621.81"/>
<polyline fill="none" stroke="black" points="655.75,-547.75 660.74,-547.99"/>
<polyline fill="none" stroke="black" points="660.74,-547.99 665.74,-548.24"/>
<polygon fill="black" stroke="black" points="791.95,-622.19 801.57,-627.46 797.27,-622.61 801.58,-622.95 801.58,-622.95 801.58,-622.95 797.27,-622.61 802.27,-618.49 791.95,-622.19"/>
<polyline fill="none" stroke="black" points="790.73,-622.1 785.75,-621.71"/>
</g>
<!-- gdm.distribution.components.distribution_feeder.DistributionFeeder -->
<g id="node4" class="node">
<title>gdm.distribution.components.distribution_feeder.DistributionFeeder</title>
<g id="a_node4"><a xlink:title="gdm.distribution.components.distribution_feeder.DistributionFeeder&#10;&#10;Class interface for distribution feeder.&#10;">
<polygon fill="none" stroke="black" points="1086.75,-761.25 1086.75,-783.75 1203,-783.75 1203,-761.25 1086.75,-761.25"/>
<text text-anchor="start" x="1089.75" y="-768.45" font-family="Times New Roman,Times,Liberation Serif,serif" font-weight="bold" font-size="14.00">DistributionFeeder</text>
<polygon fill="none" stroke="black" points="1086.75,-738.75 1086.75,-761.25 1143,-761.25 1143,-738.75 1086.75,-738.75"/>
<text text-anchor="start" x="1102.88" y="-744.95" font-family="Times New Roman,Times,Liberation Serif,serif" font-size="14.00">uuid</text>
<polygon fill="none" stroke="black" points="1143,-738.75 1143,-761.25 1203,-761.25 1203,-738.75 1143,-738.75"/>
<text text-anchor="start" x="1156.12" y="-744.95" font-family="Times New Roman,Times,Liberation Serif,serif" font-size="14.00">UUID</text>
<polygon fill="none" stroke="black" points="1086.75,-716.25 1086.75,-738.75 1143,-738.75 1143,-716.25 1086.75,-716.25"/>
<text text-anchor="start" x="1099.88" y="-722.45" font-family="Times New Roman,Times,Liberation Serif,serif" font-size="14.00">name</text>
<polygon fill="none" stroke="black" points="1143,-716.25 1143,-738.75 1203,-738.75 1203,-716.25 1143,-716.25"/>
<text text-anchor="start" x="1166.25" y="-722.45" font-family="Times New Roman,Times,Liberation Serif,serif" font-size="14.00">str</text>
</a>
</g>
</g>
<!-- gdm.distribution.components.distribution_bus.DistributionBus&#45;&gt;gdm.distribution.components.distribution_feeder.DistributionFeeder -->
<g id="edge2" class="edge">
<title>gdm.distribution.components.distribution_bus.DistributionBus:e&#45;&gt;gdm.distribution.components.distribution_feeder.DistributionFeeder:w</title>
<path fill="none" stroke="black" d="M665.59,-616.43C732.87,-629.54 987.01,-748.32 1068.25,-769.33"/>
<polyline fill="none" stroke="black" points="655.75,-615.25 660.71,-615.84"/>
<polyline fill="none" stroke="black" points="660.71,-615.84 665.68,-616.44"/>
<polyline fill="none" stroke="black" points="1086.75,-772.5 1081.82,-771.66"/>
<polygon fill="black" stroke="black" points="1081.68,-766.56 1079.99,-776.42 1078.02,-776.08 1079.71,-766.22 1081.68,-766.56"/>
<polyline fill="none" stroke="black" points="1081.82,-771.66 1076.89,-770.81"/>
<ellipse fill="none" stroke="black" cx="1072.46" cy="-770.05" rx="4" ry="4"/>
</g>
<!-- gdm.distribution.components.distribution_substation.DistributionSubstation -->
<g id="node5" class="node">
<title>gdm.distribution.components.distribution_substation.DistributionSubstation</title>
<g id="a_node5"><a xlink:title="gdm.distribution.components.distribution_substation.DistributionSubstation&#10;&#10;Class interface for distribution feeder.&#10;">
<polygon fill="none" stroke="black" points="790.5,-894.5 790.5,-917 969,-917 969,-894.5 790.5,-894.5"/>
<text text-anchor="start" x="813.75" y="-901.7" font-family="Times New Roman,Times,Liberation Serif,serif" font-weight="bold" font-size="14.00">DistributionSubstation</text>
<polygon fill="none" stroke="black" points="790.5,-872 790.5,-894.5 835.5,-894.5 835.5,-872 790.5,-872"/>
<text text-anchor="start" x="801" y="-878.2" font-family="Times New Roman,Times,Liberation Serif,serif" font-size="14.00">uuid</text>
<polygon fill="none" stroke="black" points="835.5,-872 835.5,-894.5 969,-894.5 969,-872 835.5,-872"/>
<text text-anchor="start" x="885.38" y="-878.2" font-family="Times New Roman,Times,Liberation Serif,serif" font-size="14.00">UUID</text>
<polygon fill="none" stroke="black" points="790.5,-849.5 790.5,-872 835.5,-872 835.5,-849.5 790.5,-849.5"/>
<text text-anchor="start" x="798" y="-855.7" font-family="Times New Roman,Times,Liberation Serif,serif" font-size="14.00">name</text>
<polygon fill="none" stroke="black" points="835.5,-849.5 835.5,-872 969,-872 969,-849.5 835.5,-849.5"/>
<text text-anchor="start" x="895.5" y="-855.7" font-family="Times New Roman,Times,Liberation Serif,serif" font-size="14.00">str</text>
<polygon fill="none" stroke="black" points="790.5,-827 790.5,-849.5 835.5,-849.5 835.5,-827 790.5,-827"/>
<text text-anchor="start" x="793.5" y="-833.2" font-family="Times New Roman,Times,Liberation Serif,serif" font-size="14.00">feeders</text>
<polygon fill="none" stroke="black" points="835.5,-827 835.5,-849.5 969,-849.5 969,-827 835.5,-827"/>
<text text-anchor="start" x="838.5" y="-833.2" font-family="Times New Roman,Times,Liberation Serif,serif" font-size="14.00">list[DistributionFeeder]</text>
</a>
</g>
</g>
<!-- gdm.distribution.components.distribution_bus.DistributionBus&#45;&gt;gdm.distribution.components.distribution_substation.DistributionSubstation -->
<g id="edge3" class="edge">
<title>gdm.distribution.components.distribution_bus.DistributionBus:e&#45;&gt;gdm.distribution.components.distribution_substation.DistributionSubstation:w</title>
<path fill="none" stroke="black" d="M665.39,-638.26C776.03,-650.49 672.23,-879.1 770.7,-903.62"/>
<polyline fill="none" stroke="black" points="655.75,-637.75 660.74,-638.01"/>
<polyline fill="none" stroke="black" points="660.74,-638.01 665.74,-638.28"/>
<polyline fill="none" stroke="black" points="789.5,-905.75 784.53,-905.19"/>
<polygon fill="black" stroke="black" points="784.1,-900.11 782.98,-910.04 780.99,-909.82 782.11,-899.88 784.1,-900.11"/>
<polyline fill="none" stroke="black" points="784.53,-905.19 779.56,-904.63"/>
<ellipse fill="none" stroke="black" cx="775.09" cy="-904.12" rx="4" ry="4"/>
</g>
<!-- infrasys.location.Location -->
<g id="node6" class="node">
<title>infrasys.location.Location</title>
<g id="a_node6"><a xlink:title="infrasys.location.Location&#10;&#10;Specifies geographic location.&#10;">
<polygon fill="none" stroke="black" points="832.12,-463 832.12,-485.5 927.38,-485.5 927.38,-463 832.12,-463"/>
<text text-anchor="start" x="854.25" y="-470.2" font-family="Times New Roman,Times,Liberation Serif,serif" font-weight="bold" font-size="14.00">Location</text>
<polygon fill="none" stroke="black" points="832.12,-440.5 832.12,-463 868.12,-463 868.12,-440.5 832.12,-440.5"/>
<text text-anchor="start" x="838.12" y="-446.7" font-family="Times New Roman,Times,Liberation Serif,serif" font-size="14.00">uuid</text>
<polygon fill="none" stroke="black" points="868.12,-440.5 868.12,-463 927.38,-463 927.38,-440.5 868.12,-440.5"/>
<text text-anchor="start" x="880.88" y="-446.7" font-family="Times New Roman,Times,Liberation Serif,serif" font-size="14.00">UUID</text>
<polygon fill="none" stroke="black" points="832.12,-418 832.12,-440.5 868.12,-440.5 868.12,-418 832.12,-418"/>
<text text-anchor="start" x="835.12" y="-424.2" font-family="Times New Roman,Times,Liberation Serif,serif" font-size="14.00">name</text>
<polygon fill="none" stroke="black" points="868.12,-418 868.12,-440.5 927.38,-440.5 927.38,-418 868.12,-418"/>
<text text-anchor="start" x="891" y="-424.2" font-family="Times New Roman,Times,Liberation Serif,serif" font-size="14.00">str</text>
<polygon fill="none" stroke="black" points="832.12,-395.5 832.12,-418 868.12,-418 868.12,-395.5 832.12,-395.5"/>
<text text-anchor="start" x="846.75" y="-401.7" font-family="Times New Roman,Times,Liberation Serif,serif" font-size="14.00">x</text>
<polygon fill="none" stroke="black" points="868.12,-395.5 868.12,-418 927.38,-418 927.38,-395.5 868.12,-395.5"/>
<text text-anchor="start" x="885.38" y="-401.7" font-family="Times New Roman,Times,Liberation Serif,serif" font-size="14.00">float</text>
<polygon fill="none" stroke="black" points="832.12,-373 832.12,-395.5 868.12,-395.5 868.12,-373 832.12,-373"/>
<text text-anchor="start" x="846.75" y="-379.2" font-family="Times New Roman,Times,Liberation Serif,serif" font-size="14.00">y</text>
<polygon fill="none" stroke="black" points="868.12,-373 868.12,-395.5 927.38,-395.5 927.38,-373 868.12,-373"/>
<text text-anchor="start" x="885.38" y="-379.2" font-family="Times New Roman,Times,Liberation Serif,serif" font-size="14.00">float</text>
<polygon fill="none" stroke="black" points="832.12,-350.5 832.12,-373 868.12,-373 868.12,-350.5 832.12,-350.5"/>
<text text-anchor="start" x="842.25" y="-356.7" font-family="Times New Roman,Times,Liberation Serif,serif" font-size="14.00">crs</text>
<polygon fill="none" stroke="black" points="868.12,-350.5 868.12,-373 927.38,-373 927.38,-350.5 868.12,-350.5"/>
<text text-anchor="start" x="871.12" y="-356.7" font-family="Times New Roman,Times,Liberation Serif,serif" font-size="14.00">str | None</text>
</a>
</g>
</g>
<!-- gdm.distribution.components.distribution_bus.DistributionBus&#45;&gt;infrasys.location.Location -->
<g id="edge4" class="edge">
<title>gdm.distribution.components.distribution_bus.DistributionBus:e&#45;&gt;infrasys.location.Location:w</title>
<path fill="none" stroke="black" d="M665.6,-502.6C730.11,-500.55 751.77,-478.65 812.43,-474.82"/>
<polyline fill="none" stroke="black" points="655.75,-502.75 660.75,-502.67"/>
<polyline fill="none" stroke="black" points="660.75,-502.67 665.75,-502.59"/>
<polyline fill="none" stroke="black" points="831.12,-474.25 826.13,-474.4"/>
<polygon fill="black" stroke="black" points="824.98,-469.44 825.28,-479.43 823.28,-479.49 822.98,-469.5 824.98,-469.44"/>
<polyline fill="none" stroke="black" points="826.13,-474.4 821.13,-474.56"/>
<ellipse fill="none" stroke="black" cx="816.63" cy="-474.69" rx="4" ry="4"/>
</g>
<!-- gdm.distribution.components.distribution_substation.DistributionSubstation&#45;&gt;gdm.distribution.components.distribution_feeder.DistributionFeeder -->
<g id="edge5" class="edge">
<title>gdm.distribution.components.distribution_substation.DistributionSubstation:e&#45;&gt;gdm.distribution.components.distribution_feeder.DistributionFeeder:w</title>
<path fill="none" stroke="black" d="M979.86,-837.6C1024.54,-831.45 1029.97,-783.6 1071.53,-774.13"/>
<polyline fill="none" stroke="black" points="970,-838.25 974.99,-837.92"/>
<polyline fill="none" stroke="black" points="974.99,-837.92 979.98,-837.59"/>
<polygon fill="black" stroke="black" points="1076.47,-773.6 1086.9,-777.01 1081.78,-773.03 1086.08,-772.57 1086.08,-772.57 1086.08,-772.57 1081.78,-773.03 1085.94,-768.06 1076.47,-773.6"/>
<polyline fill="none" stroke="black" points="1075.26,-773.73 1070.29,-774.26"/>
</g>
<!-- gdm.distribution.components.matrix_impedance_switch.MatrixImpedanceSwitch -->
<g id="node7" class="node">
<title>gdm.distribution.components.matrix_impedance_switch.MatrixImpedanceSwitch</title>
<g id="a_node7"><a xlink:title="gdm.distribution.components.matrix_impedance_switch.MatrixImpedanceSwitch&#10;&#10;Interface for matrix impedance switch.&#10;">
<polygon fill="none" stroke="black" points="0,-839.25 0,-861.75 264.75,-861.75 264.75,-839.25 0,-839.25"/>
<text text-anchor="start" x="60" y="-846.45" font-family="Times New Roman,Times,Liberation Serif,serif" font-weight="bold" font-size="14.00">MatrixImpedanceSwitch</text>
<polygon fill="none" stroke="black" points="0,-816.75 0,-839.25 63.75,-839.25 63.75,-816.75 0,-816.75"/>
<text text-anchor="start" x="19.88" y="-822.95" font-family="Times New Roman,Times,Liberation Serif,serif" font-size="14.00">uuid</text>
<polygon fill="none" stroke="black" points="63.75,-816.75 63.75,-839.25 264.75,-839.25 264.75,-816.75 63.75,-816.75"/>
<text text-anchor="start" x="147.38" y="-822.95" font-family="Times New Roman,Times,Liberation Serif,serif" font-size="14.00">UUID</text>
<polygon fill="none" stroke="black" points="0,-794.25 0,-816.75 63.75,-816.75 63.75,-794.25 0,-794.25"/>
<text text-anchor="start" x="16.88" y="-800.45" font-family="Times New Roman,Times,Liberation Serif,serif" font-size="14.00">name</text>
<polygon fill="none" stroke="black" points="63.75,-794.25 63.75,-816.75 264.75,-816.75 264.75,-794.25 63.75,-794.25"/>
<text text-anchor="start" x="157.5" y="-800.45" font-family="Times New Roman,Times,Liberation Serif,serif" font-size="14.00">str</text>
<polygon fill="none" stroke="black" points="0,-771.75 0,-794.25 63.75,-794.25 63.75,-771.75 0,-771.75"/>
<text text-anchor="start" x="4.5" y="-777.95" font-family="Times New Roman,Times,Liberation Serif,serif" font-size="14.00">substation</text>
<polygon fill="none" stroke="black" points="63.75,-771.75 63.75,-794.25 264.75,-794.25 264.75,-771.75 63.75,-771.75"/>
<text text-anchor="start" x="75" y="-777.95" font-family="Times New Roman,Times,Liberation Serif,serif" font-size="14.00">Optional[DistributionSubstation]</text>
<polygon fill="none" stroke="black" points="0,-749.25 0,-771.75 63.75,-771.75 63.75,-749.25 0,-749.25"/>
<text text-anchor="start" x="15" y="-755.45" font-family="Times New Roman,Times,Liberation Serif,serif" font-size="14.00">feeder</text>
<polygon fill="none" stroke="black" points="63.75,-749.25 63.75,-771.75 264.75,-771.75 264.75,-749.25 63.75,-749.25"/>
<text text-anchor="start" x="85.12" y="-755.45" font-family="Times New Roman,Times,Liberation Serif,serif" font-size="14.00">Optional[DistributionFeeder]</text>
<polygon fill="none" stroke="black" points="0,-726.75 0,-749.25 63.75,-749.25 63.75,-726.75 0,-726.75"/>
<text text-anchor="start" x="4.12" y="-732.95" font-family="Times New Roman,Times,Liberation Serif,serif" font-size="14.00">in_service</text>
<polygon fill="none" stroke="black" points="63.75,-726.75 63.75,-749.25 264.75,-749.25 264.75,-726.75 63.75,-726.75"/>
<text text-anchor="start" x="152.25" y="-732.95" font-family="Times New Roman,Times,Liberation Serif,serif" font-size="14.00">bool</text>
<polygon fill="none" stroke="black" points="0,-704.25 0,-726.75 63.75,-726.75 63.75,-704.25 0,-704.25"/>
<text text-anchor="start" x="16.88" y="-710.45" font-family="Times New Roman,Times,Liberation Serif,serif" font-size="14.00">buses</text>
<polygon fill="none" stroke="black" points="63.75,-704.25 63.75,-726.75 264.75,-726.75 264.75,-704.25 63.75,-704.25"/>
<text text-anchor="start" x="108.38" y="-710.45" font-family="Times New Roman,Times,Liberation Serif,serif" font-size="14.00">list[DistributionBus]</text>
<polygon fill="none" stroke="black" points="0,-681.75 0,-704.25 63.75,-704.25 63.75,-681.75 0,-681.75"/>
<text text-anchor="start" x="15" y="-687.95" font-family="Times New Roman,Times,Liberation Serif,serif" font-size="14.00">length</text>
<polygon fill="none" stroke="black" points="63.75,-681.75 63.75,-704.25 264.75,-704.25 264.75,-681.75 63.75,-681.75"/>
<text text-anchor="start" x="118.88" y="-687.95" font-family="Times New Roman,Times,Liberation Serif,serif" font-size="14.00">PositiveDistance</text>
<polygon fill="none" stroke="black" points="0,-659.25 0,-681.75 63.75,-681.75 63.75,-659.25 0,-659.25"/>
<text text-anchor="start" x="13.88" y="-665.45" font-family="Times New Roman,Times,Liberation Serif,serif" font-size="14.00">phases</text>
<polygon fill="none" stroke="black" points="63.75,-659.25 63.75,-681.75 264.75,-681.75 264.75,-659.25 63.75,-659.25"/>
<text text-anchor="start" x="135.75" y="-665.45" font-family="Times New Roman,Times,Liberation Serif,serif" font-size="14.00">list[Phase]</text>
<polygon fill="none" stroke="black" points="0,-636.75 0,-659.25 63.75,-659.25 63.75,-636.75 0,-636.75"/>
<text text-anchor="start" x="6.75" y="-642.95" font-family="Times New Roman,Times,Liberation Serif,serif" font-size="14.00">is_closed</text>
<polygon fill="none" stroke="black" points="63.75,-636.75 63.75,-659.25 264.75,-659.25 264.75,-636.75 63.75,-636.75"/>
<text text-anchor="start" x="139.5" y="-642.95" font-family="Times New Roman,Times,Liberation Serif,serif" font-size="14.00">list[bool]</text>
<polygon fill="none" stroke="black" points="0,-614.25 0,-636.75 63.75,-636.75 63.75,-614.25 0,-614.25"/>
<text text-anchor="start" x="3" y="-620.45" font-family="Times New Roman,Times,Liberation Serif,serif" font-size="14.00">equipment</text>
<polygon fill="none" stroke="black" points="63.75,-614.25 63.75,-636.75 264.75,-636.75 264.75,-614.25 63.75,-614.25"/>
<text text-anchor="start" x="66.75" y="-620.45" font-family="Times New Roman,Times,Liberation Serif,serif" font-size="14.00">MatrixImpedanceSwitchEquipment</text>
</a>
</g>
</g>
<!-- gdm.distribution.components.matrix_impedance_switch.MatrixImpedanceSwitch&#45;&gt;gdm.distribution.components.distribution_bus.DistributionBus -->
<g id="edge6" class="edge">
<title>gdm.distribution.components.matrix_impedance_switch.MatrixImpedanceSwitch:e&#45;&gt;gdm.distribution.components.distribution_bus.DistributionBus:w</title>
<path fill="none" stroke="black" d="M274.73,-715.38C317.32,-714.38 333.94,-707.06 374.37,-705.53"/>
<polyline fill="none" stroke="black" points="264.75,-715.5 269.75,-715.44"/>
<polyline fill="none" stroke="black" points="269.75,-715.44 274.75,-715.38"/>
<polygon fill="black" stroke="black" points="379.42,-705.44 389.5,-709.76 384.75,-705.34 389.08,-705.26 389.08,-705.26 389.08,-705.26 384.75,-705.34 389.33,-700.76 379.42,-705.44"/>
<polyline fill="none" stroke="black" points="378.2,-705.46 373.2,-705.55"/>
</g>
<!-- gdm.distribution.components.matrix_impedance_switch.MatrixImpedanceSwitch&#45;&gt;gdm.distribution.components.distribution_feeder.DistributionFeeder -->
<g id="edge7" class="edge">
<title>gdm.distribution.components.matrix_impedance_switch.MatrixImpedanceSwitch:e&#45;&gt;gdm.distribution.components.distribution_feeder.DistributionFeeder:w</title>
<path fill="none" stroke="black" d="M274.58,-760.5C625.51,-760.71 721.33,-772.09 1067.9,-772.49"/>
<polyline fill="none" stroke="black" points="264.75,-760.5 269.75,-760.5"/>
<polyline fill="none" stroke="black" points="269.75,-760.5 274.75,-760.5"/>
<polyline fill="none" stroke="black" points="1086.75,-772.5 1081.75,-772.5"/>
<polygon fill="black" stroke="black" points="1080.75,-767.5 1080.75,-777.5 1078.75,-777.5 1078.75,-767.5 1080.75,-767.5"/>
<polyline fill="none" stroke="black" points="1081.75,-772.5 1076.75,-772.49"/>
<ellipse fill="none" stroke="black" cx="1072.25" cy="-772.49" rx="4" ry="4"/>
</g>
<!-- gdm.distribution.components.matrix_impedance_switch.MatrixImpedanceSwitch&#45;&gt;gdm.distribution.components.distribution_substation.DistributionSubstation -->
<g id="edge8" class="edge">
<title>gdm.distribution.components.matrix_impedance_switch.MatrixImpedanceSwitch:e&#45;&gt;gdm.distribution.components.distribution_substation.DistributionSubstation:w</title>
<path fill="none" stroke="black" d="M274.56,-783.25C393.09,-789.08 645.51,-894.22 770.56,-904.88"/>
<polyline fill="none" stroke="black" points="264.75,-783 269.75,-783.13"/>
<polyline fill="none" stroke="black" points="269.75,-783.13 274.75,-783.26"/>
<polyline fill="none" stroke="black" points="789.5,-905.75 784.51,-905.52"/>
<polygon fill="black" stroke="black" points="783.74,-900.48 783.28,-910.47 781.28,-910.38 781.74,-900.39 783.74,-900.48"/>
<polyline fill="none" stroke="black" points="784.51,-905.52 779.51,-905.29"/>
<ellipse fill="none" stroke="black" cx="775.02" cy="-905.08" rx="4" ry="4"/>
</g>
<!-- gdm.distribution.equipment.matrix_impedance_switch_equipment.MatrixImpedanceSwitchEquipment -->
<g id="node8" class="node">
<title>gdm.distribution.equipment.matrix_impedance_switch_equipment.MatrixImpedanceSwitchEquipment</title>
<g id="a_node8"><a xlink:title="gdm.distribution.equipment.matrix_impedance_switch_equipment.MatrixImpedanceSwitchEquipment&#10;&#10;Interface for matrix impedance based recloser equipment.&#10;">
<polygon fill="none" stroke="black" points="372.75,-432.75 372.75,-455.25 672.75,-455.25 672.75,-432.75 372.75,-432.75"/>
<text text-anchor="start" x="417.75" y="-439.95" font-family="Times New Roman,Times,Liberation Serif,serif" font-weight="bold" font-size="14.00">MatrixImpedanceSwitchEquipment</text>
<polygon fill="none" stroke="black" points="372.75,-410.25 372.75,-432.75 452.25,-432.75 452.25,-410.25 372.75,-410.25"/>
<text text-anchor="start" x="400.5" y="-416.45" font-family="Times New Roman,Times,Liberation Serif,serif" font-size="14.00">uuid</text>
<polygon fill="none" stroke="black" points="452.25,-410.25 452.25,-432.75 672.75,-432.75 672.75,-410.25 452.25,-410.25"/>
<text text-anchor="start" x="545.62" y="-416.45" font-family="Times New Roman,Times,Liberation Serif,serif" font-size="14.00">UUID</text>
<polygon fill="none" stroke="black" points="372.75,-387.75 372.75,-410.25 452.25,-410.25 452.25,-387.75 372.75,-387.75"/>
<text text-anchor="start" x="397.5" y="-393.95" font-family="Times New Roman,Times,Liberation Serif,serif" font-size="14.00">name</text>
<polygon fill="none" stroke="black" points="452.25,-387.75 452.25,-410.25 672.75,-410.25 672.75,-387.75 452.25,-387.75"/>
<text text-anchor="start" x="555.75" y="-393.95" font-family="Times New Roman,Times,Liberation Serif,serif" font-size="14.00">str</text>
<polygon fill="none" stroke="black" points="372.75,-365.25 372.75,-387.75 452.25,-387.75 452.25,-365.25 372.75,-365.25"/>
<text text-anchor="start" x="388.88" y="-371.45" font-family="Times New Roman,Times,Liberation Serif,serif" font-size="14.00">r_matrix</text>
<polygon fill="none" stroke="black" points="452.25,-365.25 452.25,-387.75 672.75,-387.75 672.75,-365.25 452.25,-365.25"/>
<text text-anchor="start" x="505.88" y="-371.45" font-family="Times New Roman,Times,Liberation Serif,serif" font-size="14.00">ResistancePULength</text>
<polygon fill="none" stroke="black" points="372.75,-342.75 372.75,-365.25 452.25,-365.25 452.25,-342.75 372.75,-342.75"/>
<text text-anchor="start" x="387.75" y="-348.95" font-family="Times New Roman,Times,Liberation Serif,serif" font-size="14.00">x_matrix</text>
<polygon fill="none" stroke="black" points="452.25,-342.75 452.25,-365.25 672.75,-365.25 672.75,-342.75 452.25,-342.75"/>
<text text-anchor="start" x="507" y="-348.95" font-family="Times New Roman,Times,Liberation Serif,serif" font-size="14.00">ReactancePULength</text>
<polygon fill="none" stroke="black" points="372.75,-320.25 372.75,-342.75 452.25,-342.75 452.25,-320.25 372.75,-320.25"/>
<text text-anchor="start" x="388.12" y="-326.45" font-family="Times New Roman,Times,Liberation Serif,serif" font-size="14.00">c_matrix</text>
<polygon fill="none" stroke="black" points="452.25,-320.25 452.25,-342.75 672.75,-342.75 672.75,-320.25 452.25,-320.25"/>
<text text-anchor="start" x="501.75" y="-326.45" font-family="Times New Roman,Times,Liberation Serif,serif" font-size="14.00">CapacitancePULength</text>
<polygon fill="none" stroke="black" points="372.75,-297.75 372.75,-320.25 452.25,-320.25 452.25,-297.75 372.75,-297.75"/>
<text text-anchor="start" x="387.38" y="-303.95" font-family="Times New Roman,Times,Liberation Serif,serif" font-size="14.00">ampacity</text>
<polygon fill="none" stroke="black" points="452.25,-297.75 452.25,-320.25 672.75,-320.25 672.75,-297.75 452.25,-297.75"/>
<text text-anchor="start" x="520.12" y="-303.95" font-family="Times New Roman,Times,Liberation Serif,serif" font-size="14.00">PositiveCurrent</text>
<polygon fill="none" stroke="black" points="372.75,-275.25 372.75,-297.75 452.25,-297.75 452.25,-275.25 372.75,-275.25"/>
<text text-anchor="start" x="375.75" y="-281.45" font-family="Times New Roman,Times,Liberation Serif,serif" font-size="14.00">loading_limit</text>
<polygon fill="none" stroke="black" points="452.25,-275.25 452.25,-297.75 672.75,-297.75 672.75,-275.25 452.25,-275.25"/>
<text text-anchor="start" x="487.12" y="-281.45" font-family="Times New Roman,Times,Liberation Serif,serif" font-size="14.00">Optional[ThermalLimitSet]</text>
<polygon fill="none" stroke="black" points="372.75,-252.75 372.75,-275.25 452.25,-275.25 452.25,-252.75 372.75,-252.75"/>
<text text-anchor="start" x="386.25" y="-258.95" font-family="Times New Roman,Times,Liberation Serif,serif" font-size="14.00">controller</text>
<polygon fill="none" stroke="black" points="452.25,-252.75 452.25,-275.25 672.75,-275.25 672.75,-252.75 452.25,-252.75"/>
<text text-anchor="start" x="455.25" y="-258.95" font-family="Times New Roman,Times,Liberation Serif,serif" font-size="14.00">Optional[DistributionSwitchController]</text>
</a>
</g>
</g>
<!-- gdm.distribution.components.matrix_impedance_switch.MatrixImpedanceSwitch&#45;&gt;gdm.distribution.equipment.matrix_impedance_switch_equipment.MatrixImpedanceSwitchEquipment -->
<g id="edge9" class="edge">
<title>gdm.distribution.components.matrix_impedance_switch.MatrixImpedanceSwitch:e&#45;&gt;gdm.distribution.equipment.matrix_impedance_switch_equipment.MatrixImpedanceSwitchEquipment:w</title>
<path fill="none" stroke="black" d="M274.5,-624.77C348.19,-613.04 290.37,-463.81 358.03,-445.78"/>
<polyline fill="none" stroke="black" points="264.75,-625.5 269.74,-625.13"/>
<polyline fill="none" stroke="black" points="269.74,-625.13 274.72,-624.75"/>
<polyline fill="none" stroke="black" points="372.75,-444 367.79,-444.6"/>
<polygon fill="black" stroke="black" points="366.19,-439.76 367.39,-449.68 365.41,-449.92 364.21,-440 366.19,-439.76"/>
<polyline fill="none" stroke="black" points="367.79,-444.6 362.82,-445.2"/>
<polygon fill="black" stroke="black" points="361.23,-440.36 362.43,-450.28 360.44,-450.52 359.24,-440.6 361.23,-440.36"/>
<polyline fill="none" stroke="black" points="362.82,-445.2 357.86,-445.8"/>
</g>
<!-- gdm.distribution.equipment.matrix_impedance_switch_equipment.MatrixImpedanceSwitchEquipment&#45;&gt;gdm.distribution.common.limitset.ThermalLimitSet -->
<g id="edge10" class="edge">
<title>gdm.distribution.equipment.matrix_impedance_switch_equipment.MatrixImpedanceSwitchEquipment:e&#45;&gt;gdm.distribution.common.limitset.ThermalLimitSet:w</title>
<path fill="none" stroke="black" d="M682.45,-286.54C725.85,-286.95 743.46,-290.04 783.31,-290.82"/>
<polyline fill="none" stroke="black" points="672.75,-286.5 677.75,-286.52"/>
<polyline fill="none" stroke="black" points="677.75,-286.52 682.75,-286.55"/>
<polyline fill="none" stroke="black" points="802.25,-291 797.25,-290.95"/>
<polygon fill="black" stroke="black" points="796.3,-285.94 796.2,-295.94 794.2,-295.92 794.3,-285.93 796.3,-285.94"/>
<polyline fill="none" stroke="black" points="797.25,-290.95 792.25,-290.91"/>
<ellipse fill="none" stroke="black" cx="787.75" cy="-290.86" rx="4" ry="4"/>
</g>
<!-- gdm.distribution.controllers.distribution_switch_controller.DistributionSwitchController -->
<g id="node9" class="node">
<title>gdm.distribution.controllers.distribution_switch_controller.DistributionSwitchController</title>
<g id="a_node9"><a xlink:title="gdm.distribution.controllers.distribution_switch_controller.DistributionSwitchController&#10;&#10;Interface for distribution switch controller.&#10;">
<polygon fill="none" stroke="black" points="780.75,-131 780.75,-153.5 978.75,-153.5 978.75,-131 780.75,-131"/>
<text text-anchor="start" x="794.62" y="-138.2" font-family="Times New Roman,Times,Liberation Serif,serif" font-weight="bold" font-size="14.00">DistributionSwitchController</text>
<polygon fill="none" stroke="black" points="780.75,-108.5 780.75,-131 857.25,-131 857.25,-108.5 780.75,-108.5"/>
<text text-anchor="start" x="807" y="-114.7" font-family="Times New Roman,Times,Liberation Serif,serif" font-size="14.00">uuid</text>
<polygon fill="none" stroke="black" points="857.25,-108.5 857.25,-131 978.75,-131 978.75,-108.5 857.25,-108.5"/>
<text text-anchor="start" x="901.12" y="-114.7" font-family="Times New Roman,Times,Liberation Serif,serif" font-size="14.00">UUID</text>
<polygon fill="none" stroke="black" points="780.75,-86 780.75,-108.5 857.25,-108.5 857.25,-86 780.75,-86"/>
<text text-anchor="start" x="804" y="-92.2" font-family="Times New Roman,Times,Liberation Serif,serif" font-size="14.00">name</text>
<polygon fill="none" stroke="black" points="857.25,-86 857.25,-108.5 978.75,-108.5 978.75,-86 857.25,-86"/>
<text text-anchor="start" x="911.25" y="-92.2" font-family="Times New Roman,Times,Liberation Serif,serif" font-size="14.00">str</text>
<polygon fill="none" stroke="black" points="780.75,-63.5 780.75,-86 857.25,-86 857.25,-63.5 780.75,-63.5"/>
<text text-anchor="start" x="804.38" y="-69.7" font-family="Times New Roman,Times,Liberation Serif,serif" font-size="14.00">delay</text>
<polygon fill="none" stroke="black" points="857.25,-63.5 857.25,-86 978.75,-86 978.75,-63.5 857.25,-63.5"/>
<text text-anchor="start" x="903.38" y="-69.7" font-family="Times New Roman,Times,Liberation Serif,serif" font-size="14.00">Time</text>
<polygon fill="none" stroke="black" points="780.75,-41 780.75,-63.5 857.25,-63.5 857.25,-41 780.75,-41"/>
<text text-anchor="start" x="783.75" y="-47.2" font-family="Times New Roman,Times,Liberation Serif,serif" font-size="14.00">normal_state</text>
<polygon fill="none" stroke="black" points="857.25,-41 857.25,-63.5 978.75,-63.5 978.75,-41 857.25,-41"/>
<text text-anchor="start" x="860.25" y="-47.2" font-family="Times New Roman,Times,Liberation Serif,serif" font-size="14.00">Literal[&#39;open&#39;, &#39;close&#39;]</text>
<polygon fill="none" stroke="black" points="780.75,-18.5 780.75,-41 857.25,-41 857.25,-18.5 780.75,-18.5"/>
<text text-anchor="start" x="793.12" y="-24.7" font-family="Times New Roman,Times,Liberation Serif,serif" font-size="14.00">is_locked</text>
<polygon fill="none" stroke="black" points="857.25,-18.5 857.25,-41 978.75,-41 978.75,-18.5 857.25,-18.5"/>
<text text-anchor="start" x="906" y="-24.7" font-family="Times New Roman,Times,Liberation Serif,serif" font-size="14.00">bool</text>
</a>
</g>
</g>
<!-- gdm.distribution.equipment.matrix_impedance_switch_equipment.MatrixImpedanceSwitchEquipment&#45;&gt;gdm.distribution.controllers.distribution_switch_controller.DistributionSwitchController -->
<g id="edge11" class="edge">
<title>gdm.distribution.equipment.matrix_impedance_switch_equipment.MatrixImpedanceSwitchEquipment:e&#45;&gt;gdm.distribution.controllers.distribution_switch_controller.DistributionSwitchController:w</title>
<path fill="none" stroke="black" d="M682.59,-263.16C735.64,-253.51 717.17,-163.99 762.35,-145.56"/>
<polyline fill="none" stroke="black" points="672.75,-264 677.73,-263.57"/>
<polyline fill="none" stroke="black" points="677.73,-263.57 682.71,-263.15"/>
<polyline fill="none" stroke="black" points="780.75,-142.25 775.83,-143.13"/>
<polygon fill="black" stroke="black" points="773.96,-138.39 775.73,-148.23 773.76,-148.59 771.99,-138.74 773.96,-138.39"/>
<polyline fill="none" stroke="black" points="775.83,-143.13 770.91,-144.02"/>
<ellipse fill="none" stroke="black" cx="766.48" cy="-144.82" rx="4" ry="4"/>
</g>
</g>
</svg>
