<?xml version="1.0" encoding="UTF-8" standalone="no"?>
<!DOCTYPE svg PUBLIC "-//W3C//DTD SVG 1.1//EN"
 "http://www.w3.org/Graphics/SVG/1.1/DTD/svg11.dtd">
<!-- Generated by graphviz version 12.2.1 (20241206.2353)
 -->
<!-- Title: Entity Relationship Diagram created by erdantic Pages: 1 -->
<svg width="614pt" height="404pt"
 viewBox="0.00 0.00 614.00 404.25" xmlns="http://www.w3.org/2000/svg" xmlns:xlink="http://www.w3.org/1999/xlink">
<g id="graph0" class="graph" transform="scale(1 1) rotate(0) translate(4 400.25)">
<title>Entity Relationship Diagram created by erdantic</title>
<polygon fill="white" stroke="none" points="-4,4 -4,-400.25 610,-400.25 610,4 -4,4"/>
<text text-anchor="middle" x="303" y="-5.95" font-family="Times New Roman,Times,Liberation Serif,serif" font-size="9.00" fill="#a8a8a8">Created by erdantic v1.0.5 &lt;https://github.com/drivendataorg/erdantic&gt;</text>
<!-- gdm.distribution.common.limitset.ThermalLimitSet -->
<g id="node1" class="node">
<title>gdm.distribution.common.limitset.ThermalLimitSet</title>
<g id="a_node1"><a xlink:title="gdm.distribution.common.limitset.ThermalLimitSet&#10;&#10;Interface for voltage limit set.&#10;">
<polygon fill="none" stroke="black" points="430.5,-279.75 430.5,-302.25 583.5,-302.25 583.5,-279.75 430.5,-279.75"/>
<text text-anchor="start" x="456" y="-286.95" font-family="Times New Roman,Times,Liberation Serif,serif" font-weight="bold" font-size="14.00">ThermalLimitSet</text>
<polygon fill="none" stroke="black" points="430.5,-257.25 430.5,-279.75 492.75,-279.75 492.75,-257.25 430.5,-257.25"/>
<text text-anchor="start" x="449.62" y="-263.45" font-family="Times New Roman,Times,Liberation Serif,serif" font-size="14.00">uuid</text>
<polygon fill="none" stroke="black" points="492.75,-257.25 492.75,-279.75 583.5,-279.75 583.5,-257.25 492.75,-257.25"/>
<text text-anchor="start" x="521.25" y="-263.45" font-family="Times New Roman,Times,Liberation Serif,serif" font-size="14.00">UUID</text>
<polygon fill="none" stroke="black" points="430.5,-234.75 430.5,-257.25 492.75,-257.25 492.75,-234.75 430.5,-234.75"/>
<text text-anchor="start" x="446.62" y="-240.95" font-family="Times New Roman,Times,Liberation Serif,serif" font-size="14.00">name</text>
<polygon fill="none" stroke="black" points="492.75,-234.75 492.75,-257.25 583.5,-257.25 583.5,-234.75 492.75,-234.75"/>
<text text-anchor="start" x="531.38" y="-240.95" font-family="Times New Roman,Times,Liberation Serif,serif" font-size="14.00">str</text>
<polygon fill="none" stroke="black" points="430.5,-212.25 430.5,-234.75 492.75,-234.75 492.75,-212.25 430.5,-212.25"/>
<text text-anchor="start" x="433.5" y="-218.45" font-family="Times New Roman,Times,Liberation Serif,serif" font-size="14.00">limit_type</text>
<polygon fill="none" stroke="black" points="492.75,-212.25 492.75,-234.75 583.5,-234.75 583.5,-212.25 492.75,-212.25"/>
<text text-anchor="start" x="508.88" y="-218.45" font-family="Times New Roman,Times,Liberation Serif,serif" font-size="14.00">LimitType</text>
<polygon fill="none" stroke="black" points="430.5,-189.75 430.5,-212.25 492.75,-212.25 492.75,-189.75 430.5,-189.75"/>
<text text-anchor="start" x="447" y="-195.95" font-family="Times New Roman,Times,Liberation Serif,serif" font-size="14.00">value</text>
<polygon fill="none" stroke="black" points="492.75,-189.75 492.75,-212.25 583.5,-212.25 583.5,-189.75 492.75,-189.75"/>
<text text-anchor="start" x="495.75" y="-195.95" font-family="Times New Roman,Times,Liberation Serif,serif" font-size="14.00">PositiveCurrent</text>
</a>
</g>
</g>
<!-- gdm.distribution.controllers.distribution_switch_controller.DistributionSwitchController -->
<g id="node2" class="node">
<title>gdm.distribution.controllers.distribution_switch_controller.DistributionSwitchController</title>
<g id="a_node2"><a xlink:title="gdm.distribution.controllers.distribution_switch_controller.DistributionSwitchController&#10;&#10;Interface for distribution switch controller.&#10;">
<polygon fill="none" stroke="black" points="408,-131 408,-153.5 606,-153.5 606,-131 408,-131"/>
<text text-anchor="start" x="421.88" y="-138.2" font-family="Times New Roman,Times,Liberation Serif,serif" font-weight="bold" font-size="14.00">DistributionSwitchController</text>
<polygon fill="none" stroke="black" points="408,-108.5 408,-131 484.5,-131 484.5,-108.5 408,-108.5"/>
<text text-anchor="start" x="434.25" y="-114.7" font-family="Times New Roman,Times,Liberation Serif,serif" font-size="14.00">uuid</text>
<polygon fill="none" stroke="black" points="484.5,-108.5 484.5,-131 606,-131 606,-108.5 484.5,-108.5"/>
<text text-anchor="start" x="528.38" y="-114.7" font-family="Times New Roman,Times,Liberation Serif,serif" font-size="14.00">UUID</text>
<polygon fill="none" stroke="black" points="408,-86 408,-108.5 484.5,-108.5 484.5,-86 408,-86"/>
<text text-anchor="start" x="431.25" y="-92.2" font-family="Times New Roman,Times,Liberation Serif,serif" font-size="14.00">name</text>
<polygon fill="none" stroke="black" points="484.5,-86 484.5,-108.5 606,-108.5 606,-86 484.5,-86"/>
<text text-anchor="start" x="538.5" y="-92.2" font-family="Times New Roman,Times,Liberation Serif,serif" font-size="14.00">str</text>
<polygon fill="none" stroke="black" points="408,-63.5 408,-86 484.5,-86 484.5,-63.5 408,-63.5"/>
<text text-anchor="start" x="431.62" y="-69.7" font-family="Times New Roman,Times,Liberation Serif,serif" font-size="14.00">delay</text>
<polygon fill="none" stroke="black" points="484.5,-63.5 484.5,-86 606,-86 606,-63.5 484.5,-63.5"/>
<text text-anchor="start" x="530.62" y="-69.7" font-family="Times New Roman,Times,Liberation Serif,serif" font-size="14.00">Time</text>
<polygon fill="none" stroke="black" points="408,-41 408,-63.5 484.5,-63.5 484.5,-41 408,-41"/>
<text text-anchor="start" x="411" y="-47.2" font-family="Times New Roman,Times,Liberation Serif,serif" font-size="14.00">normal_state</text>
<polygon fill="none" stroke="black" points="484.5,-41 484.5,-63.5 606,-63.5 606,-41 484.5,-41"/>
<text text-anchor="start" x="487.5" y="-47.2" font-family="Times New Roman,Times,Liberation Serif,serif" font-size="14.00">Literal[&#39;open&#39;, &#39;close&#39;]</text>
<polygon fill="none" stroke="black" points="408,-18.5 408,-41 484.5,-41 484.5,-18.5 408,-18.5"/>
<text text-anchor="start" x="420.38" y="-24.7" font-family="Times New Roman,Times,Liberation Serif,serif" font-size="14.00">is_locked</text>
<polygon fill="none" stroke="black" points="484.5,-18.5 484.5,-41 606,-41 606,-18.5 484.5,-18.5"/>
<text text-anchor="start" x="533.25" y="-24.7" font-family="Times New Roman,Times,Liberation Serif,serif" font-size="14.00">bool</text>
</a>
</g>
</g>
<!-- gdm.distribution.equipment.matrix_impedance_switch_equipment.MatrixImpedanceSwitchEquipment -->
<g id="node3" class="node">
<title>gdm.distribution.equipment.matrix_impedance_switch_equipment.MatrixImpedanceSwitchEquipment</title>
<g id="a_node3"><a xlink:title="gdm.distribution.equipment.matrix_impedance_switch_equipment.MatrixImpedanceSwitchEquipment&#10;&#10;Interface for matrix impedance based recloser equipment.&#10;">
<polygon fill="none" stroke="black" points="0,-373.75 0,-396.25 300,-396.25 300,-373.75 0,-373.75"/>
<text text-anchor="start" x="45" y="-380.95" font-family="Times New Roman,Times,Liberation Serif,serif" font-weight="bold" font-size="14.00">MatrixImpedanceSwitchEquipment</text>
<polygon fill="none" stroke="black" points="0,-351.25 0,-373.75 79.5,-373.75 79.5,-351.25 0,-351.25"/>
<text text-anchor="start" x="27.75" y="-357.45" font-family="Times New Roman,Times,Liberation Serif,serif" font-size="14.00">uuid</text>
<polygon fill="none" stroke="black" points="79.5,-351.25 79.5,-373.75 300,-373.75 300,-351.25 79.5,-351.25"/>
<text text-anchor="start" x="172.88" y="-357.45" font-family="Times New Roman,Times,Liberation Serif,serif" font-size="14.00">UUID</text>
<polygon fill="none" stroke="black" points="0,-328.75 0,-351.25 79.5,-351.25 79.5,-328.75 0,-328.75"/>
<text text-anchor="start" x="24.75" y="-334.95" font-family="Times New Roman,Times,Liberation Serif,serif" font-size="14.00">name</text>
<polygon fill="none" stroke="black" points="79.5,-328.75 79.5,-351.25 300,-351.25 300,-328.75 79.5,-328.75"/>
<text text-anchor="start" x="183" y="-334.95" font-family="Times New Roman,Times,Liberation Serif,serif" font-size="14.00">str</text>
<polygon fill="none" stroke="black" points="0,-306.25 0,-328.75 79.5,-328.75 79.5,-306.25 0,-306.25"/>
<text text-anchor="start" x="16.12" y="-312.45" font-family="Times New Roman,Times,Liberation Serif,serif" font-size="14.00">r_matrix</text>
<polygon fill="none" stroke="black" points="79.5,-306.25 79.5,-328.75 300,-328.75 300,-306.25 79.5,-306.25"/>
<text text-anchor="start" x="133.12" y="-312.45" font-family="Times New Roman,Times,Liberation Serif,serif" font-size="14.00">ResistancePULength</text>
<polygon fill="none" stroke="black" points="0,-283.75 0,-306.25 79.5,-306.25 79.5,-283.75 0,-283.75"/>
<text text-anchor="start" x="15" y="-289.95" font-family="Times New Roman,Times,Liberation Serif,serif" font-size="14.00">x_matrix</text>
<polygon fill="none" stroke="black" points="79.5,-283.75 79.5,-306.25 300,-306.25 300,-283.75 79.5,-283.75"/>
<text text-anchor="start" x="134.25" y="-289.95" font-family="Times New Roman,Times,Liberation Serif,serif" font-size="14.00">ReactancePULength</text>
<polygon fill="none" stroke="black" points="0,-261.25 0,-283.75 79.5,-283.75 79.5,-261.25 0,-261.25"/>
<text text-anchor="start" x="15.38" y="-267.45" font-family="Times New Roman,Times,Liberation Serif,serif" font-size="14.00">c_matrix</text>
<polygon fill="none" stroke="black" points="79.5,-261.25 79.5,-283.75 300,-283.75 300,-261.25 79.5,-261.25"/>
<text text-anchor="start" x="129" y="-267.45" font-family="Times New Roman,Times,Liberation Serif,serif" font-size="14.00">CapacitancePULength</text>
<polygon fill="none" stroke="black" points="0,-238.75 0,-261.25 79.5,-261.25 79.5,-238.75 0,-238.75"/>
<text text-anchor="start" x="14.62" y="-244.95" font-family="Times New Roman,Times,Liberation Serif,serif" font-size="14.00">ampacity</text>
<polygon fill="none" stroke="black" points="79.5,-238.75 79.5,-261.25 300,-261.25 300,-238.75 79.5,-238.75"/>
<text text-anchor="start" x="147.38" y="-244.95" font-family="Times New Roman,Times,Liberation Serif,serif" font-size="14.00">PositiveCurrent</text>
<polygon fill="none" stroke="black" points="0,-216.25 0,-238.75 79.5,-238.75 79.5,-216.25 0,-216.25"/>
<text text-anchor="start" x="3" y="-222.45" font-family="Times New Roman,Times,Liberation Serif,serif" font-size="14.00">loading_limit</text>
<polygon fill="none" stroke="black" points="79.5,-216.25 79.5,-238.75 300,-238.75 300,-216.25 79.5,-216.25"/>
<text text-anchor="start" x="114.38" y="-222.45" font-family="Times New Roman,Times,Liberation Serif,serif" font-size="14.00">Optional[ThermalLimitSet]</text>
<polygon fill="none" stroke="black" points="0,-193.75 0,-216.25 79.5,-216.25 79.5,-193.75 0,-193.75"/>
<text text-anchor="start" x="13.5" y="-199.95" font-family="Times New Roman,Times,Liberation Serif,serif" font-size="14.00">controller</text>
<polygon fill="none" stroke="black" points="79.5,-193.75 79.5,-216.25 300,-216.25 300,-193.75 79.5,-193.75"/>
<text text-anchor="start" x="82.5" y="-199.95" font-family="Times New Roman,Times,Liberation Serif,serif" font-size="14.00">Optional[DistributionSwitchController]</text>
</a>
</g>
</g>
<!-- gdm.distribution.equipment.matrix_impedance_switch_equipment.MatrixImpedanceSwitchEquipment&#45;&gt;gdm.distribution.common.limitset.ThermalLimitSet -->
<g id="edge1" class="edge">
<title>gdm.distribution.equipment.matrix_impedance_switch_equipment.MatrixImpedanceSwitchEquipment:e&#45;&gt;gdm.distribution.common.limitset.ThermalLimitSet:w</title>
<path fill="none" stroke="black" d="M309.97,-228.05C358.16,-233.54 367.21,-278.59 410.62,-288.9"/>
<polyline fill="none" stroke="black" points="300,-227.5 304.99,-227.77"/>
<polyline fill="none" stroke="black" points="304.99,-227.77 309.98,-228.05"/>
<polyline fill="none" stroke="black" points="429.5,-291 424.53,-290.45"/>
<polygon fill="black" stroke="black" points="424.09,-285.37 422.98,-295.31 421,-295.09 422.1,-285.15 424.09,-285.37"/>
<polyline fill="none" stroke="black" points="424.53,-290.45 419.56,-289.9"/>
<ellipse fill="none" stroke="black" cx="415.09" cy="-289.4" rx="4" ry="4"/>
</g>
<!-- gdm.distribution.equipment.matrix_impedance_switch_equipment.MatrixImpedanceSwitchEquipment&#45;&gt;gdm.distribution.controllers.distribution_switch_controller.DistributionSwitchController -->
<g id="edge2" class="edge">
<title>gdm.distribution.equipment.matrix_impedance_switch_equipment.MatrixImpedanceSwitchEquipment:e&#45;&gt;gdm.distribution.controllers.distribution_switch_controller.DistributionSwitchController:w</title>
<path fill="none" stroke="black" d="M309.75,-204.3C349.13,-198.34 354.95,-156.43 389.29,-145.08"/>
<polyline fill="none" stroke="black" points="300,-205 304.99,-204.64"/>
<polyline fill="none" stroke="black" points="304.99,-204.64 309.97,-204.28"/>
<polyline fill="none" stroke="black" points="408,-142.25 403.06,-143"/>
<polygon fill="black" stroke="black" points="401.32,-138.2 402.81,-148.09 400.84,-148.39 399.34,-138.5 401.32,-138.2"/>
<polyline fill="none" stroke="black" points="403.06,-143 398.11,-143.74"/>
<ellipse fill="none" stroke="black" cx="393.66" cy="-144.42" rx="4" ry="4"/>
</g>
</g>
</svg>
