<?xml version="1.0" encoding="UTF-8" standalone="no"?>
<!DOCTYPE svg PUBLIC "-//W3C//DTD SVG 1.1//EN"
 "http://www.w3.org/Graphics/SVG/1.1/DTD/svg11.dtd">
<!-- Generated by graphviz version 9.0.0 (0)
 -->
<!-- Title: Entity Relationship Diagram created by erdantic Pages: 1 -->
<svg width="1159pt" height="888pt"
 viewBox="0.00 0.00 1159.00 887.50" xmlns="http://www.w3.org/2000/svg" xmlns:xlink="http://www.w3.org/1999/xlink">
<g id="graph0" class="graph" transform="scale(1 1) rotate(0) translate(4 883.5)">
<title>Entity Relationship Diagram created by erdantic</title>
<polygon fill="white" stroke="none" points="-4,4 -4,-883.5 1155,-883.5 1155,4 -4,4"/>
<text text-anchor="middle" x="575.5" y="-5.95" font-family="Times New Roman,Times,Liberation Serif,serif" font-size="9.00" fill="#a8a8a8">Created by erdantic v0.6.0 &lt;https://github.com/drivendataorg/erdantic&gt;</text>
<!-- gdm.distribution.components.distribution_bus.DistributionBus -->
<g id="node1" class="node">
<title>gdm.distribution.components.distribution_bus.DistributionBus</title>
<g id="a_node1"><a xlink:title="gdm.distribution.components.distribution_bus.DistributionBus&#10;&#10;Interface for distribution bus.&#10;&#10;Examples:&#10; &#160;&#160;&#160;&gt;&gt;&gt; from gdm import DistributionBus&#10; &#160;&#160;&#160;&gt;&gt;&gt; DistributionBus.example()&#10;">
<polygon fill="none" stroke="black" points="360,-659.5 360,-681.5 641,-681.5 641,-659.5 360,-659.5"/>
<text text-anchor="start" x="454.38" y="-666.2" font-family="Times New Roman,Times,Liberation Serif,serif" font-weight="bold" font-size="14.00">DistributionBus</text>
<polygon fill="none" stroke="black" points="360,-637.5 360,-659.5 457,-659.5 457,-637.5 360,-637.5"/>
<text text-anchor="start" x="396.5" y="-643.2" font-family="Times New Roman,Times,Liberation Serif,serif" font-size="14.00">uuid</text>
<polygon fill="none" stroke="black" points="457,-637.5 457,-659.5 641,-659.5 641,-637.5 457,-637.5"/>
<text text-anchor="start" x="532.12" y="-643.2" font-family="Times New Roman,Times,Liberation Serif,serif" font-size="14.00">UUID</text>
<polygon fill="none" stroke="black" points="360,-615.5 360,-637.5 457,-637.5 457,-615.5 360,-615.5"/>
<text text-anchor="start" x="393.5" y="-621.2" font-family="Times New Roman,Times,Liberation Serif,serif" font-size="14.00">name</text>
<polygon fill="none" stroke="black" points="457,-615.5 457,-637.5 641,-637.5 641,-615.5 457,-615.5"/>
<text text-anchor="start" x="542.25" y="-621.2" font-family="Times New Roman,Times,Liberation Serif,serif" font-size="14.00">str</text>
<polygon fill="none" stroke="black" points="360,-593.5 360,-615.5 457,-615.5 457,-593.5 360,-593.5"/>
<text text-anchor="start" x="381.12" y="-599.2" font-family="Times New Roman,Times,Liberation Serif,serif" font-size="14.00">substation</text>
<polygon fill="none" stroke="black" points="457,-593.5 457,-615.5 641,-615.5 641,-593.5 457,-593.5"/>
<text text-anchor="start" x="459.75" y="-599.2" font-family="Times New Roman,Times,Liberation Serif,serif" font-size="14.00">Optional[DistributionSubstation]</text>
<polygon fill="none" stroke="black" points="360,-571.5 360,-593.5 457,-593.5 457,-571.5 360,-571.5"/>
<text text-anchor="start" x="391.62" y="-577.2" font-family="Times New Roman,Times,Liberation Serif,serif" font-size="14.00">feeder</text>
<polygon fill="none" stroke="black" points="457,-571.5 457,-593.5 641,-593.5 641,-571.5 457,-571.5"/>
<text text-anchor="start" x="469.88" y="-577.2" font-family="Times New Roman,Times,Liberation Serif,serif" font-size="14.00">Optional[DistributionFeeder]</text>
<polygon fill="none" stroke="black" points="360,-549.5 360,-571.5 457,-571.5 457,-549.5 360,-549.5"/>
<text text-anchor="start" x="373.62" y="-555.2" font-family="Times New Roman,Times,Liberation Serif,serif" font-size="14.00">voltage_type</text>
<polygon fill="none" stroke="black" points="457,-549.5 457,-571.5 641,-571.5 641,-549.5 457,-549.5"/>
<text text-anchor="start" x="512.25" y="-555.2" font-family="Times New Roman,Times,Liberation Serif,serif" font-size="14.00">VoltageTypes</text>
<polygon fill="none" stroke="black" points="360,-527.5 360,-549.5 457,-549.5 457,-527.5 360,-527.5"/>
<text text-anchor="start" x="390.5" y="-533.2" font-family="Times New Roman,Times,Liberation Serif,serif" font-size="14.00">phases</text>
<polygon fill="none" stroke="black" points="457,-527.5 457,-549.5 641,-549.5 641,-527.5 457,-527.5"/>
<text text-anchor="start" x="520.5" y="-533.2" font-family="Times New Roman,Times,Liberation Serif,serif" font-size="14.00">list[Phase]</text>
<polygon fill="none" stroke="black" points="360,-505.5 360,-527.5 457,-527.5 457,-505.5 360,-505.5"/>
<text text-anchor="start" x="372.88" y="-511.2" font-family="Times New Roman,Times,Liberation Serif,serif" font-size="14.00">voltagelimits</text>
<polygon fill="none" stroke="black" points="457,-505.5 457,-527.5 641,-527.5 641,-505.5 457,-505.5"/>
<text text-anchor="start" x="491.62" y="-511.2" font-family="Times New Roman,Times,Liberation Serif,serif" font-size="14.00">list[VoltageLimitSet]</text>
<polygon fill="none" stroke="black" points="360,-483.5 360,-505.5 457,-505.5 457,-483.5 360,-483.5"/>
<text text-anchor="start" x="362.75" y="-489.2" font-family="Times New Roman,Times,Liberation Serif,serif" font-size="14.00">nominal_voltage</text>
<polygon fill="none" stroke="black" points="457,-483.5 457,-505.5 641,-505.5 641,-483.5 457,-483.5"/>
<text text-anchor="start" x="506.62" y="-489.2" font-family="Times New Roman,Times,Liberation Serif,serif" font-size="14.00">PositiveVoltage</text>
<polygon fill="none" stroke="black" points="360,-461.5 360,-483.5 457,-483.5 457,-461.5 360,-461.5"/>
<text text-anchor="start" x="380" y="-467.2" font-family="Times New Roman,Times,Liberation Serif,serif" font-size="14.00">coordinate</text>
<polygon fill="none" stroke="black" points="457,-461.5 457,-483.5 641,-483.5 641,-461.5 457,-461.5"/>
<text text-anchor="start" x="496.88" y="-467.2" font-family="Times New Roman,Times,Liberation Serif,serif" font-size="14.00">Optional[Location]</text>
</a>
</g>
</g>
<!-- gdm.distribution.components.distribution_feeder.DistributionFeeder -->
<g id="node2" class="node">
<title>gdm.distribution.components.distribution_feeder.DistributionFeeder</title>
<g id="a_node2"><a xlink:title="gdm.distribution.components.distribution_feeder.DistributionFeeder&#10;&#10;Class interface for distribution feeder.&#10;">
<polygon fill="none" stroke="black" points="1035,-725.5 1035,-747.5 1151,-747.5 1151,-725.5 1035,-725.5"/>
<text text-anchor="start" x="1037.88" y="-732.2" font-family="Times New Roman,Times,Liberation Serif,serif" font-weight="bold" font-size="14.00">DistributionFeeder</text>
<polygon fill="none" stroke="black" points="1035,-703.5 1035,-725.5 1091,-725.5 1091,-703.5 1035,-703.5"/>
<text text-anchor="start" x="1051" y="-709.2" font-family="Times New Roman,Times,Liberation Serif,serif" font-size="14.00">uuid</text>
<polygon fill="none" stroke="black" points="1091,-703.5 1091,-725.5 1151,-725.5 1151,-703.5 1091,-703.5"/>
<text text-anchor="start" x="1104.12" y="-709.2" font-family="Times New Roman,Times,Liberation Serif,serif" font-size="14.00">UUID</text>
<polygon fill="none" stroke="black" points="1035,-681.5 1035,-703.5 1091,-703.5 1091,-681.5 1035,-681.5"/>
<text text-anchor="start" x="1048" y="-687.2" font-family="Times New Roman,Times,Liberation Serif,serif" font-size="14.00">name</text>
<polygon fill="none" stroke="black" points="1091,-681.5 1091,-703.5 1151,-703.5 1151,-681.5 1091,-681.5"/>
<text text-anchor="start" x="1114.25" y="-687.2" font-family="Times New Roman,Times,Liberation Serif,serif" font-size="14.00">str</text>
</a>
</g>
</g>
<!-- gdm.distribution.components.distribution_bus.DistributionBus&#45;&gt;gdm.distribution.components.distribution_feeder.DistributionFeeder -->
<g id="edge1" class="edge">
<title>gdm.distribution.components.distribution_bus.DistributionBus:e&#45;&gt;gdm.distribution.components.distribution_feeder.DistributionFeeder:w</title>
<path fill="none" stroke="black" d="M650.73,-583C742.26,-591.94 919.31,-718.5 1016.18,-734.78"/>
<polyline fill="none" stroke="black" points="641,-582.5 645.99,-582.76"/>
<polyline fill="none" stroke="black" points="645.99,-582.76 650.99,-583.01"/>
<polyline fill="none" stroke="black" points="1035,-736.5 1030.02,-736.05"/>
<polygon fill="black" stroke="black" points="1029.48,-730.97 1028.57,-740.93 1026.58,-740.75 1027.49,-730.79 1029.48,-730.97"/>
<polyline fill="none" stroke="black" points="1030.02,-736.05 1025.04,-735.59"/>
<ellipse fill="none" stroke="black" cx="1020.56" cy="-735.18" rx="4" ry="4"/>
</g>
<!-- gdm.distribution.components.distribution_substation.DistributionSubstation -->
<g id="node3" class="node">
<title>gdm.distribution.components.distribution_substation.DistributionSubstation</title>
<g id="a_node3"><a xlink:title="gdm.distribution.components.distribution_substation.DistributionSubstation&#10;&#10;Class interface for distribution feeder.&#10;">
<polygon fill="none" stroke="black" points="749,-857.5 749,-879.5 927,-879.5 927,-857.5 749,-857.5"/>
<text text-anchor="start" x="772" y="-864.2" font-family="Times New Roman,Times,Liberation Serif,serif" font-weight="bold" font-size="14.00">DistributionSubstation</text>
<polygon fill="none" stroke="black" points="749,-835.5 749,-857.5 794,-857.5 794,-835.5 749,-835.5"/>
<text text-anchor="start" x="759.5" y="-841.2" font-family="Times New Roman,Times,Liberation Serif,serif" font-size="14.00">uuid</text>
<polygon fill="none" stroke="black" points="794,-835.5 794,-857.5 927,-857.5 927,-835.5 794,-835.5"/>
<text text-anchor="start" x="843.62" y="-841.2" font-family="Times New Roman,Times,Liberation Serif,serif" font-size="14.00">UUID</text>
<polygon fill="none" stroke="black" points="749,-813.5 749,-835.5 794,-835.5 794,-813.5 749,-813.5"/>
<text text-anchor="start" x="756.5" y="-819.2" font-family="Times New Roman,Times,Liberation Serif,serif" font-size="14.00">name</text>
<polygon fill="none" stroke="black" points="794,-813.5 794,-835.5 927,-835.5 927,-813.5 794,-813.5"/>
<text text-anchor="start" x="853.75" y="-819.2" font-family="Times New Roman,Times,Liberation Serif,serif" font-size="14.00">str</text>
<polygon fill="none" stroke="black" points="749,-791.5 749,-813.5 794,-813.5 794,-791.5 749,-791.5"/>
<text text-anchor="start" x="752" y="-797.2" font-family="Times New Roman,Times,Liberation Serif,serif" font-size="14.00">feeders</text>
<polygon fill="none" stroke="black" points="794,-791.5 794,-813.5 927,-813.5 927,-791.5 794,-791.5"/>
<text text-anchor="start" x="796.75" y="-797.2" font-family="Times New Roman,Times,Liberation Serif,serif" font-size="14.00">list[DistributionFeeder]</text>
</a>
</g>
</g>
<!-- gdm.distribution.components.distribution_bus.DistributionBus&#45;&gt;gdm.distribution.components.distribution_substation.DistributionSubstation -->
<g id="edge2" class="edge">
<title>gdm.distribution.components.distribution_bus.DistributionBus:e&#45;&gt;gdm.distribution.components.distribution_substation.DistributionSubstation:w</title>
<path fill="none" stroke="black" d="M650.8,-605.08C753.72,-617.95 640.36,-840.5 730.16,-866.11"/>
<polyline fill="none" stroke="black" points="641,-604.5 645.99,-604.8"/>
<polyline fill="none" stroke="black" points="645.99,-604.8 650.98,-605.09"/>
<polyline fill="none" stroke="black" points="749,-868.5 744.04,-867.87"/>
<polygon fill="black" stroke="black" points="743.68,-862.78 742.42,-872.7 740.43,-872.45 741.69,-862.53 743.68,-862.78"/>
<polyline fill="none" stroke="black" points="744.04,-867.87 739.08,-867.24"/>
<ellipse fill="none" stroke="black" cx="734.62" cy="-866.67" rx="4" ry="4"/>
</g>
<!-- gdm.distribution.limitset.VoltageLimitSet -->
<g id="node4" class="node">
<title>gdm.distribution.limitset.VoltageLimitSet</title>
<g id="a_node4"><a xlink:title="gdm.distribution.limitset.VoltageLimitSet&#10;&#10;Interface for voltage limit set.&#10;">
<polygon fill="none" stroke="black" points="762,-571.5 762,-593.5 914,-593.5 914,-571.5 762,-571.5"/>
<text text-anchor="start" x="790.75" y="-578.2" font-family="Times New Roman,Times,Liberation Serif,serif" font-weight="bold" font-size="14.00">VoltageLimitSet</text>
<polygon fill="none" stroke="black" points="762,-549.5 762,-571.5 824,-571.5 824,-549.5 762,-549.5"/>
<text text-anchor="start" x="781" y="-555.2" font-family="Times New Roman,Times,Liberation Serif,serif" font-size="14.00">uuid</text>
<polygon fill="none" stroke="black" points="824,-549.5 824,-571.5 914,-571.5 914,-549.5 824,-549.5"/>
<text text-anchor="start" x="852.12" y="-555.2" font-family="Times New Roman,Times,Liberation Serif,serif" font-size="14.00">UUID</text>
<polygon fill="none" stroke="black" points="762,-527.5 762,-549.5 824,-549.5 824,-527.5 762,-527.5"/>
<text text-anchor="start" x="778" y="-533.2" font-family="Times New Roman,Times,Liberation Serif,serif" font-size="14.00">name</text>
<polygon fill="none" stroke="black" points="824,-527.5 824,-549.5 914,-549.5 914,-527.5 824,-527.5"/>
<text text-anchor="start" x="862.25" y="-533.2" font-family="Times New Roman,Times,Liberation Serif,serif" font-size="14.00">str</text>
<polygon fill="none" stroke="black" points="762,-505.5 762,-527.5 824,-527.5 824,-505.5 762,-505.5"/>
<text text-anchor="start" x="764.88" y="-511.2" font-family="Times New Roman,Times,Liberation Serif,serif" font-size="14.00">limit_type</text>
<polygon fill="none" stroke="black" points="824,-505.5 824,-527.5 914,-527.5 914,-505.5 824,-505.5"/>
<text text-anchor="start" x="840.12" y="-511.2" font-family="Times New Roman,Times,Liberation Serif,serif" font-size="14.00">LimitType</text>
<polygon fill="none" stroke="black" points="762,-483.5 762,-505.5 824,-505.5 824,-483.5 762,-483.5"/>
<text text-anchor="start" x="778.38" y="-489.2" font-family="Times New Roman,Times,Liberation Serif,serif" font-size="14.00">value</text>
<polygon fill="none" stroke="black" points="824,-483.5 824,-505.5 914,-505.5 914,-483.5 824,-483.5"/>
<text text-anchor="start" x="826.62" y="-489.2" font-family="Times New Roman,Times,Liberation Serif,serif" font-size="14.00">PositiveVoltage</text>
</a>
</g>
</g>
<!-- gdm.distribution.components.distribution_bus.DistributionBus&#45;&gt;gdm.distribution.limitset.VoltageLimitSet -->
<g id="edge3" class="edge">
<title>gdm.distribution.components.distribution_bus.DistributionBus:e&#45;&gt;gdm.distribution.limitset.VoltageLimitSet:w</title>
<path fill="none" stroke="black" d="M650.76,-517.11C696.68,-523.09 702.72,-571.11 745.12,-580.8"/>
<polyline fill="none" stroke="black" points="641,-516.5 645.99,-516.81"/>
<polyline fill="none" stroke="black" points="645.99,-516.81 650.98,-517.12"/>
<polygon fill="black" stroke="black" points="750.72,-581.4 760.19,-586.94 756.03,-581.97 760.33,-582.43 760.33,-582.43 760.33,-582.43 756.03,-581.97 761.15,-577.99 750.72,-581.4"/>
<polyline fill="none" stroke="black" points="749.51,-581.27 744.54,-580.74"/>
</g>
<!-- infrasys.location.Location -->
<g id="node5" class="node">
<title>infrasys.location.Location</title>
<g id="a_node5"><a xlink:title="infrasys.location.Location&#10;&#10;Specifies geographic location.&#10;">
<polygon fill="none" stroke="black" points="790.5,-425.5 790.5,-447.5 885.5,-447.5 885.5,-425.5 790.5,-425.5"/>
<text text-anchor="start" x="812.5" y="-432.2" font-family="Times New Roman,Times,Liberation Serif,serif" font-weight="bold" font-size="14.00">Location</text>
<polygon fill="none" stroke="black" points="790.5,-403.5 790.5,-425.5 826.5,-425.5 826.5,-403.5 790.5,-403.5"/>
<text text-anchor="start" x="796.5" y="-409.2" font-family="Times New Roman,Times,Liberation Serif,serif" font-size="14.00">uuid</text>
<polygon fill="none" stroke="black" points="826.5,-403.5 826.5,-425.5 885.5,-425.5 885.5,-403.5 826.5,-403.5"/>
<text text-anchor="start" x="839.12" y="-409.2" font-family="Times New Roman,Times,Liberation Serif,serif" font-size="14.00">UUID</text>
<polygon fill="none" stroke="black" points="790.5,-381.5 790.5,-403.5 826.5,-403.5 826.5,-381.5 790.5,-381.5"/>
<text text-anchor="start" x="793.5" y="-387.2" font-family="Times New Roman,Times,Liberation Serif,serif" font-size="14.00">name</text>
<polygon fill="none" stroke="black" points="826.5,-381.5 826.5,-403.5 885.5,-403.5 885.5,-381.5 826.5,-381.5"/>
<text text-anchor="start" x="849.25" y="-387.2" font-family="Times New Roman,Times,Liberation Serif,serif" font-size="14.00">str</text>
<polygon fill="none" stroke="black" points="790.5,-359.5 790.5,-381.5 826.5,-381.5 826.5,-359.5 790.5,-359.5"/>
<text text-anchor="start" x="805.12" y="-365.2" font-family="Times New Roman,Times,Liberation Serif,serif" font-size="14.00">x</text>
<polygon fill="none" stroke="black" points="826.5,-359.5 826.5,-381.5 885.5,-381.5 885.5,-359.5 826.5,-359.5"/>
<text text-anchor="start" x="843.62" y="-365.2" font-family="Times New Roman,Times,Liberation Serif,serif" font-size="14.00">float</text>
<polygon fill="none" stroke="black" points="790.5,-337.5 790.5,-359.5 826.5,-359.5 826.5,-337.5 790.5,-337.5"/>
<text text-anchor="start" x="805.12" y="-343.2" font-family="Times New Roman,Times,Liberation Serif,serif" font-size="14.00">y</text>
<polygon fill="none" stroke="black" points="826.5,-337.5 826.5,-359.5 885.5,-359.5 885.5,-337.5 826.5,-337.5"/>
<text text-anchor="start" x="843.62" y="-343.2" font-family="Times New Roman,Times,Liberation Serif,serif" font-size="14.00">float</text>
<polygon fill="none" stroke="black" points="790.5,-315.5 790.5,-337.5 826.5,-337.5 826.5,-315.5 790.5,-315.5"/>
<text text-anchor="start" x="800.62" y="-321.2" font-family="Times New Roman,Times,Liberation Serif,serif" font-size="14.00">crs</text>
<polygon fill="none" stroke="black" points="826.5,-315.5 826.5,-337.5 885.5,-337.5 885.5,-315.5 826.5,-315.5"/>
<text text-anchor="start" x="829.38" y="-321.2" font-family="Times New Roman,Times,Liberation Serif,serif" font-size="14.00">str | None</text>
</a>
</g>
</g>
<!-- gdm.distribution.components.distribution_bus.DistributionBus&#45;&gt;infrasys.location.Location -->
<g id="edge4" class="edge">
<title>gdm.distribution.components.distribution_bus.DistributionBus:e&#45;&gt;infrasys.location.Location:w</title>
<path fill="none" stroke="black" d="M650.9,-472.23C703.87,-469.28 721.16,-443.02 770.21,-437.51"/>
<polyline fill="none" stroke="black" points="641,-472.5 646,-472.36"/>
<polyline fill="none" stroke="black" points="646,-472.36 651,-472.23"/>
<polyline fill="none" stroke="black" points="789,-436.5 784.01,-436.77"/>
<polygon fill="black" stroke="black" points="782.74,-431.83 783.28,-441.81 781.28,-441.92 780.74,-431.94 782.74,-431.83"/>
<polyline fill="none" stroke="black" points="784.01,-436.77 779.01,-437.04"/>
<ellipse fill="none" stroke="black" cx="774.52" cy="-437.28" rx="4" ry="4"/>
</g>
<!-- gdm.distribution.components.distribution_substation.DistributionSubstation&#45;&gt;gdm.distribution.components.distribution_feeder.DistributionFeeder -->
<g id="edge5" class="edge">
<title>gdm.distribution.components.distribution_substation.DistributionSubstation:e&#45;&gt;gdm.distribution.components.distribution_feeder.DistributionFeeder:w</title>
<path fill="none" stroke="black" d="M936.87,-801.76C977.71,-795.33 981.81,-748.99 1018.99,-738.58"/>
<polyline fill="none" stroke="black" points="927,-802.5 931.99,-802.13"/>
<polyline fill="none" stroke="black" points="931.99,-802.13 936.97,-801.75"/>
<polygon fill="black" stroke="black" points="1024.75,-737.83 1035.25,-741.01 1030.04,-737.14 1034.34,-736.59 1034.34,-736.59 1034.34,-736.59 1030.04,-737.14 1034.09,-732.08 1024.75,-737.83"/>
<polyline fill="none" stroke="black" points="1023.54,-737.98 1018.58,-738.63"/>
</g>
<!-- gdm.distribution.components.matrix_impedance_fuse.MatrixImpedanceFuse -->
<g id="node6" class="node">
<title>gdm.distribution.components.matrix_impedance_fuse.MatrixImpedanceFuse</title>
<g id="a_node6"><a xlink:title="gdm.distribution.components.matrix_impedance_fuse.MatrixImpedanceFuse&#10;&#10;Interface for distribution fuse.&#10;">
<polygon fill="none" stroke="black" points="0,-802.5 0,-824.5 252,-824.5 252,-802.5 0,-802.5"/>
<text text-anchor="start" x="59.62" y="-809.2" font-family="Times New Roman,Times,Liberation Serif,serif" font-weight="bold" font-size="14.00">MatrixImpedanceFuse</text>
<polygon fill="none" stroke="black" points="0,-780.5 0,-802.5 63,-802.5 63,-780.5 0,-780.5"/>
<text text-anchor="start" x="19.5" y="-786.2" font-family="Times New Roman,Times,Liberation Serif,serif" font-size="14.00">uuid</text>
<polygon fill="none" stroke="black" points="63,-780.5 63,-802.5 252,-802.5 252,-780.5 63,-780.5"/>
<text text-anchor="start" x="140.62" y="-786.2" font-family="Times New Roman,Times,Liberation Serif,serif" font-size="14.00">UUID</text>
<polygon fill="none" stroke="black" points="0,-758.5 0,-780.5 63,-780.5 63,-758.5 0,-758.5"/>
<text text-anchor="start" x="16.5" y="-764.2" font-family="Times New Roman,Times,Liberation Serif,serif" font-size="14.00">name</text>
<polygon fill="none" stroke="black" points="63,-758.5 63,-780.5 252,-780.5 252,-758.5 63,-758.5"/>
<text text-anchor="start" x="150.75" y="-764.2" font-family="Times New Roman,Times,Liberation Serif,serif" font-size="14.00">str</text>
<polygon fill="none" stroke="black" points="0,-736.5 0,-758.5 63,-758.5 63,-736.5 0,-736.5"/>
<text text-anchor="start" x="4.12" y="-742.2" font-family="Times New Roman,Times,Liberation Serif,serif" font-size="14.00">substation</text>
<polygon fill="none" stroke="black" points="63,-736.5 63,-758.5 252,-758.5 252,-736.5 63,-736.5"/>
<text text-anchor="start" x="68.25" y="-742.2" font-family="Times New Roman,Times,Liberation Serif,serif" font-size="14.00">Optional[DistributionSubstation]</text>
<polygon fill="none" stroke="black" points="0,-714.5 0,-736.5 63,-736.5 63,-714.5 0,-714.5"/>
<text text-anchor="start" x="14.62" y="-720.2" font-family="Times New Roman,Times,Liberation Serif,serif" font-size="14.00">feeder</text>
<polygon fill="none" stroke="black" points="63,-714.5 63,-736.5 252,-736.5 252,-714.5 63,-714.5"/>
<text text-anchor="start" x="78.38" y="-720.2" font-family="Times New Roman,Times,Liberation Serif,serif" font-size="14.00">Optional[DistributionFeeder]</text>
<polygon fill="none" stroke="black" points="0,-692.5 0,-714.5 63,-714.5 63,-692.5 0,-692.5"/>
<text text-anchor="start" x="3.75" y="-698.2" font-family="Times New Roman,Times,Liberation Serif,serif" font-size="14.00">in_service</text>
<polygon fill="none" stroke="black" points="63,-692.5 63,-714.5 252,-714.5 252,-692.5 63,-692.5"/>
<text text-anchor="start" x="145.5" y="-698.2" font-family="Times New Roman,Times,Liberation Serif,serif" font-size="14.00">bool</text>
<polygon fill="none" stroke="black" points="0,-670.5 0,-692.5 63,-692.5 63,-670.5 0,-670.5"/>
<text text-anchor="start" x="16.5" y="-676.2" font-family="Times New Roman,Times,Liberation Serif,serif" font-size="14.00">buses</text>
<polygon fill="none" stroke="black" points="63,-670.5 63,-692.5 252,-692.5 252,-670.5 63,-670.5"/>
<text text-anchor="start" x="101.62" y="-676.2" font-family="Times New Roman,Times,Liberation Serif,serif" font-size="14.00">list[DistributionBus]</text>
<polygon fill="none" stroke="black" points="0,-648.5 0,-670.5 63,-670.5 63,-648.5 0,-648.5"/>
<text text-anchor="start" x="14.62" y="-654.2" font-family="Times New Roman,Times,Liberation Serif,serif" font-size="14.00">length</text>
<polygon fill="none" stroke="black" points="63,-648.5 63,-670.5 252,-670.5 252,-648.5 63,-648.5"/>
<text text-anchor="start" x="112.12" y="-654.2" font-family="Times New Roman,Times,Liberation Serif,serif" font-size="14.00">PositiveDistance</text>
<polygon fill="none" stroke="black" points="0,-626.5 0,-648.5 63,-648.5 63,-626.5 0,-626.5"/>
<text text-anchor="start" x="13.5" y="-632.2" font-family="Times New Roman,Times,Liberation Serif,serif" font-size="14.00">phases</text>
<polygon fill="none" stroke="black" points="63,-626.5 63,-648.5 252,-648.5 252,-626.5 63,-626.5"/>
<text text-anchor="start" x="129" y="-632.2" font-family="Times New Roman,Times,Liberation Serif,serif" font-size="14.00">list[Phase]</text>
<polygon fill="none" stroke="black" points="0,-604.5 0,-626.5 63,-626.5 63,-604.5 0,-604.5"/>
<text text-anchor="start" x="6.38" y="-610.2" font-family="Times New Roman,Times,Liberation Serif,serif" font-size="14.00">is_closed</text>
<polygon fill="none" stroke="black" points="63,-604.5 63,-626.5 252,-626.5 252,-604.5 63,-604.5"/>
<text text-anchor="start" x="132.75" y="-610.2" font-family="Times New Roman,Times,Liberation Serif,serif" font-size="14.00">list[bool]</text>
<polygon fill="none" stroke="black" points="0,-582.5 0,-604.5 63,-604.5 63,-582.5 0,-582.5"/>
<text text-anchor="start" x="2.62" y="-588.2" font-family="Times New Roman,Times,Liberation Serif,serif" font-size="14.00">equipment</text>
<polygon fill="none" stroke="black" points="63,-582.5 63,-604.5 252,-604.5 252,-582.5 63,-582.5"/>
<text text-anchor="start" x="66" y="-588.2" font-family="Times New Roman,Times,Liberation Serif,serif" font-size="14.00">MatrixImpedanceFuseEquipment</text>
</a>
</g>
</g>
<!-- gdm.distribution.components.matrix_impedance_fuse.MatrixImpedanceFuse&#45;&gt;gdm.distribution.components.distribution_bus.DistributionBus -->
<g id="edge6" class="edge">
<title>gdm.distribution.components.matrix_impedance_fuse.MatrixImpedanceFuse:e&#45;&gt;gdm.distribution.components.distribution_bus.DistributionBus:w</title>
<path fill="none" stroke="black" d="M261.91,-681.34C296.76,-680.15 311.27,-672.87 343.7,-670.96"/>
<polyline fill="none" stroke="black" points="252,-681.5 257,-681.42"/>
<polyline fill="none" stroke="black" points="257,-681.42 262,-681.33"/>
<polygon fill="black" stroke="black" points="349.67,-670.79 359.79,-675.01 355,-670.64 359.33,-670.52 359.33,-670.52 359.33,-670.52 355,-670.64 359.54,-666.01 349.67,-670.79"/>
<polyline fill="none" stroke="black" points="348.45,-670.83 343.45,-670.97"/>
</g>
<!-- gdm.distribution.components.matrix_impedance_fuse.MatrixImpedanceFuse&#45;&gt;gdm.distribution.components.distribution_feeder.DistributionFeeder -->
<g id="edge7" class="edge">
<title>gdm.distribution.components.matrix_impedance_fuse.MatrixImpedanceFuse:e&#45;&gt;gdm.distribution.components.distribution_feeder.DistributionFeeder:w</title>
<path fill="none" stroke="black" d="M261.87,-725.5C595.41,-725.7 686.91,-736.1 1016.07,-736.49"/>
<polyline fill="none" stroke="black" points="252,-725.5 257,-725.5"/>
<polyline fill="none" stroke="black" points="257,-725.5 262,-725.5"/>
<polyline fill="none" stroke="black" points="1035,-736.5 1030,-736.5"/>
<polygon fill="black" stroke="black" points="1029,-731.5 1029,-741.5 1027,-741.5 1027,-731.5 1029,-731.5"/>
<polyline fill="none" stroke="black" points="1030,-736.5 1025,-736.49"/>
<ellipse fill="none" stroke="black" cx="1020.5" cy="-736.49" rx="4" ry="4"/>
</g>
<!-- gdm.distribution.components.matrix_impedance_fuse.MatrixImpedanceFuse&#45;&gt;gdm.distribution.components.distribution_substation.DistributionSubstation -->
<g id="edge8" class="edge">
<title>gdm.distribution.components.matrix_impedance_fuse.MatrixImpedanceFuse:e&#45;&gt;gdm.distribution.components.distribution_substation.DistributionSubstation:w</title>
<path fill="none" stroke="black" d="M261.67,-747.77C374.04,-753.7 611.6,-856.73 730.32,-867.58"/>
<polyline fill="none" stroke="black" points="252,-747.5 257,-747.64"/>
<polyline fill="none" stroke="black" points="257,-747.64 262,-747.78"/>
<polyline fill="none" stroke="black" points="749,-868.5 744.01,-868.25"/>
<polygon fill="black" stroke="black" points="743.25,-863.21 742.76,-873.2 740.76,-873.1 741.26,-863.11 743.25,-863.21"/>
<polyline fill="none" stroke="black" points="744.01,-868.25 739.01,-868.01"/>
<ellipse fill="none" stroke="black" cx="734.52" cy="-867.78" rx="4" ry="4"/>
</g>
<!-- gdm.distribution.equipment.matrix_impedance_fuse_equipment.MatrixImpedanceFuseEquipment -->
<g id="node7" class="node">
<title>gdm.distribution.equipment.matrix_impedance_fuse_equipment.MatrixImpedanceFuseEquipment</title>
<g id="a_node7"><a xlink:title="gdm.distribution.equipment.matrix_impedance_fuse_equipment.MatrixImpedanceFuseEquipment&#10;&#10;Interface for impedance based fuse equipment.&#10;">
<polygon fill="none" stroke="black" points="383,-403.5 383,-425.5 618,-425.5 618,-403.5 383,-403.5"/>
<text text-anchor="start" x="401.5" y="-410.2" font-family="Times New Roman,Times,Liberation Serif,serif" font-weight="bold" font-size="14.00">MatrixImpedanceFuseEquipment</text>
<polygon fill="none" stroke="black" points="383,-381.5 383,-403.5 462,-403.5 462,-381.5 383,-381.5"/>
<text text-anchor="start" x="410.5" y="-387.2" font-family="Times New Roman,Times,Liberation Serif,serif" font-size="14.00">uuid</text>
<polygon fill="none" stroke="black" points="462,-381.5 462,-403.5 618,-403.5 618,-381.5 462,-381.5"/>
<text text-anchor="start" x="523.12" y="-387.2" font-family="Times New Roman,Times,Liberation Serif,serif" font-size="14.00">UUID</text>
<polygon fill="none" stroke="black" points="383,-359.5 383,-381.5 462,-381.5 462,-359.5 383,-359.5"/>
<text text-anchor="start" x="407.5" y="-365.2" font-family="Times New Roman,Times,Liberation Serif,serif" font-size="14.00">name</text>
<polygon fill="none" stroke="black" points="462,-359.5 462,-381.5 618,-381.5 618,-359.5 462,-359.5"/>
<text text-anchor="start" x="533.25" y="-365.2" font-family="Times New Roman,Times,Liberation Serif,serif" font-size="14.00">str</text>
<polygon fill="none" stroke="black" points="383,-337.5 383,-359.5 462,-359.5 462,-337.5 383,-337.5"/>
<text text-anchor="start" x="398.88" y="-343.2" font-family="Times New Roman,Times,Liberation Serif,serif" font-size="14.00">r_matrix</text>
<polygon fill="none" stroke="black" points="462,-337.5 462,-359.5 618,-359.5 618,-337.5 462,-337.5"/>
<text text-anchor="start" x="483.38" y="-343.2" font-family="Times New Roman,Times,Liberation Serif,serif" font-size="14.00">ResistancePULength</text>
<polygon fill="none" stroke="black" points="383,-315.5 383,-337.5 462,-337.5 462,-315.5 383,-315.5"/>
<text text-anchor="start" x="397.75" y="-321.2" font-family="Times New Roman,Times,Liberation Serif,serif" font-size="14.00">x_matrix</text>
<polygon fill="none" stroke="black" points="462,-315.5 462,-337.5 618,-337.5 618,-315.5 462,-315.5"/>
<text text-anchor="start" x="484.5" y="-321.2" font-family="Times New Roman,Times,Liberation Serif,serif" font-size="14.00">ReactancePULength</text>
<polygon fill="none" stroke="black" points="383,-293.5 383,-315.5 462,-315.5 462,-293.5 383,-293.5"/>
<text text-anchor="start" x="398.12" y="-299.2" font-family="Times New Roman,Times,Liberation Serif,serif" font-size="14.00">c_matrix</text>
<polygon fill="none" stroke="black" points="462,-293.5 462,-315.5 618,-315.5 618,-293.5 462,-293.5"/>
<text text-anchor="start" x="479.25" y="-299.2" font-family="Times New Roman,Times,Liberation Serif,serif" font-size="14.00">CapacitancePULength</text>
<polygon fill="none" stroke="black" points="383,-271.5 383,-293.5 462,-293.5 462,-271.5 383,-271.5"/>
<text text-anchor="start" x="397.38" y="-277.2" font-family="Times New Roman,Times,Liberation Serif,serif" font-size="14.00">ampacity</text>
<polygon fill="none" stroke="black" points="462,-271.5 462,-293.5 618,-293.5 618,-271.5 462,-271.5"/>
<text text-anchor="start" x="497.62" y="-277.2" font-family="Times New Roman,Times,Liberation Serif,serif" font-size="14.00">PositiveCurrent</text>
<polygon fill="none" stroke="black" points="383,-249.5 383,-271.5 462,-271.5 462,-249.5 383,-249.5"/>
<text text-anchor="start" x="385.75" y="-255.2" font-family="Times New Roman,Times,Liberation Serif,serif" font-size="14.00">loading_limit</text>
<polygon fill="none" stroke="black" points="462,-249.5 462,-271.5 618,-271.5 618,-249.5 462,-249.5"/>
<text text-anchor="start" x="464.62" y="-255.2" font-family="Times New Roman,Times,Liberation Serif,serif" font-size="14.00">Optional[ThermalLimitSet]</text>
<polygon fill="none" stroke="black" points="383,-227.5 383,-249.5 462,-249.5 462,-227.5 383,-227.5"/>
<text text-anchor="start" x="407.88" y="-233.2" font-family="Times New Roman,Times,Liberation Serif,serif" font-size="14.00">delay</text>
<polygon fill="none" stroke="black" points="462,-227.5 462,-249.5 618,-249.5 618,-227.5 462,-227.5"/>
<text text-anchor="start" x="525.38" y="-233.2" font-family="Times New Roman,Times,Liberation Serif,serif" font-size="14.00">Time</text>
<polygon fill="none" stroke="black" points="383,-205.5 383,-227.5 462,-227.5 462,-205.5 383,-205.5"/>
<text text-anchor="start" x="396.25" y="-211.2" font-family="Times New Roman,Times,Liberation Serif,serif" font-size="14.00">tcc_curve</text>
<polygon fill="none" stroke="black" points="462,-205.5 462,-227.5 618,-227.5 618,-205.5 462,-205.5"/>
<text text-anchor="start" x="488.25" y="-211.2" font-family="Times New Roman,Times,Liberation Serif,serif" font-size="14.00">TimeCurrentCurve</text>
</a>
</g>
</g>
<!-- gdm.distribution.components.matrix_impedance_fuse.MatrixImpedanceFuse&#45;&gt;gdm.distribution.equipment.matrix_impedance_fuse_equipment.MatrixImpedanceFuseEquipment -->
<g id="edge9" class="edge">
<title>gdm.distribution.components.matrix_impedance_fuse.MatrixImpedanceFuse:e&#45;&gt;gdm.distribution.equipment.matrix_impedance_fuse_equipment.MatrixImpedanceFuseEquipment:w</title>
<path fill="none" stroke="black" d="M261.76,-592.85C340.94,-581.8 292.98,-432.88 366.83,-416.05"/>
<polyline fill="none" stroke="black" points="252,-593.5 256.99,-593.17"/>
<polyline fill="none" stroke="black" points="256.99,-593.17 261.98,-592.84"/>
<polyline fill="none" stroke="black" points="381.5,-414.5 376.53,-415.02"/>
<polygon fill="black" stroke="black" points="375.01,-410.16 376.06,-420.1 374.07,-420.31 373.02,-410.37 375.01,-410.16"/>
<polyline fill="none" stroke="black" points="376.53,-415.02 371.56,-415.55"/>
<polygon fill="black" stroke="black" points="370.04,-410.68 371.08,-420.62 369.1,-420.83 368.05,-410.89 370.04,-410.68"/>
<polyline fill="none" stroke="black" points="371.56,-415.55 366.58,-416.07"/>
</g>
<!-- gdm.distribution.curve.TimeCurrentCurve -->
<g id="node8" class="node">
<title>gdm.distribution.curve.TimeCurrentCurve</title>
<g id="a_node8"><a xlink:title="gdm.distribution.curve.TimeCurrentCurve&#10;&#10;An interface for time current curve.&#10;">
<polygon fill="none" stroke="black" points="778,-106.5 778,-128.5 898,-128.5 898,-106.5 778,-106.5"/>
<text text-anchor="start" x="781" y="-113.2" font-family="Times New Roman,Times,Liberation Serif,serif" font-weight="bold" font-size="14.00">TimeCurrentCurve</text>
<polygon fill="none" stroke="black" points="778,-84.5 778,-106.5 839,-106.5 839,-84.5 778,-84.5"/>
<text text-anchor="start" x="796.5" y="-90.2" font-family="Times New Roman,Times,Liberation Serif,serif" font-size="14.00">uuid</text>
<polygon fill="none" stroke="black" points="839,-84.5 839,-106.5 898,-106.5 898,-84.5 839,-84.5"/>
<text text-anchor="start" x="851.62" y="-90.2" font-family="Times New Roman,Times,Liberation Serif,serif" font-size="14.00">UUID</text>
<polygon fill="none" stroke="black" points="778,-62.5 778,-84.5 839,-84.5 839,-62.5 778,-62.5"/>
<text text-anchor="start" x="793.5" y="-68.2" font-family="Times New Roman,Times,Liberation Serif,serif" font-size="14.00">name</text>
<polygon fill="none" stroke="black" points="839,-62.5 839,-84.5 898,-84.5 898,-62.5 839,-62.5"/>
<text text-anchor="start" x="861.75" y="-68.2" font-family="Times New Roman,Times,Liberation Serif,serif" font-size="14.00">str</text>
<polygon fill="none" stroke="black" points="778,-40.5 778,-62.5 839,-62.5 839,-40.5 778,-40.5"/>
<text text-anchor="start" x="786.75" y="-46.2" font-family="Times New Roman,Times,Liberation Serif,serif" font-size="14.00">curve_x</text>
<polygon fill="none" stroke="black" points="839,-40.5 839,-62.5 898,-62.5 898,-40.5 839,-40.5"/>
<text text-anchor="start" x="847.88" y="-46.2" font-family="Times New Roman,Times,Liberation Serif,serif" font-size="14.00">Current</text>
<polygon fill="none" stroke="black" points="778,-18.5 778,-40.5 839,-40.5 839,-18.5 778,-18.5"/>
<text text-anchor="start" x="786.75" y="-24.2" font-family="Times New Roman,Times,Liberation Serif,serif" font-size="14.00">curve_y</text>
<polygon fill="none" stroke="black" points="839,-18.5 839,-40.5 898,-40.5 898,-18.5 839,-18.5"/>
<text text-anchor="start" x="853.88" y="-24.2" font-family="Times New Roman,Times,Liberation Serif,serif" font-size="14.00">Time</text>
</a>
</g>
</g>
<!-- gdm.distribution.equipment.matrix_impedance_fuse_equipment.MatrixImpedanceFuseEquipment&#45;&gt;gdm.distribution.curve.TimeCurrentCurve -->
<g id="edge10" class="edge">
<title>gdm.distribution.equipment.matrix_impedance_fuse_equipment.MatrixImpedanceFuseEquipment:e&#45;&gt;gdm.distribution.curve.TimeCurrentCurve:w</title>
<path fill="none" stroke="black" d="M629.23,-216.01C696.88,-209.04 697.9,-129.22 762.26,-118.65"/>
<polyline fill="none" stroke="black" points="619.5,-216.5 624.49,-216.25"/>
<polyline fill="none" stroke="black" points="624.49,-216.25 629.49,-216"/>
<polyline fill="none" stroke="black" points="777,-117.5 772.02,-117.89"/>
<polygon fill="black" stroke="black" points="770.63,-112.98 771.41,-122.95 769.41,-123.11 768.63,-113.14 770.63,-112.98"/>
<polyline fill="none" stroke="black" points="772.02,-117.89 767.03,-118.28"/>
<polygon fill="black" stroke="black" points="765.64,-113.37 766.42,-123.34 764.43,-123.5 763.65,-113.53 765.64,-113.37"/>
<polyline fill="none" stroke="black" points="767.03,-118.28 762.05,-118.67"/>
</g>
<!-- gdm.distribution.limitset.ThermalLimitSet -->
<g id="node9" class="node">
<title>gdm.distribution.limitset.ThermalLimitSet</title>
<g id="a_node9"><a xlink:title="gdm.distribution.limitset.ThermalLimitSet&#10;&#10;Interface for voltage limit set.&#10;">
<polygon fill="none" stroke="black" points="762,-252.5 762,-274.5 914,-274.5 914,-252.5 762,-252.5"/>
<text text-anchor="start" x="787" y="-259.2" font-family="Times New Roman,Times,Liberation Serif,serif" font-weight="bold" font-size="14.00">ThermalLimitSet</text>
<polygon fill="none" stroke="black" points="762,-230.5 762,-252.5 824,-252.5 824,-230.5 762,-230.5"/>
<text text-anchor="start" x="781" y="-236.2" font-family="Times New Roman,Times,Liberation Serif,serif" font-size="14.00">uuid</text>
<polygon fill="none" stroke="black" points="824,-230.5 824,-252.5 914,-252.5 914,-230.5 824,-230.5"/>
<text text-anchor="start" x="852.12" y="-236.2" font-family="Times New Roman,Times,Liberation Serif,serif" font-size="14.00">UUID</text>
<polygon fill="none" stroke="black" points="762,-208.5 762,-230.5 824,-230.5 824,-208.5 762,-208.5"/>
<text text-anchor="start" x="778" y="-214.2" font-family="Times New Roman,Times,Liberation Serif,serif" font-size="14.00">name</text>
<polygon fill="none" stroke="black" points="824,-208.5 824,-230.5 914,-230.5 914,-208.5 824,-208.5"/>
<text text-anchor="start" x="862.25" y="-214.2" font-family="Times New Roman,Times,Liberation Serif,serif" font-size="14.00">str</text>
<polygon fill="none" stroke="black" points="762,-186.5 762,-208.5 824,-208.5 824,-186.5 762,-186.5"/>
<text text-anchor="start" x="764.88" y="-192.2" font-family="Times New Roman,Times,Liberation Serif,serif" font-size="14.00">limit_type</text>
<polygon fill="none" stroke="black" points="824,-186.5 824,-208.5 914,-208.5 914,-186.5 824,-186.5"/>
<text text-anchor="start" x="840.12" y="-192.2" font-family="Times New Roman,Times,Liberation Serif,serif" font-size="14.00">LimitType</text>
<polygon fill="none" stroke="black" points="762,-164.5 762,-186.5 824,-186.5 824,-164.5 762,-164.5"/>
<text text-anchor="start" x="778.38" y="-170.2" font-family="Times New Roman,Times,Liberation Serif,serif" font-size="14.00">value</text>
<polygon fill="none" stroke="black" points="824,-164.5 824,-186.5 914,-186.5 914,-164.5 824,-164.5"/>
<text text-anchor="start" x="826.62" y="-170.2" font-family="Times New Roman,Times,Liberation Serif,serif" font-size="14.00">PositiveCurrent</text>
</a>
</g>
</g>
<!-- gdm.distribution.equipment.matrix_impedance_fuse_equipment.MatrixImpedanceFuseEquipment&#45;&gt;gdm.distribution.limitset.ThermalLimitSet -->
<g id="edge11" class="edge">
<title>gdm.distribution.equipment.matrix_impedance_fuse_equipment.MatrixImpedanceFuseEquipment:e&#45;&gt;gdm.distribution.limitset.ThermalLimitSet:w</title>
<path fill="none" stroke="black" d="M629.41,-260.53C677.94,-260.79 697.06,-262.91 742,-263.4"/>
<polyline fill="none" stroke="black" points="619.5,-260.5 624.5,-260.51"/>
<polyline fill="none" stroke="black" points="624.5,-260.51 629.5,-260.53"/>
<polyline fill="none" stroke="black" points="761,-263.5 756,-263.47"/>
<polygon fill="black" stroke="black" points="755.03,-258.47 754.97,-268.47 752.97,-268.46 753.03,-258.46 755.03,-258.47"/>
<polyline fill="none" stroke="black" points="756,-263.47 751,-263.45"/>
<ellipse fill="none" stroke="black" cx="746.5" cy="-263.42" rx="4" ry="4"/>
</g>
</g>
</svg>
