<?xml version="1.0" encoding="UTF-8" standalone="no"?>
<!DOCTYPE svg PUBLIC "-//W3C//DTD SVG 1.1//EN"
 "http://www.w3.org/Graphics/SVG/1.1/DTD/svg11.dtd">
<!-- Generated by graphviz version 12.2.1 (20241206.2353)
 -->
<!-- Title: Entity Relationship Diagram created by erdantic Pages: 1 -->
<svg width="1144pt" height="781pt"
 viewBox="0.00 0.00 1143.50 780.75" xmlns="http://www.w3.org/2000/svg" xmlns:xlink="http://www.w3.org/1999/xlink">
<g id="graph0" class="graph" transform="scale(1 1) rotate(0) translate(4 776.75)">
<title>Entity Relationship Diagram created by erdantic</title>
<polygon fill="white" stroke="none" points="-4,4 -4,-776.75 1139.5,-776.75 1139.5,4 -4,4"/>
<text text-anchor="middle" x="567.75" y="-5.95" font-family="Times New Roman,Times,Liberation Serif,serif" font-size="9.00" fill="#a8a8a8">Created by erdantic v1.0.5 &lt;https://github.com/drivendataorg/erdantic&gt;</text>
<!-- gdm.distribution.common.curve.TimeCurrentCurve -->
<g id="node1" class="node">
<title>gdm.distribution.common.curve.TimeCurrentCurve</title>
<g id="a_node1"><a xlink:title="gdm.distribution.common.curve.TimeCurrentCurve&#10;&#10;An interface for time current curve.&#10;">
<polygon fill="none" stroke="black" points="762,-108.5 762,-131 882,-131 882,-108.5 762,-108.5"/>
<text text-anchor="start" x="765" y="-115.7" font-family="Times New Roman,Times,Liberation Serif,serif" font-weight="bold" font-size="14.00">TimeCurrentCurve</text>
<polygon fill="none" stroke="black" points="762,-86 762,-108.5 823.12,-108.5 823.12,-86 762,-86"/>
<text text-anchor="start" x="780.56" y="-92.2" font-family="Times New Roman,Times,Liberation Serif,serif" font-size="14.00">uuid</text>
<polygon fill="none" stroke="black" points="823.12,-86 823.12,-108.5 882,-108.5 882,-86 823.12,-86"/>
<text text-anchor="start" x="835.69" y="-92.2" font-family="Times New Roman,Times,Liberation Serif,serif" font-size="14.00">UUID</text>
<polygon fill="none" stroke="black" points="762,-63.5 762,-86 823.12,-86 823.12,-63.5 762,-63.5"/>
<text text-anchor="start" x="777.56" y="-69.7" font-family="Times New Roman,Times,Liberation Serif,serif" font-size="14.00">name</text>
<polygon fill="none" stroke="black" points="823.12,-63.5 823.12,-86 882,-86 882,-63.5 823.12,-63.5"/>
<text text-anchor="start" x="845.81" y="-69.7" font-family="Times New Roman,Times,Liberation Serif,serif" font-size="14.00">str</text>
<polygon fill="none" stroke="black" points="762,-41 762,-63.5 823.12,-63.5 823.12,-41 762,-41"/>
<text text-anchor="start" x="770.81" y="-47.2" font-family="Times New Roman,Times,Liberation Serif,serif" font-size="14.00">curve_x</text>
<polygon fill="none" stroke="black" points="823.12,-41 823.12,-63.5 882,-63.5 882,-41 823.12,-41"/>
<text text-anchor="start" x="831.94" y="-47.2" font-family="Times New Roman,Times,Liberation Serif,serif" font-size="14.00">Current</text>
<polygon fill="none" stroke="black" points="762,-18.5 762,-41 823.12,-41 823.12,-18.5 762,-18.5"/>
<text text-anchor="start" x="770.81" y="-24.7" font-family="Times New Roman,Times,Liberation Serif,serif" font-size="14.00">curve_y</text>
<polygon fill="none" stroke="black" points="823.12,-18.5 823.12,-41 882,-41 882,-18.5 823.12,-18.5"/>
<text text-anchor="start" x="837.94" y="-24.7" font-family="Times New Roman,Times,Liberation Serif,serif" font-size="14.00">Time</text>
</a>
</g>
</g>
<!-- gdm.distribution.common.limitset.VoltageLimitSet -->
<g id="node2" class="node">
<title>gdm.distribution.common.limitset.VoltageLimitSet</title>
<g id="a_node2"><a xlink:title="gdm.distribution.common.limitset.VoltageLimitSet&#10;&#10;Data model for voltage limit set.&#10;">
<polygon fill="none" stroke="black" points="745.5,-440.5 745.5,-463 898.5,-463 898.5,-440.5 745.5,-440.5"/>
<text text-anchor="start" x="774.75" y="-447.7" font-family="Times New Roman,Times,Liberation Serif,serif" font-weight="bold" font-size="14.00">VoltageLimitSet</text>
<polygon fill="none" stroke="black" points="745.5,-418 745.5,-440.5 807.75,-440.5 807.75,-418 745.5,-418"/>
<text text-anchor="start" x="764.62" y="-424.2" font-family="Times New Roman,Times,Liberation Serif,serif" font-size="14.00">uuid</text>
<polygon fill="none" stroke="black" points="807.75,-418 807.75,-440.5 898.5,-440.5 898.5,-418 807.75,-418"/>
<text text-anchor="start" x="836.25" y="-424.2" font-family="Times New Roman,Times,Liberation Serif,serif" font-size="14.00">UUID</text>
<polygon fill="none" stroke="black" points="745.5,-395.5 745.5,-418 807.75,-418 807.75,-395.5 745.5,-395.5"/>
<text text-anchor="start" x="761.62" y="-401.7" font-family="Times New Roman,Times,Liberation Serif,serif" font-size="14.00">name</text>
<polygon fill="none" stroke="black" points="807.75,-395.5 807.75,-418 898.5,-418 898.5,-395.5 807.75,-395.5"/>
<text text-anchor="start" x="846.38" y="-401.7" font-family="Times New Roman,Times,Liberation Serif,serif" font-size="14.00">str</text>
<polygon fill="none" stroke="black" points="745.5,-373 745.5,-395.5 807.75,-395.5 807.75,-373 745.5,-373"/>
<text text-anchor="start" x="748.5" y="-379.2" font-family="Times New Roman,Times,Liberation Serif,serif" font-size="14.00">limit_type</text>
<polygon fill="none" stroke="black" points="807.75,-373 807.75,-395.5 898.5,-395.5 898.5,-373 807.75,-373"/>
<text text-anchor="start" x="823.88" y="-379.2" font-family="Times New Roman,Times,Liberation Serif,serif" font-size="14.00">LimitType</text>
<polygon fill="none" stroke="black" points="745.5,-350.5 745.5,-373 807.75,-373 807.75,-350.5 745.5,-350.5"/>
<text text-anchor="start" x="762" y="-356.7" font-family="Times New Roman,Times,Liberation Serif,serif" font-size="14.00">value</text>
<polygon fill="none" stroke="black" points="807.75,-350.5 807.75,-373 898.5,-373 898.5,-350.5 807.75,-350.5"/>
<text text-anchor="start" x="810.75" y="-356.7" font-family="Times New Roman,Times,Liberation Serif,serif" font-size="14.00">PositiveVoltage</text>
</a>
</g>
</g>
<!-- gdm.distribution.components.distribution_bus.DistributionBus -->
<g id="node3" class="node">
<title>gdm.distribution.components.distribution_bus.DistributionBus</title>
<g id="a_node3"><a xlink:title="gdm.distribution.components.distribution_bus.DistributionBus&#10;&#10;Data model for distribution bus.&#10;&#10;Examples:&#10; &#160;&#160;&#160;&gt;&gt;&gt; from gdm import DistributionBus&#10; &#160;&#160;&#160;&gt;&gt;&gt; DistributionBus.example()&#10;">
<polygon fill="none" stroke="black" points="360.75,-549.75 360.75,-572.25 624.75,-572.25 624.75,-549.75 360.75,-549.75"/>
<text text-anchor="start" x="446.62" y="-556.95" font-family="Times New Roman,Times,Liberation Serif,serif" font-weight="bold" font-size="14.00">DistributionBus</text>
<polygon fill="none" stroke="black" points="360.75,-527.25 360.75,-549.75 440.25,-549.75 440.25,-527.25 360.75,-527.25"/>
<text text-anchor="start" x="388.5" y="-533.45" font-family="Times New Roman,Times,Liberation Serif,serif" font-size="14.00">uuid</text>
<polygon fill="none" stroke="black" points="440.25,-527.25 440.25,-549.75 624.75,-549.75 624.75,-527.25 440.25,-527.25"/>
<text text-anchor="start" x="515.62" y="-533.45" font-family="Times New Roman,Times,Liberation Serif,serif" font-size="14.00">UUID</text>
<polygon fill="none" stroke="black" points="360.75,-504.75 360.75,-527.25 440.25,-527.25 440.25,-504.75 360.75,-504.75"/>
<text text-anchor="start" x="385.5" y="-510.95" font-family="Times New Roman,Times,Liberation Serif,serif" font-size="14.00">name</text>
<polygon fill="none" stroke="black" points="440.25,-504.75 440.25,-527.25 624.75,-527.25 624.75,-504.75 440.25,-504.75"/>
<text text-anchor="start" x="525.75" y="-510.95" font-family="Times New Roman,Times,Liberation Serif,serif" font-size="14.00">str</text>
<polygon fill="none" stroke="black" points="360.75,-482.25 360.75,-504.75 440.25,-504.75 440.25,-482.25 360.75,-482.25"/>
<text text-anchor="start" x="373.12" y="-488.45" font-family="Times New Roman,Times,Liberation Serif,serif" font-size="14.00">substation</text>
<polygon fill="none" stroke="black" points="440.25,-482.25 440.25,-504.75 624.75,-504.75 624.75,-482.25 440.25,-482.25"/>
<text text-anchor="start" x="443.25" y="-488.45" font-family="Times New Roman,Times,Liberation Serif,serif" font-size="14.00">Optional[DistributionSubstation]</text>
<polygon fill="none" stroke="black" points="360.75,-459.75 360.75,-482.25 440.25,-482.25 440.25,-459.75 360.75,-459.75"/>
<text text-anchor="start" x="383.62" y="-465.95" font-family="Times New Roman,Times,Liberation Serif,serif" font-size="14.00">feeder</text>
<polygon fill="none" stroke="black" points="440.25,-459.75 440.25,-482.25 624.75,-482.25 624.75,-459.75 440.25,-459.75"/>
<text text-anchor="start" x="453.38" y="-465.95" font-family="Times New Roman,Times,Liberation Serif,serif" font-size="14.00">Optional[DistributionFeeder]</text>
<polygon fill="none" stroke="black" points="360.75,-437.25 360.75,-459.75 440.25,-459.75 440.25,-437.25 360.75,-437.25"/>
<text text-anchor="start" x="365.62" y="-443.45" font-family="Times New Roman,Times,Liberation Serif,serif" font-size="14.00">voltage_type</text>
<polygon fill="none" stroke="black" points="440.25,-437.25 440.25,-459.75 624.75,-459.75 624.75,-437.25 440.25,-437.25"/>
<text text-anchor="start" x="495.38" y="-443.45" font-family="Times New Roman,Times,Liberation Serif,serif" font-size="14.00">VoltageTypes</text>
<polygon fill="none" stroke="black" points="360.75,-414.75 360.75,-437.25 440.25,-437.25 440.25,-414.75 360.75,-414.75"/>
<text text-anchor="start" x="382.5" y="-420.95" font-family="Times New Roman,Times,Liberation Serif,serif" font-size="14.00">phases</text>
<polygon fill="none" stroke="black" points="440.25,-414.75 440.25,-437.25 624.75,-437.25 624.75,-414.75 440.25,-414.75"/>
<text text-anchor="start" x="504" y="-420.95" font-family="Times New Roman,Times,Liberation Serif,serif" font-size="14.00">list[Phase]</text>
<polygon fill="none" stroke="black" points="360.75,-392.25 360.75,-414.75 440.25,-414.75 440.25,-392.25 360.75,-392.25"/>
<text text-anchor="start" x="364.88" y="-398.45" font-family="Times New Roman,Times,Liberation Serif,serif" font-size="14.00">voltagelimits</text>
<polygon fill="none" stroke="black" points="440.25,-392.25 440.25,-414.75 624.75,-414.75 624.75,-392.25 440.25,-392.25"/>
<text text-anchor="start" x="475.12" y="-398.45" font-family="Times New Roman,Times,Liberation Serif,serif" font-size="14.00">list[VoltageLimitSet]</text>
<polygon fill="none" stroke="black" points="360.75,-369.75 360.75,-392.25 440.25,-392.25 440.25,-369.75 360.75,-369.75"/>
<text text-anchor="start" x="363.75" y="-375.95" font-family="Times New Roman,Times,Liberation Serif,serif" font-size="14.00">rated_voltage</text>
<polygon fill="none" stroke="black" points="440.25,-369.75 440.25,-392.25 624.75,-392.25 624.75,-369.75 440.25,-369.75"/>
<text text-anchor="start" x="490.12" y="-375.95" font-family="Times New Roman,Times,Liberation Serif,serif" font-size="14.00">PositiveVoltage</text>
<polygon fill="none" stroke="black" points="360.75,-347.25 360.75,-369.75 440.25,-369.75 440.25,-347.25 360.75,-347.25"/>
<text text-anchor="start" x="372" y="-353.45" font-family="Times New Roman,Times,Liberation Serif,serif" font-size="14.00">coordinate</text>
<polygon fill="none" stroke="black" points="440.25,-347.25 440.25,-369.75 624.75,-369.75 624.75,-347.25 440.25,-347.25"/>
<text text-anchor="start" x="480.38" y="-353.45" font-family="Times New Roman,Times,Liberation Serif,serif" font-size="14.00">Optional[Location]</text>
</a>
</g>
</g>
<!-- gdm.distribution.components.distribution_bus.DistributionBus&#45;&gt;gdm.distribution.common.limitset.VoltageLimitSet -->
<g id="edge1" class="edge">
<title>gdm.distribution.components.distribution_bus.DistributionBus:e&#45;&gt;gdm.distribution.common.limitset.VoltageLimitSet:w</title>
<path fill="none" stroke="black" d="M634.62,-404.01C677.93,-408.63 688.57,-443.33 729.15,-450.47"/>
<polyline fill="none" stroke="black" points="624.75,-403.5 629.74,-403.76"/>
<polyline fill="none" stroke="black" points="629.74,-403.76 634.74,-404.02"/>
<polygon fill="black" stroke="black" points="734.2,-450.89 743.79,-456.21 739.52,-451.33 743.83,-451.69 743.83,-451.69 743.83,-451.69 739.52,-451.33 744.54,-447.24 734.2,-450.89"/>
<polyline fill="none" stroke="black" points="732.99,-450.79 728,-450.37"/>
</g>
<!-- gdm.distribution.components.distribution_feeder.DistributionFeeder -->
<g id="node4" class="node">
<title>gdm.distribution.components.distribution_feeder.DistributionFeeder</title>
<g id="a_node4"><a xlink:title="gdm.distribution.components.distribution_feeder.DistributionFeeder&#10;&#10;Class interface for distribution feeder.&#10;">
<polygon fill="none" stroke="black" points="1019.25,-617 1019.25,-639.5 1135.5,-639.5 1135.5,-617 1019.25,-617"/>
<text text-anchor="start" x="1022.25" y="-624.2" font-family="Times New Roman,Times,Liberation Serif,serif" font-weight="bold" font-size="14.00">DistributionFeeder</text>
<polygon fill="none" stroke="black" points="1019.25,-594.5 1019.25,-617 1075.5,-617 1075.5,-594.5 1019.25,-594.5"/>
<text text-anchor="start" x="1035.38" y="-600.7" font-family="Times New Roman,Times,Liberation Serif,serif" font-size="14.00">uuid</text>
<polygon fill="none" stroke="black" points="1075.5,-594.5 1075.5,-617 1135.5,-617 1135.5,-594.5 1075.5,-594.5"/>
<text text-anchor="start" x="1088.62" y="-600.7" font-family="Times New Roman,Times,Liberation Serif,serif" font-size="14.00">UUID</text>
<polygon fill="none" stroke="black" points="1019.25,-572 1019.25,-594.5 1075.5,-594.5 1075.5,-572 1019.25,-572"/>
<text text-anchor="start" x="1032.38" y="-578.2" font-family="Times New Roman,Times,Liberation Serif,serif" font-size="14.00">name</text>
<polygon fill="none" stroke="black" points="1075.5,-572 1075.5,-594.5 1135.5,-594.5 1135.5,-572 1075.5,-572"/>
<text text-anchor="start" x="1098.75" y="-578.2" font-family="Times New Roman,Times,Liberation Serif,serif" font-size="14.00">str</text>
</a>
</g>
</g>
<!-- gdm.distribution.components.distribution_bus.DistributionBus&#45;&gt;gdm.distribution.components.distribution_feeder.DistributionFeeder -->
<g id="edge2" class="edge">
<title>gdm.distribution.components.distribution_bus.DistributionBus:e&#45;&gt;gdm.distribution.components.distribution_feeder.DistributionFeeder:w</title>
<path fill="none" stroke="black" d="M634.51,-471.51C726.34,-480.64 903.23,-609.87 1000.36,-626.49"/>
<polyline fill="none" stroke="black" points="624.75,-471 629.74,-471.26"/>
<polyline fill="none" stroke="black" points="629.74,-471.26 634.74,-471.52"/>
<polyline fill="none" stroke="black" points="1019.25,-628.25 1014.27,-627.79"/>
<polygon fill="black" stroke="black" points="1013.74,-622.72 1012.81,-632.67 1010.82,-632.49 1011.75,-622.53 1013.74,-622.72"/>
<polyline fill="none" stroke="black" points="1014.27,-627.79 1009.29,-627.32"/>
<ellipse fill="none" stroke="black" cx="1004.81" cy="-626.91" rx="4" ry="4"/>
</g>
<!-- gdm.distribution.components.distribution_substation.DistributionSubstation -->
<g id="node5" class="node">
<title>gdm.distribution.components.distribution_substation.DistributionSubstation</title>
<g id="a_node5"><a xlink:title="gdm.distribution.components.distribution_substation.DistributionSubstation&#10;&#10;Class interface for distribution feeder.&#10;">
<polygon fill="none" stroke="black" points="732.75,-750.25 732.75,-772.75 911.25,-772.75 911.25,-750.25 732.75,-750.25"/>
<text text-anchor="start" x="756" y="-757.45" font-family="Times New Roman,Times,Liberation Serif,serif" font-weight="bold" font-size="14.00">DistributionSubstation</text>
<polygon fill="none" stroke="black" points="732.75,-727.75 732.75,-750.25 777.75,-750.25 777.75,-727.75 732.75,-727.75"/>
<text text-anchor="start" x="743.25" y="-733.95" font-family="Times New Roman,Times,Liberation Serif,serif" font-size="14.00">uuid</text>
<polygon fill="none" stroke="black" points="777.75,-727.75 777.75,-750.25 911.25,-750.25 911.25,-727.75 777.75,-727.75"/>
<text text-anchor="start" x="827.62" y="-733.95" font-family="Times New Roman,Times,Liberation Serif,serif" font-size="14.00">UUID</text>
<polygon fill="none" stroke="black" points="732.75,-705.25 732.75,-727.75 777.75,-727.75 777.75,-705.25 732.75,-705.25"/>
<text text-anchor="start" x="740.25" y="-711.45" font-family="Times New Roman,Times,Liberation Serif,serif" font-size="14.00">name</text>
<polygon fill="none" stroke="black" points="777.75,-705.25 777.75,-727.75 911.25,-727.75 911.25,-705.25 777.75,-705.25"/>
<text text-anchor="start" x="837.75" y="-711.45" font-family="Times New Roman,Times,Liberation Serif,serif" font-size="14.00">str</text>
<polygon fill="none" stroke="black" points="732.75,-682.75 732.75,-705.25 777.75,-705.25 777.75,-682.75 732.75,-682.75"/>
<text text-anchor="start" x="735.75" y="-688.95" font-family="Times New Roman,Times,Liberation Serif,serif" font-size="14.00">feeders</text>
<polygon fill="none" stroke="black" points="777.75,-682.75 777.75,-705.25 911.25,-705.25 911.25,-682.75 777.75,-682.75"/>
<text text-anchor="start" x="780.75" y="-688.95" font-family="Times New Roman,Times,Liberation Serif,serif" font-size="14.00">list[DistributionFeeder]</text>
</a>
</g>
</g>
<!-- gdm.distribution.components.distribution_bus.DistributionBus&#45;&gt;gdm.distribution.components.distribution_substation.DistributionSubstation -->
<g id="edge3" class="edge">
<title>gdm.distribution.components.distribution_bus.DistributionBus:e&#45;&gt;gdm.distribution.components.distribution_substation.DistributionSubstation:w</title>
<path fill="none" stroke="black" d="M634.67,-494.09C738.97,-507.17 622.61,-733.55 713.96,-759.15"/>
<polyline fill="none" stroke="black" points="624.75,-493.5 629.74,-493.8"/>
<polyline fill="none" stroke="black" points="629.74,-493.8 634.73,-494.09"/>
<polyline fill="none" stroke="black" points="732.75,-761.5 727.79,-760.88"/>
<polygon fill="black" stroke="black" points="727.42,-755.79 726.18,-765.72 724.19,-765.47 725.43,-755.55 727.42,-755.79"/>
<polyline fill="none" stroke="black" points="727.79,-760.88 722.83,-760.26"/>
<ellipse fill="none" stroke="black" cx="718.36" cy="-759.7" rx="4" ry="4"/>
</g>
<!-- infrasys.location.Location -->
<g id="node6" class="node">
<title>infrasys.location.Location</title>
<g id="a_node6"><a xlink:title="infrasys.location.Location&#10;&#10;Specifies geographic location.&#10;">
<polygon fill="none" stroke="black" points="774.38,-291.75 774.38,-314.25 869.62,-314.25 869.62,-291.75 774.38,-291.75"/>
<text text-anchor="start" x="796.5" y="-298.95" font-family="Times New Roman,Times,Liberation Serif,serif" font-weight="bold" font-size="14.00">Location</text>
<polygon fill="none" stroke="black" points="774.38,-269.25 774.38,-291.75 810.38,-291.75 810.38,-269.25 774.38,-269.25"/>
<text text-anchor="start" x="780.38" y="-275.45" font-family="Times New Roman,Times,Liberation Serif,serif" font-size="14.00">uuid</text>
<polygon fill="none" stroke="black" points="810.38,-269.25 810.38,-291.75 869.62,-291.75 869.62,-269.25 810.38,-269.25"/>
<text text-anchor="start" x="823.12" y="-275.45" font-family="Times New Roman,Times,Liberation Serif,serif" font-size="14.00">UUID</text>
<polygon fill="none" stroke="black" points="774.38,-246.75 774.38,-269.25 810.38,-269.25 810.38,-246.75 774.38,-246.75"/>
<text text-anchor="start" x="777.38" y="-252.95" font-family="Times New Roman,Times,Liberation Serif,serif" font-size="14.00">name</text>
<polygon fill="none" stroke="black" points="810.38,-246.75 810.38,-269.25 869.62,-269.25 869.62,-246.75 810.38,-246.75"/>
<text text-anchor="start" x="833.25" y="-252.95" font-family="Times New Roman,Times,Liberation Serif,serif" font-size="14.00">str</text>
<polygon fill="none" stroke="black" points="774.38,-224.25 774.38,-246.75 810.38,-246.75 810.38,-224.25 774.38,-224.25"/>
<text text-anchor="start" x="789" y="-230.45" font-family="Times New Roman,Times,Liberation Serif,serif" font-size="14.00">x</text>
<polygon fill="none" stroke="black" points="810.38,-224.25 810.38,-246.75 869.62,-246.75 869.62,-224.25 810.38,-224.25"/>
<text text-anchor="start" x="827.62" y="-230.45" font-family="Times New Roman,Times,Liberation Serif,serif" font-size="14.00">float</text>
<polygon fill="none" stroke="black" points="774.38,-201.75 774.38,-224.25 810.38,-224.25 810.38,-201.75 774.38,-201.75"/>
<text text-anchor="start" x="789" y="-207.95" font-family="Times New Roman,Times,Liberation Serif,serif" font-size="14.00">y</text>
<polygon fill="none" stroke="black" points="810.38,-201.75 810.38,-224.25 869.62,-224.25 869.62,-201.75 810.38,-201.75"/>
<text text-anchor="start" x="827.62" y="-207.95" font-family="Times New Roman,Times,Liberation Serif,serif" font-size="14.00">float</text>
<polygon fill="none" stroke="black" points="774.38,-179.25 774.38,-201.75 810.38,-201.75 810.38,-179.25 774.38,-179.25"/>
<text text-anchor="start" x="784.5" y="-185.45" font-family="Times New Roman,Times,Liberation Serif,serif" font-size="14.00">crs</text>
<polygon fill="none" stroke="black" points="810.38,-179.25 810.38,-201.75 869.62,-201.75 869.62,-179.25 810.38,-179.25"/>
<text text-anchor="start" x="813.38" y="-185.45" font-family="Times New Roman,Times,Liberation Serif,serif" font-size="14.00">str | None</text>
</a>
</g>
</g>
<!-- gdm.distribution.components.distribution_bus.DistributionBus&#45;&gt;infrasys.location.Location -->
<g id="edge4" class="edge">
<title>gdm.distribution.components.distribution_bus.DistributionBus:e&#45;&gt;infrasys.location.Location:w</title>
<path fill="none" stroke="black" d="M634.64,-358.12C689.91,-353.71 703.71,-312.73 754.59,-304.45"/>
<polyline fill="none" stroke="black" points="624.75,-358.5 629.75,-358.31"/>
<polyline fill="none" stroke="black" points="629.75,-358.31 634.74,-358.11"/>
<polyline fill="none" stroke="black" points="773.38,-303 768.39,-303.39"/>
<polygon fill="black" stroke="black" points="767.01,-298.48 767.78,-308.45 765.78,-308.6 765.01,-298.63 767.01,-298.48"/>
<polyline fill="none" stroke="black" points="768.39,-303.39 763.4,-303.77"/>
<ellipse fill="none" stroke="black" cx="758.92" cy="-304.12" rx="4" ry="4"/>
</g>
<!-- gdm.distribution.components.distribution_substation.DistributionSubstation&#45;&gt;gdm.distribution.components.distribution_feeder.DistributionFeeder -->
<g id="edge5" class="edge">
<title>gdm.distribution.components.distribution_substation.DistributionSubstation:e&#45;&gt;gdm.distribution.components.distribution_feeder.DistributionFeeder:w</title>
<path fill="none" stroke="black" d="M921.11,-693.26C962.19,-686.81 966.15,-640.08 1003.99,-630.12"/>
<polyline fill="none" stroke="black" points="911.25,-694 916.24,-693.63"/>
<polyline fill="none" stroke="black" points="916.24,-693.63 921.22,-693.25"/>
<polygon fill="black" stroke="black" points="1008.99,-629.5 1019.46,-632.76 1014.29,-628.86 1018.59,-628.33 1018.59,-628.33 1018.59,-628.33 1014.29,-628.86 1018.37,-623.82 1008.99,-629.5"/>
<polyline fill="none" stroke="black" points="1007.78,-629.65 1002.82,-630.26"/>
</g>
<!-- gdm.distribution.components.matrix_impedance_fuse.MatrixImpedanceFuse -->
<g id="node7" class="node">
<title>gdm.distribution.components.matrix_impedance_fuse.MatrixImpedanceFuse</title>
<g id="a_node7"><a xlink:title="gdm.distribution.components.matrix_impedance_fuse.MatrixImpedanceFuse&#10;&#10;Data model for distribution fuse.&#10;">
<polygon fill="none" stroke="black" points="0,-695 0,-717.5 252.75,-717.5 252.75,-695 0,-695"/>
<text text-anchor="start" x="60" y="-702.2" font-family="Times New Roman,Times,Liberation Serif,serif" font-weight="bold" font-size="14.00">MatrixImpedanceFuse</text>
<polygon fill="none" stroke="black" points="0,-672.5 0,-695 63.75,-695 63.75,-672.5 0,-672.5"/>
<text text-anchor="start" x="19.88" y="-678.7" font-family="Times New Roman,Times,Liberation Serif,serif" font-size="14.00">uuid</text>
<polygon fill="none" stroke="black" points="63.75,-672.5 63.75,-695 252.75,-695 252.75,-672.5 63.75,-672.5"/>
<text text-anchor="start" x="141.38" y="-678.7" font-family="Times New Roman,Times,Liberation Serif,serif" font-size="14.00">UUID</text>
<polygon fill="none" stroke="black" points="0,-650 0,-672.5 63.75,-672.5 63.75,-650 0,-650"/>
<text text-anchor="start" x="16.88" y="-656.2" font-family="Times New Roman,Times,Liberation Serif,serif" font-size="14.00">name</text>
<polygon fill="none" stroke="black" points="63.75,-650 63.75,-672.5 252.75,-672.5 252.75,-650 63.75,-650"/>
<text text-anchor="start" x="151.5" y="-656.2" font-family="Times New Roman,Times,Liberation Serif,serif" font-size="14.00">str</text>
<polygon fill="none" stroke="black" points="0,-627.5 0,-650 63.75,-650 63.75,-627.5 0,-627.5"/>
<text text-anchor="start" x="4.5" y="-633.7" font-family="Times New Roman,Times,Liberation Serif,serif" font-size="14.00">substation</text>
<polygon fill="none" stroke="black" points="63.75,-627.5 63.75,-650 252.75,-650 252.75,-627.5 63.75,-627.5"/>
<text text-anchor="start" x="69" y="-633.7" font-family="Times New Roman,Times,Liberation Serif,serif" font-size="14.00">Optional[DistributionSubstation]</text>
<polygon fill="none" stroke="black" points="0,-605 0,-627.5 63.75,-627.5 63.75,-605 0,-605"/>
<text text-anchor="start" x="15" y="-611.2" font-family="Times New Roman,Times,Liberation Serif,serif" font-size="14.00">feeder</text>
<polygon fill="none" stroke="black" points="63.75,-605 63.75,-627.5 252.75,-627.5 252.75,-605 63.75,-605"/>
<text text-anchor="start" x="79.12" y="-611.2" font-family="Times New Roman,Times,Liberation Serif,serif" font-size="14.00">Optional[DistributionFeeder]</text>
<polygon fill="none" stroke="black" points="0,-582.5 0,-605 63.75,-605 63.75,-582.5 0,-582.5"/>
<text text-anchor="start" x="4.12" y="-588.7" font-family="Times New Roman,Times,Liberation Serif,serif" font-size="14.00">in_service</text>
<polygon fill="none" stroke="black" points="63.75,-582.5 63.75,-605 252.75,-605 252.75,-582.5 63.75,-582.5"/>
<text text-anchor="start" x="146.25" y="-588.7" font-family="Times New Roman,Times,Liberation Serif,serif" font-size="14.00">bool</text>
<polygon fill="none" stroke="black" points="0,-560 0,-582.5 63.75,-582.5 63.75,-560 0,-560"/>
<text text-anchor="start" x="16.88" y="-566.2" font-family="Times New Roman,Times,Liberation Serif,serif" font-size="14.00">buses</text>
<polygon fill="none" stroke="black" points="63.75,-560 63.75,-582.5 252.75,-582.5 252.75,-560 63.75,-560"/>
<text text-anchor="start" x="102.38" y="-566.2" font-family="Times New Roman,Times,Liberation Serif,serif" font-size="14.00">list[DistributionBus]</text>
<polygon fill="none" stroke="black" points="0,-537.5 0,-560 63.75,-560 63.75,-537.5 0,-537.5"/>
<text text-anchor="start" x="15" y="-543.7" font-family="Times New Roman,Times,Liberation Serif,serif" font-size="14.00">length</text>
<polygon fill="none" stroke="black" points="63.75,-537.5 63.75,-560 252.75,-560 252.75,-537.5 63.75,-537.5"/>
<text text-anchor="start" x="112.88" y="-543.7" font-family="Times New Roman,Times,Liberation Serif,serif" font-size="14.00">PositiveDistance</text>
<polygon fill="none" stroke="black" points="0,-515 0,-537.5 63.75,-537.5 63.75,-515 0,-515"/>
<text text-anchor="start" x="13.88" y="-521.2" font-family="Times New Roman,Times,Liberation Serif,serif" font-size="14.00">phases</text>
<polygon fill="none" stroke="black" points="63.75,-515 63.75,-537.5 252.75,-537.5 252.75,-515 63.75,-515"/>
<text text-anchor="start" x="129.75" y="-521.2" font-family="Times New Roman,Times,Liberation Serif,serif" font-size="14.00">list[Phase]</text>
<polygon fill="none" stroke="black" points="0,-492.5 0,-515 63.75,-515 63.75,-492.5 0,-492.5"/>
<text text-anchor="start" x="6.75" y="-498.7" font-family="Times New Roman,Times,Liberation Serif,serif" font-size="14.00">is_closed</text>
<polygon fill="none" stroke="black" points="63.75,-492.5 63.75,-515 252.75,-515 252.75,-492.5 63.75,-492.5"/>
<text text-anchor="start" x="133.5" y="-498.7" font-family="Times New Roman,Times,Liberation Serif,serif" font-size="14.00">list[bool]</text>
<polygon fill="none" stroke="black" points="0,-470 0,-492.5 63.75,-492.5 63.75,-470 0,-470"/>
<text text-anchor="start" x="3" y="-476.2" font-family="Times New Roman,Times,Liberation Serif,serif" font-size="14.00">equipment</text>
<polygon fill="none" stroke="black" points="63.75,-470 63.75,-492.5 252.75,-492.5 252.75,-470 63.75,-470"/>
<text text-anchor="start" x="66.75" y="-476.2" font-family="Times New Roman,Times,Liberation Serif,serif" font-size="14.00">MatrixImpedanceFuseEquipment</text>
</a>
</g>
</g>
<!-- gdm.distribution.components.matrix_impedance_fuse.MatrixImpedanceFuse&#45;&gt;gdm.distribution.components.distribution_bus.DistributionBus -->
<g id="edge6" class="edge">
<title>gdm.distribution.components.matrix_impedance_fuse.MatrixImpedanceFuse:e&#45;&gt;gdm.distribution.components.distribution_bus.DistributionBus:w</title>
<path fill="none" stroke="black" d="M262.66,-571.1C297.81,-569.98 312.3,-563.09 345.34,-561.38"/>
<polyline fill="none" stroke="black" points="252.75,-571.25 257.75,-571.17"/>
<polyline fill="none" stroke="black" points="257.75,-571.17 262.75,-571.1"/>
<polygon fill="black" stroke="black" points="350.42,-561.26 360.53,-565.51 355.75,-561.12 360.08,-561.02 360.08,-561.02 360.08,-561.02 355.75,-561.12 360.3,-556.51 350.42,-561.26"/>
<polyline fill="none" stroke="black" points="349.2,-561.29 344.2,-561.41"/>
</g>
<!-- gdm.distribution.components.matrix_impedance_fuse.MatrixImpedanceFuse&#45;&gt;gdm.distribution.components.distribution_feeder.DistributionFeeder -->
<g id="edge7" class="edge">
<title>gdm.distribution.components.matrix_impedance_fuse.MatrixImpedanceFuse:e&#45;&gt;gdm.distribution.components.distribution_feeder.DistributionFeeder:w</title>
<path fill="none" stroke="black" d="M262.66,-616.25C588.98,-616.48 678.57,-627.82 1000.73,-628.24"/>
<polyline fill="none" stroke="black" points="252.75,-616.25 257.75,-616.25"/>
<polyline fill="none" stroke="black" points="257.75,-616.25 262.75,-616.25"/>
<polyline fill="none" stroke="black" points="1019.25,-628.25 1014.25,-628.25"/>
<polygon fill="black" stroke="black" points="1013.25,-623.25 1013.25,-633.25 1011.25,-633.24 1011.25,-623.24 1013.25,-623.25"/>
<polyline fill="none" stroke="black" points="1014.25,-628.25 1009.25,-628.24"/>
<ellipse fill="none" stroke="black" cx="1004.75" cy="-628.24" rx="4" ry="4"/>
</g>
<!-- gdm.distribution.components.matrix_impedance_fuse.MatrixImpedanceFuse&#45;&gt;gdm.distribution.components.distribution_substation.DistributionSubstation -->
<g id="edge8" class="edge">
<title>gdm.distribution.components.matrix_impedance_fuse.MatrixImpedanceFuse:e&#45;&gt;gdm.distribution.components.distribution_substation.DistributionSubstation:w</title>
<path fill="none" stroke="black" d="M262.46,-639.04C371.16,-645.25 599.01,-749.15 713.98,-760.5"/>
<polyline fill="none" stroke="black" points="252.75,-638.75 257.75,-638.9"/>
<polyline fill="none" stroke="black" points="257.75,-638.9 262.75,-639.05"/>
<polyline fill="none" stroke="black" points="732.75,-761.5 727.76,-761.23"/>
<polygon fill="black" stroke="black" points="727.03,-756.19 726.49,-766.17 724.49,-766.07 725.03,-756.08 727.03,-756.19"/>
<polyline fill="none" stroke="black" points="727.76,-761.23 722.76,-760.97"/>
<ellipse fill="none" stroke="black" cx="718.27" cy="-760.73" rx="4" ry="4"/>
</g>
<!-- gdm.distribution.equipment.matrix_impedance_fuse_equipment.MatrixImpedanceFuseEquipment -->
<g id="node8" class="node">
<title>gdm.distribution.equipment.matrix_impedance_fuse_equipment.MatrixImpedanceFuseEquipment</title>
<g id="a_node8"><a xlink:title="gdm.distribution.equipment.matrix_impedance_fuse_equipment.MatrixImpedanceFuseEquipment&#10;&#10;Data model for impedance based fuse equipment.&#10;">
<polygon fill="none" stroke="black" points="390.75,-288.5 390.75,-311 594.75,-311 594.75,-288.5 390.75,-288.5"/>
<text text-anchor="start" x="393.75" y="-295.7" font-family="Times New Roman,Times,Liberation Serif,serif" font-weight="bold" font-size="14.00">MatrixImpedanceFuseEquipment</text>
<polygon fill="none" stroke="black" points="390.75,-266 390.75,-288.5 458.25,-288.5 458.25,-266 390.75,-266"/>
<text text-anchor="start" x="412.5" y="-272.2" font-family="Times New Roman,Times,Liberation Serif,serif" font-size="14.00">uuid</text>
<polygon fill="none" stroke="black" points="458.25,-266 458.25,-288.5 594.75,-288.5 594.75,-266 458.25,-266"/>
<text text-anchor="start" x="509.62" y="-272.2" font-family="Times New Roman,Times,Liberation Serif,serif" font-size="14.00">UUID</text>
<polygon fill="none" stroke="black" points="390.75,-243.5 390.75,-266 458.25,-266 458.25,-243.5 390.75,-243.5"/>
<text text-anchor="start" x="409.5" y="-249.7" font-family="Times New Roman,Times,Liberation Serif,serif" font-size="14.00">name</text>
<polygon fill="none" stroke="black" points="458.25,-243.5 458.25,-266 594.75,-266 594.75,-243.5 458.25,-243.5"/>
<text text-anchor="start" x="519.75" y="-249.7" font-family="Times New Roman,Times,Liberation Serif,serif" font-size="14.00">str</text>
<polygon fill="none" stroke="black" points="390.75,-221 390.75,-243.5 458.25,-243.5 458.25,-221 390.75,-221"/>
<text text-anchor="start" x="400.88" y="-227.2" font-family="Times New Roman,Times,Liberation Serif,serif" font-size="14.00">r_matrix</text>
<polygon fill="none" stroke="black" points="458.25,-221 458.25,-243.5 594.75,-243.5 594.75,-221 458.25,-221"/>
<text text-anchor="start" x="469.88" y="-227.2" font-family="Times New Roman,Times,Liberation Serif,serif" font-size="14.00">ResistancePULength</text>
<polygon fill="none" stroke="black" points="390.75,-198.5 390.75,-221 458.25,-221 458.25,-198.5 390.75,-198.5"/>
<text text-anchor="start" x="399.75" y="-204.7" font-family="Times New Roman,Times,Liberation Serif,serif" font-size="14.00">x_matrix</text>
<polygon fill="none" stroke="black" points="458.25,-198.5 458.25,-221 594.75,-221 594.75,-198.5 458.25,-198.5"/>
<text text-anchor="start" x="471" y="-204.7" font-family="Times New Roman,Times,Liberation Serif,serif" font-size="14.00">ReactancePULength</text>
<polygon fill="none" stroke="black" points="390.75,-176 390.75,-198.5 458.25,-198.5 458.25,-176 390.75,-176"/>
<text text-anchor="start" x="400.12" y="-182.2" font-family="Times New Roman,Times,Liberation Serif,serif" font-size="14.00">c_matrix</text>
<polygon fill="none" stroke="black" points="458.25,-176 458.25,-198.5 594.75,-198.5 594.75,-176 458.25,-176"/>
<text text-anchor="start" x="465.75" y="-182.2" font-family="Times New Roman,Times,Liberation Serif,serif" font-size="14.00">CapacitancePULength</text>
<polygon fill="none" stroke="black" points="390.75,-153.5 390.75,-176 458.25,-176 458.25,-153.5 390.75,-153.5"/>
<text text-anchor="start" x="399.38" y="-159.7" font-family="Times New Roman,Times,Liberation Serif,serif" font-size="14.00">ampacity</text>
<polygon fill="none" stroke="black" points="458.25,-153.5 458.25,-176 594.75,-176 594.75,-153.5 458.25,-153.5"/>
<text text-anchor="start" x="484.12" y="-159.7" font-family="Times New Roman,Times,Liberation Serif,serif" font-size="14.00">PositiveCurrent</text>
<polygon fill="none" stroke="black" points="390.75,-131 390.75,-153.5 458.25,-153.5 458.25,-131 390.75,-131"/>
<text text-anchor="start" x="409.88" y="-137.2" font-family="Times New Roman,Times,Liberation Serif,serif" font-size="14.00">delay</text>
<polygon fill="none" stroke="black" points="458.25,-131 458.25,-153.5 594.75,-153.5 594.75,-131 458.25,-131"/>
<text text-anchor="start" x="511.88" y="-137.2" font-family="Times New Roman,Times,Liberation Serif,serif" font-size="14.00">Time</text>
<polygon fill="none" stroke="black" points="390.75,-108.5 390.75,-131 458.25,-131 458.25,-108.5 390.75,-108.5"/>
<text text-anchor="start" x="398.25" y="-114.7" font-family="Times New Roman,Times,Liberation Serif,serif" font-size="14.00">tcc_curve</text>
<polygon fill="none" stroke="black" points="458.25,-108.5 458.25,-131 594.75,-131 594.75,-108.5 458.25,-108.5"/>
<text text-anchor="start" x="474.75" y="-114.7" font-family="Times New Roman,Times,Liberation Serif,serif" font-size="14.00">TimeCurrentCurve</text>
</a>
</g>
</g>
<!-- gdm.distribution.components.matrix_impedance_fuse.MatrixImpedanceFuse&#45;&gt;gdm.distribution.equipment.matrix_impedance_fuse_equipment.MatrixImpedanceFuseEquipment -->
<g id="edge9" class="edge">
<title>gdm.distribution.components.matrix_impedance_fuse.MatrixImpedanceFuse:e&#45;&gt;gdm.distribution.equipment.matrix_impedance_fuse_equipment.MatrixImpedanceFuseEquipment:w</title>
<path fill="none" stroke="black" d="M262.54,-480.63C344.8,-469.69 297.99,-317.8 375.08,-301.22"/>
<polyline fill="none" stroke="black" points="252.75,-481.25 257.74,-480.93"/>
<polyline fill="none" stroke="black" points="257.74,-480.93 262.73,-480.62"/>
<polyline fill="none" stroke="black" points="389.75,-299.75 384.77,-300.25"/>
<polygon fill="black" stroke="black" points="383.28,-295.37 384.28,-305.32 382.29,-305.52 381.29,-295.57 383.28,-295.37"/>
<polyline fill="none" stroke="black" points="384.77,-300.25 379.8,-300.74"/>
<polygon fill="black" stroke="black" points="378.31,-295.87 379.3,-305.82 377.31,-306.02 376.32,-296.07 378.31,-295.87"/>
<polyline fill="none" stroke="black" points="379.8,-300.74 374.82,-301.24"/>
</g>
<!-- gdm.distribution.equipment.matrix_impedance_fuse_equipment.MatrixImpedanceFuseEquipment&#45;&gt;gdm.distribution.common.curve.TimeCurrentCurve -->
<g id="edge10" class="edge">
<title>gdm.distribution.equipment.matrix_impedance_fuse_equipment.MatrixImpedanceFuseEquipment:e&#45;&gt;gdm.distribution.common.curve.TimeCurrentCurve:w</title>
<path fill="none" stroke="black" d="M605.73,-119.75C666.19,-119.75 687.79,-119.75 746.2,-119.75"/>
<polyline fill="none" stroke="black" points="595.75,-119.75 600.75,-119.75"/>
<polyline fill="none" stroke="black" points="600.75,-119.75 605.75,-119.75"/>
<polyline fill="none" stroke="black" points="761,-119.75 756,-119.75"/>
<polygon fill="black" stroke="black" points="755,-114.75 755,-124.75 753,-124.75 753,-114.75 755,-114.75"/>
<polyline fill="none" stroke="black" points="756,-119.75 751,-119.75"/>
<polygon fill="black" stroke="black" points="750,-114.75 750,-124.75 748,-124.75 748,-114.75 750,-114.75"/>
<polyline fill="none" stroke="black" points="751,-119.75 746,-119.75"/>
</g>
</g>
</svg>
