<?xml version="1.0" encoding="UTF-8" standalone="no"?>
<!DOCTYPE svg PUBLIC "-//W3C//DTD SVG 1.1//EN"
 "http://www.w3.org/Graphics/SVG/1.1/DTD/svg11.dtd">
<!-- Generated by graphviz version 12.2.1 (20241206.2353)
 -->
<!-- Title: Entity Relationship Diagram created by erdantic Pages: 1 -->
<svg width="275pt" height="184pt"
 viewBox="0.00 0.00 274.50 184.00" xmlns="http://www.w3.org/2000/svg" xmlns:xlink="http://www.w3.org/1999/xlink">
<g id="graph0" class="graph" transform="scale(1 1) rotate(0) translate(4 180)">
<title>Entity Relationship Diagram created by erdantic</title>
<polygon fill="white" stroke="none" points="-4,4 -4,-180 270.5,-180 270.5,4 -4,4"/>
<text text-anchor="middle" x="133.25" y="-5.95" font-family="Times New Roman,Times,Liberation Serif,serif" font-size="9.00" fill="#a8a8a8">Created by erdantic v1.0.5 &lt;https://github.com/drivendataorg/erdantic&gt;</text>
<!-- gdm.distribution.equipment.base.matrix_impedance_branch_equipment_base.MatrixImpedanceBranchEquipmentBase -->
<g id="node1" class="node">
<title>gdm.distribution.equipment.base.matrix_impedance_branch_equipment_base.MatrixImpedanceBranchEquipmentBase</title>
<g id="a_node1"><a xlink:title="gdm.distribution.equipment.base.matrix_impedance_branch_equipment_base.MatrixImpedanceBranchEquipmentBase&#10;&#10;Data model for impedance based branch.&#10;">
<polygon fill="none" stroke="black" points="9.88,-153.5 9.88,-176 256.62,-176 256.62,-153.5 9.88,-153.5"/>
<text text-anchor="start" x="12.88" y="-160.7" font-family="Times New Roman,Times,Liberation Serif,serif" font-weight="bold" font-size="14.00">MatrixImpedanceBranchEquipmentBase</text>
<polygon fill="none" stroke="black" points="9.88,-131 9.88,-153.5 97.62,-153.5 97.62,-131 9.88,-131"/>
<text text-anchor="start" x="41.75" y="-137.2" font-family="Times New Roman,Times,Liberation Serif,serif" font-size="14.00">uuid</text>
<polygon fill="none" stroke="black" points="97.62,-131 97.62,-153.5 256.62,-153.5 256.62,-131 97.62,-131"/>
<text text-anchor="start" x="160.25" y="-137.2" font-family="Times New Roman,Times,Liberation Serif,serif" font-size="14.00">UUID</text>
<polygon fill="none" stroke="black" points="9.88,-108.5 9.88,-131 97.62,-131 97.62,-108.5 9.88,-108.5"/>
<text text-anchor="start" x="38.75" y="-114.7" font-family="Times New Roman,Times,Liberation Serif,serif" font-size="14.00">name</text>
<polygon fill="none" stroke="black" points="97.62,-108.5 97.62,-131 256.62,-131 256.62,-108.5 97.62,-108.5"/>
<text text-anchor="start" x="170.38" y="-114.7" font-family="Times New Roman,Times,Liberation Serif,serif" font-size="14.00">str</text>
<polygon fill="none" stroke="black" points="9.88,-86 9.88,-108.5 97.62,-108.5 97.62,-86 9.88,-86"/>
<text text-anchor="start" x="30.12" y="-92.2" font-family="Times New Roman,Times,Liberation Serif,serif" font-size="14.00">r_matrix</text>
<polygon fill="none" stroke="black" points="97.62,-86 97.62,-108.5 256.62,-108.5 256.62,-86 97.62,-86"/>
<text text-anchor="start" x="120.5" y="-92.2" font-family="Times New Roman,Times,Liberation Serif,serif" font-size="14.00">ResistancePULength</text>
<polygon fill="none" stroke="black" points="9.88,-63.5 9.88,-86 97.62,-86 97.62,-63.5 9.88,-63.5"/>
<text text-anchor="start" x="29" y="-69.7" font-family="Times New Roman,Times,Liberation Serif,serif" font-size="14.00">x_matrix</text>
<polygon fill="none" stroke="black" points="97.62,-63.5 97.62,-86 256.62,-86 256.62,-63.5 97.62,-63.5"/>
<text text-anchor="start" x="121.62" y="-69.7" font-family="Times New Roman,Times,Liberation Serif,serif" font-size="14.00">ReactancePULength</text>
<polygon fill="none" stroke="black" points="9.88,-41 9.88,-63.5 97.62,-63.5 97.62,-41 9.88,-41"/>
<text text-anchor="start" x="29.38" y="-47.2" font-family="Times New Roman,Times,Liberation Serif,serif" font-size="14.00">c_matrix</text>
<polygon fill="none" stroke="black" points="97.62,-41 97.62,-63.5 256.62,-63.5 256.62,-41 97.62,-41"/>
<text text-anchor="start" x="116.38" y="-47.2" font-family="Times New Roman,Times,Liberation Serif,serif" font-size="14.00">CapacitancePULength</text>
<polygon fill="none" stroke="black" points="9.88,-18.5 9.88,-41 97.62,-41 97.62,-18.5 9.88,-18.5"/>
<text text-anchor="start" x="28.62" y="-24.7" font-family="Times New Roman,Times,Liberation Serif,serif" font-size="14.00">ampacity</text>
<polygon fill="none" stroke="black" points="97.62,-18.5 97.62,-41 256.62,-41 256.62,-18.5 97.62,-18.5"/>
<text text-anchor="start" x="134.75" y="-24.7" font-family="Times New Roman,Times,Liberation Serif,serif" font-size="14.00">PositiveCurrent</text>
</a>
</g>
</g>
</g>
</svg>
