<?xml version="1.0" encoding="UTF-8" standalone="no"?>
<!DOCTYPE svg PUBLIC "-//W3C//DTD SVG 1.1//EN"
 "http://www.w3.org/Graphics/SVG/1.1/DTD/svg11.dtd">
<!-- Generated by graphviz version 9.0.0 (0)
 -->
<!-- Title: Entity Relationship Diagram created by erdantic Pages: 1 -->
<svg width="612pt" height="397pt"
 viewBox="0.00 0.00 612.00 396.50" xmlns="http://www.w3.org/2000/svg" xmlns:xlink="http://www.w3.org/1999/xlink">
<g id="graph0" class="graph" transform="scale(1 1) rotate(0) translate(4 392.5)">
<title>Entity Relationship Diagram created by erdantic</title>
<polygon fill="white" stroke="none" points="-4,4 -4,-392.5 608,-392.5 608,4 -4,4"/>
<text text-anchor="middle" x="302" y="-5.95" font-family="Times New Roman,Times,Liberation Serif,serif" font-size="9.00" fill="#a8a8a8">Created by erdantic v0.6.0 &lt;https://github.com/drivendataorg/erdantic&gt;</text>
<!-- gdm.distribution.controllers.distribution_switch_controller.DistributionSwitchController -->
<g id="node1" class="node">
<title>gdm.distribution.controllers.distribution_switch_controller.DistributionSwitchController</title>
<g id="a_node1"><a xlink:title="gdm.distribution.controllers.distribution_switch_controller.DistributionSwitchController&#10;&#10;Interface for distribution switch controller.&#10;">
<polygon fill="none" stroke="black" points="407,-128.5 407,-150.5 604,-150.5 604,-128.5 407,-128.5"/>
<text text-anchor="start" x="420.38" y="-135.2" font-family="Times New Roman,Times,Liberation Serif,serif" font-weight="bold" font-size="14.00">DistributionSwitchController</text>
<polygon fill="none" stroke="black" points="407,-106.5 407,-128.5 483,-128.5 483,-106.5 407,-106.5"/>
<text text-anchor="start" x="433" y="-112.2" font-family="Times New Roman,Times,Liberation Serif,serif" font-size="14.00">uuid</text>
<polygon fill="none" stroke="black" points="483,-106.5 483,-128.5 604,-128.5 604,-106.5 483,-106.5"/>
<text text-anchor="start" x="526.62" y="-112.2" font-family="Times New Roman,Times,Liberation Serif,serif" font-size="14.00">UUID</text>
<polygon fill="none" stroke="black" points="407,-84.5 407,-106.5 483,-106.5 483,-84.5 407,-84.5"/>
<text text-anchor="start" x="430" y="-90.2" font-family="Times New Roman,Times,Liberation Serif,serif" font-size="14.00">name</text>
<polygon fill="none" stroke="black" points="483,-84.5 483,-106.5 604,-106.5 604,-84.5 483,-84.5"/>
<text text-anchor="start" x="536.75" y="-90.2" font-family="Times New Roman,Times,Liberation Serif,serif" font-size="14.00">str</text>
<polygon fill="none" stroke="black" points="407,-62.5 407,-84.5 483,-84.5 483,-62.5 407,-62.5"/>
<text text-anchor="start" x="430.38" y="-68.2" font-family="Times New Roman,Times,Liberation Serif,serif" font-size="14.00">delay</text>
<polygon fill="none" stroke="black" points="483,-62.5 483,-84.5 604,-84.5 604,-62.5 483,-62.5"/>
<text text-anchor="start" x="528.88" y="-68.2" font-family="Times New Roman,Times,Liberation Serif,serif" font-size="14.00">Time</text>
<polygon fill="none" stroke="black" points="407,-40.5 407,-62.5 483,-62.5 483,-40.5 407,-40.5"/>
<text text-anchor="start" x="409.75" y="-46.2" font-family="Times New Roman,Times,Liberation Serif,serif" font-size="14.00">normal_state</text>
<polygon fill="none" stroke="black" points="483,-40.5 483,-62.5 604,-62.5 604,-40.5 483,-40.5"/>
<text text-anchor="start" x="485.75" y="-46.2" font-family="Times New Roman,Times,Liberation Serif,serif" font-size="14.00">Literal[&#39;open&#39;, &#39;close&#39;]</text>
<polygon fill="none" stroke="black" points="407,-18.5 407,-40.5 483,-40.5 483,-18.5 407,-18.5"/>
<text text-anchor="start" x="419.12" y="-24.2" font-family="Times New Roman,Times,Liberation Serif,serif" font-size="14.00">is_locked</text>
<polygon fill="none" stroke="black" points="483,-18.5 483,-40.5 604,-40.5 604,-18.5 483,-18.5"/>
<text text-anchor="start" x="531.5" y="-24.2" font-family="Times New Roman,Times,Liberation Serif,serif" font-size="14.00">bool</text>
</a>
</g>
</g>
<!-- gdm.distribution.equipment.matrix_impedance_switch_equipment.MatrixImpedanceSwitchEquipment -->
<g id="node2" class="node">
<title>gdm.distribution.equipment.matrix_impedance_switch_equipment.MatrixImpedanceSwitchEquipment</title>
<g id="a_node2"><a xlink:title="gdm.distribution.equipment.matrix_impedance_switch_equipment.MatrixImpedanceSwitchEquipment&#10;&#10;Interface for matrix impedance based recloser equipment.&#10;">
<polygon fill="none" stroke="black" points="0,-366.5 0,-388.5 299,-388.5 299,-366.5 0,-366.5"/>
<text text-anchor="start" x="44.5" y="-373.2" font-family="Times New Roman,Times,Liberation Serif,serif" font-weight="bold" font-size="14.00">MatrixImpedanceSwitchEquipment</text>
<polygon fill="none" stroke="black" points="0,-344.5 0,-366.5 79,-366.5 79,-344.5 0,-344.5"/>
<text text-anchor="start" x="27.5" y="-350.2" font-family="Times New Roman,Times,Liberation Serif,serif" font-size="14.00">uuid</text>
<polygon fill="none" stroke="black" points="79,-344.5 79,-366.5 299,-366.5 299,-344.5 79,-344.5"/>
<text text-anchor="start" x="172.12" y="-350.2" font-family="Times New Roman,Times,Liberation Serif,serif" font-size="14.00">UUID</text>
<polygon fill="none" stroke="black" points="0,-322.5 0,-344.5 79,-344.5 79,-322.5 0,-322.5"/>
<text text-anchor="start" x="24.5" y="-328.2" font-family="Times New Roman,Times,Liberation Serif,serif" font-size="14.00">name</text>
<polygon fill="none" stroke="black" points="79,-322.5 79,-344.5 299,-344.5 299,-322.5 79,-322.5"/>
<text text-anchor="start" x="182.25" y="-328.2" font-family="Times New Roman,Times,Liberation Serif,serif" font-size="14.00">str</text>
<polygon fill="none" stroke="black" points="0,-300.5 0,-322.5 79,-322.5 79,-300.5 0,-300.5"/>
<text text-anchor="start" x="15.88" y="-306.2" font-family="Times New Roman,Times,Liberation Serif,serif" font-size="14.00">r_matrix</text>
<polygon fill="none" stroke="black" points="79,-300.5 79,-322.5 299,-322.5 299,-300.5 79,-300.5"/>
<text text-anchor="start" x="132.38" y="-306.2" font-family="Times New Roman,Times,Liberation Serif,serif" font-size="14.00">ResistancePULength</text>
<polygon fill="none" stroke="black" points="0,-278.5 0,-300.5 79,-300.5 79,-278.5 0,-278.5"/>
<text text-anchor="start" x="14.75" y="-284.2" font-family="Times New Roman,Times,Liberation Serif,serif" font-size="14.00">x_matrix</text>
<polygon fill="none" stroke="black" points="79,-278.5 79,-300.5 299,-300.5 299,-278.5 79,-278.5"/>
<text text-anchor="start" x="133.5" y="-284.2" font-family="Times New Roman,Times,Liberation Serif,serif" font-size="14.00">ReactancePULength</text>
<polygon fill="none" stroke="black" points="0,-256.5 0,-278.5 79,-278.5 79,-256.5 0,-256.5"/>
<text text-anchor="start" x="15.12" y="-262.2" font-family="Times New Roman,Times,Liberation Serif,serif" font-size="14.00">c_matrix</text>
<polygon fill="none" stroke="black" points="79,-256.5 79,-278.5 299,-278.5 299,-256.5 79,-256.5"/>
<text text-anchor="start" x="128.25" y="-262.2" font-family="Times New Roman,Times,Liberation Serif,serif" font-size="14.00">CapacitancePULength</text>
<polygon fill="none" stroke="black" points="0,-234.5 0,-256.5 79,-256.5 79,-234.5 0,-234.5"/>
<text text-anchor="start" x="14.38" y="-240.2" font-family="Times New Roman,Times,Liberation Serif,serif" font-size="14.00">ampacity</text>
<polygon fill="none" stroke="black" points="79,-234.5 79,-256.5 299,-256.5 299,-234.5 79,-234.5"/>
<text text-anchor="start" x="146.62" y="-240.2" font-family="Times New Roman,Times,Liberation Serif,serif" font-size="14.00">PositiveCurrent</text>
<polygon fill="none" stroke="black" points="0,-212.5 0,-234.5 79,-234.5 79,-212.5 0,-212.5"/>
<text text-anchor="start" x="2.75" y="-218.2" font-family="Times New Roman,Times,Liberation Serif,serif" font-size="14.00">loading_limit</text>
<polygon fill="none" stroke="black" points="79,-212.5 79,-234.5 299,-234.5 299,-212.5 79,-212.5"/>
<text text-anchor="start" x="113.62" y="-218.2" font-family="Times New Roman,Times,Liberation Serif,serif" font-size="14.00">Optional[ThermalLimitSet]</text>
<polygon fill="none" stroke="black" points="0,-190.5 0,-212.5 79,-212.5 79,-190.5 0,-190.5"/>
<text text-anchor="start" x="13.25" y="-196.2" font-family="Times New Roman,Times,Liberation Serif,serif" font-size="14.00">controller</text>
<polygon fill="none" stroke="black" points="79,-190.5 79,-212.5 299,-212.5 299,-190.5 79,-190.5"/>
<text text-anchor="start" x="81.75" y="-196.2" font-family="Times New Roman,Times,Liberation Serif,serif" font-size="14.00">Optional[DistributionSwitchController]</text>
</a>
</g>
</g>
<!-- gdm.distribution.equipment.matrix_impedance_switch_equipment.MatrixImpedanceSwitchEquipment&#45;&gt;gdm.distribution.controllers.distribution_switch_controller.DistributionSwitchController -->
<g id="edge1" class="edge">
<title>gdm.distribution.equipment.matrix_impedance_switch_equipment.MatrixImpedanceSwitchEquipment:e&#45;&gt;gdm.distribution.controllers.distribution_switch_controller.DistributionSwitchController:w</title>
<path fill="none" stroke="black" d="M308.73,-200.8C348.01,-194.92 354.04,-153.51 388.33,-142.29"/>
<polyline fill="none" stroke="black" points="299,-201.5 303.99,-201.14"/>
<polyline fill="none" stroke="black" points="303.99,-201.14 308.97,-200.79"/>
<polyline fill="none" stroke="black" points="407,-139.5 402.06,-140.24"/>
<polygon fill="black" stroke="black" points="400.33,-135.44 401.81,-145.33 399.83,-145.63 398.35,-135.74 400.33,-135.44"/>
<polyline fill="none" stroke="black" points="402.06,-140.24 397.11,-140.98"/>
<ellipse fill="none" stroke="black" cx="392.66" cy="-141.65" rx="4" ry="4"/>
</g>
<!-- gdm.distribution.limitset.ThermalLimitSet -->
<g id="node3" class="node">
<title>gdm.distribution.limitset.ThermalLimitSet</title>
<g id="a_node3"><a xlink:title="gdm.distribution.limitset.ThermalLimitSet&#10;&#10;Interface for voltage limit set.&#10;">
<polygon fill="none" stroke="black" points="429.5,-274.5 429.5,-296.5 581.5,-296.5 581.5,-274.5 429.5,-274.5"/>
<text text-anchor="start" x="454.5" y="-281.2" font-family="Times New Roman,Times,Liberation Serif,serif" font-weight="bold" font-size="14.00">ThermalLimitSet</text>
<polygon fill="none" stroke="black" points="429.5,-252.5 429.5,-274.5 491.5,-274.5 491.5,-252.5 429.5,-252.5"/>
<text text-anchor="start" x="448.5" y="-258.2" font-family="Times New Roman,Times,Liberation Serif,serif" font-size="14.00">uuid</text>
<polygon fill="none" stroke="black" points="491.5,-252.5 491.5,-274.5 581.5,-274.5 581.5,-252.5 491.5,-252.5"/>
<text text-anchor="start" x="519.62" y="-258.2" font-family="Times New Roman,Times,Liberation Serif,serif" font-size="14.00">UUID</text>
<polygon fill="none" stroke="black" points="429.5,-230.5 429.5,-252.5 491.5,-252.5 491.5,-230.5 429.5,-230.5"/>
<text text-anchor="start" x="445.5" y="-236.2" font-family="Times New Roman,Times,Liberation Serif,serif" font-size="14.00">name</text>
<polygon fill="none" stroke="black" points="491.5,-230.5 491.5,-252.5 581.5,-252.5 581.5,-230.5 491.5,-230.5"/>
<text text-anchor="start" x="529.75" y="-236.2" font-family="Times New Roman,Times,Liberation Serif,serif" font-size="14.00">str</text>
<polygon fill="none" stroke="black" points="429.5,-208.5 429.5,-230.5 491.5,-230.5 491.5,-208.5 429.5,-208.5"/>
<text text-anchor="start" x="432.38" y="-214.2" font-family="Times New Roman,Times,Liberation Serif,serif" font-size="14.00">limit_type</text>
<polygon fill="none" stroke="black" points="491.5,-208.5 491.5,-230.5 581.5,-230.5 581.5,-208.5 491.5,-208.5"/>
<text text-anchor="start" x="507.62" y="-214.2" font-family="Times New Roman,Times,Liberation Serif,serif" font-size="14.00">LimitType</text>
<polygon fill="none" stroke="black" points="429.5,-186.5 429.5,-208.5 491.5,-208.5 491.5,-186.5 429.5,-186.5"/>
<text text-anchor="start" x="445.88" y="-192.2" font-family="Times New Roman,Times,Liberation Serif,serif" font-size="14.00">value</text>
<polygon fill="none" stroke="black" points="491.5,-186.5 491.5,-208.5 581.5,-208.5 581.5,-186.5 491.5,-186.5"/>
<text text-anchor="start" x="494.12" y="-192.2" font-family="Times New Roman,Times,Liberation Serif,serif" font-size="14.00">PositiveCurrent</text>
</a>
</g>
</g>
<!-- gdm.distribution.equipment.matrix_impedance_switch_equipment.MatrixImpedanceSwitchEquipment&#45;&gt;gdm.distribution.limitset.ThermalLimitSet -->
<g id="edge2" class="edge">
<title>gdm.distribution.equipment.matrix_impedance_switch_equipment.MatrixImpedanceSwitchEquipment:e&#45;&gt;gdm.distribution.limitset.ThermalLimitSet:w</title>
<path fill="none" stroke="black" d="M308.93,-224.04C356.95,-229.4 366.38,-273.39 409.69,-283.45"/>
<polyline fill="none" stroke="black" points="299,-223.5 303.99,-223.77"/>
<polyline fill="none" stroke="black" points="303.99,-223.77 308.99,-224.04"/>
<polyline fill="none" stroke="black" points="428.5,-285.5 423.53,-284.96"/>
<polygon fill="black" stroke="black" points="423.08,-279.88 421.99,-289.82 420.01,-289.61 421.09,-279.66 423.08,-279.88"/>
<polyline fill="none" stroke="black" points="423.53,-284.96 418.56,-284.42"/>
<ellipse fill="none" stroke="black" cx="414.09" cy="-283.93" rx="4" ry="4"/>
</g>
</g>
</svg>
