<?xml version="1.0" encoding="UTF-8" standalone="no"?>
<!DOCTYPE svg PUBLIC "-//W3C//DTD SVG 1.1//EN"
 "http://www.w3.org/Graphics/SVG/1.1/DTD/svg11.dtd">
<!-- Generated by graphviz version 12.2.1 (20241206.2353)
 -->
<!-- Title: Entity Relationship Diagram created by erdantic Pages: 1 -->
<svg width="505pt" height="296pt"
 viewBox="0.00 0.00 505.25 295.75" xmlns="http://www.w3.org/2000/svg" xmlns:xlink="http://www.w3.org/1999/xlink">
<g id="graph0" class="graph" transform="scale(1 1) rotate(0) translate(4 291.75)">
<title>Entity Relationship Diagram created by erdantic</title>
<polygon fill="white" stroke="none" points="-4,4 -4,-291.75 501.25,-291.75 501.25,4 -4,4"/>
<text text-anchor="middle" x="248.62" y="-5.95" font-family="Times New Roman,Times,Liberation Serif,serif" font-size="9.00" fill="#a8a8a8">Created by erdantic v1.0.5 &lt;https://github.com/drivendataorg/erdantic&gt;</text>
<!-- gdm.distribution.common.limitset.ThermalLimitSet -->
<g id="node1" class="node">
<title>gdm.distribution.common.limitset.ThermalLimitSet</title>
<g id="a_node1"><a xlink:title="gdm.distribution.common.limitset.ThermalLimitSet&#10;&#10;Interface for voltage limit set.&#10;">
<polygon fill="none" stroke="black" points="344.25,-108.5 344.25,-131 497.25,-131 497.25,-108.5 344.25,-108.5"/>
<text text-anchor="start" x="369.75" y="-115.7" font-family="Times New Roman,Times,Liberation Serif,serif" font-weight="bold" font-size="14.00">ThermalLimitSet</text>
<polygon fill="none" stroke="black" points="344.25,-86 344.25,-108.5 406.5,-108.5 406.5,-86 344.25,-86"/>
<text text-anchor="start" x="363.38" y="-92.2" font-family="Times New Roman,Times,Liberation Serif,serif" font-size="14.00">uuid</text>
<polygon fill="none" stroke="black" points="406.5,-86 406.5,-108.5 497.25,-108.5 497.25,-86 406.5,-86"/>
<text text-anchor="start" x="435" y="-92.2" font-family="Times New Roman,Times,Liberation Serif,serif" font-size="14.00">UUID</text>
<polygon fill="none" stroke="black" points="344.25,-63.5 344.25,-86 406.5,-86 406.5,-63.5 344.25,-63.5"/>
<text text-anchor="start" x="360.38" y="-69.7" font-family="Times New Roman,Times,Liberation Serif,serif" font-size="14.00">name</text>
<polygon fill="none" stroke="black" points="406.5,-63.5 406.5,-86 497.25,-86 497.25,-63.5 406.5,-63.5"/>
<text text-anchor="start" x="445.12" y="-69.7" font-family="Times New Roman,Times,Liberation Serif,serif" font-size="14.00">str</text>
<polygon fill="none" stroke="black" points="344.25,-41 344.25,-63.5 406.5,-63.5 406.5,-41 344.25,-41"/>
<text text-anchor="start" x="347.25" y="-47.2" font-family="Times New Roman,Times,Liberation Serif,serif" font-size="14.00">limit_type</text>
<polygon fill="none" stroke="black" points="406.5,-41 406.5,-63.5 497.25,-63.5 497.25,-41 406.5,-41"/>
<text text-anchor="start" x="422.62" y="-47.2" font-family="Times New Roman,Times,Liberation Serif,serif" font-size="14.00">LimitType</text>
<polygon fill="none" stroke="black" points="344.25,-18.5 344.25,-41 406.5,-41 406.5,-18.5 344.25,-18.5"/>
<text text-anchor="start" x="360.75" y="-24.7" font-family="Times New Roman,Times,Liberation Serif,serif" font-size="14.00">value</text>
<polygon fill="none" stroke="black" points="406.5,-18.5 406.5,-41 497.25,-41 497.25,-18.5 406.5,-18.5"/>
<text text-anchor="start" x="409.5" y="-24.7" font-family="Times New Roman,Times,Liberation Serif,serif" font-size="14.00">PositiveCurrent</text>
</a>
</g>
</g>
<!-- gdm.distribution.equipment.matrix_impedance_branch_equipment.MatrixImpedanceBranchEquipment -->
<g id="node2" class="node">
<title>gdm.distribution.equipment.matrix_impedance_branch_equipment.MatrixImpedanceBranchEquipment</title>
<g id="a_node2"><a xlink:title="gdm.distribution.equipment.matrix_impedance_branch_equipment.MatrixImpedanceBranchEquipment&#10;&#10;Interface for impedance based branch.&#10;">
<polygon fill="none" stroke="black" points="0,-265.25 0,-287.75 236.25,-287.75 236.25,-265.25 0,-265.25"/>
<text text-anchor="start" x="11.25" y="-272.45" font-family="Times New Roman,Times,Liberation Serif,serif" font-weight="bold" font-size="14.00">MatrixImpedanceBranchEquipment</text>
<polygon fill="none" stroke="black" points="0,-242.75 0,-265.25 79.5,-265.25 79.5,-242.75 0,-242.75"/>
<text text-anchor="start" x="27.75" y="-248.95" font-family="Times New Roman,Times,Liberation Serif,serif" font-size="14.00">uuid</text>
<polygon fill="none" stroke="black" points="79.5,-242.75 79.5,-265.25 236.25,-265.25 236.25,-242.75 79.5,-242.75"/>
<text text-anchor="start" x="141" y="-248.95" font-family="Times New Roman,Times,Liberation Serif,serif" font-size="14.00">UUID</text>
<polygon fill="none" stroke="black" points="0,-220.25 0,-242.75 79.5,-242.75 79.5,-220.25 0,-220.25"/>
<text text-anchor="start" x="24.75" y="-226.45" font-family="Times New Roman,Times,Liberation Serif,serif" font-size="14.00">name</text>
<polygon fill="none" stroke="black" points="79.5,-220.25 79.5,-242.75 236.25,-242.75 236.25,-220.25 79.5,-220.25"/>
<text text-anchor="start" x="151.12" y="-226.45" font-family="Times New Roman,Times,Liberation Serif,serif" font-size="14.00">str</text>
<polygon fill="none" stroke="black" points="0,-197.75 0,-220.25 79.5,-220.25 79.5,-197.75 0,-197.75"/>
<text text-anchor="start" x="16.12" y="-203.95" font-family="Times New Roman,Times,Liberation Serif,serif" font-size="14.00">r_matrix</text>
<polygon fill="none" stroke="black" points="79.5,-197.75 79.5,-220.25 236.25,-220.25 236.25,-197.75 79.5,-197.75"/>
<text text-anchor="start" x="101.25" y="-203.95" font-family="Times New Roman,Times,Liberation Serif,serif" font-size="14.00">ResistancePULength</text>
<polygon fill="none" stroke="black" points="0,-175.25 0,-197.75 79.5,-197.75 79.5,-175.25 0,-175.25"/>
<text text-anchor="start" x="15" y="-181.45" font-family="Times New Roman,Times,Liberation Serif,serif" font-size="14.00">x_matrix</text>
<polygon fill="none" stroke="black" points="79.5,-175.25 79.5,-197.75 236.25,-197.75 236.25,-175.25 79.5,-175.25"/>
<text text-anchor="start" x="102.38" y="-181.45" font-family="Times New Roman,Times,Liberation Serif,serif" font-size="14.00">ReactancePULength</text>
<polygon fill="none" stroke="black" points="0,-152.75 0,-175.25 79.5,-175.25 79.5,-152.75 0,-152.75"/>
<text text-anchor="start" x="15.38" y="-158.95" font-family="Times New Roman,Times,Liberation Serif,serif" font-size="14.00">c_matrix</text>
<polygon fill="none" stroke="black" points="79.5,-152.75 79.5,-175.25 236.25,-175.25 236.25,-152.75 79.5,-152.75"/>
<text text-anchor="start" x="97.12" y="-158.95" font-family="Times New Roman,Times,Liberation Serif,serif" font-size="14.00">CapacitancePULength</text>
<polygon fill="none" stroke="black" points="0,-130.25 0,-152.75 79.5,-152.75 79.5,-130.25 0,-130.25"/>
<text text-anchor="start" x="14.62" y="-136.45" font-family="Times New Roman,Times,Liberation Serif,serif" font-size="14.00">ampacity</text>
<polygon fill="none" stroke="black" points="79.5,-130.25 79.5,-152.75 236.25,-152.75 236.25,-130.25 79.5,-130.25"/>
<text text-anchor="start" x="115.5" y="-136.45" font-family="Times New Roman,Times,Liberation Serif,serif" font-size="14.00">PositiveCurrent</text>
<polygon fill="none" stroke="black" points="0,-107.75 0,-130.25 79.5,-130.25 79.5,-107.75 0,-107.75"/>
<text text-anchor="start" x="3" y="-113.95" font-family="Times New Roman,Times,Liberation Serif,serif" font-size="14.00">loading_limit</text>
<polygon fill="none" stroke="black" points="79.5,-107.75 79.5,-130.25 236.25,-130.25 236.25,-107.75 79.5,-107.75"/>
<text text-anchor="start" x="82.5" y="-113.95" font-family="Times New Roman,Times,Liberation Serif,serif" font-size="14.00">Optional[ThermalLimitSet]</text>
</a>
</g>
</g>
<!-- gdm.distribution.equipment.matrix_impedance_branch_equipment.MatrixImpedanceBranchEquipment&#45;&gt;gdm.distribution.common.limitset.ThermalLimitSet -->
<g id="edge1" class="edge">
<title>gdm.distribution.equipment.matrix_impedance_branch_equipment.MatrixImpedanceBranchEquipment:e&#45;&gt;gdm.distribution.common.limitset.ThermalLimitSet:w</title>
<path fill="none" stroke="black" d="M246.12,-119.01C279.91,-119.09 294.84,-119.56 325.43,-119.71"/>
<polyline fill="none" stroke="black" points="236.25,-119 241.25,-119.01"/>
<polyline fill="none" stroke="black" points="241.25,-119.01 246.25,-119.01"/>
<polyline fill="none" stroke="black" points="344.25,-119.75 339.25,-119.74"/>
<polygon fill="black" stroke="black" points="338.26,-114.74 338.24,-124.74 336.24,-124.73 336.26,-114.73 338.26,-114.74"/>
<polyline fill="none" stroke="black" points="339.25,-119.74 334.25,-119.73"/>
<ellipse fill="none" stroke="black" cx="329.75" cy="-119.72" rx="4" ry="4"/>
</g>
</g>
</svg>
