<?xml version="1.0" encoding="UTF-8" standalone="no"?>
<!DOCTYPE svg PUBLIC "-//W3C//DTD SVG 1.1//EN"
 "http://www.w3.org/Graphics/SVG/1.1/DTD/svg11.dtd">
<!-- Generated by graphviz version 9.0.0 (0)
 -->
<!-- Title: Entity Relationship Diagram created by erdantic Pages: 1 -->
<svg width="503pt" height="291pt"
 viewBox="0.00 0.00 503.00 290.50" xmlns="http://www.w3.org/2000/svg" xmlns:xlink="http://www.w3.org/1999/xlink">
<g id="graph0" class="graph" transform="scale(1 1) rotate(0) translate(4 286.5)">
<title>Entity Relationship Diagram created by erdantic</title>
<polygon fill="white" stroke="none" points="-4,4 -4,-286.5 499,-286.5 499,4 -4,4"/>
<text text-anchor="middle" x="247.5" y="-5.95" font-family="Times New Roman,Times,Liberation Serif,serif" font-size="9.00" fill="#a8a8a8">Created by erdantic v0.6.0 &lt;https://github.com/drivendataorg/erdantic&gt;</text>
<!-- gdm.distribution.equipment.matrix_impedance_recloser_equipment.MatrixImpedanceRecloserEquipment -->
<g id="node1" class="node">
<title>gdm.distribution.equipment.matrix_impedance_recloser_equipment.MatrixImpedanceRecloserEquipment</title>
<g id="a_node1"><a xlink:title="gdm.distribution.equipment.matrix_impedance_recloser_equipment.MatrixImpedanceRecloserEquipment&#10;&#10;Interface for matrix impedance based recloser equipment.&#10;">
<polygon fill="none" stroke="black" points="0,-260.5 0,-282.5 235,-282.5 235,-260.5 0,-260.5"/>
<text text-anchor="start" x="7.25" y="-267.2" font-family="Times New Roman,Times,Liberation Serif,serif" font-weight="bold" font-size="14.00">MatrixImpedanceRecloserEquipment</text>
<polygon fill="none" stroke="black" points="0,-238.5 0,-260.5 79,-260.5 79,-238.5 0,-238.5"/>
<text text-anchor="start" x="27.5" y="-244.2" font-family="Times New Roman,Times,Liberation Serif,serif" font-size="14.00">uuid</text>
<polygon fill="none" stroke="black" points="79,-238.5 79,-260.5 235,-260.5 235,-238.5 79,-238.5"/>
<text text-anchor="start" x="140.12" y="-244.2" font-family="Times New Roman,Times,Liberation Serif,serif" font-size="14.00">UUID</text>
<polygon fill="none" stroke="black" points="0,-216.5 0,-238.5 79,-238.5 79,-216.5 0,-216.5"/>
<text text-anchor="start" x="24.5" y="-222.2" font-family="Times New Roman,Times,Liberation Serif,serif" font-size="14.00">name</text>
<polygon fill="none" stroke="black" points="79,-216.5 79,-238.5 235,-238.5 235,-216.5 79,-216.5"/>
<text text-anchor="start" x="150.25" y="-222.2" font-family="Times New Roman,Times,Liberation Serif,serif" font-size="14.00">str</text>
<polygon fill="none" stroke="black" points="0,-194.5 0,-216.5 79,-216.5 79,-194.5 0,-194.5"/>
<text text-anchor="start" x="15.88" y="-200.2" font-family="Times New Roman,Times,Liberation Serif,serif" font-size="14.00">r_matrix</text>
<polygon fill="none" stroke="black" points="79,-194.5 79,-216.5 235,-216.5 235,-194.5 79,-194.5"/>
<text text-anchor="start" x="100.38" y="-200.2" font-family="Times New Roman,Times,Liberation Serif,serif" font-size="14.00">ResistancePULength</text>
<polygon fill="none" stroke="black" points="0,-172.5 0,-194.5 79,-194.5 79,-172.5 0,-172.5"/>
<text text-anchor="start" x="14.75" y="-178.2" font-family="Times New Roman,Times,Liberation Serif,serif" font-size="14.00">x_matrix</text>
<polygon fill="none" stroke="black" points="79,-172.5 79,-194.5 235,-194.5 235,-172.5 79,-172.5"/>
<text text-anchor="start" x="101.5" y="-178.2" font-family="Times New Roman,Times,Liberation Serif,serif" font-size="14.00">ReactancePULength</text>
<polygon fill="none" stroke="black" points="0,-150.5 0,-172.5 79,-172.5 79,-150.5 0,-150.5"/>
<text text-anchor="start" x="15.12" y="-156.2" font-family="Times New Roman,Times,Liberation Serif,serif" font-size="14.00">c_matrix</text>
<polygon fill="none" stroke="black" points="79,-150.5 79,-172.5 235,-172.5 235,-150.5 79,-150.5"/>
<text text-anchor="start" x="96.25" y="-156.2" font-family="Times New Roman,Times,Liberation Serif,serif" font-size="14.00">CapacitancePULength</text>
<polygon fill="none" stroke="black" points="0,-128.5 0,-150.5 79,-150.5 79,-128.5 0,-128.5"/>
<text text-anchor="start" x="14.38" y="-134.2" font-family="Times New Roman,Times,Liberation Serif,serif" font-size="14.00">ampacity</text>
<polygon fill="none" stroke="black" points="79,-128.5 79,-150.5 235,-150.5 235,-128.5 79,-128.5"/>
<text text-anchor="start" x="114.62" y="-134.2" font-family="Times New Roman,Times,Liberation Serif,serif" font-size="14.00">PositiveCurrent</text>
<polygon fill="none" stroke="black" points="0,-106.5 0,-128.5 79,-128.5 79,-106.5 0,-106.5"/>
<text text-anchor="start" x="2.75" y="-112.2" font-family="Times New Roman,Times,Liberation Serif,serif" font-size="14.00">loading_limit</text>
<polygon fill="none" stroke="black" points="79,-106.5 79,-128.5 235,-128.5 235,-106.5 79,-106.5"/>
<text text-anchor="start" x="81.62" y="-112.2" font-family="Times New Roman,Times,Liberation Serif,serif" font-size="14.00">Optional[ThermalLimitSet]</text>
</a>
</g>
</g>
<!-- gdm.distribution.limitset.ThermalLimitSet -->
<g id="node2" class="node">
<title>gdm.distribution.limitset.ThermalLimitSet</title>
<g id="a_node2"><a xlink:title="gdm.distribution.limitset.ThermalLimitSet&#10;&#10;Interface for voltage limit set.&#10;">
<polygon fill="none" stroke="black" points="343,-106.5 343,-128.5 495,-128.5 495,-106.5 343,-106.5"/>
<text text-anchor="start" x="368" y="-113.2" font-family="Times New Roman,Times,Liberation Serif,serif" font-weight="bold" font-size="14.00">ThermalLimitSet</text>
<polygon fill="none" stroke="black" points="343,-84.5 343,-106.5 405,-106.5 405,-84.5 343,-84.5"/>
<text text-anchor="start" x="362" y="-90.2" font-family="Times New Roman,Times,Liberation Serif,serif" font-size="14.00">uuid</text>
<polygon fill="none" stroke="black" points="405,-84.5 405,-106.5 495,-106.5 495,-84.5 405,-84.5"/>
<text text-anchor="start" x="433.12" y="-90.2" font-family="Times New Roman,Times,Liberation Serif,serif" font-size="14.00">UUID</text>
<polygon fill="none" stroke="black" points="343,-62.5 343,-84.5 405,-84.5 405,-62.5 343,-62.5"/>
<text text-anchor="start" x="359" y="-68.2" font-family="Times New Roman,Times,Liberation Serif,serif" font-size="14.00">name</text>
<polygon fill="none" stroke="black" points="405,-62.5 405,-84.5 495,-84.5 495,-62.5 405,-62.5"/>
<text text-anchor="start" x="443.25" y="-68.2" font-family="Times New Roman,Times,Liberation Serif,serif" font-size="14.00">str</text>
<polygon fill="none" stroke="black" points="343,-40.5 343,-62.5 405,-62.5 405,-40.5 343,-40.5"/>
<text text-anchor="start" x="345.88" y="-46.2" font-family="Times New Roman,Times,Liberation Serif,serif" font-size="14.00">limit_type</text>
<polygon fill="none" stroke="black" points="405,-40.5 405,-62.5 495,-62.5 495,-40.5 405,-40.5"/>
<text text-anchor="start" x="421.12" y="-46.2" font-family="Times New Roman,Times,Liberation Serif,serif" font-size="14.00">LimitType</text>
<polygon fill="none" stroke="black" points="343,-18.5 343,-40.5 405,-40.5 405,-18.5 343,-18.5"/>
<text text-anchor="start" x="359.38" y="-24.2" font-family="Times New Roman,Times,Liberation Serif,serif" font-size="14.00">value</text>
<polygon fill="none" stroke="black" points="405,-18.5 405,-40.5 495,-40.5 495,-18.5 405,-18.5"/>
<text text-anchor="start" x="407.62" y="-24.2" font-family="Times New Roman,Times,Liberation Serif,serif" font-size="14.00">PositiveCurrent</text>
</a>
</g>
</g>
<!-- gdm.distribution.equipment.matrix_impedance_recloser_equipment.MatrixImpedanceRecloserEquipment&#45;&gt;gdm.distribution.limitset.ThermalLimitSet -->
<g id="edge1" class="edge">
<title>gdm.distribution.equipment.matrix_impedance_recloser_equipment.MatrixImpedanceRecloserEquipment:e&#45;&gt;gdm.distribution.limitset.ThermalLimitSet:w</title>
<path fill="none" stroke="black" d="M244.87,-117.5C278.66,-117.5 293.59,-117.5 324.18,-117.5"/>
<polyline fill="none" stroke="black" points="235,-117.5 240,-117.5"/>
<polyline fill="none" stroke="black" points="240,-117.5 245,-117.5"/>
<polyline fill="none" stroke="black" points="343,-117.5 338,-117.5"/>
<polygon fill="black" stroke="black" points="337,-112.5 337,-122.5 335,-122.5 335,-112.5 337,-112.5"/>
<polyline fill="none" stroke="black" points="338,-117.5 333,-117.5"/>
<ellipse fill="none" stroke="black" cx="328.5" cy="-117.5" rx="4" ry="4"/>
</g>
</g>
</svg>
