<?xml version="1.0" encoding="UTF-8" standalone="no"?>
<!DOCTYPE svg PUBLIC "-//W3C//DTD SVG 1.1//EN"
 "http://www.w3.org/Graphics/SVG/1.1/DTD/svg11.dtd">
<!-- Generated by graphviz version 12.2.1 (20241206.2353)
 -->
<!-- Title: Entity Relationship Diagram created by erdantic Pages: 1 -->
<svg width="516pt" height="296pt"
 viewBox="0.00 0.00 515.75 295.75" xmlns="http://www.w3.org/2000/svg" xmlns:xlink="http://www.w3.org/1999/xlink">
<g id="graph0" class="graph" transform="scale(1 1) rotate(0) translate(4 291.75)">
<title>Entity Relationship Diagram created by erdantic</title>
<polygon fill="white" stroke="none" points="-4,4 -4,-291.75 511.75,-291.75 511.75,4 -4,4"/>
<text text-anchor="middle" x="253.88" y="-5.95" font-family="Times New Roman,Times,Liberation Serif,serif" font-size="9.00" fill="#a8a8a8">Created by erdantic v1.0.5 &lt;https://github.com/drivendataorg/erdantic&gt;</text>
<!-- gdm.distribution.common.limitset.ThermalLimitSet -->
<g id="node1" class="node">
<title>gdm.distribution.common.limitset.ThermalLimitSet</title>
<g id="a_node1"><a xlink:title="gdm.distribution.common.limitset.ThermalLimitSet&#10;&#10;Interface for voltage limit set.&#10;">
<polygon fill="none" stroke="black" points="354.75,-108.5 354.75,-131 507.75,-131 507.75,-108.5 354.75,-108.5"/>
<text text-anchor="start" x="380.25" y="-115.7" font-family="Times New Roman,Times,Liberation Serif,serif" font-weight="bold" font-size="14.00">ThermalLimitSet</text>
<polygon fill="none" stroke="black" points="354.75,-86 354.75,-108.5 417,-108.5 417,-86 354.75,-86"/>
<text text-anchor="start" x="373.88" y="-92.2" font-family="Times New Roman,Times,Liberation Serif,serif" font-size="14.00">uuid</text>
<polygon fill="none" stroke="black" points="417,-86 417,-108.5 507.75,-108.5 507.75,-86 417,-86"/>
<text text-anchor="start" x="445.5" y="-92.2" font-family="Times New Roman,Times,Liberation Serif,serif" font-size="14.00">UUID</text>
<polygon fill="none" stroke="black" points="354.75,-63.5 354.75,-86 417,-86 417,-63.5 354.75,-63.5"/>
<text text-anchor="start" x="370.88" y="-69.7" font-family="Times New Roman,Times,Liberation Serif,serif" font-size="14.00">name</text>
<polygon fill="none" stroke="black" points="417,-63.5 417,-86 507.75,-86 507.75,-63.5 417,-63.5"/>
<text text-anchor="start" x="455.62" y="-69.7" font-family="Times New Roman,Times,Liberation Serif,serif" font-size="14.00">str</text>
<polygon fill="none" stroke="black" points="354.75,-41 354.75,-63.5 417,-63.5 417,-41 354.75,-41"/>
<text text-anchor="start" x="357.75" y="-47.2" font-family="Times New Roman,Times,Liberation Serif,serif" font-size="14.00">limit_type</text>
<polygon fill="none" stroke="black" points="417,-41 417,-63.5 507.75,-63.5 507.75,-41 417,-41"/>
<text text-anchor="start" x="433.12" y="-47.2" font-family="Times New Roman,Times,Liberation Serif,serif" font-size="14.00">LimitType</text>
<polygon fill="none" stroke="black" points="354.75,-18.5 354.75,-41 417,-41 417,-18.5 354.75,-18.5"/>
<text text-anchor="start" x="371.25" y="-24.7" font-family="Times New Roman,Times,Liberation Serif,serif" font-size="14.00">value</text>
<polygon fill="none" stroke="black" points="417,-18.5 417,-41 507.75,-41 507.75,-18.5 417,-18.5"/>
<text text-anchor="start" x="420" y="-24.7" font-family="Times New Roman,Times,Liberation Serif,serif" font-size="14.00">PositiveCurrent</text>
</a>
</g>
</g>
<!-- gdm.distribution.equipment.base.matrix_impedance_branch_equipment_base.MatrixImpedanceBranchEquipmentBase -->
<g id="node2" class="node">
<title>gdm.distribution.equipment.base.matrix_impedance_branch_equipment_base.MatrixImpedanceBranchEquipmentBase</title>
<g id="a_node2"><a xlink:title="gdm.distribution.equipment.base.matrix_impedance_branch_equipment_base.MatrixImpedanceBranchEquipmentBase&#10;&#10;Interface for impedance based branch.&#10;">
<polygon fill="none" stroke="black" points="0,-265.25 0,-287.75 246.75,-287.75 246.75,-265.25 0,-265.25"/>
<text text-anchor="start" x="3" y="-272.45" font-family="Times New Roman,Times,Liberation Serif,serif" font-weight="bold" font-size="14.00">MatrixImpedanceBranchEquipmentBase</text>
<polygon fill="none" stroke="black" points="0,-242.75 0,-265.25 84.75,-265.25 84.75,-242.75 0,-242.75"/>
<text text-anchor="start" x="30.38" y="-248.95" font-family="Times New Roman,Times,Liberation Serif,serif" font-size="14.00">uuid</text>
<polygon fill="none" stroke="black" points="84.75,-242.75 84.75,-265.25 246.75,-265.25 246.75,-242.75 84.75,-242.75"/>
<text text-anchor="start" x="148.88" y="-248.95" font-family="Times New Roman,Times,Liberation Serif,serif" font-size="14.00">UUID</text>
<polygon fill="none" stroke="black" points="0,-220.25 0,-242.75 84.75,-242.75 84.75,-220.25 0,-220.25"/>
<text text-anchor="start" x="27.38" y="-226.45" font-family="Times New Roman,Times,Liberation Serif,serif" font-size="14.00">name</text>
<polygon fill="none" stroke="black" points="84.75,-220.25 84.75,-242.75 246.75,-242.75 246.75,-220.25 84.75,-220.25"/>
<text text-anchor="start" x="159" y="-226.45" font-family="Times New Roman,Times,Liberation Serif,serif" font-size="14.00">str</text>
<polygon fill="none" stroke="black" points="0,-197.75 0,-220.25 84.75,-220.25 84.75,-197.75 0,-197.75"/>
<text text-anchor="start" x="18.75" y="-203.95" font-family="Times New Roman,Times,Liberation Serif,serif" font-size="14.00">r_matrix</text>
<polygon fill="none" stroke="black" points="84.75,-197.75 84.75,-220.25 246.75,-220.25 246.75,-197.75 84.75,-197.75"/>
<text text-anchor="start" x="109.12" y="-203.95" font-family="Times New Roman,Times,Liberation Serif,serif" font-size="14.00">ResistancePULength</text>
<polygon fill="none" stroke="black" points="0,-175.25 0,-197.75 84.75,-197.75 84.75,-175.25 0,-175.25"/>
<text text-anchor="start" x="17.62" y="-181.45" font-family="Times New Roman,Times,Liberation Serif,serif" font-size="14.00">x_matrix</text>
<polygon fill="none" stroke="black" points="84.75,-175.25 84.75,-197.75 246.75,-197.75 246.75,-175.25 84.75,-175.25"/>
<text text-anchor="start" x="110.25" y="-181.45" font-family="Times New Roman,Times,Liberation Serif,serif" font-size="14.00">ReactancePULength</text>
<polygon fill="none" stroke="black" points="0,-152.75 0,-175.25 84.75,-175.25 84.75,-152.75 0,-152.75"/>
<text text-anchor="start" x="18" y="-158.95" font-family="Times New Roman,Times,Liberation Serif,serif" font-size="14.00">c_matrix</text>
<polygon fill="none" stroke="black" points="84.75,-152.75 84.75,-175.25 246.75,-175.25 246.75,-152.75 84.75,-152.75"/>
<text text-anchor="start" x="105" y="-158.95" font-family="Times New Roman,Times,Liberation Serif,serif" font-size="14.00">CapacitancePULength</text>
<polygon fill="none" stroke="black" points="0,-130.25 0,-152.75 84.75,-152.75 84.75,-130.25 0,-130.25"/>
<text text-anchor="start" x="17.25" y="-136.45" font-family="Times New Roman,Times,Liberation Serif,serif" font-size="14.00">ampacity</text>
<polygon fill="none" stroke="black" points="84.75,-130.25 84.75,-152.75 246.75,-152.75 246.75,-130.25 84.75,-130.25"/>
<text text-anchor="start" x="123.38" y="-136.45" font-family="Times New Roman,Times,Liberation Serif,serif" font-size="14.00">PositiveCurrent</text>
<polygon fill="none" stroke="black" points="0,-107.75 0,-130.25 84.75,-130.25 84.75,-107.75 0,-107.75"/>
<text text-anchor="start" x="5.62" y="-113.95" font-family="Times New Roman,Times,Liberation Serif,serif" font-size="14.00">loading_limit</text>
<polygon fill="none" stroke="black" points="84.75,-107.75 84.75,-130.25 246.75,-130.25 246.75,-107.75 84.75,-107.75"/>
<text text-anchor="start" x="90.38" y="-113.95" font-family="Times New Roman,Times,Liberation Serif,serif" font-size="14.00">Optional[ThermalLimitSet]</text>
</a>
</g>
</g>
<!-- gdm.distribution.equipment.base.matrix_impedance_branch_equipment_base.MatrixImpedanceBranchEquipmentBase&#45;&gt;gdm.distribution.common.limitset.ThermalLimitSet -->
<g id="edge1" class="edge">
<title>gdm.distribution.equipment.base.matrix_impedance_branch_equipment_base.MatrixImpedanceBranchEquipmentBase:e&#45;&gt;gdm.distribution.common.limitset.ThermalLimitSet:w</title>
<path fill="none" stroke="black" d="M256.62,-119.01C290.41,-119.09 305.34,-119.56 335.93,-119.71"/>
<polyline fill="none" stroke="black" points="246.75,-119 251.75,-119.01"/>
<polyline fill="none" stroke="black" points="251.75,-119.01 256.75,-119.01"/>
<polyline fill="none" stroke="black" points="354.75,-119.75 349.75,-119.74"/>
<polygon fill="black" stroke="black" points="348.76,-114.74 348.74,-124.74 346.74,-124.73 346.76,-114.73 348.76,-114.74"/>
<polyline fill="none" stroke="black" points="349.75,-119.74 344.75,-119.73"/>
<ellipse fill="none" stroke="black" cx="340.25" cy="-119.72" rx="4" ry="4"/>
</g>
</g>
</svg>
