<?xml version="1.0" encoding="UTF-8" standalone="no"?>
<!DOCTYPE svg PUBLIC "-//W3C//DTD SVG 1.1//EN"
 "http://www.w3.org/Graphics/SVG/1.1/DTD/svg11.dtd">
<!-- Generated by graphviz version 9.0.0 (0)
 -->
<!-- Title: Entity Relationship Diagram created by erdantic Pages: 1 -->
<svg width="1208pt" height="910pt"
 viewBox="0.00 0.00 1208.00 909.50" xmlns="http://www.w3.org/2000/svg" xmlns:xlink="http://www.w3.org/1999/xlink">
<g id="graph0" class="graph" transform="scale(1 1) rotate(0) translate(4 905.5)">
<title>Entity Relationship Diagram created by erdantic</title>
<polygon fill="white" stroke="none" points="-4,4 -4,-905.5 1204,-905.5 1204,4 -4,4"/>
<text text-anchor="middle" x="600" y="-5.95" font-family="Times New Roman,Times,Liberation Serif,serif" font-size="9.00" fill="#a8a8a8">Created by erdantic v0.6.0 &lt;https://github.com/drivendataorg/erdantic&gt;</text>
<!-- gdm.distribution.components.distribution_bus.DistributionBus -->
<g id="node1" class="node">
<title>gdm.distribution.components.distribution_bus.DistributionBus</title>
<g id="a_node1"><a xlink:title="gdm.distribution.components.distribution_bus.DistributionBus&#10;&#10;Interface for distribution bus.&#10;&#10;Examples:&#10; &#160;&#160;&#160;&gt;&gt;&gt; from gdm import DistributionBus&#10; &#160;&#160;&#160;&gt;&gt;&gt; DistributionBus.example()&#10;">
<polygon fill="none" stroke="black" points="381,-681.5 381,-703.5 662,-703.5 662,-681.5 381,-681.5"/>
<text text-anchor="start" x="475.38" y="-688.2" font-family="Times New Roman,Times,Liberation Serif,serif" font-weight="bold" font-size="14.00">DistributionBus</text>
<polygon fill="none" stroke="black" points="381,-659.5 381,-681.5 478,-681.5 478,-659.5 381,-659.5"/>
<text text-anchor="start" x="417.5" y="-665.2" font-family="Times New Roman,Times,Liberation Serif,serif" font-size="14.00">uuid</text>
<polygon fill="none" stroke="black" points="478,-659.5 478,-681.5 662,-681.5 662,-659.5 478,-659.5"/>
<text text-anchor="start" x="553.12" y="-665.2" font-family="Times New Roman,Times,Liberation Serif,serif" font-size="14.00">UUID</text>
<polygon fill="none" stroke="black" points="381,-637.5 381,-659.5 478,-659.5 478,-637.5 381,-637.5"/>
<text text-anchor="start" x="414.5" y="-643.2" font-family="Times New Roman,Times,Liberation Serif,serif" font-size="14.00">name</text>
<polygon fill="none" stroke="black" points="478,-637.5 478,-659.5 662,-659.5 662,-637.5 478,-637.5"/>
<text text-anchor="start" x="563.25" y="-643.2" font-family="Times New Roman,Times,Liberation Serif,serif" font-size="14.00">str</text>
<polygon fill="none" stroke="black" points="381,-615.5 381,-637.5 478,-637.5 478,-615.5 381,-615.5"/>
<text text-anchor="start" x="402.12" y="-621.2" font-family="Times New Roman,Times,Liberation Serif,serif" font-size="14.00">substation</text>
<polygon fill="none" stroke="black" points="478,-615.5 478,-637.5 662,-637.5 662,-615.5 478,-615.5"/>
<text text-anchor="start" x="480.75" y="-621.2" font-family="Times New Roman,Times,Liberation Serif,serif" font-size="14.00">Optional[DistributionSubstation]</text>
<polygon fill="none" stroke="black" points="381,-593.5 381,-615.5 478,-615.5 478,-593.5 381,-593.5"/>
<text text-anchor="start" x="412.62" y="-599.2" font-family="Times New Roman,Times,Liberation Serif,serif" font-size="14.00">feeder</text>
<polygon fill="none" stroke="black" points="478,-593.5 478,-615.5 662,-615.5 662,-593.5 478,-593.5"/>
<text text-anchor="start" x="490.88" y="-599.2" font-family="Times New Roman,Times,Liberation Serif,serif" font-size="14.00">Optional[DistributionFeeder]</text>
<polygon fill="none" stroke="black" points="381,-571.5 381,-593.5 478,-593.5 478,-571.5 381,-571.5"/>
<text text-anchor="start" x="394.62" y="-577.2" font-family="Times New Roman,Times,Liberation Serif,serif" font-size="14.00">voltage_type</text>
<polygon fill="none" stroke="black" points="478,-571.5 478,-593.5 662,-593.5 662,-571.5 478,-571.5"/>
<text text-anchor="start" x="533.25" y="-577.2" font-family="Times New Roman,Times,Liberation Serif,serif" font-size="14.00">VoltageTypes</text>
<polygon fill="none" stroke="black" points="381,-549.5 381,-571.5 478,-571.5 478,-549.5 381,-549.5"/>
<text text-anchor="start" x="411.5" y="-555.2" font-family="Times New Roman,Times,Liberation Serif,serif" font-size="14.00">phases</text>
<polygon fill="none" stroke="black" points="478,-549.5 478,-571.5 662,-571.5 662,-549.5 478,-549.5"/>
<text text-anchor="start" x="541.5" y="-555.2" font-family="Times New Roman,Times,Liberation Serif,serif" font-size="14.00">list[Phase]</text>
<polygon fill="none" stroke="black" points="381,-527.5 381,-549.5 478,-549.5 478,-527.5 381,-527.5"/>
<text text-anchor="start" x="393.88" y="-533.2" font-family="Times New Roman,Times,Liberation Serif,serif" font-size="14.00">voltagelimits</text>
<polygon fill="none" stroke="black" points="478,-527.5 478,-549.5 662,-549.5 662,-527.5 478,-527.5"/>
<text text-anchor="start" x="512.62" y="-533.2" font-family="Times New Roman,Times,Liberation Serif,serif" font-size="14.00">list[VoltageLimitSet]</text>
<polygon fill="none" stroke="black" points="381,-505.5 381,-527.5 478,-527.5 478,-505.5 381,-505.5"/>
<text text-anchor="start" x="383.75" y="-511.2" font-family="Times New Roman,Times,Liberation Serif,serif" font-size="14.00">rated_voltage</text>
<polygon fill="none" stroke="black" points="478,-505.5 478,-527.5 662,-527.5 662,-505.5 478,-505.5"/>
<text text-anchor="start" x="527.62" y="-511.2" font-family="Times New Roman,Times,Liberation Serif,serif" font-size="14.00">PositiveVoltage</text>
<polygon fill="none" stroke="black" points="381,-483.5 381,-505.5 478,-505.5 478,-483.5 381,-483.5"/>
<text text-anchor="start" x="401" y="-489.2" font-family="Times New Roman,Times,Liberation Serif,serif" font-size="14.00">coordinate</text>
<polygon fill="none" stroke="black" points="478,-483.5 478,-505.5 662,-505.5 662,-483.5 478,-483.5"/>
<text text-anchor="start" x="517.88" y="-489.2" font-family="Times New Roman,Times,Liberation Serif,serif" font-size="14.00">Optional[Location]</text>
</a>
</g>
</g>
<!-- gdm.distribution.components.distribution_feeder.DistributionFeeder -->
<g id="node2" class="node">
<title>gdm.distribution.components.distribution_feeder.DistributionFeeder</title>
<g id="a_node2"><a xlink:title="gdm.distribution.components.distribution_feeder.DistributionFeeder&#10;&#10;Class interface for distribution feeder.&#10;">
<polygon fill="none" stroke="black" points="1084,-747.5 1084,-769.5 1200,-769.5 1200,-747.5 1084,-747.5"/>
<text text-anchor="start" x="1086.88" y="-754.2" font-family="Times New Roman,Times,Liberation Serif,serif" font-weight="bold" font-size="14.00">DistributionFeeder</text>
<polygon fill="none" stroke="black" points="1084,-725.5 1084,-747.5 1140,-747.5 1140,-725.5 1084,-725.5"/>
<text text-anchor="start" x="1100" y="-731.2" font-family="Times New Roman,Times,Liberation Serif,serif" font-size="14.00">uuid</text>
<polygon fill="none" stroke="black" points="1140,-725.5 1140,-747.5 1200,-747.5 1200,-725.5 1140,-725.5"/>
<text text-anchor="start" x="1153.12" y="-731.2" font-family="Times New Roman,Times,Liberation Serif,serif" font-size="14.00">UUID</text>
<polygon fill="none" stroke="black" points="1084,-703.5 1084,-725.5 1140,-725.5 1140,-703.5 1084,-703.5"/>
<text text-anchor="start" x="1097" y="-709.2" font-family="Times New Roman,Times,Liberation Serif,serif" font-size="14.00">name</text>
<polygon fill="none" stroke="black" points="1140,-703.5 1140,-725.5 1200,-725.5 1200,-703.5 1140,-703.5"/>
<text text-anchor="start" x="1163.25" y="-709.2" font-family="Times New Roman,Times,Liberation Serif,serif" font-size="14.00">str</text>
</a>
</g>
</g>
<!-- gdm.distribution.components.distribution_bus.DistributionBus&#45;&gt;gdm.distribution.components.distribution_feeder.DistributionFeeder -->
<g id="edge1" class="edge">
<title>gdm.distribution.components.distribution_bus.DistributionBus:e&#45;&gt;gdm.distribution.components.distribution_feeder.DistributionFeeder:w</title>
<path fill="none" stroke="black" d="M673.18,-604.94C770.47,-613.43 962.46,-741.5 1065.28,-756.97"/>
<polyline fill="none" stroke="black" points="663.5,-604.5 668.49,-604.73"/>
<polyline fill="none" stroke="black" points="668.49,-604.73 673.49,-604.96"/>
<polyline fill="none" stroke="black" points="1084,-758.5 1079.02,-758.09"/>
<polygon fill="black" stroke="black" points="1078.43,-753.03 1077.61,-763 1075.62,-762.83 1076.43,-752.87 1078.43,-753.03"/>
<polyline fill="none" stroke="black" points="1079.02,-758.09 1074.03,-757.69"/>
<ellipse fill="none" stroke="black" cx="1069.55" cy="-757.32" rx="4" ry="4"/>
</g>
<!-- gdm.distribution.components.distribution_substation.DistributionSubstation -->
<g id="node3" class="node">
<title>gdm.distribution.components.distribution_substation.DistributionSubstation</title>
<g id="a_node3"><a xlink:title="gdm.distribution.components.distribution_substation.DistributionSubstation&#10;&#10;Class interface for distribution feeder.&#10;">
<polygon fill="none" stroke="black" points="788.5,-879.5 788.5,-901.5 966.5,-901.5 966.5,-879.5 788.5,-879.5"/>
<text text-anchor="start" x="811.5" y="-886.2" font-family="Times New Roman,Times,Liberation Serif,serif" font-weight="bold" font-size="14.00">DistributionSubstation</text>
<polygon fill="none" stroke="black" points="788.5,-857.5 788.5,-879.5 833.5,-879.5 833.5,-857.5 788.5,-857.5"/>
<text text-anchor="start" x="799" y="-863.2" font-family="Times New Roman,Times,Liberation Serif,serif" font-size="14.00">uuid</text>
<polygon fill="none" stroke="black" points="833.5,-857.5 833.5,-879.5 966.5,-879.5 966.5,-857.5 833.5,-857.5"/>
<text text-anchor="start" x="883.12" y="-863.2" font-family="Times New Roman,Times,Liberation Serif,serif" font-size="14.00">UUID</text>
<polygon fill="none" stroke="black" points="788.5,-835.5 788.5,-857.5 833.5,-857.5 833.5,-835.5 788.5,-835.5"/>
<text text-anchor="start" x="796" y="-841.2" font-family="Times New Roman,Times,Liberation Serif,serif" font-size="14.00">name</text>
<polygon fill="none" stroke="black" points="833.5,-835.5 833.5,-857.5 966.5,-857.5 966.5,-835.5 833.5,-835.5"/>
<text text-anchor="start" x="893.25" y="-841.2" font-family="Times New Roman,Times,Liberation Serif,serif" font-size="14.00">str</text>
<polygon fill="none" stroke="black" points="788.5,-813.5 788.5,-835.5 833.5,-835.5 833.5,-813.5 788.5,-813.5"/>
<text text-anchor="start" x="791.5" y="-819.2" font-family="Times New Roman,Times,Liberation Serif,serif" font-size="14.00">feeders</text>
<polygon fill="none" stroke="black" points="833.5,-813.5 833.5,-835.5 966.5,-835.5 966.5,-813.5 833.5,-813.5"/>
<text text-anchor="start" x="836.25" y="-819.2" font-family="Times New Roman,Times,Liberation Serif,serif" font-size="14.00">list[DistributionFeeder]</text>
</a>
</g>
</g>
<!-- gdm.distribution.components.distribution_bus.DistributionBus&#45;&gt;gdm.distribution.components.distribution_substation.DistributionSubstation -->
<g id="edge2" class="edge">
<title>gdm.distribution.components.distribution_bus.DistributionBus:e&#45;&gt;gdm.distribution.components.distribution_substation.DistributionSubstation:w</title>
<path fill="none" stroke="black" d="M673.21,-627.04C779.89,-639.5 674.45,-863.37 768.67,-888.26"/>
<polyline fill="none" stroke="black" points="663.5,-626.5 668.49,-626.78"/>
<polyline fill="none" stroke="black" points="668.49,-626.78 673.48,-627.06"/>
<polyline fill="none" stroke="black" points="787.5,-890.5 782.54,-889.91"/>
<polygon fill="black" stroke="black" points="782.13,-884.83 780.95,-894.76 778.96,-894.52 780.15,-884.59 782.13,-884.83"/>
<polyline fill="none" stroke="black" points="782.54,-889.91 777.57,-889.32"/>
<ellipse fill="none" stroke="black" cx="773.1" cy="-888.79" rx="4" ry="4"/>
</g>
<!-- gdm.distribution.limitset.VoltageLimitSet -->
<g id="node4" class="node">
<title>gdm.distribution.limitset.VoltageLimitSet</title>
<g id="a_node4"><a xlink:title="gdm.distribution.limitset.VoltageLimitSet&#10;&#10;Interface for voltage limit set.&#10;">
<polygon fill="none" stroke="black" points="801.5,-593.5 801.5,-615.5 953.5,-615.5 953.5,-593.5 801.5,-593.5"/>
<text text-anchor="start" x="830.25" y="-600.2" font-family="Times New Roman,Times,Liberation Serif,serif" font-weight="bold" font-size="14.00">VoltageLimitSet</text>
<polygon fill="none" stroke="black" points="801.5,-571.5 801.5,-593.5 863.5,-593.5 863.5,-571.5 801.5,-571.5"/>
<text text-anchor="start" x="820.5" y="-577.2" font-family="Times New Roman,Times,Liberation Serif,serif" font-size="14.00">uuid</text>
<polygon fill="none" stroke="black" points="863.5,-571.5 863.5,-593.5 953.5,-593.5 953.5,-571.5 863.5,-571.5"/>
<text text-anchor="start" x="891.62" y="-577.2" font-family="Times New Roman,Times,Liberation Serif,serif" font-size="14.00">UUID</text>
<polygon fill="none" stroke="black" points="801.5,-549.5 801.5,-571.5 863.5,-571.5 863.5,-549.5 801.5,-549.5"/>
<text text-anchor="start" x="817.5" y="-555.2" font-family="Times New Roman,Times,Liberation Serif,serif" font-size="14.00">name</text>
<polygon fill="none" stroke="black" points="863.5,-549.5 863.5,-571.5 953.5,-571.5 953.5,-549.5 863.5,-549.5"/>
<text text-anchor="start" x="901.75" y="-555.2" font-family="Times New Roman,Times,Liberation Serif,serif" font-size="14.00">str</text>
<polygon fill="none" stroke="black" points="801.5,-527.5 801.5,-549.5 863.5,-549.5 863.5,-527.5 801.5,-527.5"/>
<text text-anchor="start" x="804.38" y="-533.2" font-family="Times New Roman,Times,Liberation Serif,serif" font-size="14.00">limit_type</text>
<polygon fill="none" stroke="black" points="863.5,-527.5 863.5,-549.5 953.5,-549.5 953.5,-527.5 863.5,-527.5"/>
<text text-anchor="start" x="879.62" y="-533.2" font-family="Times New Roman,Times,Liberation Serif,serif" font-size="14.00">LimitType</text>
<polygon fill="none" stroke="black" points="801.5,-505.5 801.5,-527.5 863.5,-527.5 863.5,-505.5 801.5,-505.5"/>
<text text-anchor="start" x="817.88" y="-511.2" font-family="Times New Roman,Times,Liberation Serif,serif" font-size="14.00">value</text>
<polygon fill="none" stroke="black" points="863.5,-505.5 863.5,-527.5 953.5,-527.5 953.5,-505.5 863.5,-505.5"/>
<text text-anchor="start" x="866.12" y="-511.2" font-family="Times New Roman,Times,Liberation Serif,serif" font-size="14.00">PositiveVoltage</text>
</a>
</g>
</g>
<!-- gdm.distribution.components.distribution_bus.DistributionBus&#45;&gt;gdm.distribution.limitset.VoltageLimitSet -->
<g id="edge3" class="edge">
<title>gdm.distribution.components.distribution_bus.DistributionBus:e&#45;&gt;gdm.distribution.limitset.VoltageLimitSet:w</title>
<path fill="none" stroke="black" d="M673.3,-538.99C726.22,-544.49 735.03,-594.25 784.56,-603.14"/>
<polyline fill="none" stroke="black" points="663.5,-538.5 668.49,-538.75"/>
<polyline fill="none" stroke="black" points="668.49,-538.75 673.49,-539"/>
<polygon fill="black" stroke="black" points="790.2,-603.62 799.78,-608.96 795.52,-604.08 799.83,-604.44 799.83,-604.44 799.83,-604.44 795.52,-604.08 800.55,-599.99 790.2,-603.62"/>
<polyline fill="none" stroke="black" points="788.99,-603.52 784.01,-603.09"/>
</g>
<!-- infrasys.location.Location -->
<g id="node5" class="node">
<title>infrasys.location.Location</title>
<g id="a_node5"><a xlink:title="infrasys.location.Location&#10;&#10;Specifies geographic location.&#10;">
<polygon fill="none" stroke="black" points="830,-447.5 830,-469.5 925,-469.5 925,-447.5 830,-447.5"/>
<text text-anchor="start" x="852" y="-454.2" font-family="Times New Roman,Times,Liberation Serif,serif" font-weight="bold" font-size="14.00">Location</text>
<polygon fill="none" stroke="black" points="830,-425.5 830,-447.5 866,-447.5 866,-425.5 830,-425.5"/>
<text text-anchor="start" x="836" y="-431.2" font-family="Times New Roman,Times,Liberation Serif,serif" font-size="14.00">uuid</text>
<polygon fill="none" stroke="black" points="866,-425.5 866,-447.5 925,-447.5 925,-425.5 866,-425.5"/>
<text text-anchor="start" x="878.62" y="-431.2" font-family="Times New Roman,Times,Liberation Serif,serif" font-size="14.00">UUID</text>
<polygon fill="none" stroke="black" points="830,-403.5 830,-425.5 866,-425.5 866,-403.5 830,-403.5"/>
<text text-anchor="start" x="833" y="-409.2" font-family="Times New Roman,Times,Liberation Serif,serif" font-size="14.00">name</text>
<polygon fill="none" stroke="black" points="866,-403.5 866,-425.5 925,-425.5 925,-403.5 866,-403.5"/>
<text text-anchor="start" x="888.75" y="-409.2" font-family="Times New Roman,Times,Liberation Serif,serif" font-size="14.00">str</text>
<polygon fill="none" stroke="black" points="830,-381.5 830,-403.5 866,-403.5 866,-381.5 830,-381.5"/>
<text text-anchor="start" x="844.62" y="-387.2" font-family="Times New Roman,Times,Liberation Serif,serif" font-size="14.00">x</text>
<polygon fill="none" stroke="black" points="866,-381.5 866,-403.5 925,-403.5 925,-381.5 866,-381.5"/>
<text text-anchor="start" x="883.12" y="-387.2" font-family="Times New Roman,Times,Liberation Serif,serif" font-size="14.00">float</text>
<polygon fill="none" stroke="black" points="830,-359.5 830,-381.5 866,-381.5 866,-359.5 830,-359.5"/>
<text text-anchor="start" x="844.62" y="-365.2" font-family="Times New Roman,Times,Liberation Serif,serif" font-size="14.00">y</text>
<polygon fill="none" stroke="black" points="866,-359.5 866,-381.5 925,-381.5 925,-359.5 866,-359.5"/>
<text text-anchor="start" x="883.12" y="-365.2" font-family="Times New Roman,Times,Liberation Serif,serif" font-size="14.00">float</text>
<polygon fill="none" stroke="black" points="830,-337.5 830,-359.5 866,-359.5 866,-337.5 830,-337.5"/>
<text text-anchor="start" x="840.12" y="-343.2" font-family="Times New Roman,Times,Liberation Serif,serif" font-size="14.00">crs</text>
<polygon fill="none" stroke="black" points="866,-337.5 866,-359.5 925,-359.5 925,-337.5 866,-337.5"/>
<text text-anchor="start" x="868.88" y="-343.2" font-family="Times New Roman,Times,Liberation Serif,serif" font-size="14.00">str | None</text>
</a>
</g>
</g>
<!-- gdm.distribution.components.distribution_bus.DistributionBus&#45;&gt;infrasys.location.Location -->
<g id="edge4" class="edge">
<title>gdm.distribution.components.distribution_bus.DistributionBus:e&#45;&gt;infrasys.location.Location:w</title>
<path fill="none" stroke="black" d="M673.26,-494.29C733.76,-491.61 753.22,-464.39 809.7,-459.31"/>
<polyline fill="none" stroke="black" points="663.5,-494.5 668.5,-494.39"/>
<polyline fill="none" stroke="black" points="668.5,-494.39 673.5,-494.28"/>
<polyline fill="none" stroke="black" points="828.5,-458.5 823.5,-458.72"/>
<polygon fill="black" stroke="black" points="822.29,-453.76 822.72,-463.75 820.72,-463.84 820.29,-453.85 822.29,-453.76"/>
<polyline fill="none" stroke="black" points="823.5,-458.72 818.51,-458.93"/>
<ellipse fill="none" stroke="black" cx="814.01" cy="-459.13" rx="4" ry="4"/>
</g>
<!-- gdm.distribution.components.distribution_substation.DistributionSubstation&#45;&gt;gdm.distribution.components.distribution_feeder.DistributionFeeder -->
<g id="edge5" class="edge">
<title>gdm.distribution.components.distribution_substation.DistributionSubstation:e&#45;&gt;gdm.distribution.components.distribution_feeder.DistributionFeeder:w</title>
<path fill="none" stroke="black" d="M977.35,-823.85C1021.7,-817.72 1027.22,-770.26 1067.99,-760.32"/>
<polyline fill="none" stroke="black" points="967.5,-824.5 972.49,-824.17"/>
<polyline fill="none" stroke="black" points="972.49,-824.17 977.48,-823.84"/>
<polygon fill="black" stroke="black" points="1073.73,-759.67 1084.18,-763.01 1079.03,-759.07 1083.34,-758.58 1083.34,-758.58 1083.34,-758.58 1079.03,-759.07 1083.16,-754.07 1073.73,-759.67"/>
<polyline fill="none" stroke="black" points="1072.52,-759.81 1067.55,-760.37"/>
</g>
<!-- gdm.distribution.components.matrix_impedance_switch.MatrixImpedanceSwitch -->
<g id="node6" class="node">
<title>gdm.distribution.components.matrix_impedance_switch.MatrixImpedanceSwitch</title>
<g id="a_node6"><a xlink:title="gdm.distribution.components.matrix_impedance_switch.MatrixImpedanceSwitch&#10;&#10;Interface for matrix impedance switch.&#10;">
<polygon fill="none" stroke="black" points="0,-824.5 0,-846.5 264,-846.5 264,-824.5 0,-824.5"/>
<text text-anchor="start" x="59.62" y="-831.2" font-family="Times New Roman,Times,Liberation Serif,serif" font-weight="bold" font-size="14.00">MatrixImpedanceSwitch</text>
<polygon fill="none" stroke="black" points="0,-802.5 0,-824.5 63,-824.5 63,-802.5 0,-802.5"/>
<text text-anchor="start" x="19.5" y="-808.2" font-family="Times New Roman,Times,Liberation Serif,serif" font-size="14.00">uuid</text>
<polygon fill="none" stroke="black" points="63,-802.5 63,-824.5 264,-824.5 264,-802.5 63,-802.5"/>
<text text-anchor="start" x="146.62" y="-808.2" font-family="Times New Roman,Times,Liberation Serif,serif" font-size="14.00">UUID</text>
<polygon fill="none" stroke="black" points="0,-780.5 0,-802.5 63,-802.5 63,-780.5 0,-780.5"/>
<text text-anchor="start" x="16.5" y="-786.2" font-family="Times New Roman,Times,Liberation Serif,serif" font-size="14.00">name</text>
<polygon fill="none" stroke="black" points="63,-780.5 63,-802.5 264,-802.5 264,-780.5 63,-780.5"/>
<text text-anchor="start" x="156.75" y="-786.2" font-family="Times New Roman,Times,Liberation Serif,serif" font-size="14.00">str</text>
<polygon fill="none" stroke="black" points="0,-758.5 0,-780.5 63,-780.5 63,-758.5 0,-758.5"/>
<text text-anchor="start" x="4.12" y="-764.2" font-family="Times New Roman,Times,Liberation Serif,serif" font-size="14.00">substation</text>
<polygon fill="none" stroke="black" points="63,-758.5 63,-780.5 264,-780.5 264,-758.5 63,-758.5"/>
<text text-anchor="start" x="74.25" y="-764.2" font-family="Times New Roman,Times,Liberation Serif,serif" font-size="14.00">Optional[DistributionSubstation]</text>
<polygon fill="none" stroke="black" points="0,-736.5 0,-758.5 63,-758.5 63,-736.5 0,-736.5"/>
<text text-anchor="start" x="14.62" y="-742.2" font-family="Times New Roman,Times,Liberation Serif,serif" font-size="14.00">feeder</text>
<polygon fill="none" stroke="black" points="63,-736.5 63,-758.5 264,-758.5 264,-736.5 63,-736.5"/>
<text text-anchor="start" x="84.38" y="-742.2" font-family="Times New Roman,Times,Liberation Serif,serif" font-size="14.00">Optional[DistributionFeeder]</text>
<polygon fill="none" stroke="black" points="0,-714.5 0,-736.5 63,-736.5 63,-714.5 0,-714.5"/>
<text text-anchor="start" x="3.75" y="-720.2" font-family="Times New Roman,Times,Liberation Serif,serif" font-size="14.00">in_service</text>
<polygon fill="none" stroke="black" points="63,-714.5 63,-736.5 264,-736.5 264,-714.5 63,-714.5"/>
<text text-anchor="start" x="151.5" y="-720.2" font-family="Times New Roman,Times,Liberation Serif,serif" font-size="14.00">bool</text>
<polygon fill="none" stroke="black" points="0,-692.5 0,-714.5 63,-714.5 63,-692.5 0,-692.5"/>
<text text-anchor="start" x="16.5" y="-698.2" font-family="Times New Roman,Times,Liberation Serif,serif" font-size="14.00">buses</text>
<polygon fill="none" stroke="black" points="63,-692.5 63,-714.5 264,-714.5 264,-692.5 63,-692.5"/>
<text text-anchor="start" x="107.62" y="-698.2" font-family="Times New Roman,Times,Liberation Serif,serif" font-size="14.00">list[DistributionBus]</text>
<polygon fill="none" stroke="black" points="0,-670.5 0,-692.5 63,-692.5 63,-670.5 0,-670.5"/>
<text text-anchor="start" x="14.62" y="-676.2" font-family="Times New Roman,Times,Liberation Serif,serif" font-size="14.00">length</text>
<polygon fill="none" stroke="black" points="63,-670.5 63,-692.5 264,-692.5 264,-670.5 63,-670.5"/>
<text text-anchor="start" x="118.12" y="-676.2" font-family="Times New Roman,Times,Liberation Serif,serif" font-size="14.00">PositiveDistance</text>
<polygon fill="none" stroke="black" points="0,-648.5 0,-670.5 63,-670.5 63,-648.5 0,-648.5"/>
<text text-anchor="start" x="13.5" y="-654.2" font-family="Times New Roman,Times,Liberation Serif,serif" font-size="14.00">phases</text>
<polygon fill="none" stroke="black" points="63,-648.5 63,-670.5 264,-670.5 264,-648.5 63,-648.5"/>
<text text-anchor="start" x="135" y="-654.2" font-family="Times New Roman,Times,Liberation Serif,serif" font-size="14.00">list[Phase]</text>
<polygon fill="none" stroke="black" points="0,-626.5 0,-648.5 63,-648.5 63,-626.5 0,-626.5"/>
<text text-anchor="start" x="6.38" y="-632.2" font-family="Times New Roman,Times,Liberation Serif,serif" font-size="14.00">is_closed</text>
<polygon fill="none" stroke="black" points="63,-626.5 63,-648.5 264,-648.5 264,-626.5 63,-626.5"/>
<text text-anchor="start" x="138.75" y="-632.2" font-family="Times New Roman,Times,Liberation Serif,serif" font-size="14.00">list[bool]</text>
<polygon fill="none" stroke="black" points="0,-604.5 0,-626.5 63,-626.5 63,-604.5 0,-604.5"/>
<text text-anchor="start" x="2.62" y="-610.2" font-family="Times New Roman,Times,Liberation Serif,serif" font-size="14.00">equipment</text>
<polygon fill="none" stroke="black" points="63,-604.5 63,-626.5 264,-626.5 264,-604.5 63,-604.5"/>
<text text-anchor="start" x="66" y="-610.2" font-family="Times New Roman,Times,Liberation Serif,serif" font-size="14.00">MatrixImpedanceSwitchEquipment</text>
</a>
</g>
</g>
<!-- gdm.distribution.components.matrix_impedance_switch.MatrixImpedanceSwitch&#45;&gt;gdm.distribution.components.distribution_bus.DistributionBus -->
<g id="edge6" class="edge">
<title>gdm.distribution.components.matrix_impedance_switch.MatrixImpedanceSwitch:e&#45;&gt;gdm.distribution.components.distribution_bus.DistributionBus:w</title>
<path fill="none" stroke="black" d="M273.78,-703.36C312.1,-702.24 327.54,-694.7 363.4,-692.89"/>
<polyline fill="none" stroke="black" points="264,-703.5 269,-703.43"/>
<polyline fill="none" stroke="black" points="269,-703.43 274,-703.36"/>
<polygon fill="black" stroke="black" points="369.17,-692.75 379.27,-697.01 374.5,-692.62 378.83,-692.52 378.83,-692.52 378.83,-692.52 374.5,-692.62 379.06,-688.01 369.17,-692.75"/>
<polyline fill="none" stroke="black" points="367.95,-692.78 362.95,-692.9"/>
</g>
<!-- gdm.distribution.components.matrix_impedance_switch.MatrixImpedanceSwitch&#45;&gt;gdm.distribution.components.distribution_feeder.DistributionFeeder -->
<g id="edge7" class="edge">
<title>gdm.distribution.components.matrix_impedance_switch.MatrixImpedanceSwitch:e&#45;&gt;gdm.distribution.components.distribution_feeder.DistributionFeeder:w</title>
<path fill="none" stroke="black" d="M273.81,-747.5C623.88,-747.69 719.48,-758.12 1065.2,-758.49"/>
<polyline fill="none" stroke="black" points="264,-747.5 269,-747.5"/>
<polyline fill="none" stroke="black" points="269,-747.5 274,-747.5"/>
<polyline fill="none" stroke="black" points="1084,-758.5 1079,-758.5"/>
<polygon fill="black" stroke="black" points="1078,-753.5 1078,-763.5 1076,-763.5 1076,-753.5 1078,-753.5"/>
<polyline fill="none" stroke="black" points="1079,-758.5 1074,-758.49"/>
<ellipse fill="none" stroke="black" cx="1069.5" cy="-758.49" rx="4" ry="4"/>
</g>
<!-- gdm.distribution.components.matrix_impedance_switch.MatrixImpedanceSwitch&#45;&gt;gdm.distribution.components.distribution_substation.DistributionSubstation -->
<g id="edge8" class="edge">
<title>gdm.distribution.components.matrix_impedance_switch.MatrixImpedanceSwitch:e&#45;&gt;gdm.distribution.components.distribution_substation.DistributionSubstation:w</title>
<path fill="none" stroke="black" d="M273.78,-769.75C391.98,-775.49 643.91,-879.13 768.62,-889.64"/>
<polyline fill="none" stroke="black" points="264,-769.5 269,-769.63"/>
<polyline fill="none" stroke="black" points="269,-769.63 274,-769.75"/>
<polyline fill="none" stroke="black" points="787.5,-890.5 782.51,-890.27"/>
<polygon fill="black" stroke="black" points="781.73,-885.23 781.28,-895.22 779.28,-895.13 779.74,-885.14 781.73,-885.23"/>
<polyline fill="none" stroke="black" points="782.51,-890.27 777.51,-890.05"/>
<ellipse fill="none" stroke="black" cx="773.01" cy="-889.84" rx="4" ry="4"/>
</g>
<!-- gdm.distribution.equipment.matrix_impedance_switch_equipment.MatrixImpedanceSwitchEquipment -->
<g id="node7" class="node">
<title>gdm.distribution.equipment.matrix_impedance_switch_equipment.MatrixImpedanceSwitchEquipment</title>
<g id="a_node7"><a xlink:title="gdm.distribution.equipment.matrix_impedance_switch_equipment.MatrixImpedanceSwitchEquipment&#10;&#10;Interface for matrix impedance based recloser equipment.&#10;">
<polygon fill="none" stroke="black" points="372,-425.5 372,-447.5 671,-447.5 671,-425.5 372,-425.5"/>
<text text-anchor="start" x="416.5" y="-432.2" font-family="Times New Roman,Times,Liberation Serif,serif" font-weight="bold" font-size="14.00">MatrixImpedanceSwitchEquipment</text>
<polygon fill="none" stroke="black" points="372,-403.5 372,-425.5 451,-425.5 451,-403.5 372,-403.5"/>
<text text-anchor="start" x="399.5" y="-409.2" font-family="Times New Roman,Times,Liberation Serif,serif" font-size="14.00">uuid</text>
<polygon fill="none" stroke="black" points="451,-403.5 451,-425.5 671,-425.5 671,-403.5 451,-403.5"/>
<text text-anchor="start" x="544.12" y="-409.2" font-family="Times New Roman,Times,Liberation Serif,serif" font-size="14.00">UUID</text>
<polygon fill="none" stroke="black" points="372,-381.5 372,-403.5 451,-403.5 451,-381.5 372,-381.5"/>
<text text-anchor="start" x="396.5" y="-387.2" font-family="Times New Roman,Times,Liberation Serif,serif" font-size="14.00">name</text>
<polygon fill="none" stroke="black" points="451,-381.5 451,-403.5 671,-403.5 671,-381.5 451,-381.5"/>
<text text-anchor="start" x="554.25" y="-387.2" font-family="Times New Roman,Times,Liberation Serif,serif" font-size="14.00">str</text>
<polygon fill="none" stroke="black" points="372,-359.5 372,-381.5 451,-381.5 451,-359.5 372,-359.5"/>
<text text-anchor="start" x="387.88" y="-365.2" font-family="Times New Roman,Times,Liberation Serif,serif" font-size="14.00">r_matrix</text>
<polygon fill="none" stroke="black" points="451,-359.5 451,-381.5 671,-381.5 671,-359.5 451,-359.5"/>
<text text-anchor="start" x="504.38" y="-365.2" font-family="Times New Roman,Times,Liberation Serif,serif" font-size="14.00">ResistancePULength</text>
<polygon fill="none" stroke="black" points="372,-337.5 372,-359.5 451,-359.5 451,-337.5 372,-337.5"/>
<text text-anchor="start" x="386.75" y="-343.2" font-family="Times New Roman,Times,Liberation Serif,serif" font-size="14.00">x_matrix</text>
<polygon fill="none" stroke="black" points="451,-337.5 451,-359.5 671,-359.5 671,-337.5 451,-337.5"/>
<text text-anchor="start" x="505.5" y="-343.2" font-family="Times New Roman,Times,Liberation Serif,serif" font-size="14.00">ReactancePULength</text>
<polygon fill="none" stroke="black" points="372,-315.5 372,-337.5 451,-337.5 451,-315.5 372,-315.5"/>
<text text-anchor="start" x="387.12" y="-321.2" font-family="Times New Roman,Times,Liberation Serif,serif" font-size="14.00">c_matrix</text>
<polygon fill="none" stroke="black" points="451,-315.5 451,-337.5 671,-337.5 671,-315.5 451,-315.5"/>
<text text-anchor="start" x="500.25" y="-321.2" font-family="Times New Roman,Times,Liberation Serif,serif" font-size="14.00">CapacitancePULength</text>
<polygon fill="none" stroke="black" points="372,-293.5 372,-315.5 451,-315.5 451,-293.5 372,-293.5"/>
<text text-anchor="start" x="386.38" y="-299.2" font-family="Times New Roman,Times,Liberation Serif,serif" font-size="14.00">ampacity</text>
<polygon fill="none" stroke="black" points="451,-293.5 451,-315.5 671,-315.5 671,-293.5 451,-293.5"/>
<text text-anchor="start" x="518.62" y="-299.2" font-family="Times New Roman,Times,Liberation Serif,serif" font-size="14.00">PositiveCurrent</text>
<polygon fill="none" stroke="black" points="372,-271.5 372,-293.5 451,-293.5 451,-271.5 372,-271.5"/>
<text text-anchor="start" x="374.75" y="-277.2" font-family="Times New Roman,Times,Liberation Serif,serif" font-size="14.00">loading_limit</text>
<polygon fill="none" stroke="black" points="451,-271.5 451,-293.5 671,-293.5 671,-271.5 451,-271.5"/>
<text text-anchor="start" x="485.62" y="-277.2" font-family="Times New Roman,Times,Liberation Serif,serif" font-size="14.00">Optional[ThermalLimitSet]</text>
<polygon fill="none" stroke="black" points="372,-249.5 372,-271.5 451,-271.5 451,-249.5 372,-249.5"/>
<text text-anchor="start" x="385.25" y="-255.2" font-family="Times New Roman,Times,Liberation Serif,serif" font-size="14.00">controller</text>
<polygon fill="none" stroke="black" points="451,-249.5 451,-271.5 671,-271.5 671,-249.5 451,-249.5"/>
<text text-anchor="start" x="453.75" y="-255.2" font-family="Times New Roman,Times,Liberation Serif,serif" font-size="14.00">Optional[DistributionSwitchController]</text>
</a>
</g>
</g>
<!-- gdm.distribution.components.matrix_impedance_switch.MatrixImpedanceSwitch&#45;&gt;gdm.distribution.equipment.matrix_impedance_switch_equipment.MatrixImpedanceSwitchEquipment -->
<g id="edge9" class="edge">
<title>gdm.distribution.components.matrix_impedance_switch.MatrixImpedanceSwitch:e&#45;&gt;gdm.distribution.equipment.matrix_impedance_switch_equipment.MatrixImpedanceSwitchEquipment:w</title>
<path fill="none" stroke="black" d="M273.66,-614.78C346.67,-603.21 290.33,-456.03 357.42,-438.25"/>
<polyline fill="none" stroke="black" points="264,-615.5 268.99,-615.13"/>
<polyline fill="none" stroke="black" points="268.99,-615.13 273.97,-614.76"/>
<polyline fill="none" stroke="black" points="372,-436.5 367.04,-437.1"/>
<polygon fill="black" stroke="black" points="365.45,-432.25 366.64,-442.18 364.65,-442.42 363.46,-432.49 365.45,-432.25"/>
<polyline fill="none" stroke="black" points="367.04,-437.1 362.07,-437.69"/>
<polygon fill="black" stroke="black" points="360.48,-432.85 361.68,-442.78 359.69,-443.02 358.5,-433.09 360.48,-432.85"/>
<polyline fill="none" stroke="black" points="362.07,-437.69 357.11,-438.29"/>
</g>
<!-- gdm.distribution.controllers.distribution_switch_controller.DistributionSwitchController -->
<g id="node8" class="node">
<title>gdm.distribution.controllers.distribution_switch_controller.DistributionSwitchController</title>
<g id="a_node8"><a xlink:title="gdm.distribution.controllers.distribution_switch_controller.DistributionSwitchController&#10;&#10;Interface for distribution switch controller.&#10;">
<polygon fill="none" stroke="black" points="779,-128.5 779,-150.5 976,-150.5 976,-128.5 779,-128.5"/>
<text text-anchor="start" x="792.38" y="-135.2" font-family="Times New Roman,Times,Liberation Serif,serif" font-weight="bold" font-size="14.00">DistributionSwitchController</text>
<polygon fill="none" stroke="black" points="779,-106.5 779,-128.5 855,-128.5 855,-106.5 779,-106.5"/>
<text text-anchor="start" x="805" y="-112.2" font-family="Times New Roman,Times,Liberation Serif,serif" font-size="14.00">uuid</text>
<polygon fill="none" stroke="black" points="855,-106.5 855,-128.5 976,-128.5 976,-106.5 855,-106.5"/>
<text text-anchor="start" x="898.62" y="-112.2" font-family="Times New Roman,Times,Liberation Serif,serif" font-size="14.00">UUID</text>
<polygon fill="none" stroke="black" points="779,-84.5 779,-106.5 855,-106.5 855,-84.5 779,-84.5"/>
<text text-anchor="start" x="802" y="-90.2" font-family="Times New Roman,Times,Liberation Serif,serif" font-size="14.00">name</text>
<polygon fill="none" stroke="black" points="855,-84.5 855,-106.5 976,-106.5 976,-84.5 855,-84.5"/>
<text text-anchor="start" x="908.75" y="-90.2" font-family="Times New Roman,Times,Liberation Serif,serif" font-size="14.00">str</text>
<polygon fill="none" stroke="black" points="779,-62.5 779,-84.5 855,-84.5 855,-62.5 779,-62.5"/>
<text text-anchor="start" x="802.38" y="-68.2" font-family="Times New Roman,Times,Liberation Serif,serif" font-size="14.00">delay</text>
<polygon fill="none" stroke="black" points="855,-62.5 855,-84.5 976,-84.5 976,-62.5 855,-62.5"/>
<text text-anchor="start" x="900.88" y="-68.2" font-family="Times New Roman,Times,Liberation Serif,serif" font-size="14.00">Time</text>
<polygon fill="none" stroke="black" points="779,-40.5 779,-62.5 855,-62.5 855,-40.5 779,-40.5"/>
<text text-anchor="start" x="781.75" y="-46.2" font-family="Times New Roman,Times,Liberation Serif,serif" font-size="14.00">normal_state</text>
<polygon fill="none" stroke="black" points="855,-40.5 855,-62.5 976,-62.5 976,-40.5 855,-40.5"/>
<text text-anchor="start" x="857.75" y="-46.2" font-family="Times New Roman,Times,Liberation Serif,serif" font-size="14.00">Literal[&#39;open&#39;, &#39;close&#39;]</text>
<polygon fill="none" stroke="black" points="779,-18.5 779,-40.5 855,-40.5 855,-18.5 779,-18.5"/>
<text text-anchor="start" x="791.12" y="-24.2" font-family="Times New Roman,Times,Liberation Serif,serif" font-size="14.00">is_locked</text>
<polygon fill="none" stroke="black" points="855,-18.5 855,-40.5 976,-40.5 976,-18.5 855,-18.5"/>
<text text-anchor="start" x="903.5" y="-24.2" font-family="Times New Roman,Times,Liberation Serif,serif" font-size="14.00">bool</text>
</a>
</g>
</g>
<!-- gdm.distribution.equipment.matrix_impedance_switch_equipment.MatrixImpedanceSwitchEquipment&#45;&gt;gdm.distribution.controllers.distribution_switch_controller.DistributionSwitchController -->
<g id="edge10" class="edge">
<title>gdm.distribution.equipment.matrix_impedance_switch_equipment.MatrixImpedanceSwitchEquipment:e&#45;&gt;gdm.distribution.controllers.distribution_switch_controller.DistributionSwitchController:w</title>
<path fill="none" stroke="black" d="M680.81,-259.66C733.59,-250.1 715.65,-161.49 760.36,-142.91"/>
<polyline fill="none" stroke="black" points="671,-260.5 675.98,-260.07"/>
<polyline fill="none" stroke="black" points="675.98,-260.07 680.96,-259.65"/>
<polyline fill="none" stroke="black" points="779,-139.5 774.08,-140.4"/>
<polygon fill="black" stroke="black" points="772.2,-135.66 774,-145.5 772.03,-145.86 770.23,-136.02 772.2,-135.66"/>
<polyline fill="none" stroke="black" points="774.08,-140.4 769.16,-141.3"/>
<ellipse fill="none" stroke="black" cx="764.74" cy="-142.11" rx="4" ry="4"/>
</g>
<!-- gdm.distribution.limitset.ThermalLimitSet -->
<g id="node9" class="node">
<title>gdm.distribution.limitset.ThermalLimitSet</title>
<g id="a_node9"><a xlink:title="gdm.distribution.limitset.ThermalLimitSet&#10;&#10;Interface for voltage limit set.&#10;">
<polygon fill="none" stroke="black" points="801.5,-274.5 801.5,-296.5 953.5,-296.5 953.5,-274.5 801.5,-274.5"/>
<text text-anchor="start" x="826.5" y="-281.2" font-family="Times New Roman,Times,Liberation Serif,serif" font-weight="bold" font-size="14.00">ThermalLimitSet</text>
<polygon fill="none" stroke="black" points="801.5,-252.5 801.5,-274.5 863.5,-274.5 863.5,-252.5 801.5,-252.5"/>
<text text-anchor="start" x="820.5" y="-258.2" font-family="Times New Roman,Times,Liberation Serif,serif" font-size="14.00">uuid</text>
<polygon fill="none" stroke="black" points="863.5,-252.5 863.5,-274.5 953.5,-274.5 953.5,-252.5 863.5,-252.5"/>
<text text-anchor="start" x="891.62" y="-258.2" font-family="Times New Roman,Times,Liberation Serif,serif" font-size="14.00">UUID</text>
<polygon fill="none" stroke="black" points="801.5,-230.5 801.5,-252.5 863.5,-252.5 863.5,-230.5 801.5,-230.5"/>
<text text-anchor="start" x="817.5" y="-236.2" font-family="Times New Roman,Times,Liberation Serif,serif" font-size="14.00">name</text>
<polygon fill="none" stroke="black" points="863.5,-230.5 863.5,-252.5 953.5,-252.5 953.5,-230.5 863.5,-230.5"/>
<text text-anchor="start" x="901.75" y="-236.2" font-family="Times New Roman,Times,Liberation Serif,serif" font-size="14.00">str</text>
<polygon fill="none" stroke="black" points="801.5,-208.5 801.5,-230.5 863.5,-230.5 863.5,-208.5 801.5,-208.5"/>
<text text-anchor="start" x="804.38" y="-214.2" font-family="Times New Roman,Times,Liberation Serif,serif" font-size="14.00">limit_type</text>
<polygon fill="none" stroke="black" points="863.5,-208.5 863.5,-230.5 953.5,-230.5 953.5,-208.5 863.5,-208.5"/>
<text text-anchor="start" x="879.62" y="-214.2" font-family="Times New Roman,Times,Liberation Serif,serif" font-size="14.00">LimitType</text>
<polygon fill="none" stroke="black" points="801.5,-186.5 801.5,-208.5 863.5,-208.5 863.5,-186.5 801.5,-186.5"/>
<text text-anchor="start" x="817.88" y="-192.2" font-family="Times New Roman,Times,Liberation Serif,serif" font-size="14.00">value</text>
<polygon fill="none" stroke="black" points="863.5,-186.5 863.5,-208.5 953.5,-208.5 953.5,-186.5 863.5,-186.5"/>
<text text-anchor="start" x="866.12" y="-192.2" font-family="Times New Roman,Times,Liberation Serif,serif" font-size="14.00">PositiveCurrent</text>
</a>
</g>
</g>
<!-- gdm.distribution.equipment.matrix_impedance_switch_equipment.MatrixImpedanceSwitchEquipment&#45;&gt;gdm.distribution.limitset.ThermalLimitSet -->
<g id="edge11" class="edge">
<title>gdm.distribution.equipment.matrix_impedance_switch_equipment.MatrixImpedanceSwitchEquipment:e&#45;&gt;gdm.distribution.limitset.ThermalLimitSet:w</title>
<path fill="none" stroke="black" d="M680.69,-282.53C724.09,-282.8 741.72,-284.86 781.56,-285.38"/>
<polyline fill="none" stroke="black" points="671,-282.5 676,-282.52"/>
<polyline fill="none" stroke="black" points="676,-282.52 681,-282.53"/>
<polyline fill="none" stroke="black" points="800.5,-285.5 795.5,-285.47"/>
<polygon fill="black" stroke="black" points="794.53,-280.46 794.47,-290.46 792.47,-290.45 792.53,-280.45 794.53,-280.46"/>
<polyline fill="none" stroke="black" points="795.5,-285.47 790.5,-285.44"/>
<ellipse fill="none" stroke="black" cx="786" cy="-285.41" rx="4" ry="4"/>
</g>
</g>
</svg>
