<?xml version="1.0" encoding="UTF-8" standalone="no"?>
<!DOCTYPE svg PUBLIC "-//W3C//DTD SVG 1.1//EN"
 "http://www.w3.org/Graphics/SVG/1.1/DTD/svg11.dtd">
<!-- Generated by graphviz version 9.0.0 (0)
 -->
<!-- Title: Entity Relationship Diagram created by erdantic Pages: 1 -->
<svg width="503pt" height="386pt"
 viewBox="0.00 0.00 503.00 385.50" xmlns="http://www.w3.org/2000/svg" xmlns:xlink="http://www.w3.org/1999/xlink">
<g id="graph0" class="graph" transform="scale(1 1) rotate(0) translate(4 381.5)">
<title>Entity Relationship Diagram created by erdantic</title>
<polygon fill="white" stroke="none" points="-4,4 -4,-381.5 499,-381.5 499,4 -4,4"/>
<text text-anchor="middle" x="247.5" y="-5.95" font-family="Times New Roman,Times,Liberation Serif,serif" font-size="9.00" fill="#a8a8a8">Created by erdantic v0.6.0 &lt;https://github.com/drivendataorg/erdantic&gt;</text>
<!-- gdm.distribution.curve.TimeCurrentCurve -->
<g id="node1" class="node">
<title>gdm.distribution.curve.TimeCurrentCurve</title>
<g id="a_node1"><a xlink:title="gdm.distribution.curve.TimeCurrentCurve&#10;&#10;An interface for time current curve.&#10;">
<polygon fill="none" stroke="black" points="359,-106.5 359,-128.5 479,-128.5 479,-106.5 359,-106.5"/>
<text text-anchor="start" x="362" y="-113.2" font-family="Times New Roman,Times,Liberation Serif,serif" font-weight="bold" font-size="14.00">TimeCurrentCurve</text>
<polygon fill="none" stroke="black" points="359,-84.5 359,-106.5 420,-106.5 420,-84.5 359,-84.5"/>
<text text-anchor="start" x="377.5" y="-90.2" font-family="Times New Roman,Times,Liberation Serif,serif" font-size="14.00">uuid</text>
<polygon fill="none" stroke="black" points="420,-84.5 420,-106.5 479,-106.5 479,-84.5 420,-84.5"/>
<text text-anchor="start" x="432.62" y="-90.2" font-family="Times New Roman,Times,Liberation Serif,serif" font-size="14.00">UUID</text>
<polygon fill="none" stroke="black" points="359,-62.5 359,-84.5 420,-84.5 420,-62.5 359,-62.5"/>
<text text-anchor="start" x="374.5" y="-68.2" font-family="Times New Roman,Times,Liberation Serif,serif" font-size="14.00">name</text>
<polygon fill="none" stroke="black" points="420,-62.5 420,-84.5 479,-84.5 479,-62.5 420,-62.5"/>
<text text-anchor="start" x="442.75" y="-68.2" font-family="Times New Roman,Times,Liberation Serif,serif" font-size="14.00">str</text>
<polygon fill="none" stroke="black" points="359,-40.5 359,-62.5 420,-62.5 420,-40.5 359,-40.5"/>
<text text-anchor="start" x="367.75" y="-46.2" font-family="Times New Roman,Times,Liberation Serif,serif" font-size="14.00">curve_x</text>
<polygon fill="none" stroke="black" points="420,-40.5 420,-62.5 479,-62.5 479,-40.5 420,-40.5"/>
<text text-anchor="start" x="428.88" y="-46.2" font-family="Times New Roman,Times,Liberation Serif,serif" font-size="14.00">Current</text>
<polygon fill="none" stroke="black" points="359,-18.5 359,-40.5 420,-40.5 420,-18.5 359,-18.5"/>
<text text-anchor="start" x="367.75" y="-24.2" font-family="Times New Roman,Times,Liberation Serif,serif" font-size="14.00">curve_y</text>
<polygon fill="none" stroke="black" points="420,-18.5 420,-40.5 479,-40.5 479,-18.5 420,-18.5"/>
<text text-anchor="start" x="434.88" y="-24.2" font-family="Times New Roman,Times,Liberation Serif,serif" font-size="14.00">Time</text>
</a>
</g>
</g>
<!-- gdm.distribution.equipment.matrix_impedance_fuse_equipment.MatrixImpedanceFuseEquipment -->
<g id="node2" class="node">
<title>gdm.distribution.equipment.matrix_impedance_fuse_equipment.MatrixImpedanceFuseEquipment</title>
<g id="a_node2"><a xlink:title="gdm.distribution.equipment.matrix_impedance_fuse_equipment.MatrixImpedanceFuseEquipment&#10;&#10;Interface for impedance based fuse equipment.&#10;">
<polygon fill="none" stroke="black" points="0,-355.5 0,-377.5 235,-377.5 235,-355.5 0,-355.5"/>
<text text-anchor="start" x="18.5" y="-362.2" font-family="Times New Roman,Times,Liberation Serif,serif" font-weight="bold" font-size="14.00">MatrixImpedanceFuseEquipment</text>
<polygon fill="none" stroke="black" points="0,-333.5 0,-355.5 79,-355.5 79,-333.5 0,-333.5"/>
<text text-anchor="start" x="27.5" y="-339.2" font-family="Times New Roman,Times,Liberation Serif,serif" font-size="14.00">uuid</text>
<polygon fill="none" stroke="black" points="79,-333.5 79,-355.5 235,-355.5 235,-333.5 79,-333.5"/>
<text text-anchor="start" x="140.12" y="-339.2" font-family="Times New Roman,Times,Liberation Serif,serif" font-size="14.00">UUID</text>
<polygon fill="none" stroke="black" points="0,-311.5 0,-333.5 79,-333.5 79,-311.5 0,-311.5"/>
<text text-anchor="start" x="24.5" y="-317.2" font-family="Times New Roman,Times,Liberation Serif,serif" font-size="14.00">name</text>
<polygon fill="none" stroke="black" points="79,-311.5 79,-333.5 235,-333.5 235,-311.5 79,-311.5"/>
<text text-anchor="start" x="150.25" y="-317.2" font-family="Times New Roman,Times,Liberation Serif,serif" font-size="14.00">str</text>
<polygon fill="none" stroke="black" points="0,-289.5 0,-311.5 79,-311.5 79,-289.5 0,-289.5"/>
<text text-anchor="start" x="15.88" y="-295.2" font-family="Times New Roman,Times,Liberation Serif,serif" font-size="14.00">r_matrix</text>
<polygon fill="none" stroke="black" points="79,-289.5 79,-311.5 235,-311.5 235,-289.5 79,-289.5"/>
<text text-anchor="start" x="100.38" y="-295.2" font-family="Times New Roman,Times,Liberation Serif,serif" font-size="14.00">ResistancePULength</text>
<polygon fill="none" stroke="black" points="0,-267.5 0,-289.5 79,-289.5 79,-267.5 0,-267.5"/>
<text text-anchor="start" x="14.75" y="-273.2" font-family="Times New Roman,Times,Liberation Serif,serif" font-size="14.00">x_matrix</text>
<polygon fill="none" stroke="black" points="79,-267.5 79,-289.5 235,-289.5 235,-267.5 79,-267.5"/>
<text text-anchor="start" x="101.5" y="-273.2" font-family="Times New Roman,Times,Liberation Serif,serif" font-size="14.00">ReactancePULength</text>
<polygon fill="none" stroke="black" points="0,-245.5 0,-267.5 79,-267.5 79,-245.5 0,-245.5"/>
<text text-anchor="start" x="15.12" y="-251.2" font-family="Times New Roman,Times,Liberation Serif,serif" font-size="14.00">c_matrix</text>
<polygon fill="none" stroke="black" points="79,-245.5 79,-267.5 235,-267.5 235,-245.5 79,-245.5"/>
<text text-anchor="start" x="96.25" y="-251.2" font-family="Times New Roman,Times,Liberation Serif,serif" font-size="14.00">CapacitancePULength</text>
<polygon fill="none" stroke="black" points="0,-223.5 0,-245.5 79,-245.5 79,-223.5 0,-223.5"/>
<text text-anchor="start" x="14.38" y="-229.2" font-family="Times New Roman,Times,Liberation Serif,serif" font-size="14.00">ampacity</text>
<polygon fill="none" stroke="black" points="79,-223.5 79,-245.5 235,-245.5 235,-223.5 79,-223.5"/>
<text text-anchor="start" x="114.62" y="-229.2" font-family="Times New Roman,Times,Liberation Serif,serif" font-size="14.00">PositiveCurrent</text>
<polygon fill="none" stroke="black" points="0,-201.5 0,-223.5 79,-223.5 79,-201.5 0,-201.5"/>
<text text-anchor="start" x="2.75" y="-207.2" font-family="Times New Roman,Times,Liberation Serif,serif" font-size="14.00">loading_limit</text>
<polygon fill="none" stroke="black" points="79,-201.5 79,-223.5 235,-223.5 235,-201.5 79,-201.5"/>
<text text-anchor="start" x="81.62" y="-207.2" font-family="Times New Roman,Times,Liberation Serif,serif" font-size="14.00">Optional[ThermalLimitSet]</text>
<polygon fill="none" stroke="black" points="0,-179.5 0,-201.5 79,-201.5 79,-179.5 0,-179.5"/>
<text text-anchor="start" x="24.88" y="-185.2" font-family="Times New Roman,Times,Liberation Serif,serif" font-size="14.00">delay</text>
<polygon fill="none" stroke="black" points="79,-179.5 79,-201.5 235,-201.5 235,-179.5 79,-179.5"/>
<text text-anchor="start" x="142.38" y="-185.2" font-family="Times New Roman,Times,Liberation Serif,serif" font-size="14.00">Time</text>
<polygon fill="none" stroke="black" points="0,-157.5 0,-179.5 79,-179.5 79,-157.5 0,-157.5"/>
<text text-anchor="start" x="13.25" y="-163.2" font-family="Times New Roman,Times,Liberation Serif,serif" font-size="14.00">tcc_curve</text>
<polygon fill="none" stroke="black" points="79,-157.5 79,-179.5 235,-179.5 235,-157.5 79,-157.5"/>
<text text-anchor="start" x="105.25" y="-163.2" font-family="Times New Roman,Times,Liberation Serif,serif" font-size="14.00">TimeCurrentCurve</text>
</a>
</g>
</g>
<!-- gdm.distribution.equipment.matrix_impedance_fuse_equipment.MatrixImpedanceFuseEquipment&#45;&gt;gdm.distribution.curve.TimeCurrentCurve -->
<g id="edge1" class="edge">
<title>gdm.distribution.equipment.matrix_impedance_fuse_equipment.MatrixImpedanceFuseEquipment:e&#45;&gt;gdm.distribution.curve.TimeCurrentCurve:w</title>
<path fill="none" stroke="black" d="M244.86,-168C290.12,-163.21 300.49,-125.79 343.25,-118.67"/>
<polyline fill="none" stroke="black" points="235,-168.5 239.99,-168.24"/>
<polyline fill="none" stroke="black" points="239.99,-168.24 244.99,-167.99"/>
<polyline fill="none" stroke="black" points="358,-117.5 353.02,-117.89"/>
<polygon fill="black" stroke="black" points="351.62,-112.99 352.41,-122.96 350.42,-123.12 349.63,-113.15 351.62,-112.99"/>
<polyline fill="none" stroke="black" points="353.02,-117.89 348.03,-118.29"/>
<polygon fill="black" stroke="black" points="346.64,-113.38 347.43,-123.35 345.44,-123.51 344.65,-113.54 346.64,-113.38"/>
<polyline fill="none" stroke="black" points="348.03,-118.29 343.05,-118.68"/>
</g>
<!-- gdm.distribution.limitset.ThermalLimitSet -->
<g id="node3" class="node">
<title>gdm.distribution.limitset.ThermalLimitSet</title>
<g id="a_node3"><a xlink:title="gdm.distribution.limitset.ThermalLimitSet&#10;&#10;Interface for voltage limit set.&#10;">
<polygon fill="none" stroke="black" points="343,-252.5 343,-274.5 495,-274.5 495,-252.5 343,-252.5"/>
<text text-anchor="start" x="368" y="-259.2" font-family="Times New Roman,Times,Liberation Serif,serif" font-weight="bold" font-size="14.00">ThermalLimitSet</text>
<polygon fill="none" stroke="black" points="343,-230.5 343,-252.5 405,-252.5 405,-230.5 343,-230.5"/>
<text text-anchor="start" x="362" y="-236.2" font-family="Times New Roman,Times,Liberation Serif,serif" font-size="14.00">uuid</text>
<polygon fill="none" stroke="black" points="405,-230.5 405,-252.5 495,-252.5 495,-230.5 405,-230.5"/>
<text text-anchor="start" x="433.12" y="-236.2" font-family="Times New Roman,Times,Liberation Serif,serif" font-size="14.00">UUID</text>
<polygon fill="none" stroke="black" points="343,-208.5 343,-230.5 405,-230.5 405,-208.5 343,-208.5"/>
<text text-anchor="start" x="359" y="-214.2" font-family="Times New Roman,Times,Liberation Serif,serif" font-size="14.00">name</text>
<polygon fill="none" stroke="black" points="405,-208.5 405,-230.5 495,-230.5 495,-208.5 405,-208.5"/>
<text text-anchor="start" x="443.25" y="-214.2" font-family="Times New Roman,Times,Liberation Serif,serif" font-size="14.00">str</text>
<polygon fill="none" stroke="black" points="343,-186.5 343,-208.5 405,-208.5 405,-186.5 343,-186.5"/>
<text text-anchor="start" x="345.88" y="-192.2" font-family="Times New Roman,Times,Liberation Serif,serif" font-size="14.00">limit_type</text>
<polygon fill="none" stroke="black" points="405,-186.5 405,-208.5 495,-208.5 495,-186.5 405,-186.5"/>
<text text-anchor="start" x="421.12" y="-192.2" font-family="Times New Roman,Times,Liberation Serif,serif" font-size="14.00">LimitType</text>
<polygon fill="none" stroke="black" points="343,-164.5 343,-186.5 405,-186.5 405,-164.5 343,-164.5"/>
<text text-anchor="start" x="359.38" y="-170.2" font-family="Times New Roman,Times,Liberation Serif,serif" font-size="14.00">value</text>
<polygon fill="none" stroke="black" points="405,-164.5 405,-186.5 495,-186.5 495,-164.5 405,-164.5"/>
<text text-anchor="start" x="407.62" y="-170.2" font-family="Times New Roman,Times,Liberation Serif,serif" font-size="14.00">PositiveCurrent</text>
</a>
</g>
</g>
<!-- gdm.distribution.equipment.matrix_impedance_fuse_equipment.MatrixImpedanceFuseEquipment&#45;&gt;gdm.distribution.limitset.ThermalLimitSet -->
<g id="edge2" class="edge">
<title>gdm.distribution.equipment.matrix_impedance_fuse_equipment.MatrixImpedanceFuseEquipment:e&#45;&gt;gdm.distribution.limitset.ThermalLimitSet:w</title>
<path fill="none" stroke="black" d="M244.93,-213.14C282.42,-218.22 291.3,-251.76 324.51,-261.09"/>
<polyline fill="none" stroke="black" points="235,-212.5 239.99,-212.82"/>
<polyline fill="none" stroke="black" points="239.99,-212.82 244.98,-213.15"/>
<polyline fill="none" stroke="black" points="343,-263.5 338.04,-262.85"/>
<polygon fill="black" stroke="black" points="337.7,-257.77 336.4,-267.68 334.42,-267.43 335.71,-257.51 337.7,-257.77"/>
<polyline fill="none" stroke="black" points="338.04,-262.85 333.08,-262.21"/>
<ellipse fill="none" stroke="black" cx="328.62" cy="-261.63" rx="4" ry="4"/>
</g>
</g>
</svg>
