<?xml version="1.0" encoding="UTF-8" standalone="no"?>
<!DOCTYPE svg PUBLIC "-//W3C//DTD SVG 1.1//EN"
 "http://www.w3.org/Graphics/SVG/1.1/DTD/svg11.dtd">
<!-- Generated by graphviz version 12.2.1 (20241206.2353)
 -->
<!-- Title: Entity Relationship Diagram created by erdantic Pages: 1 -->
<svg width="593pt" height="319pt"
 viewBox="0.00 0.00 593.00 319.00" xmlns="http://www.w3.org/2000/svg" xmlns:xlink="http://www.w3.org/1999/xlink">
<g id="graph0" class="graph" transform="scale(1 1) rotate(0) translate(4 315)">
<title>Entity Relationship Diagram created by erdantic</title>
<polygon fill="white" stroke="none" points="-4,4 -4,-315 589,-315 589,4 -4,4"/>
<text text-anchor="middle" x="292.5" y="-5.95" font-family="Times New Roman,Times,Liberation Serif,serif" font-size="9.00" fill="#a8a8a8">Created by erdantic v1.0.5 &lt;https://github.com/drivendataorg/erdantic&gt;</text>
<!-- gdm.distribution.controllers.distribution_switch_controller.DistributionSwitchController -->
<g id="node1" class="node">
<title>gdm.distribution.controllers.distribution_switch_controller.DistributionSwitchController</title>
<g id="a_node1"><a xlink:title="gdm.distribution.controllers.distribution_switch_controller.DistributionSwitchController&#10;&#10;Data model for distribution switch controller.&#10;">
<polygon fill="none" stroke="black" points="387,-131 387,-153.5 585,-153.5 585,-131 387,-131"/>
<text text-anchor="start" x="400.88" y="-138.2" font-family="Times New Roman,Times,Liberation Serif,serif" font-weight="bold" font-size="14.00">DistributionSwitchController</text>
<polygon fill="none" stroke="black" points="387,-108.5 387,-131 463.5,-131 463.5,-108.5 387,-108.5"/>
<text text-anchor="start" x="413.25" y="-114.7" font-family="Times New Roman,Times,Liberation Serif,serif" font-size="14.00">uuid</text>
<polygon fill="none" stroke="black" points="463.5,-108.5 463.5,-131 585,-131 585,-108.5 463.5,-108.5"/>
<text text-anchor="start" x="507.38" y="-114.7" font-family="Times New Roman,Times,Liberation Serif,serif" font-size="14.00">UUID</text>
<polygon fill="none" stroke="black" points="387,-86 387,-108.5 463.5,-108.5 463.5,-86 387,-86"/>
<text text-anchor="start" x="410.25" y="-92.2" font-family="Times New Roman,Times,Liberation Serif,serif" font-size="14.00">name</text>
<polygon fill="none" stroke="black" points="463.5,-86 463.5,-108.5 585,-108.5 585,-86 463.5,-86"/>
<text text-anchor="start" x="517.5" y="-92.2" font-family="Times New Roman,Times,Liberation Serif,serif" font-size="14.00">str</text>
<polygon fill="none" stroke="black" points="387,-63.5 387,-86 463.5,-86 463.5,-63.5 387,-63.5"/>
<text text-anchor="start" x="410.62" y="-69.7" font-family="Times New Roman,Times,Liberation Serif,serif" font-size="14.00">delay</text>
<polygon fill="none" stroke="black" points="463.5,-63.5 463.5,-86 585,-86 585,-63.5 463.5,-63.5"/>
<text text-anchor="start" x="509.62" y="-69.7" font-family="Times New Roman,Times,Liberation Serif,serif" font-size="14.00">Time</text>
<polygon fill="none" stroke="black" points="387,-41 387,-63.5 463.5,-63.5 463.5,-41 387,-41"/>
<text text-anchor="start" x="390" y="-47.2" font-family="Times New Roman,Times,Liberation Serif,serif" font-size="14.00">normal_state</text>
<polygon fill="none" stroke="black" points="463.5,-41 463.5,-63.5 585,-63.5 585,-41 463.5,-41"/>
<text text-anchor="start" x="466.5" y="-47.2" font-family="Times New Roman,Times,Liberation Serif,serif" font-size="14.00">Literal[&#39;open&#39;, &#39;close&#39;]</text>
<polygon fill="none" stroke="black" points="387,-18.5 387,-41 463.5,-41 463.5,-18.5 387,-18.5"/>
<text text-anchor="start" x="399.38" y="-24.7" font-family="Times New Roman,Times,Liberation Serif,serif" font-size="14.00">is_locked</text>
<polygon fill="none" stroke="black" points="463.5,-18.5 463.5,-41 585,-41 585,-18.5 463.5,-18.5"/>
<text text-anchor="start" x="512.25" y="-24.7" font-family="Times New Roman,Times,Liberation Serif,serif" font-size="14.00">bool</text>
</a>
</g>
</g>
<!-- gdm.distribution.equipment.matrix_impedance_switch_equipment.MatrixImpedanceSwitchEquipment -->
<g id="node2" class="node">
<title>gdm.distribution.equipment.matrix_impedance_switch_equipment.MatrixImpedanceSwitchEquipment</title>
<g id="a_node2"><a xlink:title="gdm.distribution.equipment.matrix_impedance_switch_equipment.MatrixImpedanceSwitchEquipment&#10;&#10;Data model for matrix impedance based recloser equipment.&#10;">
<polygon fill="none" stroke="black" points="0,-288.5 0,-311 279,-311 279,-288.5 0,-288.5"/>
<text text-anchor="start" x="34.5" y="-295.7" font-family="Times New Roman,Times,Liberation Serif,serif" font-weight="bold" font-size="14.00">MatrixImpedanceSwitchEquipment</text>
<polygon fill="none" stroke="black" points="0,-266 0,-288.5 58.5,-288.5 58.5,-266 0,-266"/>
<text text-anchor="start" x="17.25" y="-272.2" font-family="Times New Roman,Times,Liberation Serif,serif" font-size="14.00">uuid</text>
<polygon fill="none" stroke="black" points="58.5,-266 58.5,-288.5 279,-288.5 279,-266 58.5,-266"/>
<text text-anchor="start" x="151.88" y="-272.2" font-family="Times New Roman,Times,Liberation Serif,serif" font-size="14.00">UUID</text>
<polygon fill="none" stroke="black" points="0,-243.5 0,-266 58.5,-266 58.5,-243.5 0,-243.5"/>
<text text-anchor="start" x="14.25" y="-249.7" font-family="Times New Roman,Times,Liberation Serif,serif" font-size="14.00">name</text>
<polygon fill="none" stroke="black" points="58.5,-243.5 58.5,-266 279,-266 279,-243.5 58.5,-243.5"/>
<text text-anchor="start" x="162" y="-249.7" font-family="Times New Roman,Times,Liberation Serif,serif" font-size="14.00">str</text>
<polygon fill="none" stroke="black" points="0,-221 0,-243.5 58.5,-243.5 58.5,-221 0,-221"/>
<text text-anchor="start" x="5.62" y="-227.2" font-family="Times New Roman,Times,Liberation Serif,serif" font-size="14.00">r_matrix</text>
<polygon fill="none" stroke="black" points="58.5,-221 58.5,-243.5 279,-243.5 279,-221 58.5,-221"/>
<text text-anchor="start" x="112.12" y="-227.2" font-family="Times New Roman,Times,Liberation Serif,serif" font-size="14.00">ResistancePULength</text>
<polygon fill="none" stroke="black" points="0,-198.5 0,-221 58.5,-221 58.5,-198.5 0,-198.5"/>
<text text-anchor="start" x="4.5" y="-204.7" font-family="Times New Roman,Times,Liberation Serif,serif" font-size="14.00">x_matrix</text>
<polygon fill="none" stroke="black" points="58.5,-198.5 58.5,-221 279,-221 279,-198.5 58.5,-198.5"/>
<text text-anchor="start" x="113.25" y="-204.7" font-family="Times New Roman,Times,Liberation Serif,serif" font-size="14.00">ReactancePULength</text>
<polygon fill="none" stroke="black" points="0,-176 0,-198.5 58.5,-198.5 58.5,-176 0,-176"/>
<text text-anchor="start" x="4.88" y="-182.2" font-family="Times New Roman,Times,Liberation Serif,serif" font-size="14.00">c_matrix</text>
<polygon fill="none" stroke="black" points="58.5,-176 58.5,-198.5 279,-198.5 279,-176 58.5,-176"/>
<text text-anchor="start" x="108" y="-182.2" font-family="Times New Roman,Times,Liberation Serif,serif" font-size="14.00">CapacitancePULength</text>
<polygon fill="none" stroke="black" points="0,-153.5 0,-176 58.5,-176 58.5,-153.5 0,-153.5"/>
<text text-anchor="start" x="4.12" y="-159.7" font-family="Times New Roman,Times,Liberation Serif,serif" font-size="14.00">ampacity</text>
<polygon fill="none" stroke="black" points="58.5,-153.5 58.5,-176 279,-176 279,-153.5 58.5,-153.5"/>
<text text-anchor="start" x="126.38" y="-159.7" font-family="Times New Roman,Times,Liberation Serif,serif" font-size="14.00">PositiveCurrent</text>
<polygon fill="none" stroke="black" points="0,-131 0,-153.5 58.5,-153.5 58.5,-131 0,-131"/>
<text text-anchor="start" x="3" y="-137.2" font-family="Times New Roman,Times,Liberation Serif,serif" font-size="14.00">controller</text>
<polygon fill="none" stroke="black" points="58.5,-131 58.5,-153.5 279,-153.5 279,-131 58.5,-131"/>
<text text-anchor="start" x="61.5" y="-137.2" font-family="Times New Roman,Times,Liberation Serif,serif" font-size="14.00">Optional[DistributionSwitchController]</text>
</a>
</g>
</g>
<!-- gdm.distribution.equipment.matrix_impedance_switch_equipment.MatrixImpedanceSwitchEquipment&#45;&gt;gdm.distribution.controllers.distribution_switch_controller.DistributionSwitchController -->
<g id="edge1" class="edge">
<title>gdm.distribution.equipment.matrix_impedance_switch_equipment.MatrixImpedanceSwitchEquipment:e&#45;&gt;gdm.distribution.controllers.distribution_switch_controller.DistributionSwitchController:w</title>
<path fill="none" stroke="black" d="M288.87,-142.25C322.66,-142.25 337.59,-142.25 368.18,-142.25"/>
<polyline fill="none" stroke="black" points="279,-142.25 284,-142.25"/>
<polyline fill="none" stroke="black" points="284,-142.25 289,-142.25"/>
<polyline fill="none" stroke="black" points="387,-142.25 382,-142.25"/>
<polygon fill="black" stroke="black" points="381,-137.25 381,-147.25 379,-147.25 379,-137.25 381,-137.25"/>
<polyline fill="none" stroke="black" points="382,-142.25 377,-142.25"/>
<ellipse fill="none" stroke="black" cx="372.5" cy="-142.25" rx="4" ry="4"/>
</g>
</g>
</svg>
