<?xml version="1.0" encoding="UTF-8" standalone="no"?>
<!DOCTYPE svg PUBLIC "-//W3C//DTD SVG 1.1//EN"
 "http://www.w3.org/Graphics/SVG/1.1/DTD/svg11.dtd">
<!-- Generated by graphviz version 9.0.0 (0)
 -->
<!-- Title: Entity Relationship Diagram created by erdantic Pages: 1 -->
<svg width="514pt" height="291pt"
 viewBox="0.00 0.00 514.00 290.50" xmlns="http://www.w3.org/2000/svg" xmlns:xlink="http://www.w3.org/1999/xlink">
<g id="graph0" class="graph" transform="scale(1 1) rotate(0) translate(4 286.5)">
<title>Entity Relationship Diagram created by erdantic</title>
<polygon fill="white" stroke="none" points="-4,4 -4,-286.5 510,-286.5 510,4 -4,4"/>
<text text-anchor="middle" x="253" y="-5.95" font-family="Times New Roman,Times,Liberation Serif,serif" font-size="9.00" fill="#a8a8a8">Created by erdantic v0.6.0 &lt;https://github.com/drivendataorg/erdantic&gt;</text>
<!-- gdm.distribution.equipment.base.matrix_impedance_branch_equipment_base.MatrixImpedanceBranchEquipmentBase -->
<g id="node1" class="node">
<title>gdm.distribution.equipment.base.matrix_impedance_branch_equipment_base.MatrixImpedanceBranchEquipmentBase</title>
<g id="a_node1"><a xlink:title="gdm.distribution.equipment.base.matrix_impedance_branch_equipment_base.MatrixImpedanceBranchEquipmentBase&#10;&#10;Interface for impedance based branch.&#10;">
<polygon fill="none" stroke="black" points="0,-260.5 0,-282.5 246,-282.5 246,-260.5 0,-260.5"/>
<text text-anchor="start" x="2.62" y="-267.2" font-family="Times New Roman,Times,Liberation Serif,serif" font-weight="bold" font-size="14.00">MatrixImpedanceBranchEquipmentBase</text>
<polygon fill="none" stroke="black" points="0,-238.5 0,-260.5 84,-260.5 84,-238.5 0,-238.5"/>
<text text-anchor="start" x="30" y="-244.2" font-family="Times New Roman,Times,Liberation Serif,serif" font-size="14.00">uuid</text>
<polygon fill="none" stroke="black" points="84,-238.5 84,-260.5 246,-260.5 246,-238.5 84,-238.5"/>
<text text-anchor="start" x="148.12" y="-244.2" font-family="Times New Roman,Times,Liberation Serif,serif" font-size="14.00">UUID</text>
<polygon fill="none" stroke="black" points="0,-216.5 0,-238.5 84,-238.5 84,-216.5 0,-216.5"/>
<text text-anchor="start" x="27" y="-222.2" font-family="Times New Roman,Times,Liberation Serif,serif" font-size="14.00">name</text>
<polygon fill="none" stroke="black" points="84,-216.5 84,-238.5 246,-238.5 246,-216.5 84,-216.5"/>
<text text-anchor="start" x="158.25" y="-222.2" font-family="Times New Roman,Times,Liberation Serif,serif" font-size="14.00">str</text>
<polygon fill="none" stroke="black" points="0,-194.5 0,-216.5 84,-216.5 84,-194.5 0,-194.5"/>
<text text-anchor="start" x="18.38" y="-200.2" font-family="Times New Roman,Times,Liberation Serif,serif" font-size="14.00">r_matrix</text>
<polygon fill="none" stroke="black" points="84,-194.5 84,-216.5 246,-216.5 246,-194.5 84,-194.5"/>
<text text-anchor="start" x="108.38" y="-200.2" font-family="Times New Roman,Times,Liberation Serif,serif" font-size="14.00">ResistancePULength</text>
<polygon fill="none" stroke="black" points="0,-172.5 0,-194.5 84,-194.5 84,-172.5 0,-172.5"/>
<text text-anchor="start" x="17.25" y="-178.2" font-family="Times New Roman,Times,Liberation Serif,serif" font-size="14.00">x_matrix</text>
<polygon fill="none" stroke="black" points="84,-172.5 84,-194.5 246,-194.5 246,-172.5 84,-172.5"/>
<text text-anchor="start" x="109.5" y="-178.2" font-family="Times New Roman,Times,Liberation Serif,serif" font-size="14.00">ReactancePULength</text>
<polygon fill="none" stroke="black" points="0,-150.5 0,-172.5 84,-172.5 84,-150.5 0,-150.5"/>
<text text-anchor="start" x="17.62" y="-156.2" font-family="Times New Roman,Times,Liberation Serif,serif" font-size="14.00">c_matrix</text>
<polygon fill="none" stroke="black" points="84,-150.5 84,-172.5 246,-172.5 246,-150.5 84,-150.5"/>
<text text-anchor="start" x="104.25" y="-156.2" font-family="Times New Roman,Times,Liberation Serif,serif" font-size="14.00">CapacitancePULength</text>
<polygon fill="none" stroke="black" points="0,-128.5 0,-150.5 84,-150.5 84,-128.5 0,-128.5"/>
<text text-anchor="start" x="16.88" y="-134.2" font-family="Times New Roman,Times,Liberation Serif,serif" font-size="14.00">ampacity</text>
<polygon fill="none" stroke="black" points="84,-128.5 84,-150.5 246,-150.5 246,-128.5 84,-128.5"/>
<text text-anchor="start" x="122.62" y="-134.2" font-family="Times New Roman,Times,Liberation Serif,serif" font-size="14.00">PositiveCurrent</text>
<polygon fill="none" stroke="black" points="0,-106.5 0,-128.5 84,-128.5 84,-106.5 0,-106.5"/>
<text text-anchor="start" x="5.25" y="-112.2" font-family="Times New Roman,Times,Liberation Serif,serif" font-size="14.00">loading_limit</text>
<polygon fill="none" stroke="black" points="84,-106.5 84,-128.5 246,-128.5 246,-106.5 84,-106.5"/>
<text text-anchor="start" x="89.62" y="-112.2" font-family="Times New Roman,Times,Liberation Serif,serif" font-size="14.00">Optional[ThermalLimitSet]</text>
</a>
</g>
</g>
<!-- gdm.distribution.limitset.ThermalLimitSet -->
<g id="node2" class="node">
<title>gdm.distribution.limitset.ThermalLimitSet</title>
<g id="a_node2"><a xlink:title="gdm.distribution.limitset.ThermalLimitSet&#10;&#10;Interface for voltage limit set.&#10;">
<polygon fill="none" stroke="black" points="354,-106.5 354,-128.5 506,-128.5 506,-106.5 354,-106.5"/>
<text text-anchor="start" x="379" y="-113.2" font-family="Times New Roman,Times,Liberation Serif,serif" font-weight="bold" font-size="14.00">ThermalLimitSet</text>
<polygon fill="none" stroke="black" points="354,-84.5 354,-106.5 416,-106.5 416,-84.5 354,-84.5"/>
<text text-anchor="start" x="373" y="-90.2" font-family="Times New Roman,Times,Liberation Serif,serif" font-size="14.00">uuid</text>
<polygon fill="none" stroke="black" points="416,-84.5 416,-106.5 506,-106.5 506,-84.5 416,-84.5"/>
<text text-anchor="start" x="444.12" y="-90.2" font-family="Times New Roman,Times,Liberation Serif,serif" font-size="14.00">UUID</text>
<polygon fill="none" stroke="black" points="354,-62.5 354,-84.5 416,-84.5 416,-62.5 354,-62.5"/>
<text text-anchor="start" x="370" y="-68.2" font-family="Times New Roman,Times,Liberation Serif,serif" font-size="14.00">name</text>
<polygon fill="none" stroke="black" points="416,-62.5 416,-84.5 506,-84.5 506,-62.5 416,-62.5"/>
<text text-anchor="start" x="454.25" y="-68.2" font-family="Times New Roman,Times,Liberation Serif,serif" font-size="14.00">str</text>
<polygon fill="none" stroke="black" points="354,-40.5 354,-62.5 416,-62.5 416,-40.5 354,-40.5"/>
<text text-anchor="start" x="356.88" y="-46.2" font-family="Times New Roman,Times,Liberation Serif,serif" font-size="14.00">limit_type</text>
<polygon fill="none" stroke="black" points="416,-40.5 416,-62.5 506,-62.5 506,-40.5 416,-40.5"/>
<text text-anchor="start" x="432.12" y="-46.2" font-family="Times New Roman,Times,Liberation Serif,serif" font-size="14.00">LimitType</text>
<polygon fill="none" stroke="black" points="354,-18.5 354,-40.5 416,-40.5 416,-18.5 354,-18.5"/>
<text text-anchor="start" x="370.38" y="-24.2" font-family="Times New Roman,Times,Liberation Serif,serif" font-size="14.00">value</text>
<polygon fill="none" stroke="black" points="416,-18.5 416,-40.5 506,-40.5 506,-18.5 416,-18.5"/>
<text text-anchor="start" x="418.62" y="-24.2" font-family="Times New Roman,Times,Liberation Serif,serif" font-size="14.00">PositiveCurrent</text>
</a>
</g>
</g>
<!-- gdm.distribution.equipment.base.matrix_impedance_branch_equipment_base.MatrixImpedanceBranchEquipmentBase&#45;&gt;gdm.distribution.limitset.ThermalLimitSet -->
<g id="edge1" class="edge">
<title>gdm.distribution.equipment.base.matrix_impedance_branch_equipment_base.MatrixImpedanceBranchEquipmentBase:e&#45;&gt;gdm.distribution.limitset.ThermalLimitSet:w</title>
<path fill="none" stroke="black" d="M255.87,-117.5C289.66,-117.5 304.59,-117.5 335.18,-117.5"/>
<polyline fill="none" stroke="black" points="246,-117.5 251,-117.5"/>
<polyline fill="none" stroke="black" points="251,-117.5 256,-117.5"/>
<polyline fill="none" stroke="black" points="354,-117.5 349,-117.5"/>
<polygon fill="black" stroke="black" points="348,-112.5 348,-122.5 346,-122.5 346,-112.5 348,-112.5"/>
<polyline fill="none" stroke="black" points="349,-117.5 344,-117.5"/>
<ellipse fill="none" stroke="black" cx="339.5" cy="-117.5" rx="4" ry="4"/>
</g>
</g>
</svg>
