<?xml version="1.0" encoding="UTF-8" standalone="no"?>
<!DOCTYPE svg PUBLIC "-//W3C//DTD SVG 1.1//EN"
 "http://www.w3.org/Graphics/SVG/1.1/DTD/svg11.dtd">
<!-- Generated by graphviz version 12.2.1 (20241206.2353)
 -->
<!-- Title: Entity Relationship Diagram created by erdantic Pages: 1 -->
<svg width="1157pt" height="758pt"
 viewBox="0.00 0.00 1157.00 757.75" xmlns="http://www.w3.org/2000/svg" xmlns:xlink="http://www.w3.org/1999/xlink">
<g id="graph0" class="graph" transform="scale(1 1) rotate(0) translate(4 753.75)">
<title>Entity Relationship Diagram created by erdantic</title>
<polygon fill="white" stroke="none" points="-4,4 -4,-753.75 1153,-753.75 1153,4 -4,4"/>
<text text-anchor="middle" x="574.5" y="-5.95" font-family="Times New Roman,Times,Liberation Serif,serif" font-size="9.00" fill="#a8a8a8">Created by erdantic v1.0.5 &lt;https://github.com/drivendataorg/erdantic&gt;</text>
<!-- gdm.distribution.common.limitset.ThermalLimitSet -->
<g id="node1" class="node">
<title>gdm.distribution.common.limitset.ThermalLimitSet</title>
<g id="a_node1"><a xlink:title="gdm.distribution.common.limitset.ThermalLimitSet&#10;&#10;Interface for voltage limit set.&#10;">
<polygon fill="none" stroke="black" points="759,-108.5 759,-131 912,-131 912,-108.5 759,-108.5"/>
<text text-anchor="start" x="784.5" y="-115.7" font-family="Times New Roman,Times,Liberation Serif,serif" font-weight="bold" font-size="14.00">ThermalLimitSet</text>
<polygon fill="none" stroke="black" points="759,-86 759,-108.5 821.25,-108.5 821.25,-86 759,-86"/>
<text text-anchor="start" x="778.12" y="-92.2" font-family="Times New Roman,Times,Liberation Serif,serif" font-size="14.00">uuid</text>
<polygon fill="none" stroke="black" points="821.25,-86 821.25,-108.5 912,-108.5 912,-86 821.25,-86"/>
<text text-anchor="start" x="849.75" y="-92.2" font-family="Times New Roman,Times,Liberation Serif,serif" font-size="14.00">UUID</text>
<polygon fill="none" stroke="black" points="759,-63.5 759,-86 821.25,-86 821.25,-63.5 759,-63.5"/>
<text text-anchor="start" x="775.12" y="-69.7" font-family="Times New Roman,Times,Liberation Serif,serif" font-size="14.00">name</text>
<polygon fill="none" stroke="black" points="821.25,-63.5 821.25,-86 912,-86 912,-63.5 821.25,-63.5"/>
<text text-anchor="start" x="859.88" y="-69.7" font-family="Times New Roman,Times,Liberation Serif,serif" font-size="14.00">str</text>
<polygon fill="none" stroke="black" points="759,-41 759,-63.5 821.25,-63.5 821.25,-41 759,-41"/>
<text text-anchor="start" x="762" y="-47.2" font-family="Times New Roman,Times,Liberation Serif,serif" font-size="14.00">limit_type</text>
<polygon fill="none" stroke="black" points="821.25,-41 821.25,-63.5 912,-63.5 912,-41 821.25,-41"/>
<text text-anchor="start" x="837.38" y="-47.2" font-family="Times New Roman,Times,Liberation Serif,serif" font-size="14.00">LimitType</text>
<polygon fill="none" stroke="black" points="759,-18.5 759,-41 821.25,-41 821.25,-18.5 759,-18.5"/>
<text text-anchor="start" x="775.5" y="-24.7" font-family="Times New Roman,Times,Liberation Serif,serif" font-size="14.00">value</text>
<polygon fill="none" stroke="black" points="821.25,-18.5 821.25,-41 912,-41 912,-18.5 821.25,-18.5"/>
<text text-anchor="start" x="824.25" y="-24.7" font-family="Times New Roman,Times,Liberation Serif,serif" font-size="14.00">PositiveCurrent</text>
</a>
</g>
</g>
<!-- gdm.distribution.common.limitset.VoltageLimitSet -->
<g id="node2" class="node">
<title>gdm.distribution.common.limitset.VoltageLimitSet</title>
<g id="a_node2"><a xlink:title="gdm.distribution.common.limitset.VoltageLimitSet&#10;&#10;Interface for voltage limit set.&#10;">
<polygon fill="none" stroke="black" points="759,-435.5 759,-458 912,-458 912,-435.5 759,-435.5"/>
<text text-anchor="start" x="788.25" y="-442.7" font-family="Times New Roman,Times,Liberation Serif,serif" font-weight="bold" font-size="14.00">VoltageLimitSet</text>
<polygon fill="none" stroke="black" points="759,-413 759,-435.5 821.25,-435.5 821.25,-413 759,-413"/>
<text text-anchor="start" x="778.12" y="-419.2" font-family="Times New Roman,Times,Liberation Serif,serif" font-size="14.00">uuid</text>
<polygon fill="none" stroke="black" points="821.25,-413 821.25,-435.5 912,-435.5 912,-413 821.25,-413"/>
<text text-anchor="start" x="849.75" y="-419.2" font-family="Times New Roman,Times,Liberation Serif,serif" font-size="14.00">UUID</text>
<polygon fill="none" stroke="black" points="759,-390.5 759,-413 821.25,-413 821.25,-390.5 759,-390.5"/>
<text text-anchor="start" x="775.12" y="-396.7" font-family="Times New Roman,Times,Liberation Serif,serif" font-size="14.00">name</text>
<polygon fill="none" stroke="black" points="821.25,-390.5 821.25,-413 912,-413 912,-390.5 821.25,-390.5"/>
<text text-anchor="start" x="859.88" y="-396.7" font-family="Times New Roman,Times,Liberation Serif,serif" font-size="14.00">str</text>
<polygon fill="none" stroke="black" points="759,-368 759,-390.5 821.25,-390.5 821.25,-368 759,-368"/>
<text text-anchor="start" x="762" y="-374.2" font-family="Times New Roman,Times,Liberation Serif,serif" font-size="14.00">limit_type</text>
<polygon fill="none" stroke="black" points="821.25,-368 821.25,-390.5 912,-390.5 912,-368 821.25,-368"/>
<text text-anchor="start" x="837.38" y="-374.2" font-family="Times New Roman,Times,Liberation Serif,serif" font-size="14.00">LimitType</text>
<polygon fill="none" stroke="black" points="759,-345.5 759,-368 821.25,-368 821.25,-345.5 759,-345.5"/>
<text text-anchor="start" x="775.5" y="-351.7" font-family="Times New Roman,Times,Liberation Serif,serif" font-size="14.00">value</text>
<polygon fill="none" stroke="black" points="821.25,-345.5 821.25,-368 912,-368 912,-345.5 821.25,-345.5"/>
<text text-anchor="start" x="824.25" y="-351.7" font-family="Times New Roman,Times,Liberation Serif,serif" font-size="14.00">PositiveVoltage</text>
</a>
</g>
</g>
<!-- gdm.distribution.components.distribution_bus.DistributionBus -->
<g id="node3" class="node">
<title>gdm.distribution.components.distribution_bus.DistributionBus</title>
<g id="a_node3"><a xlink:title="gdm.distribution.components.distribution_bus.DistributionBus&#10;&#10;Interface for distribution bus.&#10;&#10;Examples:&#10; &#160;&#160;&#160;&gt;&gt;&gt; from gdm import DistributionBus&#10; &#160;&#160;&#160;&gt;&gt;&gt; DistributionBus.example()&#10;">
<polygon fill="none" stroke="black" points="374.25,-526.75 374.25,-549.25 638.25,-549.25 638.25,-526.75 374.25,-526.75"/>
<text text-anchor="start" x="460.12" y="-533.95" font-family="Times New Roman,Times,Liberation Serif,serif" font-weight="bold" font-size="14.00">DistributionBus</text>
<polygon fill="none" stroke="black" points="374.25,-504.25 374.25,-526.75 453.75,-526.75 453.75,-504.25 374.25,-504.25"/>
<text text-anchor="start" x="402" y="-510.45" font-family="Times New Roman,Times,Liberation Serif,serif" font-size="14.00">uuid</text>
<polygon fill="none" stroke="black" points="453.75,-504.25 453.75,-526.75 638.25,-526.75 638.25,-504.25 453.75,-504.25"/>
<text text-anchor="start" x="529.12" y="-510.45" font-family="Times New Roman,Times,Liberation Serif,serif" font-size="14.00">UUID</text>
<polygon fill="none" stroke="black" points="374.25,-481.75 374.25,-504.25 453.75,-504.25 453.75,-481.75 374.25,-481.75"/>
<text text-anchor="start" x="399" y="-487.95" font-family="Times New Roman,Times,Liberation Serif,serif" font-size="14.00">name</text>
<polygon fill="none" stroke="black" points="453.75,-481.75 453.75,-504.25 638.25,-504.25 638.25,-481.75 453.75,-481.75"/>
<text text-anchor="start" x="539.25" y="-487.95" font-family="Times New Roman,Times,Liberation Serif,serif" font-size="14.00">str</text>
<polygon fill="none" stroke="black" points="374.25,-459.25 374.25,-481.75 453.75,-481.75 453.75,-459.25 374.25,-459.25"/>
<text text-anchor="start" x="386.62" y="-465.45" font-family="Times New Roman,Times,Liberation Serif,serif" font-size="14.00">substation</text>
<polygon fill="none" stroke="black" points="453.75,-459.25 453.75,-481.75 638.25,-481.75 638.25,-459.25 453.75,-459.25"/>
<text text-anchor="start" x="456.75" y="-465.45" font-family="Times New Roman,Times,Liberation Serif,serif" font-size="14.00">Optional[DistributionSubstation]</text>
<polygon fill="none" stroke="black" points="374.25,-436.75 374.25,-459.25 453.75,-459.25 453.75,-436.75 374.25,-436.75"/>
<text text-anchor="start" x="397.12" y="-442.95" font-family="Times New Roman,Times,Liberation Serif,serif" font-size="14.00">feeder</text>
<polygon fill="none" stroke="black" points="453.75,-436.75 453.75,-459.25 638.25,-459.25 638.25,-436.75 453.75,-436.75"/>
<text text-anchor="start" x="466.88" y="-442.95" font-family="Times New Roman,Times,Liberation Serif,serif" font-size="14.00">Optional[DistributionFeeder]</text>
<polygon fill="none" stroke="black" points="374.25,-414.25 374.25,-436.75 453.75,-436.75 453.75,-414.25 374.25,-414.25"/>
<text text-anchor="start" x="379.12" y="-420.45" font-family="Times New Roman,Times,Liberation Serif,serif" font-size="14.00">voltage_type</text>
<polygon fill="none" stroke="black" points="453.75,-414.25 453.75,-436.75 638.25,-436.75 638.25,-414.25 453.75,-414.25"/>
<text text-anchor="start" x="508.88" y="-420.45" font-family="Times New Roman,Times,Liberation Serif,serif" font-size="14.00">VoltageTypes</text>
<polygon fill="none" stroke="black" points="374.25,-391.75 374.25,-414.25 453.75,-414.25 453.75,-391.75 374.25,-391.75"/>
<text text-anchor="start" x="396" y="-397.95" font-family="Times New Roman,Times,Liberation Serif,serif" font-size="14.00">phases</text>
<polygon fill="none" stroke="black" points="453.75,-391.75 453.75,-414.25 638.25,-414.25 638.25,-391.75 453.75,-391.75"/>
<text text-anchor="start" x="517.5" y="-397.95" font-family="Times New Roman,Times,Liberation Serif,serif" font-size="14.00">list[Phase]</text>
<polygon fill="none" stroke="black" points="374.25,-369.25 374.25,-391.75 453.75,-391.75 453.75,-369.25 374.25,-369.25"/>
<text text-anchor="start" x="378.38" y="-375.45" font-family="Times New Roman,Times,Liberation Serif,serif" font-size="14.00">voltagelimits</text>
<polygon fill="none" stroke="black" points="453.75,-369.25 453.75,-391.75 638.25,-391.75 638.25,-369.25 453.75,-369.25"/>
<text text-anchor="start" x="488.62" y="-375.45" font-family="Times New Roman,Times,Liberation Serif,serif" font-size="14.00">list[VoltageLimitSet]</text>
<polygon fill="none" stroke="black" points="374.25,-346.75 374.25,-369.25 453.75,-369.25 453.75,-346.75 374.25,-346.75"/>
<text text-anchor="start" x="377.25" y="-352.95" font-family="Times New Roman,Times,Liberation Serif,serif" font-size="14.00">rated_voltage</text>
<polygon fill="none" stroke="black" points="453.75,-346.75 453.75,-369.25 638.25,-369.25 638.25,-346.75 453.75,-346.75"/>
<text text-anchor="start" x="503.62" y="-352.95" font-family="Times New Roman,Times,Liberation Serif,serif" font-size="14.00">PositiveVoltage</text>
<polygon fill="none" stroke="black" points="374.25,-324.25 374.25,-346.75 453.75,-346.75 453.75,-324.25 374.25,-324.25"/>
<text text-anchor="start" x="385.5" y="-330.45" font-family="Times New Roman,Times,Liberation Serif,serif" font-size="14.00">coordinate</text>
<polygon fill="none" stroke="black" points="453.75,-324.25 453.75,-346.75 638.25,-346.75 638.25,-324.25 453.75,-324.25"/>
<text text-anchor="start" x="493.88" y="-330.45" font-family="Times New Roman,Times,Liberation Serif,serif" font-size="14.00">Optional[Location]</text>
</a>
</g>
</g>
<!-- gdm.distribution.components.distribution_bus.DistributionBus&#45;&gt;gdm.distribution.common.limitset.VoltageLimitSet -->
<g id="edge1" class="edge">
<title>gdm.distribution.components.distribution_bus.DistributionBus:e&#45;&gt;gdm.distribution.common.limitset.VoltageLimitSet:w</title>
<path fill="none" stroke="black" d="M648,-381.11C694.07,-387.14 699.84,-435.73 742.69,-445.17"/>
<polyline fill="none" stroke="black" points="638.25,-380.5 643.24,-380.81"/>
<polyline fill="none" stroke="black" points="643.24,-380.81 648.23,-381.13"/>
<polygon fill="black" stroke="black" points="747.72,-445.69 757.2,-451.19 753.03,-446.24 757.33,-446.68 757.33,-446.68 757.33,-446.68 753.03,-446.24 758.13,-442.24 747.72,-445.69"/>
<polyline fill="none" stroke="black" points="746.51,-445.56 741.53,-445.05"/>
</g>
<!-- gdm.distribution.components.distribution_feeder.DistributionFeeder -->
<g id="node4" class="node">
<title>gdm.distribution.components.distribution_feeder.DistributionFeeder</title>
<g id="a_node4"><a xlink:title="gdm.distribution.components.distribution_feeder.DistributionFeeder&#10;&#10;Class interface for distribution feeder.&#10;">
<polygon fill="none" stroke="black" points="1032.75,-594 1032.75,-616.5 1149,-616.5 1149,-594 1032.75,-594"/>
<text text-anchor="start" x="1035.75" y="-601.2" font-family="Times New Roman,Times,Liberation Serif,serif" font-weight="bold" font-size="14.00">DistributionFeeder</text>
<polygon fill="none" stroke="black" points="1032.75,-571.5 1032.75,-594 1089,-594 1089,-571.5 1032.75,-571.5"/>
<text text-anchor="start" x="1048.88" y="-577.7" font-family="Times New Roman,Times,Liberation Serif,serif" font-size="14.00">uuid</text>
<polygon fill="none" stroke="black" points="1089,-571.5 1089,-594 1149,-594 1149,-571.5 1089,-571.5"/>
<text text-anchor="start" x="1102.12" y="-577.7" font-family="Times New Roman,Times,Liberation Serif,serif" font-size="14.00">UUID</text>
<polygon fill="none" stroke="black" points="1032.75,-549 1032.75,-571.5 1089,-571.5 1089,-549 1032.75,-549"/>
<text text-anchor="start" x="1045.88" y="-555.2" font-family="Times New Roman,Times,Liberation Serif,serif" font-size="14.00">name</text>
<polygon fill="none" stroke="black" points="1089,-549 1089,-571.5 1149,-571.5 1149,-549 1089,-549"/>
<text text-anchor="start" x="1112.25" y="-555.2" font-family="Times New Roman,Times,Liberation Serif,serif" font-size="14.00">str</text>
</a>
</g>
</g>
<!-- gdm.distribution.components.distribution_bus.DistributionBus&#45;&gt;gdm.distribution.components.distribution_feeder.DistributionFeeder -->
<g id="edge2" class="edge">
<title>gdm.distribution.components.distribution_bus.DistributionBus:e&#45;&gt;gdm.distribution.components.distribution_feeder.DistributionFeeder:w</title>
<path fill="none" stroke="black" d="M648.01,-448.51C739.84,-457.64 916.73,-586.87 1013.86,-603.49"/>
<polyline fill="none" stroke="black" points="638.25,-448 643.24,-448.26"/>
<polyline fill="none" stroke="black" points="643.24,-448.26 648.24,-448.52"/>
<polyline fill="none" stroke="black" points="1032.75,-605.25 1027.77,-604.79"/>
<polygon fill="black" stroke="black" points="1027.24,-599.72 1026.31,-609.67 1024.32,-609.49 1025.25,-599.53 1027.24,-599.72"/>
<polyline fill="none" stroke="black" points="1027.77,-604.79 1022.79,-604.32"/>
<ellipse fill="none" stroke="black" cx="1018.31" cy="-603.91" rx="4" ry="4"/>
</g>
<!-- gdm.distribution.components.distribution_substation.DistributionSubstation -->
<g id="node5" class="node">
<title>gdm.distribution.components.distribution_substation.DistributionSubstation</title>
<g id="a_node5"><a xlink:title="gdm.distribution.components.distribution_substation.DistributionSubstation&#10;&#10;Class interface for distribution feeder.&#10;">
<polygon fill="none" stroke="black" points="746.25,-727.25 746.25,-749.75 924.75,-749.75 924.75,-727.25 746.25,-727.25"/>
<text text-anchor="start" x="769.5" y="-734.45" font-family="Times New Roman,Times,Liberation Serif,serif" font-weight="bold" font-size="14.00">DistributionSubstation</text>
<polygon fill="none" stroke="black" points="746.25,-704.75 746.25,-727.25 791.25,-727.25 791.25,-704.75 746.25,-704.75"/>
<text text-anchor="start" x="756.75" y="-710.95" font-family="Times New Roman,Times,Liberation Serif,serif" font-size="14.00">uuid</text>
<polygon fill="none" stroke="black" points="791.25,-704.75 791.25,-727.25 924.75,-727.25 924.75,-704.75 791.25,-704.75"/>
<text text-anchor="start" x="841.12" y="-710.95" font-family="Times New Roman,Times,Liberation Serif,serif" font-size="14.00">UUID</text>
<polygon fill="none" stroke="black" points="746.25,-682.25 746.25,-704.75 791.25,-704.75 791.25,-682.25 746.25,-682.25"/>
<text text-anchor="start" x="753.75" y="-688.45" font-family="Times New Roman,Times,Liberation Serif,serif" font-size="14.00">name</text>
<polygon fill="none" stroke="black" points="791.25,-682.25 791.25,-704.75 924.75,-704.75 924.75,-682.25 791.25,-682.25"/>
<text text-anchor="start" x="851.25" y="-688.45" font-family="Times New Roman,Times,Liberation Serif,serif" font-size="14.00">str</text>
<polygon fill="none" stroke="black" points="746.25,-659.75 746.25,-682.25 791.25,-682.25 791.25,-659.75 746.25,-659.75"/>
<text text-anchor="start" x="749.25" y="-665.95" font-family="Times New Roman,Times,Liberation Serif,serif" font-size="14.00">feeders</text>
<polygon fill="none" stroke="black" points="791.25,-659.75 791.25,-682.25 924.75,-682.25 924.75,-659.75 791.25,-659.75"/>
<text text-anchor="start" x="794.25" y="-665.95" font-family="Times New Roman,Times,Liberation Serif,serif" font-size="14.00">list[DistributionFeeder]</text>
</a>
</g>
</g>
<!-- gdm.distribution.components.distribution_bus.DistributionBus&#45;&gt;gdm.distribution.components.distribution_substation.DistributionSubstation -->
<g id="edge3" class="edge">
<title>gdm.distribution.components.distribution_bus.DistributionBus:e&#45;&gt;gdm.distribution.components.distribution_substation.DistributionSubstation:w</title>
<path fill="none" stroke="black" d="M648.17,-471.09C752.47,-484.17 636.11,-710.55 727.46,-736.15"/>
<polyline fill="none" stroke="black" points="638.25,-470.5 643.24,-470.8"/>
<polyline fill="none" stroke="black" points="643.24,-470.8 648.23,-471.09"/>
<polyline fill="none" stroke="black" points="746.25,-738.5 741.29,-737.88"/>
<polygon fill="black" stroke="black" points="740.92,-732.79 739.68,-742.72 737.69,-742.47 738.93,-732.55 740.92,-732.79"/>
<polyline fill="none" stroke="black" points="741.29,-737.88 736.33,-737.26"/>
<ellipse fill="none" stroke="black" cx="731.86" cy="-736.7" rx="4" ry="4"/>
</g>
<!-- infrasys.location.Location -->
<g id="node6" class="node">
<title>infrasys.location.Location</title>
<g id="a_node6"><a xlink:title="infrasys.location.Location&#10;&#10;Specifies geographic location.&#10;">
<polygon fill="none" stroke="black" points="787.88,-286.75 787.88,-309.25 883.12,-309.25 883.12,-286.75 787.88,-286.75"/>
<text text-anchor="start" x="810" y="-293.95" font-family="Times New Roman,Times,Liberation Serif,serif" font-weight="bold" font-size="14.00">Location</text>
<polygon fill="none" stroke="black" points="787.88,-264.25 787.88,-286.75 823.88,-286.75 823.88,-264.25 787.88,-264.25"/>
<text text-anchor="start" x="793.88" y="-270.45" font-family="Times New Roman,Times,Liberation Serif,serif" font-size="14.00">uuid</text>
<polygon fill="none" stroke="black" points="823.88,-264.25 823.88,-286.75 883.12,-286.75 883.12,-264.25 823.88,-264.25"/>
<text text-anchor="start" x="836.62" y="-270.45" font-family="Times New Roman,Times,Liberation Serif,serif" font-size="14.00">UUID</text>
<polygon fill="none" stroke="black" points="787.88,-241.75 787.88,-264.25 823.88,-264.25 823.88,-241.75 787.88,-241.75"/>
<text text-anchor="start" x="790.88" y="-247.95" font-family="Times New Roman,Times,Liberation Serif,serif" font-size="14.00">name</text>
<polygon fill="none" stroke="black" points="823.88,-241.75 823.88,-264.25 883.12,-264.25 883.12,-241.75 823.88,-241.75"/>
<text text-anchor="start" x="846.75" y="-247.95" font-family="Times New Roman,Times,Liberation Serif,serif" font-size="14.00">str</text>
<polygon fill="none" stroke="black" points="787.88,-219.25 787.88,-241.75 823.88,-241.75 823.88,-219.25 787.88,-219.25"/>
<text text-anchor="start" x="802.5" y="-225.45" font-family="Times New Roman,Times,Liberation Serif,serif" font-size="14.00">x</text>
<polygon fill="none" stroke="black" points="823.88,-219.25 823.88,-241.75 883.12,-241.75 883.12,-219.25 823.88,-219.25"/>
<text text-anchor="start" x="841.12" y="-225.45" font-family="Times New Roman,Times,Liberation Serif,serif" font-size="14.00">float</text>
<polygon fill="none" stroke="black" points="787.88,-196.75 787.88,-219.25 823.88,-219.25 823.88,-196.75 787.88,-196.75"/>
<text text-anchor="start" x="802.5" y="-202.95" font-family="Times New Roman,Times,Liberation Serif,serif" font-size="14.00">y</text>
<polygon fill="none" stroke="black" points="823.88,-196.75 823.88,-219.25 883.12,-219.25 883.12,-196.75 823.88,-196.75"/>
<text text-anchor="start" x="841.12" y="-202.95" font-family="Times New Roman,Times,Liberation Serif,serif" font-size="14.00">float</text>
<polygon fill="none" stroke="black" points="787.88,-174.25 787.88,-196.75 823.88,-196.75 823.88,-174.25 787.88,-174.25"/>
<text text-anchor="start" x="798" y="-180.45" font-family="Times New Roman,Times,Liberation Serif,serif" font-size="14.00">crs</text>
<polygon fill="none" stroke="black" points="823.88,-174.25 823.88,-196.75 883.12,-196.75 883.12,-174.25 823.88,-174.25"/>
<text text-anchor="start" x="826.88" y="-180.45" font-family="Times New Roman,Times,Liberation Serif,serif" font-size="14.00">str | None</text>
</a>
</g>
</g>
<!-- gdm.distribution.components.distribution_bus.DistributionBus&#45;&gt;infrasys.location.Location -->
<g id="edge4" class="edge">
<title>gdm.distribution.components.distribution_bus.DistributionBus:e&#45;&gt;infrasys.location.Location:w</title>
<path fill="none" stroke="black" d="M648.21,-335.22C701.49,-332.15 718.66,-304.79 767.98,-299.05"/>
<polyline fill="none" stroke="black" points="638.25,-335.5 643.25,-335.36"/>
<polyline fill="none" stroke="black" points="643.25,-335.36 648.25,-335.22"/>
<polyline fill="none" stroke="black" points="786.88,-298 781.88,-298.28"/>
<polygon fill="black" stroke="black" points="780.61,-293.34 781.16,-303.33 779.17,-303.44 778.61,-293.45 780.61,-293.34"/>
<polyline fill="none" stroke="black" points="781.88,-298.28 776.89,-298.56"/>
<ellipse fill="none" stroke="black" cx="772.4" cy="-298.81" rx="4" ry="4"/>
</g>
<!-- gdm.distribution.components.distribution_substation.DistributionSubstation&#45;&gt;gdm.distribution.components.distribution_feeder.DistributionFeeder -->
<g id="edge5" class="edge">
<title>gdm.distribution.components.distribution_substation.DistributionSubstation:e&#45;&gt;gdm.distribution.components.distribution_feeder.DistributionFeeder:w</title>
<path fill="none" stroke="black" d="M934.61,-670.26C975.69,-663.81 979.65,-617.08 1017.49,-607.12"/>
<polyline fill="none" stroke="black" points="924.75,-671 929.74,-670.63"/>
<polyline fill="none" stroke="black" points="929.74,-670.63 934.72,-670.25"/>
<polygon fill="black" stroke="black" points="1022.49,-606.5 1032.96,-609.76 1027.79,-605.86 1032.09,-605.33 1032.09,-605.33 1032.09,-605.33 1027.79,-605.86 1031.87,-600.82 1022.49,-606.5"/>
<polyline fill="none" stroke="black" points="1021.28,-606.65 1016.32,-607.26"/>
</g>
<!-- gdm.distribution.components.matrix_impedance_branch.MatrixImpedanceBranch -->
<g id="node7" class="node">
<title>gdm.distribution.components.matrix_impedance_branch.MatrixImpedanceBranch</title>
<g id="a_node7"><a xlink:title="gdm.distribution.components.matrix_impedance_branch.MatrixImpedanceBranch&#10;&#10;Interface for matrix impedance branch.&#10;">
<polygon fill="none" stroke="black" points="0,-672.75 0,-695.25 266.25,-695.25 266.25,-672.75 0,-672.75"/>
<text text-anchor="start" x="58.88" y="-679.95" font-family="Times New Roman,Times,Liberation Serif,serif" font-weight="bold" font-size="14.00">MatrixImpedanceBranch</text>
<polygon fill="none" stroke="black" points="0,-650.25 0,-672.75 63.75,-672.75 63.75,-650.25 0,-650.25"/>
<text text-anchor="start" x="19.88" y="-656.45" font-family="Times New Roman,Times,Liberation Serif,serif" font-size="14.00">uuid</text>
<polygon fill="none" stroke="black" points="63.75,-650.25 63.75,-672.75 266.25,-672.75 266.25,-650.25 63.75,-650.25"/>
<text text-anchor="start" x="148.12" y="-656.45" font-family="Times New Roman,Times,Liberation Serif,serif" font-size="14.00">UUID</text>
<polygon fill="none" stroke="black" points="0,-627.75 0,-650.25 63.75,-650.25 63.75,-627.75 0,-627.75"/>
<text text-anchor="start" x="16.88" y="-633.95" font-family="Times New Roman,Times,Liberation Serif,serif" font-size="14.00">name</text>
<polygon fill="none" stroke="black" points="63.75,-627.75 63.75,-650.25 266.25,-650.25 266.25,-627.75 63.75,-627.75"/>
<text text-anchor="start" x="158.25" y="-633.95" font-family="Times New Roman,Times,Liberation Serif,serif" font-size="14.00">str</text>
<polygon fill="none" stroke="black" points="0,-605.25 0,-627.75 63.75,-627.75 63.75,-605.25 0,-605.25"/>
<text text-anchor="start" x="4.5" y="-611.45" font-family="Times New Roman,Times,Liberation Serif,serif" font-size="14.00">substation</text>
<polygon fill="none" stroke="black" points="63.75,-605.25 63.75,-627.75 266.25,-627.75 266.25,-605.25 63.75,-605.25"/>
<text text-anchor="start" x="75.75" y="-611.45" font-family="Times New Roman,Times,Liberation Serif,serif" font-size="14.00">Optional[DistributionSubstation]</text>
<polygon fill="none" stroke="black" points="0,-582.75 0,-605.25 63.75,-605.25 63.75,-582.75 0,-582.75"/>
<text text-anchor="start" x="15" y="-588.95" font-family="Times New Roman,Times,Liberation Serif,serif" font-size="14.00">feeder</text>
<polygon fill="none" stroke="black" points="63.75,-582.75 63.75,-605.25 266.25,-605.25 266.25,-582.75 63.75,-582.75"/>
<text text-anchor="start" x="85.88" y="-588.95" font-family="Times New Roman,Times,Liberation Serif,serif" font-size="14.00">Optional[DistributionFeeder]</text>
<polygon fill="none" stroke="black" points="0,-560.25 0,-582.75 63.75,-582.75 63.75,-560.25 0,-560.25"/>
<text text-anchor="start" x="4.12" y="-566.45" font-family="Times New Roman,Times,Liberation Serif,serif" font-size="14.00">in_service</text>
<polygon fill="none" stroke="black" points="63.75,-560.25 63.75,-582.75 266.25,-582.75 266.25,-560.25 63.75,-560.25"/>
<text text-anchor="start" x="153" y="-566.45" font-family="Times New Roman,Times,Liberation Serif,serif" font-size="14.00">bool</text>
<polygon fill="none" stroke="black" points="0,-537.75 0,-560.25 63.75,-560.25 63.75,-537.75 0,-537.75"/>
<text text-anchor="start" x="16.88" y="-543.95" font-family="Times New Roman,Times,Liberation Serif,serif" font-size="14.00">buses</text>
<polygon fill="none" stroke="black" points="63.75,-537.75 63.75,-560.25 266.25,-560.25 266.25,-537.75 63.75,-537.75"/>
<text text-anchor="start" x="109.12" y="-543.95" font-family="Times New Roman,Times,Liberation Serif,serif" font-size="14.00">list[DistributionBus]</text>
<polygon fill="none" stroke="black" points="0,-515.25 0,-537.75 63.75,-537.75 63.75,-515.25 0,-515.25"/>
<text text-anchor="start" x="15" y="-521.45" font-family="Times New Roman,Times,Liberation Serif,serif" font-size="14.00">length</text>
<polygon fill="none" stroke="black" points="63.75,-515.25 63.75,-537.75 266.25,-537.75 266.25,-515.25 63.75,-515.25"/>
<text text-anchor="start" x="119.62" y="-521.45" font-family="Times New Roman,Times,Liberation Serif,serif" font-size="14.00">PositiveDistance</text>
<polygon fill="none" stroke="black" points="0,-492.75 0,-515.25 63.75,-515.25 63.75,-492.75 0,-492.75"/>
<text text-anchor="start" x="13.88" y="-498.95" font-family="Times New Roman,Times,Liberation Serif,serif" font-size="14.00">phases</text>
<polygon fill="none" stroke="black" points="63.75,-492.75 63.75,-515.25 266.25,-515.25 266.25,-492.75 63.75,-492.75"/>
<text text-anchor="start" x="136.5" y="-498.95" font-family="Times New Roman,Times,Liberation Serif,serif" font-size="14.00">list[Phase]</text>
<polygon fill="none" stroke="black" points="0,-470.25 0,-492.75 63.75,-492.75 63.75,-470.25 0,-470.25"/>
<text text-anchor="start" x="3" y="-476.45" font-family="Times New Roman,Times,Liberation Serif,serif" font-size="14.00">equipment</text>
<polygon fill="none" stroke="black" points="63.75,-470.25 63.75,-492.75 266.25,-492.75 266.25,-470.25 63.75,-470.25"/>
<text text-anchor="start" x="66.75" y="-476.45" font-family="Times New Roman,Times,Liberation Serif,serif" font-size="14.00">MatrixImpedanceBranchEquipment</text>
</a>
</g>
</g>
<!-- gdm.distribution.components.matrix_impedance_branch.MatrixImpedanceBranch&#45;&gt;gdm.distribution.components.distribution_bus.DistributionBus -->
<g id="edge6" class="edge">
<title>gdm.distribution.components.matrix_impedance_branch.MatrixImpedanceBranch:e&#45;&gt;gdm.distribution.components.distribution_bus.DistributionBus:w</title>
<path fill="none" stroke="black" d="M276.16,-548.84C311.33,-547.64 325.78,-540.24 358.83,-538.41"/>
<polyline fill="none" stroke="black" points="266.25,-549 271.25,-548.92"/>
<polyline fill="none" stroke="black" points="271.25,-548.92 276.25,-548.83"/>
<polygon fill="black" stroke="black" points="363.92,-538.27 374.04,-542.51 369.25,-538.13 373.58,-538.02 373.58,-538.02 373.58,-538.02 369.25,-538.13 373.8,-533.51 363.92,-538.27"/>
<polyline fill="none" stroke="black" points="362.7,-538.31 357.7,-538.44"/>
</g>
<!-- gdm.distribution.components.matrix_impedance_branch.MatrixImpedanceBranch&#45;&gt;gdm.distribution.components.distribution_feeder.DistributionFeeder -->
<g id="edge7" class="edge">
<title>gdm.distribution.components.matrix_impedance_branch.MatrixImpedanceBranch:e&#45;&gt;gdm.distribution.components.distribution_feeder.DistributionFeeder:w</title>
<path fill="none" stroke="black" d="M276.16,-594C602.47,-594.21 692.07,-604.84 1014.23,-605.24"/>
<polyline fill="none" stroke="black" points="266.25,-594 271.25,-594"/>
<polyline fill="none" stroke="black" points="271.25,-594 276.25,-594"/>
<polyline fill="none" stroke="black" points="1032.75,-605.25 1027.75,-605.25"/>
<polygon fill="black" stroke="black" points="1026.75,-600.25 1026.75,-610.25 1024.75,-610.25 1024.75,-600.25 1026.75,-600.25"/>
<polyline fill="none" stroke="black" points="1027.75,-605.25 1022.75,-605.24"/>
<ellipse fill="none" stroke="black" cx="1018.25" cy="-605.24" rx="4" ry="4"/>
</g>
<!-- gdm.distribution.components.matrix_impedance_branch.MatrixImpedanceBranch&#45;&gt;gdm.distribution.components.distribution_substation.DistributionSubstation -->
<g id="edge8" class="edge">
<title>gdm.distribution.components.matrix_impedance_branch.MatrixImpedanceBranch:e&#45;&gt;gdm.distribution.components.distribution_substation.DistributionSubstation:w</title>
<path fill="none" stroke="black" d="M275.95,-616.79C384.62,-622.96 612.54,-726.23 727.48,-737.5"/>
<polyline fill="none" stroke="black" points="266.25,-616.5 271.25,-616.65"/>
<polyline fill="none" stroke="black" points="271.25,-616.65 276.25,-616.8"/>
<polyline fill="none" stroke="black" points="746.25,-738.5 741.26,-738.23"/>
<polygon fill="black" stroke="black" points="740.52,-733.19 739.99,-743.17 738,-743.07 738.53,-733.08 740.52,-733.19"/>
<polyline fill="none" stroke="black" points="741.26,-738.23 736.26,-737.97"/>
<ellipse fill="none" stroke="black" cx="731.77" cy="-737.73" rx="4" ry="4"/>
</g>
<!-- gdm.distribution.equipment.matrix_impedance_branch_equipment.MatrixImpedanceBranchEquipment -->
<g id="node8" class="node">
<title>gdm.distribution.equipment.matrix_impedance_branch_equipment.MatrixImpedanceBranchEquipment</title>
<g id="a_node8"><a xlink:title="gdm.distribution.equipment.matrix_impedance_branch_equipment.MatrixImpedanceBranchEquipment&#10;&#10;Interface for impedance based branch.&#10;">
<polygon fill="none" stroke="black" points="388.12,-265.25 388.12,-287.75 624.38,-287.75 624.38,-265.25 388.12,-265.25"/>
<text text-anchor="start" x="399.38" y="-272.45" font-family="Times New Roman,Times,Liberation Serif,serif" font-weight="bold" font-size="14.00">MatrixImpedanceBranchEquipment</text>
<polygon fill="none" stroke="black" points="388.12,-242.75 388.12,-265.25 467.62,-265.25 467.62,-242.75 388.12,-242.75"/>
<text text-anchor="start" x="415.88" y="-248.95" font-family="Times New Roman,Times,Liberation Serif,serif" font-size="14.00">uuid</text>
<polygon fill="none" stroke="black" points="467.62,-242.75 467.62,-265.25 624.38,-265.25 624.38,-242.75 467.62,-242.75"/>
<text text-anchor="start" x="529.12" y="-248.95" font-family="Times New Roman,Times,Liberation Serif,serif" font-size="14.00">UUID</text>
<polygon fill="none" stroke="black" points="388.12,-220.25 388.12,-242.75 467.62,-242.75 467.62,-220.25 388.12,-220.25"/>
<text text-anchor="start" x="412.88" y="-226.45" font-family="Times New Roman,Times,Liberation Serif,serif" font-size="14.00">name</text>
<polygon fill="none" stroke="black" points="467.62,-220.25 467.62,-242.75 624.38,-242.75 624.38,-220.25 467.62,-220.25"/>
<text text-anchor="start" x="539.25" y="-226.45" font-family="Times New Roman,Times,Liberation Serif,serif" font-size="14.00">str</text>
<polygon fill="none" stroke="black" points="388.12,-197.75 388.12,-220.25 467.62,-220.25 467.62,-197.75 388.12,-197.75"/>
<text text-anchor="start" x="404.25" y="-203.95" font-family="Times New Roman,Times,Liberation Serif,serif" font-size="14.00">r_matrix</text>
<polygon fill="none" stroke="black" points="467.62,-197.75 467.62,-220.25 624.38,-220.25 624.38,-197.75 467.62,-197.75"/>
<text text-anchor="start" x="489.38" y="-203.95" font-family="Times New Roman,Times,Liberation Serif,serif" font-size="14.00">ResistancePULength</text>
<polygon fill="none" stroke="black" points="388.12,-175.25 388.12,-197.75 467.62,-197.75 467.62,-175.25 388.12,-175.25"/>
<text text-anchor="start" x="403.12" y="-181.45" font-family="Times New Roman,Times,Liberation Serif,serif" font-size="14.00">x_matrix</text>
<polygon fill="none" stroke="black" points="467.62,-175.25 467.62,-197.75 624.38,-197.75 624.38,-175.25 467.62,-175.25"/>
<text text-anchor="start" x="490.5" y="-181.45" font-family="Times New Roman,Times,Liberation Serif,serif" font-size="14.00">ReactancePULength</text>
<polygon fill="none" stroke="black" points="388.12,-152.75 388.12,-175.25 467.62,-175.25 467.62,-152.75 388.12,-152.75"/>
<text text-anchor="start" x="403.5" y="-158.95" font-family="Times New Roman,Times,Liberation Serif,serif" font-size="14.00">c_matrix</text>
<polygon fill="none" stroke="black" points="467.62,-152.75 467.62,-175.25 624.38,-175.25 624.38,-152.75 467.62,-152.75"/>
<text text-anchor="start" x="485.25" y="-158.95" font-family="Times New Roman,Times,Liberation Serif,serif" font-size="14.00">CapacitancePULength</text>
<polygon fill="none" stroke="black" points="388.12,-130.25 388.12,-152.75 467.62,-152.75 467.62,-130.25 388.12,-130.25"/>
<text text-anchor="start" x="402.75" y="-136.45" font-family="Times New Roman,Times,Liberation Serif,serif" font-size="14.00">ampacity</text>
<polygon fill="none" stroke="black" points="467.62,-130.25 467.62,-152.75 624.38,-152.75 624.38,-130.25 467.62,-130.25"/>
<text text-anchor="start" x="503.62" y="-136.45" font-family="Times New Roman,Times,Liberation Serif,serif" font-size="14.00">PositiveCurrent</text>
<polygon fill="none" stroke="black" points="388.12,-107.75 388.12,-130.25 467.62,-130.25 467.62,-107.75 388.12,-107.75"/>
<text text-anchor="start" x="391.12" y="-113.95" font-family="Times New Roman,Times,Liberation Serif,serif" font-size="14.00">loading_limit</text>
<polygon fill="none" stroke="black" points="467.62,-107.75 467.62,-130.25 624.38,-130.25 624.38,-107.75 467.62,-107.75"/>
<text text-anchor="start" x="470.62" y="-113.95" font-family="Times New Roman,Times,Liberation Serif,serif" font-size="14.00">Optional[ThermalLimitSet]</text>
</a>
</g>
</g>
<!-- gdm.distribution.components.matrix_impedance_branch.MatrixImpedanceBranch&#45;&gt;gdm.distribution.equipment.matrix_impedance_branch_equipment.MatrixImpedanceBranchEquipment -->
<g id="edge9" class="edge">
<title>gdm.distribution.components.matrix_impedance_branch.MatrixImpedanceBranch:e&#45;&gt;gdm.distribution.equipment.matrix_impedance_branch_equipment.MatrixImpedanceBranchEquipment:w</title>
<path fill="none" stroke="black" d="M276.15,-480.84C361.47,-468.78 292.97,-296.21 372.43,-278.04"/>
<polyline fill="none" stroke="black" points="266.25,-481.5 271.24,-481.17"/>
<polyline fill="none" stroke="black" points="271.24,-481.17 276.23,-480.83"/>
<polyline fill="none" stroke="black" points="387.12,-276.5 382.15,-277.02"/>
<polygon fill="black" stroke="black" points="380.64,-272.15 381.68,-282.1 379.69,-282.31 378.65,-272.36 380.64,-272.15"/>
<polyline fill="none" stroke="black" points="382.15,-277.02 377.18,-277.54"/>
<polygon fill="black" stroke="black" points="375.66,-272.68 376.71,-282.62 374.72,-282.83 373.67,-272.89 375.66,-272.68"/>
<polyline fill="none" stroke="black" points="377.18,-277.54 372.21,-278.07"/>
</g>
<!-- gdm.distribution.equipment.matrix_impedance_branch_equipment.MatrixImpedanceBranchEquipment&#45;&gt;gdm.distribution.common.limitset.ThermalLimitSet -->
<g id="edge10" class="edge">
<title>gdm.distribution.equipment.matrix_impedance_branch_equipment.MatrixImpedanceBranchEquipment:e&#45;&gt;gdm.distribution.common.limitset.ThermalLimitSet:w</title>
<path fill="none" stroke="black" d="M635.3,-119.01C679.94,-119.08 697.97,-119.6 739.16,-119.72"/>
<polyline fill="none" stroke="black" points="625.38,-119 630.37,-119"/>
<polyline fill="none" stroke="black" points="630.37,-119 635.37,-119.01"/>
<polyline fill="none" stroke="black" points="758,-119.75 753,-119.74"/>
<polygon fill="black" stroke="black" points="752.01,-114.74 751.99,-124.74 749.99,-124.74 750.01,-114.74 752.01,-114.74"/>
<polyline fill="none" stroke="black" points="753,-119.74 748,-119.74"/>
<ellipse fill="none" stroke="black" cx="743.5" cy="-119.73" rx="4" ry="4"/>
</g>
</g>
</svg>
