<?xml version="1.0" encoding="UTF-8" standalone="no"?>
<!DOCTYPE svg PUBLIC "-//W3C//DTD SVG 1.1//EN"
 "http://www.w3.org/Graphics/SVG/1.1/DTD/svg11.dtd">
<!-- Generated by graphviz version 9.0.0 (0)
 -->
<!-- Title: Entity Relationship Diagram created by erdantic Pages: 1 -->
<svg width="275pt" height="203pt"
 viewBox="0.00 0.00 274.50 202.50" xmlns="http://www.w3.org/2000/svg" xmlns:xlink="http://www.w3.org/1999/xlink">
<g id="graph0" class="graph" transform="scale(1 1) rotate(0) translate(4 198.5)">
<title>Entity Relationship Diagram created by erdantic</title>
<polygon fill="white" stroke="none" points="-4,4 -4,-198.5 270.5,-198.5 270.5,4 -4,4"/>
<text text-anchor="middle" x="133.25" y="-5.95" font-family="Times New Roman,Times,Liberation Serif,serif" font-size="9.00" fill="#a8a8a8">Created by erdantic v0.6.0 &lt;https://github.com/drivendataorg/erdantic&gt;</text>
<!-- gdm.distribution.equipment.phase_capacitor_equipment.PhaseCapacitorEquipment -->
<g id="node1" class="node">
<title>gdm.distribution.equipment.phase_capacitor_equipment.PhaseCapacitorEquipment</title>
<g id="a_node1"><a xlink:title="gdm.distribution.equipment.phase_capacitor_equipment.PhaseCapacitorEquipment&#10;&#10;Interface for phase capacitor.&#10;">
<polygon fill="none" stroke="black" points="6.25,-172.5 6.25,-194.5 260.25,-194.5 260.25,-172.5 6.25,-172.5"/>
<text text-anchor="start" x="54.88" y="-179.2" font-family="Times New Roman,Times,Liberation Serif,serif" font-weight="bold" font-size="14.00">PhaseCapacitorEquipment</text>
<polygon fill="none" stroke="black" points="6.25,-150.5 6.25,-172.5 129.25,-172.5 129.25,-150.5 6.25,-150.5"/>
<text text-anchor="start" x="55.75" y="-156.2" font-family="Times New Roman,Times,Liberation Serif,serif" font-size="14.00">uuid</text>
<polygon fill="none" stroke="black" points="129.25,-150.5 129.25,-172.5 260.25,-172.5 260.25,-150.5 129.25,-150.5"/>
<text text-anchor="start" x="177.88" y="-156.2" font-family="Times New Roman,Times,Liberation Serif,serif" font-size="14.00">UUID</text>
<polygon fill="none" stroke="black" points="6.25,-128.5 6.25,-150.5 129.25,-150.5 129.25,-128.5 6.25,-128.5"/>
<text text-anchor="start" x="52.75" y="-134.2" font-family="Times New Roman,Times,Liberation Serif,serif" font-size="14.00">name</text>
<polygon fill="none" stroke="black" points="129.25,-128.5 129.25,-150.5 260.25,-150.5 260.25,-128.5 129.25,-128.5"/>
<text text-anchor="start" x="188" y="-134.2" font-family="Times New Roman,Times,Liberation Serif,serif" font-size="14.00">str</text>
<polygon fill="none" stroke="black" points="6.25,-106.5 6.25,-128.5 129.25,-128.5 129.25,-106.5 6.25,-106.5"/>
<text text-anchor="start" x="41.12" y="-112.2" font-family="Times New Roman,Times,Liberation Serif,serif" font-size="14.00">resistance</text>
<polygon fill="none" stroke="black" points="129.25,-106.5 129.25,-128.5 260.25,-128.5 260.25,-106.5 129.25,-106.5"/>
<text text-anchor="start" x="144.12" y="-112.2" font-family="Times New Roman,Times,Liberation Serif,serif" font-size="14.00">PositiveResistance</text>
<polygon fill="none" stroke="black" points="6.25,-84.5 6.25,-106.5 129.25,-106.5 129.25,-84.5 6.25,-84.5"/>
<text text-anchor="start" x="42.25" y="-90.2" font-family="Times New Roman,Times,Liberation Serif,serif" font-size="14.00">reactance</text>
<polygon fill="none" stroke="black" points="129.25,-84.5 129.25,-106.5 260.25,-106.5 260.25,-84.5 129.25,-84.5"/>
<text text-anchor="start" x="145.25" y="-90.2" font-family="Times New Roman,Times,Liberation Serif,serif" font-size="14.00">PositiveReactance</text>
<polygon fill="none" stroke="black" points="6.25,-62.5 6.25,-84.5 129.25,-84.5 129.25,-62.5 6.25,-62.5"/>
<text text-anchor="start" x="9.25" y="-68.2" font-family="Times New Roman,Times,Liberation Serif,serif" font-size="14.00">rated_reactive_power</text>
<polygon fill="none" stroke="black" points="129.25,-62.5 129.25,-84.5 260.25,-84.5 260.25,-62.5 129.25,-62.5"/>
<text text-anchor="start" x="132.12" y="-68.2" font-family="Times New Roman,Times,Liberation Serif,serif" font-size="14.00">PositiveReactivePower</text>
<polygon fill="none" stroke="black" points="6.25,-40.5 6.25,-62.5 129.25,-62.5 129.25,-40.5 6.25,-40.5"/>
<text text-anchor="start" x="26.12" y="-46.2" font-family="Times New Roman,Times,Liberation Serif,serif" font-size="14.00">num_banks_on</text>
<polygon fill="none" stroke="black" points="129.25,-40.5 129.25,-62.5 260.25,-62.5 260.25,-40.5 129.25,-40.5"/>
<text text-anchor="start" x="187.62" y="-46.2" font-family="Times New Roman,Times,Liberation Serif,serif" font-size="14.00">int</text>
<polygon fill="none" stroke="black" points="6.25,-18.5 6.25,-40.5 129.25,-40.5 129.25,-18.5 6.25,-18.5"/>
<text text-anchor="start" x="36.25" y="-24.2" font-family="Times New Roman,Times,Liberation Serif,serif" font-size="14.00">num_banks</text>
<polygon fill="none" stroke="black" points="129.25,-18.5 129.25,-40.5 260.25,-40.5 260.25,-18.5 129.25,-18.5"/>
<text text-anchor="start" x="187.62" y="-24.2" font-family="Times New Roman,Times,Liberation Serif,serif" font-size="14.00">int</text>
</a>
</g>
</g>
</g>
</svg>
