<?xml version="1.0" encoding="UTF-8" standalone="no"?>
<!DOCTYPE svg PUBLIC "-//W3C//DTD SVG 1.1//EN"
 "http://www.w3.org/Graphics/SVG/1.1/DTD/svg11.dtd">
<!-- Generated by graphviz version 12.2.1 (20241206.2353)
 -->
<!-- Title: Entity Relationship Diagram created by erdantic Pages: 1 -->
<svg width="275pt" height="207pt"
 viewBox="0.00 0.00 274.50 206.50" xmlns="http://www.w3.org/2000/svg" xmlns:xlink="http://www.w3.org/1999/xlink">
<g id="graph0" class="graph" transform="scale(1 1) rotate(0) translate(4 202.5)">
<title>Entity Relationship Diagram created by erdantic</title>
<polygon fill="white" stroke="none" points="-4,4 -4,-202.5 270.5,-202.5 270.5,4 -4,4"/>
<text text-anchor="middle" x="133.25" y="-5.95" font-family="Times New Roman,Times,Liberation Serif,serif" font-size="9.00" fill="#a8a8a8">Created by erdantic v1.0.5 &lt;https://github.com/drivendataorg/erdantic&gt;</text>
<!-- gdm.distribution.equipment.phase_capacitor_equipment.PhaseCapacitorEquipment -->
<g id="node1" class="node">
<title>gdm.distribution.equipment.phase_capacitor_equipment.PhaseCapacitorEquipment</title>
<g id="a_node1"><a xlink:title="gdm.distribution.equipment.phase_capacitor_equipment.PhaseCapacitorEquipment&#10;&#10;Data model for phase capacitor.&#10;">
<polygon fill="none" stroke="black" points="6.12,-176 6.12,-198.5 260.38,-198.5 260.38,-176 6.12,-176"/>
<text text-anchor="start" x="54.88" y="-183.2" font-family="Times New Roman,Times,Liberation Serif,serif" font-weight="bold" font-size="14.00">PhaseCapacitorEquipment</text>
<polygon fill="none" stroke="black" points="6.12,-153.5 6.12,-176 129.12,-176 129.12,-153.5 6.12,-153.5"/>
<text text-anchor="start" x="55.62" y="-159.7" font-family="Times New Roman,Times,Liberation Serif,serif" font-size="14.00">uuid</text>
<polygon fill="none" stroke="black" points="129.12,-153.5 129.12,-176 260.38,-176 260.38,-153.5 129.12,-153.5"/>
<text text-anchor="start" x="177.88" y="-159.7" font-family="Times New Roman,Times,Liberation Serif,serif" font-size="14.00">UUID</text>
<polygon fill="none" stroke="black" points="6.12,-131 6.12,-153.5 129.12,-153.5 129.12,-131 6.12,-131"/>
<text text-anchor="start" x="52.62" y="-137.2" font-family="Times New Roman,Times,Liberation Serif,serif" font-size="14.00">name</text>
<polygon fill="none" stroke="black" points="129.12,-131 129.12,-153.5 260.38,-153.5 260.38,-131 129.12,-131"/>
<text text-anchor="start" x="188" y="-137.2" font-family="Times New Roman,Times,Liberation Serif,serif" font-size="14.00">str</text>
<polygon fill="none" stroke="black" points="6.12,-108.5 6.12,-131 129.12,-131 129.12,-108.5 6.12,-108.5"/>
<text text-anchor="start" x="41" y="-114.7" font-family="Times New Roman,Times,Liberation Serif,serif" font-size="14.00">resistance</text>
<polygon fill="none" stroke="black" points="129.12,-108.5 129.12,-131 260.38,-131 260.38,-108.5 129.12,-108.5"/>
<text text-anchor="start" x="144.12" y="-114.7" font-family="Times New Roman,Times,Liberation Serif,serif" font-size="14.00">PositiveResistance</text>
<polygon fill="none" stroke="black" points="6.12,-86 6.12,-108.5 129.12,-108.5 129.12,-86 6.12,-86"/>
<text text-anchor="start" x="42.12" y="-92.2" font-family="Times New Roman,Times,Liberation Serif,serif" font-size="14.00">reactance</text>
<polygon fill="none" stroke="black" points="129.12,-86 129.12,-108.5 260.38,-108.5 260.38,-86 129.12,-86"/>
<text text-anchor="start" x="145.25" y="-92.2" font-family="Times New Roman,Times,Liberation Serif,serif" font-size="14.00">PositiveReactance</text>
<polygon fill="none" stroke="black" points="6.12,-63.5 6.12,-86 129.12,-86 129.12,-63.5 6.12,-63.5"/>
<text text-anchor="start" x="9.12" y="-69.7" font-family="Times New Roman,Times,Liberation Serif,serif" font-size="14.00">rated_reactive_power</text>
<polygon fill="none" stroke="black" points="129.12,-63.5 129.12,-86 260.38,-86 260.38,-63.5 129.12,-63.5"/>
<text text-anchor="start" x="132.12" y="-69.7" font-family="Times New Roman,Times,Liberation Serif,serif" font-size="14.00">PositiveReactivePower</text>
<polygon fill="none" stroke="black" points="6.12,-41 6.12,-63.5 129.12,-63.5 129.12,-41 6.12,-41"/>
<text text-anchor="start" x="26" y="-47.2" font-family="Times New Roman,Times,Liberation Serif,serif" font-size="14.00">num_banks_on</text>
<polygon fill="none" stroke="black" points="129.12,-41 129.12,-63.5 260.38,-63.5 260.38,-41 129.12,-41"/>
<text text-anchor="start" x="187.62" y="-47.2" font-family="Times New Roman,Times,Liberation Serif,serif" font-size="14.00">int</text>
<polygon fill="none" stroke="black" points="6.12,-18.5 6.12,-41 129.12,-41 129.12,-18.5 6.12,-18.5"/>
<text text-anchor="start" x="36.12" y="-24.7" font-family="Times New Roman,Times,Liberation Serif,serif" font-size="14.00">num_banks</text>
<polygon fill="none" stroke="black" points="129.12,-18.5 129.12,-41 260.38,-41 260.38,-18.5 129.12,-18.5"/>
<text text-anchor="start" x="187.62" y="-24.7" font-family="Times New Roman,Times,Liberation Serif,serif" font-size="14.00">int</text>
</a>
</g>
</g>
</g>
</svg>
