<?xml version="1.0" encoding="UTF-8" standalone="no"?>
<!DOCTYPE svg PUBLIC "-//W3C//DTD SVG 1.1//EN"
 "http://www.w3.org/Graphics/SVG/1.1/DTD/svg11.dtd">
<!-- Generated by graphviz version 9.0.0 (0)
 -->
<!-- Title: Entity Relationship Diagram created by erdantic Pages: 1 -->
<svg width="275pt" height="291pt"
 viewBox="0.00 0.00 274.50 290.50" xmlns="http://www.w3.org/2000/svg" xmlns:xlink="http://www.w3.org/1999/xlink">
<g id="graph0" class="graph" transform="scale(1 1) rotate(0) translate(4 286.5)">
<title>Entity Relationship Diagram created by erdantic</title>
<polygon fill="white" stroke="none" points="-4,4 -4,-286.5 270.5,-286.5 270.5,4 -4,4"/>
<text text-anchor="middle" x="133.25" y="-5.95" font-family="Times New Roman,Times,Liberation Serif,serif" font-size="9.00" fill="#a8a8a8">Created by erdantic v0.6.0 &lt;https://github.com/drivendataorg/erdantic&gt;</text>
<!-- gdm.distribution.equipment.phase_load_equipment.PhaseLoadEquipment -->
<g id="node1" class="node">
<title>gdm.distribution.equipment.phase_load_equipment.PhaseLoadEquipment</title>
<g id="a_node1"><a xlink:title="gdm.distribution.equipment.phase_load_equipment.PhaseLoadEquipment&#10;&#10;Interface for single phase load equipment.&#10; &#160;&#160;&#160;&#10;">
<polygon fill="none" stroke="black" points="43.25,-260.5 43.25,-282.5 223.25,-282.5 223.25,-260.5 43.25,-260.5"/>
<text text-anchor="start" x="68.75" y="-267.2" font-family="Times New Roman,Times,Liberation Serif,serif" font-weight="bold" font-size="14.00">PhaseLoadEquipment</text>
<polygon fill="none" stroke="black" points="43.25,-238.5 43.25,-260.5 136.25,-260.5 136.25,-238.5 43.25,-238.5"/>
<text text-anchor="start" x="77.75" y="-244.2" font-family="Times New Roman,Times,Liberation Serif,serif" font-size="14.00">uuid</text>
<polygon fill="none" stroke="black" points="136.25,-238.5 136.25,-260.5 223.25,-260.5 223.25,-238.5 136.25,-238.5"/>
<text text-anchor="start" x="162.88" y="-244.2" font-family="Times New Roman,Times,Liberation Serif,serif" font-size="14.00">UUID</text>
<polygon fill="none" stroke="black" points="43.25,-216.5 43.25,-238.5 136.25,-238.5 136.25,-216.5 43.25,-216.5"/>
<text text-anchor="start" x="74.75" y="-222.2" font-family="Times New Roman,Times,Liberation Serif,serif" font-size="14.00">name</text>
<polygon fill="none" stroke="black" points="136.25,-216.5 136.25,-238.5 223.25,-238.5 223.25,-216.5 136.25,-216.5"/>
<text text-anchor="start" x="173" y="-222.2" font-family="Times New Roman,Times,Liberation Serif,serif" font-size="14.00">str</text>
<polygon fill="none" stroke="black" points="43.25,-194.5 43.25,-216.5 136.25,-216.5 136.25,-194.5 43.25,-194.5"/>
<text text-anchor="start" x="59.38" y="-200.2" font-family="Times New Roman,Times,Liberation Serif,serif" font-size="14.00">real_power</text>
<polygon fill="none" stroke="black" points="136.25,-194.5 136.25,-216.5 223.25,-216.5 223.25,-194.5 136.25,-194.5"/>
<text text-anchor="start" x="144.5" y="-200.2" font-family="Times New Roman,Times,Liberation Serif,serif" font-size="14.00">ActivePower</text>
<polygon fill="none" stroke="black" points="43.25,-172.5 43.25,-194.5 136.25,-194.5 136.25,-172.5 43.25,-172.5"/>
<text text-anchor="start" x="48.12" y="-178.2" font-family="Times New Roman,Times,Liberation Serif,serif" font-size="14.00">reactive_power</text>
<polygon fill="none" stroke="black" points="136.25,-172.5 136.25,-194.5 223.25,-194.5 223.25,-172.5 136.25,-172.5"/>
<text text-anchor="start" x="138.88" y="-178.2" font-family="Times New Roman,Times,Liberation Serif,serif" font-size="14.00">ReactivePower</text>
<polygon fill="none" stroke="black" points="43.25,-150.5 43.25,-172.5 136.25,-172.5 136.25,-150.5 43.25,-150.5"/>
<text text-anchor="start" x="73.25" y="-156.2" font-family="Times New Roman,Times,Liberation Serif,serif" font-size="14.00">z_real</text>
<polygon fill="none" stroke="black" points="136.25,-150.5 136.25,-172.5 223.25,-172.5 223.25,-150.5 136.25,-150.5"/>
<text text-anchor="start" x="167.38" y="-156.2" font-family="Times New Roman,Times,Liberation Serif,serif" font-size="14.00">float</text>
<polygon fill="none" stroke="black" points="43.25,-128.5 43.25,-150.5 136.25,-150.5 136.25,-128.5 43.25,-128.5"/>
<text text-anchor="start" x="69.5" y="-134.2" font-family="Times New Roman,Times,Liberation Serif,serif" font-size="14.00">z_imag</text>
<polygon fill="none" stroke="black" points="136.25,-128.5 136.25,-150.5 223.25,-150.5 223.25,-128.5 136.25,-128.5"/>
<text text-anchor="start" x="167.38" y="-134.2" font-family="Times New Roman,Times,Liberation Serif,serif" font-size="14.00">float</text>
<polygon fill="none" stroke="black" points="43.25,-106.5 43.25,-128.5 136.25,-128.5 136.25,-106.5 43.25,-106.5"/>
<text text-anchor="start" x="74.38" y="-112.2" font-family="Times New Roman,Times,Liberation Serif,serif" font-size="14.00">i_real</text>
<polygon fill="none" stroke="black" points="136.25,-106.5 136.25,-128.5 223.25,-128.5 223.25,-106.5 136.25,-106.5"/>
<text text-anchor="start" x="167.38" y="-112.2" font-family="Times New Roman,Times,Liberation Serif,serif" font-size="14.00">float</text>
<polygon fill="none" stroke="black" points="43.25,-84.5 43.25,-106.5 136.25,-106.5 136.25,-84.5 43.25,-84.5"/>
<text text-anchor="start" x="70.62" y="-90.2" font-family="Times New Roman,Times,Liberation Serif,serif" font-size="14.00">i_imag</text>
<polygon fill="none" stroke="black" points="136.25,-84.5 136.25,-106.5 223.25,-106.5 223.25,-84.5 136.25,-84.5"/>
<text text-anchor="start" x="167.38" y="-90.2" font-family="Times New Roman,Times,Liberation Serif,serif" font-size="14.00">float</text>
<polygon fill="none" stroke="black" points="43.25,-62.5 43.25,-84.5 136.25,-84.5 136.25,-62.5 43.25,-62.5"/>
<text text-anchor="start" x="72.88" y="-68.2" font-family="Times New Roman,Times,Liberation Serif,serif" font-size="14.00">p_real</text>
<polygon fill="none" stroke="black" points="136.25,-62.5 136.25,-84.5 223.25,-84.5 223.25,-62.5 136.25,-62.5"/>
<text text-anchor="start" x="167.38" y="-68.2" font-family="Times New Roman,Times,Liberation Serif,serif" font-size="14.00">float</text>
<polygon fill="none" stroke="black" points="43.25,-40.5 43.25,-62.5 136.25,-62.5 136.25,-40.5 43.25,-40.5"/>
<text text-anchor="start" x="69.12" y="-46.2" font-family="Times New Roman,Times,Liberation Serif,serif" font-size="14.00">p_imag</text>
<polygon fill="none" stroke="black" points="136.25,-40.5 136.25,-62.5 223.25,-62.5 223.25,-40.5 136.25,-40.5"/>
<text text-anchor="start" x="167.38" y="-46.2" font-family="Times New Roman,Times,Liberation Serif,serif" font-size="14.00">float</text>
<polygon fill="none" stroke="black" points="43.25,-18.5 43.25,-40.5 136.25,-40.5 136.25,-18.5 43.25,-18.5"/>
<text text-anchor="start" x="46.25" y="-24.2" font-family="Times New Roman,Times,Liberation Serif,serif" font-size="14.00">num_customers</text>
<polygon fill="none" stroke="black" points="136.25,-18.5 136.25,-40.5 223.25,-40.5 223.25,-18.5 136.25,-18.5"/>
<text text-anchor="start" x="144.5" y="-24.2" font-family="Times New Roman,Times,Liberation Serif,serif" font-size="14.00">Optional[int]</text>
</a>
</g>
</g>
</g>
</svg>
