<?xml version="1.0" encoding="UTF-8" standalone="no"?>
<!DOCTYPE svg PUBLIC "-//W3C//DTD SVG 1.1//EN"
 "http://www.w3.org/Graphics/SVG/1.1/DTD/svg11.dtd">
<!-- Generated by graphviz version 9.0.0 (0)
 -->
<!-- Title: Entity Relationship Diagram created by erdantic Pages: 1 -->
<svg width="275pt" height="225pt"
 viewBox="0.00 0.00 274.50 224.50" xmlns="http://www.w3.org/2000/svg" xmlns:xlink="http://www.w3.org/1999/xlink">
<g id="graph0" class="graph" transform="scale(1 1) rotate(0) translate(4 220.5)">
<title>Entity Relationship Diagram created by erdantic</title>
<polygon fill="white" stroke="none" points="-4,4 -4,-220.5 270.5,-220.5 270.5,4 -4,4"/>
<text text-anchor="middle" x="133.25" y="-5.95" font-family="Times New Roman,Times,Liberation Serif,serif" font-size="9.00" fill="#a8a8a8">Created by erdantic v0.6.0 &lt;https://github.com/drivendataorg/erdantic&gt;</text>
<!-- gdm.distribution.equipment.phase_voltagesource_equipment.PhaseVoltageSourceEquipment -->
<g id="node1" class="node">
<title>gdm.distribution.equipment.phase_voltagesource_equipment.PhaseVoltageSourceEquipment</title>
<g id="a_node1"><a xlink:title="gdm.distribution.equipment.phase_voltagesource_equipment.PhaseVoltageSourceEquipment&#10;&#10;Interface for phase voltage source.&#10;">
<polygon fill="none" stroke="black" points="39.25,-194.5 39.25,-216.5 227.25,-216.5 227.25,-194.5 39.25,-194.5"/>
<text text-anchor="start" x="42.12" y="-201.2" font-family="Times New Roman,Times,Liberation Serif,serif" font-weight="bold" font-size="14.00">PhaseVoltageSourceEquipment</text>
<polygon fill="none" stroke="black" points="39.25,-172.5 39.25,-194.5 124.25,-194.5 124.25,-172.5 39.25,-172.5"/>
<text text-anchor="start" x="69.75" y="-178.2" font-family="Times New Roman,Times,Liberation Serif,serif" font-size="14.00">uuid</text>
<polygon fill="none" stroke="black" points="124.25,-172.5 124.25,-194.5 227.25,-194.5 227.25,-172.5 124.25,-172.5"/>
<text text-anchor="start" x="158.88" y="-178.2" font-family="Times New Roman,Times,Liberation Serif,serif" font-size="14.00">UUID</text>
<polygon fill="none" stroke="black" points="39.25,-150.5 39.25,-172.5 124.25,-172.5 124.25,-150.5 39.25,-150.5"/>
<text text-anchor="start" x="66.75" y="-156.2" font-family="Times New Roman,Times,Liberation Serif,serif" font-size="14.00">name</text>
<polygon fill="none" stroke="black" points="124.25,-150.5 124.25,-172.5 227.25,-172.5 227.25,-150.5 124.25,-150.5"/>
<text text-anchor="start" x="169" y="-156.2" font-family="Times New Roman,Times,Liberation Serif,serif" font-size="14.00">str</text>
<polygon fill="none" stroke="black" points="39.25,-128.5 39.25,-150.5 124.25,-150.5 124.25,-128.5 39.25,-128.5"/>
<text text-anchor="start" x="76.12" y="-134.2" font-family="Times New Roman,Times,Liberation Serif,serif" font-size="14.00">r0</text>
<polygon fill="none" stroke="black" points="124.25,-128.5 124.25,-150.5 227.25,-150.5 227.25,-128.5 124.25,-128.5"/>
<text text-anchor="start" x="146.88" y="-134.2" font-family="Times New Roman,Times,Liberation Serif,serif" font-size="14.00">Resistance</text>
<polygon fill="none" stroke="black" points="39.25,-106.5 39.25,-128.5 124.25,-128.5 124.25,-106.5 39.25,-106.5"/>
<text text-anchor="start" x="76.12" y="-112.2" font-family="Times New Roman,Times,Liberation Serif,serif" font-size="14.00">r1</text>
<polygon fill="none" stroke="black" points="124.25,-106.5 124.25,-128.5 227.25,-128.5 227.25,-106.5 124.25,-106.5"/>
<text text-anchor="start" x="146.88" y="-112.2" font-family="Times New Roman,Times,Liberation Serif,serif" font-size="14.00">Resistance</text>
<polygon fill="none" stroke="black" points="39.25,-84.5 39.25,-106.5 124.25,-106.5 124.25,-84.5 39.25,-84.5"/>
<text text-anchor="start" x="75" y="-90.2" font-family="Times New Roman,Times,Liberation Serif,serif" font-size="14.00">x0</text>
<polygon fill="none" stroke="black" points="124.25,-84.5 124.25,-106.5 227.25,-106.5 227.25,-84.5 124.25,-84.5"/>
<text text-anchor="start" x="148" y="-90.2" font-family="Times New Roman,Times,Liberation Serif,serif" font-size="14.00">Reactance</text>
<polygon fill="none" stroke="black" points="39.25,-62.5 39.25,-84.5 124.25,-84.5 124.25,-62.5 39.25,-62.5"/>
<text text-anchor="start" x="75" y="-68.2" font-family="Times New Roman,Times,Liberation Serif,serif" font-size="14.00">x1</text>
<polygon fill="none" stroke="black" points="124.25,-62.5 124.25,-84.5 227.25,-84.5 227.25,-62.5 124.25,-62.5"/>
<text text-anchor="start" x="148" y="-68.2" font-family="Times New Roman,Times,Liberation Serif,serif" font-size="14.00">Reactance</text>
<polygon fill="none" stroke="black" points="39.25,-40.5 39.25,-62.5 124.25,-62.5 124.25,-40.5 39.25,-40.5"/>
<text text-anchor="start" x="61.88" y="-46.2" font-family="Times New Roman,Times,Liberation Serif,serif" font-size="14.00">voltage</text>
<polygon fill="none" stroke="black" points="124.25,-40.5 124.25,-62.5 227.25,-62.5 227.25,-40.5 124.25,-40.5"/>
<text text-anchor="start" x="155.12" y="-46.2" font-family="Times New Roman,Times,Liberation Serif,serif" font-size="14.00">Voltage</text>
<polygon fill="none" stroke="black" points="39.25,-18.5 39.25,-40.5 124.25,-40.5 124.25,-18.5 39.25,-18.5"/>
<text text-anchor="start" x="67.12" y="-24.2" font-family="Times New Roman,Times,Liberation Serif,serif" font-size="14.00">angle</text>
<polygon fill="none" stroke="black" points="124.25,-18.5 124.25,-40.5 227.25,-40.5 227.25,-18.5 124.25,-18.5"/>
<text text-anchor="start" x="159.25" y="-24.2" font-family="Times New Roman,Times,Liberation Serif,serif" font-size="14.00">Angle</text>
</a>
</g>
</g>
</g>
</svg>
