<?xml version="1.0" encoding="UTF-8" standalone="no"?>
<!DOCTYPE svg PUBLIC "-//W3C//DTD SVG 1.1//EN"
 "http://www.w3.org/Graphics/SVG/1.1/DTD/svg11.dtd">
<!-- Generated by graphviz version 12.2.1 (20241206.2353)
 -->
<!-- Title: Entity Relationship Diagram created by erdantic Pages: 1 -->
<svg width="388pt" height="139pt"
 viewBox="0.00 0.00 388.25 139.00" xmlns="http://www.w3.org/2000/svg" xmlns:xlink="http://www.w3.org/1999/xlink">
<g id="graph0" class="graph" transform="scale(1 1) rotate(0) translate(4 135)">
<title>Entity Relationship Diagram created by erdantic</title>
<polygon fill="white" stroke="none" points="-4,4 -4,-135 384.25,-135 384.25,4 -4,4"/>
<text text-anchor="middle" x="190.12" y="-5.95" font-family="Times New Roman,Times,Liberation Serif,serif" font-size="9.00" fill="#a8a8a8">Created by erdantic v1.0.5 &lt;https://github.com/drivendataorg/erdantic&gt;</text>
<!-- gdm.distribution.controllers.distribution_inverter_controller.PowerfactorControlSetting -->
<g id="node1" class="node">
<title>gdm.distribution.controllers.distribution_inverter_controller.PowerfactorControlSetting</title>
<g id="a_node1"><a xlink:title="gdm.distribution.controllers.distribution_inverter_controller.PowerfactorControlSetting&#10;&#10;Control settings for the &#160;Inverter Controller to represent power factor control.&#10;Works with both battery and solar systems. Controls reactive power output of the&#10;connected inverter&#10;">
<polygon fill="none" stroke="black" points="0,-108.5 0,-131 380.25,-131 380.25,-108.5 0,-108.5"/>
<text text-anchor="start" x="111.75" y="-115.7" font-family="Times New Roman,Times,Liberation Serif,serif" font-weight="bold" font-size="14.00">PowerfactorControlSetting</text>
<polygon fill="none" stroke="black" points="0,-86 0,-108.5 79.5,-108.5 79.5,-86 0,-86"/>
<text text-anchor="start" x="27.75" y="-92.2" font-family="Times New Roman,Times,Liberation Serif,serif" font-size="14.00">uuid</text>
<polygon fill="none" stroke="black" points="79.5,-86 79.5,-108.5 380.25,-108.5 380.25,-86 79.5,-86"/>
<text text-anchor="start" x="213" y="-92.2" font-family="Times New Roman,Times,Liberation Serif,serif" font-size="14.00">UUID</text>
<polygon fill="none" stroke="black" points="0,-63.5 0,-86 79.5,-86 79.5,-63.5 0,-63.5"/>
<text text-anchor="start" x="24.75" y="-69.7" font-family="Times New Roman,Times,Liberation Serif,serif" font-size="14.00">name</text>
<polygon fill="none" stroke="black" points="79.5,-63.5 79.5,-86 380.25,-86 380.25,-63.5 79.5,-63.5"/>
<text text-anchor="start" x="223.12" y="-69.7" font-family="Times New Roman,Times,Liberation Serif,serif" font-size="14.00">str</text>
<polygon fill="none" stroke="black" points="0,-41 0,-63.5 79.5,-63.5 79.5,-41 0,-41"/>
<text text-anchor="start" x="3.75" y="-47.2" font-family="Times New Roman,Times,Liberation Serif,serif" font-size="14.00">power_factor</text>
<polygon fill="none" stroke="black" points="79.5,-41 79.5,-63.5 380.25,-63.5 380.25,-41 79.5,-41"/>
<text text-anchor="start" x="217.5" y="-47.2" font-family="Times New Roman,Times,Liberation Serif,serif" font-size="14.00">float</text>
<polygon fill="none" stroke="black" points="0,-18.5 0,-41 79.5,-41 79.5,-18.5 0,-18.5"/>
<text text-anchor="start" x="3" y="-24.7" font-family="Times New Roman,Times,Liberation Serif,serif" font-size="14.00">supported_by</text>
<polygon fill="none" stroke="black" points="79.5,-18.5 79.5,-41 380.25,-41 380.25,-18.5 79.5,-18.5"/>
<text text-anchor="start" x="82.5" y="-24.7" font-family="Times New Roman,Times,Liberation Serif,serif" font-size="14.00">Literal[ControllerSupport.BATTERY_AND_SOLAR]</text>
</a>
</g>
</g>
</g>
</svg>
