<?xml version="1.0" encoding="UTF-8" standalone="no"?>
<!DOCTYPE svg PUBLIC "-//W3C//DTD SVG 1.1//EN"
 "http://www.w3.org/Graphics/SVG/1.1/DTD/svg11.dtd">
<!-- Generated by graphviz version 9.0.0 (0)
 -->
<!-- Title: Entity Relationship Diagram created by erdantic Pages: 1 -->
<svg width="387pt" height="137pt"
 viewBox="0.00 0.00 387.00 136.50" xmlns="http://www.w3.org/2000/svg" xmlns:xlink="http://www.w3.org/1999/xlink">
<g id="graph0" class="graph" transform="scale(1 1) rotate(0) translate(4 132.5)">
<title>Entity Relationship Diagram created by erdantic</title>
<polygon fill="white" stroke="none" points="-4,4 -4,-132.5 383,-132.5 383,4 -4,4"/>
<text text-anchor="middle" x="189.5" y="-5.95" font-family="Times New Roman,Times,Liberation Serif,serif" font-size="9.00" fill="#a8a8a8">Created by erdantic v0.6.0 &lt;https://github.com/drivendataorg/erdantic&gt;</text>
<!-- gdm.distribution.controllers.distribution_inverter_controller.PowerfactorInverterController -->
<g id="node1" class="node">
<title>gdm.distribution.controllers.distribution_inverter_controller.PowerfactorInverterController</title>
<g id="a_node1"><a xlink:title="gdm.distribution.controllers.distribution_inverter_controller.PowerfactorInverterController&#10;&#10;Interface for an Inverter Controller using powerfactor to determine power output.&#10;">
<polygon fill="none" stroke="black" points="0,-106.5 0,-128.5 379,-128.5 379,-106.5 0,-106.5"/>
<text text-anchor="start" x="99.5" y="-113.2" font-family="Times New Roman,Times,Liberation Serif,serif" font-weight="bold" font-size="14.00">PowerfactorInverterController</text>
<polygon fill="none" stroke="black" points="0,-84.5 0,-106.5 79,-106.5 79,-84.5 0,-84.5"/>
<text text-anchor="start" x="27.5" y="-90.2" font-family="Times New Roman,Times,Liberation Serif,serif" font-size="14.00">uuid</text>
<polygon fill="none" stroke="black" points="79,-84.5 79,-106.5 379,-106.5 379,-84.5 79,-84.5"/>
<text text-anchor="start" x="212.12" y="-90.2" font-family="Times New Roman,Times,Liberation Serif,serif" font-size="14.00">UUID</text>
<polygon fill="none" stroke="black" points="0,-62.5 0,-84.5 79,-84.5 79,-62.5 0,-62.5"/>
<text text-anchor="start" x="24.5" y="-68.2" font-family="Times New Roman,Times,Liberation Serif,serif" font-size="14.00">name</text>
<polygon fill="none" stroke="black" points="79,-62.5 79,-84.5 379,-84.5 379,-62.5 79,-62.5"/>
<text text-anchor="start" x="222.25" y="-68.2" font-family="Times New Roman,Times,Liberation Serif,serif" font-size="14.00">str</text>
<polygon fill="none" stroke="black" points="0,-40.5 0,-62.5 79,-62.5 79,-40.5 0,-40.5"/>
<text text-anchor="start" x="3.5" y="-46.2" font-family="Times New Roman,Times,Liberation Serif,serif" font-size="14.00">power_factor</text>
<polygon fill="none" stroke="black" points="79,-40.5 79,-62.5 379,-62.5 379,-40.5 79,-40.5"/>
<text text-anchor="start" x="216.62" y="-46.2" font-family="Times New Roman,Times,Liberation Serif,serif" font-size="14.00">float</text>
<polygon fill="none" stroke="black" points="0,-18.5 0,-40.5 79,-40.5 79,-18.5 0,-18.5"/>
<text text-anchor="start" x="2.75" y="-24.2" font-family="Times New Roman,Times,Liberation Serif,serif" font-size="14.00">supported_by</text>
<polygon fill="none" stroke="black" points="79,-18.5 79,-40.5 379,-40.5 379,-18.5 79,-18.5"/>
<text text-anchor="start" x="82" y="-24.2" font-family="Times New Roman,Times,Liberation Serif,serif" font-size="14.00">Literal[ControllerSupport.BATTERY_AND_SOLAR]</text>
</a>
</g>
</g>
</g>
</svg>
