<?xml version="1.0" encoding="UTF-8" standalone="no"?>
<!DOCTYPE svg PUBLIC "-//W3C//DTD SVG 1.1//EN"
 "http://www.w3.org/Graphics/SVG/1.1/DTD/svg11.dtd">
<!-- Generated by graphviz version 12.2.1 (20241206.2353)
 -->
<!-- Title: Entity Relationship Diagram created by erdantic Pages: 1 -->
<svg width="275pt" height="207pt"
 viewBox="0.00 0.00 274.50 206.50" xmlns="http://www.w3.org/2000/svg" xmlns:xlink="http://www.w3.org/1999/xlink">
<g id="graph0" class="graph" transform="scale(1 1) rotate(0) translate(4 202.5)">
<title>Entity Relationship Diagram created by erdantic</title>
<polygon fill="white" stroke="none" points="-4,4 -4,-202.5 270.5,-202.5 270.5,4 -4,4"/>
<text text-anchor="middle" x="133.25" y="-5.95" font-family="Times New Roman,Times,Liberation Serif,serif" font-size="9.00" fill="#a8a8a8">Created by erdantic v1.0.5 &lt;https://github.com/drivendataorg/erdantic&gt;</text>
<!-- gdm.distribution.controllers.distribution_capacitor_controller.ReactivePowerCapacitorController -->
<g id="node1" class="node">
<title>gdm.distribution.controllers.distribution_capacitor_controller.ReactivePowerCapacitorController</title>
<g id="a_node1"><a xlink:title="gdm.distribution.controllers.distribution_capacitor_controller.ReactivePowerCapacitorController&#10;&#10;Data model for a Capacitor Controller which uses reactive power.&#10;">
<polygon fill="none" stroke="black" points="27.88,-176 27.88,-198.5 238.62,-198.5 238.62,-176 27.88,-176"/>
<text text-anchor="start" x="30.88" y="-183.2" font-family="Times New Roman,Times,Liberation Serif,serif" font-weight="bold" font-size="14.00">ReactivePowerCapacitorController</text>
<polygon fill="none" stroke="black" points="27.88,-153.5 27.88,-176 99.12,-176 99.12,-153.5 27.88,-153.5"/>
<text text-anchor="start" x="51.5" y="-159.7" font-family="Times New Roman,Times,Liberation Serif,serif" font-size="14.00">uuid</text>
<polygon fill="none" stroke="black" points="99.12,-153.5 99.12,-176 238.62,-176 238.62,-153.5 99.12,-153.5"/>
<text text-anchor="start" x="152" y="-159.7" font-family="Times New Roman,Times,Liberation Serif,serif" font-size="14.00">UUID</text>
<polygon fill="none" stroke="black" points="27.88,-131 27.88,-153.5 99.12,-153.5 99.12,-131 27.88,-131"/>
<text text-anchor="start" x="48.5" y="-137.2" font-family="Times New Roman,Times,Liberation Serif,serif" font-size="14.00">name</text>
<polygon fill="none" stroke="black" points="99.12,-131 99.12,-153.5 238.62,-153.5 238.62,-131 99.12,-131"/>
<text text-anchor="start" x="162.12" y="-137.2" font-family="Times New Roman,Times,Liberation Serif,serif" font-size="14.00">str</text>
<polygon fill="none" stroke="black" points="27.88,-108.5 27.88,-131 99.12,-131 99.12,-108.5 27.88,-108.5"/>
<text text-anchor="start" x="38.75" y="-114.7" font-family="Times New Roman,Times,Liberation Serif,serif" font-size="14.00">delay_on</text>
<polygon fill="none" stroke="black" points="99.12,-108.5 99.12,-131 238.62,-131 238.62,-108.5 99.12,-108.5"/>
<text text-anchor="start" x="126.12" y="-114.7" font-family="Times New Roman,Times,Liberation Serif,serif" font-size="14.00">Optional[Time]</text>
<polygon fill="none" stroke="black" points="27.88,-86 27.88,-108.5 99.12,-108.5 99.12,-86 27.88,-86"/>
<text text-anchor="start" x="37.62" y="-92.2" font-family="Times New Roman,Times,Liberation Serif,serif" font-size="14.00">delay_off</text>
<polygon fill="none" stroke="black" points="99.12,-86 99.12,-108.5 238.62,-108.5 238.62,-86 99.12,-86"/>
<text text-anchor="start" x="126.12" y="-92.2" font-family="Times New Roman,Times,Liberation Serif,serif" font-size="14.00">Optional[Time]</text>
<polygon fill="none" stroke="black" points="27.88,-63.5 27.88,-86 99.12,-86 99.12,-63.5 27.88,-63.5"/>
<text text-anchor="start" x="35" y="-69.7" font-family="Times New Roman,Times,Liberation Serif,serif" font-size="14.00">dead_time</text>
<polygon fill="none" stroke="black" points="99.12,-63.5 99.12,-86 238.62,-86 238.62,-63.5 99.12,-63.5"/>
<text text-anchor="start" x="126.12" y="-69.7" font-family="Times New Roman,Times,Liberation Serif,serif" font-size="14.00">Optional[Time]</text>
<polygon fill="none" stroke="black" points="27.88,-41 27.88,-63.5 99.12,-63.5 99.12,-41 27.88,-41"/>
<text text-anchor="start" x="36.5" y="-47.2" font-family="Times New Roman,Times,Liberation Serif,serif" font-size="14.00">on_power</text>
<polygon fill="none" stroke="black" points="99.12,-41 99.12,-63.5 238.62,-63.5 238.62,-41 99.12,-41"/>
<text text-anchor="start" x="106.25" y="-47.2" font-family="Times New Roman,Times,Liberation Serif,serif" font-size="14.00">PositiveReactivePower</text>
<polygon fill="none" stroke="black" points="27.88,-18.5 27.88,-41 99.12,-41 99.12,-18.5 27.88,-18.5"/>
<text text-anchor="start" x="35.38" y="-24.7" font-family="Times New Roman,Times,Liberation Serif,serif" font-size="14.00">off_power</text>
<polygon fill="none" stroke="black" points="99.12,-18.5 99.12,-41 238.62,-41 238.62,-18.5 99.12,-18.5"/>
<text text-anchor="start" x="106.25" y="-24.7" font-family="Times New Roman,Times,Liberation Serif,serif" font-size="14.00">PositiveReactivePower</text>
</a>
</g>
</g>
</g>
</svg>
