<?xml version="1.0" encoding="UTF-8" standalone="no"?>
<!DOCTYPE svg PUBLIC "-//W3C//DTD SVG 1.1//EN"
 "http://www.w3.org/Graphics/SVG/1.1/DTD/svg11.dtd">
<!-- Generated by graphviz version 12.2.1 (20241206.2353)
 -->
<!-- Title: Entity Relationship Diagram created by erdantic Pages: 1 -->
<svg width="275pt" height="94pt"
 viewBox="0.00 0.00 274.50 94.00" xmlns="http://www.w3.org/2000/svg" xmlns:xlink="http://www.w3.org/1999/xlink">
<g id="graph0" class="graph" transform="scale(1 1) rotate(0) translate(4 90)">
<title>Entity Relationship Diagram created by erdantic</title>
<polygon fill="white" stroke="none" points="-4,4 -4,-90 270.5,-90 270.5,4 -4,4"/>
<text text-anchor="middle" x="133.25" y="-5.95" font-family="Times New Roman,Times,Liberation Serif,serif" font-size="9.00" fill="#a8a8a8">Created by erdantic v1.0.5 &lt;https://github.com/drivendataorg/erdantic&gt;</text>
<!-- gdm.distribution.controllers.base.inverter_controller_base.ReactivePowerInverterControllerBase -->
<g id="node1" class="node">
<title>gdm.distribution.controllers.base.inverter_controller_base.ReactivePowerInverterControllerBase</title>
<g id="a_node1"><a xlink:title="gdm.distribution.controllers.base.inverter_controller_base.ReactivePowerInverterControllerBase&#10;&#10;Interface for Inverter controllers that control reactive power.&#10;">
<polygon fill="none" stroke="black" points="19.25,-63.5 19.25,-86 247.25,-86 247.25,-63.5 19.25,-63.5"/>
<text text-anchor="start" x="22.25" y="-70.7" font-family="Times New Roman,Times,Liberation Serif,serif" font-weight="bold" font-size="14.00">ReactivePowerInverterControllerBase</text>
<polygon fill="none" stroke="black" points="19.25,-41 19.25,-63.5 131.38,-63.5 131.38,-41 19.25,-41"/>
<text text-anchor="start" x="63.31" y="-47.2" font-family="Times New Roman,Times,Liberation Serif,serif" font-size="14.00">uuid</text>
<polygon fill="none" stroke="black" points="131.38,-41 131.38,-63.5 247.25,-63.5 247.25,-41 131.38,-41"/>
<text text-anchor="start" x="172.44" y="-47.2" font-family="Times New Roman,Times,Liberation Serif,serif" font-size="14.00">UUID</text>
<polygon fill="none" stroke="black" points="19.25,-18.5 19.25,-41 131.38,-41 131.38,-18.5 19.25,-18.5"/>
<text text-anchor="start" x="60.31" y="-24.7" font-family="Times New Roman,Times,Liberation Serif,serif" font-size="14.00">name</text>
<polygon fill="none" stroke="black" points="131.38,-18.5 131.38,-41 247.25,-41 247.25,-18.5 131.38,-18.5"/>
<text text-anchor="start" x="182.56" y="-24.7" font-family="Times New Roman,Times,Liberation Serif,serif" font-size="14.00">str</text>
</a>
</g>
</g>
</g>
</svg>
