<?xml version="1.0" encoding="UTF-8" standalone="no"?>
<!DOCTYPE svg PUBLIC "-//W3C//DTD SVG 1.1//EN"
 "http://www.w3.org/Graphics/SVG/1.1/DTD/svg11.dtd">
<!-- Generated by graphviz version 9.0.0 (0)
 -->
<!-- Title: Entity Relationship Diagram created by erdantic Pages: 1 -->
<svg width="275pt" height="203pt"
 viewBox="0.00 0.00 274.50 202.50" xmlns="http://www.w3.org/2000/svg" xmlns:xlink="http://www.w3.org/1999/xlink">
<g id="graph0" class="graph" transform="scale(1 1) rotate(0) translate(4 198.5)">
<title>Entity Relationship Diagram created by erdantic</title>
<polygon fill="white" stroke="none" points="-4,4 -4,-198.5 270.5,-198.5 270.5,4 -4,4"/>
<text text-anchor="middle" x="133.25" y="-5.95" font-family="Times New Roman,Times,Liberation Serif,serif" font-size="9.00" fill="#a8a8a8">Created by erdantic v0.6.0 &lt;https://github.com/drivendataorg/erdantic&gt;</text>
<!-- gdm.distribution.controllers.distribution_capacitor_controller.ReactivePowerCapacitorController -->
<g id="node1" class="node">
<title>gdm.distribution.controllers.distribution_capacitor_controller.ReactivePowerCapacitorController</title>
<g id="a_node1"><a xlink:title="gdm.distribution.controllers.distribution_capacitor_controller.ReactivePowerCapacitorController&#10;&#10;Interface for a Capacitor Controller which uses reactive power.&#10;">
<polygon fill="none" stroke="black" points="28.25,-172.5 28.25,-194.5 238.25,-194.5 238.25,-172.5 28.25,-172.5"/>
<text text-anchor="start" x="30.88" y="-179.2" font-family="Times New Roman,Times,Liberation Serif,serif" font-weight="bold" font-size="14.00">ReactivePowerCapacitorController</text>
<polygon fill="none" stroke="black" points="28.25,-150.5 28.25,-172.5 99.25,-172.5 99.25,-150.5 28.25,-150.5"/>
<text text-anchor="start" x="51.75" y="-156.2" font-family="Times New Roman,Times,Liberation Serif,serif" font-size="14.00">uuid</text>
<polygon fill="none" stroke="black" points="99.25,-150.5 99.25,-172.5 238.25,-172.5 238.25,-150.5 99.25,-150.5"/>
<text text-anchor="start" x="151.88" y="-156.2" font-family="Times New Roman,Times,Liberation Serif,serif" font-size="14.00">UUID</text>
<polygon fill="none" stroke="black" points="28.25,-128.5 28.25,-150.5 99.25,-150.5 99.25,-128.5 28.25,-128.5"/>
<text text-anchor="start" x="48.75" y="-134.2" font-family="Times New Roman,Times,Liberation Serif,serif" font-size="14.00">name</text>
<polygon fill="none" stroke="black" points="99.25,-128.5 99.25,-150.5 238.25,-150.5 238.25,-128.5 99.25,-128.5"/>
<text text-anchor="start" x="162" y="-134.2" font-family="Times New Roman,Times,Liberation Serif,serif" font-size="14.00">str</text>
<polygon fill="none" stroke="black" points="28.25,-106.5 28.25,-128.5 99.25,-128.5 99.25,-106.5 28.25,-106.5"/>
<text text-anchor="start" x="39" y="-112.2" font-family="Times New Roman,Times,Liberation Serif,serif" font-size="14.00">delay_on</text>
<polygon fill="none" stroke="black" points="99.25,-106.5 99.25,-128.5 238.25,-128.5 238.25,-106.5 99.25,-106.5"/>
<text text-anchor="start" x="126" y="-112.2" font-family="Times New Roman,Times,Liberation Serif,serif" font-size="14.00">Optional[Time]</text>
<polygon fill="none" stroke="black" points="28.25,-84.5 28.25,-106.5 99.25,-106.5 99.25,-84.5 28.25,-84.5"/>
<text text-anchor="start" x="37.88" y="-90.2" font-family="Times New Roman,Times,Liberation Serif,serif" font-size="14.00">delay_off</text>
<polygon fill="none" stroke="black" points="99.25,-84.5 99.25,-106.5 238.25,-106.5 238.25,-84.5 99.25,-84.5"/>
<text text-anchor="start" x="126" y="-90.2" font-family="Times New Roman,Times,Liberation Serif,serif" font-size="14.00">Optional[Time]</text>
<polygon fill="none" stroke="black" points="28.25,-62.5 28.25,-84.5 99.25,-84.5 99.25,-62.5 28.25,-62.5"/>
<text text-anchor="start" x="35.25" y="-68.2" font-family="Times New Roman,Times,Liberation Serif,serif" font-size="14.00">dead_time</text>
<polygon fill="none" stroke="black" points="99.25,-62.5 99.25,-84.5 238.25,-84.5 238.25,-62.5 99.25,-62.5"/>
<text text-anchor="start" x="126" y="-68.2" font-family="Times New Roman,Times,Liberation Serif,serif" font-size="14.00">Optional[Time]</text>
<polygon fill="none" stroke="black" points="28.25,-40.5 28.25,-62.5 99.25,-62.5 99.25,-40.5 28.25,-40.5"/>
<text text-anchor="start" x="36.75" y="-46.2" font-family="Times New Roman,Times,Liberation Serif,serif" font-size="14.00">on_power</text>
<polygon fill="none" stroke="black" points="99.25,-40.5 99.25,-62.5 238.25,-62.5 238.25,-40.5 99.25,-40.5"/>
<text text-anchor="start" x="106.12" y="-46.2" font-family="Times New Roman,Times,Liberation Serif,serif" font-size="14.00">PositiveReactivePower</text>
<polygon fill="none" stroke="black" points="28.25,-18.5 28.25,-40.5 99.25,-40.5 99.25,-18.5 28.25,-18.5"/>
<text text-anchor="start" x="35.62" y="-24.2" font-family="Times New Roman,Times,Liberation Serif,serif" font-size="14.00">off_power</text>
<polygon fill="none" stroke="black" points="99.25,-18.5 99.25,-40.5 238.25,-40.5 238.25,-18.5 99.25,-18.5"/>
<text text-anchor="start" x="106.12" y="-24.2" font-family="Times New Roman,Times,Liberation Serif,serif" font-size="14.00">PositiveReactivePower</text>
</a>
</g>
</g>
</g>
</svg>
