<?xml version="1.0" encoding="UTF-8" standalone="no"?>
<!DOCTYPE svg PUBLIC "-//W3C//DTD SVG 1.1//EN"
 "http://www.w3.org/Graphics/SVG/1.1/DTD/svg11.dtd">
<!-- Generated by graphviz version 9.0.0 (0)
 -->
<!-- Title: Entity Relationship Diagram created by erdantic Pages: 1 -->
<svg width="275pt" height="93pt"
 viewBox="0.00 0.00 274.50 92.50" xmlns="http://www.w3.org/2000/svg" xmlns:xlink="http://www.w3.org/1999/xlink">
<g id="graph0" class="graph" transform="scale(1 1) rotate(0) translate(4 88.5)">
<title>Entity Relationship Diagram created by erdantic</title>
<polygon fill="white" stroke="none" points="-4,4 -4,-88.5 270.5,-88.5 270.5,4 -4,4"/>
<text text-anchor="middle" x="133.25" y="-5.95" font-family="Times New Roman,Times,Liberation Serif,serif" font-size="9.00" fill="#a8a8a8">Created by erdantic v0.6.0 &lt;https://github.com/drivendataorg/erdantic&gt;</text>
<!-- gdm.distribution.equipment.recloser_controller_equipment.RecloserControllerEquipment -->
<g id="node1" class="node">
<title>gdm.distribution.equipment.recloser_controller_equipment.RecloserControllerEquipment</title>
<g id="a_node1"><a xlink:title="gdm.distribution.equipment.recloser_controller_equipment.RecloserControllerEquipment&#10;&#10;Class interface for recloser controller equipment.&#10;">
<polygon fill="none" stroke="black" points="42.75,-62.5 42.75,-84.5 223.75,-84.5 223.75,-62.5 42.75,-62.5"/>
<text text-anchor="start" x="45.5" y="-69.2" font-family="Times New Roman,Times,Liberation Serif,serif" font-weight="bold" font-size="14.00">RecloserControllerEquipment</text>
<polygon fill="none" stroke="black" points="42.75,-40.5 42.75,-62.5 131.75,-62.5 131.75,-40.5 42.75,-40.5"/>
<text text-anchor="start" x="75.25" y="-46.2" font-family="Times New Roman,Times,Liberation Serif,serif" font-size="14.00">uuid</text>
<polygon fill="none" stroke="black" points="131.75,-40.5 131.75,-62.5 223.75,-62.5 223.75,-40.5 131.75,-40.5"/>
<text text-anchor="start" x="160.88" y="-46.2" font-family="Times New Roman,Times,Liberation Serif,serif" font-size="14.00">UUID</text>
<polygon fill="none" stroke="black" points="42.75,-18.5 42.75,-40.5 131.75,-40.5 131.75,-18.5 42.75,-18.5"/>
<text text-anchor="start" x="72.25" y="-24.2" font-family="Times New Roman,Times,Liberation Serif,serif" font-size="14.00">name</text>
<polygon fill="none" stroke="black" points="131.75,-18.5 131.75,-40.5 223.75,-40.5 223.75,-18.5 131.75,-18.5"/>
<text text-anchor="start" x="171" y="-24.2" font-family="Times New Roman,Times,Liberation Serif,serif" font-size="14.00">str</text>
</a>
</g>
</g>
</g>
</svg>
