<?xml version="1.0" encoding="UTF-8" standalone="no"?>
<!DOCTYPE svg PUBLIC "-//W3C//DTD SVG 1.1//EN"
 "http://www.w3.org/Graphics/SVG/1.1/DTD/svg11.dtd">
<!-- Generated by graphviz version 9.0.0 (0)
 -->
<!-- Title: Entity Relationship Diagram created by erdantic Pages: 1 -->
<svg width="1152pt" height="789pt"
 viewBox="0.00 0.00 1152.00 788.50" xmlns="http://www.w3.org/2000/svg" xmlns:xlink="http://www.w3.org/1999/xlink">
<g id="graph0" class="graph" transform="scale(1 1) rotate(0) translate(4 784.5)">
<title>Entity Relationship Diagram created by erdantic</title>
<polygon fill="white" stroke="none" points="-4,4 -4,-784.5 1148,-784.5 1148,4 -4,4"/>
<text text-anchor="middle" x="572" y="-5.95" font-family="Times New Roman,Times,Liberation Serif,serif" font-size="9.00" fill="#a8a8a8">Created by erdantic v0.6.0 &lt;https://github.com/drivendataorg/erdantic&gt;</text>
<!-- gdm.distribution.components.distribution_bus.DistributionBus -->
<g id="node1" class="node">
<title>gdm.distribution.components.distribution_bus.DistributionBus</title>
<g id="a_node1"><a xlink:title="gdm.distribution.components.distribution_bus.DistributionBus&#10;&#10;Interface for distribution bus.&#10;&#10;Examples:&#10; &#160;&#160;&#160;&gt;&gt;&gt; from gdm import DistributionBus&#10; &#160;&#160;&#160;&gt;&gt;&gt; DistributionBus.example()&#10;">
<polygon fill="none" stroke="black" points="353,-428.5 353,-450.5 634,-450.5 634,-428.5 353,-428.5"/>
<text text-anchor="start" x="447.38" y="-435.2" font-family="Times New Roman,Times,Liberation Serif,serif" font-weight="bold" font-size="14.00">DistributionBus</text>
<polygon fill="none" stroke="black" points="353,-406.5 353,-428.5 450,-428.5 450,-406.5 353,-406.5"/>
<text text-anchor="start" x="389.5" y="-412.2" font-family="Times New Roman,Times,Liberation Serif,serif" font-size="14.00">uuid</text>
<polygon fill="none" stroke="black" points="450,-406.5 450,-428.5 634,-428.5 634,-406.5 450,-406.5"/>
<text text-anchor="start" x="525.12" y="-412.2" font-family="Times New Roman,Times,Liberation Serif,serif" font-size="14.00">UUID</text>
<polygon fill="none" stroke="black" points="353,-384.5 353,-406.5 450,-406.5 450,-384.5 353,-384.5"/>
<text text-anchor="start" x="386.5" y="-390.2" font-family="Times New Roman,Times,Liberation Serif,serif" font-size="14.00">name</text>
<polygon fill="none" stroke="black" points="450,-384.5 450,-406.5 634,-406.5 634,-384.5 450,-384.5"/>
<text text-anchor="start" x="535.25" y="-390.2" font-family="Times New Roman,Times,Liberation Serif,serif" font-size="14.00">str</text>
<polygon fill="none" stroke="black" points="353,-362.5 353,-384.5 450,-384.5 450,-362.5 353,-362.5"/>
<text text-anchor="start" x="374.12" y="-368.2" font-family="Times New Roman,Times,Liberation Serif,serif" font-size="14.00">substation</text>
<polygon fill="none" stroke="black" points="450,-362.5 450,-384.5 634,-384.5 634,-362.5 450,-362.5"/>
<text text-anchor="start" x="452.75" y="-368.2" font-family="Times New Roman,Times,Liberation Serif,serif" font-size="14.00">Optional[DistributionSubstation]</text>
<polygon fill="none" stroke="black" points="353,-340.5 353,-362.5 450,-362.5 450,-340.5 353,-340.5"/>
<text text-anchor="start" x="384.62" y="-346.2" font-family="Times New Roman,Times,Liberation Serif,serif" font-size="14.00">feeder</text>
<polygon fill="none" stroke="black" points="450,-340.5 450,-362.5 634,-362.5 634,-340.5 450,-340.5"/>
<text text-anchor="start" x="462.88" y="-346.2" font-family="Times New Roman,Times,Liberation Serif,serif" font-size="14.00">Optional[DistributionFeeder]</text>
<polygon fill="none" stroke="black" points="353,-318.5 353,-340.5 450,-340.5 450,-318.5 353,-318.5"/>
<text text-anchor="start" x="366.62" y="-324.2" font-family="Times New Roman,Times,Liberation Serif,serif" font-size="14.00">voltage_type</text>
<polygon fill="none" stroke="black" points="450,-318.5 450,-340.5 634,-340.5 634,-318.5 450,-318.5"/>
<text text-anchor="start" x="505.25" y="-324.2" font-family="Times New Roman,Times,Liberation Serif,serif" font-size="14.00">VoltageTypes</text>
<polygon fill="none" stroke="black" points="353,-296.5 353,-318.5 450,-318.5 450,-296.5 353,-296.5"/>
<text text-anchor="start" x="383.5" y="-302.2" font-family="Times New Roman,Times,Liberation Serif,serif" font-size="14.00">phases</text>
<polygon fill="none" stroke="black" points="450,-296.5 450,-318.5 634,-318.5 634,-296.5 450,-296.5"/>
<text text-anchor="start" x="513.5" y="-302.2" font-family="Times New Roman,Times,Liberation Serif,serif" font-size="14.00">list[Phase]</text>
<polygon fill="none" stroke="black" points="353,-274.5 353,-296.5 450,-296.5 450,-274.5 353,-274.5"/>
<text text-anchor="start" x="365.88" y="-280.2" font-family="Times New Roman,Times,Liberation Serif,serif" font-size="14.00">voltagelimits</text>
<polygon fill="none" stroke="black" points="450,-274.5 450,-296.5 634,-296.5 634,-274.5 450,-274.5"/>
<text text-anchor="start" x="484.62" y="-280.2" font-family="Times New Roman,Times,Liberation Serif,serif" font-size="14.00">list[VoltageLimitSet]</text>
<polygon fill="none" stroke="black" points="353,-252.5 353,-274.5 450,-274.5 450,-252.5 353,-252.5"/>
<text text-anchor="start" x="355.75" y="-258.2" font-family="Times New Roman,Times,Liberation Serif,serif" font-size="14.00">rated_voltage</text>
<polygon fill="none" stroke="black" points="450,-252.5 450,-274.5 634,-274.5 634,-252.5 450,-252.5"/>
<text text-anchor="start" x="499.62" y="-258.2" font-family="Times New Roman,Times,Liberation Serif,serif" font-size="14.00">PositiveVoltage</text>
<polygon fill="none" stroke="black" points="353,-230.5 353,-252.5 450,-252.5 450,-230.5 353,-230.5"/>
<text text-anchor="start" x="373" y="-236.2" font-family="Times New Roman,Times,Liberation Serif,serif" font-size="14.00">coordinate</text>
<polygon fill="none" stroke="black" points="450,-230.5 450,-252.5 634,-252.5 634,-230.5 450,-230.5"/>
<text text-anchor="start" x="489.88" y="-236.2" font-family="Times New Roman,Times,Liberation Serif,serif" font-size="14.00">Optional[Location]</text>
</a>
</g>
</g>
<!-- gdm.distribution.components.distribution_feeder.DistributionFeeder -->
<g id="node2" class="node">
<title>gdm.distribution.components.distribution_feeder.DistributionFeeder</title>
<g id="a_node2"><a xlink:title="gdm.distribution.components.distribution_feeder.DistributionFeeder&#10;&#10;Class interface for distribution feeder.&#10;">
<polygon fill="none" stroke="black" points="1028,-373.5 1028,-395.5 1144,-395.5 1144,-373.5 1028,-373.5"/>
<text text-anchor="start" x="1030.88" y="-380.2" font-family="Times New Roman,Times,Liberation Serif,serif" font-weight="bold" font-size="14.00">DistributionFeeder</text>
<polygon fill="none" stroke="black" points="1028,-351.5 1028,-373.5 1084,-373.5 1084,-351.5 1028,-351.5"/>
<text text-anchor="start" x="1044" y="-357.2" font-family="Times New Roman,Times,Liberation Serif,serif" font-size="14.00">uuid</text>
<polygon fill="none" stroke="black" points="1084,-351.5 1084,-373.5 1144,-373.5 1144,-351.5 1084,-351.5"/>
<text text-anchor="start" x="1097.12" y="-357.2" font-family="Times New Roman,Times,Liberation Serif,serif" font-size="14.00">UUID</text>
<polygon fill="none" stroke="black" points="1028,-329.5 1028,-351.5 1084,-351.5 1084,-329.5 1028,-329.5"/>
<text text-anchor="start" x="1041" y="-335.2" font-family="Times New Roman,Times,Liberation Serif,serif" font-size="14.00">name</text>
<polygon fill="none" stroke="black" points="1084,-329.5 1084,-351.5 1144,-351.5 1144,-329.5 1084,-329.5"/>
<text text-anchor="start" x="1107.25" y="-335.2" font-family="Times New Roman,Times,Liberation Serif,serif" font-size="14.00">str</text>
</a>
</g>
</g>
<!-- gdm.distribution.components.distribution_bus.DistributionBus&#45;&gt;gdm.distribution.components.distribution_feeder.DistributionFeeder -->
<g id="edge1" class="edge">
<title>gdm.distribution.components.distribution_bus.DistributionBus:e&#45;&gt;gdm.distribution.components.distribution_feeder.DistributionFeeder:w</title>
<path fill="none" stroke="black" d="M643.9,-351.54C805.18,-352.7 852.17,-382.19 1009.33,-384.37"/>
<polyline fill="none" stroke="black" points="634,-351.5 639,-351.52"/>
<polyline fill="none" stroke="black" points="639,-351.52 644,-351.54"/>
<polyline fill="none" stroke="black" points="1028,-384.5 1023,-384.47"/>
<polygon fill="black" stroke="black" points="1022.03,-379.46 1021.97,-389.46 1019.97,-389.45 1020.03,-379.45 1022.03,-379.46"/>
<polyline fill="none" stroke="black" points="1023,-384.47 1018,-384.43"/>
<ellipse fill="none" stroke="black" cx="1013.5" cy="-384.4" rx="4" ry="4"/>
</g>
<!-- gdm.distribution.components.distribution_substation.DistributionSubstation -->
<g id="node3" class="node">
<title>gdm.distribution.components.distribution_substation.DistributionSubstation</title>
<g id="a_node3"><a xlink:title="gdm.distribution.components.distribution_substation.DistributionSubstation&#10;&#10;Class interface for distribution feeder.&#10;">
<polygon fill="none" stroke="black" points="742,-472.5 742,-494.5 920,-494.5 920,-472.5 742,-472.5"/>
<text text-anchor="start" x="765" y="-479.2" font-family="Times New Roman,Times,Liberation Serif,serif" font-weight="bold" font-size="14.00">DistributionSubstation</text>
<polygon fill="none" stroke="black" points="742,-450.5 742,-472.5 787,-472.5 787,-450.5 742,-450.5"/>
<text text-anchor="start" x="752.5" y="-456.2" font-family="Times New Roman,Times,Liberation Serif,serif" font-size="14.00">uuid</text>
<polygon fill="none" stroke="black" points="787,-450.5 787,-472.5 920,-472.5 920,-450.5 787,-450.5"/>
<text text-anchor="start" x="836.62" y="-456.2" font-family="Times New Roman,Times,Liberation Serif,serif" font-size="14.00">UUID</text>
<polygon fill="none" stroke="black" points="742,-428.5 742,-450.5 787,-450.5 787,-428.5 742,-428.5"/>
<text text-anchor="start" x="749.5" y="-434.2" font-family="Times New Roman,Times,Liberation Serif,serif" font-size="14.00">name</text>
<polygon fill="none" stroke="black" points="787,-428.5 787,-450.5 920,-450.5 920,-428.5 787,-428.5"/>
<text text-anchor="start" x="846.75" y="-434.2" font-family="Times New Roman,Times,Liberation Serif,serif" font-size="14.00">str</text>
<polygon fill="none" stroke="black" points="742,-406.5 742,-428.5 787,-428.5 787,-406.5 742,-406.5"/>
<text text-anchor="start" x="745" y="-412.2" font-family="Times New Roman,Times,Liberation Serif,serif" font-size="14.00">feeders</text>
<polygon fill="none" stroke="black" points="787,-406.5 787,-428.5 920,-428.5 920,-406.5 787,-406.5"/>
<text text-anchor="start" x="789.75" y="-412.2" font-family="Times New Roman,Times,Liberation Serif,serif" font-size="14.00">list[DistributionFeeder]</text>
</a>
</g>
</g>
<!-- gdm.distribution.components.distribution_bus.DistributionBus&#45;&gt;gdm.distribution.components.distribution_substation.DistributionSubstation -->
<g id="edge2" class="edge">
<title>gdm.distribution.components.distribution_bus.DistributionBus:e&#45;&gt;gdm.distribution.components.distribution_substation.DistributionSubstation:w</title>
<path fill="none" stroke="black" d="M643.71,-374.32C693.57,-383.27 681.07,-462.54 723.32,-480.07"/>
<polyline fill="none" stroke="black" points="634,-373.5 638.98,-373.92"/>
<polyline fill="none" stroke="black" points="638.98,-373.92 643.96,-374.34"/>
<polyline fill="none" stroke="black" points="742,-483.5 737.08,-482.6"/>
<polygon fill="black" stroke="black" points="737,-477.5 735.2,-487.34 733.23,-486.98 735.03,-477.14 737,-477.5"/>
<polyline fill="none" stroke="black" points="737.08,-482.6 732.16,-481.7"/>
<ellipse fill="none" stroke="black" cx="727.74" cy="-480.88" rx="4" ry="4"/>
</g>
<!-- gdm.distribution.limitset.VoltageLimitSet -->
<g id="node4" class="node">
<title>gdm.distribution.limitset.VoltageLimitSet</title>
<g id="a_node4"><a xlink:title="gdm.distribution.limitset.VoltageLimitSet&#10;&#10;Interface for voltage limit set.&#10;">
<polygon fill="none" stroke="black" points="755,-274.5 755,-296.5 907,-296.5 907,-274.5 755,-274.5"/>
<text text-anchor="start" x="783.75" y="-281.2" font-family="Times New Roman,Times,Liberation Serif,serif" font-weight="bold" font-size="14.00">VoltageLimitSet</text>
<polygon fill="none" stroke="black" points="755,-252.5 755,-274.5 817,-274.5 817,-252.5 755,-252.5"/>
<text text-anchor="start" x="774" y="-258.2" font-family="Times New Roman,Times,Liberation Serif,serif" font-size="14.00">uuid</text>
<polygon fill="none" stroke="black" points="817,-252.5 817,-274.5 907,-274.5 907,-252.5 817,-252.5"/>
<text text-anchor="start" x="845.12" y="-258.2" font-family="Times New Roman,Times,Liberation Serif,serif" font-size="14.00">UUID</text>
<polygon fill="none" stroke="black" points="755,-230.5 755,-252.5 817,-252.5 817,-230.5 755,-230.5"/>
<text text-anchor="start" x="771" y="-236.2" font-family="Times New Roman,Times,Liberation Serif,serif" font-size="14.00">name</text>
<polygon fill="none" stroke="black" points="817,-230.5 817,-252.5 907,-252.5 907,-230.5 817,-230.5"/>
<text text-anchor="start" x="855.25" y="-236.2" font-family="Times New Roman,Times,Liberation Serif,serif" font-size="14.00">str</text>
<polygon fill="none" stroke="black" points="755,-208.5 755,-230.5 817,-230.5 817,-208.5 755,-208.5"/>
<text text-anchor="start" x="757.88" y="-214.2" font-family="Times New Roman,Times,Liberation Serif,serif" font-size="14.00">limit_type</text>
<polygon fill="none" stroke="black" points="817,-208.5 817,-230.5 907,-230.5 907,-208.5 817,-208.5"/>
<text text-anchor="start" x="833.12" y="-214.2" font-family="Times New Roman,Times,Liberation Serif,serif" font-size="14.00">LimitType</text>
<polygon fill="none" stroke="black" points="755,-186.5 755,-208.5 817,-208.5 817,-186.5 755,-186.5"/>
<text text-anchor="start" x="771.38" y="-192.2" font-family="Times New Roman,Times,Liberation Serif,serif" font-size="14.00">value</text>
<polygon fill="none" stroke="black" points="817,-186.5 817,-208.5 907,-208.5 907,-186.5 817,-186.5"/>
<text text-anchor="start" x="819.62" y="-192.2" font-family="Times New Roman,Times,Liberation Serif,serif" font-size="14.00">PositiveVoltage</text>
</a>
</g>
</g>
<!-- gdm.distribution.components.distribution_bus.DistributionBus&#45;&gt;gdm.distribution.limitset.VoltageLimitSet -->
<g id="edge3" class="edge">
<title>gdm.distribution.components.distribution_bus.DistributionBus:e&#45;&gt;gdm.distribution.limitset.VoltageLimitSet:w</title>
<path fill="none" stroke="black" d="M643.84,-285.5C683.9,-285.5 700.2,-285.5 737.8,-285.5"/>
<polyline fill="none" stroke="black" points="634,-285.5 639,-285.5"/>
<polyline fill="none" stroke="black" points="639,-285.5 644,-285.5"/>
<polygon fill="black" stroke="black" points="743.67,-285.5 753.67,-290 749,-285.5 753.33,-285.5 753.33,-285.5 753.33,-285.5 749,-285.5 753.67,-281 743.67,-285.5"/>
<polyline fill="none" stroke="black" points="742.45,-285.5 737.45,-285.5"/>
</g>
<!-- infrasys.location.Location -->
<g id="node5" class="node">
<title>infrasys.location.Location</title>
<g id="a_node5"><a xlink:title="infrasys.location.Location&#10;&#10;Specifies geographic location.&#10;">
<polygon fill="none" stroke="black" points="783.5,-128.5 783.5,-150.5 878.5,-150.5 878.5,-128.5 783.5,-128.5"/>
<text text-anchor="start" x="805.5" y="-135.2" font-family="Times New Roman,Times,Liberation Serif,serif" font-weight="bold" font-size="14.00">Location</text>
<polygon fill="none" stroke="black" points="783.5,-106.5 783.5,-128.5 819.5,-128.5 819.5,-106.5 783.5,-106.5"/>
<text text-anchor="start" x="789.5" y="-112.2" font-family="Times New Roman,Times,Liberation Serif,serif" font-size="14.00">uuid</text>
<polygon fill="none" stroke="black" points="819.5,-106.5 819.5,-128.5 878.5,-128.5 878.5,-106.5 819.5,-106.5"/>
<text text-anchor="start" x="832.12" y="-112.2" font-family="Times New Roman,Times,Liberation Serif,serif" font-size="14.00">UUID</text>
<polygon fill="none" stroke="black" points="783.5,-84.5 783.5,-106.5 819.5,-106.5 819.5,-84.5 783.5,-84.5"/>
<text text-anchor="start" x="786.5" y="-90.2" font-family="Times New Roman,Times,Liberation Serif,serif" font-size="14.00">name</text>
<polygon fill="none" stroke="black" points="819.5,-84.5 819.5,-106.5 878.5,-106.5 878.5,-84.5 819.5,-84.5"/>
<text text-anchor="start" x="842.25" y="-90.2" font-family="Times New Roman,Times,Liberation Serif,serif" font-size="14.00">str</text>
<polygon fill="none" stroke="black" points="783.5,-62.5 783.5,-84.5 819.5,-84.5 819.5,-62.5 783.5,-62.5"/>
<text text-anchor="start" x="798.12" y="-68.2" font-family="Times New Roman,Times,Liberation Serif,serif" font-size="14.00">x</text>
<polygon fill="none" stroke="black" points="819.5,-62.5 819.5,-84.5 878.5,-84.5 878.5,-62.5 819.5,-62.5"/>
<text text-anchor="start" x="836.62" y="-68.2" font-family="Times New Roman,Times,Liberation Serif,serif" font-size="14.00">float</text>
<polygon fill="none" stroke="black" points="783.5,-40.5 783.5,-62.5 819.5,-62.5 819.5,-40.5 783.5,-40.5"/>
<text text-anchor="start" x="798.12" y="-46.2" font-family="Times New Roman,Times,Liberation Serif,serif" font-size="14.00">y</text>
<polygon fill="none" stroke="black" points="819.5,-40.5 819.5,-62.5 878.5,-62.5 878.5,-40.5 819.5,-40.5"/>
<text text-anchor="start" x="836.62" y="-46.2" font-family="Times New Roman,Times,Liberation Serif,serif" font-size="14.00">float</text>
<polygon fill="none" stroke="black" points="783.5,-18.5 783.5,-40.5 819.5,-40.5 819.5,-18.5 783.5,-18.5"/>
<text text-anchor="start" x="793.62" y="-24.2" font-family="Times New Roman,Times,Liberation Serif,serif" font-size="14.00">crs</text>
<polygon fill="none" stroke="black" points="819.5,-18.5 819.5,-40.5 878.5,-40.5 878.5,-18.5 819.5,-18.5"/>
<text text-anchor="start" x="822.38" y="-24.2" font-family="Times New Roman,Times,Liberation Serif,serif" font-size="14.00">str | None</text>
</a>
</g>
</g>
<!-- gdm.distribution.components.distribution_bus.DistributionBus&#45;&gt;infrasys.location.Location -->
<g id="edge4" class="edge">
<title>gdm.distribution.components.distribution_bus.DistributionBus:e&#45;&gt;infrasys.location.Location:w</title>
<path fill="none" stroke="black" d="M643.8,-240.95C706.82,-233.64 706.27,-155.6 763.31,-141.63"/>
<polyline fill="none" stroke="black" points="634,-241.5 638.99,-241.22"/>
<polyline fill="none" stroke="black" points="638.99,-241.22 643.98,-240.94"/>
<polyline fill="none" stroke="black" points="782,-139.5 777.03,-140.07"/>
<polygon fill="black" stroke="black" points="775.47,-135.21 776.61,-145.15 774.62,-145.37 773.48,-135.44 775.47,-135.21"/>
<polyline fill="none" stroke="black" points="777.03,-140.07 772.06,-140.63"/>
<ellipse fill="none" stroke="black" cx="767.59" cy="-141.14" rx="4" ry="4"/>
</g>
<!-- gdm.distribution.components.distribution_substation.DistributionSubstation&#45;&gt;gdm.distribution.components.distribution_feeder.DistributionFeeder -->
<g id="edge5" class="edge">
<title>gdm.distribution.components.distribution_substation.DistributionSubstation:e&#45;&gt;gdm.distribution.components.distribution_feeder.DistributionFeeder:w</title>
<path fill="none" stroke="black" d="M929.99,-417.03C966.12,-413.54 978.27,-391.45 1011.64,-385.81"/>
<polyline fill="none" stroke="black" points="920,-417.5 924.99,-417.27"/>
<polyline fill="none" stroke="black" points="924.99,-417.27 929.99,-417.03"/>
<polygon fill="black" stroke="black" points="1017.7,-385.32 1028.03,-389.01 1023.02,-384.9 1027.33,-384.55 1027.33,-384.55 1027.33,-384.55 1023.02,-384.9 1027.31,-380.04 1017.7,-385.32"/>
<polyline fill="none" stroke="black" points="1016.48,-385.42 1011.5,-385.82"/>
</g>
<!-- gdm.distribution.controllers.distribution_regulator_controller.RegulatorController -->
<g id="node6" class="node">
<title>gdm.distribution.controllers.distribution_regulator_controller.RegulatorController</title>
<g id="a_node6"><a xlink:title="gdm.distribution.controllers.distribution_regulator_controller.RegulatorController&#10;&#10;Interface for a Regulator Controller.&#10;">
<polygon fill="none" stroke="black" points="0,-758.5 0,-780.5 245,-780.5 245,-758.5 0,-758.5"/>
<text text-anchor="start" x="63.25" y="-765.2" font-family="Times New Roman,Times,Liberation Serif,serif" font-weight="bold" font-size="14.00">RegulatorController</text>
<polygon fill="none" stroke="black" points="0,-736.5 0,-758.5 98,-758.5 98,-736.5 0,-736.5"/>
<text text-anchor="start" x="37" y="-742.2" font-family="Times New Roman,Times,Liberation Serif,serif" font-size="14.00">uuid</text>
<polygon fill="none" stroke="black" points="98,-736.5 98,-758.5 245,-758.5 245,-736.5 98,-736.5"/>
<text text-anchor="start" x="154.62" y="-742.2" font-family="Times New Roman,Times,Liberation Serif,serif" font-size="14.00">UUID</text>
<polygon fill="none" stroke="black" points="0,-714.5 0,-736.5 98,-736.5 98,-714.5 0,-714.5"/>
<text text-anchor="start" x="34" y="-720.2" font-family="Times New Roman,Times,Liberation Serif,serif" font-size="14.00">name</text>
<polygon fill="none" stroke="black" points="98,-714.5 98,-736.5 245,-736.5 245,-714.5 98,-714.5"/>
<text text-anchor="start" x="164.75" y="-720.2" font-family="Times New Roman,Times,Liberation Serif,serif" font-size="14.00">str</text>
<polygon fill="none" stroke="black" points="0,-692.5 0,-714.5 98,-714.5 98,-692.5 0,-692.5"/>
<text text-anchor="start" x="34.38" y="-698.2" font-family="Times New Roman,Times,Liberation Serif,serif" font-size="14.00">delay</text>
<polygon fill="none" stroke="black" points="98,-692.5 98,-714.5 245,-714.5 245,-692.5 98,-692.5"/>
<text text-anchor="start" x="128.75" y="-698.2" font-family="Times New Roman,Times,Liberation Serif,serif" font-size="14.00">Optional[Time]</text>
<polygon fill="none" stroke="black" points="0,-670.5 0,-692.5 98,-692.5 98,-670.5 0,-670.5"/>
<text text-anchor="start" x="20.88" y="-676.2" font-family="Times New Roman,Times,Liberation Serif,serif" font-size="14.00">v_setpoint</text>
<polygon fill="none" stroke="black" points="98,-670.5 98,-692.5 245,-692.5 245,-670.5 98,-670.5"/>
<text text-anchor="start" x="129.12" y="-676.2" font-family="Times New Roman,Times,Liberation Serif,serif" font-size="14.00">PositiveVoltage</text>
<polygon fill="none" stroke="black" points="0,-648.5 0,-670.5 98,-670.5 98,-648.5 0,-648.5"/>
<text text-anchor="start" x="14.88" y="-654.2" font-family="Times New Roman,Times,Liberation Serif,serif" font-size="14.00">min_v_limit</text>
<polygon fill="none" stroke="black" points="98,-648.5 98,-670.5 245,-670.5 245,-648.5 98,-648.5"/>
<text text-anchor="start" x="129.12" y="-654.2" font-family="Times New Roman,Times,Liberation Serif,serif" font-size="14.00">PositiveVoltage</text>
<polygon fill="none" stroke="black" points="0,-626.5 0,-648.5 98,-648.5 98,-626.5 0,-626.5"/>
<text text-anchor="start" x="13.75" y="-632.2" font-family="Times New Roman,Times,Liberation Serif,serif" font-size="14.00">max_v_limit</text>
<polygon fill="none" stroke="black" points="98,-626.5 98,-648.5 245,-648.5 245,-626.5 98,-626.5"/>
<text text-anchor="start" x="129.12" y="-632.2" font-family="Times New Roman,Times,Liberation Serif,serif" font-size="14.00">PositiveVoltage</text>
<polygon fill="none" stroke="black" points="0,-604.5 0,-626.5 98,-626.5 98,-604.5 0,-604.5"/>
<text text-anchor="start" x="28" y="-610.2" font-family="Times New Roman,Times,Liberation Serif,serif" font-size="14.00">pt_ratio</text>
<polygon fill="none" stroke="black" points="98,-604.5 98,-626.5 245,-626.5 245,-604.5 98,-604.5"/>
<text text-anchor="start" x="159.12" y="-610.2" font-family="Times New Roman,Times,Liberation Serif,serif" font-size="14.00">float</text>
<polygon fill="none" stroke="black" points="0,-582.5 0,-604.5 98,-604.5 98,-582.5 0,-582.5"/>
<text text-anchor="start" x="28.38" y="-588.2" font-family="Times New Roman,Times,Liberation Serif,serif" font-size="14.00">use_ldc</text>
<polygon fill="none" stroke="black" points="98,-582.5 98,-604.5 245,-604.5 245,-582.5 98,-582.5"/>
<text text-anchor="start" x="159.5" y="-588.2" font-family="Times New Roman,Times,Liberation Serif,serif" font-size="14.00">bool</text>
<polygon fill="none" stroke="black" points="0,-560.5 0,-582.5 98,-582.5 98,-560.5 0,-560.5"/>
<text text-anchor="start" x="14.5" y="-566.2" font-family="Times New Roman,Times,Liberation Serif,serif" font-size="14.00">is_reversible</text>
<polygon fill="none" stroke="black" points="98,-560.5 98,-582.5 245,-582.5 245,-560.5 98,-560.5"/>
<text text-anchor="start" x="159.5" y="-566.2" font-family="Times New Roman,Times,Liberation Serif,serif" font-size="14.00">bool</text>
<polygon fill="none" stroke="black" points="0,-538.5 0,-560.5 98,-560.5 98,-538.5 0,-538.5"/>
<text text-anchor="start" x="32.88" y="-544.2" font-family="Times New Roman,Times,Liberation Serif,serif" font-size="14.00">ldc_R</text>
<polygon fill="none" stroke="black" points="98,-538.5 98,-560.5 245,-560.5 245,-538.5 98,-538.5"/>
<text text-anchor="start" x="101" y="-544.2" font-family="Times New Roman,Times,Liberation Serif,serif" font-size="14.00">Optional[PositiveVoltage]</text>
<polygon fill="none" stroke="black" points="0,-516.5 0,-538.5 98,-538.5 98,-516.5 0,-516.5"/>
<text text-anchor="start" x="32.5" y="-522.2" font-family="Times New Roman,Times,Liberation Serif,serif" font-size="14.00">ldc_X</text>
<polygon fill="none" stroke="black" points="98,-516.5 98,-538.5 245,-538.5 245,-516.5 98,-516.5"/>
<text text-anchor="start" x="101" y="-522.2" font-family="Times New Roman,Times,Liberation Serif,serif" font-size="14.00">Optional[PositiveVoltage]</text>
<polygon fill="none" stroke="black" points="0,-494.5 0,-516.5 98,-516.5 98,-494.5 0,-494.5"/>
<text text-anchor="start" x="19" y="-500.2" font-family="Times New Roman,Times,Liberation Serif,serif" font-size="14.00">ct_primary</text>
<polygon fill="none" stroke="black" points="98,-494.5 98,-516.5 245,-516.5 245,-494.5 98,-494.5"/>
<text text-anchor="start" x="101" y="-500.2" font-family="Times New Roman,Times,Liberation Serif,serif" font-size="14.00">Optional[PositiveCurrent]</text>
<polygon fill="none" stroke="black" points="0,-472.5 0,-494.5 98,-494.5 98,-472.5 0,-472.5"/>
<text text-anchor="start" x="22.75" y="-478.2" font-family="Times New Roman,Times,Liberation Serif,serif" font-size="14.00">max_step</text>
<polygon fill="none" stroke="black" points="98,-472.5 98,-494.5 245,-494.5 245,-472.5 98,-472.5"/>
<text text-anchor="start" x="164.38" y="-478.2" font-family="Times New Roman,Times,Liberation Serif,serif" font-size="14.00">int</text>
<polygon fill="none" stroke="black" points="0,-450.5 0,-472.5 98,-472.5 98,-450.5 0,-450.5"/>
<text text-anchor="start" x="20.5" y="-456.2" font-family="Times New Roman,Times,Liberation Serif,serif" font-size="14.00">bandwidth</text>
<polygon fill="none" stroke="black" points="98,-450.5 98,-472.5 245,-472.5 245,-450.5 98,-450.5"/>
<text text-anchor="start" x="129.12" y="-456.2" font-family="Times New Roman,Times,Liberation Serif,serif" font-size="14.00">PositiveVoltage</text>
<polygon fill="none" stroke="black" points="0,-428.5 0,-450.5 98,-450.5 98,-428.5 0,-428.5"/>
<text text-anchor="start" x="8.88" y="-434.2" font-family="Times New Roman,Times,Liberation Serif,serif" font-size="14.00">controlled_bus</text>
<polygon fill="none" stroke="black" points="98,-428.5 98,-450.5 245,-450.5 245,-428.5 98,-428.5"/>
<text text-anchor="start" x="128.38" y="-434.2" font-family="Times New Roman,Times,Liberation Serif,serif" font-size="14.00">DistributionBus</text>
<polygon fill="none" stroke="black" points="0,-406.5 0,-428.5 98,-428.5 98,-406.5 0,-406.5"/>
<text text-anchor="start" x="2.88" y="-412.2" font-family="Times New Roman,Times,Liberation Serif,serif" font-size="14.00">controlled_phase</text>
<polygon fill="none" stroke="black" points="98,-406.5 98,-428.5 245,-428.5 245,-406.5 98,-406.5"/>
<text text-anchor="start" x="155.75" y="-412.2" font-family="Times New Roman,Times,Liberation Serif,serif" font-size="14.00">Phase</text>
</a>
</g>
</g>
<!-- gdm.distribution.controllers.distribution_regulator_controller.RegulatorController&#45;&gt;gdm.distribution.components.distribution_bus.DistributionBus -->
<g id="edge6" class="edge">
<title>gdm.distribution.controllers.distribution_regulator_controller.RegulatorController:e&#45;&gt;gdm.distribution.components.distribution_bus.DistributionBus:w</title>
<path fill="none" stroke="black" d="M254.87,-439.5C290.07,-439.5 304.8,-439.5 338.08,-439.5"/>
<polyline fill="none" stroke="black" points="245,-439.5 250,-439.5"/>
<polyline fill="none" stroke="black" points="250,-439.5 255,-439.5"/>
<polyline fill="none" stroke="black" points="353,-439.5 348,-439.5"/>
<polygon fill="black" stroke="black" points="347,-434.5 347,-444.5 345,-444.5 345,-434.5 347,-434.5"/>
<polyline fill="none" stroke="black" points="348,-439.5 343,-439.5"/>
<polygon fill="black" stroke="black" points="342,-434.5 342,-444.5 340,-444.5 340,-434.5 342,-434.5"/>
<polyline fill="none" stroke="black" points="343,-439.5 338,-439.5"/>
</g>
</g>
</svg>
