<?xml version="1.0" encoding="UTF-8" standalone="no"?>
<!DOCTYPE svg PUBLIC "-//W3C//DTD SVG 1.1//EN"
 "http://www.w3.org/Graphics/SVG/1.1/DTD/svg11.dtd">
<!-- Generated by graphviz version 12.2.1 (20241206.2353)
 -->
<!-- Title: Entity Relationship Diagram created by erdantic Pages: 1 -->
<svg width="1136pt" height="803pt"
 viewBox="0.00 0.00 1136.00 803.25" xmlns="http://www.w3.org/2000/svg" xmlns:xlink="http://www.w3.org/1999/xlink">
<g id="graph0" class="graph" transform="scale(1 1) rotate(0) translate(4 799.25)">
<title>Entity Relationship Diagram created by erdantic</title>
<polygon fill="white" stroke="none" points="-4,4 -4,-799.25 1132,-799.25 1132,4 -4,4"/>
<text text-anchor="middle" x="564" y="-5.95" font-family="Times New Roman,Times,Liberation Serif,serif" font-size="9.00" fill="#a8a8a8">Created by erdantic v1.0.5 &lt;https://github.com/drivendataorg/erdantic&gt;</text>
<!-- gdm.distribution.common.limitset.VoltageLimitSet -->
<g id="node1" class="node">
<title>gdm.distribution.common.limitset.VoltageLimitSet</title>
<g id="a_node1"><a xlink:title="gdm.distribution.common.limitset.VoltageLimitSet&#10;&#10;Interface for voltage limit set.&#10;">
<polygon fill="none" stroke="black" points="738,-279.75 738,-302.25 891,-302.25 891,-279.75 738,-279.75"/>
<text text-anchor="start" x="767.25" y="-286.95" font-family="Times New Roman,Times,Liberation Serif,serif" font-weight="bold" font-size="14.00">VoltageLimitSet</text>
<polygon fill="none" stroke="black" points="738,-257.25 738,-279.75 800.25,-279.75 800.25,-257.25 738,-257.25"/>
<text text-anchor="start" x="757.12" y="-263.45" font-family="Times New Roman,Times,Liberation Serif,serif" font-size="14.00">uuid</text>
<polygon fill="none" stroke="black" points="800.25,-257.25 800.25,-279.75 891,-279.75 891,-257.25 800.25,-257.25"/>
<text text-anchor="start" x="828.75" y="-263.45" font-family="Times New Roman,Times,Liberation Serif,serif" font-size="14.00">UUID</text>
<polygon fill="none" stroke="black" points="738,-234.75 738,-257.25 800.25,-257.25 800.25,-234.75 738,-234.75"/>
<text text-anchor="start" x="754.12" y="-240.95" font-family="Times New Roman,Times,Liberation Serif,serif" font-size="14.00">name</text>
<polygon fill="none" stroke="black" points="800.25,-234.75 800.25,-257.25 891,-257.25 891,-234.75 800.25,-234.75"/>
<text text-anchor="start" x="838.88" y="-240.95" font-family="Times New Roman,Times,Liberation Serif,serif" font-size="14.00">str</text>
<polygon fill="none" stroke="black" points="738,-212.25 738,-234.75 800.25,-234.75 800.25,-212.25 738,-212.25"/>
<text text-anchor="start" x="741" y="-218.45" font-family="Times New Roman,Times,Liberation Serif,serif" font-size="14.00">limit_type</text>
<polygon fill="none" stroke="black" points="800.25,-212.25 800.25,-234.75 891,-234.75 891,-212.25 800.25,-212.25"/>
<text text-anchor="start" x="816.38" y="-218.45" font-family="Times New Roman,Times,Liberation Serif,serif" font-size="14.00">LimitType</text>
<polygon fill="none" stroke="black" points="738,-189.75 738,-212.25 800.25,-212.25 800.25,-189.75 738,-189.75"/>
<text text-anchor="start" x="754.5" y="-195.95" font-family="Times New Roman,Times,Liberation Serif,serif" font-size="14.00">value</text>
<polygon fill="none" stroke="black" points="800.25,-189.75 800.25,-212.25 891,-212.25 891,-189.75 800.25,-189.75"/>
<text text-anchor="start" x="803.25" y="-195.95" font-family="Times New Roman,Times,Liberation Serif,serif" font-size="14.00">PositiveVoltage</text>
</a>
</g>
</g>
<!-- gdm.distribution.components.distribution_bus.DistributionBus -->
<g id="node2" class="node">
<title>gdm.distribution.components.distribution_bus.DistributionBus</title>
<g id="a_node2"><a xlink:title="gdm.distribution.components.distribution_bus.DistributionBus&#10;&#10;Interface for distribution bus.&#10;&#10;Examples:&#10; &#160;&#160;&#160;&gt;&gt;&gt; from gdm import DistributionBus&#10; &#160;&#160;&#160;&gt;&gt;&gt; DistributionBus.example()&#10;">
<polygon fill="none" stroke="black" points="353.25,-436 353.25,-458.5 617.25,-458.5 617.25,-436 353.25,-436"/>
<text text-anchor="start" x="439.12" y="-443.2" font-family="Times New Roman,Times,Liberation Serif,serif" font-weight="bold" font-size="14.00">DistributionBus</text>
<polygon fill="none" stroke="black" points="353.25,-413.5 353.25,-436 432.75,-436 432.75,-413.5 353.25,-413.5"/>
<text text-anchor="start" x="381" y="-419.7" font-family="Times New Roman,Times,Liberation Serif,serif" font-size="14.00">uuid</text>
<polygon fill="none" stroke="black" points="432.75,-413.5 432.75,-436 617.25,-436 617.25,-413.5 432.75,-413.5"/>
<text text-anchor="start" x="508.12" y="-419.7" font-family="Times New Roman,Times,Liberation Serif,serif" font-size="14.00">UUID</text>
<polygon fill="none" stroke="black" points="353.25,-391 353.25,-413.5 432.75,-413.5 432.75,-391 353.25,-391"/>
<text text-anchor="start" x="378" y="-397.2" font-family="Times New Roman,Times,Liberation Serif,serif" font-size="14.00">name</text>
<polygon fill="none" stroke="black" points="432.75,-391 432.75,-413.5 617.25,-413.5 617.25,-391 432.75,-391"/>
<text text-anchor="start" x="518.25" y="-397.2" font-family="Times New Roman,Times,Liberation Serif,serif" font-size="14.00">str</text>
<polygon fill="none" stroke="black" points="353.25,-368.5 353.25,-391 432.75,-391 432.75,-368.5 353.25,-368.5"/>
<text text-anchor="start" x="365.62" y="-374.7" font-family="Times New Roman,Times,Liberation Serif,serif" font-size="14.00">substation</text>
<polygon fill="none" stroke="black" points="432.75,-368.5 432.75,-391 617.25,-391 617.25,-368.5 432.75,-368.5"/>
<text text-anchor="start" x="435.75" y="-374.7" font-family="Times New Roman,Times,Liberation Serif,serif" font-size="14.00">Optional[DistributionSubstation]</text>
<polygon fill="none" stroke="black" points="353.25,-346 353.25,-368.5 432.75,-368.5 432.75,-346 353.25,-346"/>
<text text-anchor="start" x="376.12" y="-352.2" font-family="Times New Roman,Times,Liberation Serif,serif" font-size="14.00">feeder</text>
<polygon fill="none" stroke="black" points="432.75,-346 432.75,-368.5 617.25,-368.5 617.25,-346 432.75,-346"/>
<text text-anchor="start" x="445.88" y="-352.2" font-family="Times New Roman,Times,Liberation Serif,serif" font-size="14.00">Optional[DistributionFeeder]</text>
<polygon fill="none" stroke="black" points="353.25,-323.5 353.25,-346 432.75,-346 432.75,-323.5 353.25,-323.5"/>
<text text-anchor="start" x="358.12" y="-329.7" font-family="Times New Roman,Times,Liberation Serif,serif" font-size="14.00">voltage_type</text>
<polygon fill="none" stroke="black" points="432.75,-323.5 432.75,-346 617.25,-346 617.25,-323.5 432.75,-323.5"/>
<text text-anchor="start" x="487.88" y="-329.7" font-family="Times New Roman,Times,Liberation Serif,serif" font-size="14.00">VoltageTypes</text>
<polygon fill="none" stroke="black" points="353.25,-301 353.25,-323.5 432.75,-323.5 432.75,-301 353.25,-301"/>
<text text-anchor="start" x="375" y="-307.2" font-family="Times New Roman,Times,Liberation Serif,serif" font-size="14.00">phases</text>
<polygon fill="none" stroke="black" points="432.75,-301 432.75,-323.5 617.25,-323.5 617.25,-301 432.75,-301"/>
<text text-anchor="start" x="496.5" y="-307.2" font-family="Times New Roman,Times,Liberation Serif,serif" font-size="14.00">list[Phase]</text>
<polygon fill="none" stroke="black" points="353.25,-278.5 353.25,-301 432.75,-301 432.75,-278.5 353.25,-278.5"/>
<text text-anchor="start" x="357.38" y="-284.7" font-family="Times New Roman,Times,Liberation Serif,serif" font-size="14.00">voltagelimits</text>
<polygon fill="none" stroke="black" points="432.75,-278.5 432.75,-301 617.25,-301 617.25,-278.5 432.75,-278.5"/>
<text text-anchor="start" x="467.62" y="-284.7" font-family="Times New Roman,Times,Liberation Serif,serif" font-size="14.00">list[VoltageLimitSet]</text>
<polygon fill="none" stroke="black" points="353.25,-256 353.25,-278.5 432.75,-278.5 432.75,-256 353.25,-256"/>
<text text-anchor="start" x="356.25" y="-262.2" font-family="Times New Roman,Times,Liberation Serif,serif" font-size="14.00">rated_voltage</text>
<polygon fill="none" stroke="black" points="432.75,-256 432.75,-278.5 617.25,-278.5 617.25,-256 432.75,-256"/>
<text text-anchor="start" x="482.62" y="-262.2" font-family="Times New Roman,Times,Liberation Serif,serif" font-size="14.00">PositiveVoltage</text>
<polygon fill="none" stroke="black" points="353.25,-233.5 353.25,-256 432.75,-256 432.75,-233.5 353.25,-233.5"/>
<text text-anchor="start" x="364.5" y="-239.7" font-family="Times New Roman,Times,Liberation Serif,serif" font-size="14.00">coordinate</text>
<polygon fill="none" stroke="black" points="432.75,-233.5 432.75,-256 617.25,-256 617.25,-233.5 432.75,-233.5"/>
<text text-anchor="start" x="472.88" y="-239.7" font-family="Times New Roman,Times,Liberation Serif,serif" font-size="14.00">Optional[Location]</text>
</a>
</g>
</g>
<!-- gdm.distribution.components.distribution_bus.DistributionBus&#45;&gt;gdm.distribution.common.limitset.VoltageLimitSet -->
<g id="edge1" class="edge">
<title>gdm.distribution.components.distribution_bus.DistributionBus:e&#45;&gt;gdm.distribution.common.limitset.VoltageLimitSet:w</title>
<path fill="none" stroke="black" d="M627.07,-289.76C667.4,-289.89 683.59,-290.77 721.83,-290.96"/>
<polyline fill="none" stroke="black" points="617.25,-289.75 622.25,-289.76"/>
<polyline fill="none" stroke="black" points="622.25,-289.76 627.25,-289.77"/>
<polygon fill="black" stroke="black" points="726.67,-290.98 736.65,-295.5 732,-290.99 736.33,-291 736.33,-291 736.33,-291 732,-290.99 736.68,-286.5 726.67,-290.98"/>
<polyline fill="none" stroke="black" points="725.45,-290.97 720.45,-290.96"/>
</g>
<!-- gdm.distribution.components.distribution_feeder.DistributionFeeder -->
<g id="node3" class="node">
<title>gdm.distribution.components.distribution_feeder.DistributionFeeder</title>
<g id="a_node3"><a xlink:title="gdm.distribution.components.distribution_feeder.DistributionFeeder&#10;&#10;Class interface for distribution feeder.&#10;">
<polygon fill="none" stroke="black" points="1011.75,-379.25 1011.75,-401.75 1128,-401.75 1128,-379.25 1011.75,-379.25"/>
<text text-anchor="start" x="1014.75" y="-386.45" font-family="Times New Roman,Times,Liberation Serif,serif" font-weight="bold" font-size="14.00">DistributionFeeder</text>
<polygon fill="none" stroke="black" points="1011.75,-356.75 1011.75,-379.25 1068,-379.25 1068,-356.75 1011.75,-356.75"/>
<text text-anchor="start" x="1027.88" y="-362.95" font-family="Times New Roman,Times,Liberation Serif,serif" font-size="14.00">uuid</text>
<polygon fill="none" stroke="black" points="1068,-356.75 1068,-379.25 1128,-379.25 1128,-356.75 1068,-356.75"/>
<text text-anchor="start" x="1081.12" y="-362.95" font-family="Times New Roman,Times,Liberation Serif,serif" font-size="14.00">UUID</text>
<polygon fill="none" stroke="black" points="1011.75,-334.25 1011.75,-356.75 1068,-356.75 1068,-334.25 1011.75,-334.25"/>
<text text-anchor="start" x="1024.88" y="-340.45" font-family="Times New Roman,Times,Liberation Serif,serif" font-size="14.00">name</text>
<polygon fill="none" stroke="black" points="1068,-334.25 1068,-356.75 1128,-356.75 1128,-334.25 1068,-334.25"/>
<text text-anchor="start" x="1091.25" y="-340.45" font-family="Times New Roman,Times,Liberation Serif,serif" font-size="14.00">str</text>
</a>
</g>
</g>
<!-- gdm.distribution.components.distribution_bus.DistributionBus&#45;&gt;gdm.distribution.components.distribution_feeder.DistributionFeeder -->
<g id="edge2" class="edge">
<title>gdm.distribution.components.distribution_bus.DistributionBus:e&#45;&gt;gdm.distribution.components.distribution_feeder.DistributionFeeder:w</title>
<path fill="none" stroke="black" d="M627.16,-357.29C788.65,-358.46 835.69,-388.17 993.05,-390.37"/>
<polyline fill="none" stroke="black" points="617.25,-357.25 622.25,-357.27"/>
<polyline fill="none" stroke="black" points="622.25,-357.27 627.25,-357.29"/>
<polyline fill="none" stroke="black" points="1011.75,-390.5 1006.75,-390.47"/>
<polygon fill="black" stroke="black" points="1005.78,-385.46 1005.72,-395.46 1003.72,-395.44 1003.78,-385.44 1005.78,-385.46"/>
<polyline fill="none" stroke="black" points="1006.75,-390.47 1001.75,-390.43"/>
<ellipse fill="none" stroke="black" cx="997.25" cy="-390.4" rx="4" ry="4"/>
</g>
<!-- gdm.distribution.components.distribution_substation.DistributionSubstation -->
<g id="node4" class="node">
<title>gdm.distribution.components.distribution_substation.DistributionSubstation</title>
<g id="a_node4"><a xlink:title="gdm.distribution.components.distribution_substation.DistributionSubstation&#10;&#10;Class interface for distribution feeder.&#10;">
<polygon fill="none" stroke="black" points="725.25,-479.5 725.25,-502 903.75,-502 903.75,-479.5 725.25,-479.5"/>
<text text-anchor="start" x="748.5" y="-486.7" font-family="Times New Roman,Times,Liberation Serif,serif" font-weight="bold" font-size="14.00">DistributionSubstation</text>
<polygon fill="none" stroke="black" points="725.25,-457 725.25,-479.5 770.25,-479.5 770.25,-457 725.25,-457"/>
<text text-anchor="start" x="735.75" y="-463.2" font-family="Times New Roman,Times,Liberation Serif,serif" font-size="14.00">uuid</text>
<polygon fill="none" stroke="black" points="770.25,-457 770.25,-479.5 903.75,-479.5 903.75,-457 770.25,-457"/>
<text text-anchor="start" x="820.12" y="-463.2" font-family="Times New Roman,Times,Liberation Serif,serif" font-size="14.00">UUID</text>
<polygon fill="none" stroke="black" points="725.25,-434.5 725.25,-457 770.25,-457 770.25,-434.5 725.25,-434.5"/>
<text text-anchor="start" x="732.75" y="-440.7" font-family="Times New Roman,Times,Liberation Serif,serif" font-size="14.00">name</text>
<polygon fill="none" stroke="black" points="770.25,-434.5 770.25,-457 903.75,-457 903.75,-434.5 770.25,-434.5"/>
<text text-anchor="start" x="830.25" y="-440.7" font-family="Times New Roman,Times,Liberation Serif,serif" font-size="14.00">str</text>
<polygon fill="none" stroke="black" points="725.25,-412 725.25,-434.5 770.25,-434.5 770.25,-412 725.25,-412"/>
<text text-anchor="start" x="728.25" y="-418.2" font-family="Times New Roman,Times,Liberation Serif,serif" font-size="14.00">feeders</text>
<polygon fill="none" stroke="black" points="770.25,-412 770.25,-434.5 903.75,-434.5 903.75,-412 770.25,-412"/>
<text text-anchor="start" x="773.25" y="-418.2" font-family="Times New Roman,Times,Liberation Serif,serif" font-size="14.00">list[DistributionFeeder]</text>
</a>
</g>
</g>
<!-- gdm.distribution.components.distribution_bus.DistributionBus&#45;&gt;gdm.distribution.components.distribution_substation.DistributionSubstation -->
<g id="edge3" class="edge">
<title>gdm.distribution.components.distribution_bus.DistributionBus:e&#45;&gt;gdm.distribution.components.distribution_substation.DistributionSubstation:w</title>
<path fill="none" stroke="black" d="M627,-380.58C677.16,-389.63 664.08,-469.95 706.78,-487.41"/>
<polyline fill="none" stroke="black" points="617.25,-379.75 622.23,-380.17"/>
<polyline fill="none" stroke="black" points="622.23,-380.17 627.21,-380.6"/>
<polyline fill="none" stroke="black" points="725.25,-490.75 720.33,-489.86"/>
<polygon fill="black" stroke="black" points="720.24,-484.76 718.46,-494.6 716.49,-494.25 718.27,-484.41 720.24,-484.76"/>
<polyline fill="none" stroke="black" points="720.33,-489.86 715.41,-488.97"/>
<ellipse fill="none" stroke="black" cx="710.98" cy="-488.17" rx="4" ry="4"/>
</g>
<!-- infrasys.location.Location -->
<g id="node5" class="node">
<title>infrasys.location.Location</title>
<g id="a_node5"><a xlink:title="infrasys.location.Location&#10;&#10;Specifies geographic location.&#10;">
<polygon fill="none" stroke="black" points="766.88,-131 766.88,-153.5 862.12,-153.5 862.12,-131 766.88,-131"/>
<text text-anchor="start" x="789" y="-138.2" font-family="Times New Roman,Times,Liberation Serif,serif" font-weight="bold" font-size="14.00">Location</text>
<polygon fill="none" stroke="black" points="766.88,-108.5 766.88,-131 802.88,-131 802.88,-108.5 766.88,-108.5"/>
<text text-anchor="start" x="772.88" y="-114.7" font-family="Times New Roman,Times,Liberation Serif,serif" font-size="14.00">uuid</text>
<polygon fill="none" stroke="black" points="802.88,-108.5 802.88,-131 862.12,-131 862.12,-108.5 802.88,-108.5"/>
<text text-anchor="start" x="815.62" y="-114.7" font-family="Times New Roman,Times,Liberation Serif,serif" font-size="14.00">UUID</text>
<polygon fill="none" stroke="black" points="766.88,-86 766.88,-108.5 802.88,-108.5 802.88,-86 766.88,-86"/>
<text text-anchor="start" x="769.88" y="-92.2" font-family="Times New Roman,Times,Liberation Serif,serif" font-size="14.00">name</text>
<polygon fill="none" stroke="black" points="802.88,-86 802.88,-108.5 862.12,-108.5 862.12,-86 802.88,-86"/>
<text text-anchor="start" x="825.75" y="-92.2" font-family="Times New Roman,Times,Liberation Serif,serif" font-size="14.00">str</text>
<polygon fill="none" stroke="black" points="766.88,-63.5 766.88,-86 802.88,-86 802.88,-63.5 766.88,-63.5"/>
<text text-anchor="start" x="781.5" y="-69.7" font-family="Times New Roman,Times,Liberation Serif,serif" font-size="14.00">x</text>
<polygon fill="none" stroke="black" points="802.88,-63.5 802.88,-86 862.12,-86 862.12,-63.5 802.88,-63.5"/>
<text text-anchor="start" x="820.12" y="-69.7" font-family="Times New Roman,Times,Liberation Serif,serif" font-size="14.00">float</text>
<polygon fill="none" stroke="black" points="766.88,-41 766.88,-63.5 802.88,-63.5 802.88,-41 766.88,-41"/>
<text text-anchor="start" x="781.5" y="-47.2" font-family="Times New Roman,Times,Liberation Serif,serif" font-size="14.00">y</text>
<polygon fill="none" stroke="black" points="802.88,-41 802.88,-63.5 862.12,-63.5 862.12,-41 802.88,-41"/>
<text text-anchor="start" x="820.12" y="-47.2" font-family="Times New Roman,Times,Liberation Serif,serif" font-size="14.00">float</text>
<polygon fill="none" stroke="black" points="766.88,-18.5 766.88,-41 802.88,-41 802.88,-18.5 766.88,-18.5"/>
<text text-anchor="start" x="777" y="-24.7" font-family="Times New Roman,Times,Liberation Serif,serif" font-size="14.00">crs</text>
<polygon fill="none" stroke="black" points="802.88,-18.5 802.88,-41 862.12,-41 862.12,-18.5 802.88,-18.5"/>
<text text-anchor="start" x="805.88" y="-24.7" font-family="Times New Roman,Times,Liberation Serif,serif" font-size="14.00">str | None</text>
</a>
</g>
</g>
<!-- gdm.distribution.components.distribution_bus.DistributionBus&#45;&gt;infrasys.location.Location -->
<g id="edge4" class="edge">
<title>gdm.distribution.components.distribution_bus.DistributionBus:e&#45;&gt;infrasys.location.Location:w</title>
<path fill="none" stroke="black" d="M627.1,-244.2C690.39,-236.86 689.82,-158.43 747.1,-144.39"/>
<polyline fill="none" stroke="black" points="617.25,-244.75 622.24,-244.47"/>
<polyline fill="none" stroke="black" points="622.24,-244.47 627.23,-244.19"/>
<polyline fill="none" stroke="black" points="765.88,-142.25 760.91,-142.82"/>
<polygon fill="black" stroke="black" points="759.35,-137.96 760.48,-147.9 758.49,-148.13 757.36,-138.19 759.35,-137.96"/>
<polyline fill="none" stroke="black" points="760.91,-142.82 755.94,-143.38"/>
<ellipse fill="none" stroke="black" cx="751.47" cy="-143.89" rx="4" ry="4"/>
</g>
<!-- gdm.distribution.components.distribution_substation.DistributionSubstation&#45;&gt;gdm.distribution.components.distribution_feeder.DistributionFeeder -->
<g id="edge5" class="edge">
<title>gdm.distribution.components.distribution_substation.DistributionSubstation:e&#45;&gt;gdm.distribution.components.distribution_feeder.DistributionFeeder:w</title>
<path fill="none" stroke="black" d="M913.73,-422.79C950.34,-419.27 962.36,-396.8 996.76,-391.58"/>
<polyline fill="none" stroke="black" points="903.75,-423.25 908.74,-423.02"/>
<polyline fill="none" stroke="black" points="908.74,-423.02 913.74,-422.79"/>
<polygon fill="black" stroke="black" points="1001.44,-391.24 1011.74,-395.01 1006.76,-390.86 1011.08,-390.55 1011.08,-390.55 1011.08,-390.55 1006.76,-390.86 1011.09,-386.04 1001.44,-391.24"/>
<polyline fill="none" stroke="black" points="1000.23,-391.33 995.24,-391.69"/>
</g>
<!-- gdm.distribution.controllers.distribution_regulator_controller.RegulatorController -->
<g id="node6" class="node">
<title>gdm.distribution.controllers.distribution_regulator_controller.RegulatorController</title>
<g id="a_node6"><a xlink:title="gdm.distribution.controllers.distribution_regulator_controller.RegulatorController&#10;&#10;Interface for a Regulator Controller.&#10;">
<polygon fill="none" stroke="black" points="0,-772.75 0,-795.25 245.25,-795.25 245.25,-772.75 0,-772.75"/>
<text text-anchor="start" x="63.38" y="-779.95" font-family="Times New Roman,Times,Liberation Serif,serif" font-weight="bold" font-size="14.00">RegulatorController</text>
<polygon fill="none" stroke="black" points="0,-750.25 0,-772.75 98.25,-772.75 98.25,-750.25 0,-750.25"/>
<text text-anchor="start" x="37.12" y="-756.45" font-family="Times New Roman,Times,Liberation Serif,serif" font-size="14.00">uuid</text>
<polygon fill="none" stroke="black" points="98.25,-750.25 98.25,-772.75 245.25,-772.75 245.25,-750.25 98.25,-750.25"/>
<text text-anchor="start" x="154.88" y="-756.45" font-family="Times New Roman,Times,Liberation Serif,serif" font-size="14.00">UUID</text>
<polygon fill="none" stroke="black" points="0,-727.75 0,-750.25 98.25,-750.25 98.25,-727.75 0,-727.75"/>
<text text-anchor="start" x="34.12" y="-733.95" font-family="Times New Roman,Times,Liberation Serif,serif" font-size="14.00">name</text>
<polygon fill="none" stroke="black" points="98.25,-727.75 98.25,-750.25 245.25,-750.25 245.25,-727.75 98.25,-727.75"/>
<text text-anchor="start" x="165" y="-733.95" font-family="Times New Roman,Times,Liberation Serif,serif" font-size="14.00">str</text>
<polygon fill="none" stroke="black" points="0,-705.25 0,-727.75 98.25,-727.75 98.25,-705.25 0,-705.25"/>
<text text-anchor="start" x="34.5" y="-711.45" font-family="Times New Roman,Times,Liberation Serif,serif" font-size="14.00">delay</text>
<polygon fill="none" stroke="black" points="98.25,-705.25 98.25,-727.75 245.25,-727.75 245.25,-705.25 98.25,-705.25"/>
<text text-anchor="start" x="129" y="-711.45" font-family="Times New Roman,Times,Liberation Serif,serif" font-size="14.00">Optional[Time]</text>
<polygon fill="none" stroke="black" points="0,-682.75 0,-705.25 98.25,-705.25 98.25,-682.75 0,-682.75"/>
<text text-anchor="start" x="21" y="-688.95" font-family="Times New Roman,Times,Liberation Serif,serif" font-size="14.00">v_setpoint</text>
<polygon fill="none" stroke="black" points="98.25,-682.75 98.25,-705.25 245.25,-705.25 245.25,-682.75 98.25,-682.75"/>
<text text-anchor="start" x="129.38" y="-688.95" font-family="Times New Roman,Times,Liberation Serif,serif" font-size="14.00">PositiveVoltage</text>
<polygon fill="none" stroke="black" points="0,-660.25 0,-682.75 98.25,-682.75 98.25,-660.25 0,-660.25"/>
<text text-anchor="start" x="15" y="-666.45" font-family="Times New Roman,Times,Liberation Serif,serif" font-size="14.00">min_v_limit</text>
<polygon fill="none" stroke="black" points="98.25,-660.25 98.25,-682.75 245.25,-682.75 245.25,-660.25 98.25,-660.25"/>
<text text-anchor="start" x="129.38" y="-666.45" font-family="Times New Roman,Times,Liberation Serif,serif" font-size="14.00">PositiveVoltage</text>
<polygon fill="none" stroke="black" points="0,-637.75 0,-660.25 98.25,-660.25 98.25,-637.75 0,-637.75"/>
<text text-anchor="start" x="13.88" y="-643.95" font-family="Times New Roman,Times,Liberation Serif,serif" font-size="14.00">max_v_limit</text>
<polygon fill="none" stroke="black" points="98.25,-637.75 98.25,-660.25 245.25,-660.25 245.25,-637.75 98.25,-637.75"/>
<text text-anchor="start" x="129.38" y="-643.95" font-family="Times New Roman,Times,Liberation Serif,serif" font-size="14.00">PositiveVoltage</text>
<polygon fill="none" stroke="black" points="0,-615.25 0,-637.75 98.25,-637.75 98.25,-615.25 0,-615.25"/>
<text text-anchor="start" x="28.12" y="-621.45" font-family="Times New Roman,Times,Liberation Serif,serif" font-size="14.00">pt_ratio</text>
<polygon fill="none" stroke="black" points="98.25,-615.25 98.25,-637.75 245.25,-637.75 245.25,-615.25 98.25,-615.25"/>
<text text-anchor="start" x="159.38" y="-621.45" font-family="Times New Roman,Times,Liberation Serif,serif" font-size="14.00">float</text>
<polygon fill="none" stroke="black" points="0,-592.75 0,-615.25 98.25,-615.25 98.25,-592.75 0,-592.75"/>
<text text-anchor="start" x="28.5" y="-598.95" font-family="Times New Roman,Times,Liberation Serif,serif" font-size="14.00">use_ldc</text>
<polygon fill="none" stroke="black" points="98.25,-592.75 98.25,-615.25 245.25,-615.25 245.25,-592.75 98.25,-592.75"/>
<text text-anchor="start" x="159.75" y="-598.95" font-family="Times New Roman,Times,Liberation Serif,serif" font-size="14.00">bool</text>
<polygon fill="none" stroke="black" points="0,-570.25 0,-592.75 98.25,-592.75 98.25,-570.25 0,-570.25"/>
<text text-anchor="start" x="14.62" y="-576.45" font-family="Times New Roman,Times,Liberation Serif,serif" font-size="14.00">is_reversible</text>
<polygon fill="none" stroke="black" points="98.25,-570.25 98.25,-592.75 245.25,-592.75 245.25,-570.25 98.25,-570.25"/>
<text text-anchor="start" x="159.75" y="-576.45" font-family="Times New Roman,Times,Liberation Serif,serif" font-size="14.00">bool</text>
<polygon fill="none" stroke="black" points="0,-547.75 0,-570.25 98.25,-570.25 98.25,-547.75 0,-547.75"/>
<text text-anchor="start" x="33" y="-553.95" font-family="Times New Roman,Times,Liberation Serif,serif" font-size="14.00">ldc_R</text>
<polygon fill="none" stroke="black" points="98.25,-547.75 98.25,-570.25 245.25,-570.25 245.25,-547.75 98.25,-547.75"/>
<text text-anchor="start" x="101.25" y="-553.95" font-family="Times New Roman,Times,Liberation Serif,serif" font-size="14.00">Optional[PositiveVoltage]</text>
<polygon fill="none" stroke="black" points="0,-525.25 0,-547.75 98.25,-547.75 98.25,-525.25 0,-525.25"/>
<text text-anchor="start" x="32.62" y="-531.45" font-family="Times New Roman,Times,Liberation Serif,serif" font-size="14.00">ldc_X</text>
<polygon fill="none" stroke="black" points="98.25,-525.25 98.25,-547.75 245.25,-547.75 245.25,-525.25 98.25,-525.25"/>
<text text-anchor="start" x="101.25" y="-531.45" font-family="Times New Roman,Times,Liberation Serif,serif" font-size="14.00">Optional[PositiveVoltage]</text>
<polygon fill="none" stroke="black" points="0,-502.75 0,-525.25 98.25,-525.25 98.25,-502.75 0,-502.75"/>
<text text-anchor="start" x="19.12" y="-508.95" font-family="Times New Roman,Times,Liberation Serif,serif" font-size="14.00">ct_primary</text>
<polygon fill="none" stroke="black" points="98.25,-502.75 98.25,-525.25 245.25,-525.25 245.25,-502.75 98.25,-502.75"/>
<text text-anchor="start" x="101.25" y="-508.95" font-family="Times New Roman,Times,Liberation Serif,serif" font-size="14.00">Optional[PositiveCurrent]</text>
<polygon fill="none" stroke="black" points="0,-480.25 0,-502.75 98.25,-502.75 98.25,-480.25 0,-480.25"/>
<text text-anchor="start" x="22.88" y="-486.45" font-family="Times New Roman,Times,Liberation Serif,serif" font-size="14.00">max_step</text>
<polygon fill="none" stroke="black" points="98.25,-480.25 98.25,-502.75 245.25,-502.75 245.25,-480.25 98.25,-480.25"/>
<text text-anchor="start" x="164.62" y="-486.45" font-family="Times New Roman,Times,Liberation Serif,serif" font-size="14.00">int</text>
<polygon fill="none" stroke="black" points="0,-457.75 0,-480.25 98.25,-480.25 98.25,-457.75 0,-457.75"/>
<text text-anchor="start" x="20.62" y="-463.95" font-family="Times New Roman,Times,Liberation Serif,serif" font-size="14.00">bandwidth</text>
<polygon fill="none" stroke="black" points="98.25,-457.75 98.25,-480.25 245.25,-480.25 245.25,-457.75 98.25,-457.75"/>
<text text-anchor="start" x="129.38" y="-463.95" font-family="Times New Roman,Times,Liberation Serif,serif" font-size="14.00">PositiveVoltage</text>
<polygon fill="none" stroke="black" points="0,-435.25 0,-457.75 98.25,-457.75 98.25,-435.25 0,-435.25"/>
<text text-anchor="start" x="9" y="-441.45" font-family="Times New Roman,Times,Liberation Serif,serif" font-size="14.00">controlled_bus</text>
<polygon fill="none" stroke="black" points="98.25,-435.25 98.25,-457.75 245.25,-457.75 245.25,-435.25 98.25,-435.25"/>
<text text-anchor="start" x="128.62" y="-441.45" font-family="Times New Roman,Times,Liberation Serif,serif" font-size="14.00">DistributionBus</text>
<polygon fill="none" stroke="black" points="0,-412.75 0,-435.25 98.25,-435.25 98.25,-412.75 0,-412.75"/>
<text text-anchor="start" x="3" y="-418.95" font-family="Times New Roman,Times,Liberation Serif,serif" font-size="14.00">controlled_phase</text>
<polygon fill="none" stroke="black" points="98.25,-412.75 98.25,-435.25 245.25,-435.25 245.25,-412.75 98.25,-412.75"/>
<text text-anchor="start" x="156" y="-418.95" font-family="Times New Roman,Times,Liberation Serif,serif" font-size="14.00">Phase</text>
</a>
</g>
</g>
<!-- gdm.distribution.controllers.distribution_regulator_controller.RegulatorController&#45;&gt;gdm.distribution.components.distribution_bus.DistributionBus -->
<g id="edge6" class="edge">
<title>gdm.distribution.controllers.distribution_regulator_controller.RegulatorController:e&#45;&gt;gdm.distribution.components.distribution_bus.DistributionBus:w</title>
<path fill="none" stroke="black" d="M255.12,-446.51C290.32,-446.59 305.05,-447.1 338.33,-447.22"/>
<polyline fill="none" stroke="black" points="245.25,-446.5 250.25,-446.51"/>
<polyline fill="none" stroke="black" points="250.25,-446.51 255.25,-446.51"/>
<polyline fill="none" stroke="black" points="353.25,-447.25 348.25,-447.24"/>
<polygon fill="black" stroke="black" points="347.26,-442.24 347.24,-452.24 345.24,-452.24 345.26,-442.24 347.26,-442.24"/>
<polyline fill="none" stroke="black" points="348.25,-447.24 343.25,-447.23"/>
<polygon fill="black" stroke="black" points="342.26,-442.23 342.24,-452.23 340.24,-452.23 340.26,-442.23 342.26,-442.23"/>
<polyline fill="none" stroke="black" points="343.25,-447.23 338.25,-447.22"/>
</g>
</g>
</svg>
