<?xml version="1.0" encoding="UTF-8" standalone="no"?>
<!DOCTYPE svg PUBLIC "-//W3C//DTD SVG 1.1//EN"
 "http://www.w3.org/Graphics/SVG/1.1/DTD/svg11.dtd">
<!-- Generated by graphviz version 12.2.1 (20241206.2353)
 -->
<!-- Title: Entity Relationship Diagram created by erdantic Pages: 1 -->
<svg width="1171pt" height="713pt"
 viewBox="0.00 0.00 1171.25 713.00" xmlns="http://www.w3.org/2000/svg" xmlns:xlink="http://www.w3.org/1999/xlink">
<g id="graph0" class="graph" transform="scale(1 1) rotate(0) translate(4 709)">
<title>Entity Relationship Diagram created by erdantic</title>
<polygon fill="white" stroke="none" points="-4,4 -4,-709 1167.25,-709 1167.25,4 -4,4"/>
<text text-anchor="middle" x="581.62" y="-5.95" font-family="Times New Roman,Times,Liberation Serif,serif" font-size="9.00" fill="#a8a8a8">Created by erdantic v1.0.5 &lt;https://github.com/drivendataorg/erdantic&gt;</text>
<!-- gdm.distribution.common.limitset.VoltageLimitSet -->
<g id="node1" class="node">
<title>gdm.distribution.common.limitset.VoltageLimitSet</title>
<g id="a_node1"><a xlink:title="gdm.distribution.common.limitset.VoltageLimitSet&#10;&#10;Data model for voltage limit set.&#10;">
<polygon fill="none" stroke="black" points="773.25,-345.75 773.25,-368.25 926.25,-368.25 926.25,-345.75 773.25,-345.75"/>
<text text-anchor="start" x="802.5" y="-352.95" font-family="Times New Roman,Times,Liberation Serif,serif" font-weight="bold" font-size="14.00">VoltageLimitSet</text>
<polygon fill="none" stroke="black" points="773.25,-323.25 773.25,-345.75 835.5,-345.75 835.5,-323.25 773.25,-323.25"/>
<text text-anchor="start" x="792.38" y="-329.45" font-family="Times New Roman,Times,Liberation Serif,serif" font-size="14.00">uuid</text>
<polygon fill="none" stroke="black" points="835.5,-323.25 835.5,-345.75 926.25,-345.75 926.25,-323.25 835.5,-323.25"/>
<text text-anchor="start" x="864" y="-329.45" font-family="Times New Roman,Times,Liberation Serif,serif" font-size="14.00">UUID</text>
<polygon fill="none" stroke="black" points="773.25,-300.75 773.25,-323.25 835.5,-323.25 835.5,-300.75 773.25,-300.75"/>
<text text-anchor="start" x="789.38" y="-306.95" font-family="Times New Roman,Times,Liberation Serif,serif" font-size="14.00">name</text>
<polygon fill="none" stroke="black" points="835.5,-300.75 835.5,-323.25 926.25,-323.25 926.25,-300.75 835.5,-300.75"/>
<text text-anchor="start" x="874.12" y="-306.95" font-family="Times New Roman,Times,Liberation Serif,serif" font-size="14.00">str</text>
<polygon fill="none" stroke="black" points="773.25,-278.25 773.25,-300.75 835.5,-300.75 835.5,-278.25 773.25,-278.25"/>
<text text-anchor="start" x="776.25" y="-284.45" font-family="Times New Roman,Times,Liberation Serif,serif" font-size="14.00">limit_type</text>
<polygon fill="none" stroke="black" points="835.5,-278.25 835.5,-300.75 926.25,-300.75 926.25,-278.25 835.5,-278.25"/>
<text text-anchor="start" x="851.62" y="-284.45" font-family="Times New Roman,Times,Liberation Serif,serif" font-size="14.00">LimitType</text>
<polygon fill="none" stroke="black" points="773.25,-255.75 773.25,-278.25 835.5,-278.25 835.5,-255.75 773.25,-255.75"/>
<text text-anchor="start" x="789.75" y="-261.95" font-family="Times New Roman,Times,Liberation Serif,serif" font-size="14.00">value</text>
<polygon fill="none" stroke="black" points="835.5,-255.75 835.5,-278.25 926.25,-278.25 926.25,-255.75 835.5,-255.75"/>
<text text-anchor="start" x="838.5" y="-261.95" font-family="Times New Roman,Times,Liberation Serif,serif" font-size="14.00">PositiveVoltage</text>
</a>
</g>
</g>
<!-- gdm.distribution.components.distribution_bus.DistributionBus -->
<g id="node2" class="node">
<title>gdm.distribution.components.distribution_bus.DistributionBus</title>
<g id="a_node2"><a xlink:title="gdm.distribution.components.distribution_bus.DistributionBus&#10;&#10;Data model for distribution bus.&#10;&#10;Examples:&#10; &#160;&#160;&#160;&gt;&gt;&gt; from gdm import DistributionBus&#10; &#160;&#160;&#160;&gt;&gt;&gt; DistributionBus.example()&#10;">
<polygon fill="none" stroke="black" points="388.5,-482 388.5,-504.5 652.5,-504.5 652.5,-482 388.5,-482"/>
<text text-anchor="start" x="474.38" y="-489.2" font-family="Times New Roman,Times,Liberation Serif,serif" font-weight="bold" font-size="14.00">DistributionBus</text>
<polygon fill="none" stroke="black" points="388.5,-459.5 388.5,-482 468,-482 468,-459.5 388.5,-459.5"/>
<text text-anchor="start" x="416.25" y="-465.7" font-family="Times New Roman,Times,Liberation Serif,serif" font-size="14.00">uuid</text>
<polygon fill="none" stroke="black" points="468,-459.5 468,-482 652.5,-482 652.5,-459.5 468,-459.5"/>
<text text-anchor="start" x="543.38" y="-465.7" font-family="Times New Roman,Times,Liberation Serif,serif" font-size="14.00">UUID</text>
<polygon fill="none" stroke="black" points="388.5,-437 388.5,-459.5 468,-459.5 468,-437 388.5,-437"/>
<text text-anchor="start" x="413.25" y="-443.2" font-family="Times New Roman,Times,Liberation Serif,serif" font-size="14.00">name</text>
<polygon fill="none" stroke="black" points="468,-437 468,-459.5 652.5,-459.5 652.5,-437 468,-437"/>
<text text-anchor="start" x="553.5" y="-443.2" font-family="Times New Roman,Times,Liberation Serif,serif" font-size="14.00">str</text>
<polygon fill="none" stroke="black" points="388.5,-414.5 388.5,-437 468,-437 468,-414.5 388.5,-414.5"/>
<text text-anchor="start" x="400.88" y="-420.7" font-family="Times New Roman,Times,Liberation Serif,serif" font-size="14.00">substation</text>
<polygon fill="none" stroke="black" points="468,-414.5 468,-437 652.5,-437 652.5,-414.5 468,-414.5"/>
<text text-anchor="start" x="471" y="-420.7" font-family="Times New Roman,Times,Liberation Serif,serif" font-size="14.00">Optional[DistributionSubstation]</text>
<polygon fill="none" stroke="black" points="388.5,-392 388.5,-414.5 468,-414.5 468,-392 388.5,-392"/>
<text text-anchor="start" x="411.38" y="-398.2" font-family="Times New Roman,Times,Liberation Serif,serif" font-size="14.00">feeder</text>
<polygon fill="none" stroke="black" points="468,-392 468,-414.5 652.5,-414.5 652.5,-392 468,-392"/>
<text text-anchor="start" x="481.12" y="-398.2" font-family="Times New Roman,Times,Liberation Serif,serif" font-size="14.00">Optional[DistributionFeeder]</text>
<polygon fill="none" stroke="black" points="388.5,-369.5 388.5,-392 468,-392 468,-369.5 388.5,-369.5"/>
<text text-anchor="start" x="393.38" y="-375.7" font-family="Times New Roman,Times,Liberation Serif,serif" font-size="14.00">voltage_type</text>
<polygon fill="none" stroke="black" points="468,-369.5 468,-392 652.5,-392 652.5,-369.5 468,-369.5"/>
<text text-anchor="start" x="523.12" y="-375.7" font-family="Times New Roman,Times,Liberation Serif,serif" font-size="14.00">VoltageTypes</text>
<polygon fill="none" stroke="black" points="388.5,-347 388.5,-369.5 468,-369.5 468,-347 388.5,-347"/>
<text text-anchor="start" x="410.25" y="-353.2" font-family="Times New Roman,Times,Liberation Serif,serif" font-size="14.00">phases</text>
<polygon fill="none" stroke="black" points="468,-347 468,-369.5 652.5,-369.5 652.5,-347 468,-347"/>
<text text-anchor="start" x="531.75" y="-353.2" font-family="Times New Roman,Times,Liberation Serif,serif" font-size="14.00">list[Phase]</text>
<polygon fill="none" stroke="black" points="388.5,-324.5 388.5,-347 468,-347 468,-324.5 388.5,-324.5"/>
<text text-anchor="start" x="392.62" y="-330.7" font-family="Times New Roman,Times,Liberation Serif,serif" font-size="14.00">voltagelimits</text>
<polygon fill="none" stroke="black" points="468,-324.5 468,-347 652.5,-347 652.5,-324.5 468,-324.5"/>
<text text-anchor="start" x="502.88" y="-330.7" font-family="Times New Roman,Times,Liberation Serif,serif" font-size="14.00">list[VoltageLimitSet]</text>
<polygon fill="none" stroke="black" points="388.5,-302 388.5,-324.5 468,-324.5 468,-302 388.5,-302"/>
<text text-anchor="start" x="391.5" y="-308.2" font-family="Times New Roman,Times,Liberation Serif,serif" font-size="14.00">rated_voltage</text>
<polygon fill="none" stroke="black" points="468,-302 468,-324.5 652.5,-324.5 652.5,-302 468,-302"/>
<text text-anchor="start" x="517.88" y="-308.2" font-family="Times New Roman,Times,Liberation Serif,serif" font-size="14.00">PositiveVoltage</text>
<polygon fill="none" stroke="black" points="388.5,-279.5 388.5,-302 468,-302 468,-279.5 388.5,-279.5"/>
<text text-anchor="start" x="399.75" y="-285.7" font-family="Times New Roman,Times,Liberation Serif,serif" font-size="14.00">coordinate</text>
<polygon fill="none" stroke="black" points="468,-279.5 468,-302 652.5,-302 652.5,-279.5 468,-279.5"/>
<text text-anchor="start" x="508.12" y="-285.7" font-family="Times New Roman,Times,Liberation Serif,serif" font-size="14.00">Optional[Location]</text>
</a>
</g>
</g>
<!-- gdm.distribution.components.distribution_bus.DistributionBus&#45;&gt;gdm.distribution.common.limitset.VoltageLimitSet -->
<g id="edge1" class="edge">
<title>gdm.distribution.components.distribution_bus.DistributionBus:e&#45;&gt;gdm.distribution.common.limitset.VoltageLimitSet:w</title>
<path fill="none" stroke="black" d="M662.45,-336C703.22,-338.14 718.35,-353.13 756.9,-356.38"/>
<polyline fill="none" stroke="black" points="652.5,-335.75 657.5,-335.88"/>
<polyline fill="none" stroke="black" points="657.5,-335.88 662.5,-336"/>
<polygon fill="black" stroke="black" points="761.92,-356.58 771.73,-361.48 767.25,-356.8 771.58,-356.97 771.58,-356.97 771.58,-356.97 767.25,-356.8 772.1,-352.49 761.92,-356.58"/>
<polyline fill="none" stroke="black" points="760.71,-356.53 755.71,-356.33"/>
</g>
<!-- gdm.distribution.components.distribution_feeder.DistributionFeeder -->
<g id="node3" class="node">
<title>gdm.distribution.components.distribution_feeder.DistributionFeeder</title>
<g id="a_node3"><a xlink:title="gdm.distribution.components.distribution_feeder.DistributionFeeder&#10;&#10;Class interface for distribution feeder.&#10;">
<polygon fill="none" stroke="black" points="1047,-549.25 1047,-571.75 1163.25,-571.75 1163.25,-549.25 1047,-549.25"/>
<text text-anchor="start" x="1050" y="-556.45" font-family="Times New Roman,Times,Liberation Serif,serif" font-weight="bold" font-size="14.00">DistributionFeeder</text>
<polygon fill="none" stroke="black" points="1047,-526.75 1047,-549.25 1103.25,-549.25 1103.25,-526.75 1047,-526.75"/>
<text text-anchor="start" x="1063.12" y="-532.95" font-family="Times New Roman,Times,Liberation Serif,serif" font-size="14.00">uuid</text>
<polygon fill="none" stroke="black" points="1103.25,-526.75 1103.25,-549.25 1163.25,-549.25 1163.25,-526.75 1103.25,-526.75"/>
<text text-anchor="start" x="1116.38" y="-532.95" font-family="Times New Roman,Times,Liberation Serif,serif" font-size="14.00">UUID</text>
<polygon fill="none" stroke="black" points="1047,-504.25 1047,-526.75 1103.25,-526.75 1103.25,-504.25 1047,-504.25"/>
<text text-anchor="start" x="1060.12" y="-510.45" font-family="Times New Roman,Times,Liberation Serif,serif" font-size="14.00">name</text>
<polygon fill="none" stroke="black" points="1103.25,-504.25 1103.25,-526.75 1163.25,-526.75 1163.25,-504.25 1103.25,-504.25"/>
<text text-anchor="start" x="1126.5" y="-510.45" font-family="Times New Roman,Times,Liberation Serif,serif" font-size="14.00">str</text>
</a>
</g>
</g>
<!-- gdm.distribution.components.distribution_bus.DistributionBus&#45;&gt;gdm.distribution.components.distribution_feeder.DistributionFeeder -->
<g id="edge2" class="edge">
<title>gdm.distribution.components.distribution_bus.DistributionBus:e&#45;&gt;gdm.distribution.components.distribution_feeder.DistributionFeeder:w</title>
<path fill="none" stroke="black" d="M662.26,-403.76C754.09,-412.89 930.98,-542.12 1028.11,-558.74"/>
<polyline fill="none" stroke="black" points="652.5,-403.25 657.49,-403.51"/>
<polyline fill="none" stroke="black" points="657.49,-403.51 662.49,-403.77"/>
<polyline fill="none" stroke="black" points="1047,-560.5 1042.02,-560.04"/>
<polygon fill="black" stroke="black" points="1041.49,-554.97 1040.56,-564.92 1038.57,-564.74 1039.5,-554.78 1041.49,-554.97"/>
<polyline fill="none" stroke="black" points="1042.02,-560.04 1037.04,-559.57"/>
<ellipse fill="none" stroke="black" cx="1032.56" cy="-559.16" rx="4" ry="4"/>
</g>
<!-- gdm.distribution.components.distribution_substation.DistributionSubstation -->
<g id="node4" class="node">
<title>gdm.distribution.components.distribution_substation.DistributionSubstation</title>
<g id="a_node4"><a xlink:title="gdm.distribution.components.distribution_substation.DistributionSubstation&#10;&#10;Class interface for distribution feeder.&#10;">
<polygon fill="none" stroke="black" points="760.5,-682.5 760.5,-705 939,-705 939,-682.5 760.5,-682.5"/>
<text text-anchor="start" x="783.75" y="-689.7" font-family="Times New Roman,Times,Liberation Serif,serif" font-weight="bold" font-size="14.00">DistributionSubstation</text>
<polygon fill="none" stroke="black" points="760.5,-660 760.5,-682.5 805.5,-682.5 805.5,-660 760.5,-660"/>
<text text-anchor="start" x="771" y="-666.2" font-family="Times New Roman,Times,Liberation Serif,serif" font-size="14.00">uuid</text>
<polygon fill="none" stroke="black" points="805.5,-660 805.5,-682.5 939,-682.5 939,-660 805.5,-660"/>
<text text-anchor="start" x="855.38" y="-666.2" font-family="Times New Roman,Times,Liberation Serif,serif" font-size="14.00">UUID</text>
<polygon fill="none" stroke="black" points="760.5,-637.5 760.5,-660 805.5,-660 805.5,-637.5 760.5,-637.5"/>
<text text-anchor="start" x="768" y="-643.7" font-family="Times New Roman,Times,Liberation Serif,serif" font-size="14.00">name</text>
<polygon fill="none" stroke="black" points="805.5,-637.5 805.5,-660 939,-660 939,-637.5 805.5,-637.5"/>
<text text-anchor="start" x="865.5" y="-643.7" font-family="Times New Roman,Times,Liberation Serif,serif" font-size="14.00">str</text>
<polygon fill="none" stroke="black" points="760.5,-615 760.5,-637.5 805.5,-637.5 805.5,-615 760.5,-615"/>
<text text-anchor="start" x="763.5" y="-621.2" font-family="Times New Roman,Times,Liberation Serif,serif" font-size="14.00">feeders</text>
<polygon fill="none" stroke="black" points="805.5,-615 805.5,-637.5 939,-637.5 939,-615 805.5,-615"/>
<text text-anchor="start" x="808.5" y="-621.2" font-family="Times New Roman,Times,Liberation Serif,serif" font-size="14.00">list[DistributionFeeder]</text>
</a>
</g>
</g>
<!-- gdm.distribution.components.distribution_bus.DistributionBus&#45;&gt;gdm.distribution.components.distribution_substation.DistributionSubstation -->
<g id="edge3" class="edge">
<title>gdm.distribution.components.distribution_bus.DistributionBus:e&#45;&gt;gdm.distribution.components.distribution_substation.DistributionSubstation:w</title>
<path fill="none" stroke="black" d="M662.42,-426.34C766.72,-439.42 650.36,-665.8 741.71,-691.4"/>
<polyline fill="none" stroke="black" points="652.5,-425.75 657.49,-426.05"/>
<polyline fill="none" stroke="black" points="657.49,-426.05 662.48,-426.34"/>
<polyline fill="none" stroke="black" points="760.5,-693.75 755.54,-693.13"/>
<polygon fill="black" stroke="black" points="755.17,-688.04 753.93,-697.97 751.94,-697.72 753.18,-687.8 755.17,-688.04"/>
<polyline fill="none" stroke="black" points="755.54,-693.13 750.58,-692.51"/>
<ellipse fill="none" stroke="black" cx="746.11" cy="-691.95" rx="4" ry="4"/>
</g>
<!-- infrasys.location.Location -->
<g id="node5" class="node">
<title>infrasys.location.Location</title>
<g id="a_node5"><a xlink:title="infrasys.location.Location&#10;&#10;Specifies geographic location.&#10;">
<polygon fill="none" stroke="black" points="802.12,-197 802.12,-219.5 897.38,-219.5 897.38,-197 802.12,-197"/>
<text text-anchor="start" x="824.25" y="-204.2" font-family="Times New Roman,Times,Liberation Serif,serif" font-weight="bold" font-size="14.00">Location</text>
<polygon fill="none" stroke="black" points="802.12,-174.5 802.12,-197 838.12,-197 838.12,-174.5 802.12,-174.5"/>
<text text-anchor="start" x="808.12" y="-180.7" font-family="Times New Roman,Times,Liberation Serif,serif" font-size="14.00">uuid</text>
<polygon fill="none" stroke="black" points="838.12,-174.5 838.12,-197 897.38,-197 897.38,-174.5 838.12,-174.5"/>
<text text-anchor="start" x="850.88" y="-180.7" font-family="Times New Roman,Times,Liberation Serif,serif" font-size="14.00">UUID</text>
<polygon fill="none" stroke="black" points="802.12,-152 802.12,-174.5 838.12,-174.5 838.12,-152 802.12,-152"/>
<text text-anchor="start" x="805.12" y="-158.2" font-family="Times New Roman,Times,Liberation Serif,serif" font-size="14.00">name</text>
<polygon fill="none" stroke="black" points="838.12,-152 838.12,-174.5 897.38,-174.5 897.38,-152 838.12,-152"/>
<text text-anchor="start" x="861" y="-158.2" font-family="Times New Roman,Times,Liberation Serif,serif" font-size="14.00">str</text>
<polygon fill="none" stroke="black" points="802.12,-129.5 802.12,-152 838.12,-152 838.12,-129.5 802.12,-129.5"/>
<text text-anchor="start" x="816.75" y="-135.7" font-family="Times New Roman,Times,Liberation Serif,serif" font-size="14.00">x</text>
<polygon fill="none" stroke="black" points="838.12,-129.5 838.12,-152 897.38,-152 897.38,-129.5 838.12,-129.5"/>
<text text-anchor="start" x="855.38" y="-135.7" font-family="Times New Roman,Times,Liberation Serif,serif" font-size="14.00">float</text>
<polygon fill="none" stroke="black" points="802.12,-107 802.12,-129.5 838.12,-129.5 838.12,-107 802.12,-107"/>
<text text-anchor="start" x="816.75" y="-113.2" font-family="Times New Roman,Times,Liberation Serif,serif" font-size="14.00">y</text>
<polygon fill="none" stroke="black" points="838.12,-107 838.12,-129.5 897.38,-129.5 897.38,-107 838.12,-107"/>
<text text-anchor="start" x="855.38" y="-113.2" font-family="Times New Roman,Times,Liberation Serif,serif" font-size="14.00">float</text>
<polygon fill="none" stroke="black" points="802.12,-84.5 802.12,-107 838.12,-107 838.12,-84.5 802.12,-84.5"/>
<text text-anchor="start" x="812.25" y="-90.7" font-family="Times New Roman,Times,Liberation Serif,serif" font-size="14.00">crs</text>
<polygon fill="none" stroke="black" points="838.12,-84.5 838.12,-107 897.38,-107 897.38,-84.5 838.12,-84.5"/>
<text text-anchor="start" x="841.12" y="-90.7" font-family="Times New Roman,Times,Liberation Serif,serif" font-size="14.00">str | None</text>
</a>
</g>
</g>
<!-- gdm.distribution.components.distribution_bus.DistributionBus&#45;&gt;infrasys.location.Location -->
<g id="edge4" class="edge">
<title>gdm.distribution.components.distribution_bus.DistributionBus:e&#45;&gt;infrasys.location.Location:w</title>
<path fill="none" stroke="black" d="M662.22,-290.27C721.69,-284.15 728.19,-222.03 782.24,-210.19"/>
<polyline fill="none" stroke="black" points="652.5,-290.75 657.49,-290.5"/>
<polyline fill="none" stroke="black" points="657.49,-290.5 662.49,-290.25"/>
<polyline fill="none" stroke="black" points="801.12,-208.25 796.15,-208.76"/>
<polygon fill="black" stroke="black" points="794.64,-203.89 795.67,-213.84 793.68,-214.04 792.66,-204.09 794.64,-203.89"/>
<polyline fill="none" stroke="black" points="796.15,-208.76 791.18,-209.27"/>
<ellipse fill="none" stroke="black" cx="786.7" cy="-209.73" rx="4" ry="4"/>
</g>
<!-- gdm.distribution.components.distribution_substation.DistributionSubstation&#45;&gt;gdm.distribution.components.distribution_feeder.DistributionFeeder -->
<g id="edge5" class="edge">
<title>gdm.distribution.components.distribution_substation.DistributionSubstation:e&#45;&gt;gdm.distribution.components.distribution_feeder.DistributionFeeder:w</title>
<path fill="none" stroke="black" d="M948.86,-625.51C989.94,-619.06 993.9,-572.33 1031.74,-562.37"/>
<polyline fill="none" stroke="black" points="939,-626.25 943.99,-625.88"/>
<polyline fill="none" stroke="black" points="943.99,-625.88 948.97,-625.5"/>
<polygon fill="black" stroke="black" points="1036.74,-561.75 1047.21,-565.01 1042.04,-561.11 1046.34,-560.58 1046.34,-560.58 1046.34,-560.58 1042.04,-561.11 1046.12,-556.07 1036.74,-561.75"/>
<polyline fill="none" stroke="black" points="1035.53,-561.9 1030.57,-562.51"/>
</g>
<!-- gdm.distribution.components.sequence_impedance_branch.SequenceImpedanceBranch -->
<g id="node6" class="node">
<title>gdm.distribution.components.sequence_impedance_branch.SequenceImpedanceBranch</title>
<g id="a_node6"><a xlink:title="gdm.distribution.components.sequence_impedance_branch.SequenceImpedanceBranch&#10;&#10;Data model for sequence impedance branch.&#10;">
<polygon fill="none" stroke="black" points="0,-628 0,-650.5 280.5,-650.5 280.5,-628 0,-628"/>
<text text-anchor="start" x="59.62" y="-635.2" font-family="Times New Roman,Times,Liberation Serif,serif" font-weight="bold" font-size="14.00">SequenceImpedanceBranch</text>
<polygon fill="none" stroke="black" points="0,-605.5 0,-628 63.75,-628 63.75,-605.5 0,-605.5"/>
<text text-anchor="start" x="19.88" y="-611.7" font-family="Times New Roman,Times,Liberation Serif,serif" font-size="14.00">uuid</text>
<polygon fill="none" stroke="black" points="63.75,-605.5 63.75,-628 280.5,-628 280.5,-605.5 63.75,-605.5"/>
<text text-anchor="start" x="155.25" y="-611.7" font-family="Times New Roman,Times,Liberation Serif,serif" font-size="14.00">UUID</text>
<polygon fill="none" stroke="black" points="0,-583 0,-605.5 63.75,-605.5 63.75,-583 0,-583"/>
<text text-anchor="start" x="16.88" y="-589.2" font-family="Times New Roman,Times,Liberation Serif,serif" font-size="14.00">name</text>
<polygon fill="none" stroke="black" points="63.75,-583 63.75,-605.5 280.5,-605.5 280.5,-583 63.75,-583"/>
<text text-anchor="start" x="165.38" y="-589.2" font-family="Times New Roman,Times,Liberation Serif,serif" font-size="14.00">str</text>
<polygon fill="none" stroke="black" points="0,-560.5 0,-583 63.75,-583 63.75,-560.5 0,-560.5"/>
<text text-anchor="start" x="4.5" y="-566.7" font-family="Times New Roman,Times,Liberation Serif,serif" font-size="14.00">substation</text>
<polygon fill="none" stroke="black" points="63.75,-560.5 63.75,-583 280.5,-583 280.5,-560.5 63.75,-560.5"/>
<text text-anchor="start" x="82.88" y="-566.7" font-family="Times New Roman,Times,Liberation Serif,serif" font-size="14.00">Optional[DistributionSubstation]</text>
<polygon fill="none" stroke="black" points="0,-538 0,-560.5 63.75,-560.5 63.75,-538 0,-538"/>
<text text-anchor="start" x="15" y="-544.2" font-family="Times New Roman,Times,Liberation Serif,serif" font-size="14.00">feeder</text>
<polygon fill="none" stroke="black" points="63.75,-538 63.75,-560.5 280.5,-560.5 280.5,-538 63.75,-538"/>
<text text-anchor="start" x="93" y="-544.2" font-family="Times New Roman,Times,Liberation Serif,serif" font-size="14.00">Optional[DistributionFeeder]</text>
<polygon fill="none" stroke="black" points="0,-515.5 0,-538 63.75,-538 63.75,-515.5 0,-515.5"/>
<text text-anchor="start" x="4.12" y="-521.7" font-family="Times New Roman,Times,Liberation Serif,serif" font-size="14.00">in_service</text>
<polygon fill="none" stroke="black" points="63.75,-515.5 63.75,-538 280.5,-538 280.5,-515.5 63.75,-515.5"/>
<text text-anchor="start" x="160.12" y="-521.7" font-family="Times New Roman,Times,Liberation Serif,serif" font-size="14.00">bool</text>
<polygon fill="none" stroke="black" points="0,-493 0,-515.5 63.75,-515.5 63.75,-493 0,-493"/>
<text text-anchor="start" x="16.88" y="-499.2" font-family="Times New Roman,Times,Liberation Serif,serif" font-size="14.00">buses</text>
<polygon fill="none" stroke="black" points="63.75,-493 63.75,-515.5 280.5,-515.5 280.5,-493 63.75,-493"/>
<text text-anchor="start" x="116.25" y="-499.2" font-family="Times New Roman,Times,Liberation Serif,serif" font-size="14.00">list[DistributionBus]</text>
<polygon fill="none" stroke="black" points="0,-470.5 0,-493 63.75,-493 63.75,-470.5 0,-470.5"/>
<text text-anchor="start" x="15" y="-476.7" font-family="Times New Roman,Times,Liberation Serif,serif" font-size="14.00">length</text>
<polygon fill="none" stroke="black" points="63.75,-470.5 63.75,-493 280.5,-493 280.5,-470.5 63.75,-470.5"/>
<text text-anchor="start" x="126.75" y="-476.7" font-family="Times New Roman,Times,Liberation Serif,serif" font-size="14.00">PositiveDistance</text>
<polygon fill="none" stroke="black" points="0,-448 0,-470.5 63.75,-470.5 63.75,-448 0,-448"/>
<text text-anchor="start" x="13.88" y="-454.2" font-family="Times New Roman,Times,Liberation Serif,serif" font-size="14.00">phases</text>
<polygon fill="none" stroke="black" points="63.75,-448 63.75,-470.5 280.5,-470.5 280.5,-448 63.75,-448"/>
<text text-anchor="start" x="143.62" y="-454.2" font-family="Times New Roman,Times,Liberation Serif,serif" font-size="14.00">list[Phase]</text>
<polygon fill="none" stroke="black" points="0,-425.5 0,-448 63.75,-448 63.75,-425.5 0,-425.5"/>
<text text-anchor="start" x="3" y="-431.7" font-family="Times New Roman,Times,Liberation Serif,serif" font-size="14.00">equipment</text>
<polygon fill="none" stroke="black" points="63.75,-425.5 63.75,-448 280.5,-448 280.5,-425.5 63.75,-425.5"/>
<text text-anchor="start" x="66.75" y="-431.7" font-family="Times New Roman,Times,Liberation Serif,serif" font-size="14.00">SequenceImpedanceBranchEquipment</text>
</a>
</g>
</g>
<!-- gdm.distribution.components.sequence_impedance_branch.SequenceImpedanceBranch&#45;&gt;gdm.distribution.components.distribution_bus.DistributionBus -->
<g id="edge6" class="edge">
<title>gdm.distribution.components.sequence_impedance_branch.SequenceImpedanceBranch:e&#45;&gt;gdm.distribution.components.distribution_bus.DistributionBus:w</title>
<path fill="none" stroke="black" d="M290.41,-504.09C325.58,-502.89 340.03,-495.49 373.08,-493.66"/>
<polyline fill="none" stroke="black" points="280.5,-504.25 285.5,-504.17"/>
<polyline fill="none" stroke="black" points="285.5,-504.17 290.5,-504.08"/>
<polygon fill="black" stroke="black" points="378.17,-493.52 388.29,-497.76 383.5,-493.38 387.83,-493.27 387.83,-493.27 387.83,-493.27 383.5,-493.38 388.05,-488.76 378.17,-493.52"/>
<polyline fill="none" stroke="black" points="376.95,-493.56 371.95,-493.69"/>
</g>
<!-- gdm.distribution.components.sequence_impedance_branch.SequenceImpedanceBranch&#45;&gt;gdm.distribution.components.distribution_feeder.DistributionFeeder -->
<g id="edge7" class="edge">
<title>gdm.distribution.components.sequence_impedance_branch.SequenceImpedanceBranch:e&#45;&gt;gdm.distribution.components.distribution_feeder.DistributionFeeder:w</title>
<path fill="none" stroke="black" d="M290.41,-549.25C616.72,-549.46 706.32,-560.09 1028.48,-560.49"/>
<polyline fill="none" stroke="black" points="280.5,-549.25 285.5,-549.25"/>
<polyline fill="none" stroke="black" points="285.5,-549.25 290.5,-549.25"/>
<polyline fill="none" stroke="black" points="1047,-560.5 1042,-560.5"/>
<polygon fill="black" stroke="black" points="1041,-555.5 1041,-565.5 1039,-565.5 1039,-555.5 1041,-555.5"/>
<polyline fill="none" stroke="black" points="1042,-560.5 1037,-560.49"/>
<ellipse fill="none" stroke="black" cx="1032.5" cy="-560.49" rx="4" ry="4"/>
</g>
<!-- gdm.distribution.components.sequence_impedance_branch.SequenceImpedanceBranch&#45;&gt;gdm.distribution.components.distribution_substation.DistributionSubstation -->
<g id="edge8" class="edge">
<title>gdm.distribution.components.sequence_impedance_branch.SequenceImpedanceBranch:e&#45;&gt;gdm.distribution.components.distribution_substation.DistributionSubstation:w</title>
<path fill="none" stroke="black" d="M290.2,-572.04C398.87,-578.21 626.79,-681.48 741.73,-692.75"/>
<polyline fill="none" stroke="black" points="280.5,-571.75 285.5,-571.9"/>
<polyline fill="none" stroke="black" points="285.5,-571.9 290.5,-572.05"/>
<polyline fill="none" stroke="black" points="760.5,-693.75 755.51,-693.48"/>
<polygon fill="black" stroke="black" points="754.77,-688.44 754.24,-698.42 752.25,-698.32 752.78,-688.33 754.77,-688.44"/>
<polyline fill="none" stroke="black" points="755.51,-693.48 750.51,-693.22"/>
<ellipse fill="none" stroke="black" cx="746.02" cy="-692.98" rx="4" ry="4"/>
</g>
<!-- gdm.distribution.equipment.sequence_impedance_branch_equipment.SequenceImpedanceBranchEquipment -->
<g id="node7" class="node">
<title>gdm.distribution.equipment.sequence_impedance_branch_equipment.SequenceImpedanceBranchEquipment</title>
<g id="a_node7"><a xlink:title="gdm.distribution.equipment.sequence_impedance_branch_equipment.SequenceImpedanceBranchEquipment&#10;&#10;Data model for sequence impedance branch.&#10;">
<polygon fill="none" stroke="black" points="394.88,-221 394.88,-243.5 646.12,-243.5 646.12,-221 394.88,-221"/>
<text text-anchor="start" x="407.25" y="-228.2" font-family="Times New Roman,Times,Liberation Serif,serif" font-weight="bold" font-size="14.00">SequenceImpedanceBranchEquipment</text>
<polygon fill="none" stroke="black" points="394.88,-198.5 394.88,-221 518.62,-221 518.62,-198.5 394.88,-198.5"/>
<text text-anchor="start" x="444.75" y="-204.7" font-family="Times New Roman,Times,Liberation Serif,serif" font-size="14.00">uuid</text>
<polygon fill="none" stroke="black" points="518.62,-198.5 518.62,-221 646.12,-221 646.12,-198.5 518.62,-198.5"/>
<text text-anchor="start" x="565.5" y="-204.7" font-family="Times New Roman,Times,Liberation Serif,serif" font-size="14.00">UUID</text>
<polygon fill="none" stroke="black" points="394.88,-176 394.88,-198.5 518.62,-198.5 518.62,-176 394.88,-176"/>
<text text-anchor="start" x="441.75" y="-182.2" font-family="Times New Roman,Times,Liberation Serif,serif" font-size="14.00">name</text>
<polygon fill="none" stroke="black" points="518.62,-176 518.62,-198.5 646.12,-198.5 646.12,-176 518.62,-176"/>
<text text-anchor="start" x="575.62" y="-182.2" font-family="Times New Roman,Times,Liberation Serif,serif" font-size="14.00">str</text>
<polygon fill="none" stroke="black" points="394.88,-153.5 394.88,-176 518.62,-176 518.62,-153.5 394.88,-153.5"/>
<text text-anchor="start" x="405" y="-159.7" font-family="Times New Roman,Times,Liberation Serif,serif" font-size="14.00">pos_seq_resistance</text>
<polygon fill="none" stroke="black" points="518.62,-153.5 518.62,-176 646.12,-176 646.12,-153.5 518.62,-153.5"/>
<text text-anchor="start" x="525.75" y="-159.7" font-family="Times New Roman,Times,Liberation Serif,serif" font-size="14.00">ResistancePULength</text>
<polygon fill="none" stroke="black" points="394.88,-131 394.88,-153.5 518.62,-153.5 518.62,-131 394.88,-131"/>
<text text-anchor="start" x="402.75" y="-137.2" font-family="Times New Roman,Times,Liberation Serif,serif" font-size="14.00">zero_seq_resistance</text>
<polygon fill="none" stroke="black" points="518.62,-131 518.62,-153.5 646.12,-153.5 646.12,-131 518.62,-131"/>
<text text-anchor="start" x="525.75" y="-137.2" font-family="Times New Roman,Times,Liberation Serif,serif" font-size="14.00">ResistancePULength</text>
<polygon fill="none" stroke="black" points="394.88,-108.5 394.88,-131 518.62,-131 518.62,-108.5 394.88,-108.5"/>
<text text-anchor="start" x="406.12" y="-114.7" font-family="Times New Roman,Times,Liberation Serif,serif" font-size="14.00">pos_seq_reactance</text>
<polygon fill="none" stroke="black" points="518.62,-108.5 518.62,-131 646.12,-131 646.12,-108.5 518.62,-108.5"/>
<text text-anchor="start" x="526.88" y="-114.7" font-family="Times New Roman,Times,Liberation Serif,serif" font-size="14.00">ReactancePULength</text>
<polygon fill="none" stroke="black" points="394.88,-86 394.88,-108.5 518.62,-108.5 518.62,-86 394.88,-86"/>
<text text-anchor="start" x="403.88" y="-92.2" font-family="Times New Roman,Times,Liberation Serif,serif" font-size="14.00">zero_seq_reactance</text>
<polygon fill="none" stroke="black" points="518.62,-86 518.62,-108.5 646.12,-108.5 646.12,-86 518.62,-86"/>
<text text-anchor="start" x="526.88" y="-92.2" font-family="Times New Roman,Times,Liberation Serif,serif" font-size="14.00">ReactancePULength</text>
<polygon fill="none" stroke="black" points="394.88,-63.5 394.88,-86 518.62,-86 518.62,-63.5 394.88,-63.5"/>
<text text-anchor="start" x="400.12" y="-69.7" font-family="Times New Roman,Times,Liberation Serif,serif" font-size="14.00">pos_seq_capacitance</text>
<polygon fill="none" stroke="black" points="518.62,-63.5 518.62,-86 646.12,-86 646.12,-63.5 518.62,-63.5"/>
<text text-anchor="start" x="521.62" y="-69.7" font-family="Times New Roman,Times,Liberation Serif,serif" font-size="14.00">CapacitancePULength</text>
<polygon fill="none" stroke="black" points="394.88,-41 394.88,-63.5 518.62,-63.5 518.62,-41 394.88,-41"/>
<text text-anchor="start" x="397.88" y="-47.2" font-family="Times New Roman,Times,Liberation Serif,serif" font-size="14.00">zero_seq_capacitance</text>
<polygon fill="none" stroke="black" points="518.62,-41 518.62,-63.5 646.12,-63.5 646.12,-41 518.62,-41"/>
<text text-anchor="start" x="521.62" y="-47.2" font-family="Times New Roman,Times,Liberation Serif,serif" font-size="14.00">CapacitancePULength</text>
<polygon fill="none" stroke="black" points="394.88,-18.5 394.88,-41 518.62,-41 518.62,-18.5 394.88,-18.5"/>
<text text-anchor="start" x="431.62" y="-24.7" font-family="Times New Roman,Times,Liberation Serif,serif" font-size="14.00">ampacity</text>
<polygon fill="none" stroke="black" points="518.62,-18.5 518.62,-41 646.12,-41 646.12,-18.5 518.62,-18.5"/>
<text text-anchor="start" x="540" y="-24.7" font-family="Times New Roman,Times,Liberation Serif,serif" font-size="14.00">PositiveCurrent</text>
</a>
</g>
</g>
<!-- gdm.distribution.components.sequence_impedance_branch.SequenceImpedanceBranch&#45;&gt;gdm.distribution.equipment.sequence_impedance_branch_equipment.SequenceImpedanceBranchEquipment -->
<g id="edge9" class="edge">
<title>gdm.distribution.components.sequence_impedance_branch.SequenceImpedanceBranch:e&#45;&gt;gdm.distribution.equipment.sequence_impedance_branch_equipment.SequenceImpedanceBranchEquipment:w</title>
<path fill="none" stroke="black" d="M290.21,-436.09C373.55,-424.09 302.18,-252.62 379,-233.9"/>
<polyline fill="none" stroke="black" points="280.5,-436.75 285.49,-436.41"/>
<polyline fill="none" stroke="black" points="285.49,-436.41 290.48,-436.07"/>
<polyline fill="none" stroke="black" points="393.88,-232.25 388.91,-232.8"/>
<polygon fill="black" stroke="black" points="387.36,-227.94 388.46,-237.88 386.48,-238.1 385.37,-228.16 387.36,-227.94"/>
<polyline fill="none" stroke="black" points="388.91,-232.8 383.94,-233.36"/>
<polygon fill="black" stroke="black" points="382.39,-228.5 383.5,-238.44 381.51,-238.66 380.4,-228.72 382.39,-228.5"/>
<polyline fill="none" stroke="black" points="383.94,-233.36 378.97,-233.91"/>
</g>
</g>
</svg>
