<?xml version="1.0" encoding="UTF-8" standalone="no"?>
<!DOCTYPE svg PUBLIC "-//W3C//DTD SVG 1.1//EN"
 "http://www.w3.org/Graphics/SVG/1.1/DTD/svg11.dtd">
<!-- Generated by graphviz version 12.2.1 (20241206.2353)
 -->
<!-- Title: Entity Relationship Diagram created by erdantic Pages: 1 -->
<svg width="550pt" height="364pt"
 viewBox="0.00 0.00 549.50 363.50" xmlns="http://www.w3.org/2000/svg" xmlns:xlink="http://www.w3.org/1999/xlink">
<g id="graph0" class="graph" transform="scale(1 1) rotate(0) translate(4 359.5)">
<title>Entity Relationship Diagram created by erdantic</title>
<polygon fill="white" stroke="none" points="-4,4 -4,-359.5 545.5,-359.5 545.5,4 -4,4"/>
<text text-anchor="middle" x="270.75" y="-5.95" font-family="Times New Roman,Times,Liberation Serif,serif" font-size="9.00" fill="#a8a8a8">Created by erdantic v1.0.5 &lt;https://github.com/drivendataorg/erdantic&gt;</text>
<!-- gdm.distribution.common.limitset.ThermalLimitSet -->
<g id="node1" class="node">
<title>gdm.distribution.common.limitset.ThermalLimitSet</title>
<g id="a_node1"><a xlink:title="gdm.distribution.common.limitset.ThermalLimitSet&#10;&#10;Interface for voltage limit set.&#10;">
<polygon fill="none" stroke="black" points="388.5,-108.5 388.5,-131 541.5,-131 541.5,-108.5 388.5,-108.5"/>
<text text-anchor="start" x="414" y="-115.7" font-family="Times New Roman,Times,Liberation Serif,serif" font-weight="bold" font-size="14.00">ThermalLimitSet</text>
<polygon fill="none" stroke="black" points="388.5,-86 388.5,-108.5 450.75,-108.5 450.75,-86 388.5,-86"/>
<text text-anchor="start" x="407.62" y="-92.2" font-family="Times New Roman,Times,Liberation Serif,serif" font-size="14.00">uuid</text>
<polygon fill="none" stroke="black" points="450.75,-86 450.75,-108.5 541.5,-108.5 541.5,-86 450.75,-86"/>
<text text-anchor="start" x="479.25" y="-92.2" font-family="Times New Roman,Times,Liberation Serif,serif" font-size="14.00">UUID</text>
<polygon fill="none" stroke="black" points="388.5,-63.5 388.5,-86 450.75,-86 450.75,-63.5 388.5,-63.5"/>
<text text-anchor="start" x="404.62" y="-69.7" font-family="Times New Roman,Times,Liberation Serif,serif" font-size="14.00">name</text>
<polygon fill="none" stroke="black" points="450.75,-63.5 450.75,-86 541.5,-86 541.5,-63.5 450.75,-63.5"/>
<text text-anchor="start" x="489.38" y="-69.7" font-family="Times New Roman,Times,Liberation Serif,serif" font-size="14.00">str</text>
<polygon fill="none" stroke="black" points="388.5,-41 388.5,-63.5 450.75,-63.5 450.75,-41 388.5,-41"/>
<text text-anchor="start" x="391.5" y="-47.2" font-family="Times New Roman,Times,Liberation Serif,serif" font-size="14.00">limit_type</text>
<polygon fill="none" stroke="black" points="450.75,-41 450.75,-63.5 541.5,-63.5 541.5,-41 450.75,-41"/>
<text text-anchor="start" x="466.88" y="-47.2" font-family="Times New Roman,Times,Liberation Serif,serif" font-size="14.00">LimitType</text>
<polygon fill="none" stroke="black" points="388.5,-18.5 388.5,-41 450.75,-41 450.75,-18.5 388.5,-18.5"/>
<text text-anchor="start" x="405" y="-24.7" font-family="Times New Roman,Times,Liberation Serif,serif" font-size="14.00">value</text>
<polygon fill="none" stroke="black" points="450.75,-18.5 450.75,-41 541.5,-41 541.5,-18.5 450.75,-18.5"/>
<text text-anchor="start" x="453.75" y="-24.7" font-family="Times New Roman,Times,Liberation Serif,serif" font-size="14.00">PositiveCurrent</text>
</a>
</g>
</g>
<!-- gdm.distribution.equipment.sequence_impedance_branch_equipment.SequenceImpedanceBranchEquipment -->
<g id="node2" class="node">
<title>gdm.distribution.equipment.sequence_impedance_branch_equipment.SequenceImpedanceBranchEquipment</title>
<g id="a_node2"><a xlink:title="gdm.distribution.equipment.sequence_impedance_branch_equipment.SequenceImpedanceBranchEquipment&#10;&#10;Interface for sequence impedance branch.&#10;">
<polygon fill="none" stroke="black" points="0,-333 0,-355.5 280.5,-355.5 280.5,-333 0,-333"/>
<text text-anchor="start" x="27" y="-340.2" font-family="Times New Roman,Times,Liberation Serif,serif" font-weight="bold" font-size="14.00">SequenceImpedanceBranchEquipment</text>
<polygon fill="none" stroke="black" points="0,-310.5 0,-333 123.75,-333 123.75,-310.5 0,-310.5"/>
<text text-anchor="start" x="49.88" y="-316.7" font-family="Times New Roman,Times,Liberation Serif,serif" font-size="14.00">uuid</text>
<polygon fill="none" stroke="black" points="123.75,-310.5 123.75,-333 280.5,-333 280.5,-310.5 123.75,-310.5"/>
<text text-anchor="start" x="185.25" y="-316.7" font-family="Times New Roman,Times,Liberation Serif,serif" font-size="14.00">UUID</text>
<polygon fill="none" stroke="black" points="0,-288 0,-310.5 123.75,-310.5 123.75,-288 0,-288"/>
<text text-anchor="start" x="46.88" y="-294.2" font-family="Times New Roman,Times,Liberation Serif,serif" font-size="14.00">name</text>
<polygon fill="none" stroke="black" points="123.75,-288 123.75,-310.5 280.5,-310.5 280.5,-288 123.75,-288"/>
<text text-anchor="start" x="195.38" y="-294.2" font-family="Times New Roman,Times,Liberation Serif,serif" font-size="14.00">str</text>
<polygon fill="none" stroke="black" points="0,-265.5 0,-288 123.75,-288 123.75,-265.5 0,-265.5"/>
<text text-anchor="start" x="10.12" y="-271.7" font-family="Times New Roman,Times,Liberation Serif,serif" font-size="14.00">pos_seq_resistance</text>
<polygon fill="none" stroke="black" points="123.75,-265.5 123.75,-288 280.5,-288 280.5,-265.5 123.75,-265.5"/>
<text text-anchor="start" x="145.5" y="-271.7" font-family="Times New Roman,Times,Liberation Serif,serif" font-size="14.00">ResistancePULength</text>
<polygon fill="none" stroke="black" points="0,-243 0,-265.5 123.75,-265.5 123.75,-243 0,-243"/>
<text text-anchor="start" x="7.88" y="-249.2" font-family="Times New Roman,Times,Liberation Serif,serif" font-size="14.00">zero_seq_resistance</text>
<polygon fill="none" stroke="black" points="123.75,-243 123.75,-265.5 280.5,-265.5 280.5,-243 123.75,-243"/>
<text text-anchor="start" x="145.5" y="-249.2" font-family="Times New Roman,Times,Liberation Serif,serif" font-size="14.00">ResistancePULength</text>
<polygon fill="none" stroke="black" points="0,-220.5 0,-243 123.75,-243 123.75,-220.5 0,-220.5"/>
<text text-anchor="start" x="11.25" y="-226.7" font-family="Times New Roman,Times,Liberation Serif,serif" font-size="14.00">pos_seq_reactance</text>
<polygon fill="none" stroke="black" points="123.75,-220.5 123.75,-243 280.5,-243 280.5,-220.5 123.75,-220.5"/>
<text text-anchor="start" x="146.62" y="-226.7" font-family="Times New Roman,Times,Liberation Serif,serif" font-size="14.00">ReactancePULength</text>
<polygon fill="none" stroke="black" points="0,-198 0,-220.5 123.75,-220.5 123.75,-198 0,-198"/>
<text text-anchor="start" x="9" y="-204.2" font-family="Times New Roman,Times,Liberation Serif,serif" font-size="14.00">zero_seq_reactance</text>
<polygon fill="none" stroke="black" points="123.75,-198 123.75,-220.5 280.5,-220.5 280.5,-198 123.75,-198"/>
<text text-anchor="start" x="146.62" y="-204.2" font-family="Times New Roman,Times,Liberation Serif,serif" font-size="14.00">ReactancePULength</text>
<polygon fill="none" stroke="black" points="0,-175.5 0,-198 123.75,-198 123.75,-175.5 0,-175.5"/>
<text text-anchor="start" x="5.25" y="-181.7" font-family="Times New Roman,Times,Liberation Serif,serif" font-size="14.00">pos_seq_capacitance</text>
<polygon fill="none" stroke="black" points="123.75,-175.5 123.75,-198 280.5,-198 280.5,-175.5 123.75,-175.5"/>
<text text-anchor="start" x="141.38" y="-181.7" font-family="Times New Roman,Times,Liberation Serif,serif" font-size="14.00">CapacitancePULength</text>
<polygon fill="none" stroke="black" points="0,-153 0,-175.5 123.75,-175.5 123.75,-153 0,-153"/>
<text text-anchor="start" x="3" y="-159.2" font-family="Times New Roman,Times,Liberation Serif,serif" font-size="14.00">zero_seq_capacitance</text>
<polygon fill="none" stroke="black" points="123.75,-153 123.75,-175.5 280.5,-175.5 280.5,-153 123.75,-153"/>
<text text-anchor="start" x="141.38" y="-159.2" font-family="Times New Roman,Times,Liberation Serif,serif" font-size="14.00">CapacitancePULength</text>
<polygon fill="none" stroke="black" points="0,-130.5 0,-153 123.75,-153 123.75,-130.5 0,-130.5"/>
<text text-anchor="start" x="36.75" y="-136.7" font-family="Times New Roman,Times,Liberation Serif,serif" font-size="14.00">ampacity</text>
<polygon fill="none" stroke="black" points="123.75,-130.5 123.75,-153 280.5,-153 280.5,-130.5 123.75,-130.5"/>
<text text-anchor="start" x="159.75" y="-136.7" font-family="Times New Roman,Times,Liberation Serif,serif" font-size="14.00">PositiveCurrent</text>
<polygon fill="none" stroke="black" points="0,-108 0,-130.5 123.75,-130.5 123.75,-108 0,-108"/>
<text text-anchor="start" x="25.12" y="-114.2" font-family="Times New Roman,Times,Liberation Serif,serif" font-size="14.00">loading_limit</text>
<polygon fill="none" stroke="black" points="123.75,-108 123.75,-130.5 280.5,-130.5 280.5,-108 123.75,-108"/>
<text text-anchor="start" x="126.75" y="-114.2" font-family="Times New Roman,Times,Liberation Serif,serif" font-size="14.00">Optional[ThermalLimitSet]</text>
</a>
</g>
</g>
<!-- gdm.distribution.equipment.sequence_impedance_branch_equipment.SequenceImpedanceBranchEquipment&#45;&gt;gdm.distribution.common.limitset.ThermalLimitSet -->
<g id="edge1" class="edge">
<title>gdm.distribution.equipment.sequence_impedance_branch_equipment.SequenceImpedanceBranchEquipment:e&#45;&gt;gdm.distribution.common.limitset.ThermalLimitSet:w</title>
<path fill="none" stroke="black" d="M290.37,-119.26C324.16,-119.31 339.09,-119.62 369.68,-119.72"/>
<polyline fill="none" stroke="black" points="280.5,-119.25 285.5,-119.25"/>
<polyline fill="none" stroke="black" points="285.5,-119.25 290.5,-119.26"/>
<polyline fill="none" stroke="black" points="388.5,-119.75 383.5,-119.74"/>
<polygon fill="black" stroke="black" points="382.51,-114.74 382.49,-124.74 380.49,-124.74 380.51,-114.74 382.51,-114.74"/>
<polyline fill="none" stroke="black" points="383.5,-119.74 378.5,-119.73"/>
<ellipse fill="none" stroke="black" cx="374" cy="-119.73" rx="4" ry="4"/>
</g>
</g>
</svg>
