<?xml version="1.0" encoding="UTF-8" standalone="no"?>
<!DOCTYPE svg PUBLIC "-//W3C//DTD SVG 1.1//EN"
 "http://www.w3.org/Graphics/SVG/1.1/DTD/svg11.dtd">
<!-- Generated by graphviz version 12.2.1 (20241206.2353)
 -->
<!-- Title: Entity Relationship Diagram created by erdantic Pages: 1 -->
<svg width="1188pt" height="825pt"
 viewBox="0.00 0.00 1187.75 824.75" xmlns="http://www.w3.org/2000/svg" xmlns:xlink="http://www.w3.org/1999/xlink">
<g id="graph0" class="graph" transform="scale(1 1) rotate(0) translate(4 820.75)">
<title>Entity Relationship Diagram created by erdantic</title>
<polygon fill="white" stroke="none" points="-4,4 -4,-820.75 1183.75,-820.75 1183.75,4 -4,4"/>
<text text-anchor="middle" x="589.88" y="-5.95" font-family="Times New Roman,Times,Liberation Serif,serif" font-size="9.00" fill="#a8a8a8">Created by erdantic v1.0.5 &lt;https://github.com/drivendataorg/erdantic&gt;</text>
<!-- gdm.distribution.common.limitset.ThermalLimitSet -->
<g id="node1" class="node">
<title>gdm.distribution.common.limitset.ThermalLimitSet</title>
<g id="a_node1"><a xlink:title="gdm.distribution.common.limitset.ThermalLimitSet&#10;&#10;Interface for voltage limit set.&#10;">
<polygon fill="none" stroke="black" points="789.75,-108.5 789.75,-131 942.75,-131 942.75,-108.5 789.75,-108.5"/>
<text text-anchor="start" x="815.25" y="-115.7" font-family="Times New Roman,Times,Liberation Serif,serif" font-weight="bold" font-size="14.00">ThermalLimitSet</text>
<polygon fill="none" stroke="black" points="789.75,-86 789.75,-108.5 852,-108.5 852,-86 789.75,-86"/>
<text text-anchor="start" x="808.88" y="-92.2" font-family="Times New Roman,Times,Liberation Serif,serif" font-size="14.00">uuid</text>
<polygon fill="none" stroke="black" points="852,-86 852,-108.5 942.75,-108.5 942.75,-86 852,-86"/>
<text text-anchor="start" x="880.5" y="-92.2" font-family="Times New Roman,Times,Liberation Serif,serif" font-size="14.00">UUID</text>
<polygon fill="none" stroke="black" points="789.75,-63.5 789.75,-86 852,-86 852,-63.5 789.75,-63.5"/>
<text text-anchor="start" x="805.88" y="-69.7" font-family="Times New Roman,Times,Liberation Serif,serif" font-size="14.00">name</text>
<polygon fill="none" stroke="black" points="852,-63.5 852,-86 942.75,-86 942.75,-63.5 852,-63.5"/>
<text text-anchor="start" x="890.62" y="-69.7" font-family="Times New Roman,Times,Liberation Serif,serif" font-size="14.00">str</text>
<polygon fill="none" stroke="black" points="789.75,-41 789.75,-63.5 852,-63.5 852,-41 789.75,-41"/>
<text text-anchor="start" x="792.75" y="-47.2" font-family="Times New Roman,Times,Liberation Serif,serif" font-size="14.00">limit_type</text>
<polygon fill="none" stroke="black" points="852,-41 852,-63.5 942.75,-63.5 942.75,-41 852,-41"/>
<text text-anchor="start" x="868.12" y="-47.2" font-family="Times New Roman,Times,Liberation Serif,serif" font-size="14.00">LimitType</text>
<polygon fill="none" stroke="black" points="789.75,-18.5 789.75,-41 852,-41 852,-18.5 789.75,-18.5"/>
<text text-anchor="start" x="806.25" y="-24.7" font-family="Times New Roman,Times,Liberation Serif,serif" font-size="14.00">value</text>
<polygon fill="none" stroke="black" points="852,-18.5 852,-41 942.75,-41 942.75,-18.5 852,-18.5"/>
<text text-anchor="start" x="855" y="-24.7" font-family="Times New Roman,Times,Liberation Serif,serif" font-size="14.00">PositiveCurrent</text>
</a>
</g>
</g>
<!-- gdm.distribution.common.limitset.VoltageLimitSet -->
<g id="node2" class="node">
<title>gdm.distribution.common.limitset.VoltageLimitSet</title>
<g id="a_node2"><a xlink:title="gdm.distribution.common.limitset.VoltageLimitSet&#10;&#10;Interface for voltage limit set.&#10;">
<polygon fill="none" stroke="black" points="789.75,-457.5 789.75,-480 942.75,-480 942.75,-457.5 789.75,-457.5"/>
<text text-anchor="start" x="819" y="-464.7" font-family="Times New Roman,Times,Liberation Serif,serif" font-weight="bold" font-size="14.00">VoltageLimitSet</text>
<polygon fill="none" stroke="black" points="789.75,-435 789.75,-457.5 852,-457.5 852,-435 789.75,-435"/>
<text text-anchor="start" x="808.88" y="-441.2" font-family="Times New Roman,Times,Liberation Serif,serif" font-size="14.00">uuid</text>
<polygon fill="none" stroke="black" points="852,-435 852,-457.5 942.75,-457.5 942.75,-435 852,-435"/>
<text text-anchor="start" x="880.5" y="-441.2" font-family="Times New Roman,Times,Liberation Serif,serif" font-size="14.00">UUID</text>
<polygon fill="none" stroke="black" points="789.75,-412.5 789.75,-435 852,-435 852,-412.5 789.75,-412.5"/>
<text text-anchor="start" x="805.88" y="-418.7" font-family="Times New Roman,Times,Liberation Serif,serif" font-size="14.00">name</text>
<polygon fill="none" stroke="black" points="852,-412.5 852,-435 942.75,-435 942.75,-412.5 852,-412.5"/>
<text text-anchor="start" x="890.62" y="-418.7" font-family="Times New Roman,Times,Liberation Serif,serif" font-size="14.00">str</text>
<polygon fill="none" stroke="black" points="789.75,-390 789.75,-412.5 852,-412.5 852,-390 789.75,-390"/>
<text text-anchor="start" x="792.75" y="-396.2" font-family="Times New Roman,Times,Liberation Serif,serif" font-size="14.00">limit_type</text>
<polygon fill="none" stroke="black" points="852,-390 852,-412.5 942.75,-412.5 942.75,-390 852,-390"/>
<text text-anchor="start" x="868.12" y="-396.2" font-family="Times New Roman,Times,Liberation Serif,serif" font-size="14.00">LimitType</text>
<polygon fill="none" stroke="black" points="789.75,-367.5 789.75,-390 852,-390 852,-367.5 789.75,-367.5"/>
<text text-anchor="start" x="806.25" y="-373.7" font-family="Times New Roman,Times,Liberation Serif,serif" font-size="14.00">value</text>
<polygon fill="none" stroke="black" points="852,-367.5 852,-390 942.75,-390 942.75,-367.5 852,-367.5"/>
<text text-anchor="start" x="855" y="-373.7" font-family="Times New Roman,Times,Liberation Serif,serif" font-size="14.00">PositiveVoltage</text>
</a>
</g>
</g>
<!-- gdm.distribution.components.distribution_bus.DistributionBus -->
<g id="node3" class="node">
<title>gdm.distribution.components.distribution_bus.DistributionBus</title>
<g id="a_node3"><a xlink:title="gdm.distribution.components.distribution_bus.DistributionBus&#10;&#10;Interface for distribution bus.&#10;&#10;Examples:&#10; &#160;&#160;&#160;&gt;&gt;&gt; from gdm import DistributionBus&#10; &#160;&#160;&#160;&gt;&gt;&gt; DistributionBus.example()&#10;">
<polygon fill="none" stroke="black" points="396.75,-593.75 396.75,-616.25 660.75,-616.25 660.75,-593.75 396.75,-593.75"/>
<text text-anchor="start" x="482.62" y="-600.95" font-family="Times New Roman,Times,Liberation Serif,serif" font-weight="bold" font-size="14.00">DistributionBus</text>
<polygon fill="none" stroke="black" points="396.75,-571.25 396.75,-593.75 476.25,-593.75 476.25,-571.25 396.75,-571.25"/>
<text text-anchor="start" x="424.5" y="-577.45" font-family="Times New Roman,Times,Liberation Serif,serif" font-size="14.00">uuid</text>
<polygon fill="none" stroke="black" points="476.25,-571.25 476.25,-593.75 660.75,-593.75 660.75,-571.25 476.25,-571.25"/>
<text text-anchor="start" x="551.62" y="-577.45" font-family="Times New Roman,Times,Liberation Serif,serif" font-size="14.00">UUID</text>
<polygon fill="none" stroke="black" points="396.75,-548.75 396.75,-571.25 476.25,-571.25 476.25,-548.75 396.75,-548.75"/>
<text text-anchor="start" x="421.5" y="-554.95" font-family="Times New Roman,Times,Liberation Serif,serif" font-size="14.00">name</text>
<polygon fill="none" stroke="black" points="476.25,-548.75 476.25,-571.25 660.75,-571.25 660.75,-548.75 476.25,-548.75"/>
<text text-anchor="start" x="561.75" y="-554.95" font-family="Times New Roman,Times,Liberation Serif,serif" font-size="14.00">str</text>
<polygon fill="none" stroke="black" points="396.75,-526.25 396.75,-548.75 476.25,-548.75 476.25,-526.25 396.75,-526.25"/>
<text text-anchor="start" x="409.12" y="-532.45" font-family="Times New Roman,Times,Liberation Serif,serif" font-size="14.00">substation</text>
<polygon fill="none" stroke="black" points="476.25,-526.25 476.25,-548.75 660.75,-548.75 660.75,-526.25 476.25,-526.25"/>
<text text-anchor="start" x="479.25" y="-532.45" font-family="Times New Roman,Times,Liberation Serif,serif" font-size="14.00">Optional[DistributionSubstation]</text>
<polygon fill="none" stroke="black" points="396.75,-503.75 396.75,-526.25 476.25,-526.25 476.25,-503.75 396.75,-503.75"/>
<text text-anchor="start" x="419.62" y="-509.95" font-family="Times New Roman,Times,Liberation Serif,serif" font-size="14.00">feeder</text>
<polygon fill="none" stroke="black" points="476.25,-503.75 476.25,-526.25 660.75,-526.25 660.75,-503.75 476.25,-503.75"/>
<text text-anchor="start" x="489.38" y="-509.95" font-family="Times New Roman,Times,Liberation Serif,serif" font-size="14.00">Optional[DistributionFeeder]</text>
<polygon fill="none" stroke="black" points="396.75,-481.25 396.75,-503.75 476.25,-503.75 476.25,-481.25 396.75,-481.25"/>
<text text-anchor="start" x="401.62" y="-487.45" font-family="Times New Roman,Times,Liberation Serif,serif" font-size="14.00">voltage_type</text>
<polygon fill="none" stroke="black" points="476.25,-481.25 476.25,-503.75 660.75,-503.75 660.75,-481.25 476.25,-481.25"/>
<text text-anchor="start" x="531.38" y="-487.45" font-family="Times New Roman,Times,Liberation Serif,serif" font-size="14.00">VoltageTypes</text>
<polygon fill="none" stroke="black" points="396.75,-458.75 396.75,-481.25 476.25,-481.25 476.25,-458.75 396.75,-458.75"/>
<text text-anchor="start" x="418.5" y="-464.95" font-family="Times New Roman,Times,Liberation Serif,serif" font-size="14.00">phases</text>
<polygon fill="none" stroke="black" points="476.25,-458.75 476.25,-481.25 660.75,-481.25 660.75,-458.75 476.25,-458.75"/>
<text text-anchor="start" x="540" y="-464.95" font-family="Times New Roman,Times,Liberation Serif,serif" font-size="14.00">list[Phase]</text>
<polygon fill="none" stroke="black" points="396.75,-436.25 396.75,-458.75 476.25,-458.75 476.25,-436.25 396.75,-436.25"/>
<text text-anchor="start" x="400.88" y="-442.45" font-family="Times New Roman,Times,Liberation Serif,serif" font-size="14.00">voltagelimits</text>
<polygon fill="none" stroke="black" points="476.25,-436.25 476.25,-458.75 660.75,-458.75 660.75,-436.25 476.25,-436.25"/>
<text text-anchor="start" x="511.12" y="-442.45" font-family="Times New Roman,Times,Liberation Serif,serif" font-size="14.00">list[VoltageLimitSet]</text>
<polygon fill="none" stroke="black" points="396.75,-413.75 396.75,-436.25 476.25,-436.25 476.25,-413.75 396.75,-413.75"/>
<text text-anchor="start" x="399.75" y="-419.95" font-family="Times New Roman,Times,Liberation Serif,serif" font-size="14.00">rated_voltage</text>
<polygon fill="none" stroke="black" points="476.25,-413.75 476.25,-436.25 660.75,-436.25 660.75,-413.75 476.25,-413.75"/>
<text text-anchor="start" x="526.12" y="-419.95" font-family="Times New Roman,Times,Liberation Serif,serif" font-size="14.00">PositiveVoltage</text>
<polygon fill="none" stroke="black" points="396.75,-391.25 396.75,-413.75 476.25,-413.75 476.25,-391.25 396.75,-391.25"/>
<text text-anchor="start" x="408" y="-397.45" font-family="Times New Roman,Times,Liberation Serif,serif" font-size="14.00">coordinate</text>
<polygon fill="none" stroke="black" points="476.25,-391.25 476.25,-413.75 660.75,-413.75 660.75,-391.25 476.25,-391.25"/>
<text text-anchor="start" x="516.38" y="-397.45" font-family="Times New Roman,Times,Liberation Serif,serif" font-size="14.00">Optional[Location]</text>
</a>
</g>
</g>
<!-- gdm.distribution.components.distribution_bus.DistributionBus&#45;&gt;gdm.distribution.common.limitset.VoltageLimitSet -->
<g id="edge1" class="edge">
<title>gdm.distribution.components.distribution_bus.DistributionBus:e&#45;&gt;gdm.distribution.common.limitset.VoltageLimitSet:w</title>
<path fill="none" stroke="black" d="M671.67,-447.72C715.69,-449.76 731.72,-465.11 773.51,-468.21"/>
<polyline fill="none" stroke="black" points="661.75,-447.5 666.75,-447.61"/>
<polyline fill="none" stroke="black" points="666.75,-447.61 671.75,-447.73"/>
<polygon fill="black" stroke="black" points="778.42,-468.38 788.26,-473.24 783.75,-468.57 788.08,-468.73 788.08,-468.73 788.08,-468.73 783.75,-468.57 788.58,-464.24 778.42,-468.38"/>
<polyline fill="none" stroke="black" points="777.2,-468.34 772.21,-468.16"/>
</g>
<!-- gdm.distribution.components.distribution_feeder.DistributionFeeder -->
<g id="node4" class="node">
<title>gdm.distribution.components.distribution_feeder.DistributionFeeder</title>
<g id="a_node4"><a xlink:title="gdm.distribution.components.distribution_feeder.DistributionFeeder&#10;&#10;Class interface for distribution feeder.&#10;">
<polygon fill="none" stroke="black" points="1063.5,-661 1063.5,-683.5 1179.75,-683.5 1179.75,-661 1063.5,-661"/>
<text text-anchor="start" x="1066.5" y="-668.2" font-family="Times New Roman,Times,Liberation Serif,serif" font-weight="bold" font-size="14.00">DistributionFeeder</text>
<polygon fill="none" stroke="black" points="1063.5,-638.5 1063.5,-661 1119.75,-661 1119.75,-638.5 1063.5,-638.5"/>
<text text-anchor="start" x="1079.62" y="-644.7" font-family="Times New Roman,Times,Liberation Serif,serif" font-size="14.00">uuid</text>
<polygon fill="none" stroke="black" points="1119.75,-638.5 1119.75,-661 1179.75,-661 1179.75,-638.5 1119.75,-638.5"/>
<text text-anchor="start" x="1132.88" y="-644.7" font-family="Times New Roman,Times,Liberation Serif,serif" font-size="14.00">UUID</text>
<polygon fill="none" stroke="black" points="1063.5,-616 1063.5,-638.5 1119.75,-638.5 1119.75,-616 1063.5,-616"/>
<text text-anchor="start" x="1076.62" y="-622.2" font-family="Times New Roman,Times,Liberation Serif,serif" font-size="14.00">name</text>
<polygon fill="none" stroke="black" points="1119.75,-616 1119.75,-638.5 1179.75,-638.5 1179.75,-616 1119.75,-616"/>
<text text-anchor="start" x="1143" y="-622.2" font-family="Times New Roman,Times,Liberation Serif,serif" font-size="14.00">str</text>
</a>
</g>
</g>
<!-- gdm.distribution.components.distribution_bus.DistributionBus&#45;&gt;gdm.distribution.components.distribution_feeder.DistributionFeeder -->
<g id="edge2" class="edge">
<title>gdm.distribution.components.distribution_bus.DistributionBus:e&#45;&gt;gdm.distribution.components.distribution_feeder.DistributionFeeder:w</title>
<path fill="none" stroke="black" d="M671.67,-515.51C765.11,-524.65 945.9,-654.14 1044.61,-670.55"/>
<polyline fill="none" stroke="black" points="661.75,-515 666.74,-515.26"/>
<polyline fill="none" stroke="black" points="666.74,-515.26 671.74,-515.51"/>
<polyline fill="none" stroke="black" points="1063.5,-672.25 1058.52,-671.8"/>
<polygon fill="black" stroke="black" points="1057.97,-666.73 1057.07,-676.69 1055.08,-676.51 1055.98,-666.55 1057.97,-666.73"/>
<polyline fill="none" stroke="black" points="1058.52,-671.8 1053.54,-671.35"/>
<ellipse fill="none" stroke="black" cx="1049.06" cy="-670.95" rx="4" ry="4"/>
</g>
<!-- gdm.distribution.components.distribution_substation.DistributionSubstation -->
<g id="node5" class="node">
<title>gdm.distribution.components.distribution_substation.DistributionSubstation</title>
<g id="a_node5"><a xlink:title="gdm.distribution.components.distribution_substation.DistributionSubstation&#10;&#10;Class interface for distribution feeder.&#10;">
<polygon fill="none" stroke="black" points="777,-794.25 777,-816.75 955.5,-816.75 955.5,-794.25 777,-794.25"/>
<text text-anchor="start" x="800.25" y="-801.45" font-family="Times New Roman,Times,Liberation Serif,serif" font-weight="bold" font-size="14.00">DistributionSubstation</text>
<polygon fill="none" stroke="black" points="777,-771.75 777,-794.25 822,-794.25 822,-771.75 777,-771.75"/>
<text text-anchor="start" x="787.5" y="-777.95" font-family="Times New Roman,Times,Liberation Serif,serif" font-size="14.00">uuid</text>
<polygon fill="none" stroke="black" points="822,-771.75 822,-794.25 955.5,-794.25 955.5,-771.75 822,-771.75"/>
<text text-anchor="start" x="871.88" y="-777.95" font-family="Times New Roman,Times,Liberation Serif,serif" font-size="14.00">UUID</text>
<polygon fill="none" stroke="black" points="777,-749.25 777,-771.75 822,-771.75 822,-749.25 777,-749.25"/>
<text text-anchor="start" x="784.5" y="-755.45" font-family="Times New Roman,Times,Liberation Serif,serif" font-size="14.00">name</text>
<polygon fill="none" stroke="black" points="822,-749.25 822,-771.75 955.5,-771.75 955.5,-749.25 822,-749.25"/>
<text text-anchor="start" x="882" y="-755.45" font-family="Times New Roman,Times,Liberation Serif,serif" font-size="14.00">str</text>
<polygon fill="none" stroke="black" points="777,-726.75 777,-749.25 822,-749.25 822,-726.75 777,-726.75"/>
<text text-anchor="start" x="780" y="-732.95" font-family="Times New Roman,Times,Liberation Serif,serif" font-size="14.00">feeders</text>
<polygon fill="none" stroke="black" points="822,-726.75 822,-749.25 955.5,-749.25 955.5,-726.75 822,-726.75"/>
<text text-anchor="start" x="825" y="-732.95" font-family="Times New Roman,Times,Liberation Serif,serif" font-size="14.00">list[DistributionFeeder]</text>
</a>
</g>
</g>
<!-- gdm.distribution.components.distribution_bus.DistributionBus&#45;&gt;gdm.distribution.components.distribution_substation.DistributionSubstation -->
<g id="edge3" class="edge">
<title>gdm.distribution.components.distribution_bus.DistributionBus:e&#45;&gt;gdm.distribution.components.distribution_substation.DistributionSubstation:w</title>
<path fill="none" stroke="black" d="M671.45,-538.05C777.74,-550.7 664.83,-777.96 758.24,-803.22"/>
<polyline fill="none" stroke="black" points="661.75,-537.5 666.74,-537.78"/>
<polyline fill="none" stroke="black" points="666.74,-537.78 671.73,-538.07"/>
<polyline fill="none" stroke="black" points="777,-805.5 772.04,-804.9"/>
<polygon fill="black" stroke="black" points="771.65,-799.81 770.44,-809.74 768.46,-809.5 769.66,-799.57 771.65,-799.81"/>
<polyline fill="none" stroke="black" points="772.04,-804.9 767.07,-804.3"/>
<ellipse fill="none" stroke="black" cx="762.61" cy="-803.75" rx="4" ry="4"/>
</g>
<!-- infrasys.location.Location -->
<g id="node6" class="node">
<title>infrasys.location.Location</title>
<g id="a_node6"><a xlink:title="infrasys.location.Location&#10;&#10;Specifies geographic location.&#10;">
<polygon fill="none" stroke="black" points="818.62,-308.75 818.62,-331.25 913.88,-331.25 913.88,-308.75 818.62,-308.75"/>
<text text-anchor="start" x="840.75" y="-315.95" font-family="Times New Roman,Times,Liberation Serif,serif" font-weight="bold" font-size="14.00">Location</text>
<polygon fill="none" stroke="black" points="818.62,-286.25 818.62,-308.75 854.62,-308.75 854.62,-286.25 818.62,-286.25"/>
<text text-anchor="start" x="824.62" y="-292.45" font-family="Times New Roman,Times,Liberation Serif,serif" font-size="14.00">uuid</text>
<polygon fill="none" stroke="black" points="854.62,-286.25 854.62,-308.75 913.88,-308.75 913.88,-286.25 854.62,-286.25"/>
<text text-anchor="start" x="867.38" y="-292.45" font-family="Times New Roman,Times,Liberation Serif,serif" font-size="14.00">UUID</text>
<polygon fill="none" stroke="black" points="818.62,-263.75 818.62,-286.25 854.62,-286.25 854.62,-263.75 818.62,-263.75"/>
<text text-anchor="start" x="821.62" y="-269.95" font-family="Times New Roman,Times,Liberation Serif,serif" font-size="14.00">name</text>
<polygon fill="none" stroke="black" points="854.62,-263.75 854.62,-286.25 913.88,-286.25 913.88,-263.75 854.62,-263.75"/>
<text text-anchor="start" x="877.5" y="-269.95" font-family="Times New Roman,Times,Liberation Serif,serif" font-size="14.00">str</text>
<polygon fill="none" stroke="black" points="818.62,-241.25 818.62,-263.75 854.62,-263.75 854.62,-241.25 818.62,-241.25"/>
<text text-anchor="start" x="833.25" y="-247.45" font-family="Times New Roman,Times,Liberation Serif,serif" font-size="14.00">x</text>
<polygon fill="none" stroke="black" points="854.62,-241.25 854.62,-263.75 913.88,-263.75 913.88,-241.25 854.62,-241.25"/>
<text text-anchor="start" x="871.88" y="-247.45" font-family="Times New Roman,Times,Liberation Serif,serif" font-size="14.00">float</text>
<polygon fill="none" stroke="black" points="818.62,-218.75 818.62,-241.25 854.62,-241.25 854.62,-218.75 818.62,-218.75"/>
<text text-anchor="start" x="833.25" y="-224.95" font-family="Times New Roman,Times,Liberation Serif,serif" font-size="14.00">y</text>
<polygon fill="none" stroke="black" points="854.62,-218.75 854.62,-241.25 913.88,-241.25 913.88,-218.75 854.62,-218.75"/>
<text text-anchor="start" x="871.88" y="-224.95" font-family="Times New Roman,Times,Liberation Serif,serif" font-size="14.00">float</text>
<polygon fill="none" stroke="black" points="818.62,-196.25 818.62,-218.75 854.62,-218.75 854.62,-196.25 818.62,-196.25"/>
<text text-anchor="start" x="828.75" y="-202.45" font-family="Times New Roman,Times,Liberation Serif,serif" font-size="14.00">crs</text>
<polygon fill="none" stroke="black" points="854.62,-196.25 854.62,-218.75 913.88,-218.75 913.88,-196.25 854.62,-196.25"/>
<text text-anchor="start" x="857.62" y="-202.45" font-family="Times New Roman,Times,Liberation Serif,serif" font-size="14.00">str | None</text>
</a>
</g>
</g>
<!-- gdm.distribution.components.distribution_bus.DistributionBus&#45;&gt;infrasys.location.Location -->
<g id="edge4" class="edge">
<title>gdm.distribution.components.distribution_bus.DistributionBus:e&#45;&gt;infrasys.location.Location:w</title>
<path fill="none" stroke="black" d="M671.43,-402.06C734.02,-396.15 741.64,-333.02 799.06,-321.72"/>
<polyline fill="none" stroke="black" points="661.75,-402.5 666.74,-402.27"/>
<polyline fill="none" stroke="black" points="666.74,-402.27 671.74,-402.04"/>
<polyline fill="none" stroke="black" points="817.62,-320 812.65,-320.46"/>
<polygon fill="black" stroke="black" points="811.19,-315.58 812.11,-325.53 810.12,-325.72 809.2,-315.76 811.19,-315.58"/>
<polyline fill="none" stroke="black" points="812.65,-320.46 807.67,-320.93"/>
<ellipse fill="none" stroke="black" cx="803.19" cy="-321.34" rx="4" ry="4"/>
</g>
<!-- gdm.distribution.components.distribution_substation.DistributionSubstation&#45;&gt;gdm.distribution.components.distribution_feeder.DistributionFeeder -->
<g id="edge5" class="edge">
<title>gdm.distribution.components.distribution_substation.DistributionSubstation:e&#45;&gt;gdm.distribution.components.distribution_feeder.DistributionFeeder:w</title>
<path fill="none" stroke="black" d="M965.36,-737.26C1006.44,-730.81 1010.4,-684.08 1048.24,-674.12"/>
<polyline fill="none" stroke="black" points="955.5,-738 960.49,-737.63"/>
<polyline fill="none" stroke="black" points="960.49,-737.63 965.47,-737.25"/>
<polygon fill="black" stroke="black" points="1053.24,-673.5 1063.71,-676.76 1058.54,-672.86 1062.84,-672.33 1062.84,-672.33 1062.84,-672.33 1058.54,-672.86 1062.62,-667.82 1053.24,-673.5"/>
<polyline fill="none" stroke="black" points="1052.03,-673.65 1047.07,-674.26"/>
</g>
<!-- gdm.distribution.components.sequence_impedance_branch.SequenceImpedanceBranch -->
<g id="node7" class="node">
<title>gdm.distribution.components.sequence_impedance_branch.SequenceImpedanceBranch</title>
<g id="a_node7"><a xlink:title="gdm.distribution.components.sequence_impedance_branch.SequenceImpedanceBranch&#10;&#10;Interface for sequence impedance branch.&#10;">
<polygon fill="none" stroke="black" points="0,-739.75 0,-762.25 280.5,-762.25 280.5,-739.75 0,-739.75"/>
<text text-anchor="start" x="59.62" y="-746.95" font-family="Times New Roman,Times,Liberation Serif,serif" font-weight="bold" font-size="14.00">SequenceImpedanceBranch</text>
<polygon fill="none" stroke="black" points="0,-717.25 0,-739.75 63.75,-739.75 63.75,-717.25 0,-717.25"/>
<text text-anchor="start" x="19.88" y="-723.45" font-family="Times New Roman,Times,Liberation Serif,serif" font-size="14.00">uuid</text>
<polygon fill="none" stroke="black" points="63.75,-717.25 63.75,-739.75 280.5,-739.75 280.5,-717.25 63.75,-717.25"/>
<text text-anchor="start" x="155.25" y="-723.45" font-family="Times New Roman,Times,Liberation Serif,serif" font-size="14.00">UUID</text>
<polygon fill="none" stroke="black" points="0,-694.75 0,-717.25 63.75,-717.25 63.75,-694.75 0,-694.75"/>
<text text-anchor="start" x="16.88" y="-700.95" font-family="Times New Roman,Times,Liberation Serif,serif" font-size="14.00">name</text>
<polygon fill="none" stroke="black" points="63.75,-694.75 63.75,-717.25 280.5,-717.25 280.5,-694.75 63.75,-694.75"/>
<text text-anchor="start" x="165.38" y="-700.95" font-family="Times New Roman,Times,Liberation Serif,serif" font-size="14.00">str</text>
<polygon fill="none" stroke="black" points="0,-672.25 0,-694.75 63.75,-694.75 63.75,-672.25 0,-672.25"/>
<text text-anchor="start" x="4.5" y="-678.45" font-family="Times New Roman,Times,Liberation Serif,serif" font-size="14.00">substation</text>
<polygon fill="none" stroke="black" points="63.75,-672.25 63.75,-694.75 280.5,-694.75 280.5,-672.25 63.75,-672.25"/>
<text text-anchor="start" x="82.88" y="-678.45" font-family="Times New Roman,Times,Liberation Serif,serif" font-size="14.00">Optional[DistributionSubstation]</text>
<polygon fill="none" stroke="black" points="0,-649.75 0,-672.25 63.75,-672.25 63.75,-649.75 0,-649.75"/>
<text text-anchor="start" x="15" y="-655.95" font-family="Times New Roman,Times,Liberation Serif,serif" font-size="14.00">feeder</text>
<polygon fill="none" stroke="black" points="63.75,-649.75 63.75,-672.25 280.5,-672.25 280.5,-649.75 63.75,-649.75"/>
<text text-anchor="start" x="93" y="-655.95" font-family="Times New Roman,Times,Liberation Serif,serif" font-size="14.00">Optional[DistributionFeeder]</text>
<polygon fill="none" stroke="black" points="0,-627.25 0,-649.75 63.75,-649.75 63.75,-627.25 0,-627.25"/>
<text text-anchor="start" x="4.12" y="-633.45" font-family="Times New Roman,Times,Liberation Serif,serif" font-size="14.00">in_service</text>
<polygon fill="none" stroke="black" points="63.75,-627.25 63.75,-649.75 280.5,-649.75 280.5,-627.25 63.75,-627.25"/>
<text text-anchor="start" x="160.12" y="-633.45" font-family="Times New Roman,Times,Liberation Serif,serif" font-size="14.00">bool</text>
<polygon fill="none" stroke="black" points="0,-604.75 0,-627.25 63.75,-627.25 63.75,-604.75 0,-604.75"/>
<text text-anchor="start" x="16.88" y="-610.95" font-family="Times New Roman,Times,Liberation Serif,serif" font-size="14.00">buses</text>
<polygon fill="none" stroke="black" points="63.75,-604.75 63.75,-627.25 280.5,-627.25 280.5,-604.75 63.75,-604.75"/>
<text text-anchor="start" x="116.25" y="-610.95" font-family="Times New Roman,Times,Liberation Serif,serif" font-size="14.00">list[DistributionBus]</text>
<polygon fill="none" stroke="black" points="0,-582.25 0,-604.75 63.75,-604.75 63.75,-582.25 0,-582.25"/>
<text text-anchor="start" x="15" y="-588.45" font-family="Times New Roman,Times,Liberation Serif,serif" font-size="14.00">length</text>
<polygon fill="none" stroke="black" points="63.75,-582.25 63.75,-604.75 280.5,-604.75 280.5,-582.25 63.75,-582.25"/>
<text text-anchor="start" x="126.75" y="-588.45" font-family="Times New Roman,Times,Liberation Serif,serif" font-size="14.00">PositiveDistance</text>
<polygon fill="none" stroke="black" points="0,-559.75 0,-582.25 63.75,-582.25 63.75,-559.75 0,-559.75"/>
<text text-anchor="start" x="13.88" y="-565.95" font-family="Times New Roman,Times,Liberation Serif,serif" font-size="14.00">phases</text>
<polygon fill="none" stroke="black" points="63.75,-559.75 63.75,-582.25 280.5,-582.25 280.5,-559.75 63.75,-559.75"/>
<text text-anchor="start" x="143.62" y="-565.95" font-family="Times New Roman,Times,Liberation Serif,serif" font-size="14.00">list[Phase]</text>
<polygon fill="none" stroke="black" points="0,-537.25 0,-559.75 63.75,-559.75 63.75,-537.25 0,-537.25"/>
<text text-anchor="start" x="3" y="-543.45" font-family="Times New Roman,Times,Liberation Serif,serif" font-size="14.00">equipment</text>
<polygon fill="none" stroke="black" points="63.75,-537.25 63.75,-559.75 280.5,-559.75 280.5,-537.25 63.75,-537.25"/>
<text text-anchor="start" x="66.75" y="-543.45" font-family="Times New Roman,Times,Liberation Serif,serif" font-size="14.00">SequenceImpedanceBranchEquipment</text>
</a>
</g>
</g>
<!-- gdm.distribution.components.sequence_impedance_branch.SequenceImpedanceBranch&#45;&gt;gdm.distribution.components.distribution_bus.DistributionBus -->
<g id="edge6" class="edge">
<title>gdm.distribution.components.sequence_impedance_branch.SequenceImpedanceBranch:e&#45;&gt;gdm.distribution.components.distribution_bus.DistributionBus:w</title>
<path fill="none" stroke="black" d="M290.26,-615.86C328.84,-614.73 344.17,-607.07 380.64,-605.34"/>
<polyline fill="none" stroke="black" points="280.5,-616 285.5,-615.93"/>
<polyline fill="none" stroke="black" points="285.5,-615.93 290.5,-615.86"/>
<polygon fill="black" stroke="black" points="385.42,-605.23 395.52,-609.51 390.75,-605.11 395.08,-605.02 395.08,-605.02 395.08,-605.02 390.75,-605.11 395.31,-600.51 385.42,-605.23"/>
<polyline fill="none" stroke="black" points="384.2,-605.26 379.2,-605.38"/>
</g>
<!-- gdm.distribution.components.sequence_impedance_branch.SequenceImpedanceBranch&#45;&gt;gdm.distribution.components.distribution_feeder.DistributionFeeder -->
<g id="edge7" class="edge">
<title>gdm.distribution.components.sequence_impedance_branch.SequenceImpedanceBranch:e&#45;&gt;gdm.distribution.components.distribution_feeder.DistributionFeeder:w</title>
<path fill="none" stroke="black" d="M290.37,-661C623.91,-661.21 715.4,-671.84 1044.57,-672.24"/>
<polyline fill="none" stroke="black" points="280.5,-661 285.5,-661"/>
<polyline fill="none" stroke="black" points="285.5,-661 290.5,-661"/>
<polyline fill="none" stroke="black" points="1063.5,-672.25 1058.5,-672.25"/>
<polygon fill="black" stroke="black" points="1057.5,-667.25 1057.5,-677.25 1055.5,-677.25 1055.5,-667.25 1057.5,-667.25"/>
<polyline fill="none" stroke="black" points="1058.5,-672.25 1053.5,-672.24"/>
<ellipse fill="none" stroke="black" cx="1049" cy="-672.24" rx="4" ry="4"/>
</g>
<!-- gdm.distribution.components.sequence_impedance_branch.SequenceImpedanceBranch&#45;&gt;gdm.distribution.components.distribution_substation.DistributionSubstation -->
<g id="edge8" class="edge">
<title>gdm.distribution.components.sequence_impedance_branch.SequenceImpedanceBranch:e&#45;&gt;gdm.distribution.components.distribution_substation.DistributionSubstation:w</title>
<path fill="none" stroke="black" d="M290.16,-683.77C402.47,-689.75 639.69,-793.63 758.33,-804.57"/>
<polyline fill="none" stroke="black" points="280.5,-683.5 285.5,-683.64"/>
<polyline fill="none" stroke="black" points="285.5,-683.64 290.5,-683.78"/>
<polyline fill="none" stroke="black" points="777,-805.5 772.01,-805.25"/>
<polygon fill="black" stroke="black" points="771.26,-800.21 770.76,-810.2 768.76,-810.1 769.26,-800.11 771.26,-800.21"/>
<polyline fill="none" stroke="black" points="772.01,-805.25 767.01,-805"/>
<ellipse fill="none" stroke="black" cx="762.52" cy="-804.78" rx="4" ry="4"/>
</g>
<!-- gdm.distribution.equipment.sequence_impedance_branch_equipment.SequenceImpedanceBranchEquipment -->
<g id="node8" class="node">
<title>gdm.distribution.equipment.sequence_impedance_branch_equipment.SequenceImpedanceBranchEquipment</title>
<g id="a_node8"><a xlink:title="gdm.distribution.equipment.sequence_impedance_branch_equipment.SequenceImpedanceBranchEquipment&#10;&#10;Interface for sequence impedance branch.&#10;">
<polygon fill="none" stroke="black" points="388.5,-333 388.5,-355.5 669,-355.5 669,-333 388.5,-333"/>
<text text-anchor="start" x="415.5" y="-340.2" font-family="Times New Roman,Times,Liberation Serif,serif" font-weight="bold" font-size="14.00">SequenceImpedanceBranchEquipment</text>
<polygon fill="none" stroke="black" points="388.5,-310.5 388.5,-333 512.25,-333 512.25,-310.5 388.5,-310.5"/>
<text text-anchor="start" x="438.38" y="-316.7" font-family="Times New Roman,Times,Liberation Serif,serif" font-size="14.00">uuid</text>
<polygon fill="none" stroke="black" points="512.25,-310.5 512.25,-333 669,-333 669,-310.5 512.25,-310.5"/>
<text text-anchor="start" x="573.75" y="-316.7" font-family="Times New Roman,Times,Liberation Serif,serif" font-size="14.00">UUID</text>
<polygon fill="none" stroke="black" points="388.5,-288 388.5,-310.5 512.25,-310.5 512.25,-288 388.5,-288"/>
<text text-anchor="start" x="435.38" y="-294.2" font-family="Times New Roman,Times,Liberation Serif,serif" font-size="14.00">name</text>
<polygon fill="none" stroke="black" points="512.25,-288 512.25,-310.5 669,-310.5 669,-288 512.25,-288"/>
<text text-anchor="start" x="583.88" y="-294.2" font-family="Times New Roman,Times,Liberation Serif,serif" font-size="14.00">str</text>
<polygon fill="none" stroke="black" points="388.5,-265.5 388.5,-288 512.25,-288 512.25,-265.5 388.5,-265.5"/>
<text text-anchor="start" x="398.62" y="-271.7" font-family="Times New Roman,Times,Liberation Serif,serif" font-size="14.00">pos_seq_resistance</text>
<polygon fill="none" stroke="black" points="512.25,-265.5 512.25,-288 669,-288 669,-265.5 512.25,-265.5"/>
<text text-anchor="start" x="534" y="-271.7" font-family="Times New Roman,Times,Liberation Serif,serif" font-size="14.00">ResistancePULength</text>
<polygon fill="none" stroke="black" points="388.5,-243 388.5,-265.5 512.25,-265.5 512.25,-243 388.5,-243"/>
<text text-anchor="start" x="396.38" y="-249.2" font-family="Times New Roman,Times,Liberation Serif,serif" font-size="14.00">zero_seq_resistance</text>
<polygon fill="none" stroke="black" points="512.25,-243 512.25,-265.5 669,-265.5 669,-243 512.25,-243"/>
<text text-anchor="start" x="534" y="-249.2" font-family="Times New Roman,Times,Liberation Serif,serif" font-size="14.00">ResistancePULength</text>
<polygon fill="none" stroke="black" points="388.5,-220.5 388.5,-243 512.25,-243 512.25,-220.5 388.5,-220.5"/>
<text text-anchor="start" x="399.75" y="-226.7" font-family="Times New Roman,Times,Liberation Serif,serif" font-size="14.00">pos_seq_reactance</text>
<polygon fill="none" stroke="black" points="512.25,-220.5 512.25,-243 669,-243 669,-220.5 512.25,-220.5"/>
<text text-anchor="start" x="535.12" y="-226.7" font-family="Times New Roman,Times,Liberation Serif,serif" font-size="14.00">ReactancePULength</text>
<polygon fill="none" stroke="black" points="388.5,-198 388.5,-220.5 512.25,-220.5 512.25,-198 388.5,-198"/>
<text text-anchor="start" x="397.5" y="-204.2" font-family="Times New Roman,Times,Liberation Serif,serif" font-size="14.00">zero_seq_reactance</text>
<polygon fill="none" stroke="black" points="512.25,-198 512.25,-220.5 669,-220.5 669,-198 512.25,-198"/>
<text text-anchor="start" x="535.12" y="-204.2" font-family="Times New Roman,Times,Liberation Serif,serif" font-size="14.00">ReactancePULength</text>
<polygon fill="none" stroke="black" points="388.5,-175.5 388.5,-198 512.25,-198 512.25,-175.5 388.5,-175.5"/>
<text text-anchor="start" x="393.75" y="-181.7" font-family="Times New Roman,Times,Liberation Serif,serif" font-size="14.00">pos_seq_capacitance</text>
<polygon fill="none" stroke="black" points="512.25,-175.5 512.25,-198 669,-198 669,-175.5 512.25,-175.5"/>
<text text-anchor="start" x="529.88" y="-181.7" font-family="Times New Roman,Times,Liberation Serif,serif" font-size="14.00">CapacitancePULength</text>
<polygon fill="none" stroke="black" points="388.5,-153 388.5,-175.5 512.25,-175.5 512.25,-153 388.5,-153"/>
<text text-anchor="start" x="391.5" y="-159.2" font-family="Times New Roman,Times,Liberation Serif,serif" font-size="14.00">zero_seq_capacitance</text>
<polygon fill="none" stroke="black" points="512.25,-153 512.25,-175.5 669,-175.5 669,-153 512.25,-153"/>
<text text-anchor="start" x="529.88" y="-159.2" font-family="Times New Roman,Times,Liberation Serif,serif" font-size="14.00">CapacitancePULength</text>
<polygon fill="none" stroke="black" points="388.5,-130.5 388.5,-153 512.25,-153 512.25,-130.5 388.5,-130.5"/>
<text text-anchor="start" x="425.25" y="-136.7" font-family="Times New Roman,Times,Liberation Serif,serif" font-size="14.00">ampacity</text>
<polygon fill="none" stroke="black" points="512.25,-130.5 512.25,-153 669,-153 669,-130.5 512.25,-130.5"/>
<text text-anchor="start" x="548.25" y="-136.7" font-family="Times New Roman,Times,Liberation Serif,serif" font-size="14.00">PositiveCurrent</text>
<polygon fill="none" stroke="black" points="388.5,-108 388.5,-130.5 512.25,-130.5 512.25,-108 388.5,-108"/>
<text text-anchor="start" x="413.62" y="-114.2" font-family="Times New Roman,Times,Liberation Serif,serif" font-size="14.00">loading_limit</text>
<polygon fill="none" stroke="black" points="512.25,-108 512.25,-130.5 669,-130.5 669,-108 512.25,-108"/>
<text text-anchor="start" x="515.25" y="-114.2" font-family="Times New Roman,Times,Liberation Serif,serif" font-size="14.00">Optional[ThermalLimitSet]</text>
</a>
</g>
</g>
<!-- gdm.distribution.components.sequence_impedance_branch.SequenceImpedanceBranch&#45;&gt;gdm.distribution.equipment.sequence_impedance_branch_equipment.SequenceImpedanceBranchEquipment -->
<g id="edge9" class="edge">
<title>gdm.distribution.components.sequence_impedance_branch.SequenceImpedanceBranch:e&#45;&gt;gdm.distribution.equipment.sequence_impedance_branch_equipment.SequenceImpedanceBranchEquipment:w</title>
<path fill="none" stroke="black" d="M290.34,-547.8C372.04,-535.49 298.37,-364.56 373.84,-345.9"/>
<polyline fill="none" stroke="black" points="280.5,-548.5 285.49,-548.15"/>
<polyline fill="none" stroke="black" points="285.49,-548.15 290.47,-547.79"/>
<polyline fill="none" stroke="black" points="388.5,-344.25 383.53,-344.81"/>
<polygon fill="black" stroke="black" points="381.98,-339.95 383.1,-349.89 381.11,-350.11 379.99,-340.18 381.98,-339.95"/>
<polyline fill="none" stroke="black" points="383.53,-344.81 378.56,-345.37"/>
<polygon fill="black" stroke="black" points="377.01,-340.51 378.13,-350.45 376.14,-350.67 375.02,-340.74 377.01,-340.51"/>
<polyline fill="none" stroke="black" points="378.56,-345.37 373.59,-345.93"/>
</g>
<!-- gdm.distribution.equipment.sequence_impedance_branch_equipment.SequenceImpedanceBranchEquipment&#45;&gt;gdm.distribution.common.limitset.ThermalLimitSet -->
<g id="edge10" class="edge">
<title>gdm.distribution.equipment.sequence_impedance_branch_equipment.SequenceImpedanceBranchEquipment:e&#45;&gt;gdm.distribution.common.limitset.ThermalLimitSet:w</title>
<path fill="none" stroke="black" d="M678.81,-119.26C717.91,-119.3 734.33,-119.64 770.12,-119.73"/>
<polyline fill="none" stroke="black" points="669,-119.25 674,-119.25"/>
<polyline fill="none" stroke="black" points="674,-119.25 679,-119.26"/>
<polyline fill="none" stroke="black" points="788.75,-119.75 783.75,-119.74"/>
<polygon fill="black" stroke="black" points="782.76,-114.74 782.74,-124.74 780.74,-124.74 780.76,-114.74 782.76,-114.74"/>
<polyline fill="none" stroke="black" points="783.75,-119.74 778.75,-119.74"/>
<ellipse fill="none" stroke="black" cx="774.25" cy="-119.73" rx="4" ry="4"/>
</g>
</g>
</svg>
