<?xml version="1.0" encoding="UTF-8" standalone="no"?>
<!DOCTYPE svg PUBLIC "-//W3C//DTD SVG 1.1//EN"
 "http://www.w3.org/Graphics/SVG/1.1/DTD/svg11.dtd">
<!-- Generated by graphviz version 12.2.1 (20241206.2353)
 -->
<!-- Title: Entity Relationship Diagram created by erdantic Pages: 1 -->
<svg width="275pt" height="252pt"
 viewBox="0.00 0.00 274.50 251.50" xmlns="http://www.w3.org/2000/svg" xmlns:xlink="http://www.w3.org/1999/xlink">
<g id="graph0" class="graph" transform="scale(1 1) rotate(0) translate(4 247.5)">
<title>Entity Relationship Diagram created by erdantic</title>
<polygon fill="white" stroke="none" points="-4,4 -4,-247.5 270.5,-247.5 270.5,4 -4,4"/>
<text text-anchor="middle" x="133.25" y="-5.95" font-family="Times New Roman,Times,Liberation Serif,serif" font-size="9.00" fill="#a8a8a8">Created by erdantic v1.0.5 &lt;https://github.com/drivendataorg/erdantic&gt;</text>
<!-- gdm.distribution.equipment.sequence_impedance_branch_equipment.SequenceImpedanceBranchEquipment -->
<g id="node1" class="node">
<title>gdm.distribution.equipment.sequence_impedance_branch_equipment.SequenceImpedanceBranchEquipment</title>
<g id="a_node1"><a xlink:title="gdm.distribution.equipment.sequence_impedance_branch_equipment.SequenceImpedanceBranchEquipment&#10;&#10;Data model for sequence impedance branch.&#10;">
<polygon fill="none" stroke="black" points="7.62,-221 7.62,-243.5 258.88,-243.5 258.88,-221 7.62,-221"/>
<text text-anchor="start" x="20" y="-228.2" font-family="Times New Roman,Times,Liberation Serif,serif" font-weight="bold" font-size="14.00">SequenceImpedanceBranchEquipment</text>
<polygon fill="none" stroke="black" points="7.62,-198.5 7.62,-221 131.38,-221 131.38,-198.5 7.62,-198.5"/>
<text text-anchor="start" x="57.5" y="-204.7" font-family="Times New Roman,Times,Liberation Serif,serif" font-size="14.00">uuid</text>
<polygon fill="none" stroke="black" points="131.38,-198.5 131.38,-221 258.88,-221 258.88,-198.5 131.38,-198.5"/>
<text text-anchor="start" x="178.25" y="-204.7" font-family="Times New Roman,Times,Liberation Serif,serif" font-size="14.00">UUID</text>
<polygon fill="none" stroke="black" points="7.62,-176 7.62,-198.5 131.38,-198.5 131.38,-176 7.62,-176"/>
<text text-anchor="start" x="54.5" y="-182.2" font-family="Times New Roman,Times,Liberation Serif,serif" font-size="14.00">name</text>
<polygon fill="none" stroke="black" points="131.38,-176 131.38,-198.5 258.88,-198.5 258.88,-176 131.38,-176"/>
<text text-anchor="start" x="188.38" y="-182.2" font-family="Times New Roman,Times,Liberation Serif,serif" font-size="14.00">str</text>
<polygon fill="none" stroke="black" points="7.62,-153.5 7.62,-176 131.38,-176 131.38,-153.5 7.62,-153.5"/>
<text text-anchor="start" x="17.75" y="-159.7" font-family="Times New Roman,Times,Liberation Serif,serif" font-size="14.00">pos_seq_resistance</text>
<polygon fill="none" stroke="black" points="131.38,-153.5 131.38,-176 258.88,-176 258.88,-153.5 131.38,-153.5"/>
<text text-anchor="start" x="138.5" y="-159.7" font-family="Times New Roman,Times,Liberation Serif,serif" font-size="14.00">ResistancePULength</text>
<polygon fill="none" stroke="black" points="7.62,-131 7.62,-153.5 131.38,-153.5 131.38,-131 7.62,-131"/>
<text text-anchor="start" x="15.5" y="-137.2" font-family="Times New Roman,Times,Liberation Serif,serif" font-size="14.00">zero_seq_resistance</text>
<polygon fill="none" stroke="black" points="131.38,-131 131.38,-153.5 258.88,-153.5 258.88,-131 131.38,-131"/>
<text text-anchor="start" x="138.5" y="-137.2" font-family="Times New Roman,Times,Liberation Serif,serif" font-size="14.00">ResistancePULength</text>
<polygon fill="none" stroke="black" points="7.62,-108.5 7.62,-131 131.38,-131 131.38,-108.5 7.62,-108.5"/>
<text text-anchor="start" x="18.88" y="-114.7" font-family="Times New Roman,Times,Liberation Serif,serif" font-size="14.00">pos_seq_reactance</text>
<polygon fill="none" stroke="black" points="131.38,-108.5 131.38,-131 258.88,-131 258.88,-108.5 131.38,-108.5"/>
<text text-anchor="start" x="139.62" y="-114.7" font-family="Times New Roman,Times,Liberation Serif,serif" font-size="14.00">ReactancePULength</text>
<polygon fill="none" stroke="black" points="7.62,-86 7.62,-108.5 131.38,-108.5 131.38,-86 7.62,-86"/>
<text text-anchor="start" x="16.62" y="-92.2" font-family="Times New Roman,Times,Liberation Serif,serif" font-size="14.00">zero_seq_reactance</text>
<polygon fill="none" stroke="black" points="131.38,-86 131.38,-108.5 258.88,-108.5 258.88,-86 131.38,-86"/>
<text text-anchor="start" x="139.62" y="-92.2" font-family="Times New Roman,Times,Liberation Serif,serif" font-size="14.00">ReactancePULength</text>
<polygon fill="none" stroke="black" points="7.62,-63.5 7.62,-86 131.38,-86 131.38,-63.5 7.62,-63.5"/>
<text text-anchor="start" x="12.88" y="-69.7" font-family="Times New Roman,Times,Liberation Serif,serif" font-size="14.00">pos_seq_capacitance</text>
<polygon fill="none" stroke="black" points="131.38,-63.5 131.38,-86 258.88,-86 258.88,-63.5 131.38,-63.5"/>
<text text-anchor="start" x="134.38" y="-69.7" font-family="Times New Roman,Times,Liberation Serif,serif" font-size="14.00">CapacitancePULength</text>
<polygon fill="none" stroke="black" points="7.62,-41 7.62,-63.5 131.38,-63.5 131.38,-41 7.62,-41"/>
<text text-anchor="start" x="10.62" y="-47.2" font-family="Times New Roman,Times,Liberation Serif,serif" font-size="14.00">zero_seq_capacitance</text>
<polygon fill="none" stroke="black" points="131.38,-41 131.38,-63.5 258.88,-63.5 258.88,-41 131.38,-41"/>
<text text-anchor="start" x="134.38" y="-47.2" font-family="Times New Roman,Times,Liberation Serif,serif" font-size="14.00">CapacitancePULength</text>
<polygon fill="none" stroke="black" points="7.62,-18.5 7.62,-41 131.38,-41 131.38,-18.5 7.62,-18.5"/>
<text text-anchor="start" x="44.38" y="-24.7" font-family="Times New Roman,Times,Liberation Serif,serif" font-size="14.00">ampacity</text>
<polygon fill="none" stroke="black" points="131.38,-18.5 131.38,-41 258.88,-41 258.88,-18.5 131.38,-18.5"/>
<text text-anchor="start" x="152.75" y="-24.7" font-family="Times New Roman,Times,Liberation Serif,serif" font-size="14.00">PositiveCurrent</text>
</a>
</g>
</g>
</g>
</svg>
