<?xml version="1.0" encoding="UTF-8" standalone="no"?>
<!DOCTYPE svg PUBLIC "-//W3C//DTD SVG 1.1//EN"
 "http://www.w3.org/Graphics/SVG/1.1/DTD/svg11.dtd">
<!-- Generated by graphviz version 9.0.0 (0)
 -->
<!-- Title: Entity Relationship Diagram created by erdantic Pages: 1 -->
<svg width="1186pt" height="811pt"
 viewBox="0.00 0.00 1186.00 810.50" xmlns="http://www.w3.org/2000/svg" xmlns:xlink="http://www.w3.org/1999/xlink">
<g id="graph0" class="graph" transform="scale(1 1) rotate(0) translate(4 806.5)">
<title>Entity Relationship Diagram created by erdantic</title>
<polygon fill="white" stroke="none" points="-4,4 -4,-806.5 1182,-806.5 1182,4 -4,4"/>
<text text-anchor="middle" x="589" y="-5.95" font-family="Times New Roman,Times,Liberation Serif,serif" font-size="9.00" fill="#a8a8a8">Created by erdantic v0.6.0 &lt;https://github.com/drivendataorg/erdantic&gt;</text>
<!-- gdm.distribution.components.distribution_bus.DistributionBus -->
<g id="node1" class="node">
<title>gdm.distribution.components.distribution_bus.DistributionBus</title>
<g id="a_node1"><a xlink:title="gdm.distribution.components.distribution_bus.DistributionBus&#10;&#10;Interface for distribution bus.&#10;&#10;Examples:&#10; &#160;&#160;&#160;&gt;&gt;&gt; from gdm import DistributionBus&#10; &#160;&#160;&#160;&gt;&gt;&gt; DistributionBus.example()&#10;">
<polygon fill="none" stroke="black" points="387,-582.5 387,-604.5 668,-604.5 668,-582.5 387,-582.5"/>
<text text-anchor="start" x="481.38" y="-589.2" font-family="Times New Roman,Times,Liberation Serif,serif" font-weight="bold" font-size="14.00">DistributionBus</text>
<polygon fill="none" stroke="black" points="387,-560.5 387,-582.5 484,-582.5 484,-560.5 387,-560.5"/>
<text text-anchor="start" x="423.5" y="-566.2" font-family="Times New Roman,Times,Liberation Serif,serif" font-size="14.00">uuid</text>
<polygon fill="none" stroke="black" points="484,-560.5 484,-582.5 668,-582.5 668,-560.5 484,-560.5"/>
<text text-anchor="start" x="559.12" y="-566.2" font-family="Times New Roman,Times,Liberation Serif,serif" font-size="14.00">UUID</text>
<polygon fill="none" stroke="black" points="387,-538.5 387,-560.5 484,-560.5 484,-538.5 387,-538.5"/>
<text text-anchor="start" x="420.5" y="-544.2" font-family="Times New Roman,Times,Liberation Serif,serif" font-size="14.00">name</text>
<polygon fill="none" stroke="black" points="484,-538.5 484,-560.5 668,-560.5 668,-538.5 484,-538.5"/>
<text text-anchor="start" x="569.25" y="-544.2" font-family="Times New Roman,Times,Liberation Serif,serif" font-size="14.00">str</text>
<polygon fill="none" stroke="black" points="387,-516.5 387,-538.5 484,-538.5 484,-516.5 387,-516.5"/>
<text text-anchor="start" x="408.12" y="-522.2" font-family="Times New Roman,Times,Liberation Serif,serif" font-size="14.00">substation</text>
<polygon fill="none" stroke="black" points="484,-516.5 484,-538.5 668,-538.5 668,-516.5 484,-516.5"/>
<text text-anchor="start" x="486.75" y="-522.2" font-family="Times New Roman,Times,Liberation Serif,serif" font-size="14.00">Optional[DistributionSubstation]</text>
<polygon fill="none" stroke="black" points="387,-494.5 387,-516.5 484,-516.5 484,-494.5 387,-494.5"/>
<text text-anchor="start" x="418.62" y="-500.2" font-family="Times New Roman,Times,Liberation Serif,serif" font-size="14.00">feeder</text>
<polygon fill="none" stroke="black" points="484,-494.5 484,-516.5 668,-516.5 668,-494.5 484,-494.5"/>
<text text-anchor="start" x="496.88" y="-500.2" font-family="Times New Roman,Times,Liberation Serif,serif" font-size="14.00">Optional[DistributionFeeder]</text>
<polygon fill="none" stroke="black" points="387,-472.5 387,-494.5 484,-494.5 484,-472.5 387,-472.5"/>
<text text-anchor="start" x="400.62" y="-478.2" font-family="Times New Roman,Times,Liberation Serif,serif" font-size="14.00">voltage_type</text>
<polygon fill="none" stroke="black" points="484,-472.5 484,-494.5 668,-494.5 668,-472.5 484,-472.5"/>
<text text-anchor="start" x="539.25" y="-478.2" font-family="Times New Roman,Times,Liberation Serif,serif" font-size="14.00">VoltageTypes</text>
<polygon fill="none" stroke="black" points="387,-450.5 387,-472.5 484,-472.5 484,-450.5 387,-450.5"/>
<text text-anchor="start" x="417.5" y="-456.2" font-family="Times New Roman,Times,Liberation Serif,serif" font-size="14.00">phases</text>
<polygon fill="none" stroke="black" points="484,-450.5 484,-472.5 668,-472.5 668,-450.5 484,-450.5"/>
<text text-anchor="start" x="547.5" y="-456.2" font-family="Times New Roman,Times,Liberation Serif,serif" font-size="14.00">list[Phase]</text>
<polygon fill="none" stroke="black" points="387,-428.5 387,-450.5 484,-450.5 484,-428.5 387,-428.5"/>
<text text-anchor="start" x="399.88" y="-434.2" font-family="Times New Roman,Times,Liberation Serif,serif" font-size="14.00">voltagelimits</text>
<polygon fill="none" stroke="black" points="484,-428.5 484,-450.5 668,-450.5 668,-428.5 484,-428.5"/>
<text text-anchor="start" x="518.62" y="-434.2" font-family="Times New Roman,Times,Liberation Serif,serif" font-size="14.00">list[VoltageLimitSet]</text>
<polygon fill="none" stroke="black" points="387,-406.5 387,-428.5 484,-428.5 484,-406.5 387,-406.5"/>
<text text-anchor="start" x="389.75" y="-412.2" font-family="Times New Roman,Times,Liberation Serif,serif" font-size="14.00">nominal_voltage</text>
<polygon fill="none" stroke="black" points="484,-406.5 484,-428.5 668,-428.5 668,-406.5 484,-406.5"/>
<text text-anchor="start" x="533.62" y="-412.2" font-family="Times New Roman,Times,Liberation Serif,serif" font-size="14.00">PositiveVoltage</text>
<polygon fill="none" stroke="black" points="387,-384.5 387,-406.5 484,-406.5 484,-384.5 387,-384.5"/>
<text text-anchor="start" x="407" y="-390.2" font-family="Times New Roman,Times,Liberation Serif,serif" font-size="14.00">coordinate</text>
<polygon fill="none" stroke="black" points="484,-384.5 484,-406.5 668,-406.5 668,-384.5 484,-384.5"/>
<text text-anchor="start" x="523.88" y="-390.2" font-family="Times New Roman,Times,Liberation Serif,serif" font-size="14.00">Optional[Location]</text>
</a>
</g>
</g>
<!-- gdm.distribution.components.distribution_feeder.DistributionFeeder -->
<g id="node2" class="node">
<title>gdm.distribution.components.distribution_feeder.DistributionFeeder</title>
<g id="a_node2"><a xlink:title="gdm.distribution.components.distribution_feeder.DistributionFeeder&#10;&#10;Class interface for distribution feeder.&#10;">
<polygon fill="none" stroke="black" points="1062,-648.5 1062,-670.5 1178,-670.5 1178,-648.5 1062,-648.5"/>
<text text-anchor="start" x="1064.88" y="-655.2" font-family="Times New Roman,Times,Liberation Serif,serif" font-weight="bold" font-size="14.00">DistributionFeeder</text>
<polygon fill="none" stroke="black" points="1062,-626.5 1062,-648.5 1118,-648.5 1118,-626.5 1062,-626.5"/>
<text text-anchor="start" x="1078" y="-632.2" font-family="Times New Roman,Times,Liberation Serif,serif" font-size="14.00">uuid</text>
<polygon fill="none" stroke="black" points="1118,-626.5 1118,-648.5 1178,-648.5 1178,-626.5 1118,-626.5"/>
<text text-anchor="start" x="1131.12" y="-632.2" font-family="Times New Roman,Times,Liberation Serif,serif" font-size="14.00">UUID</text>
<polygon fill="none" stroke="black" points="1062,-604.5 1062,-626.5 1118,-626.5 1118,-604.5 1062,-604.5"/>
<text text-anchor="start" x="1075" y="-610.2" font-family="Times New Roman,Times,Liberation Serif,serif" font-size="14.00">name</text>
<polygon fill="none" stroke="black" points="1118,-604.5 1118,-626.5 1178,-626.5 1178,-604.5 1118,-604.5"/>
<text text-anchor="start" x="1141.25" y="-610.2" font-family="Times New Roman,Times,Liberation Serif,serif" font-size="14.00">str</text>
</a>
</g>
</g>
<!-- gdm.distribution.components.distribution_bus.DistributionBus&#45;&gt;gdm.distribution.components.distribution_feeder.DistributionFeeder -->
<g id="edge1" class="edge">
<title>gdm.distribution.components.distribution_bus.DistributionBus:e&#45;&gt;gdm.distribution.components.distribution_feeder.DistributionFeeder:w</title>
<path fill="none" stroke="black" d="M677.73,-506C769.26,-514.94 946.31,-641.5 1043.18,-657.78"/>
<polyline fill="none" stroke="black" points="668,-505.5 672.99,-505.76"/>
<polyline fill="none" stroke="black" points="672.99,-505.76 677.99,-506.01"/>
<polyline fill="none" stroke="black" points="1062,-659.5 1057.02,-659.05"/>
<polygon fill="black" stroke="black" points="1056.48,-653.97 1055.57,-663.93 1053.58,-663.75 1054.49,-653.79 1056.48,-653.97"/>
<polyline fill="none" stroke="black" points="1057.02,-659.05 1052.04,-658.59"/>
<ellipse fill="none" stroke="black" cx="1047.56" cy="-658.18" rx="4" ry="4"/>
</g>
<!-- gdm.distribution.components.distribution_substation.DistributionSubstation -->
<g id="node3" class="node">
<title>gdm.distribution.components.distribution_substation.DistributionSubstation</title>
<g id="a_node3"><a xlink:title="gdm.distribution.components.distribution_substation.DistributionSubstation&#10;&#10;Class interface for distribution feeder.&#10;">
<polygon fill="none" stroke="black" points="776,-780.5 776,-802.5 954,-802.5 954,-780.5 776,-780.5"/>
<text text-anchor="start" x="799" y="-787.2" font-family="Times New Roman,Times,Liberation Serif,serif" font-weight="bold" font-size="14.00">DistributionSubstation</text>
<polygon fill="none" stroke="black" points="776,-758.5 776,-780.5 821,-780.5 821,-758.5 776,-758.5"/>
<text text-anchor="start" x="786.5" y="-764.2" font-family="Times New Roman,Times,Liberation Serif,serif" font-size="14.00">uuid</text>
<polygon fill="none" stroke="black" points="821,-758.5 821,-780.5 954,-780.5 954,-758.5 821,-758.5"/>
<text text-anchor="start" x="870.62" y="-764.2" font-family="Times New Roman,Times,Liberation Serif,serif" font-size="14.00">UUID</text>
<polygon fill="none" stroke="black" points="776,-736.5 776,-758.5 821,-758.5 821,-736.5 776,-736.5"/>
<text text-anchor="start" x="783.5" y="-742.2" font-family="Times New Roman,Times,Liberation Serif,serif" font-size="14.00">name</text>
<polygon fill="none" stroke="black" points="821,-736.5 821,-758.5 954,-758.5 954,-736.5 821,-736.5"/>
<text text-anchor="start" x="880.75" y="-742.2" font-family="Times New Roman,Times,Liberation Serif,serif" font-size="14.00">str</text>
<polygon fill="none" stroke="black" points="776,-714.5 776,-736.5 821,-736.5 821,-714.5 776,-714.5"/>
<text text-anchor="start" x="779" y="-720.2" font-family="Times New Roman,Times,Liberation Serif,serif" font-size="14.00">feeders</text>
<polygon fill="none" stroke="black" points="821,-714.5 821,-736.5 954,-736.5 954,-714.5 821,-714.5"/>
<text text-anchor="start" x="823.75" y="-720.2" font-family="Times New Roman,Times,Liberation Serif,serif" font-size="14.00">list[DistributionFeeder]</text>
</a>
</g>
</g>
<!-- gdm.distribution.components.distribution_bus.DistributionBus&#45;&gt;gdm.distribution.components.distribution_substation.DistributionSubstation -->
<g id="edge2" class="edge">
<title>gdm.distribution.components.distribution_bus.DistributionBus:e&#45;&gt;gdm.distribution.components.distribution_substation.DistributionSubstation:w</title>
<path fill="none" stroke="black" d="M677.8,-528.08C780.72,-540.95 667.36,-763.5 757.16,-789.11"/>
<polyline fill="none" stroke="black" points="668,-527.5 672.99,-527.8"/>
<polyline fill="none" stroke="black" points="672.99,-527.8 677.98,-528.09"/>
<polyline fill="none" stroke="black" points="776,-791.5 771.04,-790.87"/>
<polygon fill="black" stroke="black" points="770.68,-785.78 769.42,-795.7 767.43,-795.45 768.69,-785.53 770.68,-785.78"/>
<polyline fill="none" stroke="black" points="771.04,-790.87 766.08,-790.24"/>
<ellipse fill="none" stroke="black" cx="761.62" cy="-789.67" rx="4" ry="4"/>
</g>
<!-- gdm.distribution.limitset.VoltageLimitSet -->
<g id="node4" class="node">
<title>gdm.distribution.limitset.VoltageLimitSet</title>
<g id="a_node4"><a xlink:title="gdm.distribution.limitset.VoltageLimitSet&#10;&#10;Interface for voltage limit set.&#10;">
<polygon fill="none" stroke="black" points="789,-468.5 789,-490.5 941,-490.5 941,-468.5 789,-468.5"/>
<text text-anchor="start" x="817.75" y="-475.2" font-family="Times New Roman,Times,Liberation Serif,serif" font-weight="bold" font-size="14.00">VoltageLimitSet</text>
<polygon fill="none" stroke="black" points="789,-446.5 789,-468.5 851,-468.5 851,-446.5 789,-446.5"/>
<text text-anchor="start" x="808" y="-452.2" font-family="Times New Roman,Times,Liberation Serif,serif" font-size="14.00">uuid</text>
<polygon fill="none" stroke="black" points="851,-446.5 851,-468.5 941,-468.5 941,-446.5 851,-446.5"/>
<text text-anchor="start" x="879.12" y="-452.2" font-family="Times New Roman,Times,Liberation Serif,serif" font-size="14.00">UUID</text>
<polygon fill="none" stroke="black" points="789,-424.5 789,-446.5 851,-446.5 851,-424.5 789,-424.5"/>
<text text-anchor="start" x="805" y="-430.2" font-family="Times New Roman,Times,Liberation Serif,serif" font-size="14.00">name</text>
<polygon fill="none" stroke="black" points="851,-424.5 851,-446.5 941,-446.5 941,-424.5 851,-424.5"/>
<text text-anchor="start" x="889.25" y="-430.2" font-family="Times New Roman,Times,Liberation Serif,serif" font-size="14.00">str</text>
<polygon fill="none" stroke="black" points="789,-402.5 789,-424.5 851,-424.5 851,-402.5 789,-402.5"/>
<text text-anchor="start" x="791.88" y="-408.2" font-family="Times New Roman,Times,Liberation Serif,serif" font-size="14.00">limit_type</text>
<polygon fill="none" stroke="black" points="851,-402.5 851,-424.5 941,-424.5 941,-402.5 851,-402.5"/>
<text text-anchor="start" x="867.12" y="-408.2" font-family="Times New Roman,Times,Liberation Serif,serif" font-size="14.00">LimitType</text>
<polygon fill="none" stroke="black" points="789,-380.5 789,-402.5 851,-402.5 851,-380.5 789,-380.5"/>
<text text-anchor="start" x="805.38" y="-386.2" font-family="Times New Roman,Times,Liberation Serif,serif" font-size="14.00">value</text>
<polygon fill="none" stroke="black" points="851,-380.5 851,-402.5 941,-402.5 941,-380.5 851,-380.5"/>
<text text-anchor="start" x="853.62" y="-386.2" font-family="Times New Roman,Times,Liberation Serif,serif" font-size="14.00">PositiveVoltage</text>
</a>
</g>
</g>
<!-- gdm.distribution.components.distribution_bus.DistributionBus&#45;&gt;gdm.distribution.limitset.VoltageLimitSet -->
<g id="edge3" class="edge">
<title>gdm.distribution.components.distribution_bus.DistributionBus:e&#45;&gt;gdm.distribution.limitset.VoltageLimitSet:w</title>
<path fill="none" stroke="black" d="M677.7,-439.92C720.01,-443.72 732.52,-472.02 771.85,-478.28"/>
<polyline fill="none" stroke="black" points="668,-439.5 673,-439.72"/>
<polyline fill="none" stroke="black" points="673,-439.72 677.99,-439.93"/>
<polygon fill="black" stroke="black" points="777.69,-478.72 787.33,-483.96 783.01,-479.12 787.33,-479.45 787.33,-479.45 787.33,-479.45 783.01,-479.12 788.01,-474.99 777.69,-478.72"/>
<polyline fill="none" stroke="black" points="776.48,-478.63 771.49,-478.25"/>
</g>
<!-- infrasys.location.Location -->
<g id="node5" class="node">
<title>infrasys.location.Location</title>
<g id="a_node5"><a xlink:title="infrasys.location.Location&#10;&#10;Specifies geographic location.&#10;">
<polygon fill="none" stroke="black" points="817.5,-322.5 817.5,-344.5 912.5,-344.5 912.5,-322.5 817.5,-322.5"/>
<text text-anchor="start" x="839.5" y="-329.2" font-family="Times New Roman,Times,Liberation Serif,serif" font-weight="bold" font-size="14.00">Location</text>
<polygon fill="none" stroke="black" points="817.5,-300.5 817.5,-322.5 853.5,-322.5 853.5,-300.5 817.5,-300.5"/>
<text text-anchor="start" x="823.5" y="-306.2" font-family="Times New Roman,Times,Liberation Serif,serif" font-size="14.00">uuid</text>
<polygon fill="none" stroke="black" points="853.5,-300.5 853.5,-322.5 912.5,-322.5 912.5,-300.5 853.5,-300.5"/>
<text text-anchor="start" x="866.12" y="-306.2" font-family="Times New Roman,Times,Liberation Serif,serif" font-size="14.00">UUID</text>
<polygon fill="none" stroke="black" points="817.5,-278.5 817.5,-300.5 853.5,-300.5 853.5,-278.5 817.5,-278.5"/>
<text text-anchor="start" x="820.5" y="-284.2" font-family="Times New Roman,Times,Liberation Serif,serif" font-size="14.00">name</text>
<polygon fill="none" stroke="black" points="853.5,-278.5 853.5,-300.5 912.5,-300.5 912.5,-278.5 853.5,-278.5"/>
<text text-anchor="start" x="876.25" y="-284.2" font-family="Times New Roman,Times,Liberation Serif,serif" font-size="14.00">str</text>
<polygon fill="none" stroke="black" points="817.5,-256.5 817.5,-278.5 853.5,-278.5 853.5,-256.5 817.5,-256.5"/>
<text text-anchor="start" x="832.12" y="-262.2" font-family="Times New Roman,Times,Liberation Serif,serif" font-size="14.00">x</text>
<polygon fill="none" stroke="black" points="853.5,-256.5 853.5,-278.5 912.5,-278.5 912.5,-256.5 853.5,-256.5"/>
<text text-anchor="start" x="870.62" y="-262.2" font-family="Times New Roman,Times,Liberation Serif,serif" font-size="14.00">float</text>
<polygon fill="none" stroke="black" points="817.5,-234.5 817.5,-256.5 853.5,-256.5 853.5,-234.5 817.5,-234.5"/>
<text text-anchor="start" x="832.12" y="-240.2" font-family="Times New Roman,Times,Liberation Serif,serif" font-size="14.00">y</text>
<polygon fill="none" stroke="black" points="853.5,-234.5 853.5,-256.5 912.5,-256.5 912.5,-234.5 853.5,-234.5"/>
<text text-anchor="start" x="870.62" y="-240.2" font-family="Times New Roman,Times,Liberation Serif,serif" font-size="14.00">float</text>
<polygon fill="none" stroke="black" points="817.5,-212.5 817.5,-234.5 853.5,-234.5 853.5,-212.5 817.5,-212.5"/>
<text text-anchor="start" x="827.62" y="-218.2" font-family="Times New Roman,Times,Liberation Serif,serif" font-size="14.00">crs</text>
<polygon fill="none" stroke="black" points="853.5,-212.5 853.5,-234.5 912.5,-234.5 912.5,-212.5 853.5,-212.5"/>
<text text-anchor="start" x="856.38" y="-218.2" font-family="Times New Roman,Times,Liberation Serif,serif" font-size="14.00">str | None</text>
</a>
</g>
</g>
<!-- gdm.distribution.components.distribution_bus.DistributionBus&#45;&gt;infrasys.location.Location -->
<g id="edge4" class="edge">
<title>gdm.distribution.components.distribution_bus.DistributionBus:e&#45;&gt;infrasys.location.Location:w</title>
<path fill="none" stroke="black" d="M677.99,-395.07C733.82,-390.14 746,-344.17 797.39,-335.06"/>
<polyline fill="none" stroke="black" points="668,-395.5 673,-395.29"/>
<polyline fill="none" stroke="black" points="673,-395.29 677.99,-395.07"/>
<polyline fill="none" stroke="black" points="816,-333.5 811.02,-333.92"/>
<polygon fill="black" stroke="black" points="809.6,-329.02 810.44,-338.99 808.45,-339.15 807.61,-329.19 809.6,-329.02"/>
<polyline fill="none" stroke="black" points="811.02,-333.92 806.04,-334.34"/>
<ellipse fill="none" stroke="black" cx="801.55" cy="-334.71" rx="4" ry="4"/>
</g>
<!-- gdm.distribution.components.distribution_substation.DistributionSubstation&#45;&gt;gdm.distribution.components.distribution_feeder.DistributionFeeder -->
<g id="edge5" class="edge">
<title>gdm.distribution.components.distribution_substation.DistributionSubstation:e&#45;&gt;gdm.distribution.components.distribution_feeder.DistributionFeeder:w</title>
<path fill="none" stroke="black" d="M963.87,-724.76C1004.89,-718.3 1008.85,-671.58 1046.48,-661.44"/>
<polyline fill="none" stroke="black" points="954,-725.5 958.99,-725.13"/>
<polyline fill="none" stroke="black" points="958.99,-725.13 963.97,-724.75"/>
<polygon fill="black" stroke="black" points="1051.75,-660.78 1062.23,-664.01 1057.04,-660.12 1061.34,-659.58 1061.34,-659.58 1061.34,-659.58 1057.04,-660.12 1061.11,-655.08 1051.75,-660.78"/>
<polyline fill="none" stroke="black" points="1050.54,-660.93 1045.57,-661.55"/>
</g>
<!-- gdm.distribution.components.sequence_impedance_branch.SequenceImpedanceBranch -->
<g id="node6" class="node">
<title>gdm.distribution.components.sequence_impedance_branch.SequenceImpedanceBranch</title>
<g id="a_node6"><a xlink:title="gdm.distribution.components.sequence_impedance_branch.SequenceImpedanceBranch&#10;&#10;Interface for sequence impedance branch.&#10;">
<polygon fill="none" stroke="black" points="0,-725.5 0,-747.5 279,-747.5 279,-725.5 0,-725.5"/>
<text text-anchor="start" x="58.88" y="-732.2" font-family="Times New Roman,Times,Liberation Serif,serif" font-weight="bold" font-size="14.00">SequenceImpedanceBranch</text>
<polygon fill="none" stroke="black" points="0,-703.5 0,-725.5 63,-725.5 63,-703.5 0,-703.5"/>
<text text-anchor="start" x="19.5" y="-709.2" font-family="Times New Roman,Times,Liberation Serif,serif" font-size="14.00">uuid</text>
<polygon fill="none" stroke="black" points="63,-703.5 63,-725.5 279,-725.5 279,-703.5 63,-703.5"/>
<text text-anchor="start" x="154.12" y="-709.2" font-family="Times New Roman,Times,Liberation Serif,serif" font-size="14.00">UUID</text>
<polygon fill="none" stroke="black" points="0,-681.5 0,-703.5 63,-703.5 63,-681.5 0,-681.5"/>
<text text-anchor="start" x="16.5" y="-687.2" font-family="Times New Roman,Times,Liberation Serif,serif" font-size="14.00">name</text>
<polygon fill="none" stroke="black" points="63,-681.5 63,-703.5 279,-703.5 279,-681.5 63,-681.5"/>
<text text-anchor="start" x="164.25" y="-687.2" font-family="Times New Roman,Times,Liberation Serif,serif" font-size="14.00">str</text>
<polygon fill="none" stroke="black" points="0,-659.5 0,-681.5 63,-681.5 63,-659.5 0,-659.5"/>
<text text-anchor="start" x="4.12" y="-665.2" font-family="Times New Roman,Times,Liberation Serif,serif" font-size="14.00">substation</text>
<polygon fill="none" stroke="black" points="63,-659.5 63,-681.5 279,-681.5 279,-659.5 63,-659.5"/>
<text text-anchor="start" x="81.75" y="-665.2" font-family="Times New Roman,Times,Liberation Serif,serif" font-size="14.00">Optional[DistributionSubstation]</text>
<polygon fill="none" stroke="black" points="0,-637.5 0,-659.5 63,-659.5 63,-637.5 0,-637.5"/>
<text text-anchor="start" x="14.62" y="-643.2" font-family="Times New Roman,Times,Liberation Serif,serif" font-size="14.00">feeder</text>
<polygon fill="none" stroke="black" points="63,-637.5 63,-659.5 279,-659.5 279,-637.5 63,-637.5"/>
<text text-anchor="start" x="91.88" y="-643.2" font-family="Times New Roman,Times,Liberation Serif,serif" font-size="14.00">Optional[DistributionFeeder]</text>
<polygon fill="none" stroke="black" points="0,-615.5 0,-637.5 63,-637.5 63,-615.5 0,-615.5"/>
<text text-anchor="start" x="3.75" y="-621.2" font-family="Times New Roman,Times,Liberation Serif,serif" font-size="14.00">in_service</text>
<polygon fill="none" stroke="black" points="63,-615.5 63,-637.5 279,-637.5 279,-615.5 63,-615.5"/>
<text text-anchor="start" x="159" y="-621.2" font-family="Times New Roman,Times,Liberation Serif,serif" font-size="14.00">bool</text>
<polygon fill="none" stroke="black" points="0,-593.5 0,-615.5 63,-615.5 63,-593.5 0,-593.5"/>
<text text-anchor="start" x="16.5" y="-599.2" font-family="Times New Roman,Times,Liberation Serif,serif" font-size="14.00">buses</text>
<polygon fill="none" stroke="black" points="63,-593.5 63,-615.5 279,-615.5 279,-593.5 63,-593.5"/>
<text text-anchor="start" x="115.12" y="-599.2" font-family="Times New Roman,Times,Liberation Serif,serif" font-size="14.00">list[DistributionBus]</text>
<polygon fill="none" stroke="black" points="0,-571.5 0,-593.5 63,-593.5 63,-571.5 0,-571.5"/>
<text text-anchor="start" x="14.62" y="-577.2" font-family="Times New Roman,Times,Liberation Serif,serif" font-size="14.00">length</text>
<polygon fill="none" stroke="black" points="63,-571.5 63,-593.5 279,-593.5 279,-571.5 63,-571.5"/>
<text text-anchor="start" x="125.62" y="-577.2" font-family="Times New Roman,Times,Liberation Serif,serif" font-size="14.00">PositiveDistance</text>
<polygon fill="none" stroke="black" points="0,-549.5 0,-571.5 63,-571.5 63,-549.5 0,-549.5"/>
<text text-anchor="start" x="13.5" y="-555.2" font-family="Times New Roman,Times,Liberation Serif,serif" font-size="14.00">phases</text>
<polygon fill="none" stroke="black" points="63,-549.5 63,-571.5 279,-571.5 279,-549.5 63,-549.5"/>
<text text-anchor="start" x="142.5" y="-555.2" font-family="Times New Roman,Times,Liberation Serif,serif" font-size="14.00">list[Phase]</text>
<polygon fill="none" stroke="black" points="0,-527.5 0,-549.5 63,-549.5 63,-527.5 0,-527.5"/>
<text text-anchor="start" x="2.62" y="-533.2" font-family="Times New Roman,Times,Liberation Serif,serif" font-size="14.00">equipment</text>
<polygon fill="none" stroke="black" points="63,-527.5 63,-549.5 279,-549.5 279,-527.5 63,-527.5"/>
<text text-anchor="start" x="65.62" y="-533.2" font-family="Times New Roman,Times,Liberation Serif,serif" font-size="14.00">SequenceImpedanceBranchEquipment</text>
</a>
</g>
</g>
<!-- gdm.distribution.components.sequence_impedance_branch.SequenceImpedanceBranch&#45;&gt;gdm.distribution.components.distribution_bus.DistributionBus -->
<g id="edge6" class="edge">
<title>gdm.distribution.components.sequence_impedance_branch.SequenceImpedanceBranch:e&#45;&gt;gdm.distribution.components.distribution_bus.DistributionBus:w</title>
<path fill="none" stroke="black" d="M288.91,-604.34C323.76,-603.15 338.27,-595.87 370.7,-593.96"/>
<polyline fill="none" stroke="black" points="279,-604.5 284,-604.42"/>
<polyline fill="none" stroke="black" points="284,-604.42 289,-604.33"/>
<polygon fill="black" stroke="black" points="376.67,-593.79 386.79,-598.01 382,-593.64 386.33,-593.52 386.33,-593.52 386.33,-593.52 382,-593.64 386.54,-589.01 376.67,-593.79"/>
<polyline fill="none" stroke="black" points="375.45,-593.83 370.45,-593.97"/>
</g>
<!-- gdm.distribution.components.sequence_impedance_branch.SequenceImpedanceBranch&#45;&gt;gdm.distribution.components.distribution_feeder.DistributionFeeder -->
<g id="edge7" class="edge">
<title>gdm.distribution.components.sequence_impedance_branch.SequenceImpedanceBranch:e&#45;&gt;gdm.distribution.components.distribution_feeder.DistributionFeeder:w</title>
<path fill="none" stroke="black" d="M288.87,-648.5C622.41,-648.7 713.91,-659.1 1043.07,-659.49"/>
<polyline fill="none" stroke="black" points="279,-648.5 284,-648.5"/>
<polyline fill="none" stroke="black" points="284,-648.5 289,-648.5"/>
<polyline fill="none" stroke="black" points="1062,-659.5 1057,-659.5"/>
<polygon fill="black" stroke="black" points="1056,-654.5 1056,-664.5 1054,-664.5 1054,-654.5 1056,-654.5"/>
<polyline fill="none" stroke="black" points="1057,-659.5 1052,-659.49"/>
<ellipse fill="none" stroke="black" cx="1047.5" cy="-659.49" rx="4" ry="4"/>
</g>
<!-- gdm.distribution.components.sequence_impedance_branch.SequenceImpedanceBranch&#45;&gt;gdm.distribution.components.distribution_substation.DistributionSubstation -->
<g id="edge8" class="edge">
<title>gdm.distribution.components.sequence_impedance_branch.SequenceImpedanceBranch:e&#45;&gt;gdm.distribution.components.distribution_substation.DistributionSubstation:w</title>
<path fill="none" stroke="black" d="M288.67,-670.77C401.04,-676.7 638.6,-779.73 757.32,-790.58"/>
<polyline fill="none" stroke="black" points="279,-670.5 284,-670.64"/>
<polyline fill="none" stroke="black" points="284,-670.64 289,-670.78"/>
<polyline fill="none" stroke="black" points="776,-791.5 771.01,-791.25"/>
<polygon fill="black" stroke="black" points="770.25,-786.21 769.76,-796.2 767.76,-796.1 768.26,-786.11 770.25,-786.21"/>
<polyline fill="none" stroke="black" points="771.01,-791.25 766.01,-791.01"/>
<ellipse fill="none" stroke="black" cx="761.52" cy="-790.78" rx="4" ry="4"/>
</g>
<!-- gdm.distribution.equipment.sequence_impedance_branch_equipment.SequenceImpedanceBranchEquipment -->
<g id="node7" class="node">
<title>gdm.distribution.equipment.sequence_impedance_branch_equipment.SequenceImpedanceBranchEquipment</title>
<g id="a_node7"><a xlink:title="gdm.distribution.equipment.sequence_impedance_branch_equipment.SequenceImpedanceBranchEquipment&#10;&#10;Interface for sequence impedance branch.&#10;">
<polygon fill="none" stroke="black" points="388,-326.5 388,-348.5 667,-348.5 667,-326.5 388,-326.5"/>
<text text-anchor="start" x="414.25" y="-333.2" font-family="Times New Roman,Times,Liberation Serif,serif" font-weight="bold" font-size="14.00">SequenceImpedanceBranchEquipment</text>
<polygon fill="none" stroke="black" points="388,-304.5 388,-326.5 511,-326.5 511,-304.5 388,-304.5"/>
<text text-anchor="start" x="437.5" y="-310.2" font-family="Times New Roman,Times,Liberation Serif,serif" font-size="14.00">uuid</text>
<polygon fill="none" stroke="black" points="511,-304.5 511,-326.5 667,-326.5 667,-304.5 511,-304.5"/>
<text text-anchor="start" x="572.12" y="-310.2" font-family="Times New Roman,Times,Liberation Serif,serif" font-size="14.00">UUID</text>
<polygon fill="none" stroke="black" points="388,-282.5 388,-304.5 511,-304.5 511,-282.5 388,-282.5"/>
<text text-anchor="start" x="434.5" y="-288.2" font-family="Times New Roman,Times,Liberation Serif,serif" font-size="14.00">name</text>
<polygon fill="none" stroke="black" points="511,-282.5 511,-304.5 667,-304.5 667,-282.5 511,-282.5"/>
<text text-anchor="start" x="582.25" y="-288.2" font-family="Times New Roman,Times,Liberation Serif,serif" font-size="14.00">str</text>
<polygon fill="none" stroke="black" points="388,-260.5 388,-282.5 511,-282.5 511,-260.5 388,-260.5"/>
<text text-anchor="start" x="397.75" y="-266.2" font-family="Times New Roman,Times,Liberation Serif,serif" font-size="14.00">pos_seq_resistance</text>
<polygon fill="none" stroke="black" points="511,-260.5 511,-282.5 667,-282.5 667,-260.5 511,-260.5"/>
<text text-anchor="start" x="532.38" y="-266.2" font-family="Times New Roman,Times,Liberation Serif,serif" font-size="14.00">ResistancePULength</text>
<polygon fill="none" stroke="black" points="388,-238.5 388,-260.5 511,-260.5 511,-238.5 388,-238.5"/>
<text text-anchor="start" x="395.5" y="-244.2" font-family="Times New Roman,Times,Liberation Serif,serif" font-size="14.00">zero_seq_resistance</text>
<polygon fill="none" stroke="black" points="511,-238.5 511,-260.5 667,-260.5 667,-238.5 511,-238.5"/>
<text text-anchor="start" x="532.38" y="-244.2" font-family="Times New Roman,Times,Liberation Serif,serif" font-size="14.00">ResistancePULength</text>
<polygon fill="none" stroke="black" points="388,-216.5 388,-238.5 511,-238.5 511,-216.5 388,-216.5"/>
<text text-anchor="start" x="398.88" y="-222.2" font-family="Times New Roman,Times,Liberation Serif,serif" font-size="14.00">pos_seq_reactance</text>
<polygon fill="none" stroke="black" points="511,-216.5 511,-238.5 667,-238.5 667,-216.5 511,-216.5"/>
<text text-anchor="start" x="533.5" y="-222.2" font-family="Times New Roman,Times,Liberation Serif,serif" font-size="14.00">ReactancePULength</text>
<polygon fill="none" stroke="black" points="388,-194.5 388,-216.5 511,-216.5 511,-194.5 388,-194.5"/>
<text text-anchor="start" x="396.62" y="-200.2" font-family="Times New Roman,Times,Liberation Serif,serif" font-size="14.00">zero_seq_reactance</text>
<polygon fill="none" stroke="black" points="511,-194.5 511,-216.5 667,-216.5 667,-194.5 511,-194.5"/>
<text text-anchor="start" x="533.5" y="-200.2" font-family="Times New Roman,Times,Liberation Serif,serif" font-size="14.00">ReactancePULength</text>
<polygon fill="none" stroke="black" points="388,-172.5 388,-194.5 511,-194.5 511,-172.5 388,-172.5"/>
<text text-anchor="start" x="392.88" y="-178.2" font-family="Times New Roman,Times,Liberation Serif,serif" font-size="14.00">pos_seq_capacitance</text>
<polygon fill="none" stroke="black" points="511,-172.5 511,-194.5 667,-194.5 667,-172.5 511,-172.5"/>
<text text-anchor="start" x="528.25" y="-178.2" font-family="Times New Roman,Times,Liberation Serif,serif" font-size="14.00">CapacitancePULength</text>
<polygon fill="none" stroke="black" points="388,-150.5 388,-172.5 511,-172.5 511,-150.5 388,-150.5"/>
<text text-anchor="start" x="390.62" y="-156.2" font-family="Times New Roman,Times,Liberation Serif,serif" font-size="14.00">zero_seq_capacitance</text>
<polygon fill="none" stroke="black" points="511,-150.5 511,-172.5 667,-172.5 667,-150.5 511,-150.5"/>
<text text-anchor="start" x="528.25" y="-156.2" font-family="Times New Roman,Times,Liberation Serif,serif" font-size="14.00">CapacitancePULength</text>
<polygon fill="none" stroke="black" points="388,-128.5 388,-150.5 511,-150.5 511,-128.5 388,-128.5"/>
<text text-anchor="start" x="424.38" y="-134.2" font-family="Times New Roman,Times,Liberation Serif,serif" font-size="14.00">ampacity</text>
<polygon fill="none" stroke="black" points="511,-128.5 511,-150.5 667,-150.5 667,-128.5 511,-128.5"/>
<text text-anchor="start" x="546.62" y="-134.2" font-family="Times New Roman,Times,Liberation Serif,serif" font-size="14.00">PositiveCurrent</text>
<polygon fill="none" stroke="black" points="388,-106.5 388,-128.5 511,-128.5 511,-106.5 388,-106.5"/>
<text text-anchor="start" x="412.75" y="-112.2" font-family="Times New Roman,Times,Liberation Serif,serif" font-size="14.00">loading_limit</text>
<polygon fill="none" stroke="black" points="511,-106.5 511,-128.5 667,-128.5 667,-106.5 511,-106.5"/>
<text text-anchor="start" x="513.62" y="-112.2" font-family="Times New Roman,Times,Liberation Serif,serif" font-size="14.00">Optional[ThermalLimitSet]</text>
</a>
</g>
</g>
<!-- gdm.distribution.components.sequence_impedance_branch.SequenceImpedanceBranch&#45;&gt;gdm.distribution.equipment.sequence_impedance_branch_equipment.SequenceImpedanceBranchEquipment -->
<g id="edge9" class="edge">
<title>gdm.distribution.components.sequence_impedance_branch.SequenceImpedanceBranch:e&#45;&gt;gdm.distribution.equipment.sequence_impedance_branch_equipment.SequenceImpedanceBranchEquipment:w</title>
<path fill="none" stroke="black" d="M288.73,-537.81C369.49,-525.7 297.85,-357.48 372.52,-339.12"/>
<polyline fill="none" stroke="black" points="279,-538.5 283.99,-538.15"/>
<polyline fill="none" stroke="black" points="283.99,-538.15 288.98,-537.79"/>
<polyline fill="none" stroke="black" points="387,-337.5 382.03,-338.06"/>
<polygon fill="black" stroke="black" points="380.48,-333.2 381.59,-343.14 379.61,-343.36 378.49,-333.42 380.48,-333.2"/>
<polyline fill="none" stroke="black" points="382.03,-338.06 377.06,-338.61"/>
<polygon fill="black" stroke="black" points="375.51,-333.76 376.63,-343.69 374.64,-343.92 373.52,-333.98 375.51,-333.76"/>
<polyline fill="none" stroke="black" points="377.06,-338.61 372.09,-339.17"/>
</g>
<!-- gdm.distribution.limitset.ThermalLimitSet -->
<g id="node8" class="node">
<title>gdm.distribution.limitset.ThermalLimitSet</title>
<g id="a_node8"><a xlink:title="gdm.distribution.limitset.ThermalLimitSet&#10;&#10;Interface for voltage limit set.&#10;">
<polygon fill="none" stroke="black" points="789,-106.5 789,-128.5 941,-128.5 941,-106.5 789,-106.5"/>
<text text-anchor="start" x="814" y="-113.2" font-family="Times New Roman,Times,Liberation Serif,serif" font-weight="bold" font-size="14.00">ThermalLimitSet</text>
<polygon fill="none" stroke="black" points="789,-84.5 789,-106.5 851,-106.5 851,-84.5 789,-84.5"/>
<text text-anchor="start" x="808" y="-90.2" font-family="Times New Roman,Times,Liberation Serif,serif" font-size="14.00">uuid</text>
<polygon fill="none" stroke="black" points="851,-84.5 851,-106.5 941,-106.5 941,-84.5 851,-84.5"/>
<text text-anchor="start" x="879.12" y="-90.2" font-family="Times New Roman,Times,Liberation Serif,serif" font-size="14.00">UUID</text>
<polygon fill="none" stroke="black" points="789,-62.5 789,-84.5 851,-84.5 851,-62.5 789,-62.5"/>
<text text-anchor="start" x="805" y="-68.2" font-family="Times New Roman,Times,Liberation Serif,serif" font-size="14.00">name</text>
<polygon fill="none" stroke="black" points="851,-62.5 851,-84.5 941,-84.5 941,-62.5 851,-62.5"/>
<text text-anchor="start" x="889.25" y="-68.2" font-family="Times New Roman,Times,Liberation Serif,serif" font-size="14.00">str</text>
<polygon fill="none" stroke="black" points="789,-40.5 789,-62.5 851,-62.5 851,-40.5 789,-40.5"/>
<text text-anchor="start" x="791.88" y="-46.2" font-family="Times New Roman,Times,Liberation Serif,serif" font-size="14.00">limit_type</text>
<polygon fill="none" stroke="black" points="851,-40.5 851,-62.5 941,-62.5 941,-40.5 851,-40.5"/>
<text text-anchor="start" x="867.12" y="-46.2" font-family="Times New Roman,Times,Liberation Serif,serif" font-size="14.00">LimitType</text>
<polygon fill="none" stroke="black" points="789,-18.5 789,-40.5 851,-40.5 851,-18.5 789,-18.5"/>
<text text-anchor="start" x="805.38" y="-24.2" font-family="Times New Roman,Times,Liberation Serif,serif" font-size="14.00">value</text>
<polygon fill="none" stroke="black" points="851,-18.5 851,-40.5 941,-40.5 941,-18.5 851,-18.5"/>
<text text-anchor="start" x="853.62" y="-24.2" font-family="Times New Roman,Times,Liberation Serif,serif" font-size="14.00">PositiveCurrent</text>
</a>
</g>
</g>
<!-- gdm.distribution.equipment.sequence_impedance_branch_equipment.SequenceImpedanceBranchEquipment&#45;&gt;gdm.distribution.limitset.ThermalLimitSet -->
<g id="edge10" class="edge">
<title>gdm.distribution.equipment.sequence_impedance_branch_equipment.SequenceImpedanceBranchEquipment:e&#45;&gt;gdm.distribution.limitset.ThermalLimitSet:w</title>
<path fill="none" stroke="black" d="M677.84,-117.5C717.01,-117.5 733.46,-117.5 769.33,-117.5"/>
<polyline fill="none" stroke="black" points="668,-117.5 673,-117.5"/>
<polyline fill="none" stroke="black" points="673,-117.5 678,-117.5"/>
<polyline fill="none" stroke="black" points="788,-117.5 783,-117.5"/>
<polygon fill="black" stroke="black" points="782,-112.5 782,-122.5 780,-122.5 780,-112.5 782,-112.5"/>
<polyline fill="none" stroke="black" points="783,-117.5 778,-117.5"/>
<ellipse fill="none" stroke="black" cx="773.5" cy="-117.5" rx="4" ry="4"/>
</g>
</g>
</svg>
