<?xml version="1.0" encoding="UTF-8" standalone="no"?>
<!DOCTYPE svg PUBLIC "-//W3C//DTD SVG 1.1//EN"
 "http://www.w3.org/Graphics/SVG/1.1/DTD/svg11.dtd">
<!-- Generated by graphviz version 9.0.0 (0)
 -->
<!-- Title: Entity Relationship Diagram created by erdantic Pages: 1 -->
<svg width="547pt" height="357pt"
 viewBox="0.00 0.00 547.00 356.50" xmlns="http://www.w3.org/2000/svg" xmlns:xlink="http://www.w3.org/1999/xlink">
<g id="graph0" class="graph" transform="scale(1 1) rotate(0) translate(4 352.5)">
<title>Entity Relationship Diagram created by erdantic</title>
<polygon fill="white" stroke="none" points="-4,4 -4,-352.5 543,-352.5 543,4 -4,4"/>
<text text-anchor="middle" x="269.5" y="-5.95" font-family="Times New Roman,Times,Liberation Serif,serif" font-size="9.00" fill="#a8a8a8">Created by erdantic v0.6.0 &lt;https://github.com/drivendataorg/erdantic&gt;</text>
<!-- gdm.distribution.equipment.sequence_impedance_branch_equipment.SequenceImpedanceBranchEquipment -->
<g id="node1" class="node">
<title>gdm.distribution.equipment.sequence_impedance_branch_equipment.SequenceImpedanceBranchEquipment</title>
<g id="a_node1"><a xlink:title="gdm.distribution.equipment.sequence_impedance_branch_equipment.SequenceImpedanceBranchEquipment&#10;&#10;Interface for sequence impedance branch.&#10;">
<polygon fill="none" stroke="black" points="0,-326.5 0,-348.5 279,-348.5 279,-326.5 0,-326.5"/>
<text text-anchor="start" x="26.25" y="-333.2" font-family="Times New Roman,Times,Liberation Serif,serif" font-weight="bold" font-size="14.00">SequenceImpedanceBranchEquipment</text>
<polygon fill="none" stroke="black" points="0,-304.5 0,-326.5 123,-326.5 123,-304.5 0,-304.5"/>
<text text-anchor="start" x="49.5" y="-310.2" font-family="Times New Roman,Times,Liberation Serif,serif" font-size="14.00">uuid</text>
<polygon fill="none" stroke="black" points="123,-304.5 123,-326.5 279,-326.5 279,-304.5 123,-304.5"/>
<text text-anchor="start" x="184.12" y="-310.2" font-family="Times New Roman,Times,Liberation Serif,serif" font-size="14.00">UUID</text>
<polygon fill="none" stroke="black" points="0,-282.5 0,-304.5 123,-304.5 123,-282.5 0,-282.5"/>
<text text-anchor="start" x="46.5" y="-288.2" font-family="Times New Roman,Times,Liberation Serif,serif" font-size="14.00">name</text>
<polygon fill="none" stroke="black" points="123,-282.5 123,-304.5 279,-304.5 279,-282.5 123,-282.5"/>
<text text-anchor="start" x="194.25" y="-288.2" font-family="Times New Roman,Times,Liberation Serif,serif" font-size="14.00">str</text>
<polygon fill="none" stroke="black" points="0,-260.5 0,-282.5 123,-282.5 123,-260.5 0,-260.5"/>
<text text-anchor="start" x="9.75" y="-266.2" font-family="Times New Roman,Times,Liberation Serif,serif" font-size="14.00">pos_seq_resistance</text>
<polygon fill="none" stroke="black" points="123,-260.5 123,-282.5 279,-282.5 279,-260.5 123,-260.5"/>
<text text-anchor="start" x="144.38" y="-266.2" font-family="Times New Roman,Times,Liberation Serif,serif" font-size="14.00">ResistancePULength</text>
<polygon fill="none" stroke="black" points="0,-238.5 0,-260.5 123,-260.5 123,-238.5 0,-238.5"/>
<text text-anchor="start" x="7.5" y="-244.2" font-family="Times New Roman,Times,Liberation Serif,serif" font-size="14.00">zero_seq_resistance</text>
<polygon fill="none" stroke="black" points="123,-238.5 123,-260.5 279,-260.5 279,-238.5 123,-238.5"/>
<text text-anchor="start" x="144.38" y="-244.2" font-family="Times New Roman,Times,Liberation Serif,serif" font-size="14.00">ResistancePULength</text>
<polygon fill="none" stroke="black" points="0,-216.5 0,-238.5 123,-238.5 123,-216.5 0,-216.5"/>
<text text-anchor="start" x="10.88" y="-222.2" font-family="Times New Roman,Times,Liberation Serif,serif" font-size="14.00">pos_seq_reactance</text>
<polygon fill="none" stroke="black" points="123,-216.5 123,-238.5 279,-238.5 279,-216.5 123,-216.5"/>
<text text-anchor="start" x="145.5" y="-222.2" font-family="Times New Roman,Times,Liberation Serif,serif" font-size="14.00">ReactancePULength</text>
<polygon fill="none" stroke="black" points="0,-194.5 0,-216.5 123,-216.5 123,-194.5 0,-194.5"/>
<text text-anchor="start" x="8.62" y="-200.2" font-family="Times New Roman,Times,Liberation Serif,serif" font-size="14.00">zero_seq_reactance</text>
<polygon fill="none" stroke="black" points="123,-194.5 123,-216.5 279,-216.5 279,-194.5 123,-194.5"/>
<text text-anchor="start" x="145.5" y="-200.2" font-family="Times New Roman,Times,Liberation Serif,serif" font-size="14.00">ReactancePULength</text>
<polygon fill="none" stroke="black" points="0,-172.5 0,-194.5 123,-194.5 123,-172.5 0,-172.5"/>
<text text-anchor="start" x="4.88" y="-178.2" font-family="Times New Roman,Times,Liberation Serif,serif" font-size="14.00">pos_seq_capacitance</text>
<polygon fill="none" stroke="black" points="123,-172.5 123,-194.5 279,-194.5 279,-172.5 123,-172.5"/>
<text text-anchor="start" x="140.25" y="-178.2" font-family="Times New Roman,Times,Liberation Serif,serif" font-size="14.00">CapacitancePULength</text>
<polygon fill="none" stroke="black" points="0,-150.5 0,-172.5 123,-172.5 123,-150.5 0,-150.5"/>
<text text-anchor="start" x="2.62" y="-156.2" font-family="Times New Roman,Times,Liberation Serif,serif" font-size="14.00">zero_seq_capacitance</text>
<polygon fill="none" stroke="black" points="123,-150.5 123,-172.5 279,-172.5 279,-150.5 123,-150.5"/>
<text text-anchor="start" x="140.25" y="-156.2" font-family="Times New Roman,Times,Liberation Serif,serif" font-size="14.00">CapacitancePULength</text>
<polygon fill="none" stroke="black" points="0,-128.5 0,-150.5 123,-150.5 123,-128.5 0,-128.5"/>
<text text-anchor="start" x="36.38" y="-134.2" font-family="Times New Roman,Times,Liberation Serif,serif" font-size="14.00">ampacity</text>
<polygon fill="none" stroke="black" points="123,-128.5 123,-150.5 279,-150.5 279,-128.5 123,-128.5"/>
<text text-anchor="start" x="158.62" y="-134.2" font-family="Times New Roman,Times,Liberation Serif,serif" font-size="14.00">PositiveCurrent</text>
<polygon fill="none" stroke="black" points="0,-106.5 0,-128.5 123,-128.5 123,-106.5 0,-106.5"/>
<text text-anchor="start" x="24.75" y="-112.2" font-family="Times New Roman,Times,Liberation Serif,serif" font-size="14.00">loading_limit</text>
<polygon fill="none" stroke="black" points="123,-106.5 123,-128.5 279,-128.5 279,-106.5 123,-106.5"/>
<text text-anchor="start" x="125.62" y="-112.2" font-family="Times New Roman,Times,Liberation Serif,serif" font-size="14.00">Optional[ThermalLimitSet]</text>
</a>
</g>
</g>
<!-- gdm.distribution.limitset.ThermalLimitSet -->
<g id="node2" class="node">
<title>gdm.distribution.limitset.ThermalLimitSet</title>
<g id="a_node2"><a xlink:title="gdm.distribution.limitset.ThermalLimitSet&#10;&#10;Interface for voltage limit set.&#10;">
<polygon fill="none" stroke="black" points="387,-106.5 387,-128.5 539,-128.5 539,-106.5 387,-106.5"/>
<text text-anchor="start" x="412" y="-113.2" font-family="Times New Roman,Times,Liberation Serif,serif" font-weight="bold" font-size="14.00">ThermalLimitSet</text>
<polygon fill="none" stroke="black" points="387,-84.5 387,-106.5 449,-106.5 449,-84.5 387,-84.5"/>
<text text-anchor="start" x="406" y="-90.2" font-family="Times New Roman,Times,Liberation Serif,serif" font-size="14.00">uuid</text>
<polygon fill="none" stroke="black" points="449,-84.5 449,-106.5 539,-106.5 539,-84.5 449,-84.5"/>
<text text-anchor="start" x="477.12" y="-90.2" font-family="Times New Roman,Times,Liberation Serif,serif" font-size="14.00">UUID</text>
<polygon fill="none" stroke="black" points="387,-62.5 387,-84.5 449,-84.5 449,-62.5 387,-62.5"/>
<text text-anchor="start" x="403" y="-68.2" font-family="Times New Roman,Times,Liberation Serif,serif" font-size="14.00">name</text>
<polygon fill="none" stroke="black" points="449,-62.5 449,-84.5 539,-84.5 539,-62.5 449,-62.5"/>
<text text-anchor="start" x="487.25" y="-68.2" font-family="Times New Roman,Times,Liberation Serif,serif" font-size="14.00">str</text>
<polygon fill="none" stroke="black" points="387,-40.5 387,-62.5 449,-62.5 449,-40.5 387,-40.5"/>
<text text-anchor="start" x="389.88" y="-46.2" font-family="Times New Roman,Times,Liberation Serif,serif" font-size="14.00">limit_type</text>
<polygon fill="none" stroke="black" points="449,-40.5 449,-62.5 539,-62.5 539,-40.5 449,-40.5"/>
<text text-anchor="start" x="465.12" y="-46.2" font-family="Times New Roman,Times,Liberation Serif,serif" font-size="14.00">LimitType</text>
<polygon fill="none" stroke="black" points="387,-18.5 387,-40.5 449,-40.5 449,-18.5 387,-18.5"/>
<text text-anchor="start" x="403.38" y="-24.2" font-family="Times New Roman,Times,Liberation Serif,serif" font-size="14.00">value</text>
<polygon fill="none" stroke="black" points="449,-18.5 449,-40.5 539,-40.5 539,-18.5 449,-18.5"/>
<text text-anchor="start" x="451.62" y="-24.2" font-family="Times New Roman,Times,Liberation Serif,serif" font-size="14.00">PositiveCurrent</text>
</a>
</g>
</g>
<!-- gdm.distribution.equipment.sequence_impedance_branch_equipment.SequenceImpedanceBranchEquipment&#45;&gt;gdm.distribution.limitset.ThermalLimitSet -->
<g id="edge1" class="edge">
<title>gdm.distribution.equipment.sequence_impedance_branch_equipment.SequenceImpedanceBranchEquipment:e&#45;&gt;gdm.distribution.limitset.ThermalLimitSet:w</title>
<path fill="none" stroke="black" d="M288.87,-117.5C322.66,-117.5 337.59,-117.5 368.18,-117.5"/>
<polyline fill="none" stroke="black" points="279,-117.5 284,-117.5"/>
<polyline fill="none" stroke="black" points="284,-117.5 289,-117.5"/>
<polyline fill="none" stroke="black" points="387,-117.5 382,-117.5"/>
<polygon fill="black" stroke="black" points="381,-112.5 381,-122.5 379,-122.5 379,-112.5 381,-112.5"/>
<polyline fill="none" stroke="black" points="382,-117.5 377,-117.5"/>
<ellipse fill="none" stroke="black" cx="372.5" cy="-117.5" rx="4" ry="4"/>
</g>
</g>
</svg>
