<?xml version="1.0" encoding="UTF-8" standalone="no"?>
<!DOCTYPE svg PUBLIC "-//W3C//DTD SVG 1.1//EN"
 "http://www.w3.org/Graphics/SVG/1.1/DTD/svg11.dtd">
<!-- Generated by graphviz version 12.2.1 (20241206.2353)
 -->
<!-- Title: Entity Relationship Diagram created by erdantic Pages: 1 -->
<svg width="537pt" height="229pt"
 viewBox="0.00 0.00 536.75 229.00" xmlns="http://www.w3.org/2000/svg" xmlns:xlink="http://www.w3.org/1999/xlink">
<g id="graph0" class="graph" transform="scale(1 1) rotate(0) translate(4 225)">
<title>Entity Relationship Diagram created by erdantic</title>
<polygon fill="white" stroke="none" points="-4,4 -4,-225 532.75,-225 532.75,4 -4,4"/>
<text text-anchor="middle" x="264.38" y="-5.95" font-family="Times New Roman,Times,Liberation Serif,serif" font-size="9.00" fill="#a8a8a8">Created by erdantic v1.0.5 &lt;https://github.com/drivendataorg/erdantic&gt;</text>
<!-- gdm.distribution.common.curve.Curve -->
<g id="node1" class="node">
<title>gdm.distribution.common.curve.Curve</title>
<g id="a_node1"><a xlink:title="gdm.distribution.common.curve.Curve&#10;&#10;An interface for representing a curve using x and y points. e.g for volt&#45;var and volt&#45;watt curves.&#10;&#10;Examples&#10;&#45;&#45;&#45;&#45;&#45;&#45;&#45;&#45;&#10;&#10;Example of a Curve (Volt&#45;Var IEEE&#45;1547 standard).&#10;&#10;&gt;&gt;&gt; Curve(&#10; &#160;&#160;&#160;&#160;&#160;&#160;&#160;curve_x=[0.5, 0.92, 0.98, 1.02, 1.08, 1.5], curve_y=[1.0, 1.0, 0.0, 0.0, &#45;1.0, &#45;1.0]&#10; &#160;&#160;&#160;)&#10;&#10;Example of a Curve (Volt&#45;Var Volt&#45;Watt IEEE&#45;1547 standard)&#10;&#10;&gt;&gt;&gt; Curve(curve_x=[0.5, 1.06, 1.1, 1.5], curve_y=[1.0, 1.0, 0.0, 0.0])&#10;">
<polygon fill="none" stroke="black" points="339,-108.5 339,-131 528.75,-131 528.75,-108.5 339,-108.5"/>
<text text-anchor="start" x="415.88" y="-115.7" font-family="Times New Roman,Times,Liberation Serif,serif" font-weight="bold" font-size="14.00">Curve</text>
<polygon fill="none" stroke="black" points="339,-86 339,-108.5 388.5,-108.5 388.5,-86 339,-86"/>
<text text-anchor="start" x="351.75" y="-92.2" font-family="Times New Roman,Times,Liberation Serif,serif" font-size="14.00">uuid</text>
<polygon fill="none" stroke="black" points="388.5,-86 388.5,-108.5 528.75,-108.5 528.75,-86 388.5,-86"/>
<text text-anchor="start" x="441.75" y="-92.2" font-family="Times New Roman,Times,Liberation Serif,serif" font-size="14.00">UUID</text>
<polygon fill="none" stroke="black" points="339,-63.5 339,-86 388.5,-86 388.5,-63.5 339,-63.5"/>
<text text-anchor="start" x="348.75" y="-69.7" font-family="Times New Roman,Times,Liberation Serif,serif" font-size="14.00">name</text>
<polygon fill="none" stroke="black" points="388.5,-63.5 388.5,-86 528.75,-86 528.75,-63.5 388.5,-63.5"/>
<text text-anchor="start" x="451.88" y="-69.7" font-family="Times New Roman,Times,Liberation Serif,serif" font-size="14.00">str</text>
<polygon fill="none" stroke="black" points="339,-41 339,-63.5 388.5,-63.5 388.5,-41 339,-41"/>
<text text-anchor="start" x="342" y="-47.2" font-family="Times New Roman,Times,Liberation Serif,serif" font-size="14.00">curve_x</text>
<polygon fill="none" stroke="black" points="388.5,-41 388.5,-63.5 528.75,-63.5 528.75,-41 388.5,-41"/>
<text text-anchor="start" x="391.5" y="-47.2" font-family="Times New Roman,Times,Liberation Serif,serif" font-size="14.00">list[float] | BaseQuantity</text>
<polygon fill="none" stroke="black" points="339,-18.5 339,-41 388.5,-41 388.5,-18.5 339,-18.5"/>
<text text-anchor="start" x="342" y="-24.7" font-family="Times New Roman,Times,Liberation Serif,serif" font-size="14.00">curve_y</text>
<polygon fill="none" stroke="black" points="388.5,-18.5 388.5,-41 528.75,-41 528.75,-18.5 388.5,-18.5"/>
<text text-anchor="start" x="391.5" y="-24.7" font-family="Times New Roman,Times,Liberation Serif,serif" font-size="14.00">list[float] | BaseQuantity</text>
</a>
</g>
</g>
<!-- gdm.distribution.equipment.solar_equipment.SolarEquipment -->
<g id="node2" class="node">
<title>gdm.distribution.equipment.solar_equipment.SolarEquipment</title>
<g id="a_node2"><a xlink:title="gdm.distribution.equipment.solar_equipment.SolarEquipment&#10;&#10;Interface for Solar Model.&#10;">
<polygon fill="none" stroke="black" points="0,-198.5 0,-221 231,-221 231,-198.5 0,-198.5"/>
<text text-anchor="start" x="67.5" y="-205.7" font-family="Times New Roman,Times,Liberation Serif,serif" font-weight="bold" font-size="14.00">SolarEquipment</text>
<polygon fill="none" stroke="black" points="0,-176 0,-198.5 111,-198.5 111,-176 0,-176"/>
<text text-anchor="start" x="43.5" y="-182.2" font-family="Times New Roman,Times,Liberation Serif,serif" font-size="14.00">uuid</text>
<polygon fill="none" stroke="black" points="111,-176 111,-198.5 231,-198.5 231,-176 111,-176"/>
<text text-anchor="start" x="154.12" y="-182.2" font-family="Times New Roman,Times,Liberation Serif,serif" font-size="14.00">UUID</text>
<polygon fill="none" stroke="black" points="0,-153.5 0,-176 111,-176 111,-153.5 0,-153.5"/>
<text text-anchor="start" x="40.5" y="-159.7" font-family="Times New Roman,Times,Liberation Serif,serif" font-size="14.00">name</text>
<polygon fill="none" stroke="black" points="111,-153.5 111,-176 231,-176 231,-153.5 111,-153.5"/>
<text text-anchor="start" x="164.25" y="-159.7" font-family="Times New Roman,Times,Liberation Serif,serif" font-size="14.00">str</text>
<polygon fill="none" stroke="black" points="0,-131 0,-153.5 111,-153.5 111,-131 0,-131"/>
<text text-anchor="start" x="21.75" y="-137.2" font-family="Times New Roman,Times,Liberation Serif,serif" font-size="14.00">rated_power</text>
<polygon fill="none" stroke="black" points="111,-131 111,-153.5 231,-153.5 231,-131 111,-131"/>
<text text-anchor="start" x="114" y="-137.2" font-family="Times New Roman,Times,Liberation Serif,serif" font-size="14.00">PositiveActivePower</text>
<polygon fill="none" stroke="black" points="0,-108.5 0,-131 111,-131 111,-108.5 0,-108.5"/>
<text text-anchor="start" x="3" y="-114.7" font-family="Times New Roman,Times,Liberation Serif,serif" font-size="14.00">power_temp_curve</text>
<polygon fill="none" stroke="black" points="111,-108.5 111,-131 231,-131 231,-108.5 111,-108.5"/>
<text text-anchor="start" x="134.62" y="-114.7" font-family="Times New Roman,Times,Liberation Serif,serif" font-size="14.00">Curve | None</text>
<polygon fill="none" stroke="black" points="0,-86 0,-108.5 111,-108.5 111,-86 0,-86"/>
<text text-anchor="start" x="28.88" y="-92.2" font-family="Times New Roman,Times,Liberation Serif,serif" font-size="14.00">resistance</text>
<polygon fill="none" stroke="black" points="111,-86 111,-108.5 231,-108.5 231,-86 111,-86"/>
<text text-anchor="start" x="158.62" y="-92.2" font-family="Times New Roman,Times,Liberation Serif,serif" font-size="14.00">float</text>
<polygon fill="none" stroke="black" points="0,-63.5 0,-86 111,-86 111,-63.5 0,-63.5"/>
<text text-anchor="start" x="30" y="-69.7" font-family="Times New Roman,Times,Liberation Serif,serif" font-size="14.00">reactance</text>
<polygon fill="none" stroke="black" points="111,-63.5 111,-86 231,-86 231,-63.5 111,-63.5"/>
<text text-anchor="start" x="158.62" y="-69.7" font-family="Times New Roman,Times,Liberation Serif,serif" font-size="14.00">float</text>
<polygon fill="none" stroke="black" points="0,-41 0,-63.5 111,-63.5 111,-41 0,-41"/>
<text text-anchor="start" x="18.75" y="-47.2" font-family="Times New Roman,Times,Liberation Serif,serif" font-size="14.00">rated_voltage</text>
<polygon fill="none" stroke="black" points="111,-41 111,-63.5 231,-63.5 231,-41 111,-41"/>
<text text-anchor="start" x="128.62" y="-47.2" font-family="Times New Roman,Times,Liberation Serif,serif" font-size="14.00">PositiveVoltage</text>
<polygon fill="none" stroke="black" points="0,-18.5 0,-41 111,-41 111,-18.5 0,-18.5"/>
<text text-anchor="start" x="20.62" y="-24.7" font-family="Times New Roman,Times,Liberation Serif,serif" font-size="14.00">voltage_type</text>
<polygon fill="none" stroke="black" points="111,-18.5 111,-41 231,-41 231,-18.5 111,-18.5"/>
<text text-anchor="start" x="133.88" y="-24.7" font-family="Times New Roman,Times,Liberation Serif,serif" font-size="14.00">VoltageTypes</text>
</a>
</g>
</g>
<!-- gdm.distribution.equipment.solar_equipment.SolarEquipment&#45;&gt;gdm.distribution.common.curve.Curve -->
<g id="edge1" class="edge">
<title>gdm.distribution.equipment.solar_equipment.SolarEquipment:e&#45;&gt;gdm.distribution.common.curve.Curve:w</title>
<path fill="none" stroke="black" d="M240.87,-119.75C276.07,-119.75 290.8,-119.75 324.08,-119.75"/>
<polyline fill="none" stroke="black" points="231,-119.75 236,-119.75"/>
<polyline fill="none" stroke="black" points="236,-119.75 241,-119.75"/>
<polyline fill="none" stroke="black" points="339,-119.75 334,-119.75"/>
<polygon fill="black" stroke="black" points="333,-114.75 333,-124.75 331,-124.75 331,-114.75 333,-114.75"/>
<polyline fill="none" stroke="black" points="334,-119.75 329,-119.75"/>
<polygon fill="black" stroke="black" points="328,-114.75 328,-124.75 326,-124.75 326,-114.75 328,-114.75"/>
<polyline fill="none" stroke="black" points="329,-119.75 324,-119.75"/>
</g>
</g>
</svg>
