<?xml version="1.0" encoding="UTF-8" standalone="no"?>
<!DOCTYPE svg PUBLIC "-//W3C//DTD SVG 1.1//EN"
 "http://www.w3.org/Graphics/SVG/1.1/DTD/svg11.dtd">
<!-- Generated by graphviz version 9.0.0 (0)
 -->
<!-- Title: Entity Relationship Diagram created by erdantic Pages: 1 -->
<svg width="536pt" height="225pt"
 viewBox="0.00 0.00 536.00 224.50" xmlns="http://www.w3.org/2000/svg" xmlns:xlink="http://www.w3.org/1999/xlink">
<g id="graph0" class="graph" transform="scale(1 1) rotate(0) translate(4 220.5)">
<title>Entity Relationship Diagram created by erdantic</title>
<polygon fill="white" stroke="none" points="-4,4 -4,-220.5 532,-220.5 532,4 -4,4"/>
<text text-anchor="middle" x="264" y="-5.95" font-family="Times New Roman,Times,Liberation Serif,serif" font-size="9.00" fill="#a8a8a8">Created by erdantic v0.6.0 &lt;https://github.com/drivendataorg/erdantic&gt;</text>
<!-- gdm.distribution.curve.Curve -->
<g id="node1" class="node">
<title>gdm.distribution.curve.Curve</title>
<g id="a_node1"><a xlink:title="gdm.distribution.curve.Curve&#10;&#10;An interface for representing a curve using x and y points. e.g for volt&#45;var and volt&#45;watt curves.&#10;&#10;Examples&#10;&#45;&#45;&#45;&#45;&#45;&#45;&#45;&#45;&#10;&#10;Example of a Curve (Volt&#45;Var IEEE&#45;1547 standard).&#10;&#10;&gt;&gt;&gt; Curve(&#10; &#160;&#160;&#160;&#160;&#160;&#160;&#160;curve_x=[0.5, 0.92, 0.98, 1.02, 1.08, 1.5], curve_y=[1.0, 1.0, 0.0, 0.0, &#45;1.0, &#45;1.0]&#10; &#160;&#160;&#160;)&#10;&#10;Example of a Curve (Volt&#45;Var Volt&#45;Watt IEEE&#45;1547 standard)&#10;&#10;&gt;&gt;&gt; Curve(curve_x=[0.5, 1.06, 1.1, 1.5], curve_y=[1.0, 1.0, 0.0, 0.0])&#10;">
<polygon fill="none" stroke="black" points="339,-106.5 339,-128.5 528,-128.5 528,-106.5 339,-106.5"/>
<text text-anchor="start" x="415.5" y="-113.2" font-family="Times New Roman,Times,Liberation Serif,serif" font-weight="bold" font-size="14.00">Curve</text>
<polygon fill="none" stroke="black" points="339,-84.5 339,-106.5 388,-106.5 388,-84.5 339,-84.5"/>
<text text-anchor="start" x="351.5" y="-90.2" font-family="Times New Roman,Times,Liberation Serif,serif" font-size="14.00">uuid</text>
<polygon fill="none" stroke="black" points="388,-84.5 388,-106.5 528,-106.5 528,-84.5 388,-84.5"/>
<text text-anchor="start" x="441.12" y="-90.2" font-family="Times New Roman,Times,Liberation Serif,serif" font-size="14.00">UUID</text>
<polygon fill="none" stroke="black" points="339,-62.5 339,-84.5 388,-84.5 388,-62.5 339,-62.5"/>
<text text-anchor="start" x="348.5" y="-68.2" font-family="Times New Roman,Times,Liberation Serif,serif" font-size="14.00">name</text>
<polygon fill="none" stroke="black" points="388,-62.5 388,-84.5 528,-84.5 528,-62.5 388,-62.5"/>
<text text-anchor="start" x="451.25" y="-68.2" font-family="Times New Roman,Times,Liberation Serif,serif" font-size="14.00">str</text>
<polygon fill="none" stroke="black" points="339,-40.5 339,-62.5 388,-62.5 388,-40.5 339,-40.5"/>
<text text-anchor="start" x="341.75" y="-46.2" font-family="Times New Roman,Times,Liberation Serif,serif" font-size="14.00">curve_x</text>
<polygon fill="none" stroke="black" points="388,-40.5 388,-62.5 528,-62.5 528,-40.5 388,-40.5"/>
<text text-anchor="start" x="390.88" y="-46.2" font-family="Times New Roman,Times,Liberation Serif,serif" font-size="14.00">list[float] | BaseQuantity</text>
<polygon fill="none" stroke="black" points="339,-18.5 339,-40.5 388,-40.5 388,-18.5 339,-18.5"/>
<text text-anchor="start" x="341.75" y="-24.2" font-family="Times New Roman,Times,Liberation Serif,serif" font-size="14.00">curve_y</text>
<polygon fill="none" stroke="black" points="388,-18.5 388,-40.5 528,-40.5 528,-18.5 388,-18.5"/>
<text text-anchor="start" x="390.88" y="-24.2" font-family="Times New Roman,Times,Liberation Serif,serif" font-size="14.00">list[float] | BaseQuantity</text>
</a>
</g>
</g>
<!-- gdm.distribution.equipment.solar_equipment.SolarEquipment -->
<g id="node2" class="node">
<title>gdm.distribution.equipment.solar_equipment.SolarEquipment</title>
<g id="a_node2"><a xlink:title="gdm.distribution.equipment.solar_equipment.SolarEquipment&#10;&#10;Interface for Solar Model.&#10;">
<polygon fill="none" stroke="black" points="0,-194.5 0,-216.5 231,-216.5 231,-194.5 0,-194.5"/>
<text text-anchor="start" x="67.5" y="-201.2" font-family="Times New Roman,Times,Liberation Serif,serif" font-weight="bold" font-size="14.00">SolarEquipment</text>
<polygon fill="none" stroke="black" points="0,-172.5 0,-194.5 111,-194.5 111,-172.5 0,-172.5"/>
<text text-anchor="start" x="43.5" y="-178.2" font-family="Times New Roman,Times,Liberation Serif,serif" font-size="14.00">uuid</text>
<polygon fill="none" stroke="black" points="111,-172.5 111,-194.5 231,-194.5 231,-172.5 111,-172.5"/>
<text text-anchor="start" x="154.12" y="-178.2" font-family="Times New Roman,Times,Liberation Serif,serif" font-size="14.00">UUID</text>
<polygon fill="none" stroke="black" points="0,-150.5 0,-172.5 111,-172.5 111,-150.5 0,-150.5"/>
<text text-anchor="start" x="40.5" y="-156.2" font-family="Times New Roman,Times,Liberation Serif,serif" font-size="14.00">name</text>
<polygon fill="none" stroke="black" points="111,-150.5 111,-172.5 231,-172.5 231,-150.5 111,-150.5"/>
<text text-anchor="start" x="164.25" y="-156.2" font-family="Times New Roman,Times,Liberation Serif,serif" font-size="14.00">str</text>
<polygon fill="none" stroke="black" points="0,-128.5 0,-150.5 111,-150.5 111,-128.5 0,-128.5"/>
<text text-anchor="start" x="21.75" y="-134.2" font-family="Times New Roman,Times,Liberation Serif,serif" font-size="14.00">rated_power</text>
<polygon fill="none" stroke="black" points="111,-128.5 111,-150.5 231,-150.5 231,-128.5 111,-128.5"/>
<text text-anchor="start" x="114" y="-134.2" font-family="Times New Roman,Times,Liberation Serif,serif" font-size="14.00">PositiveActivePower</text>
<polygon fill="none" stroke="black" points="0,-106.5 0,-128.5 111,-128.5 111,-106.5 0,-106.5"/>
<text text-anchor="start" x="3" y="-112.2" font-family="Times New Roman,Times,Liberation Serif,serif" font-size="14.00">power_temp_curve</text>
<polygon fill="none" stroke="black" points="111,-106.5 111,-128.5 231,-128.5 231,-106.5 111,-106.5"/>
<text text-anchor="start" x="134.62" y="-112.2" font-family="Times New Roman,Times,Liberation Serif,serif" font-size="14.00">Curve | None</text>
<polygon fill="none" stroke="black" points="0,-84.5 0,-106.5 111,-106.5 111,-84.5 0,-84.5"/>
<text text-anchor="start" x="28.88" y="-90.2" font-family="Times New Roman,Times,Liberation Serif,serif" font-size="14.00">resistance</text>
<polygon fill="none" stroke="black" points="111,-84.5 111,-106.5 231,-106.5 231,-84.5 111,-84.5"/>
<text text-anchor="start" x="158.62" y="-90.2" font-family="Times New Roman,Times,Liberation Serif,serif" font-size="14.00">float</text>
<polygon fill="none" stroke="black" points="0,-62.5 0,-84.5 111,-84.5 111,-62.5 0,-62.5"/>
<text text-anchor="start" x="30" y="-68.2" font-family="Times New Roman,Times,Liberation Serif,serif" font-size="14.00">reactance</text>
<polygon fill="none" stroke="black" points="111,-62.5 111,-84.5 231,-84.5 231,-62.5 111,-62.5"/>
<text text-anchor="start" x="158.62" y="-68.2" font-family="Times New Roman,Times,Liberation Serif,serif" font-size="14.00">float</text>
</a>
</g>
</g>
<!-- gdm.distribution.equipment.solar_equipment.SolarEquipment&#45;&gt;gdm.distribution.curve.Curve -->
<g id="edge1" class="edge">
<title>gdm.distribution.equipment.solar_equipment.SolarEquipment:e&#45;&gt;gdm.distribution.curve.Curve:w</title>
<path fill="none" stroke="black" d="M240.87,-117.5C276.07,-117.5 290.8,-117.5 324.08,-117.5"/>
<polyline fill="none" stroke="black" points="231,-117.5 236,-117.5"/>
<polyline fill="none" stroke="black" points="236,-117.5 241,-117.5"/>
<polyline fill="none" stroke="black" points="339,-117.5 334,-117.5"/>
<polygon fill="black" stroke="black" points="333,-112.5 333,-122.5 331,-122.5 331,-112.5 333,-112.5"/>
<polyline fill="none" stroke="black" points="334,-117.5 329,-117.5"/>
<polygon fill="black" stroke="black" points="328,-112.5 328,-122.5 326,-122.5 326,-112.5 328,-112.5"/>
<polyline fill="none" stroke="black" points="329,-117.5 324,-117.5"/>
</g>
</g>
</svg>
