<?xml version="1.0" encoding="UTF-8" standalone="no"?>
<!DOCTYPE svg PUBLIC "-//W3C//DTD SVG 1.1//EN"
 "http://www.w3.org/Graphics/SVG/1.1/DTD/svg11.dtd">
<!-- Generated by graphviz version 9.0.0 (0)
 -->
<!-- Title: Entity Relationship Diagram created by erdantic Pages: 1 -->
<svg width="275pt" height="137pt"
 viewBox="0.00 0.00 274.50 136.50" xmlns="http://www.w3.org/2000/svg" xmlns:xlink="http://www.w3.org/1999/xlink">
<g id="graph0" class="graph" transform="scale(1 1) rotate(0) translate(4 132.5)">
<title>Entity Relationship Diagram created by erdantic</title>
<polygon fill="white" stroke="none" points="-4,4 -4,-132.5 270.5,-132.5 270.5,4 -4,4"/>
<text text-anchor="middle" x="133.25" y="-5.95" font-family="Times New Roman,Times,Liberation Serif,serif" font-size="9.00" fill="#a8a8a8">Created by erdantic v0.6.0 &lt;https://github.com/drivendataorg/erdantic&gt;</text>
<!-- gdm.distribution.limitset.ThermalLimitSet -->
<g id="node1" class="node">
<title>gdm.distribution.limitset.ThermalLimitSet</title>
<g id="a_node1"><a xlink:title="gdm.distribution.limitset.ThermalLimitSet&#10;&#10;Interface for voltage limit set.&#10;">
<polygon fill="none" stroke="black" points="57.25,-106.5 57.25,-128.5 209.25,-128.5 209.25,-106.5 57.25,-106.5"/>
<text text-anchor="start" x="82.25" y="-113.2" font-family="Times New Roman,Times,Liberation Serif,serif" font-weight="bold" font-size="14.00">ThermalLimitSet</text>
<polygon fill="none" stroke="black" points="57.25,-84.5 57.25,-106.5 119.25,-106.5 119.25,-84.5 57.25,-84.5"/>
<text text-anchor="start" x="76.25" y="-90.2" font-family="Times New Roman,Times,Liberation Serif,serif" font-size="14.00">uuid</text>
<polygon fill="none" stroke="black" points="119.25,-84.5 119.25,-106.5 209.25,-106.5 209.25,-84.5 119.25,-84.5"/>
<text text-anchor="start" x="147.38" y="-90.2" font-family="Times New Roman,Times,Liberation Serif,serif" font-size="14.00">UUID</text>
<polygon fill="none" stroke="black" points="57.25,-62.5 57.25,-84.5 119.25,-84.5 119.25,-62.5 57.25,-62.5"/>
<text text-anchor="start" x="73.25" y="-68.2" font-family="Times New Roman,Times,Liberation Serif,serif" font-size="14.00">name</text>
<polygon fill="none" stroke="black" points="119.25,-62.5 119.25,-84.5 209.25,-84.5 209.25,-62.5 119.25,-62.5"/>
<text text-anchor="start" x="157.5" y="-68.2" font-family="Times New Roman,Times,Liberation Serif,serif" font-size="14.00">str</text>
<polygon fill="none" stroke="black" points="57.25,-40.5 57.25,-62.5 119.25,-62.5 119.25,-40.5 57.25,-40.5"/>
<text text-anchor="start" x="60.12" y="-46.2" font-family="Times New Roman,Times,Liberation Serif,serif" font-size="14.00">limit_type</text>
<polygon fill="none" stroke="black" points="119.25,-40.5 119.25,-62.5 209.25,-62.5 209.25,-40.5 119.25,-40.5"/>
<text text-anchor="start" x="135.38" y="-46.2" font-family="Times New Roman,Times,Liberation Serif,serif" font-size="14.00">LimitType</text>
<polygon fill="none" stroke="black" points="57.25,-18.5 57.25,-40.5 119.25,-40.5 119.25,-18.5 57.25,-18.5"/>
<text text-anchor="start" x="73.62" y="-24.2" font-family="Times New Roman,Times,Liberation Serif,serif" font-size="14.00">value</text>
<polygon fill="none" stroke="black" points="119.25,-18.5 119.25,-40.5 209.25,-40.5 209.25,-18.5 119.25,-18.5"/>
<text text-anchor="start" x="121.88" y="-24.2" font-family="Times New Roman,Times,Liberation Serif,serif" font-size="14.00">PositiveCurrent</text>
</a>
</g>
</g>
</g>
</svg>
