<?xml version="1.0" encoding="UTF-8" standalone="no"?>
<!DOCTYPE svg PUBLIC "-//W3C//DTD SVG 1.1//EN"
 "http://www.w3.org/Graphics/SVG/1.1/DTD/svg11.dtd">
<!-- Generated by graphviz version 9.0.0 (0)
 -->
<!-- Title: Entity Relationship Diagram created by erdantic Pages: 1 -->
<svg width="275pt" height="137pt"
 viewBox="0.00 0.00 274.50 136.50" xmlns="http://www.w3.org/2000/svg" xmlns:xlink="http://www.w3.org/1999/xlink">
<g id="graph0" class="graph" transform="scale(1 1) rotate(0) translate(4 132.5)">
<title>Entity Relationship Diagram created by erdantic</title>
<polygon fill="white" stroke="none" points="-4,4 -4,-132.5 270.5,-132.5 270.5,4 -4,4"/>
<text text-anchor="middle" x="133.25" y="-5.95" font-family="Times New Roman,Times,Liberation Serif,serif" font-size="9.00" fill="#a8a8a8">Created by erdantic v0.6.0 &lt;https://github.com/drivendataorg/erdantic&gt;</text>
<!-- gdm.distribution.curve.TimeCurrentCurve -->
<g id="node1" class="node">
<title>gdm.distribution.curve.TimeCurrentCurve</title>
<g id="a_node1"><a xlink:title="gdm.distribution.curve.TimeCurrentCurve&#10;&#10;An interface for time current curve.&#10;">
<polygon fill="none" stroke="black" points="73.25,-106.5 73.25,-128.5 193.25,-128.5 193.25,-106.5 73.25,-106.5"/>
<text text-anchor="start" x="76.25" y="-113.2" font-family="Times New Roman,Times,Liberation Serif,serif" font-weight="bold" font-size="14.00">TimeCurrentCurve</text>
<polygon fill="none" stroke="black" points="73.25,-84.5 73.25,-106.5 134.25,-106.5 134.25,-84.5 73.25,-84.5"/>
<text text-anchor="start" x="91.75" y="-90.2" font-family="Times New Roman,Times,Liberation Serif,serif" font-size="14.00">uuid</text>
<polygon fill="none" stroke="black" points="134.25,-84.5 134.25,-106.5 193.25,-106.5 193.25,-84.5 134.25,-84.5"/>
<text text-anchor="start" x="146.88" y="-90.2" font-family="Times New Roman,Times,Liberation Serif,serif" font-size="14.00">UUID</text>
<polygon fill="none" stroke="black" points="73.25,-62.5 73.25,-84.5 134.25,-84.5 134.25,-62.5 73.25,-62.5"/>
<text text-anchor="start" x="88.75" y="-68.2" font-family="Times New Roman,Times,Liberation Serif,serif" font-size="14.00">name</text>
<polygon fill="none" stroke="black" points="134.25,-62.5 134.25,-84.5 193.25,-84.5 193.25,-62.5 134.25,-62.5"/>
<text text-anchor="start" x="157" y="-68.2" font-family="Times New Roman,Times,Liberation Serif,serif" font-size="14.00">str</text>
<polygon fill="none" stroke="black" points="73.25,-40.5 73.25,-62.5 134.25,-62.5 134.25,-40.5 73.25,-40.5"/>
<text text-anchor="start" x="82" y="-46.2" font-family="Times New Roman,Times,Liberation Serif,serif" font-size="14.00">curve_x</text>
<polygon fill="none" stroke="black" points="134.25,-40.5 134.25,-62.5 193.25,-62.5 193.25,-40.5 134.25,-40.5"/>
<text text-anchor="start" x="143.12" y="-46.2" font-family="Times New Roman,Times,Liberation Serif,serif" font-size="14.00">Current</text>
<polygon fill="none" stroke="black" points="73.25,-18.5 73.25,-40.5 134.25,-40.5 134.25,-18.5 73.25,-18.5"/>
<text text-anchor="start" x="82" y="-24.2" font-family="Times New Roman,Times,Liberation Serif,serif" font-size="14.00">curve_y</text>
<polygon fill="none" stroke="black" points="134.25,-18.5 134.25,-40.5 193.25,-40.5 193.25,-18.5 134.25,-18.5"/>
<text text-anchor="start" x="149.12" y="-24.2" font-family="Times New Roman,Times,Liberation Serif,serif" font-size="14.00">Time</text>
</a>
</g>
</g>
</g>
</svg>
