<?xml version="1.0" encoding="UTF-8" standalone="no"?>
<!DOCTYPE svg PUBLIC "-//W3C//DTD SVG 1.1//EN"
 "http://www.w3.org/Graphics/SVG/1.1/DTD/svg11.dtd">
<!-- Generated by graphviz version 12.2.1 (20241206.2353)
 -->
<!-- Title: Entity Relationship Diagram created by erdantic Pages: 1 -->
<svg width="275pt" height="139pt"
 viewBox="0.00 0.00 274.50 139.00" xmlns="http://www.w3.org/2000/svg" xmlns:xlink="http://www.w3.org/1999/xlink">
<g id="graph0" class="graph" transform="scale(1 1) rotate(0) translate(4 135)">
<title>Entity Relationship Diagram created by erdantic</title>
<polygon fill="white" stroke="none" points="-4,4 -4,-135 270.5,-135 270.5,4 -4,4"/>
<text text-anchor="middle" x="133.25" y="-5.95" font-family="Times New Roman,Times,Liberation Serif,serif" font-size="9.00" fill="#a8a8a8">Created by erdantic v1.0.5 &lt;https://github.com/drivendataorg/erdantic&gt;</text>
<!-- gdm.distribution.common.curve.TimeCurrentCurve -->
<g id="node1" class="node">
<title>gdm.distribution.common.curve.TimeCurrentCurve</title>
<g id="a_node1"><a xlink:title="gdm.distribution.common.curve.TimeCurrentCurve&#10;&#10;An interface for time current curve.&#10;">
<polygon fill="none" stroke="black" points="73.25,-108.5 73.25,-131 193.25,-131 193.25,-108.5 73.25,-108.5"/>
<text text-anchor="start" x="76.25" y="-115.7" font-family="Times New Roman,Times,Liberation Serif,serif" font-weight="bold" font-size="14.00">TimeCurrentCurve</text>
<polygon fill="none" stroke="black" points="73.25,-86 73.25,-108.5 134.38,-108.5 134.38,-86 73.25,-86"/>
<text text-anchor="start" x="91.81" y="-92.2" font-family="Times New Roman,Times,Liberation Serif,serif" font-size="14.00">uuid</text>
<polygon fill="none" stroke="black" points="134.38,-86 134.38,-108.5 193.25,-108.5 193.25,-86 134.38,-86"/>
<text text-anchor="start" x="146.94" y="-92.2" font-family="Times New Roman,Times,Liberation Serif,serif" font-size="14.00">UUID</text>
<polygon fill="none" stroke="black" points="73.25,-63.5 73.25,-86 134.38,-86 134.38,-63.5 73.25,-63.5"/>
<text text-anchor="start" x="88.81" y="-69.7" font-family="Times New Roman,Times,Liberation Serif,serif" font-size="14.00">name</text>
<polygon fill="none" stroke="black" points="134.38,-63.5 134.38,-86 193.25,-86 193.25,-63.5 134.38,-63.5"/>
<text text-anchor="start" x="157.06" y="-69.7" font-family="Times New Roman,Times,Liberation Serif,serif" font-size="14.00">str</text>
<polygon fill="none" stroke="black" points="73.25,-41 73.25,-63.5 134.38,-63.5 134.38,-41 73.25,-41"/>
<text text-anchor="start" x="82.06" y="-47.2" font-family="Times New Roman,Times,Liberation Serif,serif" font-size="14.00">curve_x</text>
<polygon fill="none" stroke="black" points="134.38,-41 134.38,-63.5 193.25,-63.5 193.25,-41 134.38,-41"/>
<text text-anchor="start" x="143.19" y="-47.2" font-family="Times New Roman,Times,Liberation Serif,serif" font-size="14.00">Current</text>
<polygon fill="none" stroke="black" points="73.25,-18.5 73.25,-41 134.38,-41 134.38,-18.5 73.25,-18.5"/>
<text text-anchor="start" x="82.06" y="-24.7" font-family="Times New Roman,Times,Liberation Serif,serif" font-size="14.00">curve_y</text>
<polygon fill="none" stroke="black" points="134.38,-18.5 134.38,-41 193.25,-41 193.25,-18.5 134.38,-18.5"/>
<text text-anchor="start" x="149.19" y="-24.7" font-family="Times New Roman,Times,Liberation Serif,serif" font-size="14.00">Time</text>
</a>
</g>
</g>
</g>
</svg>
