<?xml version="1.0" encoding="UTF-8" standalone="no"?>
<!DOCTYPE svg PUBLIC "-//W3C//DTD SVG 1.1//EN"
 "http://www.w3.org/Graphics/SVG/1.1/DTD/svg11.dtd">
<!-- Generated by graphviz version 12.2.1 (20241206.2353)
 -->
<!-- Title: Entity Relationship Diagram created by erdantic Pages: 1 -->
<svg width="396pt" height="252pt"
 viewBox="0.00 0.00 395.75 251.50" xmlns="http://www.w3.org/2000/svg" xmlns:xlink="http://www.w3.org/1999/xlink">
<g id="graph0" class="graph" transform="scale(1 1) rotate(0) translate(4 247.5)">
<title>Entity Relationship Diagram created by erdantic</title>
<polygon fill="white" stroke="none" points="-4,4 -4,-247.5 391.75,-247.5 391.75,4 -4,4"/>
<text text-anchor="middle" x="193.88" y="-5.95" font-family="Times New Roman,Times,Liberation Serif,serif" font-size="9.00" fill="#a8a8a8">Created by erdantic v1.0.5 &lt;https://github.com/drivendataorg/erdantic&gt;</text>
<!-- gdm.distribution.controllers.distribution_inverter_controller.TimeBasedControlSetting -->
<g id="node1" class="node">
<title>gdm.distribution.controllers.distribution_inverter_controller.TimeBasedControlSetting</title>
<g id="a_node1"><a xlink:title="gdm.distribution.controllers.distribution_inverter_controller.TimeBasedControlSetting&#10;&#10;Control settings for the Inverter Controller to represent time based charge / discharge&#10;control settings. Works with battery systems only. Controls active power output of the &#10;connected inverter&#10;">
<polygon fill="none" stroke="black" points="0,-221 0,-243.5 387.75,-243.5 387.75,-221 0,-221"/>
<text text-anchor="start" x="118.5" y="-228.2" font-family="Times New Roman,Times,Liberation Serif,serif" font-weight="bold" font-size="14.00">TimeBasedControlSetting</text>
<polygon fill="none" stroke="black" points="0,-198.5 0,-221 130.5,-221 130.5,-198.5 0,-198.5"/>
<text text-anchor="start" x="53.25" y="-204.7" font-family="Times New Roman,Times,Liberation Serif,serif" font-size="14.00">uuid</text>
<polygon fill="none" stroke="black" points="130.5,-198.5 130.5,-221 387.75,-221 387.75,-198.5 130.5,-198.5"/>
<text text-anchor="start" x="242.25" y="-204.7" font-family="Times New Roman,Times,Liberation Serif,serif" font-size="14.00">UUID</text>
<polygon fill="none" stroke="black" points="0,-176 0,-198.5 130.5,-198.5 130.5,-176 0,-176"/>
<text text-anchor="start" x="50.25" y="-182.2" font-family="Times New Roman,Times,Liberation Serif,serif" font-size="14.00">name</text>
<polygon fill="none" stroke="black" points="130.5,-176 130.5,-198.5 387.75,-198.5 387.75,-176 130.5,-176"/>
<text text-anchor="start" x="252.38" y="-182.2" font-family="Times New Roman,Times,Liberation Serif,serif" font-size="14.00">str</text>
<polygon fill="none" stroke="black" points="0,-153.5 0,-176 130.5,-176 130.5,-153.5 0,-153.5"/>
<text text-anchor="start" x="28.5" y="-159.7" font-family="Times New Roman,Times,Liberation Serif,serif" font-size="14.00">supported_by</text>
<polygon fill="none" stroke="black" points="130.5,-153.5 130.5,-176 387.75,-176 387.75,-153.5 130.5,-153.5"/>
<text text-anchor="start" x="133.5" y="-159.7" font-family="Times New Roman,Times,Liberation Serif,serif" font-size="14.00">Literal[ControllerSupport.BATTERY_ONLY]</text>
<polygon fill="none" stroke="black" points="0,-131 0,-153.5 130.5,-153.5 130.5,-131 0,-131"/>
<text text-anchor="start" x="10.88" y="-137.2" font-family="Times New Roman,Times,Liberation Serif,serif" font-size="14.00">charging_start_time</text>
<polygon fill="none" stroke="black" points="130.5,-131 130.5,-153.5 387.75,-153.5 387.75,-131 130.5,-131"/>
<text text-anchor="start" x="246.75" y="-137.2" font-family="Times New Roman,Times,Liberation Serif,serif" font-size="14.00">time</text>
<polygon fill="none" stroke="black" points="0,-108.5 0,-131 130.5,-131 130.5,-108.5 0,-108.5"/>
<text text-anchor="start" x="12.75" y="-114.7" font-family="Times New Roman,Times,Liberation Serif,serif" font-size="14.00">charging_end_time</text>
<polygon fill="none" stroke="black" points="130.5,-108.5 130.5,-131 387.75,-131 387.75,-108.5 130.5,-108.5"/>
<text text-anchor="start" x="246.75" y="-114.7" font-family="Times New Roman,Times,Liberation Serif,serif" font-size="14.00">time</text>
<polygon fill="none" stroke="black" points="0,-86 0,-108.5 130.5,-108.5 130.5,-86 0,-86"/>
<text text-anchor="start" x="3" y="-92.2" font-family="Times New Roman,Times,Liberation Serif,serif" font-size="14.00">discharging_start_time</text>
<polygon fill="none" stroke="black" points="130.5,-86 130.5,-108.5 387.75,-108.5 387.75,-86 130.5,-86"/>
<text text-anchor="start" x="246.75" y="-92.2" font-family="Times New Roman,Times,Liberation Serif,serif" font-size="14.00">time</text>
<polygon fill="none" stroke="black" points="0,-63.5 0,-86 130.5,-86 130.5,-63.5 0,-63.5"/>
<text text-anchor="start" x="4.88" y="-69.7" font-family="Times New Roman,Times,Liberation Serif,serif" font-size="14.00">discharging_end_time</text>
<polygon fill="none" stroke="black" points="130.5,-63.5 130.5,-86 387.75,-86 387.75,-63.5 130.5,-63.5"/>
<text text-anchor="start" x="246.75" y="-69.7" font-family="Times New Roman,Times,Liberation Serif,serif" font-size="14.00">time</text>
<polygon fill="none" stroke="black" points="0,-41 0,-63.5 130.5,-63.5 130.5,-41 0,-41"/>
<text text-anchor="start" x="21.38" y="-47.2" font-family="Times New Roman,Times,Liberation Serif,serif" font-size="14.00">charging_power</text>
<polygon fill="none" stroke="black" points="130.5,-41 130.5,-63.5 387.75,-63.5 387.75,-41 130.5,-41"/>
<text text-anchor="start" x="223.88" y="-47.2" font-family="Times New Roman,Times,Liberation Serif,serif" font-size="14.00">ActivePower</text>
<polygon fill="none" stroke="black" points="0,-18.5 0,-41 130.5,-41 130.5,-18.5 0,-18.5"/>
<text text-anchor="start" x="13.5" y="-24.7" font-family="Times New Roman,Times,Liberation Serif,serif" font-size="14.00">discharging_power</text>
<polygon fill="none" stroke="black" points="130.5,-18.5 130.5,-41 387.75,-41 387.75,-18.5 130.5,-18.5"/>
<text text-anchor="start" x="223.88" y="-24.7" font-family="Times New Roman,Times,Liberation Serif,serif" font-size="14.00">ActivePower</text>
</a>
</g>
</g>
</g>
</svg>
