<?xml version="1.0" encoding="UTF-8" standalone="no"?>
<!DOCTYPE svg PUBLIC "-//W3C//DTD SVG 1.1//EN"
 "http://www.w3.org/Graphics/SVG/1.1/DTD/svg11.dtd">
<!-- Generated by graphviz version 9.0.0 (0)
 -->
<!-- Title: Entity Relationship Diagram created by erdantic Pages: 1 -->
<svg width="551pt" height="291pt"
 viewBox="0.00 0.00 551.00 290.50" xmlns="http://www.w3.org/2000/svg" xmlns:xlink="http://www.w3.org/1999/xlink">
<g id="graph0" class="graph" transform="scale(1 1) rotate(0) translate(4 286.5)">
<title>Entity Relationship Diagram created by erdantic</title>
<polygon fill="white" stroke="none" points="-4,4 -4,-286.5 547,-286.5 547,4 -4,4"/>
<text text-anchor="middle" x="271.5" y="-5.95" font-family="Times New Roman,Times,Liberation Serif,serif" font-size="9.00" fill="#a8a8a8">Created by erdantic v0.6.0 &lt;https://github.com/drivendataorg/erdantic&gt;</text>
<!-- gdm.distribution.equipment.phase_voltagesource_equipment.PhaseVoltageSourceEquipment -->
<g id="node1" class="node">
<title>gdm.distribution.equipment.phase_voltagesource_equipment.PhaseVoltageSourceEquipment</title>
<g id="a_node1"><a xlink:title="gdm.distribution.equipment.phase_voltagesource_equipment.PhaseVoltageSourceEquipment&#10;&#10;Interface for phase voltage source.&#10;">
<polygon fill="none" stroke="black" points="355,-194.5 355,-216.5 543,-216.5 543,-194.5 355,-194.5"/>
<text text-anchor="start" x="357.88" y="-201.2" font-family="Times New Roman,Times,Liberation Serif,serif" font-weight="bold" font-size="14.00">PhaseVoltageSourceEquipment</text>
<polygon fill="none" stroke="black" points="355,-172.5 355,-194.5 440,-194.5 440,-172.5 355,-172.5"/>
<text text-anchor="start" x="385.5" y="-178.2" font-family="Times New Roman,Times,Liberation Serif,serif" font-size="14.00">uuid</text>
<polygon fill="none" stroke="black" points="440,-172.5 440,-194.5 543,-194.5 543,-172.5 440,-172.5"/>
<text text-anchor="start" x="474.62" y="-178.2" font-family="Times New Roman,Times,Liberation Serif,serif" font-size="14.00">UUID</text>
<polygon fill="none" stroke="black" points="355,-150.5 355,-172.5 440,-172.5 440,-150.5 355,-150.5"/>
<text text-anchor="start" x="382.5" y="-156.2" font-family="Times New Roman,Times,Liberation Serif,serif" font-size="14.00">name</text>
<polygon fill="none" stroke="black" points="440,-150.5 440,-172.5 543,-172.5 543,-150.5 440,-150.5"/>
<text text-anchor="start" x="484.75" y="-156.2" font-family="Times New Roman,Times,Liberation Serif,serif" font-size="14.00">str</text>
<polygon fill="none" stroke="black" points="355,-128.5 355,-150.5 440,-150.5 440,-128.5 355,-128.5"/>
<text text-anchor="start" x="391.88" y="-134.2" font-family="Times New Roman,Times,Liberation Serif,serif" font-size="14.00">r0</text>
<polygon fill="none" stroke="black" points="440,-128.5 440,-150.5 543,-150.5 543,-128.5 440,-128.5"/>
<text text-anchor="start" x="462.62" y="-134.2" font-family="Times New Roman,Times,Liberation Serif,serif" font-size="14.00">Resistance</text>
<polygon fill="none" stroke="black" points="355,-106.5 355,-128.5 440,-128.5 440,-106.5 355,-106.5"/>
<text text-anchor="start" x="391.88" y="-112.2" font-family="Times New Roman,Times,Liberation Serif,serif" font-size="14.00">r1</text>
<polygon fill="none" stroke="black" points="440,-106.5 440,-128.5 543,-128.5 543,-106.5 440,-106.5"/>
<text text-anchor="start" x="462.62" y="-112.2" font-family="Times New Roman,Times,Liberation Serif,serif" font-size="14.00">Resistance</text>
<polygon fill="none" stroke="black" points="355,-84.5 355,-106.5 440,-106.5 440,-84.5 355,-84.5"/>
<text text-anchor="start" x="390.75" y="-90.2" font-family="Times New Roman,Times,Liberation Serif,serif" font-size="14.00">x0</text>
<polygon fill="none" stroke="black" points="440,-84.5 440,-106.5 543,-106.5 543,-84.5 440,-84.5"/>
<text text-anchor="start" x="463.75" y="-90.2" font-family="Times New Roman,Times,Liberation Serif,serif" font-size="14.00">Reactance</text>
<polygon fill="none" stroke="black" points="355,-62.5 355,-84.5 440,-84.5 440,-62.5 355,-62.5"/>
<text text-anchor="start" x="390.75" y="-68.2" font-family="Times New Roman,Times,Liberation Serif,serif" font-size="14.00">x1</text>
<polygon fill="none" stroke="black" points="440,-62.5 440,-84.5 543,-84.5 543,-62.5 440,-62.5"/>
<text text-anchor="start" x="463.75" y="-68.2" font-family="Times New Roman,Times,Liberation Serif,serif" font-size="14.00">Reactance</text>
<polygon fill="none" stroke="black" points="355,-40.5 355,-62.5 440,-62.5 440,-40.5 355,-40.5"/>
<text text-anchor="start" x="377.62" y="-46.2" font-family="Times New Roman,Times,Liberation Serif,serif" font-size="14.00">voltage</text>
<polygon fill="none" stroke="black" points="440,-40.5 440,-62.5 543,-62.5 543,-40.5 440,-40.5"/>
<text text-anchor="start" x="470.88" y="-46.2" font-family="Times New Roman,Times,Liberation Serif,serif" font-size="14.00">Voltage</text>
<polygon fill="none" stroke="black" points="355,-18.5 355,-40.5 440,-40.5 440,-18.5 355,-18.5"/>
<text text-anchor="start" x="382.88" y="-24.2" font-family="Times New Roman,Times,Liberation Serif,serif" font-size="14.00">angle</text>
<polygon fill="none" stroke="black" points="440,-18.5 440,-40.5 543,-40.5 543,-18.5 440,-18.5"/>
<text text-anchor="start" x="475" y="-24.2" font-family="Times New Roman,Times,Liberation Serif,serif" font-size="14.00">Angle</text>
</a>
</g>
</g>
<!-- gdm.distribution.equipment.voltagesource_equipment.VoltageSourceEquipment -->
<g id="node2" class="node">
<title>gdm.distribution.equipment.voltagesource_equipment.VoltageSourceEquipment</title>
<g id="a_node2"><a xlink:title="gdm.distribution.equipment.voltagesource_equipment.VoltageSourceEquipment&#10;&#10;Interface for voltage source model.&#10;">
<polygon fill="none" stroke="black" points="0,-260.5 0,-282.5 247,-282.5 247,-260.5 0,-260.5"/>
<text text-anchor="start" x="49.25" y="-267.2" font-family="Times New Roman,Times,Liberation Serif,serif" font-weight="bold" font-size="14.00">VoltageSourceEquipment</text>
<polygon fill="none" stroke="black" points="0,-238.5 0,-260.5 46,-260.5 46,-238.5 0,-238.5"/>
<text text-anchor="start" x="11" y="-244.2" font-family="Times New Roman,Times,Liberation Serif,serif" font-size="14.00">uuid</text>
<polygon fill="none" stroke="black" points="46,-238.5 46,-260.5 247,-260.5 247,-238.5 46,-238.5"/>
<text text-anchor="start" x="129.62" y="-244.2" font-family="Times New Roman,Times,Liberation Serif,serif" font-size="14.00">UUID</text>
<polygon fill="none" stroke="black" points="0,-216.5 0,-238.5 46,-238.5 46,-216.5 0,-216.5"/>
<text text-anchor="start" x="8" y="-222.2" font-family="Times New Roman,Times,Liberation Serif,serif" font-size="14.00">name</text>
<polygon fill="none" stroke="black" points="46,-216.5 46,-238.5 247,-238.5 247,-216.5 46,-216.5"/>
<text text-anchor="start" x="139.75" y="-222.2" font-family="Times New Roman,Times,Liberation Serif,serif" font-size="14.00">str</text>
<polygon fill="none" stroke="black" points="0,-194.5 0,-216.5 46,-216.5 46,-194.5 0,-194.5"/>
<text text-anchor="start" x="2.75" y="-200.2" font-family="Times New Roman,Times,Liberation Serif,serif" font-size="14.00">sources</text>
<polygon fill="none" stroke="black" points="46,-194.5 46,-216.5 247,-216.5 247,-194.5 46,-194.5"/>
<text text-anchor="start" x="48.62" y="-200.2" font-family="Times New Roman,Times,Liberation Serif,serif" font-size="14.00">list[PhaseVoltageSourceEquipment]</text>
</a>
</g>
</g>
<!-- gdm.distribution.equipment.voltagesource_equipment.VoltageSourceEquipment&#45;&gt;gdm.distribution.equipment.phase_voltagesource_equipment.PhaseVoltageSourceEquipment -->
<g id="edge1" class="edge">
<title>gdm.distribution.equipment.voltagesource_equipment.VoltageSourceEquipment:e&#45;&gt;gdm.distribution.equipment.phase_voltagesource_equipment.PhaseVoltageSourceEquipment:w</title>
<path fill="none" stroke="black" d="M256.87,-205.5C291.6,-205.5 306.4,-205.5 338.76,-205.5"/>
<polyline fill="none" stroke="black" points="247,-205.5 252,-205.5"/>
<polyline fill="none" stroke="black" points="252,-205.5 257,-205.5"/>
<polygon fill="black" stroke="black" points="344.67,-205.5 354.67,-210 350,-205.5 354.33,-205.5 354.33,-205.5 354.33,-205.5 350,-205.5 354.67,-201 344.67,-205.5"/>
<polyline fill="none" stroke="black" points="343.45,-205.5 338.45,-205.5"/>
</g>
</g>
</svg>
