<?xml version="1.0" encoding="UTF-8" standalone="no"?>
<!DOCTYPE svg PUBLIC "-//W3C//DTD SVG 1.1//EN"
 "http://www.w3.org/Graphics/SVG/1.1/DTD/svg11.dtd">
<!-- Generated by graphviz version 12.2.1 (20241206.2353)
 -->
<!-- Title: Entity Relationship Diagram created by erdantic Pages: 1 -->
<svg width="694pt" height="206pt"
 viewBox="0.00 0.00 694.25 206.25" xmlns="http://www.w3.org/2000/svg" xmlns:xlink="http://www.w3.org/1999/xlink">
<g id="graph0" class="graph" transform="scale(1 1) rotate(0) translate(4 202.25)">
<title>Entity Relationship Diagram created by erdantic</title>
<polygon fill="white" stroke="none" points="-4,4 -4,-202.25 690.25,-202.25 690.25,4 -4,4"/>
<text text-anchor="middle" x="343.12" y="-5.95" font-family="Times New Roman,Times,Liberation Serif,serif" font-size="9.00" fill="#a8a8a8">Created by erdantic v1.0.5 &lt;https://github.com/drivendataorg/erdantic&gt;</text>
<!-- gdm.distribution.common.curve.Curve -->
<g id="node1" class="node">
<title>gdm.distribution.common.curve.Curve</title>
<g id="a_node1"><a xlink:title="gdm.distribution.common.curve.Curve&#10;&#10;An interface for representing a curve using x and y points. e.g for volt&#45;var and volt&#45;watt curves.&#10;&#10;Examples&#10;&#45;&#45;&#45;&#45;&#45;&#45;&#45;&#45;&#10;&#10;Example of a Curve (Volt&#45;Var IEEE&#45;1547 standard).&#10;&#10;&gt;&gt;&gt; Curve(&#10; &#160;&#160;&#160;&#160;&#160;&#160;&#160;curve_x=[0.5, 0.92, 0.98, 1.02, 1.08, 1.5], curve_y=[1.0, 1.0, 0.0, 0.0, &#45;1.0, &#45;1.0]&#10; &#160;&#160;&#160;)&#10;&#10;Example of a Curve (Volt&#45;Var Volt&#45;Watt IEEE&#45;1547 standard)&#10;&#10;&gt;&gt;&gt; Curve(curve_x=[0.5, 1.06, 1.1, 1.5], curve_y=[1.0, 1.0, 0.0, 0.0])&#10;">
<polygon fill="none" stroke="black" points="496.5,-108.5 496.5,-131 686.25,-131 686.25,-108.5 496.5,-108.5"/>
<text text-anchor="start" x="573.38" y="-115.7" font-family="Times New Roman,Times,Liberation Serif,serif" font-weight="bold" font-size="14.00">Curve</text>
<polygon fill="none" stroke="black" points="496.5,-86 496.5,-108.5 546,-108.5 546,-86 496.5,-86"/>
<text text-anchor="start" x="509.25" y="-92.2" font-family="Times New Roman,Times,Liberation Serif,serif" font-size="14.00">uuid</text>
<polygon fill="none" stroke="black" points="546,-86 546,-108.5 686.25,-108.5 686.25,-86 546,-86"/>
<text text-anchor="start" x="599.25" y="-92.2" font-family="Times New Roman,Times,Liberation Serif,serif" font-size="14.00">UUID</text>
<polygon fill="none" stroke="black" points="496.5,-63.5 496.5,-86 546,-86 546,-63.5 496.5,-63.5"/>
<text text-anchor="start" x="506.25" y="-69.7" font-family="Times New Roman,Times,Liberation Serif,serif" font-size="14.00">name</text>
<polygon fill="none" stroke="black" points="546,-63.5 546,-86 686.25,-86 686.25,-63.5 546,-63.5"/>
<text text-anchor="start" x="609.38" y="-69.7" font-family="Times New Roman,Times,Liberation Serif,serif" font-size="14.00">str</text>
<polygon fill="none" stroke="black" points="496.5,-41 496.5,-63.5 546,-63.5 546,-41 496.5,-41"/>
<text text-anchor="start" x="499.5" y="-47.2" font-family="Times New Roman,Times,Liberation Serif,serif" font-size="14.00">curve_x</text>
<polygon fill="none" stroke="black" points="546,-41 546,-63.5 686.25,-63.5 686.25,-41 546,-41"/>
<text text-anchor="start" x="549" y="-47.2" font-family="Times New Roman,Times,Liberation Serif,serif" font-size="14.00">list[float] | BaseQuantity</text>
<polygon fill="none" stroke="black" points="496.5,-18.5 496.5,-41 546,-41 546,-18.5 496.5,-18.5"/>
<text text-anchor="start" x="499.5" y="-24.7" font-family="Times New Roman,Times,Liberation Serif,serif" font-size="14.00">curve_y</text>
<polygon fill="none" stroke="black" points="546,-18.5 546,-41 686.25,-41 686.25,-18.5 546,-18.5"/>
<text text-anchor="start" x="549" y="-24.7" font-family="Times New Roman,Times,Liberation Serif,serif" font-size="14.00">list[float] | BaseQuantity</text>
</a>
</g>
</g>
<!-- gdm.distribution.controllers.distribution_inverter_controller.VoltVarControlSetting -->
<g id="node2" class="node">
<title>gdm.distribution.controllers.distribution_inverter_controller.VoltVarControlSetting</title>
<g id="a_node2"><a xlink:title="gdm.distribution.controllers.distribution_inverter_controller.VoltVarControlSetting&#10;&#10;Control settings for the Inverter Controller to represent volt / var control settings.&#10;Works with both battery and solar systems. Controls reactive power output of the &#10;connected inverter&#10;">
<polygon fill="none" stroke="black" points="0,-175.75 0,-198.25 388.5,-198.25 388.5,-175.75 0,-175.75"/>
<text text-anchor="start" x="128.62" y="-182.95" font-family="Times New Roman,Times,Liberation Serif,serif" font-weight="bold" font-size="14.00">VoltVarControlSetting</text>
<polygon fill="none" stroke="black" points="0,-153.25 0,-175.75 87.75,-175.75 87.75,-153.25 0,-153.25"/>
<text text-anchor="start" x="31.88" y="-159.45" font-family="Times New Roman,Times,Liberation Serif,serif" font-size="14.00">uuid</text>
<polygon fill="none" stroke="black" points="87.75,-153.25 87.75,-175.75 388.5,-175.75 388.5,-153.25 87.75,-153.25"/>
<text text-anchor="start" x="221.25" y="-159.45" font-family="Times New Roman,Times,Liberation Serif,serif" font-size="14.00">UUID</text>
<polygon fill="none" stroke="black" points="0,-130.75 0,-153.25 87.75,-153.25 87.75,-130.75 0,-130.75"/>
<text text-anchor="start" x="28.88" y="-136.95" font-family="Times New Roman,Times,Liberation Serif,serif" font-size="14.00">name</text>
<polygon fill="none" stroke="black" points="87.75,-130.75 87.75,-153.25 388.5,-153.25 388.5,-130.75 87.75,-130.75"/>
<text text-anchor="start" x="231.38" y="-136.95" font-family="Times New Roman,Times,Liberation Serif,serif" font-size="14.00">str</text>
<polygon fill="none" stroke="black" points="0,-108.25 0,-130.75 87.75,-130.75 87.75,-108.25 0,-108.25"/>
<text text-anchor="start" x="3" y="-114.45" font-family="Times New Roman,Times,Liberation Serif,serif" font-size="14.00">volt_var_curve</text>
<polygon fill="none" stroke="black" points="87.75,-108.25 87.75,-130.75 388.5,-130.75 388.5,-108.25 87.75,-108.25"/>
<text text-anchor="start" x="221.62" y="-114.45" font-family="Times New Roman,Times,Liberation Serif,serif" font-size="14.00">Curve</text>
<polygon fill="none" stroke="black" points="0,-85.75 0,-108.25 87.75,-108.25 87.75,-85.75 0,-85.75"/>
<text text-anchor="start" x="14.25" y="-91.95" font-family="Times New Roman,Times,Liberation Serif,serif" font-size="14.00">var_follow</text>
<polygon fill="none" stroke="black" points="87.75,-85.75 87.75,-108.25 388.5,-108.25 388.5,-85.75 87.75,-85.75"/>
<text text-anchor="start" x="226.12" y="-91.95" font-family="Times New Roman,Times,Liberation Serif,serif" font-size="14.00">bool</text>
<polygon fill="none" stroke="black" points="0,-63.25 0,-85.75 87.75,-85.75 87.75,-63.25 0,-63.25"/>
<text text-anchor="start" x="7.12" y="-69.45" font-family="Times New Roman,Times,Liberation Serif,serif" font-size="14.00">supported_by</text>
<polygon fill="none" stroke="black" points="87.75,-63.25 87.75,-85.75 388.5,-85.75 388.5,-63.25 87.75,-63.25"/>
<text text-anchor="start" x="90.75" y="-69.45" font-family="Times New Roman,Times,Liberation Serif,serif" font-size="14.00">Literal[ControllerSupport.BATTERY_AND_SOLAR]</text>
</a>
</g>
</g>
<!-- gdm.distribution.controllers.distribution_inverter_controller.VoltVarControlSetting&#45;&gt;gdm.distribution.common.curve.Curve -->
<g id="edge1" class="edge">
<title>gdm.distribution.controllers.distribution_inverter_controller.VoltVarControlSetting:e&#45;&gt;gdm.distribution.common.curve.Curve:w</title>
<path fill="none" stroke="black" d="M398.37,-119.5C433.57,-119.53 448.3,-119.7 481.58,-119.74"/>
<polyline fill="none" stroke="black" points="388.5,-119.5 393.5,-119.5"/>
<polyline fill="none" stroke="black" points="393.5,-119.5 398.5,-119.5"/>
<polyline fill="none" stroke="black" points="496.5,-119.75 491.5,-119.75"/>
<polygon fill="black" stroke="black" points="490.5,-114.75 490.5,-124.75 488.5,-124.75 488.5,-114.75 490.5,-114.75"/>
<polyline fill="none" stroke="black" points="491.5,-119.75 486.5,-119.74"/>
<polygon fill="black" stroke="black" points="485.5,-114.74 485.5,-124.74 483.5,-124.74 483.5,-114.74 485.5,-114.74"/>
<polyline fill="none" stroke="black" points="486.5,-119.74 481.5,-119.74"/>
</g>
</g>
</svg>
