<?xml version="1.0" encoding="UTF-8" standalone="no"?>
<!DOCTYPE svg PUBLIC "-//W3C//DTD SVG 1.1//EN"
 "http://www.w3.org/Graphics/SVG/1.1/DTD/svg11.dtd">
<!-- Generated by graphviz version 12.2.1 (20241206.2353)
 -->
<!-- Title: Entity Relationship Diagram created by erdantic Pages: 1 -->
<svg width="275pt" height="229pt"
 viewBox="0.00 0.00 274.50 229.00" xmlns="http://www.w3.org/2000/svg" xmlns:xlink="http://www.w3.org/1999/xlink">
<g id="graph0" class="graph" transform="scale(1 1) rotate(0) translate(4 225)">
<title>Entity Relationship Diagram created by erdantic</title>
<polygon fill="white" stroke="none" points="-4,4 -4,-225 270.5,-225 270.5,4 -4,4"/>
<text text-anchor="middle" x="133.25" y="-5.95" font-family="Times New Roman,Times,Liberation Serif,serif" font-size="9.00" fill="#a8a8a8">Created by erdantic v1.0.5 &lt;https://github.com/drivendataorg/erdantic&gt;</text>
<!-- gdm.distribution.controllers.distribution_capacitor_controller.VoltageCapacitorController -->
<g id="node1" class="node">
<title>gdm.distribution.controllers.distribution_capacitor_controller.VoltageCapacitorController</title>
<g id="a_node1"><a xlink:title="gdm.distribution.controllers.distribution_capacitor_controller.VoltageCapacitorController&#10;&#10;Interface for a Capacitor Controller which uses voltage.&#10;">
<polygon fill="none" stroke="black" points="49.25,-198.5 49.25,-221 217.25,-221 217.25,-198.5 49.25,-198.5"/>
<text text-anchor="start" x="52.25" y="-205.7" font-family="Times New Roman,Times,Liberation Serif,serif" font-weight="bold" font-size="14.00">VoltageCapacitorController</text>
<polygon fill="none" stroke="black" points="49.25,-176 49.25,-198.5 121.62,-198.5 121.62,-176 49.25,-176"/>
<text text-anchor="start" x="73.44" y="-182.2" font-family="Times New Roman,Times,Liberation Serif,serif" font-size="14.00">uuid</text>
<polygon fill="none" stroke="black" points="121.62,-176 121.62,-198.5 217.25,-198.5 217.25,-176 121.62,-176"/>
<text text-anchor="start" x="152.56" y="-182.2" font-family="Times New Roman,Times,Liberation Serif,serif" font-size="14.00">UUID</text>
<polygon fill="none" stroke="black" points="49.25,-153.5 49.25,-176 121.62,-176 121.62,-153.5 49.25,-153.5"/>
<text text-anchor="start" x="70.44" y="-159.7" font-family="Times New Roman,Times,Liberation Serif,serif" font-size="14.00">name</text>
<polygon fill="none" stroke="black" points="121.62,-153.5 121.62,-176 217.25,-176 217.25,-153.5 121.62,-153.5"/>
<text text-anchor="start" x="162.69" y="-159.7" font-family="Times New Roman,Times,Liberation Serif,serif" font-size="14.00">str</text>
<polygon fill="none" stroke="black" points="49.25,-131 49.25,-153.5 121.62,-153.5 121.62,-131 49.25,-131"/>
<text text-anchor="start" x="60.69" y="-137.2" font-family="Times New Roman,Times,Liberation Serif,serif" font-size="14.00">delay_on</text>
<polygon fill="none" stroke="black" points="121.62,-131 121.62,-153.5 217.25,-153.5 217.25,-131 121.62,-131"/>
<text text-anchor="start" x="126.69" y="-137.2" font-family="Times New Roman,Times,Liberation Serif,serif" font-size="14.00">Optional[Time]</text>
<polygon fill="none" stroke="black" points="49.25,-108.5 49.25,-131 121.62,-131 121.62,-108.5 49.25,-108.5"/>
<text text-anchor="start" x="59.56" y="-114.7" font-family="Times New Roman,Times,Liberation Serif,serif" font-size="14.00">delay_off</text>
<polygon fill="none" stroke="black" points="121.62,-108.5 121.62,-131 217.25,-131 217.25,-108.5 121.62,-108.5"/>
<text text-anchor="start" x="126.69" y="-114.7" font-family="Times New Roman,Times,Liberation Serif,serif" font-size="14.00">Optional[Time]</text>
<polygon fill="none" stroke="black" points="49.25,-86 49.25,-108.5 121.62,-108.5 121.62,-86 49.25,-86"/>
<text text-anchor="start" x="56.94" y="-92.2" font-family="Times New Roman,Times,Liberation Serif,serif" font-size="14.00">dead_time</text>
<polygon fill="none" stroke="black" points="121.62,-86 121.62,-108.5 217.25,-108.5 217.25,-86 121.62,-86"/>
<text text-anchor="start" x="126.69" y="-92.2" font-family="Times New Roman,Times,Liberation Serif,serif" font-size="14.00">Optional[Time]</text>
<polygon fill="none" stroke="black" points="49.25,-63.5 49.25,-86 121.62,-86 121.62,-63.5 49.25,-63.5"/>
<text text-anchor="start" x="55.44" y="-69.7" font-family="Times New Roman,Times,Liberation Serif,serif" font-size="14.00">on_voltage</text>
<polygon fill="none" stroke="black" points="121.62,-63.5 121.62,-86 217.25,-86 217.25,-63.5 121.62,-63.5"/>
<text text-anchor="start" x="127.06" y="-69.7" font-family="Times New Roman,Times,Liberation Serif,serif" font-size="14.00">PositiveVoltage</text>
<polygon fill="none" stroke="black" points="49.25,-41 49.25,-63.5 121.62,-63.5 121.62,-41 49.25,-41"/>
<text text-anchor="start" x="54.31" y="-47.2" font-family="Times New Roman,Times,Liberation Serif,serif" font-size="14.00">off_voltage</text>
<polygon fill="none" stroke="black" points="121.62,-41 121.62,-63.5 217.25,-63.5 217.25,-41 121.62,-41"/>
<text text-anchor="start" x="127.06" y="-47.2" font-family="Times New Roman,Times,Liberation Serif,serif" font-size="14.00">PositiveVoltage</text>
<polygon fill="none" stroke="black" points="49.25,-18.5 49.25,-41 121.62,-41 121.62,-18.5 49.25,-18.5"/>
<text text-anchor="start" x="64.44" y="-24.7" font-family="Times New Roman,Times,Liberation Serif,serif" font-size="14.00">pt_ratio</text>
<polygon fill="none" stroke="black" points="121.62,-18.5 121.62,-41 217.25,-41 217.25,-18.5 121.62,-18.5"/>
<text text-anchor="start" x="157.06" y="-24.7" font-family="Times New Roman,Times,Liberation Serif,serif" font-size="14.00">float</text>
</a>
</g>
</g>
</g>
</svg>
