<?xml version="1.0" encoding="UTF-8" standalone="no"?>
<!DOCTYPE svg PUBLIC "-//W3C//DTD SVG 1.1//EN"
 "http://www.w3.org/Graphics/SVG/1.1/DTD/svg11.dtd">
<!-- Generated by graphviz version 9.0.0 (0)
 -->
<!-- Title: Entity Relationship Diagram created by erdantic Pages: 1 -->
<svg width="638pt" height="203pt"
 viewBox="0.00 0.00 638.00 202.50" xmlns="http://www.w3.org/2000/svg" xmlns:xlink="http://www.w3.org/1999/xlink">
<g id="graph0" class="graph" transform="scale(1 1) rotate(0) translate(4 198.5)">
<title>Entity Relationship Diagram created by erdantic</title>
<polygon fill="white" stroke="none" points="-4,4 -4,-198.5 634,-198.5 634,4 -4,4"/>
<text text-anchor="middle" x="315" y="-5.95" font-family="Times New Roman,Times,Liberation Serif,serif" font-size="9.00" fill="#a8a8a8">Created by erdantic v0.6.0 &lt;https://github.com/drivendataorg/erdantic&gt;</text>
<!-- gdm.distribution.controllers.distribution_inverter_controller.VoltWattInverterController -->
<g id="node1" class="node">
<title>gdm.distribution.controllers.distribution_inverter_controller.VoltWattInverterController</title>
<g id="a_node1"><a xlink:title="gdm.distribution.controllers.distribution_inverter_controller.VoltWattInverterController&#10;&#10;Interface for a Volt&#45;Var Inverter Controller.&#10;">
<polygon fill="none" stroke="black" points="0,-172.5 0,-194.5 333,-194.5 333,-172.5 0,-172.5"/>
<text text-anchor="start" x="85.5" y="-179.2" font-family="Times New Roman,Times,Liberation Serif,serif" font-weight="bold" font-size="14.00">VoltWattInverterController</text>
<polygon fill="none" stroke="black" points="0,-150.5 0,-172.5 93,-172.5 93,-150.5 0,-150.5"/>
<text text-anchor="start" x="34.5" y="-156.2" font-family="Times New Roman,Times,Liberation Serif,serif" font-size="14.00">uuid</text>
<polygon fill="none" stroke="black" points="93,-150.5 93,-172.5 333,-172.5 333,-150.5 93,-150.5"/>
<text text-anchor="start" x="196.12" y="-156.2" font-family="Times New Roman,Times,Liberation Serif,serif" font-size="14.00">UUID</text>
<polygon fill="none" stroke="black" points="0,-128.5 0,-150.5 93,-150.5 93,-128.5 0,-128.5"/>
<text text-anchor="start" x="31.5" y="-134.2" font-family="Times New Roman,Times,Liberation Serif,serif" font-size="14.00">name</text>
<polygon fill="none" stroke="black" points="93,-128.5 93,-150.5 333,-150.5 333,-128.5 93,-128.5"/>
<text text-anchor="start" x="206.25" y="-134.2" font-family="Times New Roman,Times,Liberation Serif,serif" font-size="14.00">str</text>
<polygon fill="none" stroke="black" points="0,-106.5 0,-128.5 93,-128.5 93,-106.5 0,-106.5"/>
<text text-anchor="start" x="2.62" y="-112.2" font-family="Times New Roman,Times,Liberation Serif,serif" font-size="14.00">volt_watt_curve</text>
<polygon fill="none" stroke="black" points="93,-106.5 93,-128.5 333,-128.5 333,-106.5 93,-106.5"/>
<text text-anchor="start" x="196.5" y="-112.2" font-family="Times New Roman,Times,Liberation Serif,serif" font-size="14.00">Curve</text>
<polygon fill="none" stroke="black" points="0,-84.5 0,-106.5 93,-106.5 93,-84.5 0,-84.5"/>
<text text-anchor="start" x="9.75" y="-90.2" font-family="Times New Roman,Times,Liberation Serif,serif" font-size="14.00">supported_by</text>
<polygon fill="none" stroke="black" points="93,-84.5 93,-106.5 333,-106.5 333,-84.5 93,-84.5"/>
<text text-anchor="start" x="95.62" y="-90.2" font-family="Times New Roman,Times,Liberation Serif,serif" font-size="14.00">Literal[ControllerSupport.SOLAR_ONLY]</text>
</a>
</g>
</g>
<!-- gdm.distribution.curve.Curve -->
<g id="node2" class="node">
<title>gdm.distribution.curve.Curve</title>
<g id="a_node2"><a xlink:title="gdm.distribution.curve.Curve&#10;&#10;An interface for representing a curve using x and y points. e.g for volt&#45;var and volt&#45;watt curves.&#10;&#10;Examples&#10;&#45;&#45;&#45;&#45;&#45;&#45;&#45;&#45;&#10;&#10;Example of a Curve (Volt&#45;Var IEEE&#45;1547 standard).&#10;&#10;&gt;&gt;&gt; Curve(&#10; &#160;&#160;&#160;&#160;&#160;&#160;&#160;curve_x=[0.5, 0.92, 0.98, 1.02, 1.08, 1.5], curve_y=[1.0, 1.0, 0.0, 0.0, &#45;1.0, &#45;1.0]&#10; &#160;&#160;&#160;)&#10;&#10;Example of a Curve (Volt&#45;Var Volt&#45;Watt IEEE&#45;1547 standard)&#10;&#10;&gt;&gt;&gt; Curve(curve_x=[0.5, 1.06, 1.1, 1.5], curve_y=[1.0, 1.0, 0.0, 0.0])&#10;">
<polygon fill="none" stroke="black" points="441,-106.5 441,-128.5 630,-128.5 630,-106.5 441,-106.5"/>
<text text-anchor="start" x="517.5" y="-113.2" font-family="Times New Roman,Times,Liberation Serif,serif" font-weight="bold" font-size="14.00">Curve</text>
<polygon fill="none" stroke="black" points="441,-84.5 441,-106.5 490,-106.5 490,-84.5 441,-84.5"/>
<text text-anchor="start" x="453.5" y="-90.2" font-family="Times New Roman,Times,Liberation Serif,serif" font-size="14.00">uuid</text>
<polygon fill="none" stroke="black" points="490,-84.5 490,-106.5 630,-106.5 630,-84.5 490,-84.5"/>
<text text-anchor="start" x="543.12" y="-90.2" font-family="Times New Roman,Times,Liberation Serif,serif" font-size="14.00">UUID</text>
<polygon fill="none" stroke="black" points="441,-62.5 441,-84.5 490,-84.5 490,-62.5 441,-62.5"/>
<text text-anchor="start" x="450.5" y="-68.2" font-family="Times New Roman,Times,Liberation Serif,serif" font-size="14.00">name</text>
<polygon fill="none" stroke="black" points="490,-62.5 490,-84.5 630,-84.5 630,-62.5 490,-62.5"/>
<text text-anchor="start" x="553.25" y="-68.2" font-family="Times New Roman,Times,Liberation Serif,serif" font-size="14.00">str</text>
<polygon fill="none" stroke="black" points="441,-40.5 441,-62.5 490,-62.5 490,-40.5 441,-40.5"/>
<text text-anchor="start" x="443.75" y="-46.2" font-family="Times New Roman,Times,Liberation Serif,serif" font-size="14.00">curve_x</text>
<polygon fill="none" stroke="black" points="490,-40.5 490,-62.5 630,-62.5 630,-40.5 490,-40.5"/>
<text text-anchor="start" x="492.88" y="-46.2" font-family="Times New Roman,Times,Liberation Serif,serif" font-size="14.00">list[float] | BaseQuantity</text>
<polygon fill="none" stroke="black" points="441,-18.5 441,-40.5 490,-40.5 490,-18.5 441,-18.5"/>
<text text-anchor="start" x="443.75" y="-24.2" font-family="Times New Roman,Times,Liberation Serif,serif" font-size="14.00">curve_y</text>
<polygon fill="none" stroke="black" points="490,-18.5 490,-40.5 630,-40.5 630,-18.5 490,-18.5"/>
<text text-anchor="start" x="492.88" y="-24.2" font-family="Times New Roman,Times,Liberation Serif,serif" font-size="14.00">list[float] | BaseQuantity</text>
</a>
</g>
</g>
<!-- gdm.distribution.controllers.distribution_inverter_controller.VoltWattInverterController&#45;&gt;gdm.distribution.curve.Curve -->
<g id="edge1" class="edge">
<title>gdm.distribution.controllers.distribution_inverter_controller.VoltWattInverterController:e&#45;&gt;gdm.distribution.curve.Curve:w</title>
<path fill="none" stroke="black" d="M342.87,-117.5C378.07,-117.5 392.8,-117.5 426.08,-117.5"/>
<polyline fill="none" stroke="black" points="333,-117.5 338,-117.5"/>
<polyline fill="none" stroke="black" points="338,-117.5 343,-117.5"/>
<polyline fill="none" stroke="black" points="441,-117.5 436,-117.5"/>
<polygon fill="black" stroke="black" points="435,-112.5 435,-122.5 433,-122.5 433,-112.5 435,-112.5"/>
<polyline fill="none" stroke="black" points="436,-117.5 431,-117.5"/>
<polygon fill="black" stroke="black" points="430,-112.5 430,-122.5 428,-122.5 428,-112.5 430,-112.5"/>
<polyline fill="none" stroke="black" points="431,-117.5 426,-117.5"/>
</g>
</g>
</svg>
