<?xml version="1.0" encoding="UTF-8" standalone="no"?>
<!DOCTYPE svg PUBLIC "-//W3C//DTD SVG 1.1//EN"
 "http://www.w3.org/Graphics/SVG/1.1/DTD/svg11.dtd">
<!-- Generated by graphviz version 12.2.1 (20241206.2353)
 -->
<!-- Title: Entity Relationship Diagram created by erdantic Pages: 1 -->
<svg width="700pt" height="206pt"
 viewBox="0.00 0.00 700.25 206.00" xmlns="http://www.w3.org/2000/svg" xmlns:xlink="http://www.w3.org/1999/xlink">
<g id="graph0" class="graph" transform="scale(1 1) rotate(0) translate(4 202)">
<title>Entity Relationship Diagram created by erdantic</title>
<polygon fill="white" stroke="none" points="-4,4 -4,-202 696.25,-202 696.25,4 -4,4"/>
<text text-anchor="middle" x="346.12" y="-5.95" font-family="Times New Roman,Times,Liberation Serif,serif" font-size="9.00" fill="#a8a8a8">Created by erdantic v1.0.5 &lt;https://github.com/drivendataorg/erdantic&gt;</text>
<!-- gdm.distribution.common.curve.Curve -->
<g id="node1" class="node">
<title>gdm.distribution.common.curve.Curve</title>
<g id="a_node1"><a xlink:title="gdm.distribution.common.curve.Curve&#10;&#10;An interface for representing a curve using x and y points. e.g for volt&#45;var and volt&#45;watt curves.&#10;&#10;Examples&#10;&#45;&#45;&#45;&#45;&#45;&#45;&#45;&#45;&#10;&#10;Example of a Curve (Volt&#45;Var IEEE&#45;1547 standard).&#10;&#10;&gt;&gt;&gt; Curve(&#10; &#160;&#160;&#160;&#160;&#160;&#160;&#160;curve_x=[0.5, 0.92, 0.98, 1.02, 1.08, 1.5], curve_y=[1.0, 1.0, 0.0, 0.0, &#45;1.0, &#45;1.0]&#10; &#160;&#160;&#160;)&#10;&#10;Example of a Curve (Volt&#45;Var Volt&#45;Watt IEEE&#45;1547 standard)&#10;&#10;&gt;&gt;&gt; Curve(curve_x=[0.5, 1.06, 1.1, 1.5], curve_y=[1.0, 1.0, 0.0, 0.0])&#10;">
<polygon fill="none" stroke="black" points="502.5,-108.5 502.5,-131 692.25,-131 692.25,-108.5 502.5,-108.5"/>
<text text-anchor="start" x="579.38" y="-115.7" font-family="Times New Roman,Times,Liberation Serif,serif" font-weight="bold" font-size="14.00">Curve</text>
<polygon fill="none" stroke="black" points="502.5,-86 502.5,-108.5 552,-108.5 552,-86 502.5,-86"/>
<text text-anchor="start" x="515.25" y="-92.2" font-family="Times New Roman,Times,Liberation Serif,serif" font-size="14.00">uuid</text>
<polygon fill="none" stroke="black" points="552,-86 552,-108.5 692.25,-108.5 692.25,-86 552,-86"/>
<text text-anchor="start" x="605.25" y="-92.2" font-family="Times New Roman,Times,Liberation Serif,serif" font-size="14.00">UUID</text>
<polygon fill="none" stroke="black" points="502.5,-63.5 502.5,-86 552,-86 552,-63.5 502.5,-63.5"/>
<text text-anchor="start" x="512.25" y="-69.7" font-family="Times New Roman,Times,Liberation Serif,serif" font-size="14.00">name</text>
<polygon fill="none" stroke="black" points="552,-63.5 552,-86 692.25,-86 692.25,-63.5 552,-63.5"/>
<text text-anchor="start" x="615.38" y="-69.7" font-family="Times New Roman,Times,Liberation Serif,serif" font-size="14.00">str</text>
<polygon fill="none" stroke="black" points="502.5,-41 502.5,-63.5 552,-63.5 552,-41 502.5,-41"/>
<text text-anchor="start" x="505.5" y="-47.2" font-family="Times New Roman,Times,Liberation Serif,serif" font-size="14.00">curve_x</text>
<polygon fill="none" stroke="black" points="552,-41 552,-63.5 692.25,-63.5 692.25,-41 552,-41"/>
<text text-anchor="start" x="555" y="-47.2" font-family="Times New Roman,Times,Liberation Serif,serif" font-size="14.00">list[float] | BaseQuantity</text>
<polygon fill="none" stroke="black" points="502.5,-18.5 502.5,-41 552,-41 552,-18.5 502.5,-18.5"/>
<text text-anchor="start" x="505.5" y="-24.7" font-family="Times New Roman,Times,Liberation Serif,serif" font-size="14.00">curve_y</text>
<polygon fill="none" stroke="black" points="552,-18.5 552,-41 692.25,-41 692.25,-18.5 552,-18.5"/>
<text text-anchor="start" x="555" y="-24.7" font-family="Times New Roman,Times,Liberation Serif,serif" font-size="14.00">list[float] | BaseQuantity</text>
</a>
</g>
</g>
<!-- gdm.distribution.controllers.distribution_inverter_controller.VoltWattControlSetting -->
<g id="node2" class="node">
<title>gdm.distribution.controllers.distribution_inverter_controller.VoltWattControlSetting</title>
<g id="a_node2"><a xlink:title="gdm.distribution.controllers.distribution_inverter_controller.VoltWattControlSetting&#10;&#10;Control settings for the Inverter Controller to represent volt / watt control settings.&#10;Works with both battery and solar systems. Controls active power output of the&#10;connected inverter&#10;">
<polygon fill="none" stroke="black" points="0,-175.5 0,-198 394.5,-198 394.5,-175.5 0,-175.5"/>
<text text-anchor="start" x="127.88" y="-182.7" font-family="Times New Roman,Times,Liberation Serif,serif" font-weight="bold" font-size="14.00">VoltWattControlSetting</text>
<polygon fill="none" stroke="black" points="0,-153 0,-175.5 93.75,-175.5 93.75,-153 0,-153"/>
<text text-anchor="start" x="34.88" y="-159.2" font-family="Times New Roman,Times,Liberation Serif,serif" font-size="14.00">uuid</text>
<polygon fill="none" stroke="black" points="93.75,-153 93.75,-175.5 394.5,-175.5 394.5,-153 93.75,-153"/>
<text text-anchor="start" x="227.25" y="-159.2" font-family="Times New Roman,Times,Liberation Serif,serif" font-size="14.00">UUID</text>
<polygon fill="none" stroke="black" points="0,-130.5 0,-153 93.75,-153 93.75,-130.5 0,-130.5"/>
<text text-anchor="start" x="31.88" y="-136.7" font-family="Times New Roman,Times,Liberation Serif,serif" font-size="14.00">name</text>
<polygon fill="none" stroke="black" points="93.75,-130.5 93.75,-153 394.5,-153 394.5,-130.5 93.75,-130.5"/>
<text text-anchor="start" x="237.38" y="-136.7" font-family="Times New Roman,Times,Liberation Serif,serif" font-size="14.00">str</text>
<polygon fill="none" stroke="black" points="0,-108 0,-130.5 93.75,-130.5 93.75,-108 0,-108"/>
<text text-anchor="start" x="3" y="-114.2" font-family="Times New Roman,Times,Liberation Serif,serif" font-size="14.00">volt_watt_curve</text>
<polygon fill="none" stroke="black" points="93.75,-108 93.75,-130.5 394.5,-130.5 394.5,-108 93.75,-108"/>
<text text-anchor="start" x="227.62" y="-114.2" font-family="Times New Roman,Times,Liberation Serif,serif" font-size="14.00">Curve</text>
<polygon fill="none" stroke="black" points="0,-85.5 0,-108 93.75,-108 93.75,-85.5 0,-85.5"/>
<text text-anchor="start" x="10.12" y="-91.7" font-family="Times New Roman,Times,Liberation Serif,serif" font-size="14.00">supported_by</text>
<polygon fill="none" stroke="black" points="93.75,-85.5 93.75,-108 394.5,-108 394.5,-85.5 93.75,-85.5"/>
<text text-anchor="start" x="96.75" y="-91.7" font-family="Times New Roman,Times,Liberation Serif,serif" font-size="14.00">Literal[ControllerSupport.BATTERY_AND_SOLAR]</text>
</a>
</g>
</g>
<!-- gdm.distribution.controllers.distribution_inverter_controller.VoltWattControlSetting&#45;&gt;gdm.distribution.common.curve.Curve -->
<g id="edge1" class="edge">
<title>gdm.distribution.controllers.distribution_inverter_controller.VoltWattControlSetting:e&#45;&gt;gdm.distribution.common.curve.Curve:w</title>
<path fill="none" stroke="black" d="M404.37,-119.26C439.57,-119.31 454.3,-119.65 487.58,-119.73"/>
<polyline fill="none" stroke="black" points="394.5,-119.25 399.5,-119.25"/>
<polyline fill="none" stroke="black" points="399.5,-119.25 404.5,-119.26"/>
<polyline fill="none" stroke="black" points="502.5,-119.75 497.5,-119.74"/>
<polygon fill="black" stroke="black" points="496.51,-114.74 496.49,-124.74 494.49,-124.74 494.51,-114.74 496.51,-114.74"/>
<polyline fill="none" stroke="black" points="497.5,-119.74 492.5,-119.74"/>
<polygon fill="black" stroke="black" points="491.51,-114.74 491.49,-124.74 489.49,-124.73 489.51,-114.73 491.51,-114.74"/>
<polyline fill="none" stroke="black" points="492.5,-119.74 487.5,-119.73"/>
</g>
</g>
</svg>
