<?xml version="1.0" encoding="UTF-8" standalone="no"?>
<!DOCTYPE svg PUBLIC "-//W3C//DTD SVG 1.1//EN"
 "http://www.w3.org/Graphics/SVG/1.1/DTD/svg11.dtd">
<!-- Generated by graphviz version 9.0.0 (0)
 -->
<!-- Title: Entity Relationship Diagram created by erdantic Pages: 1 -->
<svg width="692pt" height="203pt"
 viewBox="0.00 0.00 692.00 202.50" xmlns="http://www.w3.org/2000/svg" xmlns:xlink="http://www.w3.org/1999/xlink">
<g id="graph0" class="graph" transform="scale(1 1) rotate(0) translate(4 198.5)">
<title>Entity Relationship Diagram created by erdantic</title>
<polygon fill="white" stroke="none" points="-4,4 -4,-198.5 688,-198.5 688,4 -4,4"/>
<text text-anchor="middle" x="342" y="-5.95" font-family="Times New Roman,Times,Liberation Serif,serif" font-size="9.00" fill="#a8a8a8">Created by erdantic v0.6.0 &lt;https://github.com/drivendataorg/erdantic&gt;</text>
<!-- gdm.distribution.controllers.distribution_inverter_controller.VoltVarInverterController -->
<g id="node1" class="node">
<title>gdm.distribution.controllers.distribution_inverter_controller.VoltVarInverterController</title>
<g id="a_node1"><a xlink:title="gdm.distribution.controllers.distribution_inverter_controller.VoltVarInverterController&#10;&#10;Interface for a Volt&#45;Var Inverter Controller.&#10;">
<polygon fill="none" stroke="black" points="0,-172.5 0,-194.5 387,-194.5 387,-172.5 0,-172.5"/>
<text text-anchor="start" x="116.25" y="-179.2" font-family="Times New Roman,Times,Liberation Serif,serif" font-weight="bold" font-size="14.00">VoltVarInverterController</text>
<polygon fill="none" stroke="black" points="0,-150.5 0,-172.5 87,-172.5 87,-150.5 0,-150.5"/>
<text text-anchor="start" x="31.5" y="-156.2" font-family="Times New Roman,Times,Liberation Serif,serif" font-size="14.00">uuid</text>
<polygon fill="none" stroke="black" points="87,-150.5 87,-172.5 387,-172.5 387,-150.5 87,-150.5"/>
<text text-anchor="start" x="220.12" y="-156.2" font-family="Times New Roman,Times,Liberation Serif,serif" font-size="14.00">UUID</text>
<polygon fill="none" stroke="black" points="0,-128.5 0,-150.5 87,-150.5 87,-128.5 0,-128.5"/>
<text text-anchor="start" x="28.5" y="-134.2" font-family="Times New Roman,Times,Liberation Serif,serif" font-size="14.00">name</text>
<polygon fill="none" stroke="black" points="87,-128.5 87,-150.5 387,-150.5 387,-128.5 87,-128.5"/>
<text text-anchor="start" x="230.25" y="-134.2" font-family="Times New Roman,Times,Liberation Serif,serif" font-size="14.00">str</text>
<polygon fill="none" stroke="black" points="0,-106.5 0,-128.5 87,-128.5 87,-106.5 0,-106.5"/>
<text text-anchor="start" x="2.62" y="-112.2" font-family="Times New Roman,Times,Liberation Serif,serif" font-size="14.00">volt_var_curve</text>
<polygon fill="none" stroke="black" points="87,-106.5 87,-128.5 387,-128.5 387,-106.5 87,-106.5"/>
<text text-anchor="start" x="220.5" y="-112.2" font-family="Times New Roman,Times,Liberation Serif,serif" font-size="14.00">Curve</text>
<polygon fill="none" stroke="black" points="0,-84.5 0,-106.5 87,-106.5 87,-84.5 0,-84.5"/>
<text text-anchor="start" x="13.88" y="-90.2" font-family="Times New Roman,Times,Liberation Serif,serif" font-size="14.00">var_follow</text>
<polygon fill="none" stroke="black" points="87,-84.5 87,-106.5 387,-106.5 387,-84.5 87,-84.5"/>
<text text-anchor="start" x="225" y="-90.2" font-family="Times New Roman,Times,Liberation Serif,serif" font-size="14.00">bool</text>
<polygon fill="none" stroke="black" points="0,-62.5 0,-84.5 87,-84.5 87,-62.5 0,-62.5"/>
<text text-anchor="start" x="6.75" y="-68.2" font-family="Times New Roman,Times,Liberation Serif,serif" font-size="14.00">supported_by</text>
<polygon fill="none" stroke="black" points="87,-62.5 87,-84.5 387,-84.5 387,-62.5 87,-62.5"/>
<text text-anchor="start" x="90" y="-68.2" font-family="Times New Roman,Times,Liberation Serif,serif" font-size="14.00">Literal[ControllerSupport.BATTERY_AND_SOLAR]</text>
</a>
</g>
</g>
<!-- gdm.distribution.curve.Curve -->
<g id="node2" class="node">
<title>gdm.distribution.curve.Curve</title>
<g id="a_node2"><a xlink:title="gdm.distribution.curve.Curve&#10;&#10;An interface for representing a curve using x and y points. e.g for volt&#45;var and volt&#45;watt curves.&#10;&#10;Examples&#10;&#45;&#45;&#45;&#45;&#45;&#45;&#45;&#45;&#10;&#10;Example of a Curve (Volt&#45;Var IEEE&#45;1547 standard).&#10;&#10;&gt;&gt;&gt; Curve(&#10; &#160;&#160;&#160;&#160;&#160;&#160;&#160;curve_x=[0.5, 0.92, 0.98, 1.02, 1.08, 1.5], curve_y=[1.0, 1.0, 0.0, 0.0, &#45;1.0, &#45;1.0]&#10; &#160;&#160;&#160;)&#10;&#10;Example of a Curve (Volt&#45;Var Volt&#45;Watt IEEE&#45;1547 standard)&#10;&#10;&gt;&gt;&gt; Curve(curve_x=[0.5, 1.06, 1.1, 1.5], curve_y=[1.0, 1.0, 0.0, 0.0])&#10;">
<polygon fill="none" stroke="black" points="495,-106.5 495,-128.5 684,-128.5 684,-106.5 495,-106.5"/>
<text text-anchor="start" x="571.5" y="-113.2" font-family="Times New Roman,Times,Liberation Serif,serif" font-weight="bold" font-size="14.00">Curve</text>
<polygon fill="none" stroke="black" points="495,-84.5 495,-106.5 544,-106.5 544,-84.5 495,-84.5"/>
<text text-anchor="start" x="507.5" y="-90.2" font-family="Times New Roman,Times,Liberation Serif,serif" font-size="14.00">uuid</text>
<polygon fill="none" stroke="black" points="544,-84.5 544,-106.5 684,-106.5 684,-84.5 544,-84.5"/>
<text text-anchor="start" x="597.12" y="-90.2" font-family="Times New Roman,Times,Liberation Serif,serif" font-size="14.00">UUID</text>
<polygon fill="none" stroke="black" points="495,-62.5 495,-84.5 544,-84.5 544,-62.5 495,-62.5"/>
<text text-anchor="start" x="504.5" y="-68.2" font-family="Times New Roman,Times,Liberation Serif,serif" font-size="14.00">name</text>
<polygon fill="none" stroke="black" points="544,-62.5 544,-84.5 684,-84.5 684,-62.5 544,-62.5"/>
<text text-anchor="start" x="607.25" y="-68.2" font-family="Times New Roman,Times,Liberation Serif,serif" font-size="14.00">str</text>
<polygon fill="none" stroke="black" points="495,-40.5 495,-62.5 544,-62.5 544,-40.5 495,-40.5"/>
<text text-anchor="start" x="497.75" y="-46.2" font-family="Times New Roman,Times,Liberation Serif,serif" font-size="14.00">curve_x</text>
<polygon fill="none" stroke="black" points="544,-40.5 544,-62.5 684,-62.5 684,-40.5 544,-40.5"/>
<text text-anchor="start" x="546.88" y="-46.2" font-family="Times New Roman,Times,Liberation Serif,serif" font-size="14.00">list[float] | BaseQuantity</text>
<polygon fill="none" stroke="black" points="495,-18.5 495,-40.5 544,-40.5 544,-18.5 495,-18.5"/>
<text text-anchor="start" x="497.75" y="-24.2" font-family="Times New Roman,Times,Liberation Serif,serif" font-size="14.00">curve_y</text>
<polygon fill="none" stroke="black" points="544,-18.5 544,-40.5 684,-40.5 684,-18.5 544,-18.5"/>
<text text-anchor="start" x="546.88" y="-24.2" font-family="Times New Roman,Times,Liberation Serif,serif" font-size="14.00">list[float] | BaseQuantity</text>
</a>
</g>
</g>
<!-- gdm.distribution.controllers.distribution_inverter_controller.VoltVarInverterController&#45;&gt;gdm.distribution.curve.Curve -->
<g id="edge1" class="edge">
<title>gdm.distribution.controllers.distribution_inverter_controller.VoltVarInverterController:e&#45;&gt;gdm.distribution.curve.Curve:w</title>
<path fill="none" stroke="black" d="M396.87,-117.5C432.07,-117.5 446.8,-117.5 480.08,-117.5"/>
<polyline fill="none" stroke="black" points="387,-117.5 392,-117.5"/>
<polyline fill="none" stroke="black" points="392,-117.5 397,-117.5"/>
<polyline fill="none" stroke="black" points="495,-117.5 490,-117.5"/>
<polygon fill="black" stroke="black" points="489,-112.5 489,-122.5 487,-122.5 487,-112.5 489,-112.5"/>
<polyline fill="none" stroke="black" points="490,-117.5 485,-117.5"/>
<polygon fill="black" stroke="black" points="484,-112.5 484,-122.5 482,-122.5 482,-112.5 484,-112.5"/>
<polyline fill="none" stroke="black" points="485,-117.5 480,-117.5"/>
</g>
</g>
</svg>
