<?xml version="1.0" encoding="UTF-8" standalone="no"?>
<!DOCTYPE svg PUBLIC "-//W3C//DTD SVG 1.1//EN"
 "http://www.w3.org/Graphics/SVG/1.1/DTD/svg11.dtd">
<!-- Generated by graphviz version 9.0.0 (0)
 -->
<!-- Title: Entity Relationship Diagram created by erdantic Pages: 1 -->
<svg width="275pt" height="225pt"
 viewBox="0.00 0.00 274.50 224.50" xmlns="http://www.w3.org/2000/svg" xmlns:xlink="http://www.w3.org/1999/xlink">
<g id="graph0" class="graph" transform="scale(1 1) rotate(0) translate(4 220.5)">
<title>Entity Relationship Diagram created by erdantic</title>
<polygon fill="white" stroke="none" points="-4,4 -4,-220.5 270.5,-220.5 270.5,4 -4,4"/>
<text text-anchor="middle" x="133.25" y="-5.95" font-family="Times New Roman,Times,Liberation Serif,serif" font-size="9.00" fill="#a8a8a8">Created by erdantic v0.6.0 &lt;https://github.com/drivendataorg/erdantic&gt;</text>
<!-- gdm.distribution.controllers.distribution_capacitor_controller.VoltageCapacitorController -->
<g id="node1" class="node">
<title>gdm.distribution.controllers.distribution_capacitor_controller.VoltageCapacitorController</title>
<g id="a_node1"><a xlink:title="gdm.distribution.controllers.distribution_capacitor_controller.VoltageCapacitorController&#10;&#10;Interface for a Capacitor Controller which uses voltage.&#10;">
<polygon fill="none" stroke="black" points="49.25,-194.5 49.25,-216.5 217.25,-216.5 217.25,-194.5 49.25,-194.5"/>
<text text-anchor="start" x="52.25" y="-201.2" font-family="Times New Roman,Times,Liberation Serif,serif" font-weight="bold" font-size="14.00">VoltageCapacitorController</text>
<polygon fill="none" stroke="black" points="49.25,-172.5 49.25,-194.5 121.25,-194.5 121.25,-172.5 49.25,-172.5"/>
<text text-anchor="start" x="73.25" y="-178.2" font-family="Times New Roman,Times,Liberation Serif,serif" font-size="14.00">uuid</text>
<polygon fill="none" stroke="black" points="121.25,-172.5 121.25,-194.5 217.25,-194.5 217.25,-172.5 121.25,-172.5"/>
<text text-anchor="start" x="152.38" y="-178.2" font-family="Times New Roman,Times,Liberation Serif,serif" font-size="14.00">UUID</text>
<polygon fill="none" stroke="black" points="49.25,-150.5 49.25,-172.5 121.25,-172.5 121.25,-150.5 49.25,-150.5"/>
<text text-anchor="start" x="70.25" y="-156.2" font-family="Times New Roman,Times,Liberation Serif,serif" font-size="14.00">name</text>
<polygon fill="none" stroke="black" points="121.25,-150.5 121.25,-172.5 217.25,-172.5 217.25,-150.5 121.25,-150.5"/>
<text text-anchor="start" x="162.5" y="-156.2" font-family="Times New Roman,Times,Liberation Serif,serif" font-size="14.00">str</text>
<polygon fill="none" stroke="black" points="49.25,-128.5 49.25,-150.5 121.25,-150.5 121.25,-128.5 49.25,-128.5"/>
<text text-anchor="start" x="60.5" y="-134.2" font-family="Times New Roman,Times,Liberation Serif,serif" font-size="14.00">delay_on</text>
<polygon fill="none" stroke="black" points="121.25,-128.5 121.25,-150.5 217.25,-150.5 217.25,-128.5 121.25,-128.5"/>
<text text-anchor="start" x="126.5" y="-134.2" font-family="Times New Roman,Times,Liberation Serif,serif" font-size="14.00">Optional[Time]</text>
<polygon fill="none" stroke="black" points="49.25,-106.5 49.25,-128.5 121.25,-128.5 121.25,-106.5 49.25,-106.5"/>
<text text-anchor="start" x="59.38" y="-112.2" font-family="Times New Roman,Times,Liberation Serif,serif" font-size="14.00">delay_off</text>
<polygon fill="none" stroke="black" points="121.25,-106.5 121.25,-128.5 217.25,-128.5 217.25,-106.5 121.25,-106.5"/>
<text text-anchor="start" x="126.5" y="-112.2" font-family="Times New Roman,Times,Liberation Serif,serif" font-size="14.00">Optional[Time]</text>
<polygon fill="none" stroke="black" points="49.25,-84.5 49.25,-106.5 121.25,-106.5 121.25,-84.5 49.25,-84.5"/>
<text text-anchor="start" x="56.75" y="-90.2" font-family="Times New Roman,Times,Liberation Serif,serif" font-size="14.00">dead_time</text>
<polygon fill="none" stroke="black" points="121.25,-84.5 121.25,-106.5 217.25,-106.5 217.25,-84.5 121.25,-84.5"/>
<text text-anchor="start" x="126.5" y="-90.2" font-family="Times New Roman,Times,Liberation Serif,serif" font-size="14.00">Optional[Time]</text>
<polygon fill="none" stroke="black" points="49.25,-62.5 49.25,-84.5 121.25,-84.5 121.25,-62.5 49.25,-62.5"/>
<text text-anchor="start" x="55.25" y="-68.2" font-family="Times New Roman,Times,Liberation Serif,serif" font-size="14.00">on_voltage</text>
<polygon fill="none" stroke="black" points="121.25,-62.5 121.25,-84.5 217.25,-84.5 217.25,-62.5 121.25,-62.5"/>
<text text-anchor="start" x="126.88" y="-68.2" font-family="Times New Roman,Times,Liberation Serif,serif" font-size="14.00">PositiveVoltage</text>
<polygon fill="none" stroke="black" points="49.25,-40.5 49.25,-62.5 121.25,-62.5 121.25,-40.5 49.25,-40.5"/>
<text text-anchor="start" x="54.12" y="-46.2" font-family="Times New Roman,Times,Liberation Serif,serif" font-size="14.00">off_voltage</text>
<polygon fill="none" stroke="black" points="121.25,-40.5 121.25,-62.5 217.25,-62.5 217.25,-40.5 121.25,-40.5"/>
<text text-anchor="start" x="126.88" y="-46.2" font-family="Times New Roman,Times,Liberation Serif,serif" font-size="14.00">PositiveVoltage</text>
<polygon fill="none" stroke="black" points="49.25,-18.5 49.25,-40.5 121.25,-40.5 121.25,-18.5 49.25,-18.5"/>
<text text-anchor="start" x="64.25" y="-24.2" font-family="Times New Roman,Times,Liberation Serif,serif" font-size="14.00">pt_ratio</text>
<polygon fill="none" stroke="black" points="121.25,-18.5 121.25,-40.5 217.25,-40.5 217.25,-18.5 121.25,-18.5"/>
<text text-anchor="start" x="156.88" y="-24.2" font-family="Times New Roman,Times,Liberation Serif,serif" font-size="14.00">float</text>
</a>
</g>
</g>
</g>
</svg>
