<?xml version="1.0" encoding="UTF-8" standalone="no"?>
<!DOCTYPE svg PUBLIC "-//W3C//DTD SVG 1.1//EN"
 "http://www.w3.org/Graphics/SVG/1.1/DTD/svg11.dtd">
<!-- Generated by graphviz version 12.2.1 (20241206.2353)
 -->
<!-- Title: Entity Relationship Diagram created by erdantic Pages: 1 -->
<svg width="553pt" height="296pt"
 viewBox="0.00 0.00 552.50 295.75" xmlns="http://www.w3.org/2000/svg" xmlns:xlink="http://www.w3.org/1999/xlink">
<g id="graph0" class="graph" transform="scale(1 1) rotate(0) translate(4 291.75)">
<title>Entity Relationship Diagram created by erdantic</title>
<polygon fill="white" stroke="none" points="-4,4 -4,-291.75 548.5,-291.75 548.5,4 -4,4"/>
<text text-anchor="middle" x="272.25" y="-5.95" font-family="Times New Roman,Times,Liberation Serif,serif" font-size="9.00" fill="#a8a8a8">Created by erdantic v1.0.5 &lt;https://github.com/drivendataorg/erdantic&gt;</text>
<!-- gdm.distribution.equipment.phase_voltagesource_equipment.PhaseVoltageSourceEquipment -->
<g id="node1" class="node">
<title>gdm.distribution.equipment.phase_voltagesource_equipment.PhaseVoltageSourceEquipment</title>
<g id="a_node1"><a xlink:title="gdm.distribution.equipment.phase_voltagesource_equipment.PhaseVoltageSourceEquipment&#10;&#10;Interface for phase voltage source.&#10;">
<polygon fill="none" stroke="black" points="356.25,-198.5 356.25,-221 544.5,-221 544.5,-198.5 356.25,-198.5"/>
<text text-anchor="start" x="359.25" y="-205.7" font-family="Times New Roman,Times,Liberation Serif,serif" font-weight="bold" font-size="14.00">PhaseVoltageSourceEquipment</text>
<polygon fill="none" stroke="black" points="356.25,-176 356.25,-198.5 441.38,-198.5 441.38,-176 356.25,-176"/>
<text text-anchor="start" x="386.81" y="-182.2" font-family="Times New Roman,Times,Liberation Serif,serif" font-size="14.00">uuid</text>
<polygon fill="none" stroke="black" points="441.38,-176 441.38,-198.5 544.5,-198.5 544.5,-176 441.38,-176"/>
<text text-anchor="start" x="476.06" y="-182.2" font-family="Times New Roman,Times,Liberation Serif,serif" font-size="14.00">UUID</text>
<polygon fill="none" stroke="black" points="356.25,-153.5 356.25,-176 441.38,-176 441.38,-153.5 356.25,-153.5"/>
<text text-anchor="start" x="383.81" y="-159.7" font-family="Times New Roman,Times,Liberation Serif,serif" font-size="14.00">name</text>
<polygon fill="none" stroke="black" points="441.38,-153.5 441.38,-176 544.5,-176 544.5,-153.5 441.38,-153.5"/>
<text text-anchor="start" x="486.19" y="-159.7" font-family="Times New Roman,Times,Liberation Serif,serif" font-size="14.00">str</text>
<polygon fill="none" stroke="black" points="356.25,-131 356.25,-153.5 441.38,-153.5 441.38,-131 356.25,-131"/>
<text text-anchor="start" x="393.19" y="-137.2" font-family="Times New Roman,Times,Liberation Serif,serif" font-size="14.00">r0</text>
<polygon fill="none" stroke="black" points="441.38,-131 441.38,-153.5 544.5,-153.5 544.5,-131 441.38,-131"/>
<text text-anchor="start" x="464.06" y="-137.2" font-family="Times New Roman,Times,Liberation Serif,serif" font-size="14.00">Resistance</text>
<polygon fill="none" stroke="black" points="356.25,-108.5 356.25,-131 441.38,-131 441.38,-108.5 356.25,-108.5"/>
<text text-anchor="start" x="393.19" y="-114.7" font-family="Times New Roman,Times,Liberation Serif,serif" font-size="14.00">r1</text>
<polygon fill="none" stroke="black" points="441.38,-108.5 441.38,-131 544.5,-131 544.5,-108.5 441.38,-108.5"/>
<text text-anchor="start" x="464.06" y="-114.7" font-family="Times New Roman,Times,Liberation Serif,serif" font-size="14.00">Resistance</text>
<polygon fill="none" stroke="black" points="356.25,-86 356.25,-108.5 441.38,-108.5 441.38,-86 356.25,-86"/>
<text text-anchor="start" x="392.06" y="-92.2" font-family="Times New Roman,Times,Liberation Serif,serif" font-size="14.00">x0</text>
<polygon fill="none" stroke="black" points="441.38,-86 441.38,-108.5 544.5,-108.5 544.5,-86 441.38,-86"/>
<text text-anchor="start" x="465.19" y="-92.2" font-family="Times New Roman,Times,Liberation Serif,serif" font-size="14.00">Reactance</text>
<polygon fill="none" stroke="black" points="356.25,-63.5 356.25,-86 441.38,-86 441.38,-63.5 356.25,-63.5"/>
<text text-anchor="start" x="392.06" y="-69.7" font-family="Times New Roman,Times,Liberation Serif,serif" font-size="14.00">x1</text>
<polygon fill="none" stroke="black" points="441.38,-63.5 441.38,-86 544.5,-86 544.5,-63.5 441.38,-63.5"/>
<text text-anchor="start" x="465.19" y="-69.7" font-family="Times New Roman,Times,Liberation Serif,serif" font-size="14.00">Reactance</text>
<polygon fill="none" stroke="black" points="356.25,-41 356.25,-63.5 441.38,-63.5 441.38,-41 356.25,-41"/>
<text text-anchor="start" x="378.94" y="-47.2" font-family="Times New Roman,Times,Liberation Serif,serif" font-size="14.00">voltage</text>
<polygon fill="none" stroke="black" points="441.38,-41 441.38,-63.5 544.5,-63.5 544.5,-41 441.38,-41"/>
<text text-anchor="start" x="472.31" y="-47.2" font-family="Times New Roman,Times,Liberation Serif,serif" font-size="14.00">Voltage</text>
<polygon fill="none" stroke="black" points="356.25,-18.5 356.25,-41 441.38,-41 441.38,-18.5 356.25,-18.5"/>
<text text-anchor="start" x="384.19" y="-24.7" font-family="Times New Roman,Times,Liberation Serif,serif" font-size="14.00">angle</text>
<polygon fill="none" stroke="black" points="441.38,-18.5 441.38,-41 544.5,-41 544.5,-18.5 441.38,-18.5"/>
<text text-anchor="start" x="476.44" y="-24.7" font-family="Times New Roman,Times,Liberation Serif,serif" font-size="14.00">Angle</text>
</a>
</g>
</g>
<!-- gdm.distribution.equipment.voltagesource_equipment.VoltageSourceEquipment -->
<g id="node2" class="node">
<title>gdm.distribution.equipment.voltagesource_equipment.VoltageSourceEquipment</title>
<g id="a_node2"><a xlink:title="gdm.distribution.equipment.voltagesource_equipment.VoltageSourceEquipment&#10;&#10;Interface for voltage source model.&#10;">
<polygon fill="none" stroke="black" points="0,-265.25 0,-287.75 248.25,-287.75 248.25,-265.25 0,-265.25"/>
<text text-anchor="start" x="49.88" y="-272.45" font-family="Times New Roman,Times,Liberation Serif,serif" font-weight="bold" font-size="14.00">VoltageSourceEquipment</text>
<polygon fill="none" stroke="black" points="0,-242.75 0,-265.25 46.5,-265.25 46.5,-242.75 0,-242.75"/>
<text text-anchor="start" x="11.25" y="-248.95" font-family="Times New Roman,Times,Liberation Serif,serif" font-size="14.00">uuid</text>
<polygon fill="none" stroke="black" points="46.5,-242.75 46.5,-265.25 248.25,-265.25 248.25,-242.75 46.5,-242.75"/>
<text text-anchor="start" x="130.5" y="-248.95" font-family="Times New Roman,Times,Liberation Serif,serif" font-size="14.00">UUID</text>
<polygon fill="none" stroke="black" points="0,-220.25 0,-242.75 46.5,-242.75 46.5,-220.25 0,-220.25"/>
<text text-anchor="start" x="8.25" y="-226.45" font-family="Times New Roman,Times,Liberation Serif,serif" font-size="14.00">name</text>
<polygon fill="none" stroke="black" points="46.5,-220.25 46.5,-242.75 248.25,-242.75 248.25,-220.25 46.5,-220.25"/>
<text text-anchor="start" x="140.62" y="-226.45" font-family="Times New Roman,Times,Liberation Serif,serif" font-size="14.00">str</text>
<polygon fill="none" stroke="black" points="0,-197.75 0,-220.25 46.5,-220.25 46.5,-197.75 0,-197.75"/>
<text text-anchor="start" x="3" y="-203.95" font-family="Times New Roman,Times,Liberation Serif,serif" font-size="14.00">sources</text>
<polygon fill="none" stroke="black" points="46.5,-197.75 46.5,-220.25 248.25,-220.25 248.25,-197.75 46.5,-197.75"/>
<text text-anchor="start" x="49.5" y="-203.95" font-family="Times New Roman,Times,Liberation Serif,serif" font-size="14.00">list[PhaseVoltageSourceEquipment]</text>
</a>
</g>
</g>
<!-- gdm.distribution.equipment.voltagesource_equipment.VoltageSourceEquipment&#45;&gt;gdm.distribution.equipment.phase_voltagesource_equipment.PhaseVoltageSourceEquipment -->
<g id="edge1" class="edge">
<title>gdm.distribution.equipment.voltagesource_equipment.VoltageSourceEquipment:e&#45;&gt;gdm.distribution.equipment.phase_voltagesource_equipment.PhaseVoltageSourceEquipment:w</title>
<path fill="none" stroke="black" d="M258.12,-209.01C293.17,-209.09 307.92,-209.6 340.89,-209.72"/>
<polyline fill="none" stroke="black" points="248.25,-209 253.25,-209.01"/>
<polyline fill="none" stroke="black" points="253.25,-209.01 258.25,-209.01"/>
<polygon fill="black" stroke="black" points="345.92,-209.73 355.91,-214.25 351.25,-209.74 355.58,-209.75 355.58,-209.75 355.58,-209.75 351.25,-209.74 355.92,-205.25 345.92,-209.73"/>
<polyline fill="none" stroke="black" points="344.7,-209.73 339.7,-209.72"/>
</g>
</g>
</svg>
