<?xml version="1.0" encoding="UTF-8" standalone="no"?>
<!DOCTYPE svg PUBLIC "-//W3C//DTD SVG 1.1//EN"
 "http://www.w3.org/Graphics/SVG/1.1/DTD/svg11.dtd">
<!-- Generated by graphviz version 9.0.0 (0)
 -->
<!-- Title: Entity Relationship Diagram created by erdantic Pages: 1 -->
<svg width="275pt" height="335pt"
 viewBox="0.00 0.00 274.50 334.50" xmlns="http://www.w3.org/2000/svg" xmlns:xlink="http://www.w3.org/1999/xlink">
<g id="graph0" class="graph" transform="scale(1 1) rotate(0) translate(4 330.5)">
<title>Entity Relationship Diagram created by erdantic</title>
<polygon fill="white" stroke="none" points="-4,4 -4,-330.5 270.5,-330.5 270.5,4 -4,4"/>
<text text-anchor="middle" x="133.25" y="-5.95" font-family="Times New Roman,Times,Liberation Serif,serif" font-size="9.00" fill="#a8a8a8">Created by erdantic v0.6.0 &lt;https://github.com/drivendataorg/erdantic&gt;</text>
<!-- gdm.distribution.equipment.distribution_transformer_equipment.WindingEquipment -->
<g id="node1" class="node">
<title>gdm.distribution.equipment.distribution_transformer_equipment.WindingEquipment</title>
<g id="a_node1"><a xlink:title="gdm.distribution.equipment.distribution_transformer_equipment.WindingEquipment&#10;&#10;Interface for winding.&#10;">
<polygon fill="none" stroke="black" points="17.75,-304.5 17.75,-326.5 248.75,-326.5 248.75,-304.5 17.75,-304.5"/>
<text text-anchor="start" x="75.5" y="-311.2" font-family="Times New Roman,Times,Liberation Serif,serif" font-weight="bold" font-size="14.00">WindingEquipment</text>
<polygon fill="none" stroke="black" points="17.75,-282.5 17.75,-304.5 114.75,-304.5 114.75,-282.5 17.75,-282.5"/>
<text text-anchor="start" x="54.25" y="-288.2" font-family="Times New Roman,Times,Liberation Serif,serif" font-size="14.00">uuid</text>
<polygon fill="none" stroke="black" points="114.75,-282.5 114.75,-304.5 248.75,-304.5 248.75,-282.5 114.75,-282.5"/>
<text text-anchor="start" x="164.88" y="-288.2" font-family="Times New Roman,Times,Liberation Serif,serif" font-size="14.00">UUID</text>
<polygon fill="none" stroke="black" points="17.75,-260.5 17.75,-282.5 114.75,-282.5 114.75,-260.5 17.75,-260.5"/>
<text text-anchor="start" x="51.25" y="-266.2" font-family="Times New Roman,Times,Liberation Serif,serif" font-size="14.00">name</text>
<polygon fill="none" stroke="black" points="114.75,-260.5 114.75,-282.5 248.75,-282.5 248.75,-260.5 114.75,-260.5"/>
<text text-anchor="start" x="175" y="-266.2" font-family="Times New Roman,Times,Liberation Serif,serif" font-size="14.00">str</text>
<polygon fill="none" stroke="black" points="17.75,-238.5 17.75,-260.5 114.75,-260.5 114.75,-238.5 17.75,-238.5"/>
<text text-anchor="start" x="39.62" y="-244.2" font-family="Times New Roman,Times,Liberation Serif,serif" font-size="14.00">resistance</text>
<polygon fill="none" stroke="black" points="114.75,-238.5 114.75,-260.5 248.75,-260.5 248.75,-238.5 114.75,-238.5"/>
<text text-anchor="start" x="169.38" y="-244.2" font-family="Times New Roman,Times,Liberation Serif,serif" font-size="14.00">float</text>
<polygon fill="none" stroke="black" points="17.75,-216.5 17.75,-238.5 114.75,-238.5 114.75,-216.5 17.75,-216.5"/>
<text text-anchor="start" x="32.88" y="-222.2" font-family="Times New Roman,Times,Liberation Serif,serif" font-size="14.00">is_grounded</text>
<polygon fill="none" stroke="black" points="114.75,-216.5 114.75,-238.5 248.75,-238.5 248.75,-216.5 114.75,-216.5"/>
<text text-anchor="start" x="169.75" y="-222.2" font-family="Times New Roman,Times,Liberation Serif,serif" font-size="14.00">bool</text>
<polygon fill="none" stroke="black" points="17.75,-194.5 17.75,-216.5 114.75,-216.5 114.75,-194.5 17.75,-194.5"/>
<text text-anchor="start" x="20.5" y="-200.2" font-family="Times New Roman,Times,Liberation Serif,serif" font-size="14.00">rated_voltage</text>
<polygon fill="none" stroke="black" points="114.75,-194.5 114.75,-216.5 248.75,-216.5 248.75,-194.5 114.75,-194.5"/>
<text text-anchor="start" x="139.38" y="-200.2" font-family="Times New Roman,Times,Liberation Serif,serif" font-size="14.00">PositiveVoltage</text>
<polygon fill="none" stroke="black" points="17.75,-172.5 17.75,-194.5 114.75,-194.5 114.75,-172.5 17.75,-172.5"/>
<text text-anchor="start" x="31.38" y="-178.2" font-family="Times New Roman,Times,Liberation Serif,serif" font-size="14.00">voltage_type</text>
<polygon fill="none" stroke="black" points="114.75,-172.5 114.75,-194.5 248.75,-194.5 248.75,-172.5 114.75,-172.5"/>
<text text-anchor="start" x="145" y="-178.2" font-family="Times New Roman,Times,Liberation Serif,serif" font-size="14.00">VoltageTypes</text>
<polygon fill="none" stroke="black" points="17.75,-150.5 17.75,-172.5 114.75,-172.5 114.75,-150.5 17.75,-150.5"/>
<text text-anchor="start" x="32.5" y="-156.2" font-family="Times New Roman,Times,Liberation Serif,serif" font-size="14.00">rated_power</text>
<polygon fill="none" stroke="black" points="114.75,-150.5 114.75,-172.5 248.75,-172.5 248.75,-150.5 114.75,-150.5"/>
<text text-anchor="start" x="117.62" y="-156.2" font-family="Times New Roman,Times,Liberation Serif,serif" font-size="14.00">PositiveApparentPower</text>
<polygon fill="none" stroke="black" points="17.75,-128.5 17.75,-150.5 114.75,-150.5 114.75,-128.5 17.75,-128.5"/>
<text text-anchor="start" x="32.5" y="-134.2" font-family="Times New Roman,Times,Liberation Serif,serif" font-size="14.00">num_phases</text>
<polygon fill="none" stroke="black" points="114.75,-128.5 114.75,-150.5 248.75,-150.5 248.75,-128.5 114.75,-128.5"/>
<text text-anchor="start" x="174.62" y="-134.2" font-family="Times New Roman,Times,Liberation Serif,serif" font-size="14.00">int</text>
<polygon fill="none" stroke="black" points="17.75,-106.5 17.75,-128.5 114.75,-128.5 114.75,-106.5 17.75,-106.5"/>
<text text-anchor="start" x="21.62" y="-112.2" font-family="Times New Roman,Times,Liberation Serif,serif" font-size="14.00">connection_type</text>
<polygon fill="none" stroke="black" points="114.75,-106.5 114.75,-128.5 248.75,-128.5 248.75,-106.5 114.75,-106.5"/>
<text text-anchor="start" x="137.12" y="-112.2" font-family="Times New Roman,Times,Liberation Serif,serif" font-size="14.00">ConnectionType</text>
<polygon fill="none" stroke="black" points="17.75,-84.5 17.75,-106.5 114.75,-106.5 114.75,-84.5 17.75,-84.5"/>
<text text-anchor="start" x="30.25" y="-90.2" font-family="Times New Roman,Times,Liberation Serif,serif" font-size="14.00">tap_positions</text>
<polygon fill="none" stroke="black" points="114.75,-84.5 114.75,-106.5 248.75,-106.5 248.75,-84.5 114.75,-84.5"/>
<text text-anchor="start" x="156.62" y="-90.2" font-family="Times New Roman,Times,Liberation Serif,serif" font-size="14.00">list[float]</text>
<polygon fill="none" stroke="black" points="17.75,-62.5 17.75,-84.5 114.75,-84.5 114.75,-62.5 17.75,-62.5"/>
<text text-anchor="start" x="40" y="-68.2" font-family="Times New Roman,Times,Liberation Serif,serif" font-size="14.00">total_taps</text>
<polygon fill="none" stroke="black" points="114.75,-62.5 114.75,-84.5 248.75,-84.5 248.75,-62.5 114.75,-62.5"/>
<text text-anchor="start" x="174.62" y="-68.2" font-family="Times New Roman,Times,Liberation Serif,serif" font-size="14.00">int</text>
<polygon fill="none" stroke="black" points="17.75,-40.5 17.75,-62.5 114.75,-62.5 114.75,-40.5 17.75,-40.5"/>
<text text-anchor="start" x="33.62" y="-46.2" font-family="Times New Roman,Times,Liberation Serif,serif" font-size="14.00">min_tap_pu</text>
<polygon fill="none" stroke="black" points="114.75,-40.5 114.75,-62.5 248.75,-62.5 248.75,-40.5 114.75,-40.5"/>
<text text-anchor="start" x="169.38" y="-46.2" font-family="Times New Roman,Times,Liberation Serif,serif" font-size="14.00">float</text>
<polygon fill="none" stroke="black" points="17.75,-18.5 17.75,-40.5 114.75,-40.5 114.75,-18.5 17.75,-18.5"/>
<text text-anchor="start" x="32.5" y="-24.2" font-family="Times New Roman,Times,Liberation Serif,serif" font-size="14.00">max_tap_pu</text>
<polygon fill="none" stroke="black" points="114.75,-18.5 114.75,-40.5 248.75,-40.5 248.75,-18.5 114.75,-18.5"/>
<text text-anchor="start" x="169.38" y="-24.2" font-family="Times New Roman,Times,Liberation Serif,serif" font-size="14.00">float</text>
</a>
</g>
</g>
</g>
</svg>
