<?xml version="1.0" encoding="UTF-8" standalone="no"?>
<!DOCTYPE svg PUBLIC "-//W3C//DTD SVG 1.1//EN"
 "http://www.w3.org/Graphics/SVG/1.1/DTD/svg11.dtd">
<!-- Generated by graphviz version 12.2.1 (20241206.2353)
 -->
<!-- Title: Entity Relationship Diagram created by erdantic Pages: 1 -->
<svg width="275pt" height="342pt"
 viewBox="0.00 0.00 274.50 341.50" xmlns="http://www.w3.org/2000/svg" xmlns:xlink="http://www.w3.org/1999/xlink">
<g id="graph0" class="graph" transform="scale(1 1) rotate(0) translate(4 337.5)">
<title>Entity Relationship Diagram created by erdantic</title>
<polygon fill="white" stroke="none" points="-4,4 -4,-337.5 270.5,-337.5 270.5,4 -4,4"/>
<text text-anchor="middle" x="133.25" y="-5.95" font-family="Times New Roman,Times,Liberation Serif,serif" font-size="9.00" fill="#a8a8a8">Created by erdantic v1.0.5 &lt;https://github.com/drivendataorg/erdantic&gt;</text>
<!-- gdm.distribution.equipment.distribution_transformer_equipment.WindingEquipment -->
<g id="node1" class="node">
<title>gdm.distribution.equipment.distribution_transformer_equipment.WindingEquipment</title>
<g id="a_node1"><a xlink:title="gdm.distribution.equipment.distribution_transformer_equipment.WindingEquipment&#10;&#10;Interface for winding.&#10;">
<polygon fill="none" stroke="black" points="18.5,-311 18.5,-333.5 248,-333.5 248,-311 18.5,-311"/>
<text text-anchor="start" x="75.5" y="-318.2" font-family="Times New Roman,Times,Liberation Serif,serif" font-weight="bold" font-size="14.00">WindingEquipment</text>
<polygon fill="none" stroke="black" points="18.5,-288.5 18.5,-311 113.75,-311 113.75,-288.5 18.5,-288.5"/>
<text text-anchor="start" x="54.12" y="-294.7" font-family="Times New Roman,Times,Liberation Serif,serif" font-size="14.00">uuid</text>
<polygon fill="none" stroke="black" points="113.75,-288.5 113.75,-311 248,-311 248,-288.5 113.75,-288.5"/>
<text text-anchor="start" x="164" y="-294.7" font-family="Times New Roman,Times,Liberation Serif,serif" font-size="14.00">UUID</text>
<polygon fill="none" stroke="black" points="18.5,-266 18.5,-288.5 113.75,-288.5 113.75,-266 18.5,-266"/>
<text text-anchor="start" x="51.12" y="-272.2" font-family="Times New Roman,Times,Liberation Serif,serif" font-size="14.00">name</text>
<polygon fill="none" stroke="black" points="113.75,-266 113.75,-288.5 248,-288.5 248,-266 113.75,-266"/>
<text text-anchor="start" x="174.12" y="-272.2" font-family="Times New Roman,Times,Liberation Serif,serif" font-size="14.00">str</text>
<polygon fill="none" stroke="black" points="18.5,-243.5 18.5,-266 113.75,-266 113.75,-243.5 18.5,-243.5"/>
<text text-anchor="start" x="39.5" y="-249.7" font-family="Times New Roman,Times,Liberation Serif,serif" font-size="14.00">resistance</text>
<polygon fill="none" stroke="black" points="113.75,-243.5 113.75,-266 248,-266 248,-243.5 113.75,-243.5"/>
<text text-anchor="start" x="168.5" y="-249.7" font-family="Times New Roman,Times,Liberation Serif,serif" font-size="14.00">float</text>
<polygon fill="none" stroke="black" points="18.5,-221 18.5,-243.5 113.75,-243.5 113.75,-221 18.5,-221"/>
<text text-anchor="start" x="32.75" y="-227.2" font-family="Times New Roman,Times,Liberation Serif,serif" font-size="14.00">is_grounded</text>
<polygon fill="none" stroke="black" points="113.75,-221 113.75,-243.5 248,-243.5 248,-221 113.75,-221"/>
<text text-anchor="start" x="168.88" y="-227.2" font-family="Times New Roman,Times,Liberation Serif,serif" font-size="14.00">bool</text>
<polygon fill="none" stroke="black" points="18.5,-198.5 18.5,-221 113.75,-221 113.75,-198.5 18.5,-198.5"/>
<text text-anchor="start" x="29.38" y="-204.7" font-family="Times New Roman,Times,Liberation Serif,serif" font-size="14.00">rated_voltage</text>
<polygon fill="none" stroke="black" points="113.75,-198.5 113.75,-221 248,-221 248,-198.5 113.75,-198.5"/>
<text text-anchor="start" x="138.5" y="-204.7" font-family="Times New Roman,Times,Liberation Serif,serif" font-size="14.00">PositiveVoltage</text>
<polygon fill="none" stroke="black" points="18.5,-176 18.5,-198.5 113.75,-198.5 113.75,-176 18.5,-176"/>
<text text-anchor="start" x="31.25" y="-182.2" font-family="Times New Roman,Times,Liberation Serif,serif" font-size="14.00">voltage_type</text>
<polygon fill="none" stroke="black" points="113.75,-176 113.75,-198.5 248,-198.5 248,-176 113.75,-176"/>
<text text-anchor="start" x="143.75" y="-182.2" font-family="Times New Roman,Times,Liberation Serif,serif" font-size="14.00">VoltageTypes</text>
<polygon fill="none" stroke="black" points="18.5,-153.5 18.5,-176 113.75,-176 113.75,-153.5 18.5,-153.5"/>
<text text-anchor="start" x="32.38" y="-159.7" font-family="Times New Roman,Times,Liberation Serif,serif" font-size="14.00">rated_power</text>
<polygon fill="none" stroke="black" points="113.75,-153.5 113.75,-176 248,-176 248,-153.5 113.75,-153.5"/>
<text text-anchor="start" x="116.75" y="-159.7" font-family="Times New Roman,Times,Liberation Serif,serif" font-size="14.00">PositiveApparentPower</text>
<polygon fill="none" stroke="black" points="18.5,-131 18.5,-153.5 113.75,-153.5 113.75,-131 18.5,-131"/>
<text text-anchor="start" x="32.38" y="-137.2" font-family="Times New Roman,Times,Liberation Serif,serif" font-size="14.00">num_phases</text>
<polygon fill="none" stroke="black" points="113.75,-131 113.75,-153.5 248,-153.5 248,-131 113.75,-131"/>
<text text-anchor="start" x="173.75" y="-137.2" font-family="Times New Roman,Times,Liberation Serif,serif" font-size="14.00">int</text>
<polygon fill="none" stroke="black" points="18.5,-108.5 18.5,-131 113.75,-131 113.75,-108.5 18.5,-108.5"/>
<text text-anchor="start" x="21.5" y="-114.7" font-family="Times New Roman,Times,Liberation Serif,serif" font-size="14.00">connection_type</text>
<polygon fill="none" stroke="black" points="113.75,-108.5 113.75,-131 248,-131 248,-108.5 113.75,-108.5"/>
<text text-anchor="start" x="135.88" y="-114.7" font-family="Times New Roman,Times,Liberation Serif,serif" font-size="14.00">ConnectionType</text>
<polygon fill="none" stroke="black" points="18.5,-86 18.5,-108.5 113.75,-108.5 113.75,-86 18.5,-86"/>
<text text-anchor="start" x="30.12" y="-92.2" font-family="Times New Roman,Times,Liberation Serif,serif" font-size="14.00">tap_positions</text>
<polygon fill="none" stroke="black" points="113.75,-86 113.75,-108.5 248,-108.5 248,-86 113.75,-86"/>
<text text-anchor="start" x="155.75" y="-92.2" font-family="Times New Roman,Times,Liberation Serif,serif" font-size="14.00">list[float]</text>
<polygon fill="none" stroke="black" points="18.5,-63.5 18.5,-86 113.75,-86 113.75,-63.5 18.5,-63.5"/>
<text text-anchor="start" x="39.88" y="-69.7" font-family="Times New Roman,Times,Liberation Serif,serif" font-size="14.00">total_taps</text>
<polygon fill="none" stroke="black" points="113.75,-63.5 113.75,-86 248,-86 248,-63.5 113.75,-63.5"/>
<text text-anchor="start" x="173.75" y="-69.7" font-family="Times New Roman,Times,Liberation Serif,serif" font-size="14.00">int</text>
<polygon fill="none" stroke="black" points="18.5,-41 18.5,-63.5 113.75,-63.5 113.75,-41 18.5,-41"/>
<text text-anchor="start" x="33.5" y="-47.2" font-family="Times New Roman,Times,Liberation Serif,serif" font-size="14.00">min_tap_pu</text>
<polygon fill="none" stroke="black" points="113.75,-41 113.75,-63.5 248,-63.5 248,-41 113.75,-41"/>
<text text-anchor="start" x="168.5" y="-47.2" font-family="Times New Roman,Times,Liberation Serif,serif" font-size="14.00">float</text>
<polygon fill="none" stroke="black" points="18.5,-18.5 18.5,-41 113.75,-41 113.75,-18.5 18.5,-18.5"/>
<text text-anchor="start" x="32.38" y="-24.7" font-family="Times New Roman,Times,Liberation Serif,serif" font-size="14.00">max_tap_pu</text>
<polygon fill="none" stroke="black" points="113.75,-18.5 113.75,-41 248,-41 248,-18.5 113.75,-18.5"/>
<text text-anchor="start" x="168.5" y="-24.7" font-family="Times New Roman,Times,Liberation Serif,serif" font-size="14.00">float</text>
</a>
</g>
</g>
</g>
</svg>
