<?xml version="1.0" encoding="UTF-8" standalone="no"?>
<!DOCTYPE svg PUBLIC "-//W3C//DTD SVG 1.1//EN"
 "http://www.w3.org/Graphics/SVG/1.1/DTD/svg11.dtd">
<!-- Generated by graphviz version 12.2.1 (20241206.2353)
 -->
<!-- Title: Entity Relationship Diagram created by erdantic Pages: 1 -->
<svg width="275pt" height="94pt"
 viewBox="0.00 0.00 274.50 94.00" xmlns="http://www.w3.org/2000/svg" xmlns:xlink="http://www.w3.org/1999/xlink">
<g id="graph0" class="graph" transform="scale(1 1) rotate(0) translate(4 90)">
<title>Entity Relationship Diagram created by erdantic</title>
<polygon fill="white" stroke="none" points="-4,4 -4,-90 270.5,-90 270.5,4 -4,4"/>
<text text-anchor="middle" x="133.25" y="-5.95" font-family="Times New Roman,Times,Liberation Serif,serif" font-size="9.00" fill="#a8a8a8">Created by erdantic v1.0.5 &lt;https://github.com/drivendataorg/erdantic&gt;</text>
<!-- gdm.distribution.equipment.recloser_controller_equipment.RecloserControllerEquipment -->
<g id="node1" class="node">
<title>gdm.distribution.equipment.recloser_controller_equipment.RecloserControllerEquipment</title>
<g id="a_node1"><a xlink:title="gdm.distribution.equipment.recloser_controller_equipment.RecloserControllerEquipment&#10;&#10;Class interface for recloser controller equipment.&#10;">
<polygon fill="none" stroke="black" points="42.5,-63.5 42.5,-86 224,-86 224,-63.5 42.5,-63.5"/>
<text text-anchor="start" x="45.5" y="-70.7" font-family="Times New Roman,Times,Liberation Serif,serif" font-weight="bold" font-size="14.00">RecloserControllerEquipment</text>
<polygon fill="none" stroke="black" points="42.5,-41 42.5,-63.5 131.38,-63.5 131.38,-41 42.5,-41"/>
<text text-anchor="start" x="74.94" y="-47.2" font-family="Times New Roman,Times,Liberation Serif,serif" font-size="14.00">uuid</text>
<polygon fill="none" stroke="black" points="131.38,-41 131.38,-63.5 224,-63.5 224,-41 131.38,-41"/>
<text text-anchor="start" x="160.81" y="-47.2" font-family="Times New Roman,Times,Liberation Serif,serif" font-size="14.00">UUID</text>
<polygon fill="none" stroke="black" points="42.5,-18.5 42.5,-41 131.38,-41 131.38,-18.5 42.5,-18.5"/>
<text text-anchor="start" x="71.94" y="-24.7" font-family="Times New Roman,Times,Liberation Serif,serif" font-size="14.00">name</text>
<polygon fill="none" stroke="black" points="131.38,-18.5 131.38,-41 224,-41 224,-18.5 131.38,-18.5"/>
<text text-anchor="start" x="170.94" y="-24.7" font-family="Times New Roman,Times,Liberation Serif,serif" font-size="14.00">str</text>
</a>
</g>
</g>
</g>
</svg>
