<?xml version="1.0" encoding="UTF-8" standalone="no"?>
<!DOCTYPE svg PUBLIC "-//W3C//DTD SVG 1.1//EN"
 "http://www.w3.org/Graphics/SVG/1.1/DTD/svg11.dtd">
<!-- Generated by graphviz version 12.2.1 (20241206.2353)
 -->
<!-- Title: Entity Relationship Diagram created by erdantic Pages: 1 -->
<svg width="383pt" height="162pt"
 viewBox="0.00 0.00 383.00 161.50" xmlns="http://www.w3.org/2000/svg" xmlns:xlink="http://www.w3.org/1999/xlink">
<g id="graph0" class="graph" transform="scale(1 1) rotate(0) translate(4 157.5)">
<title>Entity Relationship Diagram created by erdantic</title>
<polygon fill="white" stroke="none" points="-4,4 -4,-157.5 379,-157.5 379,4 -4,4"/>
<text text-anchor="middle" x="187.5" y="-5.95" font-family="Times New Roman,Times,Liberation Serif,serif" font-size="9.00" fill="#a8a8a8">Created by erdantic v1.0.5 &lt;https://github.com/drivendataorg/erdantic&gt;</text>
<!-- gdm.distribution.controllers.distribution_inverter_controller.PeakShavingBaseLoadingControlSetting -->
<g id="node1" class="node">
<title>gdm.distribution.controllers.distribution_inverter_controller.PeakShavingBaseLoadingControlSetting</title>
<g id="a_node1"><a xlink:title="gdm.distribution.controllers.distribution_inverter_controller.PeakShavingBaseLoadingControlSetting&#10;&#10;Control settings for the Inverter Controller to represent peak shaving / base loading&#10;control settings. Works with battery systems only. Controls active power output of the&#10;connected inverter. If the loading on the controlled element exceeds peak_shaving_target,&#10;the battery discharges to shave off peak load. If the loading drops below the&#10;base_loading_target, the battery charges to maintain minimum loading.&#10;">
<polygon fill="none" stroke="black" points="0,-131 0,-153.5 375,-153.5 375,-131 0,-131"/>
<text text-anchor="start" x="69.75" y="-138.2" font-family="Times New Roman,Times,Liberation Serif,serif" font-weight="bold" font-size="14.00">PeakShavingBaseLoadingControlSetting</text>
<polygon fill="none" stroke="black" points="0,-108.5 0,-131 117.75,-131 117.75,-108.5 0,-108.5"/>
<text text-anchor="start" x="46.88" y="-114.7" font-family="Times New Roman,Times,Liberation Serif,serif" font-size="14.00">uuid</text>
<polygon fill="none" stroke="black" points="117.75,-108.5 117.75,-131 375,-131 375,-108.5 117.75,-108.5"/>
<text text-anchor="start" x="229.5" y="-114.7" font-family="Times New Roman,Times,Liberation Serif,serif" font-size="14.00">UUID</text>
<polygon fill="none" stroke="black" points="0,-86 0,-108.5 117.75,-108.5 117.75,-86 0,-86"/>
<text text-anchor="start" x="43.88" y="-92.2" font-family="Times New Roman,Times,Liberation Serif,serif" font-size="14.00">name</text>
<polygon fill="none" stroke="black" points="117.75,-86 117.75,-108.5 375,-108.5 375,-86 117.75,-86"/>
<text text-anchor="start" x="239.62" y="-92.2" font-family="Times New Roman,Times,Liberation Serif,serif" font-size="14.00">str</text>
<polygon fill="none" stroke="black" points="0,-63.5 0,-86 117.75,-86 117.75,-63.5 0,-63.5"/>
<text text-anchor="start" x="22.12" y="-69.7" font-family="Times New Roman,Times,Liberation Serif,serif" font-size="14.00">supported_by</text>
<polygon fill="none" stroke="black" points="117.75,-63.5 117.75,-86 375,-86 375,-63.5 117.75,-63.5"/>
<text text-anchor="start" x="120.75" y="-69.7" font-family="Times New Roman,Times,Liberation Serif,serif" font-size="14.00">Literal[ControllerSupport.BATTERY_ONLY]</text>
<polygon fill="none" stroke="black" points="0,-41 0,-63.5 117.75,-63.5 117.75,-41 0,-41"/>
<text text-anchor="start" x="3" y="-47.2" font-family="Times New Roman,Times,Liberation Serif,serif" font-size="14.00">peak_shaving_target</text>
<polygon fill="none" stroke="black" points="117.75,-41 117.75,-63.5 375,-63.5 375,-41 117.75,-41"/>
<text text-anchor="start" x="211.12" y="-47.2" font-family="Times New Roman,Times,Liberation Serif,serif" font-size="14.00">ActivePower</text>
<polygon fill="none" stroke="black" points="0,-18.5 0,-41 117.75,-41 117.75,-18.5 0,-18.5"/>
<text text-anchor="start" x="4.5" y="-24.7" font-family="Times New Roman,Times,Liberation Serif,serif" font-size="14.00">base_loading_target</text>
<polygon fill="none" stroke="black" points="117.75,-18.5 117.75,-41 375,-41 375,-18.5 117.75,-18.5"/>
<text text-anchor="start" x="211.12" y="-24.7" font-family="Times New Roman,Times,Liberation Serif,serif" font-size="14.00">ActivePower</text>
</a>
</g>
</g>
</g>
</svg>
