<?xml version="1.0" encoding="UTF-8" standalone="no"?>
<!DOCTYPE svg PUBLIC "-//W3C//DTD SVG 1.1//EN"
 "http://www.w3.org/Graphics/SVG/1.1/DTD/svg11.dtd">
<!-- Generated by graphviz version 12.2.1 (20241206.2353)
 -->
<!-- Title: Entity Relationship Diagram created by erdantic Pages: 1 -->
<svg width="275pt" height="139pt"
 viewBox="0.00 0.00 274.50 139.00" xmlns="http://www.w3.org/2000/svg" xmlns:xlink="http://www.w3.org/1999/xlink">
<g id="graph0" class="graph" transform="scale(1 1) rotate(0) translate(4 135)">
<title>Entity Relationship Diagram created by erdantic</title>
<polygon fill="white" stroke="none" points="-4,4 -4,-135 270.5,-135 270.5,4 -4,4"/>
<text text-anchor="middle" x="133.25" y="-5.95" font-family="Times New Roman,Times,Liberation Serif,serif" font-size="9.00" fill="#a8a8a8">Created by erdantic v1.0.5 &lt;https://github.com/drivendataorg/erdantic&gt;</text>
<!-- gdm.distribution.common.limitset.VoltageLimitSet -->
<g id="node1" class="node">
<title>gdm.distribution.common.limitset.VoltageLimitSet</title>
<g id="a_node1"><a xlink:title="gdm.distribution.common.limitset.VoltageLimitSet&#10;&#10;Data model for voltage limit set.&#10;">
<polygon fill="none" stroke="black" points="56.75,-108.5 56.75,-131 209.75,-131 209.75,-108.5 56.75,-108.5"/>
<text text-anchor="start" x="86" y="-115.7" font-family="Times New Roman,Times,Liberation Serif,serif" font-weight="bold" font-size="14.00">VoltageLimitSet</text>
<polygon fill="none" stroke="black" points="56.75,-86 56.75,-108.5 119,-108.5 119,-86 56.75,-86"/>
<text text-anchor="start" x="75.88" y="-92.2" font-family="Times New Roman,Times,Liberation Serif,serif" font-size="14.00">uuid</text>
<polygon fill="none" stroke="black" points="119,-86 119,-108.5 209.75,-108.5 209.75,-86 119,-86"/>
<text text-anchor="start" x="147.5" y="-92.2" font-family="Times New Roman,Times,Liberation Serif,serif" font-size="14.00">UUID</text>
<polygon fill="none" stroke="black" points="56.75,-63.5 56.75,-86 119,-86 119,-63.5 56.75,-63.5"/>
<text text-anchor="start" x="72.88" y="-69.7" font-family="Times New Roman,Times,Liberation Serif,serif" font-size="14.00">name</text>
<polygon fill="none" stroke="black" points="119,-63.5 119,-86 209.75,-86 209.75,-63.5 119,-63.5"/>
<text text-anchor="start" x="157.62" y="-69.7" font-family="Times New Roman,Times,Liberation Serif,serif" font-size="14.00">str</text>
<polygon fill="none" stroke="black" points="56.75,-41 56.75,-63.5 119,-63.5 119,-41 56.75,-41"/>
<text text-anchor="start" x="59.75" y="-47.2" font-family="Times New Roman,Times,Liberation Serif,serif" font-size="14.00">limit_type</text>
<polygon fill="none" stroke="black" points="119,-41 119,-63.5 209.75,-63.5 209.75,-41 119,-41"/>
<text text-anchor="start" x="135.12" y="-47.2" font-family="Times New Roman,Times,Liberation Serif,serif" font-size="14.00">LimitType</text>
<polygon fill="none" stroke="black" points="56.75,-18.5 56.75,-41 119,-41 119,-18.5 56.75,-18.5"/>
<text text-anchor="start" x="73.25" y="-24.7" font-family="Times New Roman,Times,Liberation Serif,serif" font-size="14.00">value</text>
<polygon fill="none" stroke="black" points="119,-18.5 119,-41 209.75,-41 209.75,-18.5 119,-18.5"/>
<text text-anchor="start" x="122" y="-24.7" font-family="Times New Roman,Times,Liberation Serif,serif" font-size="14.00">PositiveVoltage</text>
</a>
</g>
</g>
</g>
</svg>
