<?xml version="1.0" encoding="UTF-8" standalone="no"?>
<!DOCTYPE svg PUBLIC "-//W3C//DTD SVG 1.1//EN"
 "http://www.w3.org/Graphics/SVG/1.1/DTD/svg11.dtd">
<!-- Generated by graphviz version 12.2.1 (20241206.2353)
 -->
<!-- Title: Entity Relationship Diagram created by erdantic Pages: 1 -->
<svg width="1190pt" height="781pt"
 viewBox="0.00 0.00 1190.00 781.00" xmlns="http://www.w3.org/2000/svg" xmlns:xlink="http://www.w3.org/1999/xlink">
<g id="graph0" class="graph" transform="scale(1 1) rotate(0) translate(4 777)">
<title>Entity Relationship Diagram created by erdantic</title>
<polygon fill="white" stroke="none" points="-4,4 -4,-777 1186,-777 1186,4 -4,4"/>
<text text-anchor="middle" x="591" y="-5.95" font-family="Times New Roman,Times,Liberation Serif,serif" font-size="9.00" fill="#a8a8a8">Created by erdantic v1.0.5 &lt;https://github.com/drivendataorg/erdantic&gt;</text>
<!-- gdm.distribution.common.limitset.VoltageLimitSet -->
<g id="node1" class="node">
<title>gdm.distribution.common.limitset.VoltageLimitSet</title>
<g id="a_node1"><a xlink:title="gdm.distribution.common.limitset.VoltageLimitSet&#10;&#10;Data model for voltage limit set.&#10;">
<polygon fill="none" stroke="black" points="782.25,-457.75 782.25,-480.25 935.25,-480.25 935.25,-457.75 782.25,-457.75"/>
<text text-anchor="start" x="811.5" y="-464.95" font-family="Times New Roman,Times,Liberation Serif,serif" font-weight="bold" font-size="14.00">VoltageLimitSet</text>
<polygon fill="none" stroke="black" points="782.25,-435.25 782.25,-457.75 844.5,-457.75 844.5,-435.25 782.25,-435.25"/>
<text text-anchor="start" x="801.38" y="-441.45" font-family="Times New Roman,Times,Liberation Serif,serif" font-size="14.00">uuid</text>
<polygon fill="none" stroke="black" points="844.5,-435.25 844.5,-457.75 935.25,-457.75 935.25,-435.25 844.5,-435.25"/>
<text text-anchor="start" x="873" y="-441.45" font-family="Times New Roman,Times,Liberation Serif,serif" font-size="14.00">UUID</text>
<polygon fill="none" stroke="black" points="782.25,-412.75 782.25,-435.25 844.5,-435.25 844.5,-412.75 782.25,-412.75"/>
<text text-anchor="start" x="798.38" y="-418.95" font-family="Times New Roman,Times,Liberation Serif,serif" font-size="14.00">name</text>
<polygon fill="none" stroke="black" points="844.5,-412.75 844.5,-435.25 935.25,-435.25 935.25,-412.75 844.5,-412.75"/>
<text text-anchor="start" x="883.12" y="-418.95" font-family="Times New Roman,Times,Liberation Serif,serif" font-size="14.00">str</text>
<polygon fill="none" stroke="black" points="782.25,-390.25 782.25,-412.75 844.5,-412.75 844.5,-390.25 782.25,-390.25"/>
<text text-anchor="start" x="785.25" y="-396.45" font-family="Times New Roman,Times,Liberation Serif,serif" font-size="14.00">limit_type</text>
<polygon fill="none" stroke="black" points="844.5,-390.25 844.5,-412.75 935.25,-412.75 935.25,-390.25 844.5,-390.25"/>
<text text-anchor="start" x="860.62" y="-396.45" font-family="Times New Roman,Times,Liberation Serif,serif" font-size="14.00">LimitType</text>
<polygon fill="none" stroke="black" points="782.25,-367.75 782.25,-390.25 844.5,-390.25 844.5,-367.75 782.25,-367.75"/>
<text text-anchor="start" x="798.75" y="-373.95" font-family="Times New Roman,Times,Liberation Serif,serif" font-size="14.00">value</text>
<polygon fill="none" stroke="black" points="844.5,-367.75 844.5,-390.25 935.25,-390.25 935.25,-367.75 844.5,-367.75"/>
<text text-anchor="start" x="847.5" y="-373.95" font-family="Times New Roman,Times,Liberation Serif,serif" font-size="14.00">PositiveVoltage</text>
</a>
</g>
</g>
<!-- gdm.distribution.components.distribution_bus.DistributionBus -->
<g id="node2" class="node">
<title>gdm.distribution.components.distribution_bus.DistributionBus</title>
<g id="a_node2"><a xlink:title="gdm.distribution.components.distribution_bus.DistributionBus&#10;&#10;Data model for distribution bus.&#10;&#10;Examples:&#10; &#160;&#160;&#160;&gt;&gt;&gt; from gdm import DistributionBus&#10; &#160;&#160;&#160;&gt;&gt;&gt; DistributionBus.example()&#10;">
<polygon fill="none" stroke="black" points="380.25,-550 380.25,-572.5 644.25,-572.5 644.25,-550 380.25,-550"/>
<text text-anchor="start" x="466.12" y="-557.2" font-family="Times New Roman,Times,Liberation Serif,serif" font-weight="bold" font-size="14.00">DistributionBus</text>
<polygon fill="none" stroke="black" points="380.25,-527.5 380.25,-550 459.75,-550 459.75,-527.5 380.25,-527.5"/>
<text text-anchor="start" x="408" y="-533.7" font-family="Times New Roman,Times,Liberation Serif,serif" font-size="14.00">uuid</text>
<polygon fill="none" stroke="black" points="459.75,-527.5 459.75,-550 644.25,-550 644.25,-527.5 459.75,-527.5"/>
<text text-anchor="start" x="535.12" y="-533.7" font-family="Times New Roman,Times,Liberation Serif,serif" font-size="14.00">UUID</text>
<polygon fill="none" stroke="black" points="380.25,-505 380.25,-527.5 459.75,-527.5 459.75,-505 380.25,-505"/>
<text text-anchor="start" x="405" y="-511.2" font-family="Times New Roman,Times,Liberation Serif,serif" font-size="14.00">name</text>
<polygon fill="none" stroke="black" points="459.75,-505 459.75,-527.5 644.25,-527.5 644.25,-505 459.75,-505"/>
<text text-anchor="start" x="545.25" y="-511.2" font-family="Times New Roman,Times,Liberation Serif,serif" font-size="14.00">str</text>
<polygon fill="none" stroke="black" points="380.25,-482.5 380.25,-505 459.75,-505 459.75,-482.5 380.25,-482.5"/>
<text text-anchor="start" x="392.62" y="-488.7" font-family="Times New Roman,Times,Liberation Serif,serif" font-size="14.00">substation</text>
<polygon fill="none" stroke="black" points="459.75,-482.5 459.75,-505 644.25,-505 644.25,-482.5 459.75,-482.5"/>
<text text-anchor="start" x="462.75" y="-488.7" font-family="Times New Roman,Times,Liberation Serif,serif" font-size="14.00">Optional[DistributionSubstation]</text>
<polygon fill="none" stroke="black" points="380.25,-460 380.25,-482.5 459.75,-482.5 459.75,-460 380.25,-460"/>
<text text-anchor="start" x="403.12" y="-466.2" font-family="Times New Roman,Times,Liberation Serif,serif" font-size="14.00">feeder</text>
<polygon fill="none" stroke="black" points="459.75,-460 459.75,-482.5 644.25,-482.5 644.25,-460 459.75,-460"/>
<text text-anchor="start" x="472.88" y="-466.2" font-family="Times New Roman,Times,Liberation Serif,serif" font-size="14.00">Optional[DistributionFeeder]</text>
<polygon fill="none" stroke="black" points="380.25,-437.5 380.25,-460 459.75,-460 459.75,-437.5 380.25,-437.5"/>
<text text-anchor="start" x="385.12" y="-443.7" font-family="Times New Roman,Times,Liberation Serif,serif" font-size="14.00">voltage_type</text>
<polygon fill="none" stroke="black" points="459.75,-437.5 459.75,-460 644.25,-460 644.25,-437.5 459.75,-437.5"/>
<text text-anchor="start" x="514.88" y="-443.7" font-family="Times New Roman,Times,Liberation Serif,serif" font-size="14.00">VoltageTypes</text>
<polygon fill="none" stroke="black" points="380.25,-415 380.25,-437.5 459.75,-437.5 459.75,-415 380.25,-415"/>
<text text-anchor="start" x="402" y="-421.2" font-family="Times New Roman,Times,Liberation Serif,serif" font-size="14.00">phases</text>
<polygon fill="none" stroke="black" points="459.75,-415 459.75,-437.5 644.25,-437.5 644.25,-415 459.75,-415"/>
<text text-anchor="start" x="523.5" y="-421.2" font-family="Times New Roman,Times,Liberation Serif,serif" font-size="14.00">list[Phase]</text>
<polygon fill="none" stroke="black" points="380.25,-392.5 380.25,-415 459.75,-415 459.75,-392.5 380.25,-392.5"/>
<text text-anchor="start" x="384.38" y="-398.7" font-family="Times New Roman,Times,Liberation Serif,serif" font-size="14.00">voltagelimits</text>
<polygon fill="none" stroke="black" points="459.75,-392.5 459.75,-415 644.25,-415 644.25,-392.5 459.75,-392.5"/>
<text text-anchor="start" x="494.62" y="-398.7" font-family="Times New Roman,Times,Liberation Serif,serif" font-size="14.00">list[VoltageLimitSet]</text>
<polygon fill="none" stroke="black" points="380.25,-370 380.25,-392.5 459.75,-392.5 459.75,-370 380.25,-370"/>
<text text-anchor="start" x="383.25" y="-376.2" font-family="Times New Roman,Times,Liberation Serif,serif" font-size="14.00">rated_voltage</text>
<polygon fill="none" stroke="black" points="459.75,-370 459.75,-392.5 644.25,-392.5 644.25,-370 459.75,-370"/>
<text text-anchor="start" x="509.62" y="-376.2" font-family="Times New Roman,Times,Liberation Serif,serif" font-size="14.00">PositiveVoltage</text>
<polygon fill="none" stroke="black" points="380.25,-347.5 380.25,-370 459.75,-370 459.75,-347.5 380.25,-347.5"/>
<text text-anchor="start" x="391.5" y="-353.7" font-family="Times New Roman,Times,Liberation Serif,serif" font-size="14.00">coordinate</text>
<polygon fill="none" stroke="black" points="459.75,-347.5 459.75,-370 644.25,-370 644.25,-347.5 459.75,-347.5"/>
<text text-anchor="start" x="499.88" y="-353.7" font-family="Times New Roman,Times,Liberation Serif,serif" font-size="14.00">Optional[Location]</text>
</a>
</g>
</g>
<!-- gdm.distribution.components.distribution_bus.DistributionBus&#45;&gt;gdm.distribution.common.limitset.VoltageLimitSet -->
<g id="edge1" class="edge">
<title>gdm.distribution.components.distribution_bus.DistributionBus:e&#45;&gt;gdm.distribution.common.limitset.VoltageLimitSet:w</title>
<path fill="none" stroke="black" d="M654.98,-404.24C707.7,-409.7 716.37,-459.29 766.07,-467.77"/>
<polyline fill="none" stroke="black" points="645.25,-403.75 650.24,-404"/>
<polyline fill="none" stroke="black" points="650.24,-404 655.24,-404.25"/>
<polygon fill="black" stroke="black" points="770.95,-468.16 780.55,-473.46 776.27,-468.6 780.58,-468.95 780.58,-468.95 780.58,-468.95 776.27,-468.6 781.28,-464.49 770.95,-468.16"/>
<polyline fill="none" stroke="black" points="769.73,-468.07 764.75,-467.66"/>
</g>
<!-- gdm.distribution.components.distribution_feeder.DistributionFeeder -->
<g id="node3" class="node">
<title>gdm.distribution.components.distribution_feeder.DistributionFeeder</title>
<g id="a_node3"><a xlink:title="gdm.distribution.components.distribution_feeder.DistributionFeeder&#10;&#10;Class interface for distribution feeder.&#10;">
<polygon fill="none" stroke="black" points="1065.75,-617.25 1065.75,-639.75 1182,-639.75 1182,-617.25 1065.75,-617.25"/>
<text text-anchor="start" x="1068.75" y="-624.45" font-family="Times New Roman,Times,Liberation Serif,serif" font-weight="bold" font-size="14.00">DistributionFeeder</text>
<polygon fill="none" stroke="black" points="1065.75,-594.75 1065.75,-617.25 1122,-617.25 1122,-594.75 1065.75,-594.75"/>
<text text-anchor="start" x="1081.88" y="-600.95" font-family="Times New Roman,Times,Liberation Serif,serif" font-size="14.00">uuid</text>
<polygon fill="none" stroke="black" points="1122,-594.75 1122,-617.25 1182,-617.25 1182,-594.75 1122,-594.75"/>
<text text-anchor="start" x="1135.12" y="-600.95" font-family="Times New Roman,Times,Liberation Serif,serif" font-size="14.00">UUID</text>
<polygon fill="none" stroke="black" points="1065.75,-572.25 1065.75,-594.75 1122,-594.75 1122,-572.25 1065.75,-572.25"/>
<text text-anchor="start" x="1078.88" y="-578.45" font-family="Times New Roman,Times,Liberation Serif,serif" font-size="14.00">name</text>
<polygon fill="none" stroke="black" points="1122,-572.25 1122,-594.75 1182,-594.75 1182,-572.25 1122,-572.25"/>
<text text-anchor="start" x="1145.25" y="-578.45" font-family="Times New Roman,Times,Liberation Serif,serif" font-size="14.00">str</text>
</a>
</g>
</g>
<!-- gdm.distribution.components.distribution_bus.DistributionBus&#45;&gt;gdm.distribution.components.distribution_feeder.DistributionFeeder -->
<g id="edge2" class="edge">
<title>gdm.distribution.components.distribution_bus.DistributionBus:e&#45;&gt;gdm.distribution.components.distribution_feeder.DistributionFeeder:w</title>
<path fill="none" stroke="black" d="M654.95,-471.7C752.42,-480.37 944.02,-611.14 1046.99,-626.94"/>
<polyline fill="none" stroke="black" points="645.25,-471.25 650.24,-471.48"/>
<polyline fill="none" stroke="black" points="650.24,-471.48 655.24,-471.71"/>
<polyline fill="none" stroke="black" points="1065.75,-628.5 1060.77,-628.09"/>
<polygon fill="black" stroke="black" points="1060.18,-623.02 1059.36,-632.99 1057.36,-632.82 1058.19,-622.85 1060.18,-623.02"/>
<polyline fill="none" stroke="black" points="1060.77,-628.09 1055.78,-627.67"/>
<ellipse fill="none" stroke="black" cx="1051.3" cy="-627.3" rx="4" ry="4"/>
</g>
<!-- gdm.distribution.components.distribution_substation.DistributionSubstation -->
<g id="node4" class="node">
<title>gdm.distribution.components.distribution_substation.DistributionSubstation</title>
<g id="a_node4"><a xlink:title="gdm.distribution.components.distribution_substation.DistributionSubstation&#10;&#10;Class interface for distribution feeder.&#10;">
<polygon fill="none" stroke="black" points="769.5,-750.5 769.5,-773 948,-773 948,-750.5 769.5,-750.5"/>
<text text-anchor="start" x="792.75" y="-757.7" font-family="Times New Roman,Times,Liberation Serif,serif" font-weight="bold" font-size="14.00">DistributionSubstation</text>
<polygon fill="none" stroke="black" points="769.5,-728 769.5,-750.5 814.5,-750.5 814.5,-728 769.5,-728"/>
<text text-anchor="start" x="780" y="-734.2" font-family="Times New Roman,Times,Liberation Serif,serif" font-size="14.00">uuid</text>
<polygon fill="none" stroke="black" points="814.5,-728 814.5,-750.5 948,-750.5 948,-728 814.5,-728"/>
<text text-anchor="start" x="864.38" y="-734.2" font-family="Times New Roman,Times,Liberation Serif,serif" font-size="14.00">UUID</text>
<polygon fill="none" stroke="black" points="769.5,-705.5 769.5,-728 814.5,-728 814.5,-705.5 769.5,-705.5"/>
<text text-anchor="start" x="777" y="-711.7" font-family="Times New Roman,Times,Liberation Serif,serif" font-size="14.00">name</text>
<polygon fill="none" stroke="black" points="814.5,-705.5 814.5,-728 948,-728 948,-705.5 814.5,-705.5"/>
<text text-anchor="start" x="874.5" y="-711.7" font-family="Times New Roman,Times,Liberation Serif,serif" font-size="14.00">str</text>
<polygon fill="none" stroke="black" points="769.5,-683 769.5,-705.5 814.5,-705.5 814.5,-683 769.5,-683"/>
<text text-anchor="start" x="772.5" y="-689.2" font-family="Times New Roman,Times,Liberation Serif,serif" font-size="14.00">feeders</text>
<polygon fill="none" stroke="black" points="814.5,-683 814.5,-705.5 948,-705.5 948,-683 814.5,-683"/>
<text text-anchor="start" x="817.5" y="-689.2" font-family="Times New Roman,Times,Liberation Serif,serif" font-size="14.00">list[DistributionFeeder]</text>
</a>
</g>
</g>
<!-- gdm.distribution.components.distribution_bus.DistributionBus&#45;&gt;gdm.distribution.components.distribution_substation.DistributionSubstation -->
<g id="edge3" class="edge">
<title>gdm.distribution.components.distribution_bus.DistributionBus:e&#45;&gt;gdm.distribution.components.distribution_substation.DistributionSubstation:w</title>
<path fill="none" stroke="black" d="M655.07,-494.3C762.97,-506.96 654.17,-734.68 749.77,-759.55"/>
<polyline fill="none" stroke="black" points="645.25,-493.75 650.24,-494.03"/>
<polyline fill="none" stroke="black" points="650.24,-494.03 655.23,-494.31"/>
<polyline fill="none" stroke="black" points="768.5,-761.75 763.53,-761.17"/>
<polygon fill="black" stroke="black" points="763.12,-756.08 761.96,-766.02 759.97,-765.78 761.14,-755.85 763.12,-756.08"/>
<polyline fill="none" stroke="black" points="763.53,-761.17 758.57,-760.58"/>
<ellipse fill="none" stroke="black" cx="754.1" cy="-760.06" rx="4" ry="4"/>
</g>
<!-- infrasys.location.Location -->
<g id="node5" class="node">
<title>infrasys.location.Location</title>
<g id="a_node5"><a xlink:title="infrasys.location.Location&#10;&#10;Specifies geographic location.&#10;">
<polygon fill="none" stroke="black" points="811.12,-309 811.12,-331.5 906.38,-331.5 906.38,-309 811.12,-309"/>
<text text-anchor="start" x="833.25" y="-316.2" font-family="Times New Roman,Times,Liberation Serif,serif" font-weight="bold" font-size="14.00">Location</text>
<polygon fill="none" stroke="black" points="811.12,-286.5 811.12,-309 847.12,-309 847.12,-286.5 811.12,-286.5"/>
<text text-anchor="start" x="817.12" y="-292.7" font-family="Times New Roman,Times,Liberation Serif,serif" font-size="14.00">uuid</text>
<polygon fill="none" stroke="black" points="847.12,-286.5 847.12,-309 906.38,-309 906.38,-286.5 847.12,-286.5"/>
<text text-anchor="start" x="859.88" y="-292.7" font-family="Times New Roman,Times,Liberation Serif,serif" font-size="14.00">UUID</text>
<polygon fill="none" stroke="black" points="811.12,-264 811.12,-286.5 847.12,-286.5 847.12,-264 811.12,-264"/>
<text text-anchor="start" x="814.12" y="-270.2" font-family="Times New Roman,Times,Liberation Serif,serif" font-size="14.00">name</text>
<polygon fill="none" stroke="black" points="847.12,-264 847.12,-286.5 906.38,-286.5 906.38,-264 847.12,-264"/>
<text text-anchor="start" x="870" y="-270.2" font-family="Times New Roman,Times,Liberation Serif,serif" font-size="14.00">str</text>
<polygon fill="none" stroke="black" points="811.12,-241.5 811.12,-264 847.12,-264 847.12,-241.5 811.12,-241.5"/>
<text text-anchor="start" x="825.75" y="-247.7" font-family="Times New Roman,Times,Liberation Serif,serif" font-size="14.00">x</text>
<polygon fill="none" stroke="black" points="847.12,-241.5 847.12,-264 906.38,-264 906.38,-241.5 847.12,-241.5"/>
<text text-anchor="start" x="864.38" y="-247.7" font-family="Times New Roman,Times,Liberation Serif,serif" font-size="14.00">float</text>
<polygon fill="none" stroke="black" points="811.12,-219 811.12,-241.5 847.12,-241.5 847.12,-219 811.12,-219"/>
<text text-anchor="start" x="825.75" y="-225.2" font-family="Times New Roman,Times,Liberation Serif,serif" font-size="14.00">y</text>
<polygon fill="none" stroke="black" points="847.12,-219 847.12,-241.5 906.38,-241.5 906.38,-219 847.12,-219"/>
<text text-anchor="start" x="864.38" y="-225.2" font-family="Times New Roman,Times,Liberation Serif,serif" font-size="14.00">float</text>
<polygon fill="none" stroke="black" points="811.12,-196.5 811.12,-219 847.12,-219 847.12,-196.5 811.12,-196.5"/>
<text text-anchor="start" x="821.25" y="-202.7" font-family="Times New Roman,Times,Liberation Serif,serif" font-size="14.00">crs</text>
<polygon fill="none" stroke="black" points="847.12,-196.5 847.12,-219 906.38,-219 906.38,-196.5 847.12,-196.5"/>
<text text-anchor="start" x="850.12" y="-202.7" font-family="Times New Roman,Times,Liberation Serif,serif" font-size="14.00">str | None</text>
</a>
</g>
</g>
<!-- gdm.distribution.components.distribution_bus.DistributionBus&#45;&gt;infrasys.location.Location -->
<g id="edge4" class="edge">
<title>gdm.distribution.components.distribution_bus.DistributionBus:e&#45;&gt;infrasys.location.Location:w</title>
<path fill="none" stroke="black" d="M655.03,-358.52C715.64,-355.66 734.75,-326.55 791.29,-321.12"/>
<polyline fill="none" stroke="black" points="645.25,-358.75 650.25,-358.63"/>
<polyline fill="none" stroke="black" points="650.25,-358.63 655.25,-358.52"/>
<polyline fill="none" stroke="black" points="810.12,-320.25 805.13,-320.48"/>
<polygon fill="black" stroke="black" points="803.9,-315.53 804.36,-325.52 802.36,-325.61 801.9,-315.62 803.9,-315.53"/>
<polyline fill="none" stroke="black" points="805.13,-320.48 800.14,-320.71"/>
<ellipse fill="none" stroke="black" cx="795.64" cy="-320.92" rx="4" ry="4"/>
</g>
<!-- gdm.distribution.components.distribution_substation.DistributionSubstation&#45;&gt;gdm.distribution.components.distribution_feeder.DistributionFeeder -->
<g id="edge5" class="edge">
<title>gdm.distribution.components.distribution_substation.DistributionSubstation:e&#45;&gt;gdm.distribution.components.distribution_feeder.DistributionFeeder:w</title>
<path fill="none" stroke="black" d="M958.86,-693.6C1003.54,-687.45 1008.97,-639.6 1050.53,-630.13"/>
<polyline fill="none" stroke="black" points="949,-694.25 953.99,-693.92"/>
<polyline fill="none" stroke="black" points="953.99,-693.92 958.98,-693.59"/>
<polygon fill="black" stroke="black" points="1055.47,-629.6 1065.9,-633.01 1060.78,-629.03 1065.08,-628.57 1065.08,-628.57 1065.08,-628.57 1060.78,-629.03 1064.94,-624.06 1055.47,-629.6"/>
<polyline fill="none" stroke="black" points="1054.26,-629.73 1049.29,-630.26"/>
</g>
<!-- gdm.distribution.components.matrix_impedance_switch.MatrixImpedanceSwitch -->
<g id="node6" class="node">
<title>gdm.distribution.components.matrix_impedance_switch.MatrixImpedanceSwitch</title>
<g id="a_node6"><a xlink:title="gdm.distribution.components.matrix_impedance_switch.MatrixImpedanceSwitch&#10;&#10;Data model for matrix impedance switch.&#10;">
<polygon fill="none" stroke="black" points="0,-695.25 0,-717.75 264.75,-717.75 264.75,-695.25 0,-695.25"/>
<text text-anchor="start" x="60" y="-702.45" font-family="Times New Roman,Times,Liberation Serif,serif" font-weight="bold" font-size="14.00">MatrixImpedanceSwitch</text>
<polygon fill="none" stroke="black" points="0,-672.75 0,-695.25 63.75,-695.25 63.75,-672.75 0,-672.75"/>
<text text-anchor="start" x="19.88" y="-678.95" font-family="Times New Roman,Times,Liberation Serif,serif" font-size="14.00">uuid</text>
<polygon fill="none" stroke="black" points="63.75,-672.75 63.75,-695.25 264.75,-695.25 264.75,-672.75 63.75,-672.75"/>
<text text-anchor="start" x="147.38" y="-678.95" font-family="Times New Roman,Times,Liberation Serif,serif" font-size="14.00">UUID</text>
<polygon fill="none" stroke="black" points="0,-650.25 0,-672.75 63.75,-672.75 63.75,-650.25 0,-650.25"/>
<text text-anchor="start" x="16.88" y="-656.45" font-family="Times New Roman,Times,Liberation Serif,serif" font-size="14.00">name</text>
<polygon fill="none" stroke="black" points="63.75,-650.25 63.75,-672.75 264.75,-672.75 264.75,-650.25 63.75,-650.25"/>
<text text-anchor="start" x="157.5" y="-656.45" font-family="Times New Roman,Times,Liberation Serif,serif" font-size="14.00">str</text>
<polygon fill="none" stroke="black" points="0,-627.75 0,-650.25 63.75,-650.25 63.75,-627.75 0,-627.75"/>
<text text-anchor="start" x="4.5" y="-633.95" font-family="Times New Roman,Times,Liberation Serif,serif" font-size="14.00">substation</text>
<polygon fill="none" stroke="black" points="63.75,-627.75 63.75,-650.25 264.75,-650.25 264.75,-627.75 63.75,-627.75"/>
<text text-anchor="start" x="75" y="-633.95" font-family="Times New Roman,Times,Liberation Serif,serif" font-size="14.00">Optional[DistributionSubstation]</text>
<polygon fill="none" stroke="black" points="0,-605.25 0,-627.75 63.75,-627.75 63.75,-605.25 0,-605.25"/>
<text text-anchor="start" x="15" y="-611.45" font-family="Times New Roman,Times,Liberation Serif,serif" font-size="14.00">feeder</text>
<polygon fill="none" stroke="black" points="63.75,-605.25 63.75,-627.75 264.75,-627.75 264.75,-605.25 63.75,-605.25"/>
<text text-anchor="start" x="85.12" y="-611.45" font-family="Times New Roman,Times,Liberation Serif,serif" font-size="14.00">Optional[DistributionFeeder]</text>
<polygon fill="none" stroke="black" points="0,-582.75 0,-605.25 63.75,-605.25 63.75,-582.75 0,-582.75"/>
<text text-anchor="start" x="4.12" y="-588.95" font-family="Times New Roman,Times,Liberation Serif,serif" font-size="14.00">in_service</text>
<polygon fill="none" stroke="black" points="63.75,-582.75 63.75,-605.25 264.75,-605.25 264.75,-582.75 63.75,-582.75"/>
<text text-anchor="start" x="152.25" y="-588.95" font-family="Times New Roman,Times,Liberation Serif,serif" font-size="14.00">bool</text>
<polygon fill="none" stroke="black" points="0,-560.25 0,-582.75 63.75,-582.75 63.75,-560.25 0,-560.25"/>
<text text-anchor="start" x="16.88" y="-566.45" font-family="Times New Roman,Times,Liberation Serif,serif" font-size="14.00">buses</text>
<polygon fill="none" stroke="black" points="63.75,-560.25 63.75,-582.75 264.75,-582.75 264.75,-560.25 63.75,-560.25"/>
<text text-anchor="start" x="108.38" y="-566.45" font-family="Times New Roman,Times,Liberation Serif,serif" font-size="14.00">list[DistributionBus]</text>
<polygon fill="none" stroke="black" points="0,-537.75 0,-560.25 63.75,-560.25 63.75,-537.75 0,-537.75"/>
<text text-anchor="start" x="15" y="-543.95" font-family="Times New Roman,Times,Liberation Serif,serif" font-size="14.00">length</text>
<polygon fill="none" stroke="black" points="63.75,-537.75 63.75,-560.25 264.75,-560.25 264.75,-537.75 63.75,-537.75"/>
<text text-anchor="start" x="118.88" y="-543.95" font-family="Times New Roman,Times,Liberation Serif,serif" font-size="14.00">PositiveDistance</text>
<polygon fill="none" stroke="black" points="0,-515.25 0,-537.75 63.75,-537.75 63.75,-515.25 0,-515.25"/>
<text text-anchor="start" x="13.88" y="-521.45" font-family="Times New Roman,Times,Liberation Serif,serif" font-size="14.00">phases</text>
<polygon fill="none" stroke="black" points="63.75,-515.25 63.75,-537.75 264.75,-537.75 264.75,-515.25 63.75,-515.25"/>
<text text-anchor="start" x="135.75" y="-521.45" font-family="Times New Roman,Times,Liberation Serif,serif" font-size="14.00">list[Phase]</text>
<polygon fill="none" stroke="black" points="0,-492.75 0,-515.25 63.75,-515.25 63.75,-492.75 0,-492.75"/>
<text text-anchor="start" x="6.75" y="-498.95" font-family="Times New Roman,Times,Liberation Serif,serif" font-size="14.00">is_closed</text>
<polygon fill="none" stroke="black" points="63.75,-492.75 63.75,-515.25 264.75,-515.25 264.75,-492.75 63.75,-492.75"/>
<text text-anchor="start" x="139.5" y="-498.95" font-family="Times New Roman,Times,Liberation Serif,serif" font-size="14.00">list[bool]</text>
<polygon fill="none" stroke="black" points="0,-470.25 0,-492.75 63.75,-492.75 63.75,-470.25 0,-470.25"/>
<text text-anchor="start" x="3" y="-476.45" font-family="Times New Roman,Times,Liberation Serif,serif" font-size="14.00">equipment</text>
<polygon fill="none" stroke="black" points="63.75,-470.25 63.75,-492.75 264.75,-492.75 264.75,-470.25 63.75,-470.25"/>
<text text-anchor="start" x="66.75" y="-476.45" font-family="Times New Roman,Times,Liberation Serif,serif" font-size="14.00">MatrixImpedanceSwitchEquipment</text>
</a>
</g>
</g>
<!-- gdm.distribution.components.matrix_impedance_switch.MatrixImpedanceSwitch&#45;&gt;gdm.distribution.components.distribution_bus.DistributionBus -->
<g id="edge6" class="edge">
<title>gdm.distribution.components.matrix_impedance_switch.MatrixImpedanceSwitch:e&#45;&gt;gdm.distribution.components.distribution_bus.DistributionBus:w</title>
<path fill="none" stroke="black" d="M274.71,-571.36C312.84,-570.28 328.12,-563.17 364.28,-561.57"/>
<polyline fill="none" stroke="black" points="264.75,-571.5 269.75,-571.43"/>
<polyline fill="none" stroke="black" points="269.75,-571.43 274.75,-571.36"/>
<polygon fill="black" stroke="black" points="368.92,-561.47 379.01,-565.76 374.25,-561.36 378.58,-561.26 378.58,-561.26 378.58,-561.26 374.25,-561.36 378.82,-556.76 368.92,-561.47"/>
<polyline fill="none" stroke="black" points="367.7,-561.5 362.7,-561.6"/>
</g>
<!-- gdm.distribution.components.matrix_impedance_switch.MatrixImpedanceSwitch&#45;&gt;gdm.distribution.components.distribution_feeder.DistributionFeeder -->
<g id="edge7" class="edge">
<title>gdm.distribution.components.matrix_impedance_switch.MatrixImpedanceSwitch:e&#45;&gt;gdm.distribution.components.distribution_feeder.DistributionFeeder:w</title>
<path fill="none" stroke="black" d="M274.59,-616.5C616.18,-616.72 709.66,-628.08 1046.89,-628.49"/>
<polyline fill="none" stroke="black" points="264.75,-616.5 269.75,-616.5"/>
<polyline fill="none" stroke="black" points="269.75,-616.5 274.75,-616.5"/>
<polyline fill="none" stroke="black" points="1065.75,-628.5 1060.75,-628.5"/>
<polygon fill="black" stroke="black" points="1059.75,-623.5 1059.75,-633.5 1057.75,-633.5 1057.75,-623.5 1059.75,-623.5"/>
<polyline fill="none" stroke="black" points="1060.75,-628.5 1055.75,-628.49"/>
<ellipse fill="none" stroke="black" cx="1051.25" cy="-628.49" rx="4" ry="4"/>
</g>
<!-- gdm.distribution.components.matrix_impedance_switch.MatrixImpedanceSwitch&#45;&gt;gdm.distribution.components.distribution_substation.DistributionSubstation -->
<g id="edge8" class="edge">
<title>gdm.distribution.components.matrix_impedance_switch.MatrixImpedanceSwitch:e&#45;&gt;gdm.distribution.components.distribution_substation.DistributionSubstation:w</title>
<path fill="none" stroke="black" d="M274.55,-639.27C388.46,-645.29 629.23,-749.81 749.57,-760.81"/>
<polyline fill="none" stroke="black" points="264.75,-639 269.75,-639.14"/>
<polyline fill="none" stroke="black" points="269.75,-639.14 274.75,-639.28"/>
<polyline fill="none" stroke="black" points="768.5,-761.75 763.51,-761.5"/>
<polygon fill="black" stroke="black" points="762.75,-756.46 762.26,-766.45 760.26,-766.35 760.76,-756.36 762.75,-756.46"/>
<polyline fill="none" stroke="black" points="763.51,-761.5 758.51,-761.26"/>
<ellipse fill="none" stroke="black" cx="754.02" cy="-761.03" rx="4" ry="4"/>
</g>
<!-- gdm.distribution.equipment.matrix_impedance_switch_equipment.MatrixImpedanceSwitchEquipment -->
<g id="node7" class="node">
<title>gdm.distribution.equipment.matrix_impedance_switch_equipment.MatrixImpedanceSwitchEquipment</title>
<g id="a_node7"><a xlink:title="gdm.distribution.equipment.matrix_impedance_switch_equipment.MatrixImpedanceSwitchEquipment&#10;&#10;Data model for matrix impedance based recloser equipment.&#10;">
<polygon fill="none" stroke="black" points="372.75,-288.5 372.75,-311 651.75,-311 651.75,-288.5 372.75,-288.5"/>
<text text-anchor="start" x="407.25" y="-295.7" font-family="Times New Roman,Times,Liberation Serif,serif" font-weight="bold" font-size="14.00">MatrixImpedanceSwitchEquipment</text>
<polygon fill="none" stroke="black" points="372.75,-266 372.75,-288.5 431.25,-288.5 431.25,-266 372.75,-266"/>
<text text-anchor="start" x="390" y="-272.2" font-family="Times New Roman,Times,Liberation Serif,serif" font-size="14.00">uuid</text>
<polygon fill="none" stroke="black" points="431.25,-266 431.25,-288.5 651.75,-288.5 651.75,-266 431.25,-266"/>
<text text-anchor="start" x="524.62" y="-272.2" font-family="Times New Roman,Times,Liberation Serif,serif" font-size="14.00">UUID</text>
<polygon fill="none" stroke="black" points="372.75,-243.5 372.75,-266 431.25,-266 431.25,-243.5 372.75,-243.5"/>
<text text-anchor="start" x="387" y="-249.7" font-family="Times New Roman,Times,Liberation Serif,serif" font-size="14.00">name</text>
<polygon fill="none" stroke="black" points="431.25,-243.5 431.25,-266 651.75,-266 651.75,-243.5 431.25,-243.5"/>
<text text-anchor="start" x="534.75" y="-249.7" font-family="Times New Roman,Times,Liberation Serif,serif" font-size="14.00">str</text>
<polygon fill="none" stroke="black" points="372.75,-221 372.75,-243.5 431.25,-243.5 431.25,-221 372.75,-221"/>
<text text-anchor="start" x="378.38" y="-227.2" font-family="Times New Roman,Times,Liberation Serif,serif" font-size="14.00">r_matrix</text>
<polygon fill="none" stroke="black" points="431.25,-221 431.25,-243.5 651.75,-243.5 651.75,-221 431.25,-221"/>
<text text-anchor="start" x="484.88" y="-227.2" font-family="Times New Roman,Times,Liberation Serif,serif" font-size="14.00">ResistancePULength</text>
<polygon fill="none" stroke="black" points="372.75,-198.5 372.75,-221 431.25,-221 431.25,-198.5 372.75,-198.5"/>
<text text-anchor="start" x="377.25" y="-204.7" font-family="Times New Roman,Times,Liberation Serif,serif" font-size="14.00">x_matrix</text>
<polygon fill="none" stroke="black" points="431.25,-198.5 431.25,-221 651.75,-221 651.75,-198.5 431.25,-198.5"/>
<text text-anchor="start" x="486" y="-204.7" font-family="Times New Roman,Times,Liberation Serif,serif" font-size="14.00">ReactancePULength</text>
<polygon fill="none" stroke="black" points="372.75,-176 372.75,-198.5 431.25,-198.5 431.25,-176 372.75,-176"/>
<text text-anchor="start" x="377.62" y="-182.2" font-family="Times New Roman,Times,Liberation Serif,serif" font-size="14.00">c_matrix</text>
<polygon fill="none" stroke="black" points="431.25,-176 431.25,-198.5 651.75,-198.5 651.75,-176 431.25,-176"/>
<text text-anchor="start" x="480.75" y="-182.2" font-family="Times New Roman,Times,Liberation Serif,serif" font-size="14.00">CapacitancePULength</text>
<polygon fill="none" stroke="black" points="372.75,-153.5 372.75,-176 431.25,-176 431.25,-153.5 372.75,-153.5"/>
<text text-anchor="start" x="376.88" y="-159.7" font-family="Times New Roman,Times,Liberation Serif,serif" font-size="14.00">ampacity</text>
<polygon fill="none" stroke="black" points="431.25,-153.5 431.25,-176 651.75,-176 651.75,-153.5 431.25,-153.5"/>
<text text-anchor="start" x="499.12" y="-159.7" font-family="Times New Roman,Times,Liberation Serif,serif" font-size="14.00">PositiveCurrent</text>
<polygon fill="none" stroke="black" points="372.75,-131 372.75,-153.5 431.25,-153.5 431.25,-131 372.75,-131"/>
<text text-anchor="start" x="375.75" y="-137.2" font-family="Times New Roman,Times,Liberation Serif,serif" font-size="14.00">controller</text>
<polygon fill="none" stroke="black" points="431.25,-131 431.25,-153.5 651.75,-153.5 651.75,-131 431.25,-131"/>
<text text-anchor="start" x="434.25" y="-137.2" font-family="Times New Roman,Times,Liberation Serif,serif" font-size="14.00">Optional[DistributionSwitchController]</text>
</a>
</g>
</g>
<!-- gdm.distribution.components.matrix_impedance_switch.MatrixImpedanceSwitch&#45;&gt;gdm.distribution.equipment.matrix_impedance_switch_equipment.MatrixImpedanceSwitchEquipment -->
<g id="edge9" class="edge">
<title>gdm.distribution.components.matrix_impedance_switch.MatrixImpedanceSwitch:e&#45;&gt;gdm.distribution.equipment.matrix_impedance_switch_equipment.MatrixImpedanceSwitchEquipment:w</title>
<path fill="none" stroke="black" d="M274.51,-480.77C348.27,-469.02 290.29,-319.58 358.02,-301.53"/>
<polyline fill="none" stroke="black" points="264.75,-481.5 269.74,-481.13"/>
<polyline fill="none" stroke="black" points="269.74,-481.13 274.72,-480.75"/>
<polyline fill="none" stroke="black" points="372.75,-299.75 367.79,-300.35"/>
<polygon fill="black" stroke="black" points="366.19,-295.51 367.39,-305.43 365.41,-305.67 364.21,-295.75 366.19,-295.51"/>
<polyline fill="none" stroke="black" points="367.79,-300.35 362.82,-300.95"/>
<polygon fill="black" stroke="black" points="361.23,-296.11 362.43,-306.03 360.44,-306.27 359.24,-296.35 361.23,-296.11"/>
<polyline fill="none" stroke="black" points="362.82,-300.95 357.86,-301.55"/>
</g>
<!-- gdm.distribution.controllers.distribution_switch_controller.DistributionSwitchController -->
<g id="node8" class="node">
<title>gdm.distribution.controllers.distribution_switch_controller.DistributionSwitchController</title>
<g id="a_node8"><a xlink:title="gdm.distribution.controllers.distribution_switch_controller.DistributionSwitchController&#10;&#10;Data model for distribution switch controller.&#10;">
<polygon fill="none" stroke="black" points="759.75,-131 759.75,-153.5 957.75,-153.5 957.75,-131 759.75,-131"/>
<text text-anchor="start" x="773.62" y="-138.2" font-family="Times New Roman,Times,Liberation Serif,serif" font-weight="bold" font-size="14.00">DistributionSwitchController</text>
<polygon fill="none" stroke="black" points="759.75,-108.5 759.75,-131 836.25,-131 836.25,-108.5 759.75,-108.5"/>
<text text-anchor="start" x="786" y="-114.7" font-family="Times New Roman,Times,Liberation Serif,serif" font-size="14.00">uuid</text>
<polygon fill="none" stroke="black" points="836.25,-108.5 836.25,-131 957.75,-131 957.75,-108.5 836.25,-108.5"/>
<text text-anchor="start" x="880.12" y="-114.7" font-family="Times New Roman,Times,Liberation Serif,serif" font-size="14.00">UUID</text>
<polygon fill="none" stroke="black" points="759.75,-86 759.75,-108.5 836.25,-108.5 836.25,-86 759.75,-86"/>
<text text-anchor="start" x="783" y="-92.2" font-family="Times New Roman,Times,Liberation Serif,serif" font-size="14.00">name</text>
<polygon fill="none" stroke="black" points="836.25,-86 836.25,-108.5 957.75,-108.5 957.75,-86 836.25,-86"/>
<text text-anchor="start" x="890.25" y="-92.2" font-family="Times New Roman,Times,Liberation Serif,serif" font-size="14.00">str</text>
<polygon fill="none" stroke="black" points="759.75,-63.5 759.75,-86 836.25,-86 836.25,-63.5 759.75,-63.5"/>
<text text-anchor="start" x="783.38" y="-69.7" font-family="Times New Roman,Times,Liberation Serif,serif" font-size="14.00">delay</text>
<polygon fill="none" stroke="black" points="836.25,-63.5 836.25,-86 957.75,-86 957.75,-63.5 836.25,-63.5"/>
<text text-anchor="start" x="882.38" y="-69.7" font-family="Times New Roman,Times,Liberation Serif,serif" font-size="14.00">Time</text>
<polygon fill="none" stroke="black" points="759.75,-41 759.75,-63.5 836.25,-63.5 836.25,-41 759.75,-41"/>
<text text-anchor="start" x="762.75" y="-47.2" font-family="Times New Roman,Times,Liberation Serif,serif" font-size="14.00">normal_state</text>
<polygon fill="none" stroke="black" points="836.25,-41 836.25,-63.5 957.75,-63.5 957.75,-41 836.25,-41"/>
<text text-anchor="start" x="839.25" y="-47.2" font-family="Times New Roman,Times,Liberation Serif,serif" font-size="14.00">Literal[&#39;open&#39;, &#39;close&#39;]</text>
<polygon fill="none" stroke="black" points="759.75,-18.5 759.75,-41 836.25,-41 836.25,-18.5 759.75,-18.5"/>
<text text-anchor="start" x="772.12" y="-24.7" font-family="Times New Roman,Times,Liberation Serif,serif" font-size="14.00">is_locked</text>
<polygon fill="none" stroke="black" points="836.25,-18.5 836.25,-41 957.75,-41 957.75,-18.5 836.25,-18.5"/>
<text text-anchor="start" x="885" y="-24.7" font-family="Times New Roman,Times,Liberation Serif,serif" font-size="14.00">bool</text>
</a>
</g>
</g>
<!-- gdm.distribution.equipment.matrix_impedance_switch_equipment.MatrixImpedanceSwitchEquipment&#45;&gt;gdm.distribution.controllers.distribution_switch_controller.DistributionSwitchController -->
<g id="edge10" class="edge">
<title>gdm.distribution.equipment.matrix_impedance_switch_equipment.MatrixImpedanceSwitchEquipment:e&#45;&gt;gdm.distribution.controllers.distribution_switch_controller.DistributionSwitchController:w</title>
<path fill="none" stroke="black" d="M661.62,-142.25C695.41,-142.25 710.34,-142.25 740.93,-142.25"/>
<polyline fill="none" stroke="black" points="651.75,-142.25 656.75,-142.25"/>
<polyline fill="none" stroke="black" points="656.75,-142.25 661.75,-142.25"/>
<polyline fill="none" stroke="black" points="759.75,-142.25 754.75,-142.25"/>
<polygon fill="black" stroke="black" points="753.75,-137.25 753.75,-147.25 751.75,-147.25 751.75,-137.25 753.75,-137.25"/>
<polyline fill="none" stroke="black" points="754.75,-142.25 749.75,-142.25"/>
<ellipse fill="none" stroke="black" cx="745.25" cy="-142.25" rx="4" ry="4"/>
</g>
</g>
</svg>
