<?xml version="1.0" encoding="UTF-8" standalone="no"?>
<!DOCTYPE svg PUBLIC "-//W3C//DTD SVG 1.1//EN"
 "http://www.w3.org/Graphics/SVG/1.1/DTD/svg11.dtd">
<!-- Generated by graphviz version 12.2.1 (20241206.2353)
 -->
<!-- Title: Entity Relationship Diagram created by erdantic Pages: 1 -->
<svg width="1434pt" height="1196pt"
 viewBox="0.00 0.00 1433.75 1195.75" xmlns="http://www.w3.org/2000/svg" xmlns:xlink="http://www.w3.org/1999/xlink">
<g id="graph0" class="graph" transform="scale(1 1) rotate(0) translate(4 1191.75)">
<title>Entity Relationship Diagram created by erdantic</title>
<polygon fill="white" stroke="none" points="-4,4 -4,-1191.75 1429.75,-1191.75 1429.75,4 -4,4"/>
<text text-anchor="middle" x="712.88" y="-5.95" font-family="Times New Roman,Times,Liberation Serif,serif" font-size="9.00" fill="#a8a8a8">Created by erdantic v1.0.5 &lt;https://github.com/drivendataorg/erdantic&gt;</text>
<!-- gdm.distribution.common.limitset.VoltageLimitSet -->
<g id="node1" class="node">
<title>gdm.distribution.common.limitset.VoltageLimitSet</title>
<g id="a_node1"><a xlink:title="gdm.distribution.common.limitset.VoltageLimitSet&#10;&#10;Data model for voltage limit set.&#10;">
<polygon fill="none" stroke="black" points="982.12,-891.5 982.12,-914 1135.12,-914 1135.12,-891.5 982.12,-891.5"/>
<text text-anchor="start" x="1011.38" y="-898.7" font-family="Times New Roman,Times,Liberation Serif,serif" font-weight="bold" font-size="14.00">VoltageLimitSet</text>
<polygon fill="none" stroke="black" points="982.12,-869 982.12,-891.5 1044.38,-891.5 1044.38,-869 982.12,-869"/>
<text text-anchor="start" x="1001.25" y="-875.2" font-family="Times New Roman,Times,Liberation Serif,serif" font-size="14.00">uuid</text>
<polygon fill="none" stroke="black" points="1044.38,-869 1044.38,-891.5 1135.12,-891.5 1135.12,-869 1044.38,-869"/>
<text text-anchor="start" x="1072.88" y="-875.2" font-family="Times New Roman,Times,Liberation Serif,serif" font-size="14.00">UUID</text>
<polygon fill="none" stroke="black" points="982.12,-846.5 982.12,-869 1044.38,-869 1044.38,-846.5 982.12,-846.5"/>
<text text-anchor="start" x="998.25" y="-852.7" font-family="Times New Roman,Times,Liberation Serif,serif" font-size="14.00">name</text>
<polygon fill="none" stroke="black" points="1044.38,-846.5 1044.38,-869 1135.12,-869 1135.12,-846.5 1044.38,-846.5"/>
<text text-anchor="start" x="1083" y="-852.7" font-family="Times New Roman,Times,Liberation Serif,serif" font-size="14.00">str</text>
<polygon fill="none" stroke="black" points="982.12,-824 982.12,-846.5 1044.38,-846.5 1044.38,-824 982.12,-824"/>
<text text-anchor="start" x="985.12" y="-830.2" font-family="Times New Roman,Times,Liberation Serif,serif" font-size="14.00">limit_type</text>
<polygon fill="none" stroke="black" points="1044.38,-824 1044.38,-846.5 1135.12,-846.5 1135.12,-824 1044.38,-824"/>
<text text-anchor="start" x="1060.5" y="-830.2" font-family="Times New Roman,Times,Liberation Serif,serif" font-size="14.00">LimitType</text>
<polygon fill="none" stroke="black" points="982.12,-801.5 982.12,-824 1044.38,-824 1044.38,-801.5 982.12,-801.5"/>
<text text-anchor="start" x="998.62" y="-807.7" font-family="Times New Roman,Times,Liberation Serif,serif" font-size="14.00">value</text>
<polygon fill="none" stroke="black" points="1044.38,-801.5 1044.38,-824 1135.12,-824 1135.12,-801.5 1044.38,-801.5"/>
<text text-anchor="start" x="1047.38" y="-807.7" font-family="Times New Roman,Times,Liberation Serif,serif" font-size="14.00">PositiveVoltage</text>
</a>
</g>
</g>
<!-- gdm.distribution.components.distribution_bus.DistributionBus -->
<g id="node2" class="node">
<title>gdm.distribution.components.distribution_bus.DistributionBus</title>
<g id="a_node2"><a xlink:title="gdm.distribution.components.distribution_bus.DistributionBus&#10;&#10;Data model for distribution bus.&#10;&#10;Examples:&#10; &#160;&#160;&#160;&gt;&gt;&gt; from gdm import DistributionBus&#10; &#160;&#160;&#160;&gt;&gt;&gt; DistributionBus.example()&#10;">
<polygon fill="none" stroke="black" points="450,-964.75 450,-987.25 714,-987.25 714,-964.75 450,-964.75"/>
<text text-anchor="start" x="535.88" y="-971.95" font-family="Times New Roman,Times,Liberation Serif,serif" font-weight="bold" font-size="14.00">DistributionBus</text>
<polygon fill="none" stroke="black" points="450,-942.25 450,-964.75 529.5,-964.75 529.5,-942.25 450,-942.25"/>
<text text-anchor="start" x="477.75" y="-948.45" font-family="Times New Roman,Times,Liberation Serif,serif" font-size="14.00">uuid</text>
<polygon fill="none" stroke="black" points="529.5,-942.25 529.5,-964.75 714,-964.75 714,-942.25 529.5,-942.25"/>
<text text-anchor="start" x="604.88" y="-948.45" font-family="Times New Roman,Times,Liberation Serif,serif" font-size="14.00">UUID</text>
<polygon fill="none" stroke="black" points="450,-919.75 450,-942.25 529.5,-942.25 529.5,-919.75 450,-919.75"/>
<text text-anchor="start" x="474.75" y="-925.95" font-family="Times New Roman,Times,Liberation Serif,serif" font-size="14.00">name</text>
<polygon fill="none" stroke="black" points="529.5,-919.75 529.5,-942.25 714,-942.25 714,-919.75 529.5,-919.75"/>
<text text-anchor="start" x="615" y="-925.95" font-family="Times New Roman,Times,Liberation Serif,serif" font-size="14.00">str</text>
<polygon fill="none" stroke="black" points="450,-897.25 450,-919.75 529.5,-919.75 529.5,-897.25 450,-897.25"/>
<text text-anchor="start" x="462.38" y="-903.45" font-family="Times New Roman,Times,Liberation Serif,serif" font-size="14.00">substation</text>
<polygon fill="none" stroke="black" points="529.5,-897.25 529.5,-919.75 714,-919.75 714,-897.25 529.5,-897.25"/>
<text text-anchor="start" x="532.5" y="-903.45" font-family="Times New Roman,Times,Liberation Serif,serif" font-size="14.00">Optional[DistributionSubstation]</text>
<polygon fill="none" stroke="black" points="450,-874.75 450,-897.25 529.5,-897.25 529.5,-874.75 450,-874.75"/>
<text text-anchor="start" x="472.88" y="-880.95" font-family="Times New Roman,Times,Liberation Serif,serif" font-size="14.00">feeder</text>
<polygon fill="none" stroke="black" points="529.5,-874.75 529.5,-897.25 714,-897.25 714,-874.75 529.5,-874.75"/>
<text text-anchor="start" x="542.62" y="-880.95" font-family="Times New Roman,Times,Liberation Serif,serif" font-size="14.00">Optional[DistributionFeeder]</text>
<polygon fill="none" stroke="black" points="450,-852.25 450,-874.75 529.5,-874.75 529.5,-852.25 450,-852.25"/>
<text text-anchor="start" x="454.88" y="-858.45" font-family="Times New Roman,Times,Liberation Serif,serif" font-size="14.00">voltage_type</text>
<polygon fill="none" stroke="black" points="529.5,-852.25 529.5,-874.75 714,-874.75 714,-852.25 529.5,-852.25"/>
<text text-anchor="start" x="584.62" y="-858.45" font-family="Times New Roman,Times,Liberation Serif,serif" font-size="14.00">VoltageTypes</text>
<polygon fill="none" stroke="black" points="450,-829.75 450,-852.25 529.5,-852.25 529.5,-829.75 450,-829.75"/>
<text text-anchor="start" x="471.75" y="-835.95" font-family="Times New Roman,Times,Liberation Serif,serif" font-size="14.00">phases</text>
<polygon fill="none" stroke="black" points="529.5,-829.75 529.5,-852.25 714,-852.25 714,-829.75 529.5,-829.75"/>
<text text-anchor="start" x="593.25" y="-835.95" font-family="Times New Roman,Times,Liberation Serif,serif" font-size="14.00">list[Phase]</text>
<polygon fill="none" stroke="black" points="450,-807.25 450,-829.75 529.5,-829.75 529.5,-807.25 450,-807.25"/>
<text text-anchor="start" x="454.12" y="-813.45" font-family="Times New Roman,Times,Liberation Serif,serif" font-size="14.00">voltagelimits</text>
<polygon fill="none" stroke="black" points="529.5,-807.25 529.5,-829.75 714,-829.75 714,-807.25 529.5,-807.25"/>
<text text-anchor="start" x="564.38" y="-813.45" font-family="Times New Roman,Times,Liberation Serif,serif" font-size="14.00">list[VoltageLimitSet]</text>
<polygon fill="none" stroke="black" points="450,-784.75 450,-807.25 529.5,-807.25 529.5,-784.75 450,-784.75"/>
<text text-anchor="start" x="453" y="-790.95" font-family="Times New Roman,Times,Liberation Serif,serif" font-size="14.00">rated_voltage</text>
<polygon fill="none" stroke="black" points="529.5,-784.75 529.5,-807.25 714,-807.25 714,-784.75 529.5,-784.75"/>
<text text-anchor="start" x="579.38" y="-790.95" font-family="Times New Roman,Times,Liberation Serif,serif" font-size="14.00">PositiveVoltage</text>
<polygon fill="none" stroke="black" points="450,-762.25 450,-784.75 529.5,-784.75 529.5,-762.25 450,-762.25"/>
<text text-anchor="start" x="461.25" y="-768.45" font-family="Times New Roman,Times,Liberation Serif,serif" font-size="14.00">coordinate</text>
<polygon fill="none" stroke="black" points="529.5,-762.25 529.5,-784.75 714,-784.75 714,-762.25 529.5,-762.25"/>
<text text-anchor="start" x="569.62" y="-768.45" font-family="Times New Roman,Times,Liberation Serif,serif" font-size="14.00">Optional[Location]</text>
</a>
</g>
</g>
<!-- gdm.distribution.components.distribution_bus.DistributionBus&#45;&gt;gdm.distribution.common.limitset.VoltageLimitSet -->
<g id="edge1" class="edge">
<title>gdm.distribution.components.distribution_bus.DistributionBus:e&#45;&gt;gdm.distribution.common.limitset.VoltageLimitSet:w</title>
<path fill="none" stroke="black" d="M724.94,-818.69C835.07,-822.85 858.48,-895.89 965.78,-902.3"/>
<polyline fill="none" stroke="black" points="715,-818.5 720,-818.59"/>
<polyline fill="none" stroke="black" points="720,-818.59 725,-818.69"/>
<polygon fill="black" stroke="black" points="970.79,-902.45 980.66,-907.24 976.13,-902.6 980.46,-902.73 980.46,-902.73 980.46,-902.73 976.13,-902.6 980.92,-898.24 970.79,-902.45"/>
<polyline fill="none" stroke="black" points="969.58,-902.41 964.58,-902.27"/>
</g>
<!-- gdm.distribution.components.distribution_feeder.DistributionFeeder -->
<g id="node3" class="node">
<title>gdm.distribution.components.distribution_feeder.DistributionFeeder</title>
<g id="a_node3"><a xlink:title="gdm.distribution.components.distribution_feeder.DistributionFeeder&#10;&#10;Class interface for distribution feeder.&#10;">
<polygon fill="none" stroke="black" points="1309.5,-1032 1309.5,-1054.5 1425.75,-1054.5 1425.75,-1032 1309.5,-1032"/>
<text text-anchor="start" x="1312.5" y="-1039.2" font-family="Times New Roman,Times,Liberation Serif,serif" font-weight="bold" font-size="14.00">DistributionFeeder</text>
<polygon fill="none" stroke="black" points="1309.5,-1009.5 1309.5,-1032 1365.75,-1032 1365.75,-1009.5 1309.5,-1009.5"/>
<text text-anchor="start" x="1325.62" y="-1015.7" font-family="Times New Roman,Times,Liberation Serif,serif" font-size="14.00">uuid</text>
<polygon fill="none" stroke="black" points="1365.75,-1009.5 1365.75,-1032 1425.75,-1032 1425.75,-1009.5 1365.75,-1009.5"/>
<text text-anchor="start" x="1378.88" y="-1015.7" font-family="Times New Roman,Times,Liberation Serif,serif" font-size="14.00">UUID</text>
<polygon fill="none" stroke="black" points="1309.5,-987 1309.5,-1009.5 1365.75,-1009.5 1365.75,-987 1309.5,-987"/>
<text text-anchor="start" x="1322.62" y="-993.2" font-family="Times New Roman,Times,Liberation Serif,serif" font-size="14.00">name</text>
<polygon fill="none" stroke="black" points="1365.75,-987 1365.75,-1009.5 1425.75,-1009.5 1425.75,-987 1365.75,-987"/>
<text text-anchor="start" x="1389" y="-993.2" font-family="Times New Roman,Times,Liberation Serif,serif" font-size="14.00">str</text>
</a>
</g>
</g>
<!-- gdm.distribution.components.distribution_bus.DistributionBus&#45;&gt;gdm.distribution.components.distribution_feeder.DistributionFeeder -->
<g id="edge2" class="edge">
<title>gdm.distribution.components.distribution_bus.DistributionBus:e&#45;&gt;gdm.distribution.components.distribution_feeder.DistributionFeeder:w</title>
<path fill="none" stroke="black" d="M724.43,-888.47C791.75,-906.21 1199.32,-1014.19 1291.14,-1038.42"/>
<polyline fill="none" stroke="black" points="715,-886 719.84,-887.27"/>
<polyline fill="none" stroke="black" points="719.84,-887.27 724.67,-888.53"/>
<polyline fill="none" stroke="black" points="1309.5,-1043.25 1304.66,-1041.98"/>
<polygon fill="black" stroke="black" points="1304.97,-1036.89 1302.43,-1046.56 1300.49,-1046.05 1303.03,-1036.38 1304.97,-1036.89"/>
<polyline fill="none" stroke="black" points="1304.66,-1041.98 1299.83,-1040.71"/>
<ellipse fill="none" stroke="black" cx="1295.48" cy="-1039.56" rx="4" ry="4"/>
</g>
<!-- gdm.distribution.components.distribution_substation.DistributionSubstation -->
<g id="node4" class="node">
<title>gdm.distribution.components.distribution_substation.DistributionSubstation</title>
<g id="a_node4"><a xlink:title="gdm.distribution.components.distribution_substation.DistributionSubstation&#10;&#10;Class interface for distribution feeder.&#10;">
<polygon fill="none" stroke="black" points="969.38,-1165.25 969.38,-1187.75 1147.88,-1187.75 1147.88,-1165.25 969.38,-1165.25"/>
<text text-anchor="start" x="992.62" y="-1172.45" font-family="Times New Roman,Times,Liberation Serif,serif" font-weight="bold" font-size="14.00">DistributionSubstation</text>
<polygon fill="none" stroke="black" points="969.38,-1142.75 969.38,-1165.25 1014.38,-1165.25 1014.38,-1142.75 969.38,-1142.75"/>
<text text-anchor="start" x="979.88" y="-1148.95" font-family="Times New Roman,Times,Liberation Serif,serif" font-size="14.00">uuid</text>
<polygon fill="none" stroke="black" points="1014.38,-1142.75 1014.38,-1165.25 1147.88,-1165.25 1147.88,-1142.75 1014.38,-1142.75"/>
<text text-anchor="start" x="1064.25" y="-1148.95" font-family="Times New Roman,Times,Liberation Serif,serif" font-size="14.00">UUID</text>
<polygon fill="none" stroke="black" points="969.38,-1120.25 969.38,-1142.75 1014.38,-1142.75 1014.38,-1120.25 969.38,-1120.25"/>
<text text-anchor="start" x="976.88" y="-1126.45" font-family="Times New Roman,Times,Liberation Serif,serif" font-size="14.00">name</text>
<polygon fill="none" stroke="black" points="1014.38,-1120.25 1014.38,-1142.75 1147.88,-1142.75 1147.88,-1120.25 1014.38,-1120.25"/>
<text text-anchor="start" x="1074.38" y="-1126.45" font-family="Times New Roman,Times,Liberation Serif,serif" font-size="14.00">str</text>
<polygon fill="none" stroke="black" points="969.38,-1097.75 969.38,-1120.25 1014.38,-1120.25 1014.38,-1097.75 969.38,-1097.75"/>
<text text-anchor="start" x="972.38" y="-1103.95" font-family="Times New Roman,Times,Liberation Serif,serif" font-size="14.00">feeders</text>
<polygon fill="none" stroke="black" points="1014.38,-1097.75 1014.38,-1120.25 1147.88,-1120.25 1147.88,-1097.75 1014.38,-1097.75"/>
<text text-anchor="start" x="1017.38" y="-1103.95" font-family="Times New Roman,Times,Liberation Serif,serif" font-size="14.00">list[DistributionFeeder]</text>
</a>
</g>
</g>
<!-- gdm.distribution.components.distribution_bus.DistributionBus&#45;&gt;gdm.distribution.components.distribution_substation.DistributionSubstation -->
<g id="edge3" class="edge">
<title>gdm.distribution.components.distribution_bus.DistributionBus:e&#45;&gt;gdm.distribution.components.distribution_substation.DistributionSubstation:w</title>
<path fill="none" stroke="black" d="M724.79,-908.83C869.76,-918.95 813.04,-1155.82 949.74,-1175.24"/>
<polyline fill="none" stroke="black" points="715,-908.5 720,-908.67"/>
<polyline fill="none" stroke="black" points="720,-908.67 724.99,-908.84"/>
<polyline fill="none" stroke="black" points="968.38,-1176.5 963.39,-1176.16"/>
<polygon fill="black" stroke="black" points="962.73,-1171.11 962.05,-1181.08 960.06,-1180.95 960.73,-1170.97 962.73,-1171.11"/>
<polyline fill="none" stroke="black" points="963.39,-1176.16 958.4,-1175.82"/>
<ellipse fill="none" stroke="black" cx="953.91" cy="-1175.52" rx="4" ry="4"/>
</g>
<!-- infrasys.location.Location -->
<g id="node5" class="node">
<title>infrasys.location.Location</title>
<g id="a_node5"><a xlink:title="infrasys.location.Location&#10;&#10;Specifies geographic location.&#10;">
<polygon fill="none" stroke="black" points="1011,-742.75 1011,-765.25 1106.25,-765.25 1106.25,-742.75 1011,-742.75"/>
<text text-anchor="start" x="1033.12" y="-749.95" font-family="Times New Roman,Times,Liberation Serif,serif" font-weight="bold" font-size="14.00">Location</text>
<polygon fill="none" stroke="black" points="1011,-720.25 1011,-742.75 1047,-742.75 1047,-720.25 1011,-720.25"/>
<text text-anchor="start" x="1017" y="-726.45" font-family="Times New Roman,Times,Liberation Serif,serif" font-size="14.00">uuid</text>
<polygon fill="none" stroke="black" points="1047,-720.25 1047,-742.75 1106.25,-742.75 1106.25,-720.25 1047,-720.25"/>
<text text-anchor="start" x="1059.75" y="-726.45" font-family="Times New Roman,Times,Liberation Serif,serif" font-size="14.00">UUID</text>
<polygon fill="none" stroke="black" points="1011,-697.75 1011,-720.25 1047,-720.25 1047,-697.75 1011,-697.75"/>
<text text-anchor="start" x="1014" y="-703.95" font-family="Times New Roman,Times,Liberation Serif,serif" font-size="14.00">name</text>
<polygon fill="none" stroke="black" points="1047,-697.75 1047,-720.25 1106.25,-720.25 1106.25,-697.75 1047,-697.75"/>
<text text-anchor="start" x="1069.88" y="-703.95" font-family="Times New Roman,Times,Liberation Serif,serif" font-size="14.00">str</text>
<polygon fill="none" stroke="black" points="1011,-675.25 1011,-697.75 1047,-697.75 1047,-675.25 1011,-675.25"/>
<text text-anchor="start" x="1025.62" y="-681.45" font-family="Times New Roman,Times,Liberation Serif,serif" font-size="14.00">x</text>
<polygon fill="none" stroke="black" points="1047,-675.25 1047,-697.75 1106.25,-697.75 1106.25,-675.25 1047,-675.25"/>
<text text-anchor="start" x="1064.25" y="-681.45" font-family="Times New Roman,Times,Liberation Serif,serif" font-size="14.00">float</text>
<polygon fill="none" stroke="black" points="1011,-652.75 1011,-675.25 1047,-675.25 1047,-652.75 1011,-652.75"/>
<text text-anchor="start" x="1025.62" y="-658.95" font-family="Times New Roman,Times,Liberation Serif,serif" font-size="14.00">y</text>
<polygon fill="none" stroke="black" points="1047,-652.75 1047,-675.25 1106.25,-675.25 1106.25,-652.75 1047,-652.75"/>
<text text-anchor="start" x="1064.25" y="-658.95" font-family="Times New Roman,Times,Liberation Serif,serif" font-size="14.00">float</text>
<polygon fill="none" stroke="black" points="1011,-630.25 1011,-652.75 1047,-652.75 1047,-630.25 1011,-630.25"/>
<text text-anchor="start" x="1021.12" y="-636.45" font-family="Times New Roman,Times,Liberation Serif,serif" font-size="14.00">crs</text>
<polygon fill="none" stroke="black" points="1047,-630.25 1047,-652.75 1106.25,-652.75 1106.25,-630.25 1047,-630.25"/>
<text text-anchor="start" x="1050" y="-636.45" font-family="Times New Roman,Times,Liberation Serif,serif" font-size="14.00">str | None</text>
</a>
</g>
</g>
<!-- gdm.distribution.components.distribution_bus.DistributionBus&#45;&gt;infrasys.location.Location -->
<g id="edge4" class="edge">
<title>gdm.distribution.components.distribution_bus.DistributionBus:e&#45;&gt;infrasys.location.Location:w</title>
<path fill="none" stroke="black" d="M724.82,-773.46C841.84,-772.57 878.27,-755.84 991.2,-754.14"/>
<polyline fill="none" stroke="black" points="715,-773.5 720,-773.48"/>
<polyline fill="none" stroke="black" points="720,-773.48 725,-773.46"/>
<polyline fill="none" stroke="black" points="1010,-754 1005,-754.04"/>
<polygon fill="black" stroke="black" points="1003.96,-749.04 1004.04,-759.04 1002.04,-759.06 1001.96,-749.06 1003.96,-749.04"/>
<polyline fill="none" stroke="black" points="1005,-754.04 1000,-754.07"/>
<ellipse fill="none" stroke="black" cx="995.5" cy="-754.11" rx="4" ry="4"/>
</g>
<!-- gdm.distribution.components.distribution_substation.DistributionSubstation&#45;&gt;gdm.distribution.components.distribution_feeder.DistributionFeeder -->
<g id="edge5" class="edge">
<title>gdm.distribution.components.distribution_substation.DistributionSubstation:e&#45;&gt;gdm.distribution.components.distribution_feeder.DistributionFeeder:w</title>
<path fill="none" stroke="black" d="M1158.85,-1108.61C1221.69,-1103.63 1234.15,-1051.85 1294.11,-1044.19"/>
<polyline fill="none" stroke="black" points="1148.88,-1109 1153.87,-1108.81"/>
<polyline fill="none" stroke="black" points="1153.87,-1108.81 1158.87,-1108.61"/>
<polygon fill="black" stroke="black" points="1299.18,-1043.88 1309.44,-1047.76 1304.51,-1043.56 1308.83,-1043.29 1308.83,-1043.29 1308.83,-1043.29 1304.51,-1043.56 1308.89,-1038.78 1299.18,-1043.88"/>
<polyline fill="none" stroke="black" points="1297.97,-1043.96 1292.98,-1044.26"/>
</g>
<!-- gdm.distribution.components.geometry_branch.GeometryBranch -->
<g id="node6" class="node">
<title>gdm.distribution.components.geometry_branch.GeometryBranch</title>
<g id="a_node6"><a xlink:title="gdm.distribution.components.geometry_branch.GeometryBranch&#10;&#10;Data model for geometry based lines.&#10;">
<polygon fill="none" stroke="black" points="0,-1110.75 0,-1133.25 248.25,-1133.25 248.25,-1110.75 0,-1110.75"/>
<text text-anchor="start" x="73.12" y="-1117.95" font-family="Times New Roman,Times,Liberation Serif,serif" font-weight="bold" font-size="14.00">GeometryBranch</text>
<polygon fill="none" stroke="black" points="0,-1088.25 0,-1110.75 63.75,-1110.75 63.75,-1088.25 0,-1088.25"/>
<text text-anchor="start" x="19.88" y="-1094.45" font-family="Times New Roman,Times,Liberation Serif,serif" font-size="14.00">uuid</text>
<polygon fill="none" stroke="black" points="63.75,-1088.25 63.75,-1110.75 248.25,-1110.75 248.25,-1088.25 63.75,-1088.25"/>
<text text-anchor="start" x="139.12" y="-1094.45" font-family="Times New Roman,Times,Liberation Serif,serif" font-size="14.00">UUID</text>
<polygon fill="none" stroke="black" points="0,-1065.75 0,-1088.25 63.75,-1088.25 63.75,-1065.75 0,-1065.75"/>
<text text-anchor="start" x="16.88" y="-1071.95" font-family="Times New Roman,Times,Liberation Serif,serif" font-size="14.00">name</text>
<polygon fill="none" stroke="black" points="63.75,-1065.75 63.75,-1088.25 248.25,-1088.25 248.25,-1065.75 63.75,-1065.75"/>
<text text-anchor="start" x="149.25" y="-1071.95" font-family="Times New Roman,Times,Liberation Serif,serif" font-size="14.00">str</text>
<polygon fill="none" stroke="black" points="0,-1043.25 0,-1065.75 63.75,-1065.75 63.75,-1043.25 0,-1043.25"/>
<text text-anchor="start" x="4.5" y="-1049.45" font-family="Times New Roman,Times,Liberation Serif,serif" font-size="14.00">substation</text>
<polygon fill="none" stroke="black" points="63.75,-1043.25 63.75,-1065.75 248.25,-1065.75 248.25,-1043.25 63.75,-1043.25"/>
<text text-anchor="start" x="66.75" y="-1049.45" font-family="Times New Roman,Times,Liberation Serif,serif" font-size="14.00">Optional[DistributionSubstation]</text>
<polygon fill="none" stroke="black" points="0,-1020.75 0,-1043.25 63.75,-1043.25 63.75,-1020.75 0,-1020.75"/>
<text text-anchor="start" x="15" y="-1026.95" font-family="Times New Roman,Times,Liberation Serif,serif" font-size="14.00">feeder</text>
<polygon fill="none" stroke="black" points="63.75,-1020.75 63.75,-1043.25 248.25,-1043.25 248.25,-1020.75 63.75,-1020.75"/>
<text text-anchor="start" x="76.88" y="-1026.95" font-family="Times New Roman,Times,Liberation Serif,serif" font-size="14.00">Optional[DistributionFeeder]</text>
<polygon fill="none" stroke="black" points="0,-998.25 0,-1020.75 63.75,-1020.75 63.75,-998.25 0,-998.25"/>
<text text-anchor="start" x="4.12" y="-1004.45" font-family="Times New Roman,Times,Liberation Serif,serif" font-size="14.00">in_service</text>
<polygon fill="none" stroke="black" points="63.75,-998.25 63.75,-1020.75 248.25,-1020.75 248.25,-998.25 63.75,-998.25"/>
<text text-anchor="start" x="144" y="-1004.45" font-family="Times New Roman,Times,Liberation Serif,serif" font-size="14.00">bool</text>
<polygon fill="none" stroke="black" points="0,-975.75 0,-998.25 63.75,-998.25 63.75,-975.75 0,-975.75"/>
<text text-anchor="start" x="16.88" y="-981.95" font-family="Times New Roman,Times,Liberation Serif,serif" font-size="14.00">buses</text>
<polygon fill="none" stroke="black" points="63.75,-975.75 63.75,-998.25 248.25,-998.25 248.25,-975.75 63.75,-975.75"/>
<text text-anchor="start" x="100.12" y="-981.95" font-family="Times New Roman,Times,Liberation Serif,serif" font-size="14.00">list[DistributionBus]</text>
<polygon fill="none" stroke="black" points="0,-953.25 0,-975.75 63.75,-975.75 63.75,-953.25 0,-953.25"/>
<text text-anchor="start" x="15" y="-959.45" font-family="Times New Roman,Times,Liberation Serif,serif" font-size="14.00">length</text>
<polygon fill="none" stroke="black" points="63.75,-953.25 63.75,-975.75 248.25,-975.75 248.25,-953.25 63.75,-953.25"/>
<text text-anchor="start" x="110.62" y="-959.45" font-family="Times New Roman,Times,Liberation Serif,serif" font-size="14.00">PositiveDistance</text>
<polygon fill="none" stroke="black" points="0,-930.75 0,-953.25 63.75,-953.25 63.75,-930.75 0,-930.75"/>
<text text-anchor="start" x="13.88" y="-936.95" font-family="Times New Roman,Times,Liberation Serif,serif" font-size="14.00">phases</text>
<polygon fill="none" stroke="black" points="63.75,-930.75 63.75,-953.25 248.25,-953.25 248.25,-930.75 63.75,-930.75"/>
<text text-anchor="start" x="127.5" y="-936.95" font-family="Times New Roman,Times,Liberation Serif,serif" font-size="14.00">list[Phase]</text>
<polygon fill="none" stroke="black" points="0,-908.25 0,-930.75 63.75,-930.75 63.75,-908.25 0,-908.25"/>
<text text-anchor="start" x="3" y="-914.45" font-family="Times New Roman,Times,Liberation Serif,serif" font-size="14.00">equipment</text>
<polygon fill="none" stroke="black" points="63.75,-908.25 63.75,-930.75 248.25,-930.75 248.25,-908.25 63.75,-908.25"/>
<text text-anchor="start" x="79.12" y="-914.45" font-family="Times New Roman,Times,Liberation Serif,serif" font-size="14.00">GeometryBranchEquipment</text>
</a>
</g>
</g>
<!-- gdm.distribution.components.geometry_branch.GeometryBranch&#45;&gt;gdm.distribution.components.distribution_bus.DistributionBus -->
<g id="edge6" class="edge">
<title>gdm.distribution.components.geometry_branch.GeometryBranch:e&#45;&gt;gdm.distribution.components.distribution_bus.DistributionBus:w</title>
<path fill="none" stroke="black" d="M257.93,-986.96C334.25,-986.25 359.78,-977.24 433.57,-976.11"/>
<polyline fill="none" stroke="black" points="248.25,-987 253.25,-986.98"/>
<polyline fill="none" stroke="black" points="253.25,-986.98 258.25,-986.95"/>
<polygon fill="black" stroke="black" points="438.67,-976.08 448.7,-980.5 444,-976.04 448.33,-976 448.33,-976 448.33,-976 444,-976.04 448.63,-971.5 438.67,-976.08"/>
<polyline fill="none" stroke="black" points="437.45,-976.09 432.45,-976.12"/>
</g>
<!-- gdm.distribution.components.geometry_branch.GeometryBranch&#45;&gt;gdm.distribution.components.distribution_feeder.DistributionFeeder -->
<g id="edge7" class="edge">
<title>gdm.distribution.components.geometry_branch.GeometryBranch:e&#45;&gt;gdm.distribution.components.distribution_feeder.DistributionFeeder:w</title>
<path fill="none" stroke="black" d="M258.22,-1032C715.41,-1032.16 837.87,-1042.95 1290.82,-1043.24"/>
<polyline fill="none" stroke="black" points="248.25,-1032 253.25,-1032"/>
<polyline fill="none" stroke="black" points="253.25,-1032 258.25,-1032"/>
<polyline fill="none" stroke="black" points="1309.5,-1043.25 1304.5,-1043.25"/>
<polygon fill="black" stroke="black" points="1303.5,-1038.25 1303.5,-1048.25 1301.5,-1048.25 1301.5,-1038.25 1303.5,-1038.25"/>
<polyline fill="none" stroke="black" points="1304.5,-1043.25 1299.5,-1043.25"/>
<ellipse fill="none" stroke="black" cx="1295" cy="-1043.25" rx="4" ry="4"/>
</g>
<!-- gdm.distribution.components.geometry_branch.GeometryBranch&#45;&gt;gdm.distribution.components.distribution_substation.DistributionSubstation -->
<g id="edge8" class="edge">
<title>gdm.distribution.components.geometry_branch.GeometryBranch:e&#45;&gt;gdm.distribution.components.distribution_substation.DistributionSubstation:w</title>
<path fill="none" stroke="black" d="M258.05,-1055.31C341.45,-1065.06 840.87,-1159.63 949.53,-1174.53"/>
<polyline fill="none" stroke="black" points="248.25,-1054.5 253.23,-1054.91"/>
<polyline fill="none" stroke="black" points="253.23,-1054.91 258.22,-1055.32"/>
<polyline fill="none" stroke="black" points="968.38,-1176.5 963.4,-1175.98"/>
<polygon fill="black" stroke="black" points="962.93,-1170.9 961.89,-1180.85 959.9,-1180.64 960.94,-1170.69 962.93,-1170.9"/>
<polyline fill="none" stroke="black" points="963.4,-1175.98 958.43,-1175.46"/>
<ellipse fill="none" stroke="black" cx="953.95" cy="-1174.99" rx="4" ry="4"/>
</g>
<!-- gdm.distribution.equipment.geometry_branch_equipment.GeometryBranchEquipment -->
<g id="node7" class="node">
<title>gdm.distribution.equipment.geometry_branch_equipment.GeometryBranchEquipment</title>
<g id="a_node7"><a xlink:title="gdm.distribution.equipment.geometry_branch_equipment.GeometryBranchEquipment&#10;&#10;Data model for geometry branch info.&#10;">
<polygon fill="none" stroke="black" points="356.25,-638.75 356.25,-661.25 807.75,-661.25 807.75,-638.75 356.25,-638.75"/>
<text text-anchor="start" x="498.38" y="-645.95" font-family="Times New Roman,Times,Liberation Serif,serif" font-weight="bold" font-size="14.00">GeometryBranchEquipment</text>
<polygon fill="none" stroke="black" points="356.25,-616.25 356.25,-638.75 472.5,-638.75 472.5,-616.25 356.25,-616.25"/>
<text text-anchor="start" x="402.38" y="-622.45" font-family="Times New Roman,Times,Liberation Serif,serif" font-size="14.00">uuid</text>
<polygon fill="none" stroke="black" points="472.5,-616.25 472.5,-638.75 807.75,-638.75 807.75,-616.25 472.5,-616.25"/>
<text text-anchor="start" x="623.25" y="-622.45" font-family="Times New Roman,Times,Liberation Serif,serif" font-size="14.00">UUID</text>
<polygon fill="none" stroke="black" points="356.25,-593.75 356.25,-616.25 472.5,-616.25 472.5,-593.75 356.25,-593.75"/>
<text text-anchor="start" x="399.38" y="-599.95" font-family="Times New Roman,Times,Liberation Serif,serif" font-size="14.00">name</text>
<polygon fill="none" stroke="black" points="472.5,-593.75 472.5,-616.25 807.75,-616.25 807.75,-593.75 472.5,-593.75"/>
<text text-anchor="start" x="633.38" y="-599.95" font-family="Times New Roman,Times,Liberation Serif,serif" font-size="14.00">str</text>
<polygon fill="none" stroke="black" points="356.25,-571.25 356.25,-593.75 472.5,-593.75 472.5,-571.25 356.25,-571.25"/>
<text text-anchor="start" x="384.75" y="-577.45" font-family="Times New Roman,Times,Liberation Serif,serif" font-size="14.00">conductors</text>
<polygon fill="none" stroke="black" points="472.5,-571.25 472.5,-593.75 807.75,-593.75 807.75,-571.25 472.5,-571.25"/>
<text text-anchor="start" x="475.5" y="-577.45" font-family="Times New Roman,Times,Liberation Serif,serif" font-size="14.00">list[BareConductorEquipment | ConcentricCableEquipment]</text>
<polygon fill="none" stroke="black" points="356.25,-548.75 356.25,-571.25 472.5,-571.25 472.5,-548.75 356.25,-548.75"/>
<text text-anchor="start" x="359.25" y="-554.95" font-family="Times New Roman,Times,Liberation Serif,serif" font-size="14.00">horizontal_positions</text>
<polygon fill="none" stroke="black" points="472.5,-548.75 472.5,-571.25 807.75,-571.25 807.75,-548.75 472.5,-548.75"/>
<text text-anchor="start" x="616.5" y="-554.95" font-family="Times New Roman,Times,Liberation Serif,serif" font-size="14.00">Distance</text>
<polygon fill="none" stroke="black" points="356.25,-526.25 356.25,-548.75 472.5,-548.75 472.5,-526.25 356.25,-526.25"/>
<text text-anchor="start" x="366.38" y="-532.45" font-family="Times New Roman,Times,Liberation Serif,serif" font-size="14.00">vertical_positions</text>
<polygon fill="none" stroke="black" points="472.5,-526.25 472.5,-548.75 807.75,-548.75 807.75,-526.25 472.5,-526.25"/>
<text text-anchor="start" x="616.5" y="-532.45" font-family="Times New Roman,Times,Liberation Serif,serif" font-size="14.00">Distance</text>
</a>
</g>
</g>
<!-- gdm.distribution.components.geometry_branch.GeometryBranch&#45;&gt;gdm.distribution.equipment.geometry_branch_equipment.GeometryBranchEquipment -->
<g id="edge9" class="edge">
<title>gdm.distribution.components.geometry_branch.GeometryBranch:e&#45;&gt;gdm.distribution.equipment.geometry_branch_equipment.GeometryBranchEquipment:w</title>
<path fill="none" stroke="black" d="M258.22,-918.91C364.52,-905.56 242.19,-671.47 341.49,-651.37"/>
<polyline fill="none" stroke="black" points="248.25,-919.5 253.24,-919.2"/>
<polyline fill="none" stroke="black" points="253.24,-919.2 258.23,-918.91"/>
<polyline fill="none" stroke="black" points="356.25,-650 351.27,-650.46"/>
<polygon fill="black" stroke="black" points="349.81,-645.58 350.74,-655.53 348.75,-655.72 347.82,-645.76 349.81,-645.58"/>
<polyline fill="none" stroke="black" points="351.27,-650.46 346.29,-650.93"/>
<polygon fill="black" stroke="black" points="344.83,-646.04 345.76,-656 343.77,-656.18 342.84,-646.23 344.83,-646.04"/>
<polyline fill="none" stroke="black" points="346.29,-650.93 341.31,-651.39"/>
</g>
<!-- gdm.distribution.equipment.bare_conductor_equipment.BareConductorEquipment -->
<g id="node8" class="node">
<title>gdm.distribution.equipment.bare_conductor_equipment.BareConductorEquipment</title>
<g id="a_node8"><a xlink:title="gdm.distribution.equipment.bare_conductor_equipment.BareConductorEquipment&#10;&#10;Data model for conductor catalaog.&#10;">
<polygon fill="none" stroke="black" points="915.75,-198.5 915.75,-221 1201.5,-221 1201.5,-198.5 915.75,-198.5"/>
<text text-anchor="start" x="981" y="-205.7" font-family="Times New Roman,Times,Liberation Serif,serif" font-weight="bold" font-size="14.00">BareConductorEquipment</text>
<polygon fill="none" stroke="black" points="915.75,-176 915.75,-198.5 1038.75,-198.5 1038.75,-176 915.75,-176"/>
<text text-anchor="start" x="965.25" y="-182.2" font-family="Times New Roman,Times,Liberation Serif,serif" font-size="14.00">uuid</text>
<polygon fill="none" stroke="black" points="1038.75,-176 1038.75,-198.5 1201.5,-198.5 1201.5,-176 1038.75,-176"/>
<text text-anchor="start" x="1103.25" y="-182.2" font-family="Times New Roman,Times,Liberation Serif,serif" font-size="14.00">UUID</text>
<polygon fill="none" stroke="black" points="915.75,-153.5 915.75,-176 1038.75,-176 1038.75,-153.5 915.75,-153.5"/>
<text text-anchor="start" x="962.25" y="-159.7" font-family="Times New Roman,Times,Liberation Serif,serif" font-size="14.00">name</text>
<polygon fill="none" stroke="black" points="1038.75,-153.5 1038.75,-176 1201.5,-176 1201.5,-153.5 1038.75,-153.5"/>
<text text-anchor="start" x="1113.38" y="-159.7" font-family="Times New Roman,Times,Liberation Serif,serif" font-size="14.00">str</text>
<polygon fill="none" stroke="black" points="915.75,-131 915.75,-153.5 1038.75,-153.5 1038.75,-131 915.75,-131"/>
<text text-anchor="start" x="922.88" y="-137.2" font-family="Times New Roman,Times,Liberation Serif,serif" font-size="14.00">conductor_diameter</text>
<polygon fill="none" stroke="black" points="1038.75,-131 1038.75,-153.5 1201.5,-153.5 1201.5,-131 1038.75,-131"/>
<text text-anchor="start" x="1074.75" y="-137.2" font-family="Times New Roman,Times,Liberation Serif,serif" font-size="14.00">PositiveDistance</text>
<polygon fill="none" stroke="black" points="915.75,-108.5 915.75,-131 1038.75,-131 1038.75,-108.5 915.75,-108.5"/>
<text text-anchor="start" x="935.62" y="-114.7" font-family="Times New Roman,Times,Liberation Serif,serif" font-size="14.00">conductor_gmr</text>
<polygon fill="none" stroke="black" points="1038.75,-108.5 1038.75,-131 1201.5,-131 1201.5,-108.5 1038.75,-108.5"/>
<text text-anchor="start" x="1074.75" y="-114.7" font-family="Times New Roman,Times,Liberation Serif,serif" font-size="14.00">PositiveDistance</text>
<polygon fill="none" stroke="black" points="915.75,-86 915.75,-108.5 1038.75,-108.5 1038.75,-86 915.75,-86"/>
<text text-anchor="start" x="952.12" y="-92.2" font-family="Times New Roman,Times,Liberation Serif,serif" font-size="14.00">ampacity</text>
<polygon fill="none" stroke="black" points="1038.75,-86 1038.75,-108.5 1201.5,-108.5 1201.5,-86 1038.75,-86"/>
<text text-anchor="start" x="1077.75" y="-92.2" font-family="Times New Roman,Times,Liberation Serif,serif" font-size="14.00">PositiveCurrent</text>
<polygon fill="none" stroke="black" points="915.75,-63.5 915.75,-86 1038.75,-86 1038.75,-63.5 915.75,-63.5"/>
<text text-anchor="start" x="941.25" y="-69.7" font-family="Times New Roman,Times,Liberation Serif,serif" font-size="14.00">ac_resistance</text>
<polygon fill="none" stroke="black" points="1038.75,-63.5 1038.75,-86 1201.5,-86 1201.5,-63.5 1038.75,-63.5"/>
<text text-anchor="start" x="1041.75" y="-69.7" font-family="Times New Roman,Times,Liberation Serif,serif" font-size="14.00">PositiveResistancePULength</text>
<polygon fill="none" stroke="black" points="915.75,-41 915.75,-63.5 1038.75,-63.5 1038.75,-41 915.75,-41"/>
<text text-anchor="start" x="918.75" y="-47.2" font-family="Times New Roman,Times,Liberation Serif,serif" font-size="14.00">emergency_ampacity</text>
<polygon fill="none" stroke="black" points="1038.75,-41 1038.75,-63.5 1201.5,-63.5 1201.5,-41 1038.75,-41"/>
<text text-anchor="start" x="1077.75" y="-47.2" font-family="Times New Roman,Times,Liberation Serif,serif" font-size="14.00">PositiveCurrent</text>
<polygon fill="none" stroke="black" points="915.75,-18.5 915.75,-41 1038.75,-41 1038.75,-18.5 915.75,-18.5"/>
<text text-anchor="start" x="940.88" y="-24.7" font-family="Times New Roman,Times,Liberation Serif,serif" font-size="14.00">dc_resistance</text>
<polygon fill="none" stroke="black" points="1038.75,-18.5 1038.75,-41 1201.5,-41 1201.5,-18.5 1038.75,-18.5"/>
<text text-anchor="start" x="1041.75" y="-24.7" font-family="Times New Roman,Times,Liberation Serif,serif" font-size="14.00">PositiveResistancePULength</text>
</a>
</g>
</g>
<!-- gdm.distribution.equipment.geometry_branch_equipment.GeometryBranchEquipment&#45;&gt;gdm.distribution.equipment.bare_conductor_equipment.BareConductorEquipment -->
<g id="edge10" class="edge">
<title>gdm.distribution.equipment.geometry_branch_equipment.GeometryBranchEquipment:e&#45;&gt;gdm.distribution.equipment.bare_conductor_equipment.BareConductorEquipment:w</title>
<path fill="none" stroke="black" d="M817.39,-582.08C966.18,-568.53 760.71,-232.49 900.6,-210.84"/>
<polyline fill="none" stroke="black" points="807.75,-582.5 812.75,-582.28"/>
<polyline fill="none" stroke="black" points="812.75,-582.28 817.74,-582.06"/>
<polygon fill="black" stroke="black" points="905.44,-210.49 915.74,-214.26 910.76,-210.11 915.08,-209.8 915.08,-209.8 915.08,-209.8 910.76,-210.11 915.09,-205.29 905.44,-210.49"/>
<polyline fill="none" stroke="black" points="904.23,-210.58 899.24,-210.94"/>
</g>
<!-- gdm.distribution.equipment.concentric_cable_equipment.ConcentricCableEquipment -->
<g id="node9" class="node">
<title>gdm.distribution.equipment.concentric_cable_equipment.ConcentricCableEquipment</title>
<g id="a_node9"><a xlink:title="gdm.distribution.equipment.concentric_cable_equipment.ConcentricCableEquipment&#10;&#10;Data model for cable catalog.&#10;">
<polygon fill="none" stroke="black" points="917.25,-572 917.25,-594.5 1200,-594.5 1200,-572 917.25,-572"/>
<text text-anchor="start" x="977.25" y="-579.2" font-family="Times New Roman,Times,Liberation Serif,serif" font-weight="bold" font-size="14.00">ConcentricCableEquipment</text>
<polygon fill="none" stroke="black" points="917.25,-549.5 917.25,-572 1037.25,-572 1037.25,-549.5 917.25,-549.5"/>
<text text-anchor="start" x="965.25" y="-555.7" font-family="Times New Roman,Times,Liberation Serif,serif" font-size="14.00">uuid</text>
<polygon fill="none" stroke="black" points="1037.25,-549.5 1037.25,-572 1200,-572 1200,-549.5 1037.25,-549.5"/>
<text text-anchor="start" x="1101.75" y="-555.7" font-family="Times New Roman,Times,Liberation Serif,serif" font-size="14.00">UUID</text>
<polygon fill="none" stroke="black" points="917.25,-527 917.25,-549.5 1037.25,-549.5 1037.25,-527 917.25,-527"/>
<text text-anchor="start" x="962.25" y="-533.2" font-family="Times New Roman,Times,Liberation Serif,serif" font-size="14.00">name</text>
<polygon fill="none" stroke="black" points="1037.25,-527 1037.25,-549.5 1200,-549.5 1200,-527 1037.25,-527"/>
<text text-anchor="start" x="1111.88" y="-533.2" font-family="Times New Roman,Times,Liberation Serif,serif" font-size="14.00">str</text>
<polygon fill="none" stroke="black" points="917.25,-504.5 917.25,-527 1037.25,-527 1037.25,-504.5 917.25,-504.5"/>
<text text-anchor="start" x="933.38" y="-510.7" font-family="Times New Roman,Times,Liberation Serif,serif" font-size="14.00">strand_diameter</text>
<polygon fill="none" stroke="black" points="1037.25,-504.5 1037.25,-527 1200,-527 1200,-504.5 1037.25,-504.5"/>
<text text-anchor="start" x="1073.25" y="-510.7" font-family="Times New Roman,Times,Liberation Serif,serif" font-size="14.00">PositiveDistance</text>
<polygon fill="none" stroke="black" points="917.25,-482 917.25,-504.5 1037.25,-504.5 1037.25,-482 917.25,-482"/>
<text text-anchor="start" x="922.88" y="-488.2" font-family="Times New Roman,Times,Liberation Serif,serif" font-size="14.00">conductor_diameter</text>
<polygon fill="none" stroke="black" points="1037.25,-482 1037.25,-504.5 1200,-504.5 1200,-482 1037.25,-482"/>
<text text-anchor="start" x="1073.25" y="-488.2" font-family="Times New Roman,Times,Liberation Serif,serif" font-size="14.00">PositiveDistance</text>
<polygon fill="none" stroke="black" points="917.25,-459.5 917.25,-482 1037.25,-482 1037.25,-459.5 917.25,-459.5"/>
<text text-anchor="start" x="935.62" y="-465.7" font-family="Times New Roman,Times,Liberation Serif,serif" font-size="14.00">cable_diameter</text>
<polygon fill="none" stroke="black" points="1037.25,-459.5 1037.25,-482 1200,-482 1200,-459.5 1037.25,-459.5"/>
<text text-anchor="start" x="1073.25" y="-465.7" font-family="Times New Roman,Times,Liberation Serif,serif" font-size="14.00">PositiveDistance</text>
<polygon fill="none" stroke="black" points="917.25,-437 917.25,-459.5 1037.25,-459.5 1037.25,-437 917.25,-437"/>
<text text-anchor="start" x="922.12" y="-443.2" font-family="Times New Roman,Times,Liberation Serif,serif" font-size="14.00">insulation_thickness</text>
<polygon fill="none" stroke="black" points="1037.25,-437 1037.25,-459.5 1200,-459.5 1200,-437 1037.25,-437"/>
<text text-anchor="start" x="1073.25" y="-443.2" font-family="Times New Roman,Times,Liberation Serif,serif" font-size="14.00">PositiveDistance</text>
<polygon fill="none" stroke="black" points="917.25,-414.5 917.25,-437 1037.25,-437 1037.25,-414.5 917.25,-414.5"/>
<text text-anchor="start" x="923.25" y="-420.7" font-family="Times New Roman,Times,Liberation Serif,serif" font-size="14.00">insulation_diameter</text>
<polygon fill="none" stroke="black" points="1037.25,-414.5 1037.25,-437 1200,-437 1200,-414.5 1037.25,-414.5"/>
<text text-anchor="start" x="1073.25" y="-420.7" font-family="Times New Roman,Times,Liberation Serif,serif" font-size="14.00">PositiveDistance</text>
<polygon fill="none" stroke="black" points="917.25,-392 917.25,-414.5 1037.25,-414.5 1037.25,-392 917.25,-392"/>
<text text-anchor="start" x="952.12" y="-398.2" font-family="Times New Roman,Times,Liberation Serif,serif" font-size="14.00">ampacity</text>
<polygon fill="none" stroke="black" points="1037.25,-392 1037.25,-414.5 1200,-414.5 1200,-392 1037.25,-392"/>
<text text-anchor="start" x="1076.25" y="-398.2" font-family="Times New Roman,Times,Liberation Serif,serif" font-size="14.00">PositiveCurrent</text>
<polygon fill="none" stroke="black" points="917.25,-369.5 917.25,-392 1037.25,-392 1037.25,-369.5 917.25,-369.5"/>
<text text-anchor="start" x="935.62" y="-375.7" font-family="Times New Roman,Times,Liberation Serif,serif" font-size="14.00">conductor_gmr</text>
<polygon fill="none" stroke="black" points="1037.25,-369.5 1037.25,-392 1200,-392 1200,-369.5 1037.25,-369.5"/>
<text text-anchor="start" x="1073.25" y="-375.7" font-family="Times New Roman,Times,Liberation Serif,serif" font-size="14.00">PositiveDistance</text>
<polygon fill="none" stroke="black" points="917.25,-347 917.25,-369.5 1037.25,-369.5 1037.25,-347 917.25,-347"/>
<text text-anchor="start" x="946.12" y="-353.2" font-family="Times New Roman,Times,Liberation Serif,serif" font-size="14.00">strand_gmr</text>
<polygon fill="none" stroke="black" points="1037.25,-347 1037.25,-369.5 1200,-369.5 1200,-347 1037.25,-347"/>
<text text-anchor="start" x="1073.25" y="-353.2" font-family="Times New Roman,Times,Liberation Serif,serif" font-size="14.00">PositiveDistance</text>
<polygon fill="none" stroke="black" points="917.25,-324.5 917.25,-347 1037.25,-347 1037.25,-324.5 917.25,-324.5"/>
<text text-anchor="start" x="922.5" y="-330.7" font-family="Times New Roman,Times,Liberation Serif,serif" font-size="14.00">phase_ac_resistance</text>
<polygon fill="none" stroke="black" points="1037.25,-324.5 1037.25,-347 1200,-347 1200,-324.5 1037.25,-324.5"/>
<text text-anchor="start" x="1040.25" y="-330.7" font-family="Times New Roman,Times,Liberation Serif,serif" font-size="14.00">PositiveResistancePULength</text>
<polygon fill="none" stroke="black" points="917.25,-302 917.25,-324.5 1037.25,-324.5 1037.25,-302 917.25,-302"/>
<text text-anchor="start" x="921.38" y="-308.2" font-family="Times New Roman,Times,Liberation Serif,serif" font-size="14.00">strand_ac_resistance</text>
<polygon fill="none" stroke="black" points="1037.25,-302 1037.25,-324.5 1200,-324.5 1200,-302 1037.25,-302"/>
<text text-anchor="start" x="1040.25" y="-308.2" font-family="Times New Roman,Times,Liberation Serif,serif" font-size="14.00">PositiveResistancePULength</text>
<polygon fill="none" stroke="black" points="917.25,-279.5 917.25,-302 1037.25,-302 1037.25,-279.5 917.25,-279.5"/>
<text text-anchor="start" x="920.25" y="-285.7" font-family="Times New Roman,Times,Liberation Serif,serif" font-size="14.00">num_neutral_strands</text>
<polygon fill="none" stroke="black" points="1037.25,-279.5 1037.25,-302 1200,-302 1200,-279.5 1037.25,-279.5"/>
<text text-anchor="start" x="1111.5" y="-285.7" font-family="Times New Roman,Times,Liberation Serif,serif" font-size="14.00">int</text>
<polygon fill="none" stroke="black" points="917.25,-257 917.25,-279.5 1037.25,-279.5 1037.25,-257 917.25,-257"/>
<text text-anchor="start" x="940.5" y="-263.2" font-family="Times New Roman,Times,Liberation Serif,serif" font-size="14.00">rated_voltage</text>
<polygon fill="none" stroke="black" points="1037.25,-257 1037.25,-279.5 1200,-279.5 1200,-257 1037.25,-257"/>
<text text-anchor="start" x="1076.25" y="-263.2" font-family="Times New Roman,Times,Liberation Serif,serif" font-size="14.00">PositiveVoltage</text>
</a>
</g>
</g>
<!-- gdm.distribution.equipment.geometry_branch_equipment.GeometryBranchEquipment&#45;&gt;gdm.distribution.equipment.concentric_cable_equipment.ConcentricCableEquipment -->
<g id="edge11" class="edge">
<title>gdm.distribution.equipment.geometry_branch_equipment.GeometryBranchEquipment:e&#45;&gt;gdm.distribution.equipment.concentric_cable_equipment.ConcentricCableEquipment:w</title>
<path fill="none" stroke="black" d="M817.67,-582.51C852.87,-582.59 867.69,-583.1 900.82,-583.22"/>
<polyline fill="none" stroke="black" points="807.75,-582.5 812.75,-582.51"/>
<polyline fill="none" stroke="black" points="812.75,-582.51 817.75,-582.51"/>
<polygon fill="black" stroke="black" points="905.92,-583.23 915.91,-587.75 911.25,-583.24 915.58,-583.25 915.58,-583.25 915.58,-583.25 911.25,-583.24 915.92,-578.75 905.92,-583.23"/>
<polyline fill="none" stroke="black" points="904.7,-583.23 899.7,-583.22"/>
</g>
</g>
</svg>
