<?xml version="1.0" encoding="UTF-8" standalone="no"?>
<!DOCTYPE svg PUBLIC "-//W3C//DTD SVG 1.1//EN"
 "http://www.w3.org/Graphics/SVG/1.1/DTD/svg11.dtd">
<!-- Generated by graphviz version 12.2.1 (20241206.2353)
 -->
<!-- Title: Entity Relationship Diagram created by erdantic Pages: 1 -->
<svg width="622pt" height="341pt"
 viewBox="0.00 0.00 621.50 341.25" xmlns="http://www.w3.org/2000/svg" xmlns:xlink="http://www.w3.org/1999/xlink">
<g id="graph0" class="graph" transform="scale(1 1) rotate(0) translate(4 337.25)">
<title>Entity Relationship Diagram created by erdantic</title>
<polygon fill="white" stroke="none" points="-4,4 -4,-337.25 617.5,-337.25 617.5,4 -4,4"/>
<text text-anchor="middle" x="306.75" y="-5.95" font-family="Times New Roman,Times,Liberation Serif,serif" font-size="9.00" fill="#a8a8a8">Created by erdantic v1.0.5 &lt;https://github.com/drivendataorg/erdantic&gt;</text>
<!-- gdm.distribution.common.curve.Curve -->
<g id="node1" class="node">
<title>gdm.distribution.common.curve.Curve</title>
<g id="a_node1"><a xlink:title="gdm.distribution.common.curve.Curve&#10;&#10;An interface for representing a curve using x and y points. e.g for volt&#45;var and volt&#45;watt curves.&#10;&#10;Examples&#10;&#45;&#45;&#45;&#45;&#45;&#45;&#45;&#45;&#10;&#10;Example of a Curve (Volt&#45;Var IEEE&#45;1547 standard).&#10;&#10;&gt;&gt;&gt; Curve(&#10; &#160;&#160;&#160;&#160;&#160;&#160;&#160;curve_x=[0.5, 0.92, 0.98, 1.02, 1.08, 1.5], curve_y=[1.0, 1.0, 0.0, 0.0, &#45;1.0, &#45;1.0]&#10; &#160;&#160;&#160;)&#10;&#10;Example of a Curve (Volt&#45;Var Volt&#45;Watt IEEE&#45;1547 standard)&#10;&#10;&gt;&gt;&gt; Curve(curve_x=[0.5, 1.06, 1.1, 1.5], curve_y=[1.0, 1.0, 0.0, 0.0])&#10;">
<polygon fill="none" stroke="black" points="423.75,-108.5 423.75,-131 613.5,-131 613.5,-108.5 423.75,-108.5"/>
<text text-anchor="start" x="500.62" y="-115.7" font-family="Times New Roman,Times,Liberation Serif,serif" font-weight="bold" font-size="14.00">Curve</text>
<polygon fill="none" stroke="black" points="423.75,-86 423.75,-108.5 473.25,-108.5 473.25,-86 423.75,-86"/>
<text text-anchor="start" x="436.5" y="-92.2" font-family="Times New Roman,Times,Liberation Serif,serif" font-size="14.00">uuid</text>
<polygon fill="none" stroke="black" points="473.25,-86 473.25,-108.5 613.5,-108.5 613.5,-86 473.25,-86"/>
<text text-anchor="start" x="526.5" y="-92.2" font-family="Times New Roman,Times,Liberation Serif,serif" font-size="14.00">UUID</text>
<polygon fill="none" stroke="black" points="423.75,-63.5 423.75,-86 473.25,-86 473.25,-63.5 423.75,-63.5"/>
<text text-anchor="start" x="433.5" y="-69.7" font-family="Times New Roman,Times,Liberation Serif,serif" font-size="14.00">name</text>
<polygon fill="none" stroke="black" points="473.25,-63.5 473.25,-86 613.5,-86 613.5,-63.5 473.25,-63.5"/>
<text text-anchor="start" x="536.62" y="-69.7" font-family="Times New Roman,Times,Liberation Serif,serif" font-size="14.00">str</text>
<polygon fill="none" stroke="black" points="423.75,-41 423.75,-63.5 473.25,-63.5 473.25,-41 423.75,-41"/>
<text text-anchor="start" x="426.75" y="-47.2" font-family="Times New Roman,Times,Liberation Serif,serif" font-size="14.00">curve_x</text>
<polygon fill="none" stroke="black" points="473.25,-41 473.25,-63.5 613.5,-63.5 613.5,-41 473.25,-41"/>
<text text-anchor="start" x="476.25" y="-47.2" font-family="Times New Roman,Times,Liberation Serif,serif" font-size="14.00">list[float] | BaseQuantity</text>
<polygon fill="none" stroke="black" points="423.75,-18.5 423.75,-41 473.25,-41 473.25,-18.5 423.75,-18.5"/>
<text text-anchor="start" x="426.75" y="-24.7" font-family="Times New Roman,Times,Liberation Serif,serif" font-size="14.00">curve_y</text>
<polygon fill="none" stroke="black" points="473.25,-18.5 473.25,-41 613.5,-41 613.5,-18.5 473.25,-18.5"/>
<text text-anchor="start" x="476.25" y="-24.7" font-family="Times New Roman,Times,Liberation Serif,serif" font-size="14.00">list[float] | BaseQuantity</text>
</a>
</g>
</g>
<!-- gdm.distribution.equipment.inverter_equipment.InverterEquipment -->
<g id="node2" class="node">
<title>gdm.distribution.equipment.inverter_equipment.InverterEquipment</title>
<g id="a_node2"><a xlink:title="gdm.distribution.equipment.inverter_equipment.InverterEquipment&#10;&#10;Data model for inverter equipment.&#10;">
<polygon fill="none" stroke="black" points="0,-310.75 0,-333.25 315.75,-333.25 315.75,-310.75 0,-310.75"/>
<text text-anchor="start" x="101.25" y="-317.95" font-family="Times New Roman,Times,Liberation Serif,serif" font-weight="bold" font-size="14.00">InverterEquipment</text>
<polygon fill="none" stroke="black" points="0,-288.25 0,-310.75 126.75,-310.75 126.75,-288.25 0,-288.25"/>
<text text-anchor="start" x="51.38" y="-294.45" font-family="Times New Roman,Times,Liberation Serif,serif" font-size="14.00">uuid</text>
<polygon fill="none" stroke="black" points="126.75,-288.25 126.75,-310.75 315.75,-310.75 315.75,-288.25 126.75,-288.25"/>
<text text-anchor="start" x="204.38" y="-294.45" font-family="Times New Roman,Times,Liberation Serif,serif" font-size="14.00">UUID</text>
<polygon fill="none" stroke="black" points="0,-265.75 0,-288.25 126.75,-288.25 126.75,-265.75 0,-265.75"/>
<text text-anchor="start" x="48.38" y="-271.95" font-family="Times New Roman,Times,Liberation Serif,serif" font-size="14.00">name</text>
<polygon fill="none" stroke="black" points="126.75,-265.75 126.75,-288.25 315.75,-288.25 315.75,-265.75 126.75,-265.75"/>
<text text-anchor="start" x="214.5" y="-271.95" font-family="Times New Roman,Times,Liberation Serif,serif" font-size="14.00">str</text>
<polygon fill="none" stroke="black" points="0,-243.25 0,-265.75 126.75,-265.75 126.75,-243.25 0,-243.25"/>
<text text-anchor="start" x="3" y="-249.45" font-family="Times New Roman,Times,Liberation Serif,serif" font-size="14.00">rated_apparent_power</text>
<polygon fill="none" stroke="black" points="126.75,-243.25 126.75,-265.75 315.75,-265.75 315.75,-243.25 126.75,-243.25"/>
<text text-anchor="start" x="157.12" y="-249.45" font-family="Times New Roman,Times,Liberation Serif,serif" font-size="14.00">PositiveApparentPower</text>
<polygon fill="none" stroke="black" points="0,-220.75 0,-243.25 126.75,-243.25 126.75,-220.75 0,-220.75"/>
<text text-anchor="start" x="37.12" y="-226.95" font-family="Times New Roman,Times,Liberation Serif,serif" font-size="14.00">rise_limit</text>
<polygon fill="none" stroke="black" points="126.75,-220.75 126.75,-243.25 315.75,-243.25 315.75,-220.75 126.75,-220.75"/>
<text text-anchor="start" x="129.75" y="-226.95" font-family="Times New Roman,Times,Liberation Serif,serif" font-size="14.00">Optional[ActivePowerOverTime]</text>
<polygon fill="none" stroke="black" points="0,-198.25 0,-220.75 126.75,-220.75 126.75,-198.25 0,-198.25"/>
<text text-anchor="start" x="37.88" y="-204.45" font-family="Times New Roman,Times,Liberation Serif,serif" font-size="14.00">fall_limit</text>
<polygon fill="none" stroke="black" points="126.75,-198.25 126.75,-220.75 315.75,-220.75 315.75,-198.25 126.75,-198.25"/>
<text text-anchor="start" x="129.75" y="-204.45" font-family="Times New Roman,Times,Liberation Serif,serif" font-size="14.00">Optional[ActivePowerOverTime]</text>
<polygon fill="none" stroke="black" points="0,-175.75 0,-198.25 126.75,-198.25 126.75,-175.75 0,-175.75"/>
<text text-anchor="start" x="23.25" y="-181.95" font-family="Times New Roman,Times,Liberation Serif,serif" font-size="14.00">cutout_percent</text>
<polygon fill="none" stroke="black" points="126.75,-175.75 126.75,-198.25 315.75,-198.25 315.75,-175.75 126.75,-175.75"/>
<text text-anchor="start" x="208.88" y="-181.95" font-family="Times New Roman,Times,Liberation Serif,serif" font-size="14.00">float</text>
<polygon fill="none" stroke="black" points="0,-153.25 0,-175.75 126.75,-175.75 126.75,-153.25 0,-153.25"/>
<text text-anchor="start" x="26.62" y="-159.45" font-family="Times New Roman,Times,Liberation Serif,serif" font-size="14.00">cutin_percent</text>
<polygon fill="none" stroke="black" points="126.75,-153.25 126.75,-175.75 315.75,-175.75 315.75,-153.25 126.75,-153.25"/>
<text text-anchor="start" x="208.88" y="-159.45" font-family="Times New Roman,Times,Liberation Serif,serif" font-size="14.00">float</text>
<polygon fill="none" stroke="black" points="0,-130.75 0,-153.25 126.75,-153.25 126.75,-130.75 0,-130.75"/>
<text text-anchor="start" x="8.62" y="-136.95" font-family="Times New Roman,Times,Liberation Serif,serif" font-size="14.00">dc_to_ac_efficiency</text>
<polygon fill="none" stroke="black" points="126.75,-130.75 126.75,-153.25 315.75,-153.25 315.75,-130.75 126.75,-130.75"/>
<text text-anchor="start" x="208.88" y="-136.95" font-family="Times New Roman,Times,Liberation Serif,serif" font-size="14.00">float</text>
<polygon fill="none" stroke="black" points="0,-108.25 0,-130.75 126.75,-130.75 126.75,-108.25 0,-108.25"/>
<text text-anchor="start" x="37.5" y="-114.45" font-family="Times New Roman,Times,Liberation Serif,serif" font-size="14.00">eff_curve</text>
<polygon fill="none" stroke="black" points="126.75,-108.25 126.75,-130.75 315.75,-130.75 315.75,-108.25 126.75,-108.25"/>
<text text-anchor="start" x="176.62" y="-114.45" font-family="Times New Roman,Times,Liberation Serif,serif" font-size="14.00">Optional[Curve]</text>
</a>
</g>
</g>
<!-- gdm.distribution.equipment.inverter_equipment.InverterEquipment&#45;&gt;gdm.distribution.common.curve.Curve -->
<g id="edge1" class="edge">
<title>gdm.distribution.equipment.inverter_equipment.InverterEquipment:e&#45;&gt;gdm.distribution.common.curve.Curve:w</title>
<path fill="none" stroke="black" d="M325.62,-119.5C359.41,-119.53 374.34,-119.69 404.93,-119.74"/>
<polyline fill="none" stroke="black" points="315.75,-119.5 320.75,-119.5"/>
<polyline fill="none" stroke="black" points="320.75,-119.5 325.75,-119.5"/>
<polyline fill="none" stroke="black" points="423.75,-119.75 418.75,-119.75"/>
<polygon fill="black" stroke="black" points="417.75,-114.75 417.75,-124.75 415.75,-124.74 415.75,-114.74 417.75,-114.75"/>
<polyline fill="none" stroke="black" points="418.75,-119.75 413.75,-119.74"/>
<ellipse fill="none" stroke="black" cx="409.25" cy="-119.74" rx="4" ry="4"/>
</g>
</g>
</svg>
