<?xml version="1.0" encoding="UTF-8" standalone="no"?>
<!DOCTYPE svg PUBLIC "-//W3C//DTD SVG 1.1//EN"
 "http://www.w3.org/Graphics/SVG/1.1/DTD/svg11.dtd">
<!-- Generated by graphviz version 12.2.1 (20241206.2353)
 -->
<!-- Title: Entity Relationship Diagram created by erdantic Pages: 1 -->
<svg width="275pt" height="184pt"
 viewBox="0.00 0.00 274.50 184.00" xmlns="http://www.w3.org/2000/svg" xmlns:xlink="http://www.w3.org/1999/xlink">
<g id="graph0" class="graph" transform="scale(1 1) rotate(0) translate(4 180)">
<title>Entity Relationship Diagram created by erdantic</title>
<polygon fill="white" stroke="none" points="-4,4 -4,-180 270.5,-180 270.5,4 -4,4"/>
<text text-anchor="middle" x="133.25" y="-5.95" font-family="Times New Roman,Times,Liberation Serif,serif" font-size="9.00" fill="#a8a8a8">Created by erdantic v1.0.5 &lt;https://github.com/drivendataorg/erdantic&gt;</text>
<!-- gdm.distribution.equipment.matrix_impedance_branch_equipment.MatrixImpedanceBranchEquipment -->
<g id="node1" class="node">
<title>gdm.distribution.equipment.matrix_impedance_branch_equipment.MatrixImpedanceBranchEquipment</title>
<g id="a_node1"><a xlink:title="gdm.distribution.equipment.matrix_impedance_branch_equipment.MatrixImpedanceBranchEquipment&#10;&#10;Data model for impedance based branch.&#10;">
<polygon fill="none" stroke="black" points="23.38,-153.5 23.38,-176 243.12,-176 243.12,-153.5 23.38,-153.5"/>
<text text-anchor="start" x="26.38" y="-160.7" font-family="Times New Roman,Times,Liberation Serif,serif" font-weight="bold" font-size="14.00">MatrixImpedanceBranchEquipment</text>
<polygon fill="none" stroke="black" points="23.38,-131 23.38,-153.5 97.62,-153.5 97.62,-131 23.38,-131"/>
<text text-anchor="start" x="48.5" y="-137.2" font-family="Times New Roman,Times,Liberation Serif,serif" font-size="14.00">uuid</text>
<polygon fill="none" stroke="black" points="97.62,-131 97.62,-153.5 243.12,-153.5 243.12,-131 97.62,-131"/>
<text text-anchor="start" x="153.5" y="-137.2" font-family="Times New Roman,Times,Liberation Serif,serif" font-size="14.00">UUID</text>
<polygon fill="none" stroke="black" points="23.38,-108.5 23.38,-131 97.62,-131 97.62,-108.5 23.38,-108.5"/>
<text text-anchor="start" x="45.5" y="-114.7" font-family="Times New Roman,Times,Liberation Serif,serif" font-size="14.00">name</text>
<polygon fill="none" stroke="black" points="97.62,-108.5 97.62,-131 243.12,-131 243.12,-108.5 97.62,-108.5"/>
<text text-anchor="start" x="163.62" y="-114.7" font-family="Times New Roman,Times,Liberation Serif,serif" font-size="14.00">str</text>
<polygon fill="none" stroke="black" points="23.38,-86 23.38,-108.5 97.62,-108.5 97.62,-86 23.38,-86"/>
<text text-anchor="start" x="36.88" y="-92.2" font-family="Times New Roman,Times,Liberation Serif,serif" font-size="14.00">r_matrix</text>
<polygon fill="none" stroke="black" points="97.62,-86 97.62,-108.5 243.12,-108.5 243.12,-86 97.62,-86"/>
<text text-anchor="start" x="113.75" y="-92.2" font-family="Times New Roman,Times,Liberation Serif,serif" font-size="14.00">ResistancePULength</text>
<polygon fill="none" stroke="black" points="23.38,-63.5 23.38,-86 97.62,-86 97.62,-63.5 23.38,-63.5"/>
<text text-anchor="start" x="35.75" y="-69.7" font-family="Times New Roman,Times,Liberation Serif,serif" font-size="14.00">x_matrix</text>
<polygon fill="none" stroke="black" points="97.62,-63.5 97.62,-86 243.12,-86 243.12,-63.5 97.62,-63.5"/>
<text text-anchor="start" x="114.88" y="-69.7" font-family="Times New Roman,Times,Liberation Serif,serif" font-size="14.00">ReactancePULength</text>
<polygon fill="none" stroke="black" points="23.38,-41 23.38,-63.5 97.62,-63.5 97.62,-41 23.38,-41"/>
<text text-anchor="start" x="36.12" y="-47.2" font-family="Times New Roman,Times,Liberation Serif,serif" font-size="14.00">c_matrix</text>
<polygon fill="none" stroke="black" points="97.62,-41 97.62,-63.5 243.12,-63.5 243.12,-41 97.62,-41"/>
<text text-anchor="start" x="109.62" y="-47.2" font-family="Times New Roman,Times,Liberation Serif,serif" font-size="14.00">CapacitancePULength</text>
<polygon fill="none" stroke="black" points="23.38,-18.5 23.38,-41 97.62,-41 97.62,-18.5 23.38,-18.5"/>
<text text-anchor="start" x="35.38" y="-24.7" font-family="Times New Roman,Times,Liberation Serif,serif" font-size="14.00">ampacity</text>
<polygon fill="none" stroke="black" points="97.62,-18.5 97.62,-41 243.12,-41 243.12,-18.5 97.62,-18.5"/>
<text text-anchor="start" x="128" y="-24.7" font-family="Times New Roman,Times,Liberation Serif,serif" font-size="14.00">PositiveCurrent</text>
</a>
</g>
</g>
</g>
</svg>
