<?xml version="1.0" encoding="UTF-8" standalone="no"?>
<!DOCTYPE svg PUBLIC "-//W3C//DTD SVG 1.1//EN"
 "http://www.w3.org/Graphics/SVG/1.1/DTD/svg11.dtd">
<!-- Generated by graphviz version 12.2.1 (20241206.2353)
 -->
<!-- Title: Entity Relationship Diagram created by erdantic Pages: 1 -->
<svg width="440pt" height="319pt"
 viewBox="0.00 0.00 440.00 319.00" xmlns="http://www.w3.org/2000/svg" xmlns:xlink="http://www.w3.org/1999/xlink">
<g id="graph0" class="graph" transform="scale(1 1) rotate(0) translate(4 315)">
<title>Entity Relationship Diagram created by erdantic</title>
<polygon fill="white" stroke="none" points="-4,4 -4,-315 436,-315 436,4 -4,4"/>
<text text-anchor="middle" x="216" y="-5.95" font-family="Times New Roman,Times,Liberation Serif,serif" font-size="9.00" fill="#a8a8a8">Created by erdantic v1.0.5 &lt;https://github.com/drivendataorg/erdantic&gt;</text>
<!-- gdm.distribution.common.curve.TimeCurrentCurve -->
<g id="node1" class="node">
<title>gdm.distribution.common.curve.TimeCurrentCurve</title>
<g id="a_node1"><a xlink:title="gdm.distribution.common.curve.TimeCurrentCurve&#10;&#10;An interface for time current curve.&#10;">
<polygon fill="none" stroke="black" points="312,-108.5 312,-131 432,-131 432,-108.5 312,-108.5"/>
<text text-anchor="start" x="315" y="-115.7" font-family="Times New Roman,Times,Liberation Serif,serif" font-weight="bold" font-size="14.00">TimeCurrentCurve</text>
<polygon fill="none" stroke="black" points="312,-86 312,-108.5 373.12,-108.5 373.12,-86 312,-86"/>
<text text-anchor="start" x="330.56" y="-92.2" font-family="Times New Roman,Times,Liberation Serif,serif" font-size="14.00">uuid</text>
<polygon fill="none" stroke="black" points="373.12,-86 373.12,-108.5 432,-108.5 432,-86 373.12,-86"/>
<text text-anchor="start" x="385.69" y="-92.2" font-family="Times New Roman,Times,Liberation Serif,serif" font-size="14.00">UUID</text>
<polygon fill="none" stroke="black" points="312,-63.5 312,-86 373.12,-86 373.12,-63.5 312,-63.5"/>
<text text-anchor="start" x="327.56" y="-69.7" font-family="Times New Roman,Times,Liberation Serif,serif" font-size="14.00">name</text>
<polygon fill="none" stroke="black" points="373.12,-63.5 373.12,-86 432,-86 432,-63.5 373.12,-63.5"/>
<text text-anchor="start" x="395.81" y="-69.7" font-family="Times New Roman,Times,Liberation Serif,serif" font-size="14.00">str</text>
<polygon fill="none" stroke="black" points="312,-41 312,-63.5 373.12,-63.5 373.12,-41 312,-41"/>
<text text-anchor="start" x="320.81" y="-47.2" font-family="Times New Roman,Times,Liberation Serif,serif" font-size="14.00">curve_x</text>
<polygon fill="none" stroke="black" points="373.12,-41 373.12,-63.5 432,-63.5 432,-41 373.12,-41"/>
<text text-anchor="start" x="381.94" y="-47.2" font-family="Times New Roman,Times,Liberation Serif,serif" font-size="14.00">Current</text>
<polygon fill="none" stroke="black" points="312,-18.5 312,-41 373.12,-41 373.12,-18.5 312,-18.5"/>
<text text-anchor="start" x="320.81" y="-24.7" font-family="Times New Roman,Times,Liberation Serif,serif" font-size="14.00">curve_y</text>
<polygon fill="none" stroke="black" points="373.12,-18.5 373.12,-41 432,-41 432,-18.5 373.12,-18.5"/>
<text text-anchor="start" x="387.94" y="-24.7" font-family="Times New Roman,Times,Liberation Serif,serif" font-size="14.00">Time</text>
</a>
</g>
</g>
<!-- gdm.distribution.equipment.matrix_impedance_fuse_equipment.MatrixImpedanceFuseEquipment -->
<g id="node2" class="node">
<title>gdm.distribution.equipment.matrix_impedance_fuse_equipment.MatrixImpedanceFuseEquipment</title>
<g id="a_node2"><a xlink:title="gdm.distribution.equipment.matrix_impedance_fuse_equipment.MatrixImpedanceFuseEquipment&#10;&#10;Data model for impedance based fuse equipment.&#10;">
<polygon fill="none" stroke="black" points="0,-288.5 0,-311 204,-311 204,-288.5 0,-288.5"/>
<text text-anchor="start" x="3" y="-295.7" font-family="Times New Roman,Times,Liberation Serif,serif" font-weight="bold" font-size="14.00">MatrixImpedanceFuseEquipment</text>
<polygon fill="none" stroke="black" points="0,-266 0,-288.5 67.5,-288.5 67.5,-266 0,-266"/>
<text text-anchor="start" x="21.75" y="-272.2" font-family="Times New Roman,Times,Liberation Serif,serif" font-size="14.00">uuid</text>
<polygon fill="none" stroke="black" points="67.5,-266 67.5,-288.5 204,-288.5 204,-266 67.5,-266"/>
<text text-anchor="start" x="118.88" y="-272.2" font-family="Times New Roman,Times,Liberation Serif,serif" font-size="14.00">UUID</text>
<polygon fill="none" stroke="black" points="0,-243.5 0,-266 67.5,-266 67.5,-243.5 0,-243.5"/>
<text text-anchor="start" x="18.75" y="-249.7" font-family="Times New Roman,Times,Liberation Serif,serif" font-size="14.00">name</text>
<polygon fill="none" stroke="black" points="67.5,-243.5 67.5,-266 204,-266 204,-243.5 67.5,-243.5"/>
<text text-anchor="start" x="129" y="-249.7" font-family="Times New Roman,Times,Liberation Serif,serif" font-size="14.00">str</text>
<polygon fill="none" stroke="black" points="0,-221 0,-243.5 67.5,-243.5 67.5,-221 0,-221"/>
<text text-anchor="start" x="10.12" y="-227.2" font-family="Times New Roman,Times,Liberation Serif,serif" font-size="14.00">r_matrix</text>
<polygon fill="none" stroke="black" points="67.5,-221 67.5,-243.5 204,-243.5 204,-221 67.5,-221"/>
<text text-anchor="start" x="79.12" y="-227.2" font-family="Times New Roman,Times,Liberation Serif,serif" font-size="14.00">ResistancePULength</text>
<polygon fill="none" stroke="black" points="0,-198.5 0,-221 67.5,-221 67.5,-198.5 0,-198.5"/>
<text text-anchor="start" x="9" y="-204.7" font-family="Times New Roman,Times,Liberation Serif,serif" font-size="14.00">x_matrix</text>
<polygon fill="none" stroke="black" points="67.5,-198.5 67.5,-221 204,-221 204,-198.5 67.5,-198.5"/>
<text text-anchor="start" x="80.25" y="-204.7" font-family="Times New Roman,Times,Liberation Serif,serif" font-size="14.00">ReactancePULength</text>
<polygon fill="none" stroke="black" points="0,-176 0,-198.5 67.5,-198.5 67.5,-176 0,-176"/>
<text text-anchor="start" x="9.38" y="-182.2" font-family="Times New Roman,Times,Liberation Serif,serif" font-size="14.00">c_matrix</text>
<polygon fill="none" stroke="black" points="67.5,-176 67.5,-198.5 204,-198.5 204,-176 67.5,-176"/>
<text text-anchor="start" x="75" y="-182.2" font-family="Times New Roman,Times,Liberation Serif,serif" font-size="14.00">CapacitancePULength</text>
<polygon fill="none" stroke="black" points="0,-153.5 0,-176 67.5,-176 67.5,-153.5 0,-153.5"/>
<text text-anchor="start" x="8.62" y="-159.7" font-family="Times New Roman,Times,Liberation Serif,serif" font-size="14.00">ampacity</text>
<polygon fill="none" stroke="black" points="67.5,-153.5 67.5,-176 204,-176 204,-153.5 67.5,-153.5"/>
<text text-anchor="start" x="93.38" y="-159.7" font-family="Times New Roman,Times,Liberation Serif,serif" font-size="14.00">PositiveCurrent</text>
<polygon fill="none" stroke="black" points="0,-131 0,-153.5 67.5,-153.5 67.5,-131 0,-131"/>
<text text-anchor="start" x="19.12" y="-137.2" font-family="Times New Roman,Times,Liberation Serif,serif" font-size="14.00">delay</text>
<polygon fill="none" stroke="black" points="67.5,-131 67.5,-153.5 204,-153.5 204,-131 67.5,-131"/>
<text text-anchor="start" x="121.12" y="-137.2" font-family="Times New Roman,Times,Liberation Serif,serif" font-size="14.00">Time</text>
<polygon fill="none" stroke="black" points="0,-108.5 0,-131 67.5,-131 67.5,-108.5 0,-108.5"/>
<text text-anchor="start" x="7.5" y="-114.7" font-family="Times New Roman,Times,Liberation Serif,serif" font-size="14.00">tcc_curve</text>
<polygon fill="none" stroke="black" points="67.5,-108.5 67.5,-131 204,-131 204,-108.5 67.5,-108.5"/>
<text text-anchor="start" x="84" y="-114.7" font-family="Times New Roman,Times,Liberation Serif,serif" font-size="14.00">TimeCurrentCurve</text>
</a>
</g>
</g>
<!-- gdm.distribution.equipment.matrix_impedance_fuse_equipment.MatrixImpedanceFuseEquipment&#45;&gt;gdm.distribution.common.curve.TimeCurrentCurve -->
<g id="edge1" class="edge">
<title>gdm.distribution.equipment.matrix_impedance_fuse_equipment.MatrixImpedanceFuseEquipment:e&#45;&gt;gdm.distribution.common.curve.TimeCurrentCurve:w</title>
<path fill="none" stroke="black" d="M213.87,-119.75C249.07,-119.75 263.8,-119.75 297.08,-119.75"/>
<polyline fill="none" stroke="black" points="204,-119.75 209,-119.75"/>
<polyline fill="none" stroke="black" points="209,-119.75 214,-119.75"/>
<polyline fill="none" stroke="black" points="312,-119.75 307,-119.75"/>
<polygon fill="black" stroke="black" points="306,-114.75 306,-124.75 304,-124.75 304,-114.75 306,-114.75"/>
<polyline fill="none" stroke="black" points="307,-119.75 302,-119.75"/>
<polygon fill="black" stroke="black" points="301,-114.75 301,-124.75 299,-124.75 299,-114.75 301,-114.75"/>
<polyline fill="none" stroke="black" points="302,-119.75 297,-119.75"/>
</g>
</g>
</svg>
