<?xml version="1.0" encoding="UTF-8" standalone="no"?>
<!DOCTYPE svg PUBLIC "-//W3C//DTD SVG 1.1//EN"
 "http://www.w3.org/Graphics/SVG/1.1/DTD/svg11.dtd">
<!-- Generated by graphviz version 12.2.1 (20241206.2353)
 -->
<!-- Title: Entity Relationship Diagram created by erdantic Pages: 1 -->
<svg width="1157pt" height="647pt"
 viewBox="0.00 0.00 1157.00 647.00" xmlns="http://www.w3.org/2000/svg" xmlns:xlink="http://www.w3.org/1999/xlink">
<g id="graph0" class="graph" transform="scale(1 1) rotate(0) translate(4 643)">
<title>Entity Relationship Diagram created by erdantic</title>
<polygon fill="white" stroke="none" points="-4,4 -4,-643 1153,-643 1153,4 -4,4"/>
<text text-anchor="middle" x="574.5" y="-5.95" font-family="Times New Roman,Times,Liberation Serif,serif" font-size="9.00" fill="#a8a8a8">Created by erdantic v1.0.5 &lt;https://github.com/drivendataorg/erdantic&gt;</text>
<!-- gdm.distribution.common.limitset.VoltageLimitSet -->
<g id="node1" class="node">
<title>gdm.distribution.common.limitset.VoltageLimitSet</title>
<g id="a_node1"><a xlink:title="gdm.distribution.common.limitset.VoltageLimitSet&#10;&#10;Data model for voltage limit set.&#10;">
<polygon fill="none" stroke="black" points="759,-279.75 759,-302.25 912,-302.25 912,-279.75 759,-279.75"/>
<text text-anchor="start" x="788.25" y="-286.95" font-family="Times New Roman,Times,Liberation Serif,serif" font-weight="bold" font-size="14.00">VoltageLimitSet</text>
<polygon fill="none" stroke="black" points="759,-257.25 759,-279.75 821.25,-279.75 821.25,-257.25 759,-257.25"/>
<text text-anchor="start" x="778.12" y="-263.45" font-family="Times New Roman,Times,Liberation Serif,serif" font-size="14.00">uuid</text>
<polygon fill="none" stroke="black" points="821.25,-257.25 821.25,-279.75 912,-279.75 912,-257.25 821.25,-257.25"/>
<text text-anchor="start" x="849.75" y="-263.45" font-family="Times New Roman,Times,Liberation Serif,serif" font-size="14.00">UUID</text>
<polygon fill="none" stroke="black" points="759,-234.75 759,-257.25 821.25,-257.25 821.25,-234.75 759,-234.75"/>
<text text-anchor="start" x="775.12" y="-240.95" font-family="Times New Roman,Times,Liberation Serif,serif" font-size="14.00">name</text>
<polygon fill="none" stroke="black" points="821.25,-234.75 821.25,-257.25 912,-257.25 912,-234.75 821.25,-234.75"/>
<text text-anchor="start" x="859.88" y="-240.95" font-family="Times New Roman,Times,Liberation Serif,serif" font-size="14.00">str</text>
<polygon fill="none" stroke="black" points="759,-212.25 759,-234.75 821.25,-234.75 821.25,-212.25 759,-212.25"/>
<text text-anchor="start" x="762" y="-218.45" font-family="Times New Roman,Times,Liberation Serif,serif" font-size="14.00">limit_type</text>
<polygon fill="none" stroke="black" points="821.25,-212.25 821.25,-234.75 912,-234.75 912,-212.25 821.25,-212.25"/>
<text text-anchor="start" x="837.38" y="-218.45" font-family="Times New Roman,Times,Liberation Serif,serif" font-size="14.00">LimitType</text>
<polygon fill="none" stroke="black" points="759,-189.75 759,-212.25 821.25,-212.25 821.25,-189.75 759,-189.75"/>
<text text-anchor="start" x="775.5" y="-195.95" font-family="Times New Roman,Times,Liberation Serif,serif" font-size="14.00">value</text>
<polygon fill="none" stroke="black" points="821.25,-189.75 821.25,-212.25 912,-212.25 912,-189.75 821.25,-189.75"/>
<text text-anchor="start" x="824.25" y="-195.95" font-family="Times New Roman,Times,Liberation Serif,serif" font-size="14.00">PositiveVoltage</text>
</a>
</g>
</g>
<!-- gdm.distribution.components.distribution_bus.DistributionBus -->
<g id="node2" class="node">
<title>gdm.distribution.components.distribution_bus.DistributionBus</title>
<g id="a_node2"><a xlink:title="gdm.distribution.components.distribution_bus.DistributionBus&#10;&#10;Data model for distribution bus.&#10;&#10;Examples:&#10; &#160;&#160;&#160;&gt;&gt;&gt; from gdm import DistributionBus&#10; &#160;&#160;&#160;&gt;&gt;&gt; DistributionBus.example()&#10;">
<polygon fill="none" stroke="black" points="374.25,-416 374.25,-438.5 638.25,-438.5 638.25,-416 374.25,-416"/>
<text text-anchor="start" x="460.12" y="-423.2" font-family="Times New Roman,Times,Liberation Serif,serif" font-weight="bold" font-size="14.00">DistributionBus</text>
<polygon fill="none" stroke="black" points="374.25,-393.5 374.25,-416 453.75,-416 453.75,-393.5 374.25,-393.5"/>
<text text-anchor="start" x="402" y="-399.7" font-family="Times New Roman,Times,Liberation Serif,serif" font-size="14.00">uuid</text>
<polygon fill="none" stroke="black" points="453.75,-393.5 453.75,-416 638.25,-416 638.25,-393.5 453.75,-393.5"/>
<text text-anchor="start" x="529.12" y="-399.7" font-family="Times New Roman,Times,Liberation Serif,serif" font-size="14.00">UUID</text>
<polygon fill="none" stroke="black" points="374.25,-371 374.25,-393.5 453.75,-393.5 453.75,-371 374.25,-371"/>
<text text-anchor="start" x="399" y="-377.2" font-family="Times New Roman,Times,Liberation Serif,serif" font-size="14.00">name</text>
<polygon fill="none" stroke="black" points="453.75,-371 453.75,-393.5 638.25,-393.5 638.25,-371 453.75,-371"/>
<text text-anchor="start" x="539.25" y="-377.2" font-family="Times New Roman,Times,Liberation Serif,serif" font-size="14.00">str</text>
<polygon fill="none" stroke="black" points="374.25,-348.5 374.25,-371 453.75,-371 453.75,-348.5 374.25,-348.5"/>
<text text-anchor="start" x="386.62" y="-354.7" font-family="Times New Roman,Times,Liberation Serif,serif" font-size="14.00">substation</text>
<polygon fill="none" stroke="black" points="453.75,-348.5 453.75,-371 638.25,-371 638.25,-348.5 453.75,-348.5"/>
<text text-anchor="start" x="456.75" y="-354.7" font-family="Times New Roman,Times,Liberation Serif,serif" font-size="14.00">Optional[DistributionSubstation]</text>
<polygon fill="none" stroke="black" points="374.25,-326 374.25,-348.5 453.75,-348.5 453.75,-326 374.25,-326"/>
<text text-anchor="start" x="397.12" y="-332.2" font-family="Times New Roman,Times,Liberation Serif,serif" font-size="14.00">feeder</text>
<polygon fill="none" stroke="black" points="453.75,-326 453.75,-348.5 638.25,-348.5 638.25,-326 453.75,-326"/>
<text text-anchor="start" x="466.88" y="-332.2" font-family="Times New Roman,Times,Liberation Serif,serif" font-size="14.00">Optional[DistributionFeeder]</text>
<polygon fill="none" stroke="black" points="374.25,-303.5 374.25,-326 453.75,-326 453.75,-303.5 374.25,-303.5"/>
<text text-anchor="start" x="379.12" y="-309.7" font-family="Times New Roman,Times,Liberation Serif,serif" font-size="14.00">voltage_type</text>
<polygon fill="none" stroke="black" points="453.75,-303.5 453.75,-326 638.25,-326 638.25,-303.5 453.75,-303.5"/>
<text text-anchor="start" x="508.88" y="-309.7" font-family="Times New Roman,Times,Liberation Serif,serif" font-size="14.00">VoltageTypes</text>
<polygon fill="none" stroke="black" points="374.25,-281 374.25,-303.5 453.75,-303.5 453.75,-281 374.25,-281"/>
<text text-anchor="start" x="396" y="-287.2" font-family="Times New Roman,Times,Liberation Serif,serif" font-size="14.00">phases</text>
<polygon fill="none" stroke="black" points="453.75,-281 453.75,-303.5 638.25,-303.5 638.25,-281 453.75,-281"/>
<text text-anchor="start" x="517.5" y="-287.2" font-family="Times New Roman,Times,Liberation Serif,serif" font-size="14.00">list[Phase]</text>
<polygon fill="none" stroke="black" points="374.25,-258.5 374.25,-281 453.75,-281 453.75,-258.5 374.25,-258.5"/>
<text text-anchor="start" x="378.38" y="-264.7" font-family="Times New Roman,Times,Liberation Serif,serif" font-size="14.00">voltagelimits</text>
<polygon fill="none" stroke="black" points="453.75,-258.5 453.75,-281 638.25,-281 638.25,-258.5 453.75,-258.5"/>
<text text-anchor="start" x="488.62" y="-264.7" font-family="Times New Roman,Times,Liberation Serif,serif" font-size="14.00">list[VoltageLimitSet]</text>
<polygon fill="none" stroke="black" points="374.25,-236 374.25,-258.5 453.75,-258.5 453.75,-236 374.25,-236"/>
<text text-anchor="start" x="377.25" y="-242.2" font-family="Times New Roman,Times,Liberation Serif,serif" font-size="14.00">rated_voltage</text>
<polygon fill="none" stroke="black" points="453.75,-236 453.75,-258.5 638.25,-258.5 638.25,-236 453.75,-236"/>
<text text-anchor="start" x="503.62" y="-242.2" font-family="Times New Roman,Times,Liberation Serif,serif" font-size="14.00">PositiveVoltage</text>
<polygon fill="none" stroke="black" points="374.25,-213.5 374.25,-236 453.75,-236 453.75,-213.5 374.25,-213.5"/>
<text text-anchor="start" x="385.5" y="-219.7" font-family="Times New Roman,Times,Liberation Serif,serif" font-size="14.00">coordinate</text>
<polygon fill="none" stroke="black" points="453.75,-213.5 453.75,-236 638.25,-236 638.25,-213.5 453.75,-213.5"/>
<text text-anchor="start" x="493.88" y="-219.7" font-family="Times New Roman,Times,Liberation Serif,serif" font-size="14.00">Optional[Location]</text>
</a>
</g>
</g>
<!-- gdm.distribution.components.distribution_bus.DistributionBus&#45;&gt;gdm.distribution.common.limitset.VoltageLimitSet -->
<g id="edge1" class="edge">
<title>gdm.distribution.components.distribution_bus.DistributionBus:e&#45;&gt;gdm.distribution.common.limitset.VoltageLimitSet:w</title>
<path fill="none" stroke="black" d="M648.2,-270C688.97,-272.14 704.1,-287.13 742.65,-290.38"/>
<polyline fill="none" stroke="black" points="638.25,-269.75 643.25,-269.88"/>
<polyline fill="none" stroke="black" points="643.25,-269.88 648.25,-270"/>
<polygon fill="black" stroke="black" points="747.67,-290.58 757.48,-295.48 753,-290.8 757.33,-290.97 757.33,-290.97 757.33,-290.97 753,-290.8 757.85,-286.49 747.67,-290.58"/>
<polyline fill="none" stroke="black" points="746.46,-290.53 741.46,-290.33"/>
</g>
<!-- gdm.distribution.components.distribution_feeder.DistributionFeeder -->
<g id="node3" class="node">
<title>gdm.distribution.components.distribution_feeder.DistributionFeeder</title>
<g id="a_node3"><a xlink:title="gdm.distribution.components.distribution_feeder.DistributionFeeder&#10;&#10;Class interface for distribution feeder.&#10;">
<polygon fill="none" stroke="black" points="1032.75,-483.25 1032.75,-505.75 1149,-505.75 1149,-483.25 1032.75,-483.25"/>
<text text-anchor="start" x="1035.75" y="-490.45" font-family="Times New Roman,Times,Liberation Serif,serif" font-weight="bold" font-size="14.00">DistributionFeeder</text>
<polygon fill="none" stroke="black" points="1032.75,-460.75 1032.75,-483.25 1089,-483.25 1089,-460.75 1032.75,-460.75"/>
<text text-anchor="start" x="1048.88" y="-466.95" font-family="Times New Roman,Times,Liberation Serif,serif" font-size="14.00">uuid</text>
<polygon fill="none" stroke="black" points="1089,-460.75 1089,-483.25 1149,-483.25 1149,-460.75 1089,-460.75"/>
<text text-anchor="start" x="1102.12" y="-466.95" font-family="Times New Roman,Times,Liberation Serif,serif" font-size="14.00">UUID</text>
<polygon fill="none" stroke="black" points="1032.75,-438.25 1032.75,-460.75 1089,-460.75 1089,-438.25 1032.75,-438.25"/>
<text text-anchor="start" x="1045.88" y="-444.45" font-family="Times New Roman,Times,Liberation Serif,serif" font-size="14.00">name</text>
<polygon fill="none" stroke="black" points="1089,-438.25 1089,-460.75 1149,-460.75 1149,-438.25 1089,-438.25"/>
<text text-anchor="start" x="1112.25" y="-444.45" font-family="Times New Roman,Times,Liberation Serif,serif" font-size="14.00">str</text>
</a>
</g>
</g>
<!-- gdm.distribution.components.distribution_bus.DistributionBus&#45;&gt;gdm.distribution.components.distribution_feeder.DistributionFeeder -->
<g id="edge2" class="edge">
<title>gdm.distribution.components.distribution_bus.DistributionBus:e&#45;&gt;gdm.distribution.components.distribution_feeder.DistributionFeeder:w</title>
<path fill="none" stroke="black" d="M648.01,-337.76C739.84,-346.89 916.73,-476.12 1013.86,-492.74"/>
<polyline fill="none" stroke="black" points="638.25,-337.25 643.24,-337.51"/>
<polyline fill="none" stroke="black" points="643.24,-337.51 648.24,-337.77"/>
<polyline fill="none" stroke="black" points="1032.75,-494.5 1027.77,-494.04"/>
<polygon fill="black" stroke="black" points="1027.24,-488.97 1026.31,-498.92 1024.32,-498.74 1025.25,-488.78 1027.24,-488.97"/>
<polyline fill="none" stroke="black" points="1027.77,-494.04 1022.79,-493.57"/>
<ellipse fill="none" stroke="black" cx="1018.31" cy="-493.16" rx="4" ry="4"/>
</g>
<!-- gdm.distribution.components.distribution_substation.DistributionSubstation -->
<g id="node4" class="node">
<title>gdm.distribution.components.distribution_substation.DistributionSubstation</title>
<g id="a_node4"><a xlink:title="gdm.distribution.components.distribution_substation.DistributionSubstation&#10;&#10;Class interface for distribution feeder.&#10;">
<polygon fill="none" stroke="black" points="746.25,-616.5 746.25,-639 924.75,-639 924.75,-616.5 746.25,-616.5"/>
<text text-anchor="start" x="769.5" y="-623.7" font-family="Times New Roman,Times,Liberation Serif,serif" font-weight="bold" font-size="14.00">DistributionSubstation</text>
<polygon fill="none" stroke="black" points="746.25,-594 746.25,-616.5 791.25,-616.5 791.25,-594 746.25,-594"/>
<text text-anchor="start" x="756.75" y="-600.2" font-family="Times New Roman,Times,Liberation Serif,serif" font-size="14.00">uuid</text>
<polygon fill="none" stroke="black" points="791.25,-594 791.25,-616.5 924.75,-616.5 924.75,-594 791.25,-594"/>
<text text-anchor="start" x="841.12" y="-600.2" font-family="Times New Roman,Times,Liberation Serif,serif" font-size="14.00">UUID</text>
<polygon fill="none" stroke="black" points="746.25,-571.5 746.25,-594 791.25,-594 791.25,-571.5 746.25,-571.5"/>
<text text-anchor="start" x="753.75" y="-577.7" font-family="Times New Roman,Times,Liberation Serif,serif" font-size="14.00">name</text>
<polygon fill="none" stroke="black" points="791.25,-571.5 791.25,-594 924.75,-594 924.75,-571.5 791.25,-571.5"/>
<text text-anchor="start" x="851.25" y="-577.7" font-family="Times New Roman,Times,Liberation Serif,serif" font-size="14.00">str</text>
<polygon fill="none" stroke="black" points="746.25,-549 746.25,-571.5 791.25,-571.5 791.25,-549 746.25,-549"/>
<text text-anchor="start" x="749.25" y="-555.2" font-family="Times New Roman,Times,Liberation Serif,serif" font-size="14.00">feeders</text>
<polygon fill="none" stroke="black" points="791.25,-549 791.25,-571.5 924.75,-571.5 924.75,-549 791.25,-549"/>
<text text-anchor="start" x="794.25" y="-555.2" font-family="Times New Roman,Times,Liberation Serif,serif" font-size="14.00">list[DistributionFeeder]</text>
</a>
</g>
</g>
<!-- gdm.distribution.components.distribution_bus.DistributionBus&#45;&gt;gdm.distribution.components.distribution_substation.DistributionSubstation -->
<g id="edge3" class="edge">
<title>gdm.distribution.components.distribution_bus.DistributionBus:e&#45;&gt;gdm.distribution.components.distribution_substation.DistributionSubstation:w</title>
<path fill="none" stroke="black" d="M648.17,-360.34C752.47,-373.42 636.11,-599.8 727.46,-625.4"/>
<polyline fill="none" stroke="black" points="638.25,-359.75 643.24,-360.05"/>
<polyline fill="none" stroke="black" points="643.24,-360.05 648.23,-360.34"/>
<polyline fill="none" stroke="black" points="746.25,-627.75 741.29,-627.13"/>
<polygon fill="black" stroke="black" points="740.92,-622.04 739.68,-631.97 737.69,-631.72 738.93,-621.8 740.92,-622.04"/>
<polyline fill="none" stroke="black" points="741.29,-627.13 736.33,-626.51"/>
<ellipse fill="none" stroke="black" cx="731.86" cy="-625.95" rx="4" ry="4"/>
</g>
<!-- infrasys.location.Location -->
<g id="node5" class="node">
<title>infrasys.location.Location</title>
<g id="a_node5"><a xlink:title="infrasys.location.Location&#10;&#10;Specifies geographic location.&#10;">
<polygon fill="none" stroke="black" points="787.88,-131 787.88,-153.5 883.12,-153.5 883.12,-131 787.88,-131"/>
<text text-anchor="start" x="810" y="-138.2" font-family="Times New Roman,Times,Liberation Serif,serif" font-weight="bold" font-size="14.00">Location</text>
<polygon fill="none" stroke="black" points="787.88,-108.5 787.88,-131 823.88,-131 823.88,-108.5 787.88,-108.5"/>
<text text-anchor="start" x="793.88" y="-114.7" font-family="Times New Roman,Times,Liberation Serif,serif" font-size="14.00">uuid</text>
<polygon fill="none" stroke="black" points="823.88,-108.5 823.88,-131 883.12,-131 883.12,-108.5 823.88,-108.5"/>
<text text-anchor="start" x="836.62" y="-114.7" font-family="Times New Roman,Times,Liberation Serif,serif" font-size="14.00">UUID</text>
<polygon fill="none" stroke="black" points="787.88,-86 787.88,-108.5 823.88,-108.5 823.88,-86 787.88,-86"/>
<text text-anchor="start" x="790.88" y="-92.2" font-family="Times New Roman,Times,Liberation Serif,serif" font-size="14.00">name</text>
<polygon fill="none" stroke="black" points="823.88,-86 823.88,-108.5 883.12,-108.5 883.12,-86 823.88,-86"/>
<text text-anchor="start" x="846.75" y="-92.2" font-family="Times New Roman,Times,Liberation Serif,serif" font-size="14.00">str</text>
<polygon fill="none" stroke="black" points="787.88,-63.5 787.88,-86 823.88,-86 823.88,-63.5 787.88,-63.5"/>
<text text-anchor="start" x="802.5" y="-69.7" font-family="Times New Roman,Times,Liberation Serif,serif" font-size="14.00">x</text>
<polygon fill="none" stroke="black" points="823.88,-63.5 823.88,-86 883.12,-86 883.12,-63.5 823.88,-63.5"/>
<text text-anchor="start" x="841.12" y="-69.7" font-family="Times New Roman,Times,Liberation Serif,serif" font-size="14.00">float</text>
<polygon fill="none" stroke="black" points="787.88,-41 787.88,-63.5 823.88,-63.5 823.88,-41 787.88,-41"/>
<text text-anchor="start" x="802.5" y="-47.2" font-family="Times New Roman,Times,Liberation Serif,serif" font-size="14.00">y</text>
<polygon fill="none" stroke="black" points="823.88,-41 823.88,-63.5 883.12,-63.5 883.12,-41 823.88,-41"/>
<text text-anchor="start" x="841.12" y="-47.2" font-family="Times New Roman,Times,Liberation Serif,serif" font-size="14.00">float</text>
<polygon fill="none" stroke="black" points="787.88,-18.5 787.88,-41 823.88,-41 823.88,-18.5 787.88,-18.5"/>
<text text-anchor="start" x="798" y="-24.7" font-family="Times New Roman,Times,Liberation Serif,serif" font-size="14.00">crs</text>
<polygon fill="none" stroke="black" points="823.88,-18.5 823.88,-41 883.12,-41 883.12,-18.5 823.88,-18.5"/>
<text text-anchor="start" x="826.88" y="-24.7" font-family="Times New Roman,Times,Liberation Serif,serif" font-size="14.00">str | None</text>
</a>
</g>
</g>
<!-- gdm.distribution.components.distribution_bus.DistributionBus&#45;&gt;infrasys.location.Location -->
<g id="edge4" class="edge">
<title>gdm.distribution.components.distribution_bus.DistributionBus:e&#45;&gt;infrasys.location.Location:w</title>
<path fill="none" stroke="black" d="M647.97,-224.27C707.44,-218.15 713.94,-156.03 767.99,-144.19"/>
<polyline fill="none" stroke="black" points="638.25,-224.75 643.24,-224.5"/>
<polyline fill="none" stroke="black" points="643.24,-224.5 648.24,-224.25"/>
<polyline fill="none" stroke="black" points="786.88,-142.25 781.9,-142.76"/>
<polygon fill="black" stroke="black" points="780.39,-137.89 781.42,-147.84 779.43,-148.04 778.41,-138.09 780.39,-137.89"/>
<polyline fill="none" stroke="black" points="781.9,-142.76 776.93,-143.27"/>
<ellipse fill="none" stroke="black" cx="772.45" cy="-143.73" rx="4" ry="4"/>
</g>
<!-- gdm.distribution.components.distribution_substation.DistributionSubstation&#45;&gt;gdm.distribution.components.distribution_feeder.DistributionFeeder -->
<g id="edge5" class="edge">
<title>gdm.distribution.components.distribution_substation.DistributionSubstation:e&#45;&gt;gdm.distribution.components.distribution_feeder.DistributionFeeder:w</title>
<path fill="none" stroke="black" d="M934.61,-559.51C975.69,-553.06 979.65,-506.33 1017.49,-496.37"/>
<polyline fill="none" stroke="black" points="924.75,-560.25 929.74,-559.88"/>
<polyline fill="none" stroke="black" points="929.74,-559.88 934.72,-559.5"/>
<polygon fill="black" stroke="black" points="1022.49,-495.75 1032.96,-499.01 1027.79,-495.11 1032.09,-494.58 1032.09,-494.58 1032.09,-494.58 1027.79,-495.11 1031.87,-490.07 1022.49,-495.75"/>
<polyline fill="none" stroke="black" points="1021.28,-495.9 1016.32,-496.51"/>
</g>
<!-- gdm.distribution.components.matrix_impedance_branch.MatrixImpedanceBranch -->
<g id="node6" class="node">
<title>gdm.distribution.components.matrix_impedance_branch.MatrixImpedanceBranch</title>
<g id="a_node6"><a xlink:title="gdm.distribution.components.matrix_impedance_branch.MatrixImpedanceBranch&#10;&#10;Data model for matrix impedance branch.&#10;">
<polygon fill="none" stroke="black" points="0,-562 0,-584.5 266.25,-584.5 266.25,-562 0,-562"/>
<text text-anchor="start" x="58.88" y="-569.2" font-family="Times New Roman,Times,Liberation Serif,serif" font-weight="bold" font-size="14.00">MatrixImpedanceBranch</text>
<polygon fill="none" stroke="black" points="0,-539.5 0,-562 63.75,-562 63.75,-539.5 0,-539.5"/>
<text text-anchor="start" x="19.88" y="-545.7" font-family="Times New Roman,Times,Liberation Serif,serif" font-size="14.00">uuid</text>
<polygon fill="none" stroke="black" points="63.75,-539.5 63.75,-562 266.25,-562 266.25,-539.5 63.75,-539.5"/>
<text text-anchor="start" x="148.12" y="-545.7" font-family="Times New Roman,Times,Liberation Serif,serif" font-size="14.00">UUID</text>
<polygon fill="none" stroke="black" points="0,-517 0,-539.5 63.75,-539.5 63.75,-517 0,-517"/>
<text text-anchor="start" x="16.88" y="-523.2" font-family="Times New Roman,Times,Liberation Serif,serif" font-size="14.00">name</text>
<polygon fill="none" stroke="black" points="63.75,-517 63.75,-539.5 266.25,-539.5 266.25,-517 63.75,-517"/>
<text text-anchor="start" x="158.25" y="-523.2" font-family="Times New Roman,Times,Liberation Serif,serif" font-size="14.00">str</text>
<polygon fill="none" stroke="black" points="0,-494.5 0,-517 63.75,-517 63.75,-494.5 0,-494.5"/>
<text text-anchor="start" x="4.5" y="-500.7" font-family="Times New Roman,Times,Liberation Serif,serif" font-size="14.00">substation</text>
<polygon fill="none" stroke="black" points="63.75,-494.5 63.75,-517 266.25,-517 266.25,-494.5 63.75,-494.5"/>
<text text-anchor="start" x="75.75" y="-500.7" font-family="Times New Roman,Times,Liberation Serif,serif" font-size="14.00">Optional[DistributionSubstation]</text>
<polygon fill="none" stroke="black" points="0,-472 0,-494.5 63.75,-494.5 63.75,-472 0,-472"/>
<text text-anchor="start" x="15" y="-478.2" font-family="Times New Roman,Times,Liberation Serif,serif" font-size="14.00">feeder</text>
<polygon fill="none" stroke="black" points="63.75,-472 63.75,-494.5 266.25,-494.5 266.25,-472 63.75,-472"/>
<text text-anchor="start" x="85.88" y="-478.2" font-family="Times New Roman,Times,Liberation Serif,serif" font-size="14.00">Optional[DistributionFeeder]</text>
<polygon fill="none" stroke="black" points="0,-449.5 0,-472 63.75,-472 63.75,-449.5 0,-449.5"/>
<text text-anchor="start" x="4.12" y="-455.7" font-family="Times New Roman,Times,Liberation Serif,serif" font-size="14.00">in_service</text>
<polygon fill="none" stroke="black" points="63.75,-449.5 63.75,-472 266.25,-472 266.25,-449.5 63.75,-449.5"/>
<text text-anchor="start" x="153" y="-455.7" font-family="Times New Roman,Times,Liberation Serif,serif" font-size="14.00">bool</text>
<polygon fill="none" stroke="black" points="0,-427 0,-449.5 63.75,-449.5 63.75,-427 0,-427"/>
<text text-anchor="start" x="16.88" y="-433.2" font-family="Times New Roman,Times,Liberation Serif,serif" font-size="14.00">buses</text>
<polygon fill="none" stroke="black" points="63.75,-427 63.75,-449.5 266.25,-449.5 266.25,-427 63.75,-427"/>
<text text-anchor="start" x="109.12" y="-433.2" font-family="Times New Roman,Times,Liberation Serif,serif" font-size="14.00">list[DistributionBus]</text>
<polygon fill="none" stroke="black" points="0,-404.5 0,-427 63.75,-427 63.75,-404.5 0,-404.5"/>
<text text-anchor="start" x="15" y="-410.7" font-family="Times New Roman,Times,Liberation Serif,serif" font-size="14.00">length</text>
<polygon fill="none" stroke="black" points="63.75,-404.5 63.75,-427 266.25,-427 266.25,-404.5 63.75,-404.5"/>
<text text-anchor="start" x="119.62" y="-410.7" font-family="Times New Roman,Times,Liberation Serif,serif" font-size="14.00">PositiveDistance</text>
<polygon fill="none" stroke="black" points="0,-382 0,-404.5 63.75,-404.5 63.75,-382 0,-382"/>
<text text-anchor="start" x="13.88" y="-388.2" font-family="Times New Roman,Times,Liberation Serif,serif" font-size="14.00">phases</text>
<polygon fill="none" stroke="black" points="63.75,-382 63.75,-404.5 266.25,-404.5 266.25,-382 63.75,-382"/>
<text text-anchor="start" x="136.5" y="-388.2" font-family="Times New Roman,Times,Liberation Serif,serif" font-size="14.00">list[Phase]</text>
<polygon fill="none" stroke="black" points="0,-359.5 0,-382 63.75,-382 63.75,-359.5 0,-359.5"/>
<text text-anchor="start" x="3" y="-365.7" font-family="Times New Roman,Times,Liberation Serif,serif" font-size="14.00">equipment</text>
<polygon fill="none" stroke="black" points="63.75,-359.5 63.75,-382 266.25,-382 266.25,-359.5 63.75,-359.5"/>
<text text-anchor="start" x="66.75" y="-365.7" font-family="Times New Roman,Times,Liberation Serif,serif" font-size="14.00">MatrixImpedanceBranchEquipment</text>
</a>
</g>
</g>
<!-- gdm.distribution.components.matrix_impedance_branch.MatrixImpedanceBranch&#45;&gt;gdm.distribution.components.distribution_bus.DistributionBus -->
<g id="edge6" class="edge">
<title>gdm.distribution.components.matrix_impedance_branch.MatrixImpedanceBranch:e&#45;&gt;gdm.distribution.components.distribution_bus.DistributionBus:w</title>
<path fill="none" stroke="black" d="M276.16,-438.09C311.33,-436.89 325.78,-429.49 358.83,-427.66"/>
<polyline fill="none" stroke="black" points="266.25,-438.25 271.25,-438.17"/>
<polyline fill="none" stroke="black" points="271.25,-438.17 276.25,-438.08"/>
<polygon fill="black" stroke="black" points="363.92,-427.52 374.04,-431.76 369.25,-427.38 373.58,-427.27 373.58,-427.27 373.58,-427.27 369.25,-427.38 373.8,-422.76 363.92,-427.52"/>
<polyline fill="none" stroke="black" points="362.7,-427.56 357.7,-427.69"/>
</g>
<!-- gdm.distribution.components.matrix_impedance_branch.MatrixImpedanceBranch&#45;&gt;gdm.distribution.components.distribution_feeder.DistributionFeeder -->
<g id="edge7" class="edge">
<title>gdm.distribution.components.matrix_impedance_branch.MatrixImpedanceBranch:e&#45;&gt;gdm.distribution.components.distribution_feeder.DistributionFeeder:w</title>
<path fill="none" stroke="black" d="M276.16,-483.25C602.47,-483.46 692.07,-494.09 1014.23,-494.49"/>
<polyline fill="none" stroke="black" points="266.25,-483.25 271.25,-483.25"/>
<polyline fill="none" stroke="black" points="271.25,-483.25 276.25,-483.25"/>
<polyline fill="none" stroke="black" points="1032.75,-494.5 1027.75,-494.5"/>
<polygon fill="black" stroke="black" points="1026.75,-489.5 1026.75,-499.5 1024.75,-499.5 1024.75,-489.5 1026.75,-489.5"/>
<polyline fill="none" stroke="black" points="1027.75,-494.5 1022.75,-494.49"/>
<ellipse fill="none" stroke="black" cx="1018.25" cy="-494.49" rx="4" ry="4"/>
</g>
<!-- gdm.distribution.components.matrix_impedance_branch.MatrixImpedanceBranch&#45;&gt;gdm.distribution.components.distribution_substation.DistributionSubstation -->
<g id="edge8" class="edge">
<title>gdm.distribution.components.matrix_impedance_branch.MatrixImpedanceBranch:e&#45;&gt;gdm.distribution.components.distribution_substation.DistributionSubstation:w</title>
<path fill="none" stroke="black" d="M275.95,-506.04C384.62,-512.21 612.54,-615.48 727.48,-626.75"/>
<polyline fill="none" stroke="black" points="266.25,-505.75 271.25,-505.9"/>
<polyline fill="none" stroke="black" points="271.25,-505.9 276.25,-506.05"/>
<polyline fill="none" stroke="black" points="746.25,-627.75 741.26,-627.48"/>
<polygon fill="black" stroke="black" points="740.52,-622.44 739.99,-632.42 738,-632.32 738.53,-622.33 740.52,-622.44"/>
<polyline fill="none" stroke="black" points="741.26,-627.48 736.26,-627.22"/>
<ellipse fill="none" stroke="black" cx="731.77" cy="-626.98" rx="4" ry="4"/>
</g>
<!-- gdm.distribution.equipment.matrix_impedance_branch_equipment.MatrixImpedanceBranchEquipment -->
<g id="node7" class="node">
<title>gdm.distribution.equipment.matrix_impedance_branch_equipment.MatrixImpedanceBranchEquipment</title>
<g id="a_node7"><a xlink:title="gdm.distribution.equipment.matrix_impedance_branch_equipment.MatrixImpedanceBranchEquipment&#10;&#10;Data model for impedance based branch.&#10;">
<polygon fill="none" stroke="black" points="396.38,-155.25 396.38,-177.75 616.12,-177.75 616.12,-155.25 396.38,-155.25"/>
<text text-anchor="start" x="399.38" y="-162.45" font-family="Times New Roman,Times,Liberation Serif,serif" font-weight="bold" font-size="14.00">MatrixImpedanceBranchEquipment</text>
<polygon fill="none" stroke="black" points="396.38,-132.75 396.38,-155.25 470.62,-155.25 470.62,-132.75 396.38,-132.75"/>
<text text-anchor="start" x="421.5" y="-138.95" font-family="Times New Roman,Times,Liberation Serif,serif" font-size="14.00">uuid</text>
<polygon fill="none" stroke="black" points="470.62,-132.75 470.62,-155.25 616.12,-155.25 616.12,-132.75 470.62,-132.75"/>
<text text-anchor="start" x="526.5" y="-138.95" font-family="Times New Roman,Times,Liberation Serif,serif" font-size="14.00">UUID</text>
<polygon fill="none" stroke="black" points="396.38,-110.25 396.38,-132.75 470.62,-132.75 470.62,-110.25 396.38,-110.25"/>
<text text-anchor="start" x="418.5" y="-116.45" font-family="Times New Roman,Times,Liberation Serif,serif" font-size="14.00">name</text>
<polygon fill="none" stroke="black" points="470.62,-110.25 470.62,-132.75 616.12,-132.75 616.12,-110.25 470.62,-110.25"/>
<text text-anchor="start" x="536.62" y="-116.45" font-family="Times New Roman,Times,Liberation Serif,serif" font-size="14.00">str</text>
<polygon fill="none" stroke="black" points="396.38,-87.75 396.38,-110.25 470.62,-110.25 470.62,-87.75 396.38,-87.75"/>
<text text-anchor="start" x="409.88" y="-93.95" font-family="Times New Roman,Times,Liberation Serif,serif" font-size="14.00">r_matrix</text>
<polygon fill="none" stroke="black" points="470.62,-87.75 470.62,-110.25 616.12,-110.25 616.12,-87.75 470.62,-87.75"/>
<text text-anchor="start" x="486.75" y="-93.95" font-family="Times New Roman,Times,Liberation Serif,serif" font-size="14.00">ResistancePULength</text>
<polygon fill="none" stroke="black" points="396.38,-65.25 396.38,-87.75 470.62,-87.75 470.62,-65.25 396.38,-65.25"/>
<text text-anchor="start" x="408.75" y="-71.45" font-family="Times New Roman,Times,Liberation Serif,serif" font-size="14.00">x_matrix</text>
<polygon fill="none" stroke="black" points="470.62,-65.25 470.62,-87.75 616.12,-87.75 616.12,-65.25 470.62,-65.25"/>
<text text-anchor="start" x="487.88" y="-71.45" font-family="Times New Roman,Times,Liberation Serif,serif" font-size="14.00">ReactancePULength</text>
<polygon fill="none" stroke="black" points="396.38,-42.75 396.38,-65.25 470.62,-65.25 470.62,-42.75 396.38,-42.75"/>
<text text-anchor="start" x="409.12" y="-48.95" font-family="Times New Roman,Times,Liberation Serif,serif" font-size="14.00">c_matrix</text>
<polygon fill="none" stroke="black" points="470.62,-42.75 470.62,-65.25 616.12,-65.25 616.12,-42.75 470.62,-42.75"/>
<text text-anchor="start" x="482.62" y="-48.95" font-family="Times New Roman,Times,Liberation Serif,serif" font-size="14.00">CapacitancePULength</text>
<polygon fill="none" stroke="black" points="396.38,-20.25 396.38,-42.75 470.62,-42.75 470.62,-20.25 396.38,-20.25"/>
<text text-anchor="start" x="408.38" y="-26.45" font-family="Times New Roman,Times,Liberation Serif,serif" font-size="14.00">ampacity</text>
<polygon fill="none" stroke="black" points="470.62,-20.25 470.62,-42.75 616.12,-42.75 616.12,-20.25 470.62,-20.25"/>
<text text-anchor="start" x="501" y="-26.45" font-family="Times New Roman,Times,Liberation Serif,serif" font-size="14.00">PositiveCurrent</text>
</a>
</g>
</g>
<!-- gdm.distribution.components.matrix_impedance_branch.MatrixImpedanceBranch&#45;&gt;gdm.distribution.equipment.matrix_impedance_branch_equipment.MatrixImpedanceBranchEquipment -->
<g id="edge9" class="edge">
<title>gdm.distribution.components.matrix_impedance_branch.MatrixImpedanceBranch:e&#45;&gt;gdm.distribution.equipment.matrix_impedance_branch_equipment.MatrixImpedanceBranchEquipment:w</title>
<path fill="none" stroke="black" d="M276.04,-370.13C363.55,-358.44 298.94,-185.82 380.64,-167.99"/>
<polyline fill="none" stroke="black" points="266.25,-370.75 271.24,-370.43"/>
<polyline fill="none" stroke="black" points="271.24,-370.43 276.23,-370.12"/>
<polyline fill="none" stroke="black" points="395.38,-166.5 390.4,-167"/>
<polygon fill="black" stroke="black" points="388.9,-162.13 389.91,-172.08 387.92,-172.28 386.91,-162.33 388.9,-162.13"/>
<polyline fill="none" stroke="black" points="390.4,-167 385.43,-167.5"/>
<polygon fill="black" stroke="black" points="383.93,-162.63 384.93,-172.58 382.94,-172.78 381.94,-162.83 383.93,-162.63"/>
<polyline fill="none" stroke="black" points="385.43,-167.5 380.45,-168.01"/>
</g>
</g>
</svg>
