<?xml version="1.0" encoding="UTF-8" standalone="no"?>
<!DOCTYPE svg PUBLIC "-//W3C//DTD SVG 1.1//EN"
 "http://www.w3.org/Graphics/SVG/1.1/DTD/svg11.dtd">
<!-- Generated by graphviz version 12.2.1 (20241206.2353)
 -->
<!-- Title: Entity Relationship Diagram created by erdantic Pages: 1 -->
<svg width="275pt" height="297pt"
 viewBox="0.00 0.00 274.50 296.50" xmlns="http://www.w3.org/2000/svg" xmlns:xlink="http://www.w3.org/1999/xlink">
<g id="graph0" class="graph" transform="scale(1 1) rotate(0) translate(4 292.5)">
<title>Entity Relationship Diagram created by erdantic</title>
<polygon fill="white" stroke="none" points="-4,4 -4,-292.5 270.5,-292.5 270.5,4 -4,4"/>
<text text-anchor="middle" x="133.25" y="-5.95" font-family="Times New Roman,Times,Liberation Serif,serif" font-size="9.00" fill="#a8a8a8">Created by erdantic v1.0.5 &lt;https://github.com/drivendataorg/erdantic&gt;</text>
<!-- gdm.distribution.equipment.phase_load_equipment.PhaseLoadEquipment -->
<g id="node1" class="node">
<title>gdm.distribution.equipment.phase_load_equipment.PhaseLoadEquipment</title>
<g id="a_node1"><a xlink:title="gdm.distribution.equipment.phase_load_equipment.PhaseLoadEquipment&#10;&#10;Data model for single phase load equipment.&#10;">
<polygon fill="none" stroke="black" points="42.88,-266 42.88,-288.5 223.62,-288.5 223.62,-266 42.88,-266"/>
<text text-anchor="start" x="68.75" y="-273.2" font-family="Times New Roman,Times,Liberation Serif,serif" font-weight="bold" font-size="14.00">PhaseLoadEquipment</text>
<polygon fill="none" stroke="black" points="42.88,-243.5 42.88,-266 135.88,-266 135.88,-243.5 42.88,-243.5"/>
<text text-anchor="start" x="77.38" y="-249.7" font-family="Times New Roman,Times,Liberation Serif,serif" font-size="14.00">uuid</text>
<polygon fill="none" stroke="black" points="135.88,-243.5 135.88,-266 223.62,-266 223.62,-243.5 135.88,-243.5"/>
<text text-anchor="start" x="162.88" y="-249.7" font-family="Times New Roman,Times,Liberation Serif,serif" font-size="14.00">UUID</text>
<polygon fill="none" stroke="black" points="42.88,-221 42.88,-243.5 135.88,-243.5 135.88,-221 42.88,-221"/>
<text text-anchor="start" x="74.38" y="-227.2" font-family="Times New Roman,Times,Liberation Serif,serif" font-size="14.00">name</text>
<polygon fill="none" stroke="black" points="135.88,-221 135.88,-243.5 223.62,-243.5 223.62,-221 135.88,-221"/>
<text text-anchor="start" x="173" y="-227.2" font-family="Times New Roman,Times,Liberation Serif,serif" font-size="14.00">str</text>
<polygon fill="none" stroke="black" points="42.88,-198.5 42.88,-221 135.88,-221 135.88,-198.5 42.88,-198.5"/>
<text text-anchor="start" x="59" y="-204.7" font-family="Times New Roman,Times,Liberation Serif,serif" font-size="14.00">real_power</text>
<polygon fill="none" stroke="black" points="135.88,-198.5 135.88,-221 223.62,-221 223.62,-198.5 135.88,-198.5"/>
<text text-anchor="start" x="144.5" y="-204.7" font-family="Times New Roman,Times,Liberation Serif,serif" font-size="14.00">ActivePower</text>
<polygon fill="none" stroke="black" points="42.88,-176 42.88,-198.5 135.88,-198.5 135.88,-176 42.88,-176"/>
<text text-anchor="start" x="47.75" y="-182.2" font-family="Times New Roman,Times,Liberation Serif,serif" font-size="14.00">reactive_power</text>
<polygon fill="none" stroke="black" points="135.88,-176 135.88,-198.5 223.62,-198.5 223.62,-176 135.88,-176"/>
<text text-anchor="start" x="138.88" y="-182.2" font-family="Times New Roman,Times,Liberation Serif,serif" font-size="14.00">ReactivePower</text>
<polygon fill="none" stroke="black" points="42.88,-153.5 42.88,-176 135.88,-176 135.88,-153.5 42.88,-153.5"/>
<text text-anchor="start" x="72.88" y="-159.7" font-family="Times New Roman,Times,Liberation Serif,serif" font-size="14.00">z_real</text>
<polygon fill="none" stroke="black" points="135.88,-153.5 135.88,-176 223.62,-176 223.62,-153.5 135.88,-153.5"/>
<text text-anchor="start" x="167.38" y="-159.7" font-family="Times New Roman,Times,Liberation Serif,serif" font-size="14.00">float</text>
<polygon fill="none" stroke="black" points="42.88,-131 42.88,-153.5 135.88,-153.5 135.88,-131 42.88,-131"/>
<text text-anchor="start" x="69.12" y="-137.2" font-family="Times New Roman,Times,Liberation Serif,serif" font-size="14.00">z_imag</text>
<polygon fill="none" stroke="black" points="135.88,-131 135.88,-153.5 223.62,-153.5 223.62,-131 135.88,-131"/>
<text text-anchor="start" x="167.38" y="-137.2" font-family="Times New Roman,Times,Liberation Serif,serif" font-size="14.00">float</text>
<polygon fill="none" stroke="black" points="42.88,-108.5 42.88,-131 135.88,-131 135.88,-108.5 42.88,-108.5"/>
<text text-anchor="start" x="74" y="-114.7" font-family="Times New Roman,Times,Liberation Serif,serif" font-size="14.00">i_real</text>
<polygon fill="none" stroke="black" points="135.88,-108.5 135.88,-131 223.62,-131 223.62,-108.5 135.88,-108.5"/>
<text text-anchor="start" x="167.38" y="-114.7" font-family="Times New Roman,Times,Liberation Serif,serif" font-size="14.00">float</text>
<polygon fill="none" stroke="black" points="42.88,-86 42.88,-108.5 135.88,-108.5 135.88,-86 42.88,-86"/>
<text text-anchor="start" x="70.25" y="-92.2" font-family="Times New Roman,Times,Liberation Serif,serif" font-size="14.00">i_imag</text>
<polygon fill="none" stroke="black" points="135.88,-86 135.88,-108.5 223.62,-108.5 223.62,-86 135.88,-86"/>
<text text-anchor="start" x="167.38" y="-92.2" font-family="Times New Roman,Times,Liberation Serif,serif" font-size="14.00">float</text>
<polygon fill="none" stroke="black" points="42.88,-63.5 42.88,-86 135.88,-86 135.88,-63.5 42.88,-63.5"/>
<text text-anchor="start" x="72.5" y="-69.7" font-family="Times New Roman,Times,Liberation Serif,serif" font-size="14.00">p_real</text>
<polygon fill="none" stroke="black" points="135.88,-63.5 135.88,-86 223.62,-86 223.62,-63.5 135.88,-63.5"/>
<text text-anchor="start" x="167.38" y="-69.7" font-family="Times New Roman,Times,Liberation Serif,serif" font-size="14.00">float</text>
<polygon fill="none" stroke="black" points="42.88,-41 42.88,-63.5 135.88,-63.5 135.88,-41 42.88,-41"/>
<text text-anchor="start" x="68.75" y="-47.2" font-family="Times New Roman,Times,Liberation Serif,serif" font-size="14.00">p_imag</text>
<polygon fill="none" stroke="black" points="135.88,-41 135.88,-63.5 223.62,-63.5 223.62,-41 135.88,-41"/>
<text text-anchor="start" x="167.38" y="-47.2" font-family="Times New Roman,Times,Liberation Serif,serif" font-size="14.00">float</text>
<polygon fill="none" stroke="black" points="42.88,-18.5 42.88,-41 135.88,-41 135.88,-18.5 42.88,-18.5"/>
<text text-anchor="start" x="45.88" y="-24.7" font-family="Times New Roman,Times,Liberation Serif,serif" font-size="14.00">num_customers</text>
<polygon fill="none" stroke="black" points="135.88,-18.5 135.88,-41 223.62,-41 223.62,-18.5 135.88,-18.5"/>
<text text-anchor="start" x="144.5" y="-24.7" font-family="Times New Roman,Times,Liberation Serif,serif" font-size="14.00">Optional[int]</text>
</a>
</g>
</g>
</g>
</svg>
