<?xml version="1.0" encoding="UTF-8" standalone="no"?>
<!DOCTYPE svg PUBLIC "-//W3C//DTD SVG 1.1//EN"
 "http://www.w3.org/Graphics/SVG/1.1/DTD/svg11.dtd">
<!-- Generated by graphviz version 12.2.1 (20241206.2353)
 -->
<!-- Title: Entity Relationship Diagram created by erdantic Pages: 1 -->
<svg width="275pt" height="229pt"
 viewBox="0.00 0.00 274.50 229.00" xmlns="http://www.w3.org/2000/svg" xmlns:xlink="http://www.w3.org/1999/xlink">
<g id="graph0" class="graph" transform="scale(1 1) rotate(0) translate(4 225)">
<title>Entity Relationship Diagram created by erdantic</title>
<polygon fill="white" stroke="none" points="-4,4 -4,-225 270.5,-225 270.5,4 -4,4"/>
<text text-anchor="middle" x="133.25" y="-5.95" font-family="Times New Roman,Times,Liberation Serif,serif" font-size="9.00" fill="#a8a8a8">Created by erdantic v1.0.5 &lt;https://github.com/drivendataorg/erdantic&gt;</text>
<!-- gdm.distribution.equipment.phase_voltagesource_equipment.PhaseVoltageSourceEquipment -->
<g id="node1" class="node">
<title>gdm.distribution.equipment.phase_voltagesource_equipment.PhaseVoltageSourceEquipment</title>
<g id="a_node1"><a xlink:title="gdm.distribution.equipment.phase_voltagesource_equipment.PhaseVoltageSourceEquipment&#10;&#10;Data model for phase voltage source.&#10;">
<polygon fill="none" stroke="black" points="39.12,-198.5 39.12,-221 227.38,-221 227.38,-198.5 39.12,-198.5"/>
<text text-anchor="start" x="42.12" y="-205.7" font-family="Times New Roman,Times,Liberation Serif,serif" font-weight="bold" font-size="14.00">PhaseVoltageSourceEquipment</text>
<polygon fill="none" stroke="black" points="39.12,-176 39.12,-198.5 124.25,-198.5 124.25,-176 39.12,-176"/>
<text text-anchor="start" x="69.69" y="-182.2" font-family="Times New Roman,Times,Liberation Serif,serif" font-size="14.00">uuid</text>
<polygon fill="none" stroke="black" points="124.25,-176 124.25,-198.5 227.38,-198.5 227.38,-176 124.25,-176"/>
<text text-anchor="start" x="158.94" y="-182.2" font-family="Times New Roman,Times,Liberation Serif,serif" font-size="14.00">UUID</text>
<polygon fill="none" stroke="black" points="39.12,-153.5 39.12,-176 124.25,-176 124.25,-153.5 39.12,-153.5"/>
<text text-anchor="start" x="66.69" y="-159.7" font-family="Times New Roman,Times,Liberation Serif,serif" font-size="14.00">name</text>
<polygon fill="none" stroke="black" points="124.25,-153.5 124.25,-176 227.38,-176 227.38,-153.5 124.25,-153.5"/>
<text text-anchor="start" x="169.06" y="-159.7" font-family="Times New Roman,Times,Liberation Serif,serif" font-size="14.00">str</text>
<polygon fill="none" stroke="black" points="39.12,-131 39.12,-153.5 124.25,-153.5 124.25,-131 39.12,-131"/>
<text text-anchor="start" x="76.06" y="-137.2" font-family="Times New Roman,Times,Liberation Serif,serif" font-size="14.00">r0</text>
<polygon fill="none" stroke="black" points="124.25,-131 124.25,-153.5 227.38,-153.5 227.38,-131 124.25,-131"/>
<text text-anchor="start" x="146.94" y="-137.2" font-family="Times New Roman,Times,Liberation Serif,serif" font-size="14.00">Resistance</text>
<polygon fill="none" stroke="black" points="39.12,-108.5 39.12,-131 124.25,-131 124.25,-108.5 39.12,-108.5"/>
<text text-anchor="start" x="76.06" y="-114.7" font-family="Times New Roman,Times,Liberation Serif,serif" font-size="14.00">r1</text>
<polygon fill="none" stroke="black" points="124.25,-108.5 124.25,-131 227.38,-131 227.38,-108.5 124.25,-108.5"/>
<text text-anchor="start" x="146.94" y="-114.7" font-family="Times New Roman,Times,Liberation Serif,serif" font-size="14.00">Resistance</text>
<polygon fill="none" stroke="black" points="39.12,-86 39.12,-108.5 124.25,-108.5 124.25,-86 39.12,-86"/>
<text text-anchor="start" x="74.94" y="-92.2" font-family="Times New Roman,Times,Liberation Serif,serif" font-size="14.00">x0</text>
<polygon fill="none" stroke="black" points="124.25,-86 124.25,-108.5 227.38,-108.5 227.38,-86 124.25,-86"/>
<text text-anchor="start" x="148.06" y="-92.2" font-family="Times New Roman,Times,Liberation Serif,serif" font-size="14.00">Reactance</text>
<polygon fill="none" stroke="black" points="39.12,-63.5 39.12,-86 124.25,-86 124.25,-63.5 39.12,-63.5"/>
<text text-anchor="start" x="74.94" y="-69.7" font-family="Times New Roman,Times,Liberation Serif,serif" font-size="14.00">x1</text>
<polygon fill="none" stroke="black" points="124.25,-63.5 124.25,-86 227.38,-86 227.38,-63.5 124.25,-63.5"/>
<text text-anchor="start" x="148.06" y="-69.7" font-family="Times New Roman,Times,Liberation Serif,serif" font-size="14.00">Reactance</text>
<polygon fill="none" stroke="black" points="39.12,-41 39.12,-63.5 124.25,-63.5 124.25,-41 39.12,-41"/>
<text text-anchor="start" x="61.81" y="-47.2" font-family="Times New Roman,Times,Liberation Serif,serif" font-size="14.00">voltage</text>
<polygon fill="none" stroke="black" points="124.25,-41 124.25,-63.5 227.38,-63.5 227.38,-41 124.25,-41"/>
<text text-anchor="start" x="155.19" y="-47.2" font-family="Times New Roman,Times,Liberation Serif,serif" font-size="14.00">Voltage</text>
<polygon fill="none" stroke="black" points="39.12,-18.5 39.12,-41 124.25,-41 124.25,-18.5 39.12,-18.5"/>
<text text-anchor="start" x="67.06" y="-24.7" font-family="Times New Roman,Times,Liberation Serif,serif" font-size="14.00">angle</text>
<polygon fill="none" stroke="black" points="124.25,-18.5 124.25,-41 227.38,-41 227.38,-18.5 124.25,-18.5"/>
<text text-anchor="start" x="159.31" y="-24.7" font-family="Times New Roman,Times,Liberation Serif,serif" font-size="14.00">Angle</text>
</a>
</g>
</g>
</g>
</svg>
