<?xml version="1.0" encoding="UTF-8" standalone="no"?>
<!DOCTYPE svg PUBLIC "-//W3C//DTD SVG 1.1//EN"
 "http://www.w3.org/Graphics/SVG/1.1/DTD/svg11.dtd">
<!-- Generated by graphviz version 12.2.1 (20241206.2353)
 -->
<!-- Title: Entity Relationship Diagram created by erdantic Pages: 1 -->
<svg width="345pt" height="117pt"
 viewBox="0.00 0.00 344.75 116.50" xmlns="http://www.w3.org/2000/svg" xmlns:xlink="http://www.w3.org/1999/xlink">
<g id="graph0" class="graph" transform="scale(1 1) rotate(0) translate(4 112.5)">
<title>Entity Relationship Diagram created by erdantic</title>
<polygon fill="white" stroke="none" points="-4,4 -4,-112.5 340.75,-112.5 340.75,4 -4,4"/>
<text text-anchor="middle" x="168.38" y="-5.95" font-family="Times New Roman,Times,Liberation Serif,serif" font-size="9.00" fill="#a8a8a8">Created by erdantic v1.0.5 &lt;https://github.com/drivendataorg/erdantic&gt;</text>
<!-- gdm.distribution.controllers.distribution_inverter_controller.SelfConsumptionControlSetting -->
<g id="node1" class="node">
<title>gdm.distribution.controllers.distribution_inverter_controller.SelfConsumptionControlSetting</title>
<g id="a_node1"><a xlink:title="gdm.distribution.controllers.distribution_inverter_controller.SelfConsumptionControlSetting&#10;&#10;Control settings for the Inverter Controller to represent self comsumption&#10;control settings. Works with battery systems only. Controls active power output of the&#10;connected inverter&#10;">
<polygon fill="none" stroke="black" points="0,-86 0,-108.5 336.75,-108.5 336.75,-86 0,-86"/>
<text text-anchor="start" x="75.38" y="-93.2" font-family="Times New Roman,Times,Liberation Serif,serif" font-weight="bold" font-size="14.00">SelfConsumptionControlSetting</text>
<polygon fill="none" stroke="black" points="0,-63.5 0,-86 79.5,-86 79.5,-63.5 0,-63.5"/>
<text text-anchor="start" x="27.75" y="-69.7" font-family="Times New Roman,Times,Liberation Serif,serif" font-size="14.00">uuid</text>
<polygon fill="none" stroke="black" points="79.5,-63.5 79.5,-86 336.75,-86 336.75,-63.5 79.5,-63.5"/>
<text text-anchor="start" x="191.25" y="-69.7" font-family="Times New Roman,Times,Liberation Serif,serif" font-size="14.00">UUID</text>
<polygon fill="none" stroke="black" points="0,-41 0,-63.5 79.5,-63.5 79.5,-41 0,-41"/>
<text text-anchor="start" x="24.75" y="-47.2" font-family="Times New Roman,Times,Liberation Serif,serif" font-size="14.00">name</text>
<polygon fill="none" stroke="black" points="79.5,-41 79.5,-63.5 336.75,-63.5 336.75,-41 79.5,-41"/>
<text text-anchor="start" x="201.38" y="-47.2" font-family="Times New Roman,Times,Liberation Serif,serif" font-size="14.00">str</text>
<polygon fill="none" stroke="black" points="0,-18.5 0,-41 79.5,-41 79.5,-18.5 0,-18.5"/>
<text text-anchor="start" x="3" y="-24.7" font-family="Times New Roman,Times,Liberation Serif,serif" font-size="14.00">supported_by</text>
<polygon fill="none" stroke="black" points="79.5,-18.5 79.5,-41 336.75,-41 336.75,-18.5 79.5,-18.5"/>
<text text-anchor="start" x="82.5" y="-24.7" font-family="Times New Roman,Times,Liberation Serif,serif" font-size="14.00">Literal[ControllerSupport.BATTERY_ONLY]</text>
</a>
</g>
</g>
</g>
</svg>
